<?xml version="1.0" encoding="UTF-8"?>
<svg xmlns="http://www.w3.org/2000/svg" xmlns:xlink="http://www.w3.org/1999/xlink" width="250px" height="250px" viewBox="0 0 250 250">
  <!-- Generator: Sketch 48 (47235) - http://www.bohemiancoding.com/sketch -->
  <title>agnes-scott-college-logo</title>
  <desc>Created with Sketch.</desc>
  <defs></defs>
  <g id="Page-1" stroke="none" stroke-width="1" fill="none" fill-rule="evenodd">
    <g id="agnes-scott-college-logo">
      <g transform="translate(18.000000, 0.000000)">
        <path d="M133.747675,65.475162 C133.29541,66.0466681 132.968904,66.5157566 132.609592,67.0340994 C132.260434,67.5414967 131.926117,68.0496759 131.601173,68.5617642 C130.949724,69.5851589 130.334205,70.6202807 129.750713,71.6679117 C128.581385,73.7631735 127.529224,75.9069078 126.578607,78.0866056 C124.678937,82.4483466 123.196382,86.9609777 122.135629,91.5502266 C121.602128,93.8597055 121.177201,96.1887297 120.860069,98.526354 C120.817889,97.89543 120.778833,97.2637242 120.724155,96.6328002 C120.072706,89.0421669 118.539378,81.5039151 116.206971,74.2009894 C114.084683,67.5547876 111.302353,61.1063847 107.954497,54.9472531 C109.837764,52.1202132 111.838979,49.3768275 113.965172,46.7491502 C115.122784,45.319994 116.313983,43.9221103 117.543457,42.5695719 C118.759652,41.2342334 120.062551,39.8707496 121.299836,38.7347737 L117.23023,34.5161047 C115.787512,36.0281332 114.583815,37.4807438 113.357465,39.0099722 C112.1483,40.5290371 110.992251,42.0785926 109.877601,43.6531663 C108.301312,45.8821183 106.816413,48.1665792 105.408845,50.4948217 C103.941913,48.0618161 102.383589,45.6788467 100.728408,43.3568587 C99.6043843,41.7799397 98.4373995,40.2303841 97.2165177,38.7128829 C95.9792325,37.1836544 94.7638185,35.7326074 93.3078213,34.2237062 L89.2624299,38.4650478 C90.5090884,39.5963328 91.8221417,40.9574712 93.0477102,42.2912461 C94.2857765,43.6414391 95.4863493,45.0377591 96.6509909,46.4669153 C98.8560768,49.1719922 100.926811,52.0005957 102.867099,54.922235 C99.4630026,61.1532936 96.6213085,67.6720597 94.4334071,74.3909702 C92.0720983,81.6376053 90.4739383,89.113312 89.7084462,96.6500001 C89.4717685,94.8690275 89.1593228,93.0943095 88.7695467,91.3328822 C87.7376946,86.6889064 86.1785903,82.1410936 84.1398817,77.790298 C83.1205275,75.6152912 81.9801004,73.4903204 80.7162574,71.4239857 C80.0827736,70.391991 79.4203886,69.3732872 78.7166045,68.3725651 C78.364322,67.8714223 78.0034471,67.3741885 77.62695,66.880082 C77.2395172,66.3758119 76.8864535,65.9192324 76.4013815,65.365708 L72.2036728,69.4561595 C72.5184619,69.7415217 72.9277658,70.160574 73.2878596,70.5420993 C73.6588889,70.9337882 74.0252315,71.3403316 74.3868875,71.7539112 C75.1101994,72.5818524 75.8092968,73.4418479 76.4873041,74.3229524 C77.8401942,76.0875069 79.102475,77.9388427 80.2624299,79.8589782 C82.5831208,83.700031 84.5030999,87.8139369 85.9458182,92.1146964 C87.3861931,96.4154558 88.3477449,100.905414 88.7773578,105.476681 C89.0015377,107.756451 89.0359067,110.068276 89.113237,112.398082 C89.1858807,114.725543 89.3163268,117.045185 89.4358373,119.365609 C89.5608156,117.045185 89.6740772,114.724761 89.8451412,112.412936 C90.0115186,110.104239 90.2232006,107.774433 90.2403851,105.416482 C90.2458529,104.930975 90.2419473,104.444687 90.2356984,103.958398 C90.4590971,101.591847 90.7465472,99.2354594 91.1535078,96.8978352 C92.3876685,89.5136008 94.4310638,82.295111 97.1883976,75.3877833 C99.4669082,69.6758493 102.234396,64.1773506 105.411189,58.9454505 C108.527835,64.1101146 111.233615,69.5390318 113.446512,75.1821661 C116.168696,82.1223301 118.146478,89.3830378 119.268939,96.8055811 C119.732921,99.8538743 120.043804,102.930313 120.218774,106.018479 C120.035993,110.50531 120.392963,114.935851 120.582773,119.365609 C120.871786,114.755251 120.980361,110.118312 121.695861,105.604899 C122.375431,101.079759 123.470553,96.6398365 124.952327,92.3578406 C126.430977,88.0750628 128.296278,83.9470842 130.509956,80.0497409 C131.617576,78.1014601 132.8119,76.2086881 134.093709,74.3956611 C134.732661,73.4879749 135.396608,72.6021795 136.078521,71.7437476 C136.419868,71.3145317 136.767464,70.8931339 137.118184,70.4834633 C137.459531,70.0863017 137.846964,69.6484858 138.146912,69.3467055 L133.747675,65.475162" id="Fill-1" fill="#604C15"></path>
        <path d="M113.628875,13.7928131 C117.110794,17.1161294 120.404121,20.6573171 123.443397,24.4163761 C129.50714,31.9274912 134.621695,40.354444 137.729549,49.6661102 C135.565429,40.0891078 131.246541,30.9976473 125.807018,22.6998611 C123.081021,18.544743 120.063566,14.5717032 116.8131,10.7846322 C115.186699,8.89148571 113.50107,7.04502595 111.753876,5.24914348 C109.98642,3.44547989 108.234551,1.72507428 106.233305,0 L102.671119,4.62665389 C104.524297,5.92454469 106.442937,7.45431286 108.263385,8.9817467 C110.097861,10.5247428 111.887137,12.131544 113.628875,13.7928131" id="Fill-2" fill="#604C15"></path>
        <path d="M77.6204849,165.705693 L77.6204849,174.322339 C73.7980695,176.236889 70.3173442,176.920824 67.1775308,176.920824 C59.3279971,176.920824 49.4999296,170.696781 49.4999296,156.678062 C49.4999296,155.364782 49.5894384,154.067099 49.763786,152.79827 C68.3613821,153.720842 77.6204849,162.000589 77.6204849,165.705693 Z M67.65543,135.681957 C74.0027722,135.681957 79.8044999,138.34907 81.6468248,146.898648 L83.0120287,146.898648 L83.0120287,135.819212 L82.0570086,135.819212 C81.6468248,136.161569 81.1012102,136.297264 80.4871019,136.297264 C79.0534042,136.297264 74.207475,133.973289 66.9043343,133.973289 C53.5799747,133.973289 46.3336527,142.203905 43.9667284,150.748025 C38.9962651,150.909455 34.8414996,151.481091 31.4144796,152.25159 L24.5028426,134.987104 L21.0906111,134.987104 L7.02994424,171.436866 C5.39154382,175.677731 3.54921897,177.319331 0,177.319331 L0,178.618574 L15.834498,178.618574 L15.834498,177.319331 C11.1932715,177.319331 9.48715571,176.498921 9.48715571,174.447116 C9.48715571,173.488671 9.89656123,172.120801 10.6476569,170.206251 L21.4315229,141.96215 L26.1575882,153.748917 C19.9495683,155.935637 17.4861301,158.496689 17.4861301,158.496689 L16.7077926,160.508722 C16.7077926,160.508722 19.8880796,157.723851 26.8526435,155.48254 L33.7175802,172.601193 C35.0142905,175.746359 33.5128775,177.182856 27.2332506,177.319331 L27.2332506,178.618574 L46.0036376,178.618574 L46.0036376,177.319331 C41.839532,177.319331 41.0207209,176.293039 39.3138268,171.983546 L32.1500085,154.088935 C35.3816658,153.410458 39.155046,152.912129 43.4997259,152.760057 C43.223416,154.22541 43.0840936,155.681404 43.0840936,157.089047 C43.0840936,167.073563 50.0455442,178.631052 64.9927374,178.631052 C67.8601327,178.631052 76.5284774,177.809862 83.2852252,174.322339 L83.2852252,164.815875 C83.2852252,161.876592 84.6504292,160.712265 88.0634391,160.508722 L88.0634391,158.496689 C88.0634391,158.496689 69.7398178,151.509946 50.1225996,150.765962 C51.9586977,142.334922 57.8507126,135.681957 67.65543,135.681957 Z" id="Fill-3" fill="#501D3C"></path>
        <path d="M126.255827,136.106368 C131.748517,136.243529 132.983902,136.995577 132.983902,141.164963 L132.983902,168.364943 L100.64859,134.808013 L89.8706751,134.808013 L89.8706751,136.106368 C92.2733352,136.174948 94.0583027,136.722813 95.6373726,137.816206 L95.6373726,171.440157 C95.6373726,174.583173 94.2642002,176.018688 90.0076792,176.018688 L89.7328881,176.018688 L89.7328881,177.317043 L105.660591,177.317043 L105.660591,176.018688 C99.8250001,176.018688 98.7266188,174.993877 98.7266188,170.073222 L98.7266188,140.755817 L134.288181,177.796327 L136.073931,177.796327 L136.073931,139.660866 C136.073931,136.995577 137.172312,136.106368 142.320534,136.106368 L142.320534,134.808013 L126.255827,134.808013 L126.255827,136.106368" id="Fill-4" fill="#501D3C"></path>
        <path d="M179.899531,167.180699 C178.182245,173.067706 176.739818,174.915054 171.932513,174.915054 L161.35785,174.915054 C158.817551,174.915054 157.650767,174.299271 157.650767,171.150117 L157.650767,156.572691 L169.254392,156.572691 C172.070334,156.572691 173.374939,157.120574 173.923876,161.979716 L175.230047,161.979716 L175.230047,148.975697 L173.923876,148.975697 C173.581671,152.946676 172.414888,154.109561 169.94115,154.109561 L157.650767,154.109561 L157.650767,137.272705 L172.139245,137.272705 C174.610634,137.272705 176.328703,138.50427 177.22141,144.321816 L178.457104,144.321816 L177.908168,134.808013 L144.945354,134.808013 L144.945354,136.108259 L146.456691,136.108259 C151.057264,136.108259 151.950754,137.751907 151.950754,141.583964 L151.950754,170.467214 C151.950754,174.572432 150.988354,176.078719 145.495073,176.078719 L143.572621,176.078719 L143.572621,177.378965 L180.035786,177.378965 L181.135225,167.180699 L179.899531,167.180699" id="Fill-5" fill="#501D3C"></path>
        <path d="M1.30503301,214.721489 C2.74793265,220.807497 7.55603146,224.362868 12.9140301,224.362868 C17.5168957,224.362868 22.3939278,221.695755 22.3939278,216.292902 C22.3939278,206.445641 0.343883248,203.43617 0.343883248,191.468476 C0.343883248,185.793453 5.56401529,181.552588 12.5709302,181.552588 C18.3409621,181.552588 19.5089118,183.262035 21.9129612,183.262035 C22.4620778,183.262035 22.7370277,183.12634 23.1490609,182.5781 L24.2488607,182.5781 L25.416027,191.264154 L24.2488607,191.264154 C22.3249945,186.340133 17.9289289,183.194968 13.1889801,183.194968 C8.65504786,183.194968 5.49586531,185.793453 5.49586531,189.622554 C5.49586531,199.33412 27.5459098,201.932605 27.5459098,214.515607 C27.5459098,221.217703 21.5698613,226.210351 13.53208,226.210351 C9.75406425,226.210351 4.94596544,224.362868 3.98403235,224.362868 C3.3659825,224.362868 2.88501595,224.705226 2.61084935,225.115431 L1.44289964,225.115431 L0,214.721489 L1.30503301,214.721489" id="Fill-6" fill="#501D3C"></path>
        <path d="M72.3877752,193.794792 C70.1245181,187.433493 64.2262856,183.262035 56.7514373,183.262035 C45.2982929,183.262035 38.1667652,191.537104 38.1667652,203.025965 C38.1667652,215.405424 47.0813704,224.500123 57.506117,224.500123 C62.9233878,224.500123 69.5763,222.65342 74.2396731,214.378352 L75.542571,214.378352 C74.6510322,217.45645 72.7991343,221.695755 71.1529158,224.362868 C66.7640428,223.74756 63.746888,226.210351 55.654219,226.210351 C41.7329201,226.210351 31.7195326,217.045465 31.7195326,204.393836 C31.7195326,191.127679 42.0066381,181.552588 56.3400782,181.552588 C64.9809653,181.552588 68.6847613,184.288328 70.8103773,184.288328 C71.565057,184.288328 71.9075955,184.082446 72.0444545,183.877343 L73.0736343,183.877343 L73.690673,193.794792 L72.3877752,193.794792" id="Fill-7" fill="#501D3C"></path>
        <path d="M103.069324,183.262035 C90.9811515,183.262035 86.1726704,194.478727 86.1726704,202.685168 C86.1726704,215.473272 94.8959242,224.500123 105.954099,224.500123 C117.15013,224.500123 122.507682,214.652862 122.507682,204.940516 C122.507682,192.221039 114.402426,183.262035 103.069324,183.262035 Z M104.512103,226.210351 C91.0492959,226.210351 79.7161937,217.592145 79.7161937,204.804041 C79.7161937,191.196306 90.2252981,181.552588 104.855958,181.552588 C117.837056,181.552588 128.964942,190.375116 128.964942,202.685168 C128.964942,216.498784 117.837056,226.210351 104.512103,226.210351 Z" id="Fill-8" fill="#501D3C"></path>
        <path d="M154.832826,218.68985 C154.832826,222.369153 156.062478,223.663709 160.231452,223.663709 L162.759331,223.663709 L162.759331,224.958264 L141.234179,224.958264 L141.234179,223.663709 L143.762058,223.663709 C147.930252,223.663709 149.160684,222.369153 149.160684,218.68985 L149.160684,185.028305 L137.270927,185.028305 C134.537327,185.028305 133.307674,186.594826 132.282964,192.590497 L131.051753,192.590497 L132.146596,181.552588 L133.444822,181.552588 C133.512616,181.961313 133.785353,182.234055 134.196016,182.370815 C134.6059,182.507575 135.083579,182.5744 135.562816,182.5744 L168.431473,182.5744 C169.387609,182.5744 169.455404,185.028305 166.722583,185.028305 L154.832826,185.028305 L154.832826,218.68985" id="Fill-9" fill="#501D3C"></path>
        <path d="M189.908179,185.028181 L178.018306,185.028181 C175.285459,185.028181 175.353254,182.575918 176.310958,182.575918 L209.179934,182.575918 C209.657617,182.575918 210.1353,182.50754 210.546747,182.370786 C210.955856,182.234031 211.230154,181.962852 211.297949,181.552588 L212.596188,181.552588 L213.689482,192.591656 L212.459818,192.591656 C211.433539,186.595422 210.203875,185.028181 207.470248,185.028181 L195.580376,185.028181 L195.580376,218.68852 C195.580376,222.369246 196.810819,223.663755 200.979054,223.663755 L203.506957,223.663755 L203.506957,224.958264 L181.981597,224.958264 L181.981597,223.663755 L184.5095,223.663755 C188.678514,223.663755 189.908179,222.369246 189.908179,218.68852 L189.908179,185.028181" id="Fill-10" fill="#501D3C"></path>
        <path d="M186.613918,167.14219 C188.056859,173.228199 192.865094,176.783569 198.223245,176.783569 C202.825459,176.783569 207.703413,174.116456 207.703413,168.713603 C207.703413,158.866342 185.651958,155.856872 185.651958,143.889178 C185.651958,138.213374 190.873022,133.973289 197.880136,133.973289 C203.650332,133.973289 204.817531,135.682737 207.222432,135.682737 C207.772348,135.682737 208.046522,135.546261 208.459351,134.998801 L209.557615,134.998801 L210.725598,143.684855 L209.557615,143.684855 C207.634477,138.760054 203.237503,135.614889 198.498203,135.614889 C193.964142,135.614889 190.804086,138.213374 190.804086,142.043255 C190.804086,151.754821 212.854758,154.353306 212.854758,166.936308 C212.854758,173.638404 206.878539,178.631052 198.841313,178.631052 C195.06319,178.631052 190.254954,176.783569 189.292994,176.783569 C188.674926,176.783569 188.193946,177.125927 187.918988,177.536132 L186.751789,177.536132 L185.308848,167.14219 L186.613918,167.14219" id="Fill-11" fill="#501D3C"></path>
        <path d="M23.2454027,240.306077 C22.5558434,238.403302 20.7584288,237.156072 18.4798165,237.156072 C14.9903475,237.156072 12.8163093,239.630526 12.8163093,243.066756 C12.8163093,246.768436 15.5328743,249.488336 18.7101938,249.488336 C20.3613621,249.488336 22.3883678,248.936662 23.809945,246.461437 L24.2070117,246.461437 C23.9349621,247.381664 23.3704198,248.649668 22.8695654,249.447556 C21.5313328,249.263665 20.6121824,250 18.1464378,250 C13.9029353,250 10.851419,247.259326 10.851419,243.475318 C10.851419,239.508189 13.9870662,236.644407 18.3547995,236.644407 C20.9880198,236.644407 22.1163181,237.46307 22.7649914,237.46307 C22.9945824,237.46307 23.0991564,237.401517 23.1408287,237.339963 L23.4545507,237.339963 L23.6424694,240.306077 L23.2454027,240.306077" id="Fill-12" fill="#501D3C"></path>
        <path d="M48.8612363,237.156072 C45.1721893,237.156072 43.7057162,240.510743 43.7057162,242.964423 C43.7057162,246.78921 46.3674437,249.488336 49.7411202,249.488336 C53.1573717,249.488336 54.7917797,246.543765 54.7917797,243.639205 C54.7917797,239.835962 52.3184861,237.156072 48.8612363,237.156072 Z M49.3011783,250 C45.1934768,250 41.736227,247.423212 41.736227,243.598425 C41.736227,239.528194 44.9419688,236.644407 49.406039,236.644407 C53.3670932,236.644407 56.7612688,239.282749 56.7612688,242.964423 C56.7612688,247.095439 53.3670932,250 49.3011783,250 Z" id="Fill-13" fill="#501D3C"></path>
        <path d="M83.1298209,249.582638 L73.8731219,249.582638 L73.8731219,249.186657 L74.5571298,249.186657 C75.5091316,249.186657 75.8612633,248.875194 75.8612633,247.814029 L75.8612633,238.599267 C75.8612633,237.497409 75.530166,237.038823 74.2252535,237.038823 L73.9354461,237.038823 L73.9354461,236.644407 L80.0447739,236.644407 L80.0447739,237.038823 L79.2774074,237.038823 C77.9319842,237.038823 77.5806316,237.184381 77.5806316,238.474056 L77.5806316,248.062887 C77.5806316,248.625555 77.8081149,248.833718 78.4079851,248.833718 L81.4517423,248.833718 C82.6740753,248.833718 83.0464623,248.355568 84.3513749,246.545483 L84.7245409,246.545483 L83.1298209,249.582638" id="Fill-14" fill="#501D3C"></path>
        <path d="M110.258254,249.582638 L101.001669,249.582638 L101.001669,249.186657 L101.685726,249.186657 C102.637797,249.186657 102.989954,248.875194 102.989954,247.814029 L102.989954,238.599267 C102.989954,237.497409 102.658833,237.038823 101.353826,237.038823 L101.063998,237.038823 L101.063998,236.644407 L107.173765,236.644407 L107.173765,237.038823 L106.406343,237.038823 C105.060823,237.038823 104.709445,237.184381 104.709445,238.474056 L104.709445,248.062887 C104.709445,248.625555 104.936945,248.833718 105.536858,248.833718 L108.580834,248.833718 C109.803255,248.833718 110.176448,248.355568 111.479896,246.545483 L111.853088,246.545483 L110.258254,249.582638" id="Fill-15" fill="#501D3C"></path>
        <path d="M137.627957,244.902869 L137.235771,244.902869 C137.07223,243.424594 136.680043,243.258689 135.835214,243.258689 L132.353588,243.258689 L132.353588,247.688818 C132.353588,248.645901 132.703146,248.833718 133.466592,248.833718 L136.63974,248.833718 C138.0806,248.833718 138.513865,248.27105 139.028514,246.482878 L139.398998,246.482878 L139.070368,249.582638 L128.130217,249.582638 L128.130217,249.186657 L128.706871,249.186657 C130.355451,249.186657 130.643003,248.729636 130.643003,247.480655 L130.643003,238.703349 C130.643003,237.538102 130.376378,237.038823 128.995973,237.038823 L128.541781,237.038823 L128.541781,236.644407 L138.431708,236.644407 L138.596798,239.535221 L138.225538,239.535221 C137.958138,237.767395 137.44349,237.393327 136.701745,237.393327 L132.353588,237.393327 L132.353588,242.50977 L136.041384,242.50977 C136.783128,242.50977 137.132686,242.156048 137.235771,240.950108 L137.627957,240.950108 L137.627957,244.902869" id="Fill-16" fill="#501D3C"></path>
        <path d="M169.655297,248.711221 C167.586641,249.753786 164.931434,250 164.054751,250 C159.477133,250 157.345576,246.543765 157.345576,243.557646 C157.345576,240.489199 159.540034,236.644407 164.63973,236.644407 C166.87586,236.644407 168.359537,237.339963 168.798271,237.339963 C168.985402,237.339963 169.152875,237.299184 169.278677,237.196851 L169.571167,237.196851 L169.571167,240.510743 L169.152875,240.510743 C168.589912,237.95396 166.812959,237.156072 164.868533,237.156072 C161.190398,237.156072 159.309659,240.142191 159.309659,243.435308 C159.309659,247.627878 162.319471,249.488336 164.723074,249.488336 C165.683887,249.488336 166.750058,249.28367 167.920016,248.711221 L167.920016,246.133664 C167.920016,244.968763 167.502511,244.580205 166.249209,244.580205 L165.475527,244.580205 L165.475527,244.211653 L171.118531,244.211653 L171.118531,244.580205 C170.072802,244.641759 169.655297,244.988767 169.655297,245.868984 L169.655297,248.711221" id="Fill-17" fill="#501D3C"></path>
        <path d="M196.8934,244.902869 L196.501213,244.902869 C196.336122,243.424594 195.944711,243.258689 195.099882,243.258689 L191.61903,243.258689 L191.61903,247.688818 C191.61903,248.645901 191.969363,248.833718 192.730485,248.833718 L195.903632,248.833718 C197.346042,248.833718 197.779308,248.27105 198.293956,246.482878 L198.664441,246.482878 L198.335035,249.582638 L187.395659,249.582638 L187.395659,249.186657 L187.972313,249.186657 C189.619343,249.186657 189.908445,248.729636 189.908445,247.480655 L189.908445,238.703349 C189.908445,237.538102 189.641045,237.038823 188.259865,237.038823 L187.807223,237.038823 L187.807223,236.644407 L197.6956,236.644407 L197.86069,239.535221 L197.490206,239.535221 C197.222031,237.767395 196.707382,237.393327 195.965638,237.393327 L191.61903,237.393327 L191.61903,242.50977 L195.306826,242.50977 C196.048571,242.50977 196.398128,242.156048 196.501213,240.950108 L196.8934,240.950108 L196.8934,244.902869" id="Fill-18" fill="#501D3C"></path>
      </g>
    </g>
  </g>
</svg>
