<svg width="257" height="257" viewBox="0 0 257 257" fill="none" xmlns="http://www.w3.org/2000/svg">
<g clip-path="url(#clip0)">
<path d="M207.329 129.267C205.99 93.6977 187.419 28.725 98.2212 28.5517C120.53 58.9595 93.2645 97.9388 94.6098 133.508C95.9446 169.081 117.823 197.135 153.396 195.801C188.965 194.462 208.667 164.843 207.329 129.267V129.267Z" fill="url(#paint0_linear)" fill-opacity="0.8"/>
<path d="M144.239 62.1112C127.235 35.1361 102.426 28.392 99.4565 28.5038C99.4565 28.5038 119.4 34.9934 132.597 69.3622C124.943 70.5751 108.444 66.9089 108.444 66.9089C109.299 70.0751 122.707 81.681 137.235 83.8134C139.157 91.1893 140.625 98.6764 141.629 106.232L135.555 106.571C112.004 107.934 101.122 92.355 101.122 92.355C101.378 96.796 109.997 124.183 138.842 122.539L143.283 122.283C143.498 125.291 143.663 128.302 143.779 131.315L144.274 144.46L136.71 144.748C113.117 145.632 94.5874 129.345 94.5874 129.345C94.7514 133.796 110.83 162.574 139.684 161.489L144.911 161.296L147.12 220.22C147.284 224.672 151.392 228.125 155.833 227.958C160.28 227.791 164.11 224.039 163.942 219.591L161.725 160.667L162.145 160.651C191.003 159.562 207.257 129.571 207.09 125.116C207.09 125.116 187.442 142.839 163.849 143.723L161.096 143.83L160.163 118.951C160.148 118.546 160.109 118.174 160.094 117.769C185.434 108.377 190.916 75.4504 189.746 71.3212C189.746 71.3212 178.999 93.7405 158.454 101.511C156.914 91.8889 154.484 83.4632 151.443 76.1172C161.37 64.8002 160.953 45.8499 159.394 42.8204C159.394 42.8204 152.485 57.0052 146.022 61.1867L144.239 62.1112V62.1112Z" fill="#0D4215"/>
</g>
<defs>
<linearGradient id="paint0_linear" x1="158.542" y1="214.175" x2="52.982" y2="46.964" gradientUnits="userSpaceOnUse">
<stop stop-color="#0D4215"/>
<stop offset="1" stop-color="#0D4215" stop-opacity="0.4"/>
</linearGradient>
<clipPath id="clip0">
<rect width="181" height="181" fill="white" transform="translate(133.312 256.396) rotate(-137.155)"/>
</clipPath>
</defs>
</svg>
