<svg width="63" height="62" viewBox="0 0 63 62" fill="none" xmlns="http://www.w3.org/2000/svg">
<path fill-rule="evenodd" clip-rule="evenodd" d="M47.25 58.125H15.75C13.6614 58.125 11.6584 57.3085 10.1815 55.8551C8.70468 54.4017 7.875 52.4304 7.875 50.375V11.625C7.875 9.56957 8.70468 7.59833 10.1815 6.14492C11.6584 4.69152 13.6614 3.875 15.75 3.875H47.25C49.3386 3.875 51.3416 4.69152 52.8185 6.14492C54.2953 7.59833 55.125 9.56957 55.125 11.625V50.375C55.125 52.4304 54.2953 54.4017 52.8185 55.8551C51.3416 57.3085 49.3386 58.125 47.25 58.125ZM33.4688 44.5625C33.4688 45.0764 33.2613 45.5692 32.8921 45.9325C32.5229 46.2959 32.0221 46.5 31.5 46.5C30.9779 46.5 30.4771 46.2959 30.1079 45.9325C29.7387 45.5692 29.5312 45.0764 29.5312 44.5625V22.1146L21.0814 30.4343C20.7117 30.7981 20.2103 31.0024 19.6875 31.0024C19.1647 31.0024 18.6633 30.7981 18.2936 30.4343C17.9239 30.0704 17.7163 29.577 17.7163 29.0625C17.7163 28.548 17.9239 28.0546 18.2936 27.6907L30.1061 16.0657C30.289 15.8853 30.5063 15.7422 30.7454 15.6445C30.9846 15.5468 31.241 15.4965 31.5 15.4965C31.759 15.4965 32.0154 15.5468 32.2546 15.6445C32.4937 15.7422 32.711 15.8853 32.8939 16.0657L44.7064 27.6907C45.0761 28.0546 45.2837 28.548 45.2837 29.0625C45.2837 29.577 45.0761 30.0704 44.7064 30.4343C44.3367 30.7981 43.8353 31.0024 43.3125 31.0024C42.7897 31.0024 42.2883 30.7981 41.9186 30.4343L33.4688 22.1146V44.5625Z" fill="url(#paint0_linear)" fill-opacity="0.8"/>
<defs>
<linearGradient id="paint0_linear" x1="7.875" y1="6.40705" x2="62.7504" y2="16.4657" gradientUnits="userSpaceOnUse">
<stop stop-color="#0D4215"/>
<stop offset="1" stop-color="#0D4215" stop-opacity="0.4"/>
</linearGradient>
</defs>
</svg>
