<svg width="2394" height="2632" viewBox="0 0 2394 2632" fill="none" xmlns="http://www.w3.org/2000/svg">
<path d="M1212.01 1181.99V1C1864.25 1 2393 529.749 2393 1181.99C2393 1771.36 1958.48 2270.51 1374.74 2351.72L1212.01 1181.99Z" fill="#E5C646" stroke="white"/>
<path d="M1212 1181.99L1374.73 2351.72C728.706 2441.6 132.144 1990.75 42.2706 1344.72C38.5212 1317.77 35.7044 1290.7 33.8252 1263.55L1212 1181.99Z" fill="#F9F5E5" stroke="white"/>
<path d="M1212 1181.99L33.8299 1263.55C3.34464 823.177 220.999 402.561 598.103 173.098L1212 1181.99Z" fill="#F4E9BD" stroke="white"/>
<path d="M1212.01 1181.99L598.107 173.098C783.094 60.5355 995.467 1 1212.01 1V1181.99Z" fill="#EFDE96" stroke="white"/>
<path d="M1394.66 1268.78L1384.2 1238.36L1373.09 1268.78H1394.66ZM1379.33 1228.14H1389.88L1414.86 1297H1404.64L1397.66 1276.38H1370.42L1362.97 1297H1353.41L1379.33 1228.14ZM1445.7 1228.14H1493.47V1236.58H1455.03V1257.48H1488.83V1265.69H1455.03V1297H1445.7V1228.14ZM1523.28 1245.67C1526.84 1245.67 1530.3 1246.52 1533.64 1248.2C1536.98 1249.86 1539.53 1252.02 1541.28 1254.67C1542.97 1257.2 1544.09 1260.16 1544.66 1263.53C1545.16 1265.84 1545.41 1269.53 1545.41 1274.59H1508.61C1508.77 1279.69 1509.97 1283.78 1512.22 1286.88C1514.47 1289.94 1517.95 1291.47 1522.67 1291.47C1527.08 1291.47 1530.59 1290.02 1533.22 1287.11C1534.72 1285.42 1535.78 1283.47 1536.41 1281.25H1544.7C1544.48 1283.09 1543.75 1285.16 1542.5 1287.44C1541.28 1289.69 1539.91 1291.53 1538.38 1292.97C1535.81 1295.47 1532.64 1297.16 1528.86 1298.03C1526.83 1298.53 1524.53 1298.78 1521.97 1298.78C1515.72 1298.78 1510.42 1296.52 1506.08 1291.98C1501.73 1287.42 1499.56 1281.05 1499.56 1272.86C1499.56 1264.8 1501.75 1258.25 1506.12 1253.22C1510.5 1248.19 1516.22 1245.67 1523.28 1245.67ZM1536.73 1267.89C1536.39 1264.23 1535.59 1261.31 1534.34 1259.12C1532.03 1255.06 1528.17 1253.03 1522.77 1253.03C1518.89 1253.03 1515.64 1254.44 1513.02 1257.25C1510.39 1260.03 1509 1263.58 1508.84 1267.89H1536.73ZM1559.7 1246.8L1569.36 1286.36L1579.16 1246.8H1588.62L1598.47 1286.12L1608.73 1246.8H1617.17L1602.59 1297H1593.83L1583.61 1258.14L1573.72 1297H1564.95L1550.47 1246.8H1559.7ZM1701.45 1228.14V1236.34H1678.25V1297H1668.78V1236.34H1645.58V1228.14H1701.45ZM1705.34 1247.03H1713.92V1297H1705.34V1247.03ZM1705.34 1228.14H1713.92V1237.7H1705.34V1228.14ZM1726.72 1246.8H1735.06V1253.92C1737.06 1251.45 1738.88 1249.66 1740.5 1248.53C1743.28 1246.62 1746.44 1245.67 1749.97 1245.67C1753.97 1245.67 1757.19 1246.66 1759.62 1248.62C1761 1249.75 1762.25 1251.41 1763.38 1253.59C1765.25 1250.91 1767.45 1248.92 1769.98 1247.64C1772.52 1246.33 1775.36 1245.67 1778.52 1245.67C1785.27 1245.67 1789.86 1248.11 1792.3 1252.98C1793.61 1255.61 1794.27 1259.14 1794.27 1263.58V1297H1785.5V1262.12C1785.5 1258.78 1784.66 1256.48 1782.97 1255.23C1781.31 1253.98 1779.28 1253.36 1776.88 1253.36C1773.56 1253.36 1770.7 1254.47 1768.3 1256.69C1765.92 1258.91 1764.73 1262.61 1764.73 1267.8V1297H1756.16V1264.23C1756.16 1260.83 1755.75 1258.34 1754.94 1256.78C1753.66 1254.44 1751.27 1253.27 1747.77 1253.27C1744.58 1253.27 1741.67 1254.5 1739.05 1256.97C1736.45 1259.44 1735.16 1263.91 1735.16 1270.38V1297H1726.72V1246.8ZM1827.59 1245.67C1831.16 1245.67 1834.61 1246.52 1837.95 1248.2C1841.3 1249.86 1843.84 1252.02 1845.59 1254.67C1847.28 1257.2 1848.41 1260.16 1848.97 1263.53C1849.47 1265.84 1849.72 1269.53 1849.72 1274.59H1812.92C1813.08 1279.69 1814.28 1283.78 1816.53 1286.88C1818.78 1289.94 1822.27 1291.47 1826.98 1291.47C1831.39 1291.47 1834.91 1290.02 1837.53 1287.11C1839.03 1285.42 1840.09 1283.47 1840.72 1281.25H1849.02C1848.8 1283.09 1848.06 1285.16 1846.81 1287.44C1845.59 1289.69 1844.22 1291.53 1842.69 1292.97C1840.12 1295.47 1836.95 1297.16 1833.17 1298.03C1831.14 1298.53 1828.84 1298.78 1826.28 1298.78C1820.03 1298.78 1814.73 1296.52 1810.39 1291.98C1806.05 1287.42 1803.88 1281.05 1803.88 1272.86C1803.88 1264.8 1806.06 1258.25 1810.44 1253.22C1814.81 1248.19 1820.53 1245.67 1827.59 1245.67ZM1841.05 1267.89C1840.7 1264.23 1839.91 1261.31 1838.66 1259.12C1836.34 1255.06 1832.48 1253.03 1827.08 1253.03C1823.2 1253.03 1819.95 1254.44 1817.33 1257.25C1814.7 1260.03 1813.31 1263.58 1813.16 1267.89H1841.05ZM1865.14 1281.25C1865.39 1284.06 1866.09 1286.22 1867.25 1287.72C1869.38 1290.44 1873.06 1291.8 1878.31 1291.8C1881.44 1291.8 1884.19 1291.12 1886.56 1289.78C1888.94 1288.41 1890.12 1286.3 1890.12 1283.45C1890.12 1281.3 1889.17 1279.66 1887.27 1278.53C1886.05 1277.84 1883.64 1277.05 1880.05 1276.14L1873.34 1274.45C1869.06 1273.39 1865.91 1272.2 1863.88 1270.89C1860.25 1268.61 1858.44 1265.45 1858.44 1261.42C1858.44 1256.67 1860.14 1252.83 1863.55 1249.89C1866.98 1246.95 1871.59 1245.48 1877.38 1245.48C1884.94 1245.48 1890.39 1247.7 1893.73 1252.14C1895.83 1254.95 1896.84 1257.98 1896.78 1261.23H1888.81C1888.66 1259.33 1887.98 1257.59 1886.8 1256.03C1884.86 1253.81 1881.5 1252.7 1876.72 1252.7C1873.53 1252.7 1871.11 1253.31 1869.45 1254.53C1867.83 1255.75 1867.02 1257.36 1867.02 1259.36C1867.02 1261.55 1868.09 1263.3 1870.25 1264.61C1871.5 1265.39 1873.34 1266.08 1875.78 1266.67L1881.36 1268.03C1887.42 1269.5 1891.48 1270.92 1893.55 1272.3C1896.83 1274.45 1898.47 1277.84 1898.47 1282.47C1898.47 1286.94 1896.77 1290.8 1893.36 1294.05C1889.98 1297.3 1884.83 1298.92 1877.89 1298.92C1870.42 1298.92 1865.12 1297.23 1862 1293.86C1858.91 1290.45 1857.25 1286.25 1857.03 1281.25H1865.14ZM1966.06 1268.78L1955.61 1238.36L1944.5 1268.78H1966.06ZM1950.73 1228.14H1961.28L1986.27 1297H1976.05L1969.06 1276.38H1941.83L1934.38 1297H1924.81L1950.73 1228.14ZM2020.77 1228.14L2033.75 1284.16L2049.31 1228.14H2059.44L2075 1284.16L2087.98 1228.14H2098.2L2080.11 1297H2070.31L2054.42 1239.91L2038.44 1297H2028.64L2010.64 1228.14H2020.77ZM2124.97 1245.67C2128.53 1245.67 2131.98 1246.52 2135.33 1248.2C2138.67 1249.86 2141.22 1252.02 2142.97 1254.67C2144.66 1257.2 2145.78 1260.16 2146.34 1263.53C2146.84 1265.84 2147.09 1269.53 2147.09 1274.59H2110.3C2110.45 1279.69 2111.66 1283.78 2113.91 1286.88C2116.16 1289.94 2119.64 1291.47 2124.36 1291.47C2128.77 1291.47 2132.28 1290.02 2134.91 1287.11C2136.41 1285.42 2137.47 1283.47 2138.09 1281.25H2146.39C2146.17 1283.09 2145.44 1285.16 2144.19 1287.44C2142.97 1289.69 2141.59 1291.53 2140.06 1292.97C2137.5 1295.47 2134.33 1297.16 2130.55 1298.03C2128.52 1298.53 2126.22 1298.78 2123.66 1298.78C2117.41 1298.78 2112.11 1296.52 2107.77 1291.98C2103.42 1287.42 2101.25 1281.05 2101.25 1272.86C2101.25 1264.8 2103.44 1258.25 2107.81 1253.22C2112.19 1248.19 2117.91 1245.67 2124.97 1245.67ZM2138.42 1267.89C2138.08 1264.23 2137.28 1261.31 2136.03 1259.12C2133.72 1255.06 2129.86 1253.03 2124.45 1253.03C2120.58 1253.03 2117.33 1254.44 2114.7 1257.25C2112.08 1260.03 2110.69 1263.58 2110.53 1267.89H2138.42ZM2178.41 1245.67C2181.97 1245.67 2185.42 1246.52 2188.77 1248.2C2192.11 1249.86 2194.66 1252.02 2196.41 1254.67C2198.09 1257.2 2199.22 1260.16 2199.78 1263.53C2200.28 1265.84 2200.53 1269.53 2200.53 1274.59H2163.73C2163.89 1279.69 2165.09 1283.78 2167.34 1286.88C2169.59 1289.94 2173.08 1291.47 2177.8 1291.47C2182.2 1291.47 2185.72 1290.02 2188.34 1287.11C2189.84 1285.42 2190.91 1283.47 2191.53 1281.25H2199.83C2199.61 1283.09 2198.88 1285.16 2197.62 1287.44C2196.41 1289.69 2195.03 1291.53 2193.5 1292.97C2190.94 1295.47 2187.77 1297.16 2183.98 1298.03C2181.95 1298.53 2179.66 1298.78 2177.09 1298.78C2170.84 1298.78 2165.55 1296.52 2161.2 1291.98C2156.86 1287.42 2154.69 1281.05 2154.69 1272.86C2154.69 1264.8 2156.88 1258.25 2161.25 1253.22C2165.62 1248.19 2171.34 1245.67 2178.41 1245.67ZM2191.86 1267.89C2191.52 1264.23 2190.72 1261.31 2189.47 1259.12C2187.16 1255.06 2183.3 1253.03 2177.89 1253.03C2174.02 1253.03 2170.77 1254.44 2168.14 1257.25C2165.52 1260.03 2164.12 1263.58 2163.97 1267.89H2191.86ZM2210.75 1228.14H2218.86V1268.12L2240.52 1246.8H2251.3L2232.08 1265.59L2252.38 1297H2241.59L2225.94 1271.69L2218.86 1278.16V1297H2210.75V1228.14Z" fill="black"/>
<path d="M19.125 2574.67C19.5 2581.66 22.1953 2586.48 27.2109 2589.16C29.7891 2590.56 32.6953 2591.27 35.9297 2591.27C41.9766 2591.27 47.1328 2588.76 51.3984 2583.74C55.6641 2578.68 58.6875 2568.44 60.4688 2553.02C57.6562 2557.47 54.1641 2560.61 49.9922 2562.44C45.8672 2564.22 41.4141 2565.11 36.6328 2565.11C26.9297 2565.11 19.2422 2562.09 13.5703 2556.04C7.94531 2549.99 5.13281 2542.21 5.13281 2532.7C5.13281 2523.55 7.92187 2515.52 13.5 2508.58C19.0781 2501.64 27.3047 2498.17 38.1797 2498.17C52.8516 2498.17 62.9766 2504.78 68.5547 2518C71.6484 2525.27 73.1953 2534.36 73.1953 2545.28C73.1953 2557.61 71.3438 2568.53 67.6406 2578.05C61.5 2593.89 51.0938 2601.81 36.4219 2601.81C26.5781 2601.81 19.1016 2599.23 13.9922 2594.08C8.88281 2588.92 6.32812 2582.45 6.32812 2574.67H19.125ZM38.3203 2554C43.3359 2554 47.9062 2552.36 52.0312 2549.08C56.2031 2545.75 58.2891 2539.96 58.2891 2531.71C58.2891 2524.3 56.4141 2518.8 52.6641 2515.19C48.9609 2511.53 44.2266 2509.7 38.4609 2509.7C32.2734 2509.7 27.3516 2511.79 23.6953 2515.96C20.0859 2520.09 18.2812 2525.62 18.2812 2532.55C18.2812 2539.12 19.875 2544.34 23.0625 2548.23C26.25 2552.08 31.3359 2554 38.3203 2554ZM178.312 2550.06C185.062 2550.06 190.828 2552.45 195.609 2557.23C200.391 2562.02 202.781 2567.78 202.781 2574.53C202.781 2581.28 200.391 2587.05 195.609 2591.83C190.828 2596.61 185.062 2599 178.312 2599C171.516 2599 165.727 2596.61 160.945 2591.83C156.164 2587.05 153.773 2581.28 153.773 2574.53C153.773 2567.78 156.164 2562.02 160.945 2557.23C165.727 2552.45 171.516 2550.06 178.312 2550.06ZM168.117 2498.73H175.922L119.602 2601.67H111.797L168.117 2498.73ZM109.266 2540.36C113.297 2540.36 116.719 2538.95 119.531 2536.14C122.391 2533.28 123.82 2529.86 123.82 2525.88C123.82 2521.89 122.391 2518.49 119.531 2515.68C116.719 2512.82 113.297 2511.39 109.266 2511.39C105.281 2511.39 101.859 2512.8 99 2515.61C96.1875 2518.42 94.7812 2521.84 94.7812 2525.88C94.7812 2529.86 96.1875 2533.28 99 2536.14C101.859 2538.95 105.281 2540.36 109.266 2540.36ZM109.266 2501.34C116.062 2501.34 121.852 2503.75 126.633 2508.58C131.414 2513.36 133.805 2519.12 133.805 2525.88C133.805 2532.62 131.414 2538.39 126.633 2543.17C121.852 2547.95 116.062 2550.34 109.266 2550.34C102.516 2550.34 96.75 2547.95 91.9688 2543.17C87.1875 2538.39 84.7969 2532.62 84.7969 2525.88C84.7969 2519.12 87.1875 2513.36 91.9688 2508.58C96.75 2503.75 102.516 2501.34 109.266 2501.34ZM178.312 2589.02C182.297 2589.02 185.695 2587.61 188.508 2584.8C191.367 2581.94 192.797 2578.52 192.797 2574.53C192.797 2570.55 191.367 2567.15 188.508 2564.34C185.695 2561.48 182.297 2560.05 178.312 2560.05C174.281 2560.05 170.836 2561.48 167.977 2564.34C165.164 2567.15 163.758 2570.55 163.758 2574.53C163.758 2578.52 165.164 2581.94 167.977 2584.8C170.836 2587.61 174.281 2589.02 178.312 2589.02ZM302.836 2492.9C315.914 2492.9 326.062 2496.34 333.281 2503.23C340.5 2510.12 344.508 2517.95 345.305 2526.72H331.664C330.117 2520.06 327.023 2514.79 322.383 2510.9C317.789 2507.01 311.32 2505.06 302.977 2505.06C292.805 2505.06 284.578 2508.65 278.297 2515.82C272.062 2522.95 268.945 2533.89 268.945 2548.66C268.945 2560.75 271.758 2570.57 277.383 2578.12C283.055 2585.62 291.492 2589.37 302.695 2589.37C313.008 2589.37 320.859 2585.41 326.25 2577.48C329.109 2573.31 331.242 2567.83 332.648 2561.03H346.289C345.07 2571.91 341.039 2581.02 334.195 2588.38C325.992 2597.24 314.93 2601.67 301.008 2601.67C289.008 2601.67 278.93 2598.04 270.773 2590.77C260.039 2581.16 254.672 2566.33 254.672 2546.27C254.672 2531.03 258.703 2518.54 266.766 2508.79C275.484 2498.2 287.508 2492.9 302.836 2492.9ZM391.57 2590.84C399.961 2590.84 405.703 2587.68 408.797 2581.35C411.938 2574.98 413.508 2567.9 413.508 2560.12C413.508 2553.09 412.383 2547.37 410.133 2542.96C406.57 2536.02 400.43 2532.55 391.711 2532.55C383.977 2532.55 378.352 2535.51 374.836 2541.41C371.32 2547.32 369.562 2554.45 369.562 2562.79C369.562 2570.8 371.32 2577.48 374.836 2582.83C378.352 2588.17 383.93 2590.84 391.57 2590.84ZM392.062 2521.52C401.766 2521.52 409.969 2524.75 416.672 2531.22C423.375 2537.69 426.727 2547.2 426.727 2559.77C426.727 2571.91 423.773 2581.94 417.867 2589.86C411.961 2597.78 402.797 2601.74 390.375 2601.74C380.016 2601.74 371.789 2598.25 365.695 2591.27C359.602 2584.23 356.555 2574.81 356.555 2563C356.555 2550.34 359.766 2540.27 366.188 2532.77C372.609 2525.27 381.234 2521.52 392.062 2521.52ZM471.727 2590.84C480.117 2590.84 485.859 2587.68 488.953 2581.35C492.094 2574.98 493.664 2567.9 493.664 2560.12C493.664 2553.09 492.539 2547.37 490.289 2542.96C486.727 2536.02 480.586 2532.55 471.867 2532.55C464.133 2532.55 458.508 2535.51 454.992 2541.41C451.477 2547.32 449.719 2554.45 449.719 2562.79C449.719 2570.8 451.477 2577.48 454.992 2582.83C458.508 2588.17 464.086 2590.84 471.727 2590.84ZM472.219 2521.52C481.922 2521.52 490.125 2524.75 496.828 2531.22C503.531 2537.69 506.883 2547.2 506.883 2559.77C506.883 2571.91 503.93 2581.94 498.023 2589.86C492.117 2597.78 482.953 2601.74 470.531 2601.74C460.172 2601.74 451.945 2598.25 445.852 2591.27C439.758 2584.23 436.711 2574.81 436.711 2563C436.711 2550.34 439.922 2540.27 446.344 2532.77C452.766 2525.27 461.391 2521.52 472.219 2521.52ZM521.719 2495.71H533.883V2555.69L566.367 2523.7H582.539L553.711 2551.89L584.156 2599H567.984L544.5 2561.03L533.883 2570.73V2599H521.719V2495.71ZM642.586 2495.71L662.062 2579.73L685.406 2495.71H700.594L723.938 2579.73L743.414 2495.71H758.742L731.602 2599H716.906L693.07 2513.36L669.094 2599H654.398L627.398 2495.71H642.586ZM770.062 2524.05H782.93V2599H770.062V2524.05ZM770.062 2495.71H782.93V2510.05H770.062V2495.71ZM804.656 2502.67H817.453V2523.7H829.477V2534.03H817.453V2583.18C817.453 2585.8 818.344 2587.56 820.125 2588.45C821.109 2588.97 822.75 2589.23 825.047 2589.23C825.656 2589.23 826.312 2589.23 827.016 2589.23C827.719 2589.18 828.539 2589.11 829.477 2589.02V2599C828.023 2599.42 826.5 2599.73 824.906 2599.91C823.359 2600.1 821.672 2600.2 819.844 2600.2C813.938 2600.2 809.93 2598.7 807.82 2595.7C805.711 2592.65 804.656 2588.71 804.656 2583.88V2534.03H794.461V2523.7H804.656V2502.67ZM842.203 2495.36H854.859V2533.89C857.859 2530.09 860.555 2527.42 862.945 2525.88C867.023 2523.2 872.109 2521.87 878.203 2521.87C889.125 2521.87 896.531 2525.69 900.422 2533.33C902.531 2537.5 903.586 2543.29 903.586 2550.7V2599H890.578V2551.54C890.578 2546.01 889.875 2541.95 888.469 2539.38C886.172 2535.25 881.859 2533.19 875.531 2533.19C870.281 2533.19 865.523 2534.99 861.258 2538.6C856.992 2542.21 854.859 2549.03 854.859 2559.06V2599H842.203V2495.36ZM952.242 2590.84C960.633 2590.84 966.375 2587.68 969.469 2581.35C972.609 2574.98 974.18 2567.9 974.18 2560.12C974.18 2553.09 973.055 2547.37 970.805 2542.96C967.242 2536.02 961.102 2532.55 952.383 2532.55C944.648 2532.55 939.023 2535.51 935.508 2541.41C931.992 2547.32 930.234 2554.45 930.234 2562.79C930.234 2570.8 931.992 2577.48 935.508 2582.83C939.023 2588.17 944.602 2590.84 952.242 2590.84ZM952.734 2521.52C962.438 2521.52 970.641 2524.75 977.344 2531.22C984.047 2537.69 987.398 2547.2 987.398 2559.77C987.398 2571.91 984.445 2581.94 978.539 2589.86C972.633 2597.78 963.469 2601.74 951.047 2601.74C940.688 2601.74 932.461 2598.25 926.367 2591.27C920.273 2584.23 917.227 2574.81 917.227 2563C917.227 2550.34 920.438 2540.27 926.859 2532.77C933.281 2525.27 941.906 2521.52 952.734 2521.52ZM1015.17 2523.7V2573.69C1015.17 2577.53 1015.78 2580.67 1017 2583.11C1019.25 2587.61 1023.45 2589.86 1029.59 2589.86C1038.4 2589.86 1044.4 2585.92 1047.59 2578.05C1049.32 2573.83 1050.19 2568.04 1050.19 2560.68V2523.7H1062.84V2599H1050.89L1051.03 2587.89C1049.39 2590.75 1047.35 2593.16 1044.91 2595.13C1040.09 2599.07 1034.23 2601.04 1027.34 2601.04C1016.6 2601.04 1009.29 2597.45 1005.4 2590.28C1003.29 2586.44 1002.23 2581.3 1002.23 2574.88V2523.7H1015.17ZM1085.2 2502.67H1098V2523.7H1110.02V2534.03H1098V2583.18C1098 2585.8 1098.89 2587.56 1100.67 2588.45C1101.66 2588.97 1103.3 2589.23 1105.59 2589.23C1106.2 2589.23 1106.86 2589.23 1107.56 2589.23C1108.27 2589.18 1109.09 2589.11 1110.02 2589.02V2599C1108.57 2599.42 1107.05 2599.73 1105.45 2599.91C1103.91 2600.1 1102.22 2600.2 1100.39 2600.2C1094.48 2600.2 1090.48 2598.7 1088.37 2595.7C1086.26 2592.65 1085.2 2588.71 1085.2 2583.88V2534.03H1075.01V2523.7H1085.2V2502.67ZM1209.66 2556.67L1193.98 2511.04L1177.31 2556.67H1209.66ZM1186.66 2495.71H1202.48L1239.96 2599H1224.63L1214.16 2568.06H1173.3L1162.12 2599H1147.78L1186.66 2495.71ZM1332.91 2543.03C1339.48 2543.03 1344.66 2541.72 1348.45 2539.09C1352.3 2536.47 1354.22 2531.73 1354.22 2524.89C1354.22 2517.53 1351.55 2512.52 1346.2 2509.84C1343.34 2508.44 1339.52 2507.73 1334.74 2507.73H1300.57V2543.03H1332.91ZM1286.58 2495.71H1334.39C1342.27 2495.71 1348.76 2496.86 1353.87 2499.16C1363.57 2503.56 1368.42 2511.7 1368.42 2523.55C1368.42 2529.74 1367.13 2534.8 1364.55 2538.74C1362.02 2542.68 1358.46 2545.84 1353.87 2548.23C1357.9 2549.88 1360.92 2552.03 1362.94 2554.7C1365 2557.38 1366.15 2561.71 1366.38 2567.71L1366.88 2581.56C1367.02 2585.5 1367.34 2588.43 1367.86 2590.35C1368.7 2593.63 1370.2 2595.74 1372.36 2596.68V2599H1355.2C1354.73 2598.11 1354.36 2596.96 1354.08 2595.55C1353.8 2594.15 1353.56 2591.43 1353.38 2587.4L1352.53 2570.17C1352.2 2563.42 1349.7 2558.9 1345.01 2556.6C1342.34 2555.34 1338.14 2554.7 1332.42 2554.7H1300.57V2599H1286.58V2495.71ZM1418.62 2522.01C1423.97 2522.01 1429.15 2523.27 1434.16 2525.8C1439.18 2528.29 1443 2531.52 1445.62 2535.51C1448.16 2539.3 1449.84 2543.73 1450.69 2548.8C1451.44 2552.27 1451.81 2557.8 1451.81 2565.39H1396.62C1396.85 2573.03 1398.66 2579.17 1402.03 2583.81C1405.41 2588.41 1410.63 2590.7 1417.71 2590.7C1424.32 2590.7 1429.59 2588.52 1433.53 2584.16C1435.78 2581.63 1437.38 2578.7 1438.31 2575.38H1450.76C1450.43 2578.14 1449.33 2581.23 1447.45 2584.66C1445.62 2588.03 1443.56 2590.8 1441.27 2592.95C1437.42 2596.7 1432.66 2599.23 1426.99 2600.55C1423.95 2601.3 1420.5 2601.67 1416.66 2601.67C1407.28 2601.67 1399.34 2598.27 1392.82 2591.48C1386.3 2584.63 1383.05 2575.07 1383.05 2562.79C1383.05 2550.7 1386.33 2540.88 1392.89 2533.33C1399.45 2525.78 1408.03 2522.01 1418.62 2522.01ZM1438.8 2555.34C1438.29 2549.85 1437.09 2545.47 1435.22 2542.19C1431.75 2536.09 1425.96 2533.05 1417.85 2533.05C1412.04 2533.05 1407.16 2535.16 1403.23 2539.38C1399.29 2543.55 1397.2 2548.87 1396.97 2555.34H1438.8ZM1496.46 2521.52C1504.95 2521.52 1511.84 2523.58 1517.13 2527.7C1522.48 2531.83 1525.69 2538.93 1526.77 2549.01H1514.46C1513.71 2544.37 1512 2540.52 1509.33 2537.48C1506.66 2534.38 1502.37 2532.84 1496.46 2532.84C1488.4 2532.84 1482.63 2536.77 1479.16 2544.65C1476.91 2549.76 1475.79 2556.06 1475.79 2563.56C1475.79 2571.11 1477.38 2577.46 1480.57 2582.62C1483.76 2587.77 1488.77 2590.35 1495.62 2590.35C1500.87 2590.35 1505.02 2588.76 1508.06 2585.57C1511.16 2582.34 1513.29 2577.93 1514.46 2572.35H1526.77C1525.36 2582.34 1521.84 2589.65 1516.22 2594.29C1510.59 2598.88 1503.4 2601.18 1494.63 2601.18C1484.79 2601.18 1476.94 2597.59 1471.08 2590.42C1465.22 2583.2 1462.29 2574.2 1462.29 2563.42C1462.29 2550.2 1465.5 2539.91 1471.92 2532.55C1478.34 2525.2 1486.52 2521.52 1496.46 2521.52ZM1539.42 2524.05H1552.29V2599H1539.42V2524.05ZM1539.42 2495.71H1552.29V2510.05H1539.42V2495.71ZM1603.27 2590.49C1609.17 2590.49 1614.07 2588.03 1617.96 2583.11C1621.9 2578.14 1623.87 2570.73 1623.87 2560.89C1623.87 2554.89 1623 2549.73 1621.27 2545.42C1617.98 2537.12 1611.98 2532.98 1603.27 2532.98C1594.5 2532.98 1588.5 2537.36 1585.27 2546.12C1583.53 2550.81 1582.66 2556.77 1582.66 2563.98C1582.66 2569.8 1583.53 2574.74 1585.27 2578.82C1588.55 2586.6 1594.55 2590.49 1603.27 2590.49ZM1570.5 2524.05H1582.8V2534.03C1585.34 2530.61 1588.1 2527.96 1591.1 2526.09C1595.37 2523.27 1600.38 2521.87 1606.15 2521.87C1614.68 2521.87 1621.92 2525.15 1627.88 2531.71C1633.83 2538.23 1636.8 2547.55 1636.8 2559.7C1636.8 2576.1 1632.52 2587.82 1623.94 2594.85C1618.5 2599.3 1612.17 2601.53 1604.95 2601.53C1599.28 2601.53 1594.52 2600.29 1590.68 2597.8C1588.43 2596.4 1585.92 2593.98 1583.16 2590.56V2629.02H1570.5V2524.05ZM1683 2522.01C1688.34 2522.01 1693.52 2523.27 1698.54 2525.8C1703.55 2528.29 1707.38 2531.52 1710 2535.51C1712.53 2539.3 1714.22 2543.73 1715.06 2548.8C1715.81 2552.27 1716.19 2557.8 1716.19 2565.39H1660.99C1661.23 2573.03 1663.03 2579.17 1666.41 2583.81C1669.78 2588.41 1675.01 2590.7 1682.09 2590.7C1688.7 2590.7 1693.97 2588.52 1697.91 2584.16C1700.16 2581.63 1701.75 2578.7 1702.69 2575.38H1715.13C1714.8 2578.14 1713.7 2581.23 1711.83 2584.66C1710 2588.03 1707.94 2590.8 1705.64 2592.95C1701.8 2596.7 1697.04 2599.23 1691.37 2600.55C1688.32 2601.3 1684.88 2601.67 1681.03 2601.67C1671.66 2601.67 1663.71 2598.27 1657.2 2591.48C1650.68 2584.63 1647.42 2575.07 1647.42 2562.79C1647.42 2550.7 1650.7 2540.88 1657.27 2533.33C1663.83 2525.78 1672.41 2522.01 1683 2522.01ZM1703.18 2555.34C1702.66 2549.85 1701.47 2545.47 1699.59 2542.19C1696.12 2536.09 1690.34 2533.05 1682.23 2533.05C1676.41 2533.05 1671.54 2535.16 1667.6 2539.38C1663.66 2543.55 1661.58 2548.87 1661.34 2555.34H1703.18ZM1774.9 2495.71H1850.2V2508.37H1788.54V2539.73H1845.56V2551.68H1788.54V2586.7H1851.26V2599H1774.9V2495.71ZM1874.11 2523.7L1894.22 2585.01L1915.24 2523.7H1929.09L1900.69 2599H1887.19L1859.41 2523.7H1874.11ZM1971.28 2522.01C1976.62 2522.01 1981.8 2523.27 1986.82 2525.8C1991.84 2528.29 1995.66 2531.52 1998.28 2535.51C2000.81 2539.3 2002.5 2543.73 2003.34 2548.8C2004.09 2552.27 2004.47 2557.8 2004.47 2565.39H1949.27C1949.51 2573.03 1951.31 2579.17 1954.69 2583.81C1958.06 2588.41 1963.29 2590.7 1970.37 2590.7C1976.98 2590.7 1982.25 2588.52 1986.19 2584.16C1988.44 2581.63 1990.03 2578.7 1990.97 2575.38H2003.41C2003.09 2578.14 2001.98 2581.23 2000.11 2584.66C1998.28 2588.03 1996.22 2590.8 1993.92 2592.95C1990.08 2596.7 1985.32 2599.23 1979.65 2600.55C1976.6 2601.3 1973.16 2601.67 1969.31 2601.67C1959.94 2601.67 1951.99 2598.27 1945.48 2591.48C1938.96 2584.63 1935.7 2575.07 1935.7 2562.79C1935.7 2550.7 1938.98 2540.88 1945.55 2533.33C1952.11 2525.78 1960.69 2522.01 1971.28 2522.01ZM1991.46 2555.34C1990.95 2549.85 1989.75 2545.47 1987.88 2542.19C1984.41 2536.09 1978.62 2533.05 1970.51 2533.05C1964.7 2533.05 1959.82 2535.16 1955.88 2539.38C1951.95 2543.55 1949.86 2548.87 1949.62 2555.34H1991.46ZM2020.43 2523.7H2032.45V2536.7C2033.44 2534.17 2035.85 2531.1 2039.7 2527.49C2043.54 2523.84 2047.97 2522.01 2052.98 2522.01C2053.22 2522.01 2053.62 2522.03 2054.18 2522.08C2054.74 2522.12 2055.7 2522.22 2057.06 2522.36V2535.72C2056.31 2535.58 2055.61 2535.48 2054.95 2535.44C2054.34 2535.39 2053.66 2535.37 2052.91 2535.37C2046.54 2535.37 2041.64 2537.43 2038.22 2541.55C2034.8 2545.63 2033.09 2550.34 2033.09 2555.69V2599H2020.43V2523.7ZM2115.07 2523.7H2129.06C2127.28 2528.52 2123.32 2539.54 2117.18 2556.74C2112.59 2569.68 2108.74 2580.23 2105.65 2588.38C2098.34 2607.6 2093.18 2619.32 2090.18 2623.54C2087.18 2627.76 2082.02 2629.87 2074.71 2629.87C2072.93 2629.87 2071.55 2629.8 2070.56 2629.66C2069.62 2629.52 2068.45 2629.26 2067.05 2628.88V2617.35C2069.25 2617.96 2070.84 2618.34 2071.83 2618.48C2072.81 2618.62 2073.68 2618.69 2074.43 2618.69C2076.77 2618.69 2078.48 2618.29 2079.56 2617.49C2080.69 2616.74 2081.62 2615.8 2082.38 2614.68C2082.61 2614.3 2083.45 2612.38 2084.91 2608.91C2086.36 2605.45 2087.41 2602.87 2088.07 2601.18L2060.23 2523.7H2074.57L2094.75 2585.01L2115.07 2523.7ZM2148.05 2562.23C2148.05 2570.29 2149.76 2577.04 2153.18 2582.48C2156.6 2587.91 2162.09 2590.63 2169.63 2590.63C2175.49 2590.63 2180.3 2588.12 2184.05 2583.11C2187.84 2578.05 2189.74 2570.8 2189.74 2561.38C2189.74 2551.87 2187.8 2544.84 2183.91 2540.29C2180.02 2535.7 2175.21 2533.4 2169.49 2533.4C2163.12 2533.4 2157.94 2535.84 2153.95 2540.71C2150.02 2545.59 2148.05 2552.76 2148.05 2562.23ZM2167.1 2522.36C2172.87 2522.36 2177.7 2523.58 2181.59 2526.02C2183.84 2527.42 2186.39 2529.88 2189.25 2533.4V2495.36H2201.41V2599H2190.02V2588.52C2187.07 2593.16 2183.58 2596.52 2179.55 2598.58C2175.52 2600.64 2170.9 2601.67 2165.7 2601.67C2157.3 2601.67 2150.04 2598.16 2143.9 2591.12C2137.76 2584.05 2134.69 2574.65 2134.69 2562.93C2134.69 2551.96 2137.48 2542.47 2143.05 2534.45C2148.68 2526.39 2156.7 2522.36 2167.1 2522.36ZM2229.89 2578.96C2229.89 2582.62 2231.23 2585.5 2233.9 2587.61C2236.57 2589.72 2239.73 2590.77 2243.39 2590.77C2247.84 2590.77 2252.16 2589.74 2256.33 2587.68C2263.36 2584.26 2266.88 2578.66 2266.88 2570.88V2560.68C2265.33 2561.66 2263.34 2562.48 2260.9 2563.14C2258.46 2563.8 2256.07 2564.27 2253.73 2564.55L2246.06 2565.53C2241.47 2566.14 2238.02 2567.1 2235.73 2568.41C2231.84 2570.62 2229.89 2574.13 2229.89 2578.96ZM2260.55 2553.37C2263.45 2552.99 2265.4 2551.77 2266.38 2549.71C2266.95 2548.59 2267.23 2546.97 2267.23 2544.86C2267.23 2540.55 2265.68 2537.43 2262.59 2535.51C2259.54 2533.54 2255.16 2532.55 2249.44 2532.55C2242.83 2532.55 2238.14 2534.34 2235.38 2537.9C2233.83 2539.87 2232.82 2542.8 2232.35 2546.69H2220.54C2220.77 2537.41 2223.77 2530.96 2229.54 2527.35C2235.35 2523.7 2242.08 2521.87 2249.72 2521.87C2258.58 2521.87 2265.77 2523.55 2271.3 2526.93C2276.79 2530.3 2279.53 2535.55 2279.53 2542.68V2586.06C2279.53 2587.38 2279.79 2588.43 2280.3 2589.23C2280.87 2590.02 2282.02 2590.42 2283.75 2590.42C2284.31 2590.42 2284.95 2590.4 2285.65 2590.35C2286.35 2590.26 2287.1 2590.14 2287.9 2590V2599.35C2285.93 2599.91 2284.43 2600.27 2283.4 2600.41C2282.37 2600.55 2280.96 2600.62 2279.18 2600.62C2274.82 2600.62 2271.66 2599.07 2269.69 2595.98C2268.66 2594.34 2267.93 2592.02 2267.51 2589.02C2264.93 2592.39 2261.23 2595.32 2256.4 2597.8C2251.57 2600.29 2246.25 2601.53 2240.44 2601.53C2233.45 2601.53 2227.73 2599.42 2223.28 2595.2C2218.88 2590.94 2216.67 2585.62 2216.67 2579.24C2216.67 2572.26 2218.85 2566.84 2223.21 2563C2227.57 2559.16 2233.29 2556.79 2240.37 2555.9L2260.55 2553.37ZM2347.38 2523.7H2361.38C2359.59 2528.52 2355.63 2539.54 2349.49 2556.74C2344.9 2569.68 2341.05 2580.23 2337.96 2588.38C2330.65 2607.6 2325.49 2619.32 2322.49 2623.54C2319.49 2627.76 2314.34 2629.87 2307.02 2629.87C2305.24 2629.87 2303.86 2629.8 2302.88 2629.66C2301.94 2629.52 2300.77 2629.26 2299.36 2628.88V2617.35C2301.56 2617.96 2303.16 2618.34 2304.14 2618.48C2305.12 2618.62 2305.99 2618.69 2306.74 2618.69C2309.09 2618.69 2310.8 2618.29 2311.88 2617.49C2313 2616.74 2313.94 2615.8 2314.69 2614.68C2314.92 2614.3 2315.77 2612.38 2317.22 2608.91C2318.67 2605.45 2319.73 2602.87 2320.38 2601.18L2292.54 2523.7H2306.88L2327.06 2585.01L2347.38 2523.7Z" fill="black"/>
<path d="M789.203 234.141H839.406V242.578H798.297V263.484H836.312V271.453H798.297V294.797H840.109V303H789.203V234.141ZM855.344 252.797L868.75 293.672L882.766 252.797H892L873.062 303H864.062L845.547 252.797H855.344ZM920.125 251.672C923.688 251.672 927.141 252.516 930.484 254.203C933.828 255.859 936.375 258.016 938.125 260.672C939.812 263.203 940.938 266.156 941.5 269.531C942 271.844 942.25 275.531 942.25 280.594H905.453C905.609 285.688 906.812 289.781 909.062 292.875C911.312 295.938 914.797 297.469 919.516 297.469C923.922 297.469 927.438 296.016 930.062 293.109C931.562 291.422 932.625 289.469 933.25 287.25H941.547C941.328 289.094 940.594 291.156 939.344 293.438C938.125 295.688 936.75 297.531 935.219 298.969C932.656 301.469 929.484 303.156 925.703 304.031C923.672 304.531 921.375 304.781 918.812 304.781C912.562 304.781 907.266 302.516 902.922 297.984C898.578 293.422 896.406 287.047 896.406 278.859C896.406 270.797 898.594 264.25 902.969 259.219C907.344 254.188 913.062 251.672 920.125 251.672ZM933.578 273.891C933.234 270.234 932.438 267.312 931.188 265.125C928.875 261.062 925.016 259.031 919.609 259.031C915.734 259.031 912.484 260.438 909.859 263.25C907.234 266.031 905.844 269.578 905.688 273.891H933.578ZM952.891 252.797H960.906V261.469C961.562 259.781 963.172 257.734 965.734 255.328C968.297 252.891 971.25 251.672 974.594 251.672C974.75 251.672 975.016 251.688 975.391 251.719C975.766 251.75 976.406 251.812 977.312 251.906V260.812C976.812 260.719 976.344 260.656 975.906 260.625C975.5 260.594 975.047 260.578 974.547 260.578C970.297 260.578 967.031 261.953 964.75 264.703C962.469 267.422 961.328 270.562 961.328 274.125V303H952.891V252.797ZM1015.98 252.797H1025.31C1024.12 256.016 1021.48 263.359 1017.39 274.828C1014.33 283.453 1011.77 290.484 1009.7 295.922C1004.83 308.734 1001.39 316.547 999.391 319.359C997.391 322.172 993.953 323.578 989.078 323.578C987.891 323.578 986.969 323.531 986.312 323.438C985.688 323.344 984.906 323.172 983.969 322.922V315.234C985.438 315.641 986.5 315.891 987.156 315.984C987.812 316.078 988.391 316.125 988.891 316.125C990.453 316.125 991.594 315.859 992.312 315.328C993.062 314.828 993.688 314.203 994.188 313.453C994.344 313.203 994.906 311.922 995.875 309.609C996.844 307.297 997.547 305.578 997.984 304.453L979.422 252.797H988.984L1002.44 293.672L1015.98 252.797ZM1037.97 278.484C1037.97 283.859 1039.11 288.359 1041.39 291.984C1043.67 295.609 1047.33 297.422 1052.36 297.422C1056.27 297.422 1059.47 295.75 1061.97 292.406C1064.5 289.031 1065.77 284.203 1065.77 277.922C1065.77 271.578 1064.47 266.891 1061.88 263.859C1059.28 260.797 1056.08 259.266 1052.27 259.266C1048.02 259.266 1044.56 260.891 1041.91 264.141C1039.28 267.391 1037.97 272.172 1037.97 278.484ZM1050.67 251.906C1054.52 251.906 1057.73 252.719 1060.33 254.344C1061.83 255.281 1063.53 256.922 1065.44 259.266V233.906H1073.55V303H1065.95V296.016C1063.98 299.109 1061.66 301.344 1058.97 302.719C1056.28 304.094 1053.2 304.781 1049.73 304.781C1044.14 304.781 1039.3 302.438 1035.2 297.75C1031.11 293.031 1029.06 286.766 1029.06 278.953C1029.06 271.641 1030.92 265.312 1034.64 259.969C1038.39 254.594 1043.73 251.906 1050.67 251.906ZM1092.53 289.641C1092.53 292.078 1093.42 294 1095.2 295.406C1096.98 296.812 1099.09 297.516 1101.53 297.516C1104.5 297.516 1107.38 296.828 1110.16 295.453C1114.84 293.172 1117.19 289.438 1117.19 284.25V277.453C1116.16 278.109 1114.83 278.656 1113.2 279.094C1111.58 279.531 1109.98 279.844 1108.42 280.031L1103.31 280.688C1100.25 281.094 1097.95 281.734 1096.42 282.609C1093.83 284.078 1092.53 286.422 1092.53 289.641ZM1112.97 272.578C1114.91 272.328 1116.2 271.516 1116.86 270.141C1117.23 269.391 1117.42 268.312 1117.42 266.906C1117.42 264.031 1116.39 261.953 1114.33 260.672C1112.3 259.359 1109.38 258.703 1105.56 258.703C1101.16 258.703 1098.03 259.891 1096.19 262.266C1095.16 263.578 1094.48 265.531 1094.17 268.125H1086.3C1086.45 261.938 1088.45 257.641 1092.3 255.234C1096.17 252.797 1100.66 251.578 1105.75 251.578C1111.66 251.578 1116.45 252.703 1120.14 254.953C1123.8 257.203 1125.62 260.703 1125.62 265.453V294.375C1125.62 295.25 1125.8 295.953 1126.14 296.484C1126.52 297.016 1127.28 297.281 1128.44 297.281C1128.81 297.281 1129.23 297.266 1129.7 297.234C1130.17 297.172 1130.67 297.094 1131.2 297V303.234C1129.89 303.609 1128.89 303.844 1128.2 303.938C1127.52 304.031 1126.58 304.078 1125.39 304.078C1122.48 304.078 1120.38 303.047 1119.06 300.984C1118.38 299.891 1117.89 298.344 1117.61 296.344C1115.89 298.594 1113.42 300.547 1110.2 302.203C1106.98 303.859 1103.44 304.688 1099.56 304.688C1094.91 304.688 1091.09 303.281 1088.12 300.469C1085.19 297.625 1083.72 294.078 1083.72 289.828C1083.72 285.172 1085.17 281.562 1088.08 279C1090.98 276.438 1094.8 274.859 1099.52 274.266L1112.97 272.578ZM1170.86 252.797H1180.19C1179 256.016 1176.36 263.359 1172.27 274.828C1169.2 283.453 1166.64 290.484 1164.58 295.922C1159.7 308.734 1156.27 316.547 1154.27 319.359C1152.27 322.172 1148.83 323.578 1143.95 323.578C1142.77 323.578 1141.84 323.531 1141.19 323.438C1140.56 323.344 1139.78 323.172 1138.84 322.922V315.234C1140.31 315.641 1141.38 315.891 1142.03 315.984C1142.69 316.078 1143.27 316.125 1143.77 316.125C1145.33 316.125 1146.47 315.859 1147.19 315.328C1147.94 314.828 1148.56 314.203 1149.06 313.453C1149.22 313.203 1149.78 311.922 1150.75 309.609C1151.72 307.297 1152.42 305.578 1152.86 304.453L1134.3 252.797H1143.86L1157.31 293.672L1170.86 252.797Z" fill="black"/>
<path d="M743.328 1713.69C747.703 1713.69 751.156 1712.81 753.688 1711.06C756.25 1709.31 757.531 1706.16 757.531 1701.59C757.531 1696.69 755.75 1693.34 752.188 1691.56C750.281 1690.62 747.734 1690.16 744.547 1690.16H721.766V1713.69H743.328ZM712.438 1682.14H744.312C749.562 1682.14 753.891 1682.91 757.297 1684.44C763.766 1687.38 767 1692.8 767 1700.7C767 1704.83 766.141 1708.2 764.422 1710.83C762.734 1713.45 760.359 1715.56 757.297 1717.16C759.984 1718.25 762 1719.69 763.344 1721.47C764.719 1723.25 765.484 1726.14 765.641 1730.14L765.969 1739.38C766.062 1742 766.281 1743.95 766.625 1745.23C767.188 1747.42 768.188 1748.83 769.625 1749.45V1751H758.188C757.875 1750.41 757.625 1749.64 757.438 1748.7C757.25 1747.77 757.094 1745.95 756.969 1743.27L756.406 1731.78C756.188 1727.28 754.516 1724.27 751.391 1722.73C749.609 1721.89 746.812 1721.47 743 1721.47H721.766V1751H712.438V1682.14ZM786.031 1737.64C786.031 1740.08 786.922 1742 788.703 1743.41C790.484 1744.81 792.594 1745.52 795.031 1745.52C798 1745.52 800.875 1744.83 803.656 1743.45C808.344 1741.17 810.688 1737.44 810.688 1732.25V1725.45C809.656 1726.11 808.328 1726.66 806.703 1727.09C805.078 1727.53 803.484 1727.84 801.922 1728.03L796.812 1728.69C793.75 1729.09 791.453 1729.73 789.922 1730.61C787.328 1732.08 786.031 1734.42 786.031 1737.64ZM806.469 1720.58C808.406 1720.33 809.703 1719.52 810.359 1718.14C810.734 1717.39 810.922 1716.31 810.922 1714.91C810.922 1712.03 809.891 1709.95 807.828 1708.67C805.797 1707.36 802.875 1706.7 799.062 1706.7C794.656 1706.7 791.531 1707.89 789.688 1710.27C788.656 1711.58 787.984 1713.53 787.672 1716.12H779.797C779.953 1709.94 781.953 1705.64 785.797 1703.23C789.672 1700.8 794.156 1699.58 799.25 1699.58C805.156 1699.58 809.953 1700.7 813.641 1702.95C817.297 1705.2 819.125 1708.7 819.125 1713.45V1742.38C819.125 1743.25 819.297 1743.95 819.641 1744.48C820.016 1745.02 820.781 1745.28 821.938 1745.28C822.312 1745.28 822.734 1745.27 823.203 1745.23C823.672 1745.17 824.172 1745.09 824.703 1745V1751.23C823.391 1751.61 822.391 1751.84 821.703 1751.94C821.016 1752.03 820.078 1752.08 818.891 1752.08C815.984 1752.08 813.875 1751.05 812.562 1748.98C811.875 1747.89 811.391 1746.34 811.109 1744.34C809.391 1746.59 806.922 1748.55 803.703 1750.2C800.484 1751.86 796.938 1752.69 793.062 1752.69C788.406 1752.69 784.594 1751.28 781.625 1748.47C778.688 1745.62 777.219 1742.08 777.219 1737.83C777.219 1733.17 778.672 1729.56 781.578 1727C784.484 1724.44 788.297 1722.86 793.016 1722.27L806.469 1720.58ZM833.234 1700.8H841.25V1709.47C841.906 1707.78 843.516 1705.73 846.078 1703.33C848.641 1700.89 851.594 1699.67 854.938 1699.67C855.094 1699.67 855.359 1699.69 855.734 1699.72C856.109 1699.75 856.75 1699.81 857.656 1699.91V1708.81C857.156 1708.72 856.688 1708.66 856.25 1708.62C855.844 1708.59 855.391 1708.58 854.891 1708.58C850.641 1708.58 847.375 1709.95 845.094 1712.7C842.812 1715.42 841.672 1718.56 841.672 1722.12V1751H833.234V1700.8ZM885.875 1699.67C889.438 1699.67 892.891 1700.52 896.234 1702.2C899.578 1703.86 902.125 1706.02 903.875 1708.67C905.562 1711.2 906.688 1714.16 907.25 1717.53C907.75 1719.84 908 1723.53 908 1728.59H871.203C871.359 1733.69 872.562 1737.78 874.812 1740.88C877.062 1743.94 880.547 1745.47 885.266 1745.47C889.672 1745.47 893.188 1744.02 895.812 1741.11C897.312 1739.42 898.375 1737.47 899 1735.25H907.297C907.078 1737.09 906.344 1739.16 905.094 1741.44C903.875 1743.69 902.5 1745.53 900.969 1746.97C898.406 1749.47 895.234 1751.16 891.453 1752.03C889.422 1752.53 887.125 1752.78 884.562 1752.78C878.312 1752.78 873.016 1750.52 868.672 1745.98C864.328 1741.42 862.156 1735.05 862.156 1726.86C862.156 1718.8 864.344 1712.25 868.719 1707.22C873.094 1702.19 878.812 1699.67 885.875 1699.67ZM899.328 1721.89C898.984 1718.23 898.188 1715.31 896.938 1713.12C894.625 1709.06 890.766 1707.03 885.359 1707.03C881.484 1707.03 878.234 1708.44 875.609 1711.25C872.984 1714.03 871.594 1717.58 871.438 1721.89H899.328ZM918.641 1682.14H927.078V1751H918.641V1682.14ZM971.141 1700.8H980.469C979.281 1704.02 976.641 1711.36 972.547 1722.83C969.484 1731.45 966.922 1738.48 964.859 1743.92C959.984 1756.73 956.547 1764.55 954.547 1767.36C952.547 1770.17 949.109 1771.58 944.234 1771.58C943.047 1771.58 942.125 1771.53 941.469 1771.44C940.844 1771.34 940.062 1771.17 939.125 1770.92V1763.23C940.594 1763.64 941.656 1763.89 942.312 1763.98C942.969 1764.08 943.547 1764.12 944.047 1764.12C945.609 1764.12 946.75 1763.86 947.469 1763.33C948.219 1762.83 948.844 1762.2 949.344 1761.45C949.5 1761.2 950.062 1759.92 951.031 1757.61C952 1755.3 952.703 1753.58 953.141 1752.45L934.578 1700.8H944.141L957.594 1741.67L971.141 1700.8Z" fill="black"/>
<path d="M151.406 925.781C151.625 929.688 152.547 932.859 154.172 935.297C157.266 939.859 162.719 942.141 170.531 942.141C174.031 942.141 177.219 941.641 180.094 940.641C185.656 938.703 188.438 935.234 188.438 930.234C188.438 926.484 187.266 923.812 184.922 922.219C182.547 920.656 178.828 919.297 173.766 918.141L164.438 916.031C158.344 914.656 154.031 913.141 151.5 911.484C147.125 908.609 144.938 904.312 144.938 898.594C144.938 892.406 147.078 887.328 151.359 883.359C155.641 879.391 161.703 877.406 169.547 877.406C176.766 877.406 182.891 879.156 187.922 882.656C192.984 886.125 195.516 891.688 195.516 899.344H186.75C186.281 895.656 185.281 892.828 183.75 890.859C180.906 887.266 176.078 885.469 169.266 885.469C163.766 885.469 159.812 886.625 157.406 888.938C155 891.25 153.797 893.938 153.797 897C153.797 900.375 155.203 902.844 158.016 904.406C159.859 905.406 164.031 906.656 170.531 908.156L180.188 910.359C184.844 911.422 188.438 912.875 190.969 914.719C195.344 917.938 197.531 922.609 197.531 928.734C197.531 936.359 194.75 941.812 189.188 945.094C183.656 948.375 177.219 950.016 169.875 950.016C161.312 950.016 154.609 947.828 149.766 943.453C144.922 939.109 142.547 933.219 142.641 925.781H151.406ZM229.406 942.328C233.344 942.328 236.609 940.688 239.203 937.406C241.828 934.094 243.141 929.156 243.141 922.594C243.141 918.594 242.562 915.156 241.406 912.281C239.219 906.75 235.219 903.984 229.406 903.984C223.562 903.984 219.562 906.906 217.406 912.75C216.25 915.875 215.672 919.844 215.672 924.656C215.672 928.531 216.25 931.828 217.406 934.547C219.594 939.734 223.594 942.328 229.406 942.328ZM207.562 898.031H215.766V904.688C217.453 902.406 219.297 900.641 221.297 899.391C224.141 897.516 227.484 896.578 231.328 896.578C237.016 896.578 241.844 898.766 245.812 903.141C249.781 907.484 251.766 913.703 251.766 921.797C251.766 932.734 248.906 940.547 243.188 945.234C239.562 948.203 235.344 949.688 230.531 949.688C226.75 949.688 223.578 948.859 221.016 947.203C219.516 946.266 217.844 944.656 216 942.375V968.016H207.562V898.031ZM282.562 896.672C286.125 896.672 289.578 897.516 292.922 899.203C296.266 900.859 298.812 903.016 300.562 905.672C302.25 908.203 303.375 911.156 303.938 914.531C304.438 916.844 304.688 920.531 304.688 925.594H267.891C268.047 930.688 269.25 934.781 271.5 937.875C273.75 940.938 277.234 942.469 281.953 942.469C286.359 942.469 289.875 941.016 292.5 938.109C294 936.422 295.062 934.469 295.688 932.25H303.984C303.766 934.094 303.031 936.156 301.781 938.438C300.562 940.688 299.188 942.531 297.656 943.969C295.094 946.469 291.922 948.156 288.141 949.031C286.109 949.531 283.812 949.781 281.25 949.781C275 949.781 269.703 947.516 265.359 942.984C261.016 938.422 258.844 932.047 258.844 923.859C258.844 915.797 261.031 909.25 265.406 904.219C269.781 899.188 275.5 896.672 282.562 896.672ZM296.016 918.891C295.672 915.234 294.875 912.312 293.625 910.125C291.312 906.062 287.453 904.031 282.047 904.031C278.172 904.031 274.922 905.438 272.297 908.25C269.672 911.031 268.281 914.578 268.125 918.891H296.016ZM334.453 896.344C340.109 896.344 344.703 897.719 348.234 900.469C351.797 903.219 353.938 907.953 354.656 914.672H346.453C345.953 911.578 344.812 909.016 343.031 906.984C341.25 904.922 338.391 903.891 334.453 903.891C329.078 903.891 325.234 906.516 322.922 911.766C321.422 915.172 320.672 919.375 320.672 924.375C320.672 929.406 321.734 933.641 323.859 937.078C325.984 940.516 329.328 942.234 333.891 942.234C337.391 942.234 340.156 941.172 342.188 939.047C344.25 936.891 345.672 933.953 346.453 930.234H354.656C353.719 936.891 351.375 941.766 347.625 944.859C343.875 947.922 339.078 949.453 333.234 949.453C326.672 949.453 321.438 947.062 317.531 942.281C313.625 937.469 311.672 931.469 311.672 924.281C311.672 915.469 313.812 908.609 318.094 903.703C322.375 898.797 327.828 896.344 334.453 896.344ZM363.094 898.031H371.672V948H363.094V898.031ZM363.094 879.141H371.672V888.703H363.094V879.141ZM390.938 934.641C390.938 937.078 391.828 939 393.609 940.406C395.391 941.812 397.5 942.516 399.938 942.516C402.906 942.516 405.781 941.828 408.562 940.453C413.25 938.172 415.594 934.438 415.594 929.25V922.453C414.562 923.109 413.234 923.656 411.609 924.094C409.984 924.531 408.391 924.844 406.828 925.031L401.719 925.688C398.656 926.094 396.359 926.734 394.828 927.609C392.234 929.078 390.938 931.422 390.938 934.641ZM411.375 917.578C413.312 917.328 414.609 916.516 415.266 915.141C415.641 914.391 415.828 913.312 415.828 911.906C415.828 909.031 414.797 906.953 412.734 905.672C410.703 904.359 407.781 903.703 403.969 903.703C399.562 903.703 396.438 904.891 394.594 907.266C393.562 908.578 392.891 910.531 392.578 913.125H384.703C384.859 906.938 386.859 902.641 390.703 900.234C394.578 897.797 399.062 896.578 404.156 896.578C410.062 896.578 414.859 897.703 418.547 899.953C422.203 902.203 424.031 905.703 424.031 910.453V939.375C424.031 940.25 424.203 940.953 424.547 941.484C424.922 942.016 425.688 942.281 426.844 942.281C427.219 942.281 427.641 942.266 428.109 942.234C428.578 942.172 429.078 942.094 429.609 942V948.234C428.297 948.609 427.297 948.844 426.609 948.938C425.922 949.031 424.984 949.078 423.797 949.078C420.891 949.078 418.781 948.047 417.469 945.984C416.781 944.891 416.297 943.344 416.016 941.344C414.297 943.594 411.828 945.547 408.609 947.203C405.391 948.859 401.844 949.688 397.969 949.688C393.312 949.688 389.5 948.281 386.531 945.469C383.594 942.625 382.125 939.078 382.125 934.828C382.125 930.172 383.578 926.562 386.484 924C389.391 921.438 393.203 919.859 397.922 919.266L411.375 917.578ZM438.141 879.141H446.578V948H438.141V879.141ZM516.844 877.266C529 877.266 538 881.172 543.844 888.984C548.406 895.078 550.688 902.875 550.688 912.375C550.688 922.656 548.078 931.203 542.859 938.016C536.734 946.016 528 950.016 516.656 950.016C506.062 950.016 497.734 946.516 491.672 939.516C486.266 932.766 483.562 924.234 483.562 913.922C483.562 904.609 485.875 896.641 490.5 890.016C496.438 881.516 505.219 877.266 516.844 877.266ZM517.781 941.672C526 941.672 531.938 938.734 535.594 932.859C539.281 926.953 541.125 920.172 541.125 912.516C541.125 904.422 539 897.906 534.75 892.969C530.531 888.031 524.75 885.562 517.406 885.562C510.281 885.562 504.469 888.016 499.969 892.922C495.469 897.797 493.219 905 493.219 914.531C493.219 922.156 495.141 928.594 498.984 933.844C502.859 939.062 509.125 941.672 517.781 941.672ZM580.078 896.344C585.734 896.344 590.328 897.719 593.859 900.469C597.422 903.219 599.562 907.953 600.281 914.672H592.078C591.578 911.578 590.438 909.016 588.656 906.984C586.875 904.922 584.016 903.891 580.078 903.891C574.703 903.891 570.859 906.516 568.547 911.766C567.047 915.172 566.297 919.375 566.297 924.375C566.297 929.406 567.359 933.641 569.484 937.078C571.609 940.516 574.953 942.234 579.516 942.234C583.016 942.234 585.781 941.172 587.812 939.047C589.875 936.891 591.297 933.953 592.078 930.234H600.281C599.344 936.891 597 941.766 593.25 944.859C589.5 947.922 584.703 949.453 578.859 949.453C572.297 949.453 567.062 947.062 563.156 942.281C559.25 937.469 557.297 931.469 557.297 924.281C557.297 915.469 559.438 908.609 563.719 903.703C568 898.797 573.453 896.344 580.078 896.344ZM628.078 896.344C633.734 896.344 638.328 897.719 641.859 900.469C645.422 903.219 647.562 907.953 648.281 914.672H640.078C639.578 911.578 638.438 909.016 636.656 906.984C634.875 904.922 632.016 903.891 628.078 903.891C622.703 903.891 618.859 906.516 616.547 911.766C615.047 915.172 614.297 919.375 614.297 924.375C614.297 929.406 615.359 933.641 617.484 937.078C619.609 940.516 622.953 942.234 627.516 942.234C631.016 942.234 633.781 941.172 635.812 939.047C637.875 936.891 639.297 933.953 640.078 930.234H648.281C647.344 936.891 645 941.766 641.25 944.859C637.5 947.922 632.703 949.453 626.859 949.453C620.297 949.453 615.062 947.062 611.156 942.281C607.25 937.469 605.297 931.469 605.297 924.281C605.297 915.469 607.438 908.609 611.719 903.703C616 898.797 621.453 896.344 628.078 896.344ZM663.188 934.641C663.188 937.078 664.078 939 665.859 940.406C667.641 941.812 669.75 942.516 672.188 942.516C675.156 942.516 678.031 941.828 680.812 940.453C685.5 938.172 687.844 934.438 687.844 929.25V922.453C686.812 923.109 685.484 923.656 683.859 924.094C682.234 924.531 680.641 924.844 679.078 925.031L673.969 925.688C670.906 926.094 668.609 926.734 667.078 927.609C664.484 929.078 663.188 931.422 663.188 934.641ZM683.625 917.578C685.562 917.328 686.859 916.516 687.516 915.141C687.891 914.391 688.078 913.312 688.078 911.906C688.078 909.031 687.047 906.953 684.984 905.672C682.953 904.359 680.031 903.703 676.219 903.703C671.812 903.703 668.688 904.891 666.844 907.266C665.812 908.578 665.141 910.531 664.828 913.125H656.953C657.109 906.938 659.109 902.641 662.953 900.234C666.828 897.797 671.312 896.578 676.406 896.578C682.312 896.578 687.109 897.703 690.797 899.953C694.453 902.203 696.281 905.703 696.281 910.453V939.375C696.281 940.25 696.453 940.953 696.797 941.484C697.172 942.016 697.938 942.281 699.094 942.281C699.469 942.281 699.891 942.266 700.359 942.234C700.828 942.172 701.328 942.094 701.859 942V948.234C700.547 948.609 699.547 948.844 698.859 948.938C698.172 949.031 697.234 949.078 696.047 949.078C693.141 949.078 691.031 948.047 689.719 945.984C689.031 944.891 688.547 943.344 688.266 941.344C686.547 943.594 684.078 945.547 680.859 947.203C677.641 948.859 674.094 949.688 670.219 949.688C665.562 949.688 661.75 948.281 658.781 945.469C655.844 942.625 654.375 939.078 654.375 934.828C654.375 930.172 655.828 926.562 658.734 924C661.641 921.438 665.453 919.859 670.172 919.266L683.625 917.578ZM715.172 932.25C715.422 935.062 716.125 937.219 717.281 938.719C719.406 941.438 723.094 942.797 728.344 942.797C731.469 942.797 734.219 942.125 736.594 940.781C738.969 939.406 740.156 937.297 740.156 934.453C740.156 932.297 739.203 930.656 737.297 929.531C736.078 928.844 733.672 928.047 730.078 927.141L723.375 925.453C719.094 924.391 715.938 923.203 713.906 921.891C710.281 919.609 708.469 916.453 708.469 912.422C708.469 907.672 710.172 903.828 713.578 900.891C717.016 897.953 721.625 896.484 727.406 896.484C734.969 896.484 740.422 898.703 743.766 903.141C745.859 905.953 746.875 908.984 746.812 912.234H738.844C738.688 910.328 738.016 908.594 736.828 907.031C734.891 904.812 731.531 903.703 726.75 903.703C723.562 903.703 721.141 904.312 719.484 905.531C717.859 906.75 717.047 908.359 717.047 910.359C717.047 912.547 718.125 914.297 720.281 915.609C721.531 916.391 723.375 917.078 725.812 917.672L731.391 919.031C737.453 920.5 741.516 921.922 743.578 923.297C746.859 925.453 748.5 928.844 748.5 933.469C748.5 937.938 746.797 941.797 743.391 945.047C740.016 948.297 734.859 949.922 727.922 949.922C720.453 949.922 715.156 948.234 712.031 944.859C708.938 941.453 707.281 937.25 707.062 932.25H715.172ZM758.156 898.031H766.734V948H758.156V898.031ZM758.156 879.141H766.734V888.703H758.156V879.141ZM799.453 942.562C805.047 942.562 808.875 940.453 810.938 936.234C813.031 931.984 814.078 927.266 814.078 922.078C814.078 917.391 813.328 913.578 811.828 910.641C809.453 906.016 805.359 903.703 799.547 903.703C794.391 903.703 790.641 905.672 788.297 909.609C785.953 913.547 784.781 918.297 784.781 923.859C784.781 929.203 785.953 933.656 788.297 937.219C790.641 940.781 794.359 942.562 799.453 942.562ZM799.781 896.344C806.25 896.344 811.719 898.5 816.188 902.812C820.656 907.125 822.891 913.469 822.891 921.844C822.891 929.938 820.922 936.625 816.984 941.906C813.047 947.188 806.938 949.828 798.656 949.828C791.75 949.828 786.266 947.5 782.203 942.844C778.141 938.156 776.109 931.875 776.109 924C776.109 915.562 778.25 908.844 782.531 903.844C786.812 898.844 792.562 896.344 799.781 896.344ZM832.969 897.797H840.984V904.922C843.359 901.984 845.875 899.875 848.531 898.594C851.188 897.312 854.141 896.672 857.391 896.672C864.516 896.672 869.328 899.156 871.828 904.125C873.203 906.844 873.891 910.734 873.891 915.797V948H865.312V916.359C865.312 913.297 864.859 910.828 863.953 908.953C862.453 905.828 859.734 904.266 855.797 904.266C853.797 904.266 852.156 904.469 850.875 904.875C848.562 905.562 846.531 906.938 844.781 909C843.375 910.656 842.453 912.375 842.016 914.156C841.609 915.906 841.406 918.422 841.406 921.703V948H832.969V897.797ZM891.422 932.25C891.672 935.062 892.375 937.219 893.531 938.719C895.656 941.438 899.344 942.797 904.594 942.797C907.719 942.797 910.469 942.125 912.844 940.781C915.219 939.406 916.406 937.297 916.406 934.453C916.406 932.297 915.453 930.656 913.547 929.531C912.328 928.844 909.922 928.047 906.328 927.141L899.625 925.453C895.344 924.391 892.188 923.203 890.156 921.891C886.531 919.609 884.719 916.453 884.719 912.422C884.719 907.672 886.422 903.828 889.828 900.891C893.266 897.953 897.875 896.484 903.656 896.484C911.219 896.484 916.672 898.703 920.016 903.141C922.109 905.953 923.125 908.984 923.062 912.234H915.094C914.938 910.328 914.266 908.594 913.078 907.031C911.141 904.812 907.781 903.703 903 903.703C899.812 903.703 897.391 904.312 895.734 905.531C894.109 906.75 893.297 908.359 893.297 910.359C893.297 912.547 894.375 914.297 896.531 915.609C897.781 916.391 899.625 917.078 902.062 917.672L907.641 919.031C913.703 920.5 917.766 921.922 919.828 923.297C923.109 925.453 924.75 928.844 924.75 933.469C924.75 937.938 923.047 941.797 919.641 945.047C916.266 948.297 911.109 949.922 904.172 949.922C896.703 949.922 891.406 948.234 888.281 944.859C885.188 941.453 883.531 937.25 883.312 932.25H891.422Z" fill="black"/>
</svg>
