<svg width="2208" height="2462" viewBox="0 0 2208 2462" fill="none" xmlns="http://www.w3.org/2000/svg">
<path d="M1104.18 1104V1C1713.25 1 2207 494.83 2207 1104C2207 1713.17 1713.25 2207 1104.18 2207C524.672 2207 44.0211 1758.4 4 1180.17L1104.18 1104Z" fill="#E5C646" stroke="white"/>
<path d="M1103 1103.84L3.63141 1180C-10.3227 978.273 31.4125 776.59 124.274 597L1103 1103.84Z" fill="#F9F5E5" stroke="white"/>
<path d="M1103 1103L124 596.543C313.356 230.716 690.98 1 1103 1V1103Z" fill="#F4E9BD" stroke="white"/>
<path d="M1186.55 1440.14H1195.97V1468.59H1231.78V1440.14H1241.2V1509H1231.78V1476.8H1195.97V1509H1186.55V1440.14ZM1274.48 1503.56C1280.08 1503.56 1283.91 1501.45 1285.97 1497.23C1288.06 1492.98 1289.11 1488.27 1289.11 1483.08C1289.11 1478.39 1288.36 1474.58 1286.86 1471.64C1284.48 1467.02 1280.39 1464.7 1274.58 1464.7C1269.42 1464.7 1265.67 1466.67 1263.33 1470.61C1260.98 1474.55 1259.81 1479.3 1259.81 1484.86C1259.81 1490.2 1260.98 1494.66 1263.33 1498.22C1265.67 1501.78 1269.39 1503.56 1274.48 1503.56ZM1274.81 1457.34C1281.28 1457.34 1286.75 1459.5 1291.22 1463.81C1295.69 1468.12 1297.92 1474.47 1297.92 1482.84C1297.92 1490.94 1295.95 1497.62 1292.02 1502.91C1288.08 1508.19 1281.97 1510.83 1273.69 1510.83C1266.78 1510.83 1261.3 1508.5 1257.23 1503.84C1253.17 1499.16 1251.14 1492.88 1251.14 1485C1251.14 1476.56 1253.28 1469.84 1257.56 1464.84C1261.84 1459.84 1267.59 1457.34 1274.81 1457.34ZM1308 1458.8H1316.34V1465.92C1318.34 1463.45 1320.16 1461.66 1321.78 1460.53C1324.56 1458.62 1327.72 1457.67 1331.25 1457.67C1335.25 1457.67 1338.47 1458.66 1340.91 1460.62C1342.28 1461.75 1343.53 1463.41 1344.66 1465.59C1346.53 1462.91 1348.73 1460.92 1351.27 1459.64C1353.8 1458.33 1356.64 1457.67 1359.8 1457.67C1366.55 1457.67 1371.14 1460.11 1373.58 1464.98C1374.89 1467.61 1375.55 1471.14 1375.55 1475.58V1509H1366.78V1474.12C1366.78 1470.78 1365.94 1468.48 1364.25 1467.23C1362.59 1465.98 1360.56 1465.36 1358.16 1465.36C1354.84 1465.36 1351.98 1466.47 1349.58 1468.69C1347.2 1470.91 1346.02 1474.61 1346.02 1479.8V1509H1337.44V1476.23C1337.44 1472.83 1337.03 1470.34 1336.22 1468.78C1334.94 1466.44 1332.55 1465.27 1329.05 1465.27C1325.86 1465.27 1322.95 1466.5 1320.33 1468.97C1317.73 1471.44 1316.44 1475.91 1316.44 1482.38V1509H1308V1458.8ZM1408.88 1457.67C1412.44 1457.67 1415.89 1458.52 1419.23 1460.2C1422.58 1461.86 1425.12 1464.02 1426.88 1466.67C1428.56 1469.2 1429.69 1472.16 1430.25 1475.53C1430.75 1477.84 1431 1481.53 1431 1486.59H1394.2C1394.36 1491.69 1395.56 1495.78 1397.81 1498.88C1400.06 1501.94 1403.55 1503.47 1408.27 1503.47C1412.67 1503.47 1416.19 1502.02 1418.81 1499.11C1420.31 1497.42 1421.38 1495.47 1422 1493.25H1430.3C1430.08 1495.09 1429.34 1497.16 1428.09 1499.44C1426.88 1501.69 1425.5 1503.53 1423.97 1504.97C1421.41 1507.47 1418.23 1509.16 1414.45 1510.03C1412.42 1510.53 1410.12 1510.78 1407.56 1510.78C1401.31 1510.78 1396.02 1508.52 1391.67 1503.98C1387.33 1499.42 1385.16 1493.05 1385.16 1484.86C1385.16 1476.8 1387.34 1470.25 1391.72 1465.22C1396.09 1460.19 1401.81 1457.67 1408.88 1457.67ZM1422.33 1479.89C1421.98 1476.23 1421.19 1473.31 1419.94 1471.12C1417.62 1467.06 1413.77 1465.03 1408.36 1465.03C1404.48 1465.03 1401.23 1466.44 1398.61 1469.25C1395.98 1472.03 1394.59 1475.58 1394.44 1479.89H1422.33ZM1498.27 1438.27C1506.98 1438.27 1513.75 1440.56 1518.56 1445.16C1523.38 1449.75 1526.05 1454.97 1526.58 1460.81H1517.48C1516.45 1456.38 1514.39 1452.86 1511.3 1450.27C1508.23 1447.67 1503.92 1446.38 1498.36 1446.38C1491.58 1446.38 1486.09 1448.77 1481.91 1453.55C1477.75 1458.3 1475.67 1465.59 1475.67 1475.44C1475.67 1483.5 1477.55 1490.05 1481.3 1495.08C1485.08 1500.08 1490.7 1502.58 1498.17 1502.58C1505.05 1502.58 1510.28 1499.94 1513.88 1494.66C1515.78 1491.88 1517.2 1488.22 1518.14 1483.69H1527.23C1526.42 1490.94 1523.73 1497.02 1519.17 1501.92C1513.7 1507.83 1506.33 1510.78 1497.05 1510.78C1489.05 1510.78 1482.33 1508.36 1476.89 1503.52C1469.73 1497.11 1466.16 1487.22 1466.16 1473.84C1466.16 1463.69 1468.84 1455.36 1474.22 1448.86C1480.03 1441.8 1488.05 1438.27 1498.27 1438.27ZM1537.5 1439.91H1545.94V1465.59C1547.94 1463.06 1549.73 1461.28 1551.33 1460.25C1554.05 1458.47 1557.44 1457.58 1561.5 1457.58C1568.78 1457.58 1573.72 1460.12 1576.31 1465.22C1577.72 1468 1578.42 1471.86 1578.42 1476.8V1509H1569.75V1477.36C1569.75 1473.67 1569.28 1470.97 1568.34 1469.25C1566.81 1466.5 1563.94 1465.12 1559.72 1465.12C1556.22 1465.12 1553.05 1466.33 1550.2 1468.73C1547.36 1471.14 1545.94 1475.69 1545.94 1482.38V1509H1537.5V1439.91ZM1611.84 1457.67C1615.41 1457.67 1618.86 1458.52 1622.2 1460.2C1625.55 1461.86 1628.09 1464.02 1629.84 1466.67C1631.53 1469.2 1632.66 1472.16 1633.22 1475.53C1633.72 1477.84 1633.97 1481.53 1633.97 1486.59H1597.17C1597.33 1491.69 1598.53 1495.78 1600.78 1498.88C1603.03 1501.94 1606.52 1503.47 1611.23 1503.47C1615.64 1503.47 1619.16 1502.02 1621.78 1499.11C1623.28 1497.42 1624.34 1495.47 1624.97 1493.25H1633.27C1633.05 1495.09 1632.31 1497.16 1631.06 1499.44C1629.84 1501.69 1628.47 1503.53 1626.94 1504.97C1624.38 1507.47 1621.2 1509.16 1617.42 1510.03C1615.39 1510.53 1613.09 1510.78 1610.53 1510.78C1604.28 1510.78 1598.98 1508.52 1594.64 1503.98C1590.3 1499.42 1588.12 1493.05 1588.12 1484.86C1588.12 1476.8 1590.31 1470.25 1594.69 1465.22C1599.06 1460.19 1604.78 1457.67 1611.84 1457.67ZM1625.3 1479.89C1624.95 1476.23 1624.16 1473.31 1622.91 1471.12C1620.59 1467.06 1616.73 1465.03 1611.33 1465.03C1607.45 1465.03 1604.2 1466.44 1601.58 1469.25C1598.95 1472.03 1597.56 1475.58 1597.41 1479.89H1625.3ZM1646.48 1451.16C1646.61 1447.66 1647.22 1445.09 1648.31 1443.47C1650.28 1440.59 1654.08 1439.16 1659.7 1439.16C1660.23 1439.16 1660.78 1439.17 1661.34 1439.2C1661.91 1439.23 1662.55 1439.28 1663.27 1439.34V1447.03C1662.39 1446.97 1661.75 1446.94 1661.34 1446.94C1660.97 1446.91 1660.61 1446.89 1660.27 1446.89C1657.7 1446.89 1656.17 1447.56 1655.67 1448.91C1655.17 1450.22 1654.92 1453.59 1654.92 1459.03H1663.27V1465.69H1654.83V1509H1646.48V1465.69H1639.5V1459.03H1646.48V1451.16ZM1676.11 1493.25C1676.36 1496.06 1677.06 1498.22 1678.22 1499.72C1680.34 1502.44 1684.03 1503.8 1689.28 1503.8C1692.41 1503.8 1695.16 1503.12 1697.53 1501.78C1699.91 1500.41 1701.09 1498.3 1701.09 1495.45C1701.09 1493.3 1700.14 1491.66 1698.23 1490.53C1697.02 1489.84 1694.61 1489.05 1691.02 1488.14L1684.31 1486.45C1680.03 1485.39 1676.88 1484.2 1674.84 1482.89C1671.22 1480.61 1669.41 1477.45 1669.41 1473.42C1669.41 1468.67 1671.11 1464.83 1674.52 1461.89C1677.95 1458.95 1682.56 1457.48 1688.34 1457.48C1695.91 1457.48 1701.36 1459.7 1704.7 1464.14C1706.8 1466.95 1707.81 1469.98 1707.75 1473.23H1699.78C1699.62 1471.33 1698.95 1469.59 1697.77 1468.03C1695.83 1465.81 1692.47 1464.7 1687.69 1464.7C1684.5 1464.7 1682.08 1465.31 1680.42 1466.53C1678.8 1467.75 1677.98 1469.36 1677.98 1471.36C1677.98 1473.55 1679.06 1475.3 1681.22 1476.61C1682.47 1477.39 1684.31 1478.08 1686.75 1478.67L1692.33 1480.03C1698.39 1481.5 1702.45 1482.92 1704.52 1484.3C1707.8 1486.45 1709.44 1489.84 1709.44 1494.47C1709.44 1498.94 1707.73 1502.8 1704.33 1506.05C1700.95 1509.3 1695.8 1510.92 1688.86 1510.92C1681.39 1510.92 1676.09 1509.23 1672.97 1505.86C1669.88 1502.45 1668.22 1498.25 1668 1493.25H1676.11Z" fill="black"/>
<path d="M559.312 492.141H570.328L605.109 547.922V492.141H613.969V561H603.516L568.219 505.266V561H559.312V492.141ZM648.469 509.672C652.031 509.672 655.484 510.516 658.828 512.203C662.172 513.859 664.719 516.016 666.469 518.672C668.156 521.203 669.281 524.156 669.844 527.531C670.344 529.844 670.594 533.531 670.594 538.594H633.797C633.953 543.688 635.156 547.781 637.406 550.875C639.656 553.938 643.141 555.469 647.859 555.469C652.266 555.469 655.781 554.016 658.406 551.109C659.906 549.422 660.969 547.469 661.594 545.25H669.891C669.672 547.094 668.938 549.156 667.688 551.438C666.469 553.688 665.094 555.531 663.562 556.969C661 559.469 657.828 561.156 654.047 562.031C652.016 562.531 649.719 562.781 647.156 562.781C640.906 562.781 635.609 560.516 631.266 555.984C626.922 551.422 624.75 545.047 624.75 536.859C624.75 528.797 626.938 522.25 631.312 517.219C635.688 512.188 641.406 509.672 648.469 509.672ZM661.922 531.891C661.578 528.234 660.781 525.312 659.531 523.125C657.219 519.062 653.359 517.031 647.953 517.031C644.078 517.031 640.828 518.438 638.203 521.25C635.578 524.031 634.188 527.578 634.031 531.891H661.922ZM684.891 510.797L694.547 550.359L704.344 510.797H713.812L723.656 550.125L733.922 510.797H742.359L727.781 561H719.016L708.797 522.141L698.906 561H690.141L675.656 510.797H684.891ZM749.719 491.906H757.922V516.891C759.766 514.484 761.969 512.656 764.531 511.406C767.094 510.125 769.875 509.484 772.875 509.484C779.125 509.484 784.188 511.641 788.062 515.953C791.969 520.234 793.922 526.562 793.922 534.938C793.922 542.875 792 549.469 788.156 554.719C784.312 559.969 778.984 562.594 772.172 562.594C768.359 562.594 765.141 561.672 762.516 559.828C760.953 558.734 759.281 556.984 757.5 554.578V561H749.719V491.906ZM771.656 555.141C776.219 555.141 779.625 553.328 781.875 549.703C784.156 546.078 785.297 541.297 785.297 535.359C785.297 530.078 784.156 525.703 781.875 522.234C779.625 518.766 776.297 517.031 771.891 517.031C768.047 517.031 764.672 518.453 761.766 521.297C758.891 524.141 757.453 528.828 757.453 535.359C757.453 540.078 758.047 543.906 759.234 546.844C761.453 552.375 765.594 555.141 771.656 555.141ZM803.812 511.031H812.391V561H803.812V511.031ZM803.812 492.141H812.391V501.703H803.812V492.141ZM846.094 509.672C849.656 509.672 853.109 510.516 856.453 512.203C859.797 513.859 862.344 516.016 864.094 518.672C865.781 521.203 866.906 524.156 867.469 527.531C867.969 529.844 868.219 533.531 868.219 538.594H831.422C831.578 543.688 832.781 547.781 835.031 550.875C837.281 553.938 840.766 555.469 845.484 555.469C849.891 555.469 853.406 554.016 856.031 551.109C857.531 549.422 858.594 547.469 859.219 545.25H867.516C867.297 547.094 866.562 549.156 865.312 551.438C864.094 553.688 862.719 555.531 861.188 556.969C858.625 559.469 855.453 561.156 851.672 562.031C849.641 562.531 847.344 562.781 844.781 562.781C838.531 562.781 833.234 560.516 828.891 555.984C824.547 551.422 822.375 545.047 822.375 536.859C822.375 528.797 824.562 522.25 828.938 517.219C833.312 512.188 839.031 509.672 846.094 509.672ZM859.547 531.891C859.203 528.234 858.406 525.312 857.156 523.125C854.844 519.062 850.984 517.031 845.578 517.031C841.703 517.031 838.453 518.438 835.828 521.25C833.203 524.031 831.812 527.578 831.656 531.891H859.547ZM883.641 545.25C883.891 548.062 884.594 550.219 885.75 551.719C887.875 554.438 891.562 555.797 896.812 555.797C899.938 555.797 902.688 555.125 905.062 553.781C907.438 552.406 908.625 550.297 908.625 547.453C908.625 545.297 907.672 543.656 905.766 542.531C904.547 541.844 902.141 541.047 898.547 540.141L891.844 538.453C887.562 537.391 884.406 536.203 882.375 534.891C878.75 532.609 876.938 529.453 876.938 525.422C876.938 520.672 878.641 516.828 882.047 513.891C885.484 510.953 890.094 509.484 895.875 509.484C903.438 509.484 908.891 511.703 912.234 516.141C914.328 518.953 915.344 521.984 915.281 525.234H907.312C907.156 523.328 906.484 521.594 905.297 520.031C903.359 517.812 900 516.703 895.219 516.703C892.031 516.703 889.609 517.312 887.953 518.531C886.328 519.75 885.516 521.359 885.516 523.359C885.516 525.547 886.594 527.297 888.75 528.609C890 529.391 891.844 530.078 894.281 530.672L899.859 532.031C905.922 533.5 909.984 534.922 912.047 536.297C915.328 538.453 916.969 541.844 916.969 546.469C916.969 550.938 915.266 554.797 911.859 558.047C908.484 561.297 903.328 562.922 896.391 562.922C888.922 562.922 883.625 561.234 880.5 557.859C877.406 554.453 875.75 550.25 875.531 545.25H883.641Z" fill="black"/>
<path d="M123.328 963.266C132.047 963.266 138.812 965.562 143.625 970.156C148.438 974.75 151.109 979.969 151.641 985.812H142.547C141.516 981.375 139.453 977.859 136.359 975.266C133.297 972.672 128.984 971.375 123.422 971.375C116.641 971.375 111.156 973.766 106.969 978.547C102.812 983.297 100.734 990.594 100.734 1000.44C100.734 1008.5 102.609 1015.05 106.359 1020.08C110.141 1025.08 115.766 1027.58 123.234 1027.58C130.109 1027.58 135.344 1024.94 138.938 1019.66C140.844 1016.88 142.266 1013.22 143.203 1008.69H152.297C151.484 1015.94 148.797 1022.02 144.234 1026.92C138.766 1032.83 131.391 1035.78 122.109 1035.78C114.109 1035.78 107.391 1033.36 101.953 1028.52C94.7969 1022.11 91.2188 1012.22 91.2188 998.844C91.2188 988.688 93.9062 980.359 99.2812 973.859C105.094 966.797 113.109 963.266 123.328 963.266ZM162.562 964.906H171V990.594C173 988.062 174.797 986.281 176.391 985.25C179.109 983.469 182.5 982.578 186.562 982.578C193.844 982.578 198.781 985.125 201.375 990.219C202.781 993 203.484 996.859 203.484 1001.8V1034H194.812V1002.36C194.812 998.672 194.344 995.969 193.406 994.25C191.875 991.5 189 990.125 184.781 990.125C181.281 990.125 178.109 991.328 175.266 993.734C172.422 996.141 171 1000.69 171 1007.38V1034H162.562V964.906ZM236.906 982.672C240.469 982.672 243.922 983.516 247.266 985.203C250.609 986.859 253.156 989.016 254.906 991.672C256.594 994.203 257.719 997.156 258.281 1000.53C258.781 1002.84 259.031 1006.53 259.031 1011.59H222.234C222.391 1016.69 223.594 1020.78 225.844 1023.88C228.094 1026.94 231.578 1028.47 236.297 1028.47C240.703 1028.47 244.219 1027.02 246.844 1024.11C248.344 1022.42 249.406 1020.47 250.031 1018.25H258.328C258.109 1020.09 257.375 1022.16 256.125 1024.44C254.906 1026.69 253.531 1028.53 252 1029.97C249.438 1032.47 246.266 1034.16 242.484 1035.03C240.453 1035.53 238.156 1035.78 235.594 1035.78C229.344 1035.78 224.047 1033.52 219.703 1028.98C215.359 1024.42 213.188 1018.05 213.188 1009.86C213.188 1001.8 215.375 995.25 219.75 990.219C224.125 985.188 229.844 982.672 236.906 982.672ZM250.359 1004.89C250.016 1001.23 249.219 998.312 247.969 996.125C245.656 992.062 241.797 990.031 236.391 990.031C232.516 990.031 229.266 991.438 226.641 994.25C224.016 997.031 222.625 1000.58 222.469 1004.89H250.359ZM271.547 976.156C271.672 972.656 272.281 970.094 273.375 968.469C275.344 965.594 279.141 964.156 284.766 964.156C285.297 964.156 285.844 964.172 286.406 964.203C286.969 964.234 287.609 964.281 288.328 964.344V972.031C287.453 971.969 286.812 971.938 286.406 971.938C286.031 971.906 285.672 971.891 285.328 971.891C282.766 971.891 281.234 972.562 280.734 973.906C280.234 975.219 279.984 978.594 279.984 984.031H288.328V990.688H279.891V1034H271.547V990.688H264.562V984.031H271.547V976.156ZM293.953 1002.92H317.484V1011.59H293.953V1002.92ZM331.359 965.141H340.781V1034H331.359V965.141ZM354.844 983.797H362.859V990.922C365.234 987.984 367.75 985.875 370.406 984.594C373.062 983.312 376.016 982.672 379.266 982.672C386.391 982.672 391.203 985.156 393.703 990.125C395.078 992.844 395.766 996.734 395.766 1001.8V1034H387.188V1002.36C387.188 999.297 386.734 996.828 385.828 994.953C384.328 991.828 381.609 990.266 377.672 990.266C375.672 990.266 374.031 990.469 372.75 990.875C370.438 991.562 368.406 992.938 366.656 995C365.25 996.656 364.328 998.375 363.891 1000.16C363.484 1001.91 363.281 1004.42 363.281 1007.7V1034H354.844V983.797ZM406.078 1002.92H429.609V1011.59H406.078V1002.92ZM491.484 965.141V973.344H468.281V1034H458.812V973.344H435.609V965.141H491.484ZM495.609 983.797H503.625V992.469C504.281 990.781 505.891 988.734 508.453 986.328C511.016 983.891 513.969 982.672 517.312 982.672C517.469 982.672 517.734 982.688 518.109 982.719C518.484 982.75 519.125 982.812 520.031 982.906V991.812C519.531 991.719 519.062 991.656 518.625 991.625C518.219 991.594 517.766 991.578 517.266 991.578C513.016 991.578 509.75 992.953 507.469 995.703C505.188 998.422 504.047 1001.56 504.047 1005.12V1034H495.609V983.797ZM533.812 1020.64C533.812 1023.08 534.703 1025 536.484 1026.41C538.266 1027.81 540.375 1028.52 542.812 1028.52C545.781 1028.52 548.656 1027.83 551.438 1026.45C556.125 1024.17 558.469 1020.44 558.469 1015.25V1008.45C557.438 1009.11 556.109 1009.66 554.484 1010.09C552.859 1010.53 551.266 1010.84 549.703 1011.03L544.594 1011.69C541.531 1012.09 539.234 1012.73 537.703 1013.61C535.109 1015.08 533.812 1017.42 533.812 1020.64ZM554.25 1003.58C556.188 1003.33 557.484 1002.52 558.141 1001.14C558.516 1000.39 558.703 999.312 558.703 997.906C558.703 995.031 557.672 992.953 555.609 991.672C553.578 990.359 550.656 989.703 546.844 989.703C542.438 989.703 539.312 990.891 537.469 993.266C536.438 994.578 535.766 996.531 535.453 999.125H527.578C527.734 992.938 529.734 988.641 533.578 986.234C537.453 983.797 541.938 982.578 547.031 982.578C552.938 982.578 557.734 983.703 561.422 985.953C565.078 988.203 566.906 991.703 566.906 996.453V1025.38C566.906 1026.25 567.078 1026.95 567.422 1027.48C567.797 1028.02 568.562 1028.28 569.719 1028.28C570.094 1028.28 570.516 1028.27 570.984 1028.23C571.453 1028.17 571.953 1028.09 572.484 1028V1034.23C571.172 1034.61 570.172 1034.84 569.484 1034.94C568.797 1035.03 567.859 1035.08 566.672 1035.08C563.766 1035.08 561.656 1034.05 560.344 1031.98C559.656 1030.89 559.172 1029.34 558.891 1027.34C557.172 1029.59 554.703 1031.55 551.484 1033.2C548.266 1034.86 544.719 1035.69 540.844 1035.69C536.188 1035.69 532.375 1034.28 529.406 1031.47C526.469 1028.62 525 1025.08 525 1020.83C525 1016.17 526.453 1012.56 529.359 1010C532.266 1007.44 536.078 1005.86 540.797 1005.27L554.25 1003.58ZM580.781 984.031H589.359V1034H580.781V984.031ZM580.781 965.141H589.359V974.703H580.781V965.141ZM602.156 983.797H610.172V990.922C612.547 987.984 615.062 985.875 617.719 984.594C620.375 983.312 623.328 982.672 626.578 982.672C633.703 982.672 638.516 985.156 641.016 990.125C642.391 992.844 643.078 996.734 643.078 1001.8V1034H634.5V1002.36C634.5 999.297 634.047 996.828 633.141 994.953C631.641 991.828 628.922 990.266 624.984 990.266C622.984 990.266 621.344 990.469 620.062 990.875C617.75 991.562 615.719 992.938 613.969 995C612.562 996.656 611.641 998.375 611.203 1000.16C610.797 1001.91 610.594 1004.42 610.594 1007.7V1034H602.156V983.797ZM655.594 984.031H664.172V1034H655.594V984.031ZM655.594 965.141H664.172V974.703H655.594V965.141ZM676.969 983.797H684.984V990.922C687.359 987.984 689.875 985.875 692.531 984.594C695.188 983.312 698.141 982.672 701.391 982.672C708.516 982.672 713.328 985.156 715.828 990.125C717.203 992.844 717.891 996.734 717.891 1001.8V1034H709.312V1002.36C709.312 999.297 708.859 996.828 707.953 994.953C706.453 991.828 703.734 990.266 699.797 990.266C697.797 990.266 696.156 990.469 694.875 990.875C692.562 991.562 690.531 992.938 688.781 995C687.375 996.656 686.453 998.375 686.016 1000.16C685.609 1001.91 685.406 1004.42 685.406 1007.7V1034H676.969V983.797ZM748.125 982.906C752.062 982.906 755.5 983.875 758.438 985.812C760.031 986.906 761.656 988.5 763.312 990.594V984.266H771.094V1029.92C771.094 1036.3 770.156 1041.33 768.281 1045.02C764.781 1051.83 758.172 1055.23 748.453 1055.23C743.047 1055.23 738.5 1054.02 734.812 1051.58C731.125 1049.17 729.062 1045.39 728.625 1040.23H737.203C737.609 1042.48 738.422 1044.22 739.641 1045.44C741.547 1047.31 744.547 1048.25 748.641 1048.25C755.109 1048.25 759.344 1045.97 761.344 1041.41C762.531 1038.72 763.078 1033.92 762.984 1027.02C761.297 1029.58 759.266 1031.48 756.891 1032.73C754.516 1033.98 751.375 1034.61 747.469 1034.61C742.031 1034.61 737.266 1032.69 733.172 1028.84C729.109 1024.97 727.078 1018.58 727.078 1009.67C727.078 1001.27 729.125 994.703 733.219 989.984C737.344 985.266 742.312 982.906 748.125 982.906ZM763.312 1008.69C763.312 1002.47 762.031 997.859 759.469 994.859C756.906 991.859 753.641 990.359 749.672 990.359C743.734 990.359 739.672 993.141 737.484 998.703C736.328 1001.67 735.75 1005.56 735.75 1010.38C735.75 1016.03 736.891 1020.34 739.172 1023.31C741.484 1026.25 744.578 1027.72 748.453 1027.72C754.516 1027.72 758.781 1024.98 761.25 1019.52C762.625 1016.42 763.312 1012.81 763.312 1008.69Z" fill="black"/>
<path d="M301.305 2330V2341.04C298.07 2344.18 293.758 2349.64 288.367 2357.42C283.023 2365.2 278.289 2373.59 274.164 2382.59C270.086 2391.36 266.992 2399.35 264.883 2406.57C263.523 2411.21 261.766 2418.69 259.609 2429H245.617C248.805 2409.78 255.836 2390.66 266.711 2371.62C273.133 2360.47 279.883 2350.84 286.961 2342.73H231.273V2330H301.305ZM353.758 2393.35V2347.72L321.484 2393.35H353.758ZM353.969 2429V2404.39H309.812V2392.02L355.938 2328.03H366.625V2393.35H381.461V2404.39H366.625V2429H353.969ZM484.469 2380.06C491.219 2380.06 496.984 2382.45 501.766 2387.23C506.547 2392.02 508.938 2397.78 508.938 2404.53C508.938 2411.28 506.547 2417.05 501.766 2421.83C496.984 2426.61 491.219 2429 484.469 2429C477.672 2429 471.883 2426.61 467.102 2421.83C462.32 2417.05 459.93 2411.28 459.93 2404.53C459.93 2397.78 462.32 2392.02 467.102 2387.23C471.883 2382.45 477.672 2380.06 484.469 2380.06ZM474.273 2328.73H482.078L425.758 2431.67H417.953L474.273 2328.73ZM415.422 2370.36C419.453 2370.36 422.875 2368.95 425.688 2366.14C428.547 2363.28 429.977 2359.86 429.977 2355.88C429.977 2351.89 428.547 2348.49 425.688 2345.68C422.875 2342.82 419.453 2341.39 415.422 2341.39C411.438 2341.39 408.016 2342.8 405.156 2345.61C402.344 2348.42 400.938 2351.84 400.938 2355.88C400.938 2359.86 402.344 2363.28 405.156 2366.14C408.016 2368.95 411.438 2370.36 415.422 2370.36ZM415.422 2331.34C422.219 2331.34 428.008 2333.75 432.789 2338.58C437.57 2343.36 439.961 2349.12 439.961 2355.88C439.961 2362.62 437.57 2368.39 432.789 2373.17C428.008 2377.95 422.219 2380.34 415.422 2380.34C408.672 2380.34 402.906 2377.95 398.125 2373.17C393.344 2368.39 390.953 2362.62 390.953 2355.88C390.953 2349.12 393.344 2343.36 398.125 2338.58C402.906 2333.75 408.672 2331.34 415.422 2331.34ZM484.469 2419.02C488.453 2419.02 491.852 2417.61 494.664 2414.8C497.523 2411.94 498.953 2408.52 498.953 2404.53C498.953 2400.55 497.523 2397.15 494.664 2394.34C491.852 2391.48 488.453 2390.05 484.469 2390.05C480.438 2390.05 476.992 2391.48 474.133 2394.34C471.32 2397.15 469.914 2400.55 469.914 2404.53C469.914 2408.52 471.32 2411.94 474.133 2414.8C476.992 2417.61 480.438 2419.02 484.469 2419.02ZM568.633 2325.71H582.766V2429H568.633V2325.71ZM611.875 2392.23C611.875 2400.29 613.586 2407.04 617.008 2412.48C620.43 2417.91 625.914 2420.63 633.461 2420.63C639.32 2420.63 644.125 2418.12 647.875 2413.11C651.672 2408.05 653.57 2400.8 653.57 2391.38C653.57 2381.87 651.625 2374.84 647.734 2370.29C643.844 2365.7 639.039 2363.4 633.32 2363.4C626.945 2363.4 621.766 2365.84 617.781 2370.71C613.844 2375.59 611.875 2382.76 611.875 2392.23ZM630.93 2352.36C636.695 2352.36 641.523 2353.58 645.414 2356.02C647.664 2357.42 650.219 2359.88 653.078 2363.4V2325.36H665.242V2429H653.852V2418.52C650.898 2423.16 647.406 2426.52 643.375 2428.58C639.344 2430.64 634.727 2431.67 629.523 2431.67C621.133 2431.67 613.867 2428.16 607.727 2421.12C601.586 2414.05 598.516 2404.65 598.516 2392.93C598.516 2381.96 601.305 2372.47 606.883 2364.45C612.508 2356.39 620.523 2352.36 630.93 2352.36ZM715.375 2352.01C720.719 2352.01 725.898 2353.27 730.914 2355.8C735.93 2358.29 739.75 2361.52 742.375 2365.51C744.906 2369.3 746.594 2373.73 747.438 2378.8C748.188 2382.27 748.562 2387.8 748.562 2395.39H693.367C693.602 2403.03 695.406 2409.17 698.781 2413.81C702.156 2418.41 707.383 2420.7 714.461 2420.7C721.07 2420.7 726.344 2418.52 730.281 2414.16C732.531 2411.63 734.125 2408.7 735.062 2405.38H747.508C747.18 2408.14 746.078 2411.23 744.203 2414.66C742.375 2418.03 740.312 2420.8 738.016 2422.95C734.172 2426.7 729.414 2429.23 723.742 2430.55C720.695 2431.3 717.25 2431.67 713.406 2431.67C704.031 2431.67 696.086 2428.27 689.57 2421.48C683.055 2414.63 679.797 2405.07 679.797 2392.79C679.797 2380.7 683.078 2370.88 689.641 2363.33C696.203 2355.78 704.781 2352.01 715.375 2352.01ZM735.555 2385.34C735.039 2379.85 733.844 2375.47 731.969 2372.19C728.5 2366.09 722.711 2363.05 714.602 2363.05C708.789 2363.05 703.914 2365.16 699.977 2369.38C696.039 2373.55 693.953 2378.87 693.719 2385.34H735.555ZM764.172 2353.7H776.195V2364.38C779.758 2359.98 783.531 2356.81 787.516 2354.89C791.5 2352.97 795.93 2352.01 800.805 2352.01C811.492 2352.01 818.711 2355.73 822.461 2363.19C824.523 2367.27 825.555 2373.1 825.555 2380.7V2429H812.688V2381.54C812.688 2376.95 812.008 2373.24 810.648 2370.43C808.398 2365.74 804.32 2363.4 798.414 2363.4C795.414 2363.4 792.953 2363.7 791.031 2364.31C787.562 2365.34 784.516 2367.41 781.891 2370.5C779.781 2372.98 778.398 2375.56 777.742 2378.23C777.133 2380.86 776.828 2384.63 776.828 2389.55V2429H764.172V2353.7ZM846.859 2332.67H859.656V2353.7H871.68V2364.03H859.656V2413.18C859.656 2415.8 860.547 2417.56 862.328 2418.45C863.312 2418.97 864.953 2419.23 867.25 2419.23C867.859 2419.23 868.516 2419.23 869.219 2419.23C869.922 2419.18 870.742 2419.11 871.68 2419.02V2429C870.227 2429.42 868.703 2429.73 867.109 2429.91C865.562 2430.1 863.875 2430.2 862.047 2430.2C856.141 2430.2 852.133 2428.7 850.023 2425.7C847.914 2422.65 846.859 2418.71 846.859 2413.88V2364.03H836.664V2353.7H846.859V2332.67ZM884.406 2354.05H897.273V2429H884.406V2354.05ZM884.406 2325.71H897.273V2340.05H884.406V2325.71ZM919.633 2342.23C919.82 2336.98 920.734 2333.14 922.375 2330.7C925.328 2326.39 931.023 2324.23 939.461 2324.23C940.258 2324.23 941.078 2324.26 941.922 2324.3C942.766 2324.35 943.727 2324.42 944.805 2324.52V2336.05C943.492 2335.95 942.531 2335.91 941.922 2335.91C941.359 2335.86 940.82 2335.84 940.305 2335.84C936.461 2335.84 934.164 2336.84 933.414 2338.86C932.664 2340.83 932.289 2345.89 932.289 2354.05H944.805V2364.03H932.148V2429H919.633V2364.03H909.156V2354.05H919.633V2342.23ZM1003.59 2353.7H1017.58C1015.8 2358.52 1011.84 2369.54 1005.7 2386.74C1001.1 2399.68 997.258 2410.23 994.164 2418.38C986.852 2437.6 981.695 2449.32 978.695 2453.54C975.695 2457.76 970.539 2459.87 963.227 2459.87C961.445 2459.87 960.062 2459.8 959.078 2459.66C958.141 2459.52 956.969 2459.26 955.562 2458.88V2447.35C957.766 2447.96 959.359 2448.34 960.344 2448.48C961.328 2448.62 962.195 2448.69 962.945 2448.69C965.289 2448.69 967 2448.29 968.078 2447.49C969.203 2446.74 970.141 2445.8 970.891 2444.68C971.125 2444.3 971.969 2442.38 973.422 2438.91C974.875 2435.45 975.93 2432.87 976.586 2431.18L948.742 2353.7H963.086L983.266 2415.01L1003.59 2353.7ZM1078.33 2408.96C1078.33 2412.62 1079.66 2415.5 1082.34 2417.61C1085.01 2419.72 1088.17 2420.77 1091.83 2420.77C1096.28 2420.77 1100.59 2419.74 1104.77 2417.68C1111.8 2414.26 1115.31 2408.66 1115.31 2400.88V2390.68C1113.77 2391.66 1111.77 2392.48 1109.34 2393.14C1106.9 2393.8 1104.51 2394.27 1102.16 2394.55L1094.5 2395.53C1089.91 2396.14 1086.46 2397.1 1084.16 2398.41C1080.27 2400.62 1078.33 2404.13 1078.33 2408.96ZM1108.98 2383.37C1111.89 2382.99 1113.84 2381.77 1114.82 2379.71C1115.38 2378.59 1115.66 2376.97 1115.66 2374.86C1115.66 2370.55 1114.12 2367.43 1111.02 2365.51C1107.98 2363.54 1103.59 2362.55 1097.88 2362.55C1091.27 2362.55 1086.58 2364.34 1083.81 2367.9C1082.27 2369.87 1081.26 2372.8 1080.79 2376.69H1068.98C1069.21 2367.41 1072.21 2360.96 1077.98 2357.35C1083.79 2353.7 1090.52 2351.87 1098.16 2351.87C1107.02 2351.87 1114.21 2353.55 1119.74 2356.93C1125.23 2360.3 1127.97 2365.55 1127.97 2372.68V2416.06C1127.97 2417.38 1128.23 2418.43 1128.74 2419.23C1129.3 2420.02 1130.45 2420.42 1132.19 2420.42C1132.75 2420.42 1133.38 2420.4 1134.09 2420.35C1134.79 2420.26 1135.54 2420.14 1136.34 2420V2429.35C1134.37 2429.91 1132.87 2430.27 1131.84 2430.41C1130.8 2430.55 1129.4 2430.62 1127.62 2430.62C1123.26 2430.62 1120.09 2429.07 1118.12 2425.98C1117.09 2424.34 1116.37 2422.02 1115.95 2419.02C1113.37 2422.39 1109.66 2425.32 1104.84 2427.8C1100.01 2430.29 1094.69 2431.53 1088.88 2431.53C1081.89 2431.53 1076.17 2429.42 1071.72 2425.2C1067.31 2420.94 1065.11 2415.62 1065.11 2409.24C1065.11 2402.26 1067.29 2396.84 1071.65 2393C1076.01 2389.16 1081.73 2386.79 1088.8 2385.9L1108.98 2383.37ZM1156.3 2405.38C1156.68 2409.59 1157.73 2412.83 1159.47 2415.08C1162.66 2419.16 1168.19 2421.2 1176.06 2421.2C1180.75 2421.2 1184.88 2420.19 1188.44 2418.17C1192 2416.11 1193.78 2412.95 1193.78 2408.68C1193.78 2405.45 1192.35 2402.98 1189.49 2401.3C1187.66 2400.27 1184.05 2399.07 1178.66 2397.71L1168.61 2395.18C1162.19 2393.59 1157.45 2391.8 1154.41 2389.84C1148.97 2386.41 1146.25 2381.68 1146.25 2375.63C1146.25 2368.51 1148.8 2362.74 1153.91 2358.34C1159.07 2353.93 1165.98 2351.73 1174.66 2351.73C1186 2351.73 1194.18 2355.05 1199.2 2361.71C1202.34 2365.93 1203.86 2370.48 1203.77 2375.35H1191.81C1191.58 2372.49 1190.57 2369.89 1188.79 2367.55C1185.88 2364.22 1180.84 2362.55 1173.67 2362.55C1168.89 2362.55 1165.26 2363.47 1162.77 2365.3C1160.34 2367.12 1159.12 2369.54 1159.12 2372.54C1159.12 2375.82 1160.73 2378.45 1163.97 2380.41C1165.84 2381.59 1168.61 2382.62 1172.27 2383.51L1180.63 2385.55C1189.73 2387.75 1195.82 2389.88 1198.91 2391.95C1203.84 2395.18 1206.3 2400.27 1206.3 2407.2C1206.3 2413.91 1203.74 2419.7 1198.63 2424.57C1193.57 2429.45 1185.84 2431.88 1175.43 2431.88C1164.23 2431.88 1156.28 2429.35 1151.59 2424.29C1146.95 2419.18 1144.47 2412.88 1144.14 2405.38H1156.3ZM1272.04 2331.34C1268.8 2331.95 1266.53 2334.29 1265.22 2338.37C1264.56 2340.38 1264.23 2342.38 1264.23 2344.34C1264.23 2344.58 1264.23 2344.79 1264.23 2344.98C1264.28 2345.12 1264.33 2345.47 1264.38 2346.03H1272.04V2361.36H1257.06V2347.23C1257.06 2340.29 1258.45 2334.95 1261.21 2331.2C1263.98 2327.45 1267.59 2325.29 1272.04 2324.73V2331.34ZM1295.73 2331.34C1293.16 2331.76 1291.19 2333.21 1289.83 2335.7C1288.52 2338.18 1287.86 2341.04 1287.86 2344.27C1287.86 2344.55 1287.86 2344.84 1287.86 2345.12C1287.91 2345.4 1287.98 2345.7 1288.07 2346.03H1295.73V2361.36H1280.69V2347.23C1280.69 2341.65 1281.86 2336.68 1284.2 2332.32C1286.55 2327.91 1290.39 2325.38 1295.73 2324.73V2331.34ZM1310.85 2325.71H1324.98V2368.39H1378.7V2325.71H1392.84V2429H1378.7V2380.7H1324.98V2429H1310.85V2325.71ZM1442.76 2420.84C1451.15 2420.84 1456.89 2417.68 1459.98 2411.35C1463.12 2404.98 1464.7 2397.9 1464.7 2390.12C1464.7 2383.09 1463.57 2377.37 1461.32 2372.96C1457.76 2366.02 1451.62 2362.55 1442.9 2362.55C1435.16 2362.55 1429.54 2365.51 1426.02 2371.41C1422.51 2377.32 1420.75 2384.45 1420.75 2392.79C1420.75 2400.8 1422.51 2407.48 1426.02 2412.83C1429.54 2418.17 1435.12 2420.84 1442.76 2420.84ZM1443.25 2351.52C1452.95 2351.52 1461.16 2354.75 1467.86 2361.22C1474.56 2367.69 1477.91 2377.2 1477.91 2389.77C1477.91 2401.91 1474.96 2411.94 1469.05 2419.86C1463.15 2427.78 1453.98 2431.74 1441.56 2431.74C1431.2 2431.74 1422.98 2428.25 1416.88 2421.27C1410.79 2414.23 1407.74 2404.81 1407.74 2393C1407.74 2380.34 1410.95 2370.27 1417.38 2362.77C1423.8 2355.27 1432.42 2351.52 1443.25 2351.52ZM1493.03 2353.7H1505.55V2364.38C1508.55 2360.68 1511.27 2357.98 1513.7 2356.3C1517.88 2353.44 1522.61 2352.01 1527.91 2352.01C1533.91 2352.01 1538.73 2353.48 1542.39 2356.44C1544.45 2358.12 1546.33 2360.61 1548.02 2363.89C1550.83 2359.86 1554.13 2356.88 1557.93 2354.96C1561.73 2352.99 1565.99 2352.01 1570.73 2352.01C1580.85 2352.01 1587.74 2355.66 1591.4 2362.98C1593.37 2366.91 1594.35 2372.21 1594.35 2378.87V2429H1581.2V2376.69C1581.2 2371.67 1579.94 2368.23 1577.41 2366.35C1574.92 2364.48 1571.88 2363.54 1568.27 2363.54C1563.3 2363.54 1559.01 2365.2 1555.4 2368.53C1551.84 2371.86 1550.05 2377.41 1550.05 2385.2V2429H1537.19V2379.85C1537.19 2374.74 1536.58 2371.02 1535.36 2368.67C1533.44 2365.16 1529.85 2363.4 1524.6 2363.4C1519.82 2363.4 1515.46 2365.25 1511.52 2368.95C1507.63 2372.66 1505.69 2379.36 1505.69 2389.06V2429H1493.03V2353.7ZM1644.34 2352.01C1649.69 2352.01 1654.87 2353.27 1659.88 2355.8C1664.9 2358.29 1668.72 2361.52 1671.34 2365.51C1673.88 2369.3 1675.56 2373.73 1676.41 2378.8C1677.16 2382.27 1677.53 2387.8 1677.53 2395.39H1622.34C1622.57 2403.03 1624.38 2409.17 1627.75 2413.81C1631.12 2418.41 1636.35 2420.7 1643.43 2420.7C1650.04 2420.7 1655.31 2418.52 1659.25 2414.16C1661.5 2411.63 1663.09 2408.7 1664.03 2405.38H1676.48C1676.15 2408.14 1675.05 2411.23 1673.17 2414.66C1671.34 2418.03 1669.28 2420.8 1666.98 2422.95C1663.14 2426.7 1658.38 2429.23 1652.71 2430.55C1649.66 2431.3 1646.22 2431.67 1642.38 2431.67C1633 2431.67 1625.05 2428.27 1618.54 2421.48C1612.02 2414.63 1608.77 2405.07 1608.77 2392.79C1608.77 2380.7 1612.05 2370.88 1618.61 2363.33C1625.17 2355.78 1633.75 2352.01 1644.34 2352.01ZM1664.52 2385.34C1664.01 2379.85 1662.81 2375.47 1660.94 2372.19C1657.47 2366.09 1651.68 2363.05 1643.57 2363.05C1637.76 2363.05 1632.88 2365.16 1628.95 2369.38C1625.01 2373.55 1622.92 2378.87 1622.69 2385.34H1664.52ZM1778.43 2322.9C1791.51 2322.9 1801.66 2326.34 1808.88 2333.23C1816.09 2340.12 1820.1 2347.95 1820.9 2356.72H1807.26C1805.71 2350.06 1802.62 2344.79 1797.98 2340.9C1793.38 2337.01 1786.91 2335.06 1778.57 2335.06C1768.4 2335.06 1760.17 2338.65 1753.89 2345.82C1747.66 2352.95 1744.54 2363.89 1744.54 2378.66C1744.54 2390.75 1747.35 2400.57 1752.98 2408.12C1758.65 2415.62 1767.09 2419.37 1778.29 2419.37C1788.6 2419.37 1796.45 2415.41 1801.84 2407.48C1804.7 2403.31 1806.84 2397.83 1808.24 2391.03H1821.88C1820.66 2401.91 1816.63 2411.02 1809.79 2418.38C1801.59 2427.24 1790.52 2431.67 1776.6 2431.67C1764.6 2431.67 1754.52 2428.04 1746.37 2420.77C1735.63 2411.16 1730.27 2396.33 1730.27 2376.27C1730.27 2361.03 1734.3 2348.54 1742.36 2338.79C1751.08 2328.2 1763.1 2322.9 1778.43 2322.9ZM1837.28 2325.36H1849.94V2363.89C1852.94 2360.09 1855.63 2357.42 1858.02 2355.88C1862.1 2353.2 1867.19 2351.87 1873.28 2351.87C1884.2 2351.87 1891.61 2355.69 1895.5 2363.33C1897.61 2367.5 1898.66 2373.29 1898.66 2380.7V2429H1885.66V2381.54C1885.66 2376.01 1884.95 2371.95 1883.55 2369.38C1881.25 2365.25 1876.94 2363.19 1870.61 2363.19C1865.36 2363.19 1860.6 2364.99 1856.34 2368.6C1852.07 2372.21 1849.94 2379.03 1849.94 2389.06V2429H1837.28V2325.36ZM1948.8 2352.01C1954.14 2352.01 1959.32 2353.27 1964.34 2355.8C1969.35 2358.29 1973.17 2361.52 1975.8 2365.51C1978.33 2369.3 1980.02 2373.73 1980.86 2378.8C1981.61 2382.27 1981.98 2387.8 1981.98 2395.39H1926.79C1927.02 2403.03 1928.83 2409.17 1932.2 2413.81C1935.58 2418.41 1940.8 2420.7 1947.88 2420.7C1954.49 2420.7 1959.77 2418.52 1963.7 2414.16C1965.95 2411.63 1967.55 2408.7 1968.48 2405.38H1980.93C1980.6 2408.14 1979.5 2411.23 1977.62 2414.66C1975.8 2418.03 1973.73 2420.8 1971.44 2422.95C1967.59 2426.7 1962.84 2429.23 1957.16 2430.55C1954.12 2431.3 1950.67 2431.67 1946.83 2431.67C1937.45 2431.67 1929.51 2428.27 1922.99 2421.48C1916.48 2414.63 1913.22 2405.07 1913.22 2392.79C1913.22 2380.7 1916.5 2370.88 1923.06 2363.33C1929.62 2355.78 1938.2 2352.01 1948.8 2352.01ZM1968.98 2385.34C1968.46 2379.85 1967.27 2375.47 1965.39 2372.19C1961.92 2366.09 1956.13 2363.05 1948.02 2363.05C1942.21 2363.05 1937.34 2365.16 1933.4 2369.38C1929.46 2373.55 1927.38 2378.87 1927.14 2385.34H1968.98ZM2000.76 2342.23C2000.95 2336.98 2001.86 2333.14 2003.5 2330.7C2006.45 2326.39 2012.15 2324.23 2020.59 2324.23C2021.38 2324.23 2022.2 2324.26 2023.05 2324.3C2023.89 2324.35 2024.85 2324.42 2025.93 2324.52V2336.05C2024.62 2335.95 2023.66 2335.91 2023.05 2335.91C2022.48 2335.86 2021.95 2335.84 2021.43 2335.84C2017.59 2335.84 2015.29 2336.84 2014.54 2338.86C2013.79 2340.83 2013.41 2345.89 2013.41 2354.05H2025.93V2364.03H2013.27V2429H2000.76V2364.03H1990.28V2354.05H2000.76V2342.23ZM2045.2 2405.38C2045.57 2409.59 2046.62 2412.83 2048.36 2415.08C2051.55 2419.16 2057.08 2421.2 2064.95 2421.2C2069.64 2421.2 2073.77 2420.19 2077.33 2418.17C2080.89 2416.11 2082.67 2412.95 2082.67 2408.68C2082.67 2405.45 2081.24 2402.98 2078.38 2401.3C2076.55 2400.27 2072.95 2399.07 2067.55 2397.71L2057.5 2395.18C2051.08 2393.59 2046.34 2391.8 2043.3 2389.84C2037.86 2386.41 2035.14 2381.68 2035.14 2375.63C2035.14 2368.51 2037.7 2362.74 2042.8 2358.34C2047.96 2353.93 2054.88 2351.73 2063.55 2351.73C2074.89 2351.73 2083.07 2355.05 2088.09 2361.71C2091.23 2365.93 2092.75 2370.48 2092.66 2375.35H2080.7C2080.47 2372.49 2079.46 2369.89 2077.68 2367.55C2074.77 2364.22 2069.73 2362.55 2062.56 2362.55C2057.78 2362.55 2054.15 2363.47 2051.66 2365.3C2049.23 2367.12 2048.01 2369.54 2048.01 2372.54C2048.01 2375.82 2049.62 2378.45 2052.86 2380.41C2054.73 2381.59 2057.5 2382.62 2061.16 2383.51L2069.52 2385.55C2078.62 2387.75 2084.71 2389.88 2087.8 2391.95C2092.73 2395.18 2095.19 2400.27 2095.19 2407.2C2095.19 2413.91 2092.63 2419.7 2087.52 2424.57C2082.46 2429.45 2074.73 2431.88 2064.32 2431.88C2053.12 2431.88 2045.17 2429.35 2040.48 2424.29C2035.84 2419.18 2033.36 2412.88 2033.03 2405.38H2045.2ZM2129.5 2355.73C2133.02 2355.08 2135.34 2352.5 2136.46 2348C2137.12 2345.33 2137.35 2343.01 2137.16 2341.04H2129.5V2325.71H2144.55V2339.84C2144.55 2345.42 2143.4 2350.41 2141.1 2354.82C2138.8 2359.18 2134.94 2361.69 2129.5 2362.34V2355.73ZM2105.88 2355.73C2109.39 2355.08 2111.73 2352.5 2112.91 2348C2113.56 2345.33 2113.77 2343.01 2113.54 2341.04H2105.88V2325.71H2120.85V2339.84C2120.85 2345.42 2119.7 2350.39 2117.41 2354.75C2115.11 2359.06 2111.27 2361.59 2105.88 2362.34V2355.73Z" fill="black"/>
</svg>
