<svg width="2381" height="2644" viewBox="0 0 2381 2644" fill="none" xmlns="http://www.w3.org/2000/svg">
<path d="M1183.04 1183V1C1835.84 1 2365.04 530.199 2365.04 1183C2365.04 1835.8 1835.84 2365 1183.04 2365C910.531 2365 646.395 2270.84 435.339 2098.46L1183.04 1183Z" fill="#E5C646" stroke="white"/>
<path d="M1183.04 1183L435.338 2098.46C-70.2578 1685.52 -145.369 940.898 267.574 435.302C492.059 160.448 828.158 1 1183.04 1V1183Z" fill="#F9F5E5" stroke="white"/>
<path d="M276.117 2509.89C287.367 2509.89 295.195 2512.82 299.602 2518.68C304.055 2524.49 306.281 2530.49 306.281 2536.68H293.766C293.016 2532.7 291.82 2529.58 290.18 2527.33C287.133 2523.11 282.516 2521 276.328 2521C269.25 2521 263.625 2524.28 259.453 2530.84C255.281 2537.36 252.961 2546.71 252.492 2558.9C255.398 2554.63 259.055 2551.45 263.461 2549.34C267.492 2547.46 271.992 2546.52 276.961 2546.52C285.398 2546.52 292.758 2549.22 299.039 2554.61C305.32 2560 308.461 2568.04 308.461 2578.73C308.461 2587.87 305.484 2595.98 299.531 2603.05C293.578 2610.09 285.094 2613.6 274.078 2613.6C264.656 2613.6 256.523 2610.04 249.68 2602.91C242.836 2595.74 239.414 2583.7 239.414 2566.77C239.414 2554.26 240.938 2543.64 243.984 2534.92C249.844 2518.23 260.555 2509.89 276.117 2509.89ZM275.203 2602.35C281.859 2602.35 286.828 2600.12 290.109 2595.67C293.438 2591.17 295.102 2585.88 295.102 2579.78C295.102 2574.62 293.625 2569.73 290.672 2565.09C287.719 2560.4 282.352 2558.05 274.57 2558.05C269.133 2558.05 264.352 2559.86 260.227 2563.47C256.148 2567.08 254.109 2572.52 254.109 2579.78C254.109 2586.16 255.961 2591.52 259.664 2595.88C263.414 2600.2 268.594 2602.35 275.203 2602.35ZM327.938 2539.7V2530C337.078 2529.11 343.453 2527.63 347.062 2525.57C350.672 2523.46 353.367 2518.52 355.148 2510.73H365.133V2611H351.633V2539.7H327.938ZM492.469 2562.06C499.219 2562.06 504.984 2564.45 509.766 2569.23C514.547 2574.02 516.938 2579.78 516.938 2586.53C516.938 2593.28 514.547 2599.05 509.766 2603.83C504.984 2608.61 499.219 2611 492.469 2611C485.672 2611 479.883 2608.61 475.102 2603.83C470.32 2599.05 467.93 2593.28 467.93 2586.53C467.93 2579.78 470.32 2574.02 475.102 2569.23C479.883 2564.45 485.672 2562.06 492.469 2562.06ZM482.273 2510.73H490.078L433.758 2613.67H425.953L482.273 2510.73ZM423.422 2552.36C427.453 2552.36 430.875 2550.95 433.688 2548.14C436.547 2545.28 437.977 2541.86 437.977 2537.88C437.977 2533.89 436.547 2530.49 433.688 2527.68C430.875 2524.82 427.453 2523.39 423.422 2523.39C419.438 2523.39 416.016 2524.8 413.156 2527.61C410.344 2530.42 408.938 2533.84 408.938 2537.88C408.938 2541.86 410.344 2545.28 413.156 2548.14C416.016 2550.95 419.438 2552.36 423.422 2552.36ZM423.422 2513.34C430.219 2513.34 436.008 2515.75 440.789 2520.58C445.57 2525.36 447.961 2531.12 447.961 2537.88C447.961 2544.62 445.57 2550.39 440.789 2555.17C436.008 2559.95 430.219 2562.34 423.422 2562.34C416.672 2562.34 410.906 2559.95 406.125 2555.17C401.344 2550.39 398.953 2544.62 398.953 2537.88C398.953 2531.12 401.344 2525.36 406.125 2520.58C410.906 2515.75 416.672 2513.34 423.422 2513.34ZM492.469 2601.02C496.453 2601.02 499.852 2599.61 502.664 2596.8C505.523 2593.94 506.953 2590.52 506.953 2586.53C506.953 2582.55 505.523 2579.15 502.664 2576.34C499.852 2573.48 496.453 2572.05 492.469 2572.05C488.438 2572.05 484.992 2573.48 482.133 2576.34C479.32 2579.15 477.914 2582.55 477.914 2586.53C477.914 2590.52 479.32 2593.94 482.133 2596.8C484.992 2599.61 488.438 2601.02 492.469 2601.02ZM573.82 2507.71H587.953V2550.39H641.672V2507.71H655.805V2611H641.672V2562.7H587.953V2611H573.82V2507.71ZM685.547 2590.96C685.547 2594.62 686.883 2597.5 689.555 2599.61C692.227 2601.72 695.391 2602.77 699.047 2602.77C703.5 2602.77 707.812 2601.74 711.984 2599.68C719.016 2596.26 722.531 2590.66 722.531 2582.88V2572.68C720.984 2573.66 718.992 2574.48 716.555 2575.14C714.117 2575.8 711.727 2576.27 709.383 2576.55L701.719 2577.53C697.125 2578.14 693.68 2579.1 691.383 2580.41C687.492 2582.62 685.547 2586.13 685.547 2590.96ZM716.203 2565.37C719.109 2564.99 721.055 2563.77 722.039 2561.71C722.602 2560.59 722.883 2558.97 722.883 2556.86C722.883 2552.55 721.336 2549.43 718.242 2547.51C715.195 2545.54 710.812 2544.55 705.094 2544.55C698.484 2544.55 693.797 2546.34 691.031 2549.9C689.484 2551.87 688.477 2554.8 688.008 2558.69H676.195C676.43 2549.41 679.43 2542.96 685.195 2539.35C691.008 2535.7 697.734 2533.87 705.375 2533.87C714.234 2533.87 721.43 2535.55 726.961 2538.93C732.445 2542.3 735.188 2547.55 735.188 2554.68V2598.06C735.188 2599.38 735.445 2600.43 735.961 2601.23C736.523 2602.02 737.672 2602.42 739.406 2602.42C739.969 2602.42 740.602 2602.4 741.305 2602.35C742.008 2602.26 742.758 2602.14 743.555 2602V2611.35C741.586 2611.91 740.086 2612.27 739.055 2612.41C738.023 2612.55 736.617 2612.62 734.836 2612.62C730.477 2612.62 727.312 2611.07 725.344 2607.98C724.312 2606.34 723.586 2604.02 723.164 2601.02C720.586 2604.39 716.883 2607.32 712.055 2609.8C707.227 2612.29 701.906 2613.53 696.094 2613.53C689.109 2613.53 683.391 2611.42 678.938 2607.2C674.531 2602.94 672.328 2597.62 672.328 2591.24C672.328 2584.26 674.508 2578.84 678.867 2575C683.227 2571.16 688.945 2568.79 696.023 2567.9L716.203 2565.37ZM762.188 2535.7L782.297 2597.01L803.32 2535.7H817.172L788.766 2611H775.266L747.492 2535.7H762.188ZM859.359 2534.01C864.703 2534.01 869.883 2535.27 874.898 2537.8C879.914 2540.29 883.734 2543.52 886.359 2547.51C888.891 2551.3 890.578 2555.73 891.422 2560.8C892.172 2564.27 892.547 2569.8 892.547 2577.39H837.352C837.586 2585.03 839.391 2591.17 842.766 2595.81C846.141 2600.41 851.367 2602.7 858.445 2602.7C865.055 2602.7 870.328 2600.52 874.266 2596.16C876.516 2593.63 878.109 2590.7 879.047 2587.38H891.492C891.164 2590.14 890.062 2593.23 888.188 2596.66C886.359 2600.03 884.297 2602.8 882 2604.95C878.156 2608.7 873.398 2611.23 867.727 2612.55C864.68 2613.3 861.234 2613.67 857.391 2613.67C848.016 2613.67 840.07 2610.27 833.555 2603.48C827.039 2596.63 823.781 2587.07 823.781 2574.79C823.781 2562.7 827.062 2552.88 833.625 2545.33C840.188 2537.78 848.766 2534.01 859.359 2534.01ZM879.539 2567.34C879.023 2561.85 877.828 2557.47 875.953 2554.19C872.484 2548.09 866.695 2545.05 858.586 2545.05C852.773 2545.05 847.898 2547.16 843.961 2551.38C840.023 2555.55 837.938 2560.87 837.703 2567.34H879.539ZM959.062 2577.67C959.391 2583.53 960.773 2588.29 963.211 2591.95C967.852 2598.79 976.031 2602.21 987.75 2602.21C993 2602.21 997.781 2601.46 1002.09 2599.96C1010.44 2597.05 1014.61 2591.85 1014.61 2584.35C1014.61 2578.73 1012.85 2574.72 1009.34 2572.33C1005.77 2569.98 1000.2 2567.95 992.602 2566.21L978.609 2563.05C969.469 2560.98 963 2558.71 959.203 2556.23C952.641 2551.91 949.359 2545.47 949.359 2536.89C949.359 2527.61 952.57 2519.99 958.992 2514.04C965.414 2508.09 974.508 2505.11 986.273 2505.11C997.102 2505.11 1006.29 2507.73 1013.84 2512.98C1021.43 2518.19 1025.23 2526.53 1025.23 2538.02H1012.08C1011.38 2532.48 1009.88 2528.24 1007.58 2525.29C1003.31 2519.9 996.07 2517.2 985.852 2517.2C977.602 2517.2 971.672 2518.94 968.062 2522.41C964.453 2525.88 962.648 2529.91 962.648 2534.5C962.648 2539.56 964.758 2543.27 968.977 2545.61C971.742 2547.11 978 2548.98 987.75 2551.23L1002.23 2554.54C1009.22 2556.13 1014.61 2558.31 1018.41 2561.08C1024.97 2565.91 1028.25 2572.91 1028.25 2582.1C1028.25 2593.54 1024.08 2601.72 1015.73 2606.64C1007.44 2611.56 997.781 2614.02 986.766 2614.02C973.922 2614.02 963.867 2610.74 956.602 2604.18C949.336 2597.66 945.773 2588.83 945.914 2577.67H959.062ZM1075.64 2534.01C1080.98 2534.01 1086.16 2535.27 1091.18 2537.8C1096.2 2540.29 1100.02 2543.52 1102.64 2547.51C1105.17 2551.3 1106.86 2555.73 1107.7 2560.8C1108.45 2564.27 1108.83 2569.8 1108.83 2577.39H1053.63C1053.87 2585.03 1055.67 2591.17 1059.05 2595.81C1062.42 2600.41 1067.65 2602.7 1074.73 2602.7C1081.34 2602.7 1086.61 2600.52 1090.55 2596.16C1092.8 2593.63 1094.39 2590.7 1095.33 2587.38H1107.77C1107.45 2590.14 1106.34 2593.23 1104.47 2596.66C1102.64 2600.03 1100.58 2602.8 1098.28 2604.95C1094.44 2608.7 1089.68 2611.23 1084.01 2612.55C1080.96 2613.3 1077.52 2613.67 1073.67 2613.67C1064.3 2613.67 1056.35 2610.27 1049.84 2603.48C1043.32 2596.63 1040.06 2587.07 1040.06 2574.79C1040.06 2562.7 1043.34 2552.88 1049.91 2545.33C1056.47 2537.78 1065.05 2534.01 1075.64 2534.01ZM1095.82 2567.34C1095.3 2561.85 1094.11 2557.47 1092.23 2554.19C1088.77 2548.09 1082.98 2545.05 1074.87 2545.05C1069.05 2545.05 1064.18 2547.16 1060.24 2551.38C1056.3 2555.55 1054.22 2560.87 1053.98 2567.34H1095.82ZM1153.48 2533.52C1161.96 2533.52 1168.85 2535.58 1174.15 2539.7C1179.49 2543.83 1182.7 2550.93 1183.78 2561.01H1171.48C1170.73 2556.37 1169.02 2552.52 1166.34 2549.48C1163.67 2546.38 1159.38 2544.84 1153.48 2544.84C1145.41 2544.84 1139.65 2548.77 1136.18 2556.65C1133.93 2561.76 1132.8 2568.06 1132.8 2575.56C1132.8 2583.11 1134.4 2589.46 1137.59 2594.62C1140.77 2599.77 1145.79 2602.35 1152.63 2602.35C1157.88 2602.35 1162.03 2600.76 1165.08 2597.57C1168.17 2594.34 1170.3 2589.93 1171.48 2584.35H1183.78C1182.38 2594.34 1178.86 2601.65 1173.23 2606.29C1167.61 2610.88 1160.41 2613.18 1151.65 2613.18C1141.8 2613.18 1133.95 2609.59 1128.09 2602.42C1122.23 2595.2 1119.3 2586.2 1119.3 2575.42C1119.3 2562.2 1122.52 2551.91 1128.94 2544.55C1135.36 2537.2 1143.54 2533.52 1153.48 2533.52ZM1196.79 2535.7H1208.81V2548.7C1209.8 2546.17 1212.21 2543.1 1216.05 2539.49C1219.9 2535.84 1224.33 2534.01 1229.34 2534.01C1229.58 2534.01 1229.98 2534.03 1230.54 2534.08C1231.1 2534.12 1232.06 2534.22 1233.42 2534.36V2547.72C1232.67 2547.58 1231.97 2547.48 1231.31 2547.44C1230.7 2547.39 1230.02 2547.37 1229.27 2547.37C1222.9 2547.37 1218 2549.43 1214.58 2553.55C1211.16 2557.63 1209.45 2562.34 1209.45 2567.69V2611H1196.79V2535.7ZM1275.75 2534.01C1281.09 2534.01 1286.27 2535.27 1291.29 2537.8C1296.3 2540.29 1300.12 2543.52 1302.75 2547.51C1305.28 2551.3 1306.97 2555.73 1307.81 2560.8C1308.56 2564.27 1308.94 2569.8 1308.94 2577.39H1253.74C1253.98 2585.03 1255.78 2591.17 1259.16 2595.81C1262.53 2600.41 1267.76 2602.7 1274.84 2602.7C1281.45 2602.7 1286.72 2600.52 1290.66 2596.16C1292.91 2593.63 1294.5 2590.7 1295.44 2587.38H1307.88C1307.55 2590.14 1306.45 2593.23 1304.58 2596.66C1302.75 2600.03 1300.69 2602.8 1298.39 2604.95C1294.55 2608.7 1289.79 2611.23 1284.12 2612.55C1281.07 2613.3 1277.62 2613.67 1273.78 2613.67C1264.41 2613.67 1256.46 2610.27 1249.95 2603.48C1243.43 2596.63 1240.17 2587.07 1240.17 2574.79C1240.17 2562.7 1243.45 2552.88 1250.02 2545.33C1256.58 2537.78 1265.16 2534.01 1275.75 2534.01ZM1295.93 2567.34C1295.41 2561.85 1294.22 2557.47 1292.34 2554.19C1288.88 2548.09 1283.09 2545.05 1274.98 2545.05C1269.16 2545.05 1264.29 2547.16 1260.35 2551.38C1256.41 2555.55 1254.33 2560.87 1254.09 2567.34H1295.93ZM1327.08 2514.67H1339.88V2535.7H1351.9V2546.03H1339.88V2595.18C1339.88 2597.8 1340.77 2599.56 1342.55 2600.45C1343.53 2600.97 1345.17 2601.23 1347.47 2601.23C1348.08 2601.23 1348.73 2601.23 1349.44 2601.23C1350.14 2601.18 1350.96 2601.11 1351.9 2601.02V2611C1350.45 2611.42 1348.92 2611.73 1347.33 2611.91C1345.78 2612.1 1344.09 2612.2 1342.27 2612.2C1336.36 2612.2 1332.35 2610.7 1330.24 2607.7C1328.13 2604.65 1327.08 2600.71 1327.08 2595.88V2546.03H1316.88V2535.7H1327.08V2514.67ZM1407.73 2507.71H1479.38V2520.37H1421.72V2551.73H1472.41V2564.03H1421.72V2611H1407.73V2507.71ZM1502.44 2590.96C1502.44 2594.62 1503.77 2597.5 1506.45 2599.61C1509.12 2601.72 1512.28 2602.77 1515.94 2602.77C1520.39 2602.77 1524.7 2601.74 1528.88 2599.68C1535.91 2596.26 1539.42 2590.66 1539.42 2582.88V2572.68C1537.88 2573.66 1535.88 2574.48 1533.45 2575.14C1531.01 2575.8 1528.62 2576.27 1526.27 2576.55L1518.61 2577.53C1514.02 2578.14 1510.57 2579.1 1508.27 2580.41C1504.38 2582.62 1502.44 2586.13 1502.44 2590.96ZM1533.09 2565.37C1536 2564.99 1537.95 2563.77 1538.93 2561.71C1539.49 2560.59 1539.77 2558.97 1539.77 2556.86C1539.77 2552.55 1538.23 2549.43 1535.13 2547.51C1532.09 2545.54 1527.7 2544.55 1521.98 2544.55C1515.38 2544.55 1510.69 2546.34 1507.92 2549.9C1506.38 2551.87 1505.37 2554.8 1504.9 2558.69H1493.09C1493.32 2549.41 1496.32 2542.96 1502.09 2539.35C1507.9 2535.7 1514.62 2533.87 1522.27 2533.87C1531.12 2533.87 1538.32 2535.55 1543.85 2538.93C1549.34 2542.3 1552.08 2547.55 1552.08 2554.68V2598.06C1552.08 2599.38 1552.34 2600.43 1552.85 2601.23C1553.41 2602.02 1554.56 2602.42 1556.3 2602.42C1556.86 2602.42 1557.49 2602.4 1558.2 2602.35C1558.9 2602.26 1559.65 2602.14 1560.45 2602V2611.35C1558.48 2611.91 1556.98 2612.27 1555.95 2612.41C1554.91 2612.55 1553.51 2612.62 1551.73 2612.62C1547.37 2612.62 1544.2 2611.07 1542.23 2607.98C1541.2 2606.34 1540.48 2604.02 1540.05 2601.02C1537.48 2604.39 1533.77 2607.32 1528.95 2609.8C1524.12 2612.29 1518.8 2613.53 1512.98 2613.53C1506 2613.53 1500.28 2611.42 1495.83 2607.2C1491.42 2602.94 1489.22 2597.62 1489.22 2591.24C1489.22 2584.26 1491.4 2578.84 1495.76 2575C1500.12 2571.16 1505.84 2568.79 1512.91 2567.9L1533.09 2565.37ZM1572.89 2535.7H1585.41V2546.38C1588.41 2542.68 1591.12 2539.98 1593.56 2538.3C1597.73 2535.44 1602.47 2534.01 1607.77 2534.01C1613.77 2534.01 1618.59 2535.48 1622.25 2538.44C1624.31 2540.12 1626.19 2542.61 1627.88 2545.89C1630.69 2541.86 1633.99 2538.88 1637.79 2536.96C1641.59 2534.99 1645.85 2534.01 1650.59 2534.01C1660.71 2534.01 1667.6 2537.66 1671.26 2544.98C1673.23 2548.91 1674.21 2554.21 1674.21 2560.87V2611H1661.06V2558.69C1661.06 2553.67 1659.8 2550.23 1657.27 2548.35C1654.78 2546.48 1651.73 2545.54 1648.12 2545.54C1643.16 2545.54 1638.87 2547.2 1635.26 2550.53C1631.7 2553.86 1629.91 2559.41 1629.91 2567.2V2611H1617.05V2561.85C1617.05 2556.74 1616.44 2553.02 1615.22 2550.67C1613.3 2547.16 1609.71 2545.4 1604.46 2545.4C1599.68 2545.4 1595.32 2547.25 1591.38 2550.95C1587.49 2554.66 1585.55 2561.36 1585.55 2571.06V2611H1572.89V2535.7ZM1692.84 2536.05H1705.71V2611H1692.84V2536.05ZM1692.84 2507.71H1705.71V2522.05H1692.84V2507.71ZM1725.26 2507.71H1737.91V2611H1725.26V2507.71ZM1804.01 2535.7H1818C1816.22 2540.52 1812.26 2551.54 1806.12 2568.74C1801.52 2581.68 1797.68 2592.23 1794.59 2600.38C1787.27 2619.6 1782.12 2631.32 1779.12 2635.54C1776.12 2639.76 1770.96 2641.87 1763.65 2641.87C1761.87 2641.87 1760.48 2641.8 1759.5 2641.66C1758.56 2641.52 1757.39 2641.26 1755.98 2640.88V2629.35C1758.19 2629.96 1759.78 2630.34 1760.77 2630.48C1761.75 2630.62 1762.62 2630.69 1763.37 2630.69C1765.71 2630.69 1767.42 2630.29 1768.5 2629.49C1769.62 2628.74 1770.56 2627.8 1771.31 2626.68C1771.55 2626.3 1772.39 2624.38 1773.84 2620.91C1775.3 2617.45 1776.35 2614.87 1777.01 2613.18L1749.16 2535.7H1763.51L1783.69 2597.01L1804.01 2535.7ZM1918.76 2555.03C1925.32 2555.03 1930.5 2553.72 1934.3 2551.09C1938.14 2548.47 1940.06 2543.73 1940.06 2536.89C1940.06 2529.53 1937.39 2524.52 1932.05 2521.84C1929.19 2520.44 1925.37 2519.73 1920.59 2519.73H1886.41V2555.03H1918.76ZM1872.42 2507.71H1920.23C1928.11 2507.71 1934.6 2508.86 1939.71 2511.16C1949.41 2515.56 1954.27 2523.7 1954.27 2535.55C1954.27 2541.74 1952.98 2546.8 1950.4 2550.74C1947.87 2554.68 1944.3 2557.84 1939.71 2560.23C1943.74 2561.88 1946.77 2564.03 1948.78 2566.7C1950.84 2569.38 1951.99 2573.71 1952.23 2579.71L1952.72 2593.56C1952.86 2597.5 1953.19 2600.43 1953.7 2602.35C1954.55 2605.63 1956.05 2607.74 1958.2 2608.68V2611H1941.05C1940.58 2610.11 1940.2 2608.96 1939.92 2607.55C1939.64 2606.15 1939.41 2603.43 1939.22 2599.4L1938.38 2582.17C1938.05 2575.42 1935.54 2570.9 1930.85 2568.6C1928.18 2567.34 1923.98 2566.7 1918.27 2566.7H1886.41V2611H1872.42V2507.71ZM2004.47 2534.01C2009.81 2534.01 2014.99 2535.27 2020.01 2537.8C2025.02 2540.29 2028.84 2543.52 2031.47 2547.51C2034 2551.3 2035.69 2555.73 2036.53 2560.8C2037.28 2564.27 2037.66 2569.8 2037.66 2577.39H1982.46C1982.7 2585.03 1984.5 2591.17 1987.88 2595.81C1991.25 2600.41 1996.48 2602.7 2003.55 2602.7C2010.16 2602.7 2015.44 2600.52 2019.38 2596.16C2021.62 2593.63 2023.22 2590.7 2024.16 2587.38H2036.6C2036.27 2590.14 2035.17 2593.23 2033.3 2596.66C2031.47 2600.03 2029.41 2602.8 2027.11 2604.95C2023.27 2608.7 2018.51 2611.23 2012.84 2612.55C2009.79 2613.3 2006.34 2613.67 2002.5 2613.67C1993.12 2613.67 1985.18 2610.27 1978.66 2603.48C1972.15 2596.63 1968.89 2587.07 1968.89 2574.79C1968.89 2562.7 1972.17 2552.88 1978.73 2545.33C1985.3 2537.78 1993.88 2534.01 2004.47 2534.01ZM2024.65 2567.34C2024.13 2561.85 2022.94 2557.47 2021.06 2554.19C2017.59 2548.09 2011.8 2545.05 2003.7 2545.05C1997.88 2545.05 1993.01 2547.16 1989.07 2551.38C1985.13 2555.55 1983.05 2560.87 1982.81 2567.34H2024.65ZM2082.3 2533.52C2090.79 2533.52 2097.68 2535.58 2102.98 2539.7C2108.32 2543.83 2111.53 2550.93 2112.61 2561.01H2100.3C2099.55 2556.37 2097.84 2552.52 2095.17 2549.48C2092.5 2546.38 2088.21 2544.84 2082.3 2544.84C2074.24 2544.84 2068.48 2548.77 2065.01 2556.65C2062.76 2561.76 2061.63 2568.06 2061.63 2575.56C2061.63 2583.11 2063.23 2589.46 2066.41 2594.62C2069.6 2599.77 2074.62 2602.35 2081.46 2602.35C2086.71 2602.35 2090.86 2600.76 2093.91 2597.57C2097 2594.34 2099.13 2589.93 2100.3 2584.35H2112.61C2111.2 2594.34 2107.69 2601.65 2102.06 2606.29C2096.44 2610.88 2089.24 2613.18 2080.48 2613.18C2070.63 2613.18 2062.78 2609.59 2056.92 2602.42C2051.06 2595.2 2048.13 2586.2 2048.13 2575.42C2048.13 2562.2 2051.34 2551.91 2057.77 2544.55C2064.19 2537.2 2072.37 2533.52 2082.3 2533.52ZM2125.27 2536.05H2138.13V2611H2125.27V2536.05ZM2125.27 2507.71H2138.13V2522.05H2125.27V2507.71ZM2189.11 2602.49C2195.02 2602.49 2199.91 2600.03 2203.8 2595.11C2207.74 2590.14 2209.71 2582.73 2209.71 2572.89C2209.71 2566.89 2208.84 2561.73 2207.11 2557.42C2203.83 2549.12 2197.83 2544.98 2189.11 2544.98C2180.34 2544.98 2174.34 2549.36 2171.11 2558.12C2169.38 2562.81 2168.51 2568.77 2168.51 2575.98C2168.51 2581.8 2169.38 2586.74 2171.11 2590.82C2174.39 2598.6 2180.39 2602.49 2189.11 2602.49ZM2156.34 2536.05H2168.65V2546.03C2171.18 2542.61 2173.95 2539.96 2176.95 2538.09C2181.21 2535.27 2186.23 2533.87 2191.99 2533.87C2200.52 2533.87 2207.77 2537.15 2213.72 2543.71C2219.67 2550.23 2222.65 2559.55 2222.65 2571.7C2222.65 2588.1 2218.36 2599.82 2209.78 2606.85C2204.34 2611.3 2198.02 2613.53 2190.8 2613.53C2185.12 2613.53 2180.37 2612.29 2176.52 2609.8C2174.27 2608.4 2171.77 2605.98 2169 2602.56V2641.02H2156.34V2536.05ZM2268.84 2534.01C2274.19 2534.01 2279.37 2535.27 2284.38 2537.8C2289.4 2540.29 2293.22 2543.52 2295.84 2547.51C2298.38 2551.3 2300.06 2555.73 2300.91 2560.8C2301.66 2564.27 2302.03 2569.8 2302.03 2577.39H2246.84C2247.07 2585.03 2248.88 2591.17 2252.25 2595.81C2255.62 2600.41 2260.85 2602.7 2267.93 2602.7C2274.54 2602.7 2279.81 2600.52 2283.75 2596.16C2286 2593.63 2287.59 2590.7 2288.53 2587.38H2300.98C2300.65 2590.14 2299.55 2593.23 2297.67 2596.66C2295.84 2600.03 2293.78 2602.8 2291.48 2604.95C2287.64 2608.7 2282.88 2611.23 2277.21 2612.55C2274.16 2613.3 2270.72 2613.67 2266.88 2613.67C2257.5 2613.67 2249.55 2610.27 2243.04 2603.48C2236.52 2596.63 2233.27 2587.07 2233.27 2574.79C2233.27 2562.7 2236.55 2552.88 2243.11 2545.33C2249.67 2537.78 2258.25 2534.01 2268.84 2534.01ZM2289.02 2567.34C2288.51 2561.85 2287.31 2557.47 2285.44 2554.19C2281.97 2548.09 2276.18 2545.05 2268.07 2545.05C2262.26 2545.05 2257.38 2547.16 2253.45 2551.38C2249.51 2555.55 2247.42 2560.87 2247.19 2567.34H2289.02ZM2325.16 2587.38C2325.54 2591.59 2326.59 2594.83 2328.33 2597.08C2331.52 2601.16 2337.05 2603.2 2344.92 2603.2C2349.61 2603.2 2353.73 2602.19 2357.3 2600.17C2360.86 2598.11 2362.64 2594.95 2362.64 2590.68C2362.64 2587.45 2361.21 2584.98 2358.35 2583.3C2356.52 2582.27 2352.91 2581.07 2347.52 2579.71L2337.47 2577.18C2331.05 2575.59 2326.31 2573.8 2323.27 2571.84C2317.83 2568.41 2315.11 2563.68 2315.11 2557.63C2315.11 2550.51 2317.66 2544.74 2322.77 2540.34C2327.93 2535.93 2334.84 2533.73 2343.52 2533.73C2354.86 2533.73 2363.04 2537.05 2368.05 2543.71C2371.2 2547.93 2372.72 2552.48 2372.62 2557.35H2360.67C2360.44 2554.49 2359.43 2551.89 2357.65 2549.55C2354.74 2546.22 2349.7 2544.55 2342.53 2544.55C2337.75 2544.55 2334.12 2545.47 2331.63 2547.3C2329.2 2549.12 2327.98 2551.54 2327.98 2554.54C2327.98 2557.82 2329.59 2560.45 2332.83 2562.41C2334.7 2563.59 2337.47 2564.62 2341.12 2565.51L2349.49 2567.55C2358.59 2569.75 2364.68 2571.88 2367.77 2573.95C2372.7 2577.18 2375.16 2582.27 2375.16 2589.2C2375.16 2595.91 2372.6 2601.7 2367.49 2606.57C2362.43 2611.45 2354.7 2613.88 2344.29 2613.88C2333.09 2613.88 2325.14 2611.35 2320.45 2606.29C2315.81 2601.18 2313.33 2594.88 2313 2587.38H2325.16Z" fill="black"/>
</svg>
