<svg width="2323" height="2623" viewBox="0 0 2323 2623" fill="none" xmlns="http://www.w3.org/2000/svg">
<g filter="url(#filter0_d)">
<path d="M1161.5 1157.5V1C1800.22 1 2318 518.781 2318 1157.5C2318 1796.21 1800.22 2313.99 1161.5 2313.99C553.783 2313.99 49.7357 1843.63 7.7666 1237.36L1161.5 1157.5Z" fill="#E5C646" stroke="white"/>
<path d="M1161.5 1157.5L7.76154 1237.36C-6.88263 1025.82 36.9165 814.323 134.37 625.994L1161.5 1157.5Z" fill="#F9F5E5" stroke="white"/>
<path d="M1161.5 1157.5L134.372 625.994C231.826 437.665 379.183 279.755 560.332 169.528L1161.5 1157.5Z" fill="#F4E9BD" stroke="white"/>
<path d="M1161.5 1157.5L560.333 169.528C741.482 59.3006 949.45 1 1161.5 1V1157.5Z" fill="#EFDE96" stroke="white"/>
<path d="M1068.66 1603.78L1058.2 1573.36L1047.09 1603.78H1068.66ZM1053.33 1563.14H1063.88L1088.86 1632H1078.64L1071.66 1611.38H1044.42L1036.97 1632H1027.41L1053.33 1563.14ZM1119.7 1563.14H1167.47V1571.58H1129.03V1592.48H1162.83V1600.69H1129.03V1632H1119.7V1563.14ZM1197.28 1580.67C1200.84 1580.67 1204.3 1581.52 1207.64 1583.2C1210.98 1584.86 1213.53 1587.02 1215.28 1589.67C1216.97 1592.2 1218.09 1595.16 1218.66 1598.53C1219.16 1600.84 1219.41 1604.53 1219.41 1609.59H1182.61C1182.77 1614.69 1183.97 1618.78 1186.22 1621.88C1188.47 1624.94 1191.95 1626.47 1196.67 1626.47C1201.08 1626.47 1204.59 1625.02 1207.22 1622.11C1208.72 1620.42 1209.78 1618.47 1210.41 1616.25H1218.7C1218.48 1618.09 1217.75 1620.16 1216.5 1622.44C1215.28 1624.69 1213.91 1626.53 1212.38 1627.97C1209.81 1630.47 1206.64 1632.16 1202.86 1633.03C1200.83 1633.53 1198.53 1633.78 1195.97 1633.78C1189.72 1633.78 1184.42 1631.52 1180.08 1626.98C1175.73 1622.42 1173.56 1616.05 1173.56 1607.86C1173.56 1599.8 1175.75 1593.25 1180.12 1588.22C1184.5 1583.19 1190.22 1580.67 1197.28 1580.67ZM1210.73 1602.89C1210.39 1599.23 1209.59 1596.31 1208.34 1594.12C1206.03 1590.06 1202.17 1588.03 1196.77 1588.03C1192.89 1588.03 1189.64 1589.44 1187.02 1592.25C1184.39 1595.03 1183 1598.58 1182.84 1602.89H1210.73ZM1233.7 1581.8L1243.36 1621.36L1253.16 1581.8H1262.62L1272.47 1621.12L1282.73 1581.8H1291.17L1276.59 1632H1267.83L1257.61 1593.14L1247.72 1632H1238.95L1224.47 1581.8H1233.7ZM1375.45 1563.14V1571.34H1352.25V1632H1342.78V1571.34H1319.58V1563.14H1375.45ZM1379.34 1582.03H1387.92V1632H1379.34V1582.03ZM1379.34 1563.14H1387.92V1572.7H1379.34V1563.14ZM1400.72 1581.8H1409.06V1588.92C1411.06 1586.45 1412.88 1584.66 1414.5 1583.53C1417.28 1581.62 1420.44 1580.67 1423.97 1580.67C1427.97 1580.67 1431.19 1581.66 1433.62 1583.62C1435 1584.75 1436.25 1586.41 1437.38 1588.59C1439.25 1585.91 1441.45 1583.92 1443.98 1582.64C1446.52 1581.33 1449.36 1580.67 1452.52 1580.67C1459.27 1580.67 1463.86 1583.11 1466.3 1587.98C1467.61 1590.61 1468.27 1594.14 1468.27 1598.58V1632H1459.5V1597.12C1459.5 1593.78 1458.66 1591.48 1456.97 1590.23C1455.31 1588.98 1453.28 1588.36 1450.88 1588.36C1447.56 1588.36 1444.7 1589.47 1442.3 1591.69C1439.92 1593.91 1438.73 1597.61 1438.73 1602.8V1632H1430.16V1599.23C1430.16 1595.83 1429.75 1593.34 1428.94 1591.78C1427.66 1589.44 1425.27 1588.27 1421.77 1588.27C1418.58 1588.27 1415.67 1589.5 1413.05 1591.97C1410.45 1594.44 1409.16 1598.91 1409.16 1605.38V1632H1400.72V1581.8ZM1501.59 1580.67C1505.16 1580.67 1508.61 1581.52 1511.95 1583.2C1515.3 1584.86 1517.84 1587.02 1519.59 1589.67C1521.28 1592.2 1522.41 1595.16 1522.97 1598.53C1523.47 1600.84 1523.72 1604.53 1523.72 1609.59H1486.92C1487.08 1614.69 1488.28 1618.78 1490.53 1621.88C1492.78 1624.94 1496.27 1626.47 1500.98 1626.47C1505.39 1626.47 1508.91 1625.02 1511.53 1622.11C1513.03 1620.42 1514.09 1618.47 1514.72 1616.25H1523.02C1522.8 1618.09 1522.06 1620.16 1520.81 1622.44C1519.59 1624.69 1518.22 1626.53 1516.69 1627.97C1514.12 1630.47 1510.95 1632.16 1507.17 1633.03C1505.14 1633.53 1502.84 1633.78 1500.28 1633.78C1494.03 1633.78 1488.73 1631.52 1484.39 1626.98C1480.05 1622.42 1477.88 1616.05 1477.88 1607.86C1477.88 1599.8 1480.06 1593.25 1484.44 1588.22C1488.81 1583.19 1494.53 1580.67 1501.59 1580.67ZM1515.05 1602.89C1514.7 1599.23 1513.91 1596.31 1512.66 1594.12C1510.34 1590.06 1506.48 1588.03 1501.08 1588.03C1497.2 1588.03 1493.95 1589.44 1491.33 1592.25C1488.7 1595.03 1487.31 1598.58 1487.16 1602.89H1515.05ZM1539.14 1616.25C1539.39 1619.06 1540.09 1621.22 1541.25 1622.72C1543.38 1625.44 1547.06 1626.8 1552.31 1626.8C1555.44 1626.8 1558.19 1626.12 1560.56 1624.78C1562.94 1623.41 1564.12 1621.3 1564.12 1618.45C1564.12 1616.3 1563.17 1614.66 1561.27 1613.53C1560.05 1612.84 1557.64 1612.05 1554.05 1611.14L1547.34 1609.45C1543.06 1608.39 1539.91 1607.2 1537.88 1605.89C1534.25 1603.61 1532.44 1600.45 1532.44 1596.42C1532.44 1591.67 1534.14 1587.83 1537.55 1584.89C1540.98 1581.95 1545.59 1580.48 1551.38 1580.48C1558.94 1580.48 1564.39 1582.7 1567.73 1587.14C1569.83 1589.95 1570.84 1592.98 1570.78 1596.23H1562.81C1562.66 1594.33 1561.98 1592.59 1560.8 1591.03C1558.86 1588.81 1555.5 1587.7 1550.72 1587.7C1547.53 1587.7 1545.11 1588.31 1543.45 1589.53C1541.83 1590.75 1541.02 1592.36 1541.02 1594.36C1541.02 1596.55 1542.09 1598.3 1544.25 1599.61C1545.5 1600.39 1547.34 1601.08 1549.78 1601.67L1555.36 1603.03C1561.42 1604.5 1565.48 1605.92 1567.55 1607.3C1570.83 1609.45 1572.47 1612.84 1572.47 1617.47C1572.47 1621.94 1570.77 1625.8 1567.36 1629.05C1563.98 1632.3 1558.83 1633.92 1551.89 1633.92C1544.42 1633.92 1539.12 1632.23 1536 1628.86C1532.91 1625.45 1531.25 1621.25 1531.03 1616.25H1539.14ZM1640.06 1603.78L1629.61 1573.36L1618.5 1603.78H1640.06ZM1624.73 1563.14H1635.28L1660.27 1632H1650.05L1643.06 1611.38H1615.83L1608.38 1632H1598.81L1624.73 1563.14ZM1694.77 1563.14L1707.75 1619.16L1723.31 1563.14H1733.44L1749 1619.16L1761.98 1563.14H1772.2L1754.11 1632H1744.31L1728.42 1574.91L1712.44 1632H1702.64L1684.64 1563.14H1694.77ZM1798.97 1580.67C1802.53 1580.67 1805.98 1581.52 1809.33 1583.2C1812.67 1584.86 1815.22 1587.02 1816.97 1589.67C1818.66 1592.2 1819.78 1595.16 1820.34 1598.53C1820.84 1600.84 1821.09 1604.53 1821.09 1609.59H1784.3C1784.45 1614.69 1785.66 1618.78 1787.91 1621.88C1790.16 1624.94 1793.64 1626.47 1798.36 1626.47C1802.77 1626.47 1806.28 1625.02 1808.91 1622.11C1810.41 1620.42 1811.47 1618.47 1812.09 1616.25H1820.39C1820.17 1618.09 1819.44 1620.16 1818.19 1622.44C1816.97 1624.69 1815.59 1626.53 1814.06 1627.97C1811.5 1630.47 1808.33 1632.16 1804.55 1633.03C1802.52 1633.53 1800.22 1633.78 1797.66 1633.78C1791.41 1633.78 1786.11 1631.52 1781.77 1626.98C1777.42 1622.42 1775.25 1616.05 1775.25 1607.86C1775.25 1599.8 1777.44 1593.25 1781.81 1588.22C1786.19 1583.19 1791.91 1580.67 1798.97 1580.67ZM1812.42 1602.89C1812.08 1599.23 1811.28 1596.31 1810.03 1594.12C1807.72 1590.06 1803.86 1588.03 1798.45 1588.03C1794.58 1588.03 1791.33 1589.44 1788.7 1592.25C1786.08 1595.03 1784.69 1598.58 1784.53 1602.89H1812.42ZM1852.41 1580.67C1855.97 1580.67 1859.42 1581.52 1862.77 1583.2C1866.11 1584.86 1868.66 1587.02 1870.41 1589.67C1872.09 1592.2 1873.22 1595.16 1873.78 1598.53C1874.28 1600.84 1874.53 1604.53 1874.53 1609.59H1837.73C1837.89 1614.69 1839.09 1618.78 1841.34 1621.88C1843.59 1624.94 1847.08 1626.47 1851.8 1626.47C1856.2 1626.47 1859.72 1625.02 1862.34 1622.11C1863.84 1620.42 1864.91 1618.47 1865.53 1616.25H1873.83C1873.61 1618.09 1872.88 1620.16 1871.62 1622.44C1870.41 1624.69 1869.03 1626.53 1867.5 1627.97C1864.94 1630.47 1861.77 1632.16 1857.98 1633.03C1855.95 1633.53 1853.66 1633.78 1851.09 1633.78C1844.84 1633.78 1839.55 1631.52 1835.2 1626.98C1830.86 1622.42 1828.69 1616.05 1828.69 1607.86C1828.69 1599.8 1830.88 1593.25 1835.25 1588.22C1839.62 1583.19 1845.34 1580.67 1852.41 1580.67ZM1865.86 1602.89C1865.52 1599.23 1864.72 1596.31 1863.47 1594.12C1861.16 1590.06 1857.3 1588.03 1851.89 1588.03C1848.02 1588.03 1844.77 1589.44 1842.14 1592.25C1839.52 1595.03 1838.12 1598.58 1837.97 1602.89H1865.86ZM1884.75 1563.14H1892.86V1603.12L1914.52 1581.8H1925.3L1906.08 1600.59L1926.38 1632H1915.59L1899.94 1606.69L1892.86 1613.16V1632H1884.75V1563.14Z" fill="black"/>
<path d="M317.305 2491V2502.04C314.07 2505.18 309.758 2510.64 304.367 2518.42C299.023 2526.2 294.289 2534.59 290.164 2543.59C286.086 2552.36 282.992 2560.35 280.883 2567.57C279.523 2572.21 277.766 2579.69 275.609 2590H261.617C264.805 2570.78 271.836 2551.66 282.711 2532.62C289.133 2521.47 295.883 2511.84 302.961 2503.73H247.273V2491H317.305ZM369.758 2554.35V2508.72L337.484 2554.35H369.758ZM369.969 2590V2565.39H325.812V2553.02L371.938 2489.03H382.625V2554.35H397.461V2565.39H382.625V2590H369.969ZM500.469 2541.06C507.219 2541.06 512.984 2543.45 517.766 2548.23C522.547 2553.02 524.938 2558.78 524.938 2565.53C524.938 2572.28 522.547 2578.05 517.766 2582.83C512.984 2587.61 507.219 2590 500.469 2590C493.672 2590 487.883 2587.61 483.102 2582.83C478.32 2578.05 475.93 2572.28 475.93 2565.53C475.93 2558.78 478.32 2553.02 483.102 2548.23C487.883 2543.45 493.672 2541.06 500.469 2541.06ZM490.273 2489.73H498.078L441.758 2592.67H433.953L490.273 2489.73ZM431.422 2531.36C435.453 2531.36 438.875 2529.95 441.688 2527.14C444.547 2524.28 445.977 2520.86 445.977 2516.88C445.977 2512.89 444.547 2509.49 441.688 2506.68C438.875 2503.82 435.453 2502.39 431.422 2502.39C427.438 2502.39 424.016 2503.8 421.156 2506.61C418.344 2509.42 416.938 2512.84 416.938 2516.88C416.938 2520.86 418.344 2524.28 421.156 2527.14C424.016 2529.95 427.438 2531.36 431.422 2531.36ZM431.422 2492.34C438.219 2492.34 444.008 2494.75 448.789 2499.58C453.57 2504.36 455.961 2510.12 455.961 2516.88C455.961 2523.62 453.57 2529.39 448.789 2534.17C444.008 2538.95 438.219 2541.34 431.422 2541.34C424.672 2541.34 418.906 2538.95 414.125 2534.17C409.344 2529.39 406.953 2523.62 406.953 2516.88C406.953 2510.12 409.344 2504.36 414.125 2499.58C418.906 2494.75 424.672 2492.34 431.422 2492.34ZM500.469 2580.02C504.453 2580.02 507.852 2578.61 510.664 2575.8C513.523 2572.94 514.953 2569.52 514.953 2565.53C514.953 2561.55 513.523 2558.15 510.664 2555.34C507.852 2552.48 504.453 2551.05 500.469 2551.05C496.438 2551.05 492.992 2552.48 490.133 2555.34C487.32 2558.15 485.914 2561.55 485.914 2565.53C485.914 2569.52 487.32 2572.94 490.133 2575.8C492.992 2578.61 496.438 2580.02 500.469 2580.02ZM624.992 2483.9C638.07 2483.9 648.219 2487.34 655.438 2494.23C662.656 2501.12 666.664 2508.95 667.461 2517.72H653.82C652.273 2511.06 649.18 2505.79 644.539 2501.9C639.945 2498.01 633.477 2496.06 625.133 2496.06C614.961 2496.06 606.734 2499.65 600.453 2506.82C594.219 2513.95 591.102 2524.89 591.102 2539.66C591.102 2551.75 593.914 2561.57 599.539 2569.12C605.211 2576.62 613.648 2580.37 624.852 2580.37C635.164 2580.37 643.016 2576.41 648.406 2568.48C651.266 2564.31 653.398 2558.83 654.805 2552.03H668.445C667.227 2562.91 663.195 2572.02 656.352 2579.38C648.148 2588.24 637.086 2592.67 623.164 2592.67C611.164 2592.67 601.086 2589.04 592.93 2581.77C582.195 2572.16 576.828 2557.33 576.828 2537.27C576.828 2522.03 580.859 2509.54 588.922 2499.79C597.641 2489.2 609.664 2483.9 624.992 2483.9ZM713.727 2581.84C722.117 2581.84 727.859 2578.68 730.953 2572.35C734.094 2565.98 735.664 2558.9 735.664 2551.12C735.664 2544.09 734.539 2538.37 732.289 2533.96C728.727 2527.02 722.586 2523.55 713.867 2523.55C706.133 2523.55 700.508 2526.51 696.992 2532.41C693.477 2538.32 691.719 2545.45 691.719 2553.79C691.719 2561.8 693.477 2568.48 696.992 2573.83C700.508 2579.17 706.086 2581.84 713.727 2581.84ZM714.219 2512.52C723.922 2512.52 732.125 2515.75 738.828 2522.22C745.531 2528.69 748.883 2538.2 748.883 2550.77C748.883 2562.91 745.93 2572.94 740.023 2580.86C734.117 2588.78 724.953 2592.74 712.531 2592.74C702.172 2592.74 693.945 2589.25 687.852 2582.27C681.758 2575.23 678.711 2565.81 678.711 2554C678.711 2541.34 681.922 2531.27 688.344 2523.77C694.766 2516.27 703.391 2512.52 714.219 2512.52ZM793.883 2581.84C802.273 2581.84 808.016 2578.68 811.109 2572.35C814.25 2565.98 815.82 2558.9 815.82 2551.12C815.82 2544.09 814.695 2538.37 812.445 2533.96C808.883 2527.02 802.742 2523.55 794.023 2523.55C786.289 2523.55 780.664 2526.51 777.148 2532.41C773.633 2538.32 771.875 2545.45 771.875 2553.79C771.875 2561.8 773.633 2568.48 777.148 2573.83C780.664 2579.17 786.242 2581.84 793.883 2581.84ZM794.375 2512.52C804.078 2512.52 812.281 2515.75 818.984 2522.22C825.688 2528.69 829.039 2538.2 829.039 2550.77C829.039 2562.91 826.086 2572.94 820.18 2580.86C814.273 2588.78 805.109 2592.74 792.688 2592.74C782.328 2592.74 774.102 2589.25 768.008 2582.27C761.914 2575.23 758.867 2565.81 758.867 2554C758.867 2541.34 762.078 2531.27 768.5 2523.77C774.922 2516.27 783.547 2512.52 794.375 2512.52ZM843.875 2486.71H856.039V2546.69L888.523 2514.7H904.695L875.867 2542.89L906.312 2590H890.141L866.656 2552.03L856.039 2561.73V2590H843.875V2486.71ZM1003.06 2547.67L987.383 2502.04L970.719 2547.67H1003.06ZM980.07 2486.71H995.891L1033.37 2590H1018.04L1007.56 2559.06H966.711L955.531 2590H941.188L980.07 2486.71ZM1079.63 2486.71H1151.28V2499.37H1093.62V2530.73H1144.32V2543.03H1093.62V2590H1079.63V2486.71ZM1196 2513.01C1201.34 2513.01 1206.52 2514.27 1211.54 2516.8C1216.55 2519.29 1220.38 2522.52 1223 2526.51C1225.53 2530.3 1227.22 2534.73 1228.06 2539.8C1228.81 2543.27 1229.19 2548.8 1229.19 2556.39H1173.99C1174.23 2564.03 1176.03 2570.17 1179.41 2574.81C1182.78 2579.41 1188.01 2581.7 1195.09 2581.7C1201.7 2581.7 1206.97 2579.52 1210.91 2575.16C1213.16 2572.63 1214.75 2569.7 1215.69 2566.38H1228.13C1227.8 2569.14 1226.7 2572.23 1224.83 2575.66C1223 2579.03 1220.94 2581.8 1218.64 2583.95C1214.8 2587.7 1210.04 2590.23 1204.37 2591.55C1201.32 2592.3 1197.88 2592.67 1194.03 2592.67C1184.66 2592.67 1176.71 2589.27 1170.2 2582.48C1163.68 2575.63 1160.42 2566.07 1160.42 2553.79C1160.42 2541.7 1163.7 2531.88 1170.27 2524.33C1176.83 2516.78 1185.41 2513.01 1196 2513.01ZM1216.18 2546.34C1215.66 2540.85 1214.47 2536.47 1212.59 2533.19C1209.12 2527.09 1203.34 2524.05 1195.23 2524.05C1189.41 2524.05 1184.54 2526.16 1180.6 2530.38C1176.66 2534.55 1174.58 2539.87 1174.34 2546.34H1216.18ZM1250.63 2514.7L1265.12 2574.04L1279.81 2514.7H1294.02L1308.78 2573.69L1324.18 2514.7H1336.84L1314.97 2590H1301.82L1286.49 2531.71L1271.66 2590H1258.51L1236.78 2514.7H1250.63ZM1463.26 2486.71V2499.02H1428.45V2590H1414.25V2499.02H1379.45V2486.71H1463.26ZM1469.09 2515.05H1481.96V2590H1469.09V2515.05ZM1469.09 2486.71H1481.96V2501.05H1469.09V2486.71ZM1501.16 2514.7H1513.67V2525.38C1516.67 2521.68 1519.39 2518.98 1521.83 2517.3C1526 2514.44 1530.73 2513.01 1536.03 2513.01C1542.03 2513.01 1546.86 2514.48 1550.52 2517.44C1552.58 2519.12 1554.45 2521.61 1556.14 2524.89C1558.95 2520.86 1562.26 2517.88 1566.05 2515.96C1569.85 2513.99 1574.12 2513.01 1578.85 2513.01C1588.98 2513.01 1595.87 2516.66 1599.52 2523.98C1601.49 2527.91 1602.48 2533.21 1602.48 2539.87V2590H1589.33V2537.69C1589.33 2532.67 1588.06 2529.23 1585.53 2527.35C1583.05 2525.48 1580 2524.54 1576.39 2524.54C1571.42 2524.54 1567.13 2526.2 1563.52 2529.53C1559.96 2532.86 1558.18 2538.41 1558.18 2546.2V2590H1545.31V2540.85C1545.31 2535.74 1544.7 2532.02 1543.48 2529.67C1541.56 2526.16 1537.98 2524.4 1532.73 2524.4C1527.95 2524.4 1523.59 2526.25 1519.65 2529.95C1515.76 2533.66 1513.81 2540.36 1513.81 2550.06V2590H1501.16V2514.7ZM1652.47 2513.01C1657.81 2513.01 1662.99 2514.27 1668.01 2516.8C1673.02 2519.29 1676.84 2522.52 1679.47 2526.51C1682 2530.3 1683.69 2534.73 1684.53 2539.8C1685.28 2543.27 1685.66 2548.8 1685.66 2556.39H1630.46C1630.7 2564.03 1632.5 2570.17 1635.88 2574.81C1639.25 2579.41 1644.48 2581.7 1651.55 2581.7C1658.16 2581.7 1663.44 2579.52 1667.38 2575.16C1669.62 2572.63 1671.22 2569.7 1672.16 2566.38H1684.6C1684.27 2569.14 1683.17 2572.23 1681.3 2575.66C1679.47 2579.03 1677.41 2581.8 1675.11 2583.95C1671.27 2587.7 1666.51 2590.23 1660.84 2591.55C1657.79 2592.3 1654.34 2592.67 1650.5 2592.67C1641.12 2592.67 1633.18 2589.27 1626.66 2582.48C1620.15 2575.63 1616.89 2566.07 1616.89 2553.79C1616.89 2541.7 1620.17 2531.88 1626.73 2524.33C1633.3 2516.78 1641.88 2513.01 1652.47 2513.01ZM1672.65 2546.34C1672.13 2540.85 1670.94 2536.47 1669.06 2533.19C1665.59 2527.09 1659.8 2524.05 1651.7 2524.05C1645.88 2524.05 1641.01 2526.16 1637.07 2530.38C1633.13 2534.55 1631.05 2539.87 1630.81 2546.34H1672.65ZM1708.79 2566.38C1709.16 2570.59 1710.22 2573.83 1711.95 2576.08C1715.14 2580.16 1720.67 2582.2 1728.55 2582.2C1733.23 2582.2 1737.36 2581.19 1740.92 2579.17C1744.48 2577.11 1746.27 2573.95 1746.27 2569.68C1746.27 2566.45 1744.84 2563.98 1741.98 2562.3C1740.15 2561.27 1736.54 2560.07 1731.15 2558.71L1721.09 2556.18C1714.67 2554.59 1709.94 2552.8 1706.89 2550.84C1701.45 2547.41 1698.73 2542.68 1698.73 2536.63C1698.73 2529.51 1701.29 2523.74 1706.4 2519.34C1711.55 2514.93 1718.47 2512.73 1727.14 2512.73C1738.48 2512.73 1746.66 2516.05 1751.68 2522.71C1754.82 2526.93 1756.34 2531.48 1756.25 2536.35H1744.3C1744.06 2533.49 1743.05 2530.89 1741.27 2528.55C1738.37 2525.22 1733.33 2523.55 1726.16 2523.55C1721.38 2523.55 1717.74 2524.47 1715.26 2526.3C1712.82 2528.12 1711.6 2530.54 1711.6 2533.54C1711.6 2536.82 1713.22 2539.45 1716.45 2541.41C1718.33 2542.59 1721.09 2543.62 1724.75 2544.51L1733.12 2546.55C1742.21 2548.75 1748.3 2550.88 1751.4 2552.95C1756.32 2556.18 1758.78 2561.27 1758.78 2568.2C1758.78 2574.91 1756.23 2580.7 1751.12 2585.57C1746.05 2590.45 1738.32 2592.88 1727.91 2592.88C1716.71 2592.88 1708.77 2590.35 1704.08 2585.29C1699.44 2580.18 1696.95 2573.88 1696.62 2566.38H1708.79ZM1860.17 2547.67L1844.49 2502.04L1827.83 2547.67H1860.17ZM1837.18 2486.71H1853L1890.48 2590H1875.15L1864.67 2559.06H1823.82L1812.64 2590H1798.3L1837.18 2486.71ZM1942.23 2486.71L1961.7 2570.73L1985.05 2486.71H2000.23L2023.58 2570.73L2043.05 2486.71H2058.38L2031.24 2590H2016.55L1992.71 2504.36L1968.73 2590H1954.04L1927.04 2486.71H1942.23ZM2098.53 2513.01C2103.88 2513.01 2109.05 2514.27 2114.07 2516.8C2119.09 2519.29 2122.91 2522.52 2125.53 2526.51C2128.06 2530.3 2129.75 2534.73 2130.59 2539.8C2131.34 2543.27 2131.72 2548.8 2131.72 2556.39H2076.52C2076.76 2564.03 2078.56 2570.17 2081.94 2574.81C2085.31 2579.41 2090.54 2581.7 2097.62 2581.7C2104.23 2581.7 2109.5 2579.52 2113.44 2575.16C2115.69 2572.63 2117.28 2569.7 2118.22 2566.38H2130.66C2130.34 2569.14 2129.23 2572.23 2127.36 2575.66C2125.53 2579.03 2123.47 2581.8 2121.17 2583.95C2117.33 2587.7 2112.57 2590.23 2106.9 2591.55C2103.85 2592.3 2100.41 2592.67 2096.56 2592.67C2087.19 2592.67 2079.24 2589.27 2072.73 2582.48C2066.21 2575.63 2062.95 2566.07 2062.95 2553.79C2062.95 2541.7 2066.23 2531.88 2072.8 2524.33C2079.36 2516.78 2087.94 2513.01 2098.53 2513.01ZM2118.71 2546.34C2118.2 2540.85 2117 2536.47 2115.12 2533.19C2111.66 2527.09 2105.87 2524.05 2097.76 2524.05C2091.95 2524.05 2087.07 2526.16 2083.13 2530.38C2079.2 2534.55 2077.11 2539.87 2076.88 2546.34H2118.71ZM2178.69 2513.01C2184.03 2513.01 2189.21 2514.27 2194.23 2516.8C2199.24 2519.29 2203.06 2522.52 2205.69 2526.51C2208.22 2530.3 2209.91 2534.73 2210.75 2539.8C2211.5 2543.27 2211.88 2548.8 2211.88 2556.39H2156.68C2156.91 2564.03 2158.72 2570.17 2162.09 2574.81C2165.47 2579.41 2170.7 2581.7 2177.77 2581.7C2184.38 2581.7 2189.66 2579.52 2193.59 2575.16C2195.84 2572.63 2197.44 2569.7 2198.38 2566.38H2210.82C2210.49 2569.14 2209.39 2572.23 2207.52 2575.66C2205.69 2579.03 2203.62 2581.8 2201.33 2583.95C2197.48 2587.7 2192.73 2590.23 2187.05 2591.55C2184.01 2592.3 2180.56 2592.67 2176.72 2592.67C2167.34 2592.67 2159.4 2589.27 2152.88 2582.48C2146.37 2575.63 2143.11 2566.07 2143.11 2553.79C2143.11 2541.7 2146.39 2531.88 2152.95 2524.33C2159.52 2516.78 2168.09 2513.01 2178.69 2513.01ZM2198.87 2546.34C2198.35 2540.85 2197.16 2536.47 2195.28 2533.19C2191.81 2527.09 2186.02 2524.05 2177.91 2524.05C2172.1 2524.05 2167.23 2526.16 2163.29 2530.38C2159.35 2534.55 2157.27 2539.87 2157.03 2546.34H2198.87ZM2227.2 2486.71H2239.37V2546.69L2271.85 2514.7H2288.02L2259.2 2542.89L2289.64 2590H2273.47L2249.98 2552.03L2239.37 2561.73V2590H2227.2V2486.71Z" fill="black"/>
<path d="M726.203 228.141H776.406V236.578H735.297V257.484H773.312V265.453H735.297V288.797H777.109V297H726.203V228.141ZM792.344 246.797L805.75 287.672L819.766 246.797H829L810.062 297H801.062L782.547 246.797H792.344ZM857.125 245.672C860.688 245.672 864.141 246.516 867.484 248.203C870.828 249.859 873.375 252.016 875.125 254.672C876.812 257.203 877.938 260.156 878.5 263.531C879 265.844 879.25 269.531 879.25 274.594H842.453C842.609 279.688 843.812 283.781 846.062 286.875C848.312 289.938 851.797 291.469 856.516 291.469C860.922 291.469 864.438 290.016 867.062 287.109C868.562 285.422 869.625 283.469 870.25 281.25H878.547C878.328 283.094 877.594 285.156 876.344 287.438C875.125 289.688 873.75 291.531 872.219 292.969C869.656 295.469 866.484 297.156 862.703 298.031C860.672 298.531 858.375 298.781 855.812 298.781C849.562 298.781 844.266 296.516 839.922 291.984C835.578 287.422 833.406 281.047 833.406 272.859C833.406 264.797 835.594 258.25 839.969 253.219C844.344 248.188 850.062 245.672 857.125 245.672ZM870.578 267.891C870.234 264.234 869.438 261.312 868.188 259.125C865.875 255.062 862.016 253.031 856.609 253.031C852.734 253.031 849.484 254.438 846.859 257.25C844.234 260.031 842.844 263.578 842.688 267.891H870.578ZM889.891 246.797H897.906V255.469C898.562 253.781 900.172 251.734 902.734 249.328C905.297 246.891 908.25 245.672 911.594 245.672C911.75 245.672 912.016 245.688 912.391 245.719C912.766 245.75 913.406 245.812 914.312 245.906V254.812C913.812 254.719 913.344 254.656 912.906 254.625C912.5 254.594 912.047 254.578 911.547 254.578C907.297 254.578 904.031 255.953 901.75 258.703C899.469 261.422 898.328 264.562 898.328 268.125V297H889.891V246.797ZM952.984 246.797H962.312C961.125 250.016 958.484 257.359 954.391 268.828C951.328 277.453 948.766 284.484 946.703 289.922C941.828 302.734 938.391 310.547 936.391 313.359C934.391 316.172 930.953 317.578 926.078 317.578C924.891 317.578 923.969 317.531 923.312 317.438C922.688 317.344 921.906 317.172 920.969 316.922V309.234C922.438 309.641 923.5 309.891 924.156 309.984C924.812 310.078 925.391 310.125 925.891 310.125C927.453 310.125 928.594 309.859 929.312 309.328C930.062 308.828 930.688 308.203 931.188 307.453C931.344 307.203 931.906 305.922 932.875 303.609C933.844 301.297 934.547 299.578 934.984 298.453L916.422 246.797H925.984L939.438 287.672L952.984 246.797ZM974.969 272.484C974.969 277.859 976.109 282.359 978.391 285.984C980.672 289.609 984.328 291.422 989.359 291.422C993.266 291.422 996.469 289.75 998.969 286.406C1001.5 283.031 1002.77 278.203 1002.77 271.922C1002.77 265.578 1001.47 260.891 998.875 257.859C996.281 254.797 993.078 253.266 989.266 253.266C985.016 253.266 981.562 254.891 978.906 258.141C976.281 261.391 974.969 266.172 974.969 272.484ZM987.672 245.906C991.516 245.906 994.734 246.719 997.328 248.344C998.828 249.281 1000.53 250.922 1002.44 253.266V227.906H1010.55V297H1002.95V290.016C1000.98 293.109 998.656 295.344 995.969 296.719C993.281 298.094 990.203 298.781 986.734 298.781C981.141 298.781 976.297 296.438 972.203 291.75C968.109 287.031 966.062 280.766 966.062 272.953C966.062 265.641 967.922 259.312 971.641 253.969C975.391 248.594 980.734 245.906 987.672 245.906ZM1029.53 283.641C1029.53 286.078 1030.42 288 1032.2 289.406C1033.98 290.812 1036.09 291.516 1038.53 291.516C1041.5 291.516 1044.38 290.828 1047.16 289.453C1051.84 287.172 1054.19 283.438 1054.19 278.25V271.453C1053.16 272.109 1051.83 272.656 1050.2 273.094C1048.58 273.531 1046.98 273.844 1045.42 274.031L1040.31 274.688C1037.25 275.094 1034.95 275.734 1033.42 276.609C1030.83 278.078 1029.53 280.422 1029.53 283.641ZM1049.97 266.578C1051.91 266.328 1053.2 265.516 1053.86 264.141C1054.23 263.391 1054.42 262.312 1054.42 260.906C1054.42 258.031 1053.39 255.953 1051.33 254.672C1049.3 253.359 1046.38 252.703 1042.56 252.703C1038.16 252.703 1035.03 253.891 1033.19 256.266C1032.16 257.578 1031.48 259.531 1031.17 262.125H1023.3C1023.45 255.938 1025.45 251.641 1029.3 249.234C1033.17 246.797 1037.66 245.578 1042.75 245.578C1048.66 245.578 1053.45 246.703 1057.14 248.953C1060.8 251.203 1062.62 254.703 1062.62 259.453V288.375C1062.62 289.25 1062.8 289.953 1063.14 290.484C1063.52 291.016 1064.28 291.281 1065.44 291.281C1065.81 291.281 1066.23 291.266 1066.7 291.234C1067.17 291.172 1067.67 291.094 1068.2 291V297.234C1066.89 297.609 1065.89 297.844 1065.2 297.938C1064.52 298.031 1063.58 298.078 1062.39 298.078C1059.48 298.078 1057.38 297.047 1056.06 294.984C1055.38 293.891 1054.89 292.344 1054.61 290.344C1052.89 292.594 1050.42 294.547 1047.2 296.203C1043.98 297.859 1040.44 298.688 1036.56 298.688C1031.91 298.688 1028.09 297.281 1025.12 294.469C1022.19 291.625 1020.72 288.078 1020.72 283.828C1020.72 279.172 1022.17 275.562 1025.08 273C1027.98 270.438 1031.8 268.859 1036.52 268.266L1049.97 266.578ZM1107.86 246.797H1117.19C1116 250.016 1113.36 257.359 1109.27 268.828C1106.2 277.453 1103.64 284.484 1101.58 289.922C1096.7 302.734 1093.27 310.547 1091.27 313.359C1089.27 316.172 1085.83 317.578 1080.95 317.578C1079.77 317.578 1078.84 317.531 1078.19 317.438C1077.56 317.344 1076.78 317.172 1075.84 316.922V309.234C1077.31 309.641 1078.38 309.891 1079.03 309.984C1079.69 310.078 1080.27 310.125 1080.77 310.125C1082.33 310.125 1083.47 309.859 1084.19 309.328C1084.94 308.828 1085.56 308.203 1086.06 307.453C1086.22 307.203 1086.78 305.922 1087.75 303.609C1088.72 301.297 1089.42 299.578 1089.86 298.453L1071.3 246.797H1080.86L1094.31 287.672L1107.86 246.797Z" fill="black"/>
<path d="M83.4062 1055.78C83.625 1059.69 84.5469 1062.86 86.1719 1065.3C89.2656 1069.86 94.7188 1072.14 102.531 1072.14C106.031 1072.14 109.219 1071.64 112.094 1070.64C117.656 1068.7 120.438 1065.23 120.438 1060.23C120.438 1056.48 119.266 1053.81 116.922 1052.22C114.547 1050.66 110.828 1049.3 105.766 1048.14L96.4375 1046.03C90.3438 1044.66 86.0312 1043.14 83.5 1041.48C79.125 1038.61 76.9375 1034.31 76.9375 1028.59C76.9375 1022.41 79.0781 1017.33 83.3594 1013.36C87.6406 1009.39 93.7031 1007.41 101.547 1007.41C108.766 1007.41 114.891 1009.16 119.922 1012.66C124.984 1016.12 127.516 1021.69 127.516 1029.34H118.75C118.281 1025.66 117.281 1022.83 115.75 1020.86C112.906 1017.27 108.078 1015.47 101.266 1015.47C95.7656 1015.47 91.8125 1016.62 89.4062 1018.94C87 1021.25 85.7969 1023.94 85.7969 1027C85.7969 1030.38 87.2031 1032.84 90.0156 1034.41C91.8594 1035.41 96.0312 1036.66 102.531 1038.16L112.188 1040.36C116.844 1041.42 120.438 1042.88 122.969 1044.72C127.344 1047.94 129.531 1052.61 129.531 1058.73C129.531 1066.36 126.75 1071.81 121.188 1075.09C115.656 1078.38 109.219 1080.02 101.875 1080.02C93.3125 1080.02 86.6094 1077.83 81.7656 1073.45C76.9219 1069.11 74.5469 1063.22 74.6406 1055.78H83.4062ZM161.406 1072.33C165.344 1072.33 168.609 1070.69 171.203 1067.41C173.828 1064.09 175.141 1059.16 175.141 1052.59C175.141 1048.59 174.562 1045.16 173.406 1042.28C171.219 1036.75 167.219 1033.98 161.406 1033.98C155.562 1033.98 151.562 1036.91 149.406 1042.75C148.25 1045.88 147.672 1049.84 147.672 1054.66C147.672 1058.53 148.25 1061.83 149.406 1064.55C151.594 1069.73 155.594 1072.33 161.406 1072.33ZM139.562 1028.03H147.766V1034.69C149.453 1032.41 151.297 1030.64 153.297 1029.39C156.141 1027.52 159.484 1026.58 163.328 1026.58C169.016 1026.58 173.844 1028.77 177.812 1033.14C181.781 1037.48 183.766 1043.7 183.766 1051.8C183.766 1062.73 180.906 1070.55 175.188 1075.23C171.562 1078.2 167.344 1079.69 162.531 1079.69C158.75 1079.69 155.578 1078.86 153.016 1077.2C151.516 1076.27 149.844 1074.66 148 1072.38V1098.02H139.562V1028.03ZM214.562 1026.67C218.125 1026.67 221.578 1027.52 224.922 1029.2C228.266 1030.86 230.812 1033.02 232.562 1035.67C234.25 1038.2 235.375 1041.16 235.938 1044.53C236.438 1046.84 236.688 1050.53 236.688 1055.59H199.891C200.047 1060.69 201.25 1064.78 203.5 1067.88C205.75 1070.94 209.234 1072.47 213.953 1072.47C218.359 1072.47 221.875 1071.02 224.5 1068.11C226 1066.42 227.062 1064.47 227.688 1062.25H235.984C235.766 1064.09 235.031 1066.16 233.781 1068.44C232.562 1070.69 231.188 1072.53 229.656 1073.97C227.094 1076.47 223.922 1078.16 220.141 1079.03C218.109 1079.53 215.812 1079.78 213.25 1079.78C207 1079.78 201.703 1077.52 197.359 1072.98C193.016 1068.42 190.844 1062.05 190.844 1053.86C190.844 1045.8 193.031 1039.25 197.406 1034.22C201.781 1029.19 207.5 1026.67 214.562 1026.67ZM228.016 1048.89C227.672 1045.23 226.875 1042.31 225.625 1040.12C223.312 1036.06 219.453 1034.03 214.047 1034.03C210.172 1034.03 206.922 1035.44 204.297 1038.25C201.672 1041.03 200.281 1044.58 200.125 1048.89H228.016ZM266.453 1026.34C272.109 1026.34 276.703 1027.72 280.234 1030.47C283.797 1033.22 285.938 1037.95 286.656 1044.67H278.453C277.953 1041.58 276.812 1039.02 275.031 1036.98C273.25 1034.92 270.391 1033.89 266.453 1033.89C261.078 1033.89 257.234 1036.52 254.922 1041.77C253.422 1045.17 252.672 1049.38 252.672 1054.38C252.672 1059.41 253.734 1063.64 255.859 1067.08C257.984 1070.52 261.328 1072.23 265.891 1072.23C269.391 1072.23 272.156 1071.17 274.188 1069.05C276.25 1066.89 277.672 1063.95 278.453 1060.23H286.656C285.719 1066.89 283.375 1071.77 279.625 1074.86C275.875 1077.92 271.078 1079.45 265.234 1079.45C258.672 1079.45 253.438 1077.06 249.531 1072.28C245.625 1067.47 243.672 1061.47 243.672 1054.28C243.672 1045.47 245.812 1038.61 250.094 1033.7C254.375 1028.8 259.828 1026.34 266.453 1026.34ZM295.094 1028.03H303.672V1078H295.094V1028.03ZM295.094 1009.14H303.672V1018.7H295.094V1009.14ZM322.938 1064.64C322.938 1067.08 323.828 1069 325.609 1070.41C327.391 1071.81 329.5 1072.52 331.938 1072.52C334.906 1072.52 337.781 1071.83 340.562 1070.45C345.25 1068.17 347.594 1064.44 347.594 1059.25V1052.45C346.562 1053.11 345.234 1053.66 343.609 1054.09C341.984 1054.53 340.391 1054.84 338.828 1055.03L333.719 1055.69C330.656 1056.09 328.359 1056.73 326.828 1057.61C324.234 1059.08 322.938 1061.42 322.938 1064.64ZM343.375 1047.58C345.312 1047.33 346.609 1046.52 347.266 1045.14C347.641 1044.39 347.828 1043.31 347.828 1041.91C347.828 1039.03 346.797 1036.95 344.734 1035.67C342.703 1034.36 339.781 1033.7 335.969 1033.7C331.562 1033.7 328.438 1034.89 326.594 1037.27C325.562 1038.58 324.891 1040.53 324.578 1043.12H316.703C316.859 1036.94 318.859 1032.64 322.703 1030.23C326.578 1027.8 331.062 1026.58 336.156 1026.58C342.062 1026.58 346.859 1027.7 350.547 1029.95C354.203 1032.2 356.031 1035.7 356.031 1040.45V1069.38C356.031 1070.25 356.203 1070.95 356.547 1071.48C356.922 1072.02 357.688 1072.28 358.844 1072.28C359.219 1072.28 359.641 1072.27 360.109 1072.23C360.578 1072.17 361.078 1072.09 361.609 1072V1078.23C360.297 1078.61 359.297 1078.84 358.609 1078.94C357.922 1079.03 356.984 1079.08 355.797 1079.08C352.891 1079.08 350.781 1078.05 349.469 1075.98C348.781 1074.89 348.297 1073.34 348.016 1071.34C346.297 1073.59 343.828 1075.55 340.609 1077.2C337.391 1078.86 333.844 1079.69 329.969 1079.69C325.312 1079.69 321.5 1078.28 318.531 1075.47C315.594 1072.62 314.125 1069.08 314.125 1064.83C314.125 1060.17 315.578 1056.56 318.484 1054C321.391 1051.44 325.203 1049.86 329.922 1049.27L343.375 1047.58ZM370.141 1009.14H378.578V1078H370.141V1009.14ZM448.844 1007.27C461 1007.27 470 1011.17 475.844 1018.98C480.406 1025.08 482.688 1032.88 482.688 1042.38C482.688 1052.66 480.078 1061.2 474.859 1068.02C468.734 1076.02 460 1080.02 448.656 1080.02C438.062 1080.02 429.734 1076.52 423.672 1069.52C418.266 1062.77 415.562 1054.23 415.562 1043.92C415.562 1034.61 417.875 1026.64 422.5 1020.02C428.438 1011.52 437.219 1007.27 448.844 1007.27ZM449.781 1071.67C458 1071.67 463.938 1068.73 467.594 1062.86C471.281 1056.95 473.125 1050.17 473.125 1042.52C473.125 1034.42 471 1027.91 466.75 1022.97C462.531 1018.03 456.75 1015.56 449.406 1015.56C442.281 1015.56 436.469 1018.02 431.969 1022.92C427.469 1027.8 425.219 1035 425.219 1044.53C425.219 1052.16 427.141 1058.59 430.984 1063.84C434.859 1069.06 441.125 1071.67 449.781 1071.67ZM512.078 1026.34C517.734 1026.34 522.328 1027.72 525.859 1030.47C529.422 1033.22 531.562 1037.95 532.281 1044.67H524.078C523.578 1041.58 522.438 1039.02 520.656 1036.98C518.875 1034.92 516.016 1033.89 512.078 1033.89C506.703 1033.89 502.859 1036.52 500.547 1041.77C499.047 1045.17 498.297 1049.38 498.297 1054.38C498.297 1059.41 499.359 1063.64 501.484 1067.08C503.609 1070.52 506.953 1072.23 511.516 1072.23C515.016 1072.23 517.781 1071.17 519.812 1069.05C521.875 1066.89 523.297 1063.95 524.078 1060.23H532.281C531.344 1066.89 529 1071.77 525.25 1074.86C521.5 1077.92 516.703 1079.45 510.859 1079.45C504.297 1079.45 499.062 1077.06 495.156 1072.28C491.25 1067.47 489.297 1061.47 489.297 1054.28C489.297 1045.47 491.438 1038.61 495.719 1033.7C500 1028.8 505.453 1026.34 512.078 1026.34ZM560.078 1026.34C565.734 1026.34 570.328 1027.72 573.859 1030.47C577.422 1033.22 579.562 1037.95 580.281 1044.67H572.078C571.578 1041.58 570.438 1039.02 568.656 1036.98C566.875 1034.92 564.016 1033.89 560.078 1033.89C554.703 1033.89 550.859 1036.52 548.547 1041.77C547.047 1045.17 546.297 1049.38 546.297 1054.38C546.297 1059.41 547.359 1063.64 549.484 1067.08C551.609 1070.52 554.953 1072.23 559.516 1072.23C563.016 1072.23 565.781 1071.17 567.812 1069.05C569.875 1066.89 571.297 1063.95 572.078 1060.23H580.281C579.344 1066.89 577 1071.77 573.25 1074.86C569.5 1077.92 564.703 1079.45 558.859 1079.45C552.297 1079.45 547.062 1077.06 543.156 1072.28C539.25 1067.47 537.297 1061.47 537.297 1054.28C537.297 1045.47 539.438 1038.61 543.719 1033.7C548 1028.8 553.453 1026.34 560.078 1026.34ZM595.188 1064.64C595.188 1067.08 596.078 1069 597.859 1070.41C599.641 1071.81 601.75 1072.52 604.188 1072.52C607.156 1072.52 610.031 1071.83 612.812 1070.45C617.5 1068.17 619.844 1064.44 619.844 1059.25V1052.45C618.812 1053.11 617.484 1053.66 615.859 1054.09C614.234 1054.53 612.641 1054.84 611.078 1055.03L605.969 1055.69C602.906 1056.09 600.609 1056.73 599.078 1057.61C596.484 1059.08 595.188 1061.42 595.188 1064.64ZM615.625 1047.58C617.562 1047.33 618.859 1046.52 619.516 1045.14C619.891 1044.39 620.078 1043.31 620.078 1041.91C620.078 1039.03 619.047 1036.95 616.984 1035.67C614.953 1034.36 612.031 1033.7 608.219 1033.7C603.812 1033.7 600.688 1034.89 598.844 1037.27C597.812 1038.58 597.141 1040.53 596.828 1043.12H588.953C589.109 1036.94 591.109 1032.64 594.953 1030.23C598.828 1027.8 603.312 1026.58 608.406 1026.58C614.312 1026.58 619.109 1027.7 622.797 1029.95C626.453 1032.2 628.281 1035.7 628.281 1040.45V1069.38C628.281 1070.25 628.453 1070.95 628.797 1071.48C629.172 1072.02 629.938 1072.28 631.094 1072.28C631.469 1072.28 631.891 1072.27 632.359 1072.23C632.828 1072.17 633.328 1072.09 633.859 1072V1078.23C632.547 1078.61 631.547 1078.84 630.859 1078.94C630.172 1079.03 629.234 1079.08 628.047 1079.08C625.141 1079.08 623.031 1078.05 621.719 1075.98C621.031 1074.89 620.547 1073.34 620.266 1071.34C618.547 1073.59 616.078 1075.55 612.859 1077.2C609.641 1078.86 606.094 1079.69 602.219 1079.69C597.562 1079.69 593.75 1078.28 590.781 1075.47C587.844 1072.62 586.375 1069.08 586.375 1064.83C586.375 1060.17 587.828 1056.56 590.734 1054C593.641 1051.44 597.453 1049.86 602.172 1049.27L615.625 1047.58ZM647.172 1062.25C647.422 1065.06 648.125 1067.22 649.281 1068.72C651.406 1071.44 655.094 1072.8 660.344 1072.8C663.469 1072.8 666.219 1072.12 668.594 1070.78C670.969 1069.41 672.156 1067.3 672.156 1064.45C672.156 1062.3 671.203 1060.66 669.297 1059.53C668.078 1058.84 665.672 1058.05 662.078 1057.14L655.375 1055.45C651.094 1054.39 647.938 1053.2 645.906 1051.89C642.281 1049.61 640.469 1046.45 640.469 1042.42C640.469 1037.67 642.172 1033.83 645.578 1030.89C649.016 1027.95 653.625 1026.48 659.406 1026.48C666.969 1026.48 672.422 1028.7 675.766 1033.14C677.859 1035.95 678.875 1038.98 678.812 1042.23H670.844C670.688 1040.33 670.016 1038.59 668.828 1037.03C666.891 1034.81 663.531 1033.7 658.75 1033.7C655.562 1033.7 653.141 1034.31 651.484 1035.53C649.859 1036.75 649.047 1038.36 649.047 1040.36C649.047 1042.55 650.125 1044.3 652.281 1045.61C653.531 1046.39 655.375 1047.08 657.812 1047.67L663.391 1049.03C669.453 1050.5 673.516 1051.92 675.578 1053.3C678.859 1055.45 680.5 1058.84 680.5 1063.47C680.5 1067.94 678.797 1071.8 675.391 1075.05C672.016 1078.3 666.859 1079.92 659.922 1079.92C652.453 1079.92 647.156 1078.23 644.031 1074.86C640.938 1071.45 639.281 1067.25 639.062 1062.25H647.172ZM690.156 1028.03H698.734V1078H690.156V1028.03ZM690.156 1009.14H698.734V1018.7H690.156V1009.14ZM731.453 1072.56C737.047 1072.56 740.875 1070.45 742.938 1066.23C745.031 1061.98 746.078 1057.27 746.078 1052.08C746.078 1047.39 745.328 1043.58 743.828 1040.64C741.453 1036.02 737.359 1033.7 731.547 1033.7C726.391 1033.7 722.641 1035.67 720.297 1039.61C717.953 1043.55 716.781 1048.3 716.781 1053.86C716.781 1059.2 717.953 1063.66 720.297 1067.22C722.641 1070.78 726.359 1072.56 731.453 1072.56ZM731.781 1026.34C738.25 1026.34 743.719 1028.5 748.188 1032.81C752.656 1037.12 754.891 1043.47 754.891 1051.84C754.891 1059.94 752.922 1066.62 748.984 1071.91C745.047 1077.19 738.938 1079.83 730.656 1079.83C723.75 1079.83 718.266 1077.5 714.203 1072.84C710.141 1068.16 708.109 1061.88 708.109 1054C708.109 1045.56 710.25 1038.84 714.531 1033.84C718.812 1028.84 724.562 1026.34 731.781 1026.34ZM764.969 1027.8H772.984V1034.92C775.359 1031.98 777.875 1029.88 780.531 1028.59C783.188 1027.31 786.141 1026.67 789.391 1026.67C796.516 1026.67 801.328 1029.16 803.828 1034.12C805.203 1036.84 805.891 1040.73 805.891 1045.8V1078H797.312V1046.36C797.312 1043.3 796.859 1040.83 795.953 1038.95C794.453 1035.83 791.734 1034.27 787.797 1034.27C785.797 1034.27 784.156 1034.47 782.875 1034.88C780.562 1035.56 778.531 1036.94 776.781 1039C775.375 1040.66 774.453 1042.38 774.016 1044.16C773.609 1045.91 773.406 1048.42 773.406 1051.7V1078H764.969V1027.8ZM823.422 1062.25C823.672 1065.06 824.375 1067.22 825.531 1068.72C827.656 1071.44 831.344 1072.8 836.594 1072.8C839.719 1072.8 842.469 1072.12 844.844 1070.78C847.219 1069.41 848.406 1067.3 848.406 1064.45C848.406 1062.3 847.453 1060.66 845.547 1059.53C844.328 1058.84 841.922 1058.05 838.328 1057.14L831.625 1055.45C827.344 1054.39 824.188 1053.2 822.156 1051.89C818.531 1049.61 816.719 1046.45 816.719 1042.42C816.719 1037.67 818.422 1033.83 821.828 1030.89C825.266 1027.95 829.875 1026.48 835.656 1026.48C843.219 1026.48 848.672 1028.7 852.016 1033.14C854.109 1035.95 855.125 1038.98 855.062 1042.23H847.094C846.938 1040.33 846.266 1038.59 845.078 1037.03C843.141 1034.81 839.781 1033.7 835 1033.7C831.812 1033.7 829.391 1034.31 827.734 1035.53C826.109 1036.75 825.297 1038.36 825.297 1040.36C825.297 1042.55 826.375 1044.3 828.531 1045.61C829.781 1046.39 831.625 1047.08 834.062 1047.67L839.641 1049.03C845.703 1050.5 849.766 1051.92 851.828 1053.3C855.109 1055.45 856.75 1058.84 856.75 1063.47C856.75 1067.94 855.047 1071.8 851.641 1075.05C848.266 1078.3 843.109 1079.92 836.172 1079.92C828.703 1079.92 823.406 1078.23 820.281 1074.86C817.188 1071.45 815.531 1067.25 815.312 1062.25H823.422Z" fill="black"/>
<path d="M460.328 588.688C464.703 588.688 468.156 587.812 470.688 586.062C473.25 584.312 474.531 581.156 474.531 576.594C474.531 571.688 472.75 568.344 469.188 566.562C467.281 565.625 464.734 565.156 461.547 565.156H438.766V588.688H460.328ZM429.438 557.141H461.312C466.562 557.141 470.891 557.906 474.297 559.438C480.766 562.375 484 567.797 484 575.703C484 579.828 483.141 583.203 481.422 585.828C479.734 588.453 477.359 590.562 474.297 592.156C476.984 593.25 479 594.688 480.344 596.469C481.719 598.25 482.484 601.141 482.641 605.141L482.969 614.375C483.062 617 483.281 618.953 483.625 620.234C484.188 622.422 485.188 623.828 486.625 624.453V626H475.188C474.875 625.406 474.625 624.641 474.438 623.703C474.25 622.766 474.094 620.953 473.969 618.266L473.406 606.781C473.188 602.281 471.516 599.266 468.391 597.734C466.609 596.891 463.812 596.469 460 596.469H438.766V626H429.438V557.141ZM503.031 612.641C503.031 615.078 503.922 617 505.703 618.406C507.484 619.812 509.594 620.516 512.031 620.516C515 620.516 517.875 619.828 520.656 618.453C525.344 616.172 527.688 612.438 527.688 607.25V600.453C526.656 601.109 525.328 601.656 523.703 602.094C522.078 602.531 520.484 602.844 518.922 603.031L513.812 603.688C510.75 604.094 508.453 604.734 506.922 605.609C504.328 607.078 503.031 609.422 503.031 612.641ZM523.469 595.578C525.406 595.328 526.703 594.516 527.359 593.141C527.734 592.391 527.922 591.312 527.922 589.906C527.922 587.031 526.891 584.953 524.828 583.672C522.797 582.359 519.875 581.703 516.062 581.703C511.656 581.703 508.531 582.891 506.688 585.266C505.656 586.578 504.984 588.531 504.672 591.125H496.797C496.953 584.938 498.953 580.641 502.797 578.234C506.672 575.797 511.156 574.578 516.25 574.578C522.156 574.578 526.953 575.703 530.641 577.953C534.297 580.203 536.125 583.703 536.125 588.453V617.375C536.125 618.25 536.297 618.953 536.641 619.484C537.016 620.016 537.781 620.281 538.938 620.281C539.312 620.281 539.734 620.266 540.203 620.234C540.672 620.172 541.172 620.094 541.703 620V626.234C540.391 626.609 539.391 626.844 538.703 626.938C538.016 627.031 537.078 627.078 535.891 627.078C532.984 627.078 530.875 626.047 529.562 623.984C528.875 622.891 528.391 621.344 528.109 619.344C526.391 621.594 523.922 623.547 520.703 625.203C517.484 626.859 513.938 627.688 510.062 627.688C505.406 627.688 501.594 626.281 498.625 623.469C495.688 620.625 494.219 617.078 494.219 612.828C494.219 608.172 495.672 604.562 498.578 602C501.484 599.438 505.297 597.859 510.016 597.266L523.469 595.578ZM550.234 575.797H558.25V584.469C558.906 582.781 560.516 580.734 563.078 578.328C565.641 575.891 568.594 574.672 571.938 574.672C572.094 574.672 572.359 574.688 572.734 574.719C573.109 574.75 573.75 574.812 574.656 574.906V583.812C574.156 583.719 573.688 583.656 573.25 583.625C572.844 583.594 572.391 583.578 571.891 583.578C567.641 583.578 564.375 584.953 562.094 587.703C559.812 590.422 558.672 593.562 558.672 597.125V626H550.234V575.797ZM602.875 574.672C606.438 574.672 609.891 575.516 613.234 577.203C616.578 578.859 619.125 581.016 620.875 583.672C622.562 586.203 623.688 589.156 624.25 592.531C624.75 594.844 625 598.531 625 603.594H588.203C588.359 608.688 589.562 612.781 591.812 615.875C594.062 618.938 597.547 620.469 602.266 620.469C606.672 620.469 610.188 619.016 612.812 616.109C614.312 614.422 615.375 612.469 616 610.25H624.297C624.078 612.094 623.344 614.156 622.094 616.438C620.875 618.688 619.5 620.531 617.969 621.969C615.406 624.469 612.234 626.156 608.453 627.031C606.422 627.531 604.125 627.781 601.562 627.781C595.312 627.781 590.016 625.516 585.672 620.984C581.328 616.422 579.156 610.047 579.156 601.859C579.156 593.797 581.344 587.25 585.719 582.219C590.094 577.188 595.812 574.672 602.875 574.672ZM616.328 596.891C615.984 593.234 615.188 590.312 613.938 588.125C611.625 584.062 607.766 582.031 602.359 582.031C598.484 582.031 595.234 583.438 592.609 586.25C589.984 589.031 588.594 592.578 588.438 596.891H616.328ZM635.641 557.141H644.078V626H635.641V557.141ZM688.141 575.797H697.469C696.281 579.016 693.641 586.359 689.547 597.828C686.484 606.453 683.922 613.484 681.859 618.922C676.984 631.734 673.547 639.547 671.547 642.359C669.547 645.172 666.109 646.578 661.234 646.578C660.047 646.578 659.125 646.531 658.469 646.438C657.844 646.344 657.062 646.172 656.125 645.922V638.234C657.594 638.641 658.656 638.891 659.312 638.984C659.969 639.078 660.547 639.125 661.047 639.125C662.609 639.125 663.75 638.859 664.469 638.328C665.219 637.828 665.844 637.203 666.344 636.453C666.5 636.203 667.062 634.922 668.031 632.609C669 630.297 669.703 628.578 670.141 627.453L651.578 575.797H661.141L674.594 616.672L688.141 575.797Z" fill="black"/>
</g>
<defs>
<filter id="filter0_d" x="0.5" y="0.5" width="2322" height="2600.38" filterUnits="userSpaceOnUse" color-interpolation-filters="sRGB">
<feFlood flood-opacity="0" result="BackgroundImageFix"/>
<feColorMatrix in="SourceAlpha" type="matrix" values="0 0 0 0 0 0 0 0 0 0 0 0 0 0 0 0 0 0 127 0"/>
<feOffset dy="4"/>
<feGaussianBlur stdDeviation="2"/>
<feColorMatrix type="matrix" values="0 0 0 0 0 0 0 0 0 0 0 0 0 0 0 0 0 0 0.25 0"/>
<feBlend mode="normal" in2="BackgroundImageFix" result="effect1_dropShadow"/>
<feBlend mode="normal" in="SourceGraphic" in2="effect1_dropShadow" result="shape"/>
</filter>
</defs>
</svg>
