<svg width="2765" height="2834" viewBox="0 0 2765 2834" fill="none" xmlns="http://www.w3.org/2000/svg">
<path d="M1285.01 1285V1C1994.14 1 2569 575.866 2569 1285C2569 1419.74 2547.79 1553.64 2506.16 1681.78L1285.01 1285Z" fill="#5E3FBE" stroke="white"/>
<path d="M1285.01 1285L2506.16 1681.78C2334.26 2210.81 1841.27 2569 1285.01 2569V1285Z" fill="#F4F0FD" stroke="white"/>
<path d="M1285.01 1285V2569C728.749 2569 235.752 2210.81 63.8584 1681.78L1285.01 1285Z" fill="#E5DAFB" stroke="white"/>
<path d="M1285 1285L63.8529 1681.78C-63.157 1290.88 4.64349 862.802 246.231 530.284L1285 1285Z" fill="#CBB6F8" stroke="white"/>
<path d="M1285.01 1285L246.238 530.284C487.826 197.766 873.998 1 1285.01 1V1285Z" fill="#A88DEB" stroke="white"/>
<path d="M38.4062 2803.74C26.5 2803.74 17.8516 2800.48 12.4609 2793.97C7.11719 2787.41 4.44531 2779.44 4.44531 2770.06H17.6641C18.2266 2776.58 19.4453 2781.31 21.3203 2784.27C24.6016 2789.56 30.5312 2792.21 39.1094 2792.21C45.7656 2792.21 51.1094 2790.43 55.1406 2786.87C59.1719 2783.3 61.1875 2778.71 61.1875 2773.09C61.1875 2766.15 59.0547 2761.3 54.7891 2758.53C50.5703 2755.77 44.6875 2754.38 37.1406 2754.38C36.2969 2754.38 35.4297 2754.41 34.5391 2754.45C33.6953 2754.45 32.8281 2754.48 31.9375 2754.52V2743.34C33.25 2743.48 34.3516 2743.58 35.2422 2743.62C36.1328 2743.67 37.0938 2743.7 38.125 2743.7C42.8594 2743.7 46.75 2742.95 49.7969 2741.45C55.1406 2738.82 57.8125 2734.13 57.8125 2727.38C57.8125 2722.37 56.0312 2718.5 52.4688 2715.78C48.9062 2713.06 44.7578 2711.7 40.0234 2711.7C31.5859 2711.7 25.75 2714.52 22.5156 2720.14C20.7344 2723.23 19.7266 2727.64 19.4922 2733.36H6.97656C6.97656 2725.86 8.47656 2719.48 11.4766 2714.23C16.6328 2704.86 25.7031 2700.17 38.6875 2700.17C48.9531 2700.17 56.8984 2702.47 62.5234 2707.06C68.1484 2711.61 70.9609 2718.22 70.9609 2726.89C70.9609 2733.08 69.2969 2738.09 65.9688 2741.94C63.9062 2744.33 61.2344 2746.2 57.9531 2747.56C63.25 2749.02 67.375 2751.83 70.3281 2756C73.3281 2760.12 74.8281 2765.19 74.8281 2771.19C74.8281 2780.8 71.6641 2788.62 65.3359 2794.67C59.0078 2800.72 50.0312 2803.74 38.4062 2803.74ZM120.109 2700.31C133.141 2700.31 142.562 2705.68 148.375 2716.41C152.875 2724.71 155.125 2736.08 155.125 2750.52C155.125 2764.2 153.086 2775.52 149.008 2784.48C143.102 2797.32 133.445 2803.74 120.039 2803.74C107.945 2803.74 98.9453 2798.49 93.0391 2787.99C88.1172 2779.23 85.6562 2767.46 85.6562 2752.7C85.6562 2741.26 87.1328 2731.44 90.0859 2723.23C95.6172 2707.95 105.625 2700.31 120.109 2700.31ZM119.969 2792.21C126.531 2792.21 131.758 2789.3 135.648 2783.49C139.539 2777.68 141.484 2766.85 141.484 2751.01C141.484 2739.57 140.078 2730.17 137.266 2722.81C134.453 2715.41 128.992 2711.7 120.883 2711.7C113.43 2711.7 107.969 2715.22 104.5 2722.25C101.078 2729.23 99.3672 2739.55 99.3672 2753.19C99.3672 2763.45 100.469 2771.7 102.672 2777.94C106.047 2787.45 111.812 2792.21 119.969 2792.21ZM259.469 2752.06C266.219 2752.06 271.984 2754.45 276.766 2759.23C281.547 2764.02 283.938 2769.78 283.938 2776.53C283.938 2783.28 281.547 2789.05 276.766 2793.83C271.984 2798.61 266.219 2801 259.469 2801C252.672 2801 246.883 2798.61 242.102 2793.83C237.32 2789.05 234.93 2783.28 234.93 2776.53C234.93 2769.78 237.32 2764.02 242.102 2759.23C246.883 2754.45 252.672 2752.06 259.469 2752.06ZM249.273 2700.73H257.078L200.758 2803.67H192.953L249.273 2700.73ZM190.422 2742.36C194.453 2742.36 197.875 2740.95 200.688 2738.14C203.547 2735.28 204.977 2731.86 204.977 2727.88C204.977 2723.89 203.547 2720.49 200.688 2717.68C197.875 2714.82 194.453 2713.39 190.422 2713.39C186.438 2713.39 183.016 2714.8 180.156 2717.61C177.344 2720.42 175.938 2723.84 175.938 2727.88C175.938 2731.86 177.344 2735.28 180.156 2738.14C183.016 2740.95 186.438 2742.36 190.422 2742.36ZM190.422 2703.34C197.219 2703.34 203.008 2705.75 207.789 2710.58C212.57 2715.36 214.961 2721.12 214.961 2727.88C214.961 2734.62 212.57 2740.39 207.789 2745.17C203.008 2749.95 197.219 2752.34 190.422 2752.34C183.672 2752.34 177.906 2749.95 173.125 2745.17C168.344 2740.39 165.953 2734.62 165.953 2727.88C165.953 2721.12 168.344 2715.36 173.125 2710.58C177.906 2705.75 183.672 2703.34 190.422 2703.34ZM259.469 2791.02C263.453 2791.02 266.852 2789.61 269.664 2786.8C272.523 2783.94 273.953 2780.52 273.953 2776.53C273.953 2772.55 272.523 2769.15 269.664 2766.34C266.852 2763.48 263.453 2762.05 259.469 2762.05C255.438 2762.05 251.992 2763.48 249.133 2766.34C246.32 2769.15 244.914 2772.55 244.914 2776.53C244.914 2780.52 246.32 2783.94 249.133 2786.8C251.992 2789.61 255.438 2791.02 259.469 2791.02ZM340.82 2697.71H354.953V2740.39H408.672V2697.71H422.805V2801H408.672V2752.7H354.953V2801H340.82V2697.71ZM452.547 2780.96C452.547 2784.62 453.883 2787.5 456.555 2789.61C459.227 2791.72 462.391 2792.77 466.047 2792.77C470.5 2792.77 474.812 2791.74 478.984 2789.68C486.016 2786.26 489.531 2780.66 489.531 2772.88V2762.68C487.984 2763.66 485.992 2764.48 483.555 2765.14C481.117 2765.8 478.727 2766.27 476.383 2766.55L468.719 2767.53C464.125 2768.14 460.68 2769.1 458.383 2770.41C454.492 2772.62 452.547 2776.13 452.547 2780.96ZM483.203 2755.37C486.109 2754.99 488.055 2753.77 489.039 2751.71C489.602 2750.59 489.883 2748.97 489.883 2746.86C489.883 2742.55 488.336 2739.43 485.242 2737.51C482.195 2735.54 477.812 2734.55 472.094 2734.55C465.484 2734.55 460.797 2736.34 458.031 2739.9C456.484 2741.87 455.477 2744.8 455.008 2748.69H443.195C443.43 2739.41 446.43 2732.96 452.195 2729.35C458.008 2725.7 464.734 2723.87 472.375 2723.87C481.234 2723.87 488.43 2725.55 493.961 2728.93C499.445 2732.3 502.188 2737.55 502.188 2744.68V2788.06C502.188 2789.38 502.445 2790.43 502.961 2791.23C503.523 2792.02 504.672 2792.42 506.406 2792.42C506.969 2792.42 507.602 2792.4 508.305 2792.35C509.008 2792.26 509.758 2792.14 510.555 2792V2801.35C508.586 2801.91 507.086 2802.27 506.055 2802.41C505.023 2802.55 503.617 2802.62 501.836 2802.62C497.477 2802.62 494.312 2801.07 492.344 2797.98C491.312 2796.34 490.586 2794.02 490.164 2791.02C487.586 2794.39 483.883 2797.32 479.055 2799.8C474.227 2802.29 468.906 2803.53 463.094 2803.53C456.109 2803.53 450.391 2801.42 445.938 2797.2C441.531 2792.94 439.328 2787.62 439.328 2781.24C439.328 2774.26 441.508 2768.84 445.867 2765C450.227 2761.16 455.945 2758.79 463.023 2757.9L483.203 2755.37ZM529.188 2725.7L549.297 2787.01L570.32 2725.7H584.172L555.766 2801H542.266L514.492 2725.7H529.188ZM626.359 2724.01C631.703 2724.01 636.883 2725.27 641.898 2727.8C646.914 2730.29 650.734 2733.52 653.359 2737.51C655.891 2741.3 657.578 2745.73 658.422 2750.8C659.172 2754.27 659.547 2759.8 659.547 2767.39H604.352C604.586 2775.03 606.391 2781.17 609.766 2785.81C613.141 2790.41 618.367 2792.7 625.445 2792.7C632.055 2792.7 637.328 2790.52 641.266 2786.16C643.516 2783.63 645.109 2780.7 646.047 2777.38H658.492C658.164 2780.14 657.062 2783.23 655.188 2786.66C653.359 2790.03 651.297 2792.8 649 2794.95C645.156 2798.7 640.398 2801.23 634.727 2802.55C631.68 2803.3 628.234 2803.67 624.391 2803.67C615.016 2803.67 607.07 2800.27 600.555 2793.48C594.039 2786.63 590.781 2777.07 590.781 2764.79C590.781 2752.7 594.062 2742.88 600.625 2735.33C607.188 2727.78 615.766 2724.01 626.359 2724.01ZM646.539 2757.34C646.023 2751.85 644.828 2747.47 642.953 2744.19C639.484 2738.09 633.695 2735.05 625.586 2735.05C619.773 2735.05 614.898 2737.16 610.961 2741.38C607.023 2745.55 604.938 2750.87 604.703 2757.34H646.539ZM789.555 2697.71V2710.02H754.75V2801H740.547V2710.02H705.742V2697.71H789.555ZM795.742 2725.7H807.766V2738.7C808.75 2736.17 811.164 2733.1 815.008 2729.49C818.852 2725.84 823.281 2724.01 828.297 2724.01C828.531 2724.01 828.93 2724.03 829.492 2724.08C830.055 2724.12 831.016 2724.22 832.375 2724.36V2737.72C831.625 2737.58 830.922 2737.48 830.266 2737.44C829.656 2737.39 828.977 2737.37 828.227 2737.37C821.852 2737.37 816.953 2739.43 813.531 2743.55C810.109 2747.63 808.398 2752.34 808.398 2757.69V2801H795.742V2725.7ZM873.227 2792.84C881.617 2792.84 887.359 2789.68 890.453 2783.35C893.594 2776.98 895.164 2769.9 895.164 2762.12C895.164 2755.09 894.039 2749.37 891.789 2744.96C888.227 2738.02 882.086 2734.55 873.367 2734.55C865.633 2734.55 860.008 2737.51 856.492 2743.41C852.977 2749.32 851.219 2756.45 851.219 2764.79C851.219 2772.8 852.977 2779.48 856.492 2784.83C860.008 2790.17 865.586 2792.84 873.227 2792.84ZM873.719 2723.52C883.422 2723.52 891.625 2726.75 898.328 2733.22C905.031 2739.69 908.383 2749.2 908.383 2761.77C908.383 2773.91 905.43 2783.94 899.523 2791.86C893.617 2799.78 884.453 2803.74 872.031 2803.74C861.672 2803.74 853.445 2800.25 847.352 2793.27C841.258 2786.23 838.211 2776.81 838.211 2765C838.211 2752.34 841.422 2742.27 847.844 2734.77C854.266 2727.27 862.891 2723.52 873.719 2723.52ZM936.156 2725.7V2775.69C936.156 2779.53 936.766 2782.67 937.984 2785.11C940.234 2789.61 944.43 2791.86 950.57 2791.86C959.383 2791.86 965.383 2787.92 968.57 2780.05C970.305 2775.83 971.172 2770.04 971.172 2762.68V2725.7H983.828V2801H971.875L972.016 2789.89C970.375 2792.75 968.336 2795.16 965.898 2797.13C961.07 2801.07 955.211 2803.04 948.32 2803.04C937.586 2803.04 930.273 2799.45 926.383 2792.28C924.273 2788.44 923.219 2783.3 923.219 2776.88V2725.7H936.156ZM1002.67 2697.36H1014.98V2734.84C1017.74 2731.23 1021.05 2728.48 1024.89 2726.61C1028.73 2724.69 1032.91 2723.73 1037.41 2723.73C1046.78 2723.73 1054.38 2726.96 1060.19 2733.43C1066.05 2739.85 1068.98 2749.34 1068.98 2761.91C1068.98 2773.81 1066.09 2783.7 1060.33 2791.58C1054.56 2799.45 1046.57 2803.39 1036.35 2803.39C1030.63 2803.39 1025.8 2802.01 1021.87 2799.24C1019.52 2797.6 1017.02 2794.98 1014.34 2791.37V2801H1002.67V2697.36ZM1035.58 2792.21C1042.42 2792.21 1047.53 2789.49 1050.91 2784.05C1054.33 2778.62 1056.04 2771.45 1056.04 2762.54C1056.04 2754.62 1054.33 2748.05 1050.91 2742.85C1047.53 2737.65 1042.54 2735.05 1035.93 2735.05C1030.16 2735.05 1025.1 2737.18 1020.74 2741.45C1016.43 2745.71 1014.27 2752.74 1014.27 2762.54C1014.27 2769.62 1015.16 2775.36 1016.95 2779.77C1020.27 2788.06 1026.48 2792.21 1035.58 2792.21ZM1084.16 2697.71H1096.82V2801H1084.16V2697.71ZM1147.23 2724.01C1152.58 2724.01 1157.76 2725.27 1162.77 2727.8C1167.79 2730.29 1171.61 2733.52 1174.23 2737.51C1176.77 2741.3 1178.45 2745.73 1179.3 2750.8C1180.05 2754.27 1180.42 2759.8 1180.42 2767.39H1125.23C1125.46 2775.03 1127.27 2781.17 1130.64 2785.81C1134.02 2790.41 1139.24 2792.7 1146.32 2792.7C1152.93 2792.7 1158.2 2790.52 1162.14 2786.16C1164.39 2783.63 1165.98 2780.7 1166.92 2777.38H1179.37C1179.04 2780.14 1177.94 2783.23 1176.06 2786.66C1174.23 2790.03 1172.17 2792.8 1169.88 2794.95C1166.03 2798.7 1161.27 2801.23 1155.6 2802.55C1152.55 2803.3 1149.11 2803.67 1145.27 2803.67C1135.89 2803.67 1127.95 2800.27 1121.43 2793.48C1114.91 2786.63 1111.66 2777.07 1111.66 2764.79C1111.66 2752.7 1114.94 2742.88 1121.5 2735.33C1128.06 2727.78 1136.64 2724.01 1147.23 2724.01ZM1167.41 2757.34C1166.9 2751.85 1165.7 2747.47 1163.83 2744.19C1160.36 2738.09 1154.57 2735.05 1146.46 2735.05C1140.65 2735.05 1135.77 2737.16 1131.84 2741.38C1127.9 2745.55 1125.81 2750.87 1125.58 2757.34H1167.41ZM1244.62 2697.71L1264.09 2781.73L1287.44 2697.71H1302.62L1325.97 2781.73L1345.45 2697.71H1360.77L1333.63 2801H1318.94L1295.1 2715.36L1271.12 2801H1256.43L1229.43 2697.71H1244.62ZM1372.09 2726.05H1384.96V2801H1372.09V2726.05ZM1372.09 2697.71H1384.96V2712.05H1372.09V2697.71ZM1406.69 2704.67H1419.48V2725.7H1431.51V2736.03H1419.48V2785.18C1419.48 2787.8 1420.38 2789.56 1422.16 2790.45C1423.14 2790.97 1424.78 2791.23 1427.08 2791.23C1427.69 2791.23 1428.34 2791.23 1429.05 2791.23C1429.75 2791.18 1430.57 2791.11 1431.51 2791.02V2801C1430.05 2801.42 1428.53 2801.73 1426.94 2801.91C1425.39 2802.1 1423.7 2802.2 1421.88 2802.2C1415.97 2802.2 1411.96 2800.7 1409.85 2797.7C1407.74 2794.65 1406.69 2790.71 1406.69 2785.88V2736.03H1396.49V2725.7H1406.69V2704.67ZM1444.23 2697.36H1456.89V2735.89C1459.89 2732.09 1462.59 2729.42 1464.98 2727.88C1469.05 2725.2 1474.14 2723.87 1480.23 2723.87C1491.16 2723.87 1498.56 2727.69 1502.45 2735.33C1504.56 2739.5 1505.62 2745.29 1505.62 2752.7V2801H1492.61V2753.54C1492.61 2748.01 1491.91 2743.95 1490.5 2741.38C1488.2 2737.25 1483.89 2735.19 1477.56 2735.19C1472.31 2735.19 1467.55 2736.99 1463.29 2740.6C1459.02 2744.21 1456.89 2751.03 1456.89 2761.06V2801H1444.23V2697.36ZM1566.51 2697.71H1580.64V2740.39H1634.36V2697.71H1648.49V2801H1634.36V2752.7H1580.64V2801H1566.51V2697.71ZM1715.57 2725.7H1729.56C1727.78 2730.52 1723.82 2741.54 1717.68 2758.74C1713.09 2771.68 1709.24 2782.23 1706.15 2790.38C1698.84 2809.6 1693.68 2821.32 1690.68 2825.54C1687.68 2829.76 1682.52 2831.87 1675.21 2831.87C1673.43 2831.87 1672.05 2831.8 1671.06 2831.66C1670.12 2831.52 1668.95 2831.26 1667.55 2830.88V2819.35C1669.75 2819.96 1671.34 2820.34 1672.33 2820.48C1673.31 2820.62 1674.18 2820.69 1674.93 2820.69C1677.27 2820.69 1678.98 2820.29 1680.06 2819.49C1681.19 2818.74 1682.12 2817.8 1682.88 2816.68C1683.11 2816.3 1683.95 2814.38 1685.41 2810.91C1686.86 2807.45 1687.91 2804.87 1688.57 2803.18L1660.73 2725.7H1675.07L1695.25 2787.01L1715.57 2725.7ZM1772.31 2792.49C1778.22 2792.49 1783.12 2790.03 1787.01 2785.11C1790.95 2780.14 1792.91 2772.73 1792.91 2762.89C1792.91 2756.89 1792.05 2751.73 1790.31 2747.42C1787.03 2739.12 1781.03 2734.98 1772.31 2734.98C1763.55 2734.98 1757.55 2739.36 1754.31 2748.12C1752.58 2752.81 1751.71 2758.77 1751.71 2765.98C1751.71 2771.8 1752.58 2776.74 1754.31 2780.82C1757.59 2788.6 1763.59 2792.49 1772.31 2792.49ZM1739.55 2726.05H1751.85V2736.03C1754.38 2732.61 1757.15 2729.96 1760.15 2728.09C1764.41 2725.27 1769.43 2723.87 1775.2 2723.87C1783.73 2723.87 1790.97 2727.15 1796.92 2733.71C1802.88 2740.23 1805.85 2749.55 1805.85 2761.7C1805.85 2778.1 1801.56 2789.82 1792.98 2796.85C1787.55 2801.3 1781.22 2803.53 1774 2803.53C1768.33 2803.53 1763.57 2802.29 1759.73 2799.8C1757.48 2798.4 1754.97 2795.98 1752.2 2792.56V2831.02H1739.55V2726.05ZM1852.05 2724.01C1857.39 2724.01 1862.57 2725.27 1867.59 2727.8C1872.6 2730.29 1876.42 2733.52 1879.05 2737.51C1881.58 2741.3 1883.27 2745.73 1884.11 2750.8C1884.86 2754.27 1885.23 2759.8 1885.23 2767.39H1830.04C1830.27 2775.03 1832.08 2781.17 1835.45 2785.81C1838.83 2790.41 1844.05 2792.7 1851.13 2792.7C1857.74 2792.7 1863.02 2790.52 1866.95 2786.16C1869.2 2783.63 1870.8 2780.7 1871.73 2777.38H1884.18C1883.85 2780.14 1882.75 2783.23 1880.88 2786.66C1879.05 2790.03 1876.98 2792.8 1874.69 2794.95C1870.84 2798.7 1866.09 2801.23 1860.41 2802.55C1857.37 2803.3 1853.92 2803.67 1850.08 2803.67C1840.7 2803.67 1832.76 2800.27 1826.24 2793.48C1819.73 2786.63 1816.47 2777.07 1816.47 2764.79C1816.47 2752.7 1819.75 2742.88 1826.31 2735.33C1832.88 2727.78 1841.45 2724.01 1852.05 2724.01ZM1872.23 2757.34C1871.71 2751.85 1870.52 2747.47 1868.64 2744.19C1865.17 2738.09 1859.38 2735.05 1851.27 2735.05C1845.46 2735.05 1840.59 2737.16 1836.65 2741.38C1832.71 2745.55 1830.62 2750.87 1830.39 2757.34H1872.23ZM1901.2 2725.7H1913.22V2738.7C1914.2 2736.17 1916.62 2733.1 1920.46 2729.49C1924.3 2725.84 1928.73 2724.01 1933.75 2724.01C1933.98 2724.01 1934.38 2724.03 1934.95 2724.08C1935.51 2724.12 1936.47 2724.22 1937.83 2724.36V2737.72C1937.08 2737.58 1936.38 2737.48 1935.72 2737.44C1935.11 2737.39 1934.43 2737.37 1933.68 2737.37C1927.3 2737.37 1922.41 2739.43 1918.98 2743.55C1915.56 2747.63 1913.85 2752.34 1913.85 2757.69V2801H1901.2V2725.7ZM1980.58 2792.49C1986.48 2792.49 1991.38 2790.03 1995.27 2785.11C1999.21 2780.14 2001.18 2772.73 2001.18 2762.89C2001.18 2756.89 2000.31 2751.73 1998.58 2747.42C1995.3 2739.12 1989.3 2734.98 1980.58 2734.98C1971.81 2734.98 1965.81 2739.36 1962.58 2748.12C1960.84 2752.81 1959.98 2758.77 1959.98 2765.98C1959.98 2771.8 1960.84 2776.74 1962.58 2780.82C1965.86 2788.6 1971.86 2792.49 1980.58 2792.49ZM1947.81 2726.05H1960.12V2736.03C1962.65 2732.61 1965.41 2729.96 1968.41 2728.09C1972.68 2725.27 1977.7 2723.87 1983.46 2723.87C1991.99 2723.87 1999.23 2727.15 2005.19 2733.71C2011.14 2740.23 2014.12 2749.55 2014.12 2761.7C2014.12 2778.1 2009.83 2789.82 2001.25 2796.85C1995.81 2801.3 1989.48 2803.53 1982.27 2803.53C1976.59 2803.53 1971.84 2802.29 1967.99 2799.8C1965.74 2798.4 1963.23 2795.98 1960.47 2792.56V2831.02H1947.81V2726.05ZM2028.95 2726.05H2041.82V2801H2028.95V2726.05ZM2028.95 2697.71H2041.82V2712.05H2028.95V2697.71ZM2087.59 2724.36C2093.5 2724.36 2098.66 2725.81 2103.06 2728.72C2105.45 2730.36 2107.89 2732.75 2110.38 2735.89V2726.4H2122.05V2794.88C2122.05 2804.45 2120.64 2811.99 2117.83 2817.52C2112.58 2827.74 2102.66 2832.85 2088.09 2832.85C2079.98 2832.85 2073.16 2831.02 2067.62 2827.37C2062.09 2823.76 2059 2818.09 2058.34 2810.35H2071.21C2071.82 2813.73 2073.04 2816.33 2074.87 2818.16C2077.73 2820.97 2082.23 2822.38 2088.37 2822.38C2098.07 2822.38 2104.42 2818.95 2107.42 2812.11C2109.2 2808.08 2110.02 2800.88 2109.88 2790.52C2107.35 2794.37 2104.3 2797.23 2100.74 2799.1C2097.18 2800.98 2092.47 2801.91 2086.61 2801.91C2078.45 2801.91 2071.3 2799.03 2065.16 2793.27C2059.07 2787.45 2056.02 2777.87 2056.02 2764.51C2056.02 2751.9 2059.09 2742.05 2065.23 2734.98C2071.42 2727.9 2078.88 2724.36 2087.59 2724.36ZM2110.38 2763.03C2110.38 2753.7 2108.45 2746.79 2104.61 2742.29C2100.77 2737.79 2095.87 2735.54 2089.91 2735.54C2081.01 2735.54 2074.91 2739.71 2071.63 2748.05C2069.9 2752.51 2069.03 2758.34 2069.03 2765.56C2069.03 2774.05 2070.74 2780.52 2074.16 2784.97C2077.63 2789.38 2082.27 2791.58 2088.09 2791.58C2097.18 2791.58 2103.58 2787.48 2107.28 2779.27C2109.34 2774.63 2110.38 2769.22 2110.38 2763.03ZM2141.17 2725.7H2153.69V2736.38C2156.69 2732.68 2159.41 2729.98 2161.84 2728.3C2166.02 2725.44 2170.75 2724.01 2176.05 2724.01C2182.05 2724.01 2186.88 2725.48 2190.53 2728.44C2192.59 2730.12 2194.47 2732.61 2196.16 2735.89C2198.97 2731.86 2202.27 2728.88 2206.07 2726.96C2209.87 2724.99 2214.13 2724.01 2218.87 2724.01C2228.99 2724.01 2235.88 2727.66 2239.54 2734.98C2241.51 2738.91 2242.49 2744.21 2242.49 2750.87V2801H2229.34V2748.69C2229.34 2743.67 2228.08 2740.23 2225.55 2738.35C2223.06 2736.48 2220.02 2735.54 2216.41 2735.54C2211.44 2735.54 2207.15 2737.2 2203.54 2740.53C2199.98 2743.86 2198.2 2749.41 2198.2 2757.2V2801H2185.33V2751.85C2185.33 2746.74 2184.72 2743.02 2183.5 2740.67C2181.58 2737.16 2177.99 2735.4 2172.74 2735.4C2167.96 2735.4 2163.6 2737.25 2159.66 2740.95C2155.77 2744.66 2153.83 2751.36 2153.83 2761.06V2801H2141.17V2725.7ZM2292.48 2724.01C2297.83 2724.01 2303.01 2725.27 2308.02 2727.8C2313.04 2730.29 2316.86 2733.52 2319.48 2737.51C2322.02 2741.3 2323.7 2745.73 2324.55 2750.8C2325.3 2754.27 2325.67 2759.8 2325.67 2767.39H2270.48C2270.71 2775.03 2272.52 2781.17 2275.89 2785.81C2279.27 2790.41 2284.49 2792.7 2291.57 2792.7C2298.18 2792.7 2303.45 2790.52 2307.39 2786.16C2309.64 2783.63 2311.23 2780.7 2312.17 2777.38H2324.62C2324.29 2780.14 2323.19 2783.23 2321.31 2786.66C2319.48 2790.03 2317.42 2792.8 2315.12 2794.95C2311.28 2798.7 2306.52 2801.23 2300.85 2802.55C2297.8 2803.3 2294.36 2803.67 2290.52 2803.67C2281.14 2803.67 2273.2 2800.27 2266.68 2793.48C2260.16 2786.63 2256.91 2777.07 2256.91 2764.79C2256.91 2752.7 2260.19 2742.88 2266.75 2735.33C2273.31 2727.78 2281.89 2724.01 2292.48 2724.01ZM2312.66 2757.34C2312.15 2751.85 2310.95 2747.47 2309.08 2744.19C2305.61 2738.09 2299.82 2735.05 2291.71 2735.05C2285.9 2735.05 2281.02 2737.16 2277.09 2741.38C2273.15 2745.55 2271.06 2750.87 2270.83 2757.34H2312.66ZM2341.28 2725.7H2353.3V2736.38C2356.87 2731.98 2360.64 2728.81 2364.62 2726.89C2368.61 2724.97 2373.04 2724.01 2377.91 2724.01C2388.6 2724.01 2395.82 2727.73 2399.57 2735.19C2401.63 2739.27 2402.66 2745.1 2402.66 2752.7V2801H2389.8V2753.54C2389.8 2748.95 2389.12 2745.24 2387.76 2742.43C2385.51 2737.74 2381.43 2735.4 2375.52 2735.4C2372.52 2735.4 2370.06 2735.7 2368.14 2736.31C2364.67 2737.34 2361.62 2739.41 2359 2742.5C2356.89 2744.98 2355.51 2747.56 2354.85 2750.23C2354.24 2752.86 2353.94 2756.63 2353.94 2761.55V2801H2341.28V2725.7ZM2423.97 2704.67H2436.77V2725.7H2448.79V2736.03H2436.77V2785.18C2436.77 2787.8 2437.66 2789.56 2439.44 2790.45C2440.42 2790.97 2442.06 2791.23 2444.36 2791.23C2444.97 2791.23 2445.62 2791.23 2446.33 2791.23C2447.03 2791.18 2447.85 2791.11 2448.79 2791.02V2801C2447.34 2801.42 2445.81 2801.73 2444.22 2801.91C2442.67 2802.1 2440.98 2802.2 2439.16 2802.2C2433.25 2802.2 2429.24 2800.7 2427.13 2797.7C2425.02 2794.65 2423.97 2790.71 2423.97 2785.88V2736.03H2413.77V2725.7H2423.97V2704.67ZM2471.22 2780.96C2471.22 2784.62 2472.55 2787.5 2475.23 2789.61C2477.9 2791.72 2481.06 2792.77 2484.72 2792.77C2489.17 2792.77 2493.48 2791.74 2497.66 2789.68C2504.69 2786.26 2508.2 2780.66 2508.2 2772.88V2762.68C2506.66 2763.66 2504.66 2764.48 2502.23 2765.14C2499.79 2765.8 2497.4 2766.27 2495.05 2766.55L2487.39 2767.53C2482.8 2768.14 2479.35 2769.1 2477.05 2770.41C2473.16 2772.62 2471.22 2776.13 2471.22 2780.96ZM2501.88 2755.37C2504.78 2754.99 2506.73 2753.77 2507.71 2751.71C2508.27 2750.59 2508.55 2748.97 2508.55 2746.86C2508.55 2742.55 2507.01 2739.43 2503.91 2737.51C2500.87 2735.54 2496.48 2734.55 2490.77 2734.55C2484.16 2734.55 2479.47 2736.34 2476.7 2739.9C2475.16 2741.87 2474.15 2744.8 2473.68 2748.69H2461.87C2462.1 2739.41 2465.1 2732.96 2470.87 2729.35C2476.68 2725.7 2483.41 2723.87 2491.05 2723.87C2499.91 2723.87 2507.1 2725.55 2512.63 2728.93C2518.12 2732.3 2520.86 2737.55 2520.86 2744.68V2788.06C2520.86 2789.38 2521.12 2790.43 2521.63 2791.23C2522.2 2792.02 2523.34 2792.42 2525.08 2792.42C2525.64 2792.42 2526.27 2792.4 2526.98 2792.35C2527.68 2792.26 2528.43 2792.14 2529.23 2792V2801.35C2527.26 2801.91 2525.76 2802.27 2524.73 2802.41C2523.7 2802.55 2522.29 2802.62 2520.51 2802.62C2516.15 2802.62 2512.98 2801.07 2511.02 2797.98C2509.98 2796.34 2509.26 2794.02 2508.84 2791.02C2506.26 2794.39 2502.55 2797.32 2497.73 2799.8C2492.9 2802.29 2487.58 2803.53 2481.77 2803.53C2474.78 2803.53 2469.06 2801.42 2464.61 2797.2C2460.2 2792.94 2458 2787.62 2458 2781.24C2458 2774.26 2460.18 2768.84 2464.54 2765C2468.9 2761.16 2474.62 2758.79 2481.7 2757.9L2501.88 2755.37ZM2544.2 2704.67H2557V2725.7H2569.02V2736.03H2557V2785.18C2557 2787.8 2557.89 2789.56 2559.67 2790.45C2560.66 2790.97 2562.3 2791.23 2564.59 2791.23C2565.2 2791.23 2565.86 2791.23 2566.56 2791.23C2567.27 2791.18 2568.09 2791.11 2569.02 2791.02V2801C2567.57 2801.42 2566.05 2801.73 2564.45 2801.91C2562.91 2802.1 2561.22 2802.2 2559.39 2802.2C2553.48 2802.2 2549.48 2800.7 2547.37 2797.7C2545.26 2794.65 2544.2 2790.71 2544.2 2785.88V2736.03H2534.01V2725.7H2544.2V2704.67ZM2581.75 2726.05H2594.62V2801H2581.75V2726.05ZM2581.75 2697.71H2594.62V2712.05H2581.75V2697.71ZM2643.7 2792.84C2652.09 2792.84 2657.83 2789.68 2660.92 2783.35C2664.06 2776.98 2665.63 2769.9 2665.63 2762.12C2665.63 2755.09 2664.51 2749.37 2662.26 2744.96C2658.7 2738.02 2652.55 2734.55 2643.84 2734.55C2636.1 2734.55 2630.48 2737.51 2626.96 2743.41C2623.45 2749.32 2621.69 2756.45 2621.69 2764.79C2621.69 2772.8 2623.45 2779.48 2626.96 2784.83C2630.48 2790.17 2636.05 2792.84 2643.7 2792.84ZM2644.19 2723.52C2653.89 2723.52 2662.09 2726.75 2668.8 2733.22C2675.5 2739.69 2678.85 2749.2 2678.85 2761.77C2678.85 2773.91 2675.9 2783.94 2669.99 2791.86C2664.09 2799.78 2654.92 2803.74 2642.5 2803.74C2632.14 2803.74 2623.91 2800.25 2617.82 2793.27C2611.73 2786.23 2608.68 2776.81 2608.68 2765C2608.68 2752.34 2611.89 2742.27 2618.31 2734.77C2624.73 2727.27 2633.36 2723.52 2644.19 2723.52ZM2693.97 2725.7H2705.99V2736.38C2709.55 2731.98 2713.33 2728.81 2717.31 2726.89C2721.3 2724.97 2725.73 2724.01 2730.6 2724.01C2741.29 2724.01 2748.51 2727.73 2752.26 2735.19C2754.32 2739.27 2755.35 2745.1 2755.35 2752.7V2801H2742.48V2753.54C2742.48 2748.95 2741.8 2745.24 2740.45 2742.43C2738.2 2737.74 2734.12 2735.4 2728.21 2735.4C2725.21 2735.4 2722.75 2735.7 2720.83 2736.31C2717.36 2737.34 2714.31 2739.41 2711.69 2742.5C2709.58 2744.98 2708.2 2747.56 2707.54 2750.23C2706.93 2752.86 2706.62 2756.63 2706.62 2761.55V2801H2693.97V2725.7Z" fill="black"/>
<path d="M1530.55 860.141H1539.97V888.594H1575.78V860.141H1585.2V929H1575.78V896.797H1539.97V929H1530.55V860.141ZM1629.92 878.797H1639.25C1638.06 882.016 1635.42 889.359 1631.33 900.828C1628.27 909.453 1625.7 916.484 1623.64 921.922C1618.77 934.734 1615.33 942.547 1613.33 945.359C1611.33 948.172 1607.89 949.578 1603.02 949.578C1601.83 949.578 1600.91 949.531 1600.25 949.438C1599.62 949.344 1598.84 949.172 1597.91 948.922V941.234C1599.38 941.641 1600.44 941.891 1601.09 941.984C1601.75 942.078 1602.33 942.125 1602.83 942.125C1604.39 942.125 1605.53 941.859 1606.25 941.328C1607 940.828 1607.62 940.203 1608.12 939.453C1608.28 939.203 1608.84 937.922 1609.81 935.609C1610.78 933.297 1611.48 931.578 1611.92 930.453L1593.36 878.797H1602.92L1616.38 919.672L1629.92 878.797ZM1667.75 923.328C1671.69 923.328 1674.95 921.688 1677.55 918.406C1680.17 915.094 1681.48 910.156 1681.48 903.594C1681.48 899.594 1680.91 896.156 1679.75 893.281C1677.56 887.75 1673.56 884.984 1667.75 884.984C1661.91 884.984 1657.91 887.906 1655.75 893.75C1654.59 896.875 1654.02 900.844 1654.02 905.656C1654.02 909.531 1654.59 912.828 1655.75 915.547C1657.94 920.734 1661.94 923.328 1667.75 923.328ZM1645.91 879.031H1654.11V885.688C1655.8 883.406 1657.64 881.641 1659.64 880.391C1662.48 878.516 1665.83 877.578 1669.67 877.578C1675.36 877.578 1680.19 879.766 1684.16 884.141C1688.12 888.484 1690.11 894.703 1690.11 902.797C1690.11 913.734 1687.25 921.547 1681.53 926.234C1677.91 929.203 1673.69 930.688 1668.88 930.688C1665.09 930.688 1661.92 929.859 1659.36 928.203C1657.86 927.266 1656.19 925.656 1654.34 923.375V949.016H1645.91V879.031ZM1720.91 877.672C1724.47 877.672 1727.92 878.516 1731.27 880.203C1734.61 881.859 1737.16 884.016 1738.91 886.672C1740.59 889.203 1741.72 892.156 1742.28 895.531C1742.78 897.844 1743.03 901.531 1743.03 906.594H1706.23C1706.39 911.688 1707.59 915.781 1709.84 918.875C1712.09 921.938 1715.58 923.469 1720.3 923.469C1724.7 923.469 1728.22 922.016 1730.84 919.109C1732.34 917.422 1733.41 915.469 1734.03 913.25H1742.33C1742.11 915.094 1741.38 917.156 1740.12 919.438C1738.91 921.688 1737.53 923.531 1736 924.969C1733.44 927.469 1730.27 929.156 1726.48 930.031C1724.45 930.531 1722.16 930.781 1719.59 930.781C1713.34 930.781 1708.05 928.516 1703.7 923.984C1699.36 919.422 1697.19 913.047 1697.19 904.859C1697.19 896.797 1699.38 890.25 1703.75 885.219C1708.12 880.188 1713.84 877.672 1720.91 877.672ZM1734.36 899.891C1734.02 896.234 1733.22 893.312 1731.97 891.125C1729.66 887.062 1725.8 885.031 1720.39 885.031C1716.52 885.031 1713.27 886.438 1710.64 889.25C1708.02 892.031 1706.62 895.578 1706.47 899.891H1734.36ZM1753.67 878.797H1761.69V887.469C1762.34 885.781 1763.95 883.734 1766.52 881.328C1769.08 878.891 1772.03 877.672 1775.38 877.672C1775.53 877.672 1775.8 877.688 1776.17 877.719C1776.55 877.75 1777.19 877.812 1778.09 877.906V886.812C1777.59 886.719 1777.12 886.656 1776.69 886.625C1776.28 886.594 1775.83 886.578 1775.33 886.578C1771.08 886.578 1767.81 887.953 1765.53 890.703C1763.25 893.422 1762.11 896.562 1762.11 900.125V929H1753.67V878.797ZM1806.59 923.328C1810.53 923.328 1813.8 921.688 1816.39 918.406C1819.02 915.094 1820.33 910.156 1820.33 903.594C1820.33 899.594 1819.75 896.156 1818.59 893.281C1816.41 887.75 1812.41 884.984 1806.59 884.984C1800.75 884.984 1796.75 887.906 1794.59 893.75C1793.44 896.875 1792.86 900.844 1792.86 905.656C1792.86 909.531 1793.44 912.828 1794.59 915.547C1796.78 920.734 1800.78 923.328 1806.59 923.328ZM1784.75 879.031H1792.95V885.688C1794.64 883.406 1796.48 881.641 1798.48 880.391C1801.33 878.516 1804.67 877.578 1808.52 877.578C1814.2 877.578 1819.03 879.766 1823 884.141C1826.97 888.484 1828.95 894.703 1828.95 902.797C1828.95 913.734 1826.09 921.547 1820.38 926.234C1816.75 929.203 1812.53 930.688 1807.72 930.688C1803.94 930.688 1800.77 929.859 1798.2 928.203C1796.7 927.266 1795.03 925.656 1793.19 923.375V949.016H1784.75V879.031ZM1838.84 879.031H1847.42V929H1838.84V879.031ZM1838.84 860.141H1847.42V869.703H1838.84V860.141ZM1877.94 877.906C1881.88 877.906 1885.31 878.875 1888.25 880.812C1889.84 881.906 1891.47 883.5 1893.12 885.594V879.266H1900.91V924.922C1900.91 931.297 1899.97 936.328 1898.09 940.016C1894.59 946.828 1887.98 950.234 1878.27 950.234C1872.86 950.234 1868.31 949.016 1864.62 946.578C1860.94 944.172 1858.88 940.391 1858.44 935.234H1867.02C1867.42 937.484 1868.23 939.219 1869.45 940.438C1871.36 942.312 1874.36 943.25 1878.45 943.25C1884.92 943.25 1889.16 940.969 1891.16 936.406C1892.34 933.719 1892.89 928.922 1892.8 922.016C1891.11 924.578 1889.08 926.484 1886.7 927.734C1884.33 928.984 1881.19 929.609 1877.28 929.609C1871.84 929.609 1867.08 927.688 1862.98 923.844C1858.92 919.969 1856.89 913.578 1856.89 904.672C1856.89 896.266 1858.94 889.703 1863.03 884.984C1867.16 880.266 1872.12 877.906 1877.94 877.906ZM1893.12 903.688C1893.12 897.469 1891.84 892.859 1889.28 889.859C1886.72 886.859 1883.45 885.359 1879.48 885.359C1873.55 885.359 1869.48 888.141 1867.3 893.703C1866.14 896.672 1865.56 900.562 1865.56 905.375C1865.56 911.031 1866.7 915.344 1868.98 918.312C1871.3 921.25 1874.39 922.719 1878.27 922.719C1884.33 922.719 1888.59 919.984 1891.06 914.516C1892.44 911.422 1893.12 907.812 1893.12 903.688ZM1913.66 878.797H1922V885.922C1924 883.453 1925.81 881.656 1927.44 880.531C1930.22 878.625 1933.38 877.672 1936.91 877.672C1940.91 877.672 1944.12 878.656 1946.56 880.625C1947.94 881.75 1949.19 883.406 1950.31 885.594C1952.19 882.906 1954.39 880.922 1956.92 879.641C1959.45 878.328 1962.3 877.672 1965.45 877.672C1972.2 877.672 1976.8 880.109 1979.23 884.984C1980.55 887.609 1981.2 891.141 1981.2 895.578V929H1972.44V894.125C1972.44 890.781 1971.59 888.484 1969.91 887.234C1968.25 885.984 1966.22 885.359 1963.81 885.359C1960.5 885.359 1957.64 886.469 1955.23 888.688C1952.86 890.906 1951.67 894.609 1951.67 899.797V929H1943.09V896.234C1943.09 892.828 1942.69 890.344 1941.88 888.781C1940.59 886.438 1938.2 885.266 1934.7 885.266C1931.52 885.266 1928.61 886.5 1925.98 888.969C1923.39 891.438 1922.09 895.906 1922.09 902.375V929H1913.66V878.797ZM2014.53 877.672C2018.09 877.672 2021.55 878.516 2024.89 880.203C2028.23 881.859 2030.78 884.016 2032.53 886.672C2034.22 889.203 2035.34 892.156 2035.91 895.531C2036.41 897.844 2036.66 901.531 2036.66 906.594H1999.86C2000.02 911.688 2001.22 915.781 2003.47 918.875C2005.72 921.938 2009.2 923.469 2013.92 923.469C2018.33 923.469 2021.84 922.016 2024.47 919.109C2025.97 917.422 2027.03 915.469 2027.66 913.25H2035.95C2035.73 915.094 2035 917.156 2033.75 919.438C2032.53 921.688 2031.16 923.531 2029.62 924.969C2027.06 927.469 2023.89 929.156 2020.11 930.031C2018.08 930.531 2015.78 930.781 2013.22 930.781C2006.97 930.781 2001.67 928.516 1997.33 923.984C1992.98 919.422 1990.81 913.047 1990.81 904.859C1990.81 896.797 1993 890.25 1997.38 885.219C2001.75 880.188 2007.47 877.672 2014.53 877.672ZM2027.98 899.891C2027.64 896.234 2026.84 893.312 2025.59 891.125C2023.28 887.062 2019.42 885.031 2014.02 885.031C2010.14 885.031 2006.89 886.438 2004.27 889.25C2001.64 892.031 2000.25 895.578 2000.09 899.891H2027.98ZM2047.06 878.797H2055.08V885.922C2057.45 882.984 2059.97 880.875 2062.62 879.594C2065.28 878.312 2068.23 877.672 2071.48 877.672C2078.61 877.672 2083.42 880.156 2085.92 885.125C2087.3 887.844 2087.98 891.734 2087.98 896.797V929H2079.41V897.359C2079.41 894.297 2078.95 891.828 2078.05 889.953C2076.55 886.828 2073.83 885.266 2069.89 885.266C2067.89 885.266 2066.25 885.469 2064.97 885.875C2062.66 886.562 2060.62 887.938 2058.88 890C2057.47 891.656 2056.55 893.375 2056.11 895.156C2055.7 896.906 2055.5 899.422 2055.5 902.703V929H2047.06V878.797ZM2102.19 864.781H2110.72V878.797H2118.73V885.688H2110.72V918.453C2110.72 920.203 2111.31 921.375 2112.5 921.969C2113.16 922.312 2114.25 922.484 2115.78 922.484C2116.19 922.484 2116.62 922.484 2117.09 922.484C2117.56 922.453 2118.11 922.406 2118.73 922.344V929C2117.77 929.281 2116.75 929.484 2115.69 929.609C2114.66 929.734 2113.53 929.797 2112.31 929.797C2108.38 929.797 2105.7 928.797 2104.3 926.797C2102.89 924.766 2102.19 922.141 2102.19 918.922V885.688H2095.39V878.797H2102.19V864.781ZM2133.69 915.641C2133.69 918.078 2134.58 920 2136.36 921.406C2138.14 922.812 2140.25 923.516 2142.69 923.516C2145.66 923.516 2148.53 922.828 2151.31 921.453C2156 919.172 2158.34 915.438 2158.34 910.25V903.453C2157.31 904.109 2155.98 904.656 2154.36 905.094C2152.73 905.531 2151.14 905.844 2149.58 906.031L2144.47 906.688C2141.41 907.094 2139.11 907.734 2137.58 908.609C2134.98 910.078 2133.69 912.422 2133.69 915.641ZM2154.12 898.578C2156.06 898.328 2157.36 897.516 2158.02 896.141C2158.39 895.391 2158.58 894.312 2158.58 892.906C2158.58 890.031 2157.55 887.953 2155.48 886.672C2153.45 885.359 2150.53 884.703 2146.72 884.703C2142.31 884.703 2139.19 885.891 2137.34 888.266C2136.31 889.578 2135.64 891.531 2135.33 894.125H2127.45C2127.61 887.938 2129.61 883.641 2133.45 881.234C2137.33 878.797 2141.81 877.578 2146.91 877.578C2152.81 877.578 2157.61 878.703 2161.3 880.953C2164.95 883.203 2166.78 886.703 2166.78 891.453V920.375C2166.78 921.25 2166.95 921.953 2167.3 922.484C2167.67 923.016 2168.44 923.281 2169.59 923.281C2169.97 923.281 2170.39 923.266 2170.86 923.234C2171.33 923.172 2171.83 923.094 2172.36 923V929.234C2171.05 929.609 2170.05 929.844 2169.36 929.938C2168.67 930.031 2167.73 930.078 2166.55 930.078C2163.64 930.078 2161.53 929.047 2160.22 926.984C2159.53 925.891 2159.05 924.344 2158.77 922.344C2157.05 924.594 2154.58 926.547 2151.36 928.203C2148.14 929.859 2144.59 930.688 2140.72 930.688C2136.06 930.688 2132.25 929.281 2129.28 926.469C2126.34 923.625 2124.88 920.078 2124.88 915.828C2124.88 911.172 2126.33 907.562 2129.23 905C2132.14 902.438 2135.95 900.859 2140.67 900.266L2154.12 898.578ZM2182.34 864.781H2190.88V878.797H2198.89V885.688H2190.88V918.453C2190.88 920.203 2191.47 921.375 2192.66 921.969C2193.31 922.312 2194.41 922.484 2195.94 922.484C2196.34 922.484 2196.78 922.484 2197.25 922.484C2197.72 922.453 2198.27 922.406 2198.89 922.344V929C2197.92 929.281 2196.91 929.484 2195.84 929.609C2194.81 929.734 2193.69 929.797 2192.47 929.797C2188.53 929.797 2185.86 928.797 2184.45 926.797C2183.05 924.766 2182.34 922.141 2182.34 918.922V885.688H2175.55V878.797H2182.34V864.781ZM2207.38 879.031H2215.95V929H2207.38V879.031ZM2207.38 860.141H2215.95V869.703H2207.38V860.141ZM2248.67 923.562C2254.27 923.562 2258.09 921.453 2260.16 917.234C2262.25 912.984 2263.3 908.266 2263.3 903.078C2263.3 898.391 2262.55 894.578 2261.05 891.641C2258.67 887.016 2254.58 884.703 2248.77 884.703C2243.61 884.703 2239.86 886.672 2237.52 890.609C2235.17 894.547 2234 899.297 2234 904.859C2234 910.203 2235.17 914.656 2237.52 918.219C2239.86 921.781 2243.58 923.562 2248.67 923.562ZM2249 877.344C2255.47 877.344 2260.94 879.5 2265.41 883.812C2269.88 888.125 2272.11 894.469 2272.11 902.844C2272.11 910.938 2270.14 917.625 2266.2 922.906C2262.27 928.188 2256.16 930.828 2247.88 930.828C2240.97 930.828 2235.48 928.5 2231.42 923.844C2227.36 919.156 2225.33 912.875 2225.33 905C2225.33 896.562 2227.47 889.844 2231.75 884.844C2236.03 879.844 2241.78 877.344 2249 877.344ZM2282.19 878.797H2290.2V885.922C2292.58 882.984 2295.09 880.875 2297.75 879.594C2300.41 878.312 2303.36 877.672 2306.61 877.672C2313.73 877.672 2318.55 880.156 2321.05 885.125C2322.42 887.844 2323.11 891.734 2323.11 896.797V929H2314.53V897.359C2314.53 894.297 2314.08 891.828 2313.17 889.953C2311.67 886.828 2308.95 885.266 2305.02 885.266C2303.02 885.266 2301.38 885.469 2300.09 885.875C2297.78 886.562 2295.75 887.938 2294 890C2292.59 891.656 2291.67 893.375 2291.23 895.156C2290.83 896.906 2290.62 899.422 2290.62 902.703V929H2282.19V878.797Z" fill="black"/>
<path d="M707.188 523.25C711.125 523.25 714.188 522.703 716.375 521.609C719.812 519.891 721.531 516.797 721.531 512.328C721.531 507.828 719.703 504.797 716.047 503.234C713.984 502.359 710.922 501.922 706.859 501.922H690.219V523.25H707.188ZM710.328 555.031C716.047 555.031 720.125 553.375 722.562 550.062C724.094 547.969 724.859 545.438 724.859 542.469C724.859 537.469 722.625 534.062 718.156 532.25C715.781 531.281 712.641 530.797 708.734 530.797H690.219V555.031H710.328ZM681.078 494.141H710.656C718.719 494.141 724.453 496.547 727.859 501.359C729.859 504.203 730.859 507.484 730.859 511.203C730.859 515.547 729.625 519.109 727.156 521.891C725.875 523.359 724.031 524.703 721.625 525.922C725.156 527.266 727.797 528.781 729.547 530.469C732.641 533.469 734.188 537.609 734.188 542.891C734.188 547.328 732.797 551.344 730.016 554.938C725.859 560.312 719.25 563 710.188 563H681.078V494.141ZM744.453 512.797H752.469V521.469C753.125 519.781 754.734 517.734 757.297 515.328C759.859 512.891 762.812 511.672 766.156 511.672C766.312 511.672 766.578 511.688 766.953 511.719C767.328 511.75 767.969 511.812 768.875 511.906V520.812C768.375 520.719 767.906 520.656 767.469 520.625C767.062 520.594 766.609 520.578 766.109 520.578C761.859 520.578 758.594 521.953 756.312 524.703C754.031 527.422 752.891 530.562 752.891 534.125V563H744.453V512.797ZM776.188 513.031H784.766V563H776.188V513.031ZM776.188 494.141H784.766V503.703H776.188V494.141ZM815.281 511.906C819.219 511.906 822.656 512.875 825.594 514.812C827.188 515.906 828.812 517.5 830.469 519.594V513.266H838.25V558.922C838.25 565.297 837.312 570.328 835.438 574.016C831.938 580.828 825.328 584.234 815.609 584.234C810.203 584.234 805.656 583.016 801.969 580.578C798.281 578.172 796.219 574.391 795.781 569.234H804.359C804.766 571.484 805.578 573.219 806.797 574.438C808.703 576.312 811.703 577.25 815.797 577.25C822.266 577.25 826.5 574.969 828.5 570.406C829.688 567.719 830.234 562.922 830.141 556.016C828.453 558.578 826.422 560.484 824.047 561.734C821.672 562.984 818.531 563.609 814.625 563.609C809.188 563.609 804.422 561.688 800.328 557.844C796.266 553.969 794.234 547.578 794.234 538.672C794.234 530.266 796.281 523.703 800.375 518.984C804.5 514.266 809.469 511.906 815.281 511.906ZM830.469 537.688C830.469 531.469 829.188 526.859 826.625 523.859C824.062 520.859 820.797 519.359 816.828 519.359C810.891 519.359 806.828 522.141 804.641 527.703C803.484 530.672 802.906 534.562 802.906 539.375C802.906 545.031 804.047 549.344 806.328 552.312C808.641 555.25 811.734 556.719 815.609 556.719C821.672 556.719 825.938 553.984 828.406 548.516C829.781 545.422 830.469 541.812 830.469 537.688ZM851 493.906H859.438V519.594C861.438 517.062 863.234 515.281 864.828 514.25C867.547 512.469 870.938 511.578 875 511.578C882.281 511.578 887.219 514.125 889.812 519.219C891.219 522 891.922 525.859 891.922 530.797V563H883.25V531.359C883.25 527.672 882.781 524.969 881.844 523.25C880.312 520.5 877.438 519.125 873.219 519.125C869.719 519.125 866.547 520.328 863.703 522.734C860.859 525.141 859.438 529.688 859.438 536.375V563H851V493.906ZM906.125 498.781H914.656V512.797H922.672V519.688H914.656V552.453C914.656 554.203 915.25 555.375 916.438 555.969C917.094 556.312 918.188 556.484 919.719 556.484C920.125 556.484 920.562 556.484 921.031 556.484C921.5 556.453 922.047 556.406 922.672 556.344V563C921.703 563.281 920.688 563.484 919.625 563.609C918.594 563.734 917.469 563.797 916.25 563.797C912.312 563.797 909.641 562.797 908.234 560.797C906.828 558.766 906.125 556.141 906.125 552.922V519.688H899.328V512.797H906.125V498.781ZM931.156 512.797H939.172V519.922C941.547 516.984 944.062 514.875 946.719 513.594C949.375 512.312 952.328 511.672 955.578 511.672C962.703 511.672 967.516 514.156 970.016 519.125C971.391 521.844 972.078 525.734 972.078 530.797V563H963.5V531.359C963.5 528.297 963.047 525.828 962.141 523.953C960.641 520.828 957.922 519.266 953.984 519.266C951.984 519.266 950.344 519.469 949.062 519.875C946.75 520.562 944.719 521.938 942.969 524C941.562 525.656 940.641 527.375 940.203 529.156C939.797 530.906 939.594 533.422 939.594 536.703V563H931.156V512.797ZM1005.5 511.672C1009.06 511.672 1012.52 512.516 1015.86 514.203C1019.2 515.859 1021.75 518.016 1023.5 520.672C1025.19 523.203 1026.31 526.156 1026.88 529.531C1027.38 531.844 1027.62 535.531 1027.62 540.594H990.828C990.984 545.688 992.188 549.781 994.438 552.875C996.688 555.938 1000.17 557.469 1004.89 557.469C1009.3 557.469 1012.81 556.016 1015.44 553.109C1016.94 551.422 1018 549.469 1018.62 547.25H1026.92C1026.7 549.094 1025.97 551.156 1024.72 553.438C1023.5 555.688 1022.12 557.531 1020.59 558.969C1018.03 561.469 1014.86 563.156 1011.08 564.031C1009.05 564.531 1006.75 564.781 1004.19 564.781C997.938 564.781 992.641 562.516 988.297 557.984C983.953 553.422 981.781 547.047 981.781 538.859C981.781 530.797 983.969 524.25 988.344 519.219C992.719 514.188 998.438 511.672 1005.5 511.672ZM1018.95 533.891C1018.61 530.234 1017.81 527.312 1016.56 525.125C1014.25 521.062 1010.39 519.031 1004.98 519.031C1001.11 519.031 997.859 520.438 995.234 523.25C992.609 526.031 991.219 529.578 991.062 533.891H1018.95ZM1043.05 547.25C1043.3 550.062 1044 552.219 1045.16 553.719C1047.28 556.438 1050.97 557.797 1056.22 557.797C1059.34 557.797 1062.09 557.125 1064.47 555.781C1066.84 554.406 1068.03 552.297 1068.03 549.453C1068.03 547.297 1067.08 545.656 1065.17 544.531C1063.95 543.844 1061.55 543.047 1057.95 542.141L1051.25 540.453C1046.97 539.391 1043.81 538.203 1041.78 536.891C1038.16 534.609 1036.34 531.453 1036.34 527.422C1036.34 522.672 1038.05 518.828 1041.45 515.891C1044.89 512.953 1049.5 511.484 1055.28 511.484C1062.84 511.484 1068.3 513.703 1071.64 518.141C1073.73 520.953 1074.75 523.984 1074.69 527.234H1066.72C1066.56 525.328 1065.89 523.594 1064.7 522.031C1062.77 519.812 1059.41 518.703 1054.62 518.703C1051.44 518.703 1049.02 519.312 1047.36 520.531C1045.73 521.75 1044.92 523.359 1044.92 525.359C1044.92 527.547 1046 529.297 1048.16 530.609C1049.41 531.391 1051.25 532.078 1053.69 532.672L1059.27 534.031C1065.33 535.5 1069.39 536.922 1071.45 538.297C1074.73 540.453 1076.38 543.844 1076.38 548.469C1076.38 552.938 1074.67 556.797 1071.27 560.047C1067.89 563.297 1062.73 564.922 1055.8 564.922C1048.33 564.922 1043.03 563.234 1039.91 559.859C1036.81 556.453 1035.16 552.25 1034.94 547.25H1043.05ZM1091.05 547.25C1091.3 550.062 1092 552.219 1093.16 553.719C1095.28 556.438 1098.97 557.797 1104.22 557.797C1107.34 557.797 1110.09 557.125 1112.47 555.781C1114.84 554.406 1116.03 552.297 1116.03 549.453C1116.03 547.297 1115.08 545.656 1113.17 544.531C1111.95 543.844 1109.55 543.047 1105.95 542.141L1099.25 540.453C1094.97 539.391 1091.81 538.203 1089.78 536.891C1086.16 534.609 1084.34 531.453 1084.34 527.422C1084.34 522.672 1086.05 518.828 1089.45 515.891C1092.89 512.953 1097.5 511.484 1103.28 511.484C1110.84 511.484 1116.3 513.703 1119.64 518.141C1121.73 520.953 1122.75 523.984 1122.69 527.234H1114.72C1114.56 525.328 1113.89 523.594 1112.7 522.031C1110.77 519.812 1107.41 518.703 1102.62 518.703C1099.44 518.703 1097.02 519.312 1095.36 520.531C1093.73 521.75 1092.92 523.359 1092.92 525.359C1092.92 527.547 1094 529.297 1096.16 530.609C1097.41 531.391 1099.25 532.078 1101.69 532.672L1107.27 534.031C1113.33 535.5 1117.39 536.922 1119.45 538.297C1122.73 540.453 1124.38 543.844 1124.38 548.469C1124.38 552.938 1122.67 556.797 1119.27 560.047C1115.89 563.297 1110.73 564.922 1103.8 564.922C1096.33 564.922 1091.03 563.234 1087.91 559.859C1084.81 556.453 1083.16 552.25 1082.94 547.25H1091.05Z" fill="black"/>
<path d="M1623.66 1898.78L1613.2 1868.36L1602.09 1898.78H1623.66ZM1608.33 1858.14H1618.88L1643.86 1927H1633.64L1626.66 1906.38H1599.42L1591.97 1927H1582.41L1608.33 1858.14ZM1670.58 1875.34C1676.23 1875.34 1680.83 1876.72 1684.36 1879.47C1687.92 1882.22 1690.06 1886.95 1690.78 1893.67H1682.58C1682.08 1890.58 1680.94 1888.02 1679.16 1885.98C1677.38 1883.92 1674.52 1882.89 1670.58 1882.89C1665.2 1882.89 1661.36 1885.52 1659.05 1890.77C1657.55 1894.17 1656.8 1898.38 1656.8 1903.38C1656.8 1908.41 1657.86 1912.64 1659.98 1916.08C1662.11 1919.52 1665.45 1921.23 1670.02 1921.23C1673.52 1921.23 1676.28 1920.17 1678.31 1918.05C1680.38 1915.89 1681.8 1912.95 1682.58 1909.23H1690.78C1689.84 1915.89 1687.5 1920.77 1683.75 1923.86C1680 1926.92 1675.2 1928.45 1669.36 1928.45C1662.8 1928.45 1657.56 1926.06 1653.66 1921.28C1649.75 1916.47 1647.8 1910.47 1647.8 1903.28C1647.8 1894.47 1649.94 1887.61 1654.22 1882.7C1658.5 1877.8 1663.95 1875.34 1670.58 1875.34ZM1699.22 1876.8H1707.23V1883.92C1709.61 1880.98 1712.12 1878.88 1714.78 1877.59C1717.44 1876.31 1720.39 1875.67 1723.64 1875.67C1730.77 1875.67 1735.58 1878.16 1738.08 1883.12C1739.45 1885.84 1740.14 1889.73 1740.14 1894.8V1927H1731.56V1895.36C1731.56 1892.3 1731.11 1889.83 1730.2 1887.95C1728.7 1884.83 1725.98 1883.27 1722.05 1883.27C1720.05 1883.27 1718.41 1883.47 1717.12 1883.88C1714.81 1884.56 1712.78 1885.94 1711.03 1888C1709.62 1889.66 1708.7 1891.38 1708.27 1893.16C1707.86 1894.91 1707.66 1897.42 1707.66 1900.7V1927H1699.22V1876.8ZM1773.56 1875.67C1777.12 1875.67 1780.58 1876.52 1783.92 1878.2C1787.27 1879.86 1789.81 1882.02 1791.56 1884.67C1793.25 1887.2 1794.38 1890.16 1794.94 1893.53C1795.44 1895.84 1795.69 1899.53 1795.69 1904.59H1758.89C1759.05 1909.69 1760.25 1913.78 1762.5 1916.88C1764.75 1919.94 1768.23 1921.47 1772.95 1921.47C1777.36 1921.47 1780.88 1920.02 1783.5 1917.11C1785 1915.42 1786.06 1913.47 1786.69 1911.25H1794.98C1794.77 1913.09 1794.03 1915.16 1792.78 1917.44C1791.56 1919.69 1790.19 1921.53 1788.66 1922.97C1786.09 1925.47 1782.92 1927.16 1779.14 1928.03C1777.11 1928.53 1774.81 1928.78 1772.25 1928.78C1766 1928.78 1760.7 1926.52 1756.36 1921.98C1752.02 1917.42 1749.84 1911.05 1749.84 1902.86C1749.84 1894.8 1752.03 1888.25 1756.41 1883.22C1760.78 1878.19 1766.5 1875.67 1773.56 1875.67ZM1787.02 1897.89C1786.67 1894.23 1785.88 1891.31 1784.62 1889.12C1782.31 1885.06 1778.45 1883.03 1773.05 1883.03C1769.17 1883.03 1765.92 1884.44 1763.3 1887.25C1760.67 1890.03 1759.28 1893.58 1759.12 1897.89H1787.02Z" fill="black"/>
<path d="M538.75 1897.03C541.906 1897.03 544.5 1896.7 546.531 1896.05C550.156 1894.83 553.125 1892.48 555.438 1889.02C557.281 1886.23 558.609 1882.67 559.422 1878.33C559.891 1875.73 560.125 1873.33 560.125 1871.11C560.125 1862.58 558.422 1855.95 555.016 1851.23C551.641 1846.52 546.188 1844.16 538.656 1844.16H522.109V1897.03H538.75ZM512.734 1836.14H540.625C550.094 1836.14 557.438 1839.5 562.656 1846.22C567.312 1852.28 569.641 1860.05 569.641 1869.52C569.641 1876.83 568.266 1883.44 565.516 1889.34C560.672 1899.78 552.344 1905 540.531 1905H512.734V1836.14ZM580.797 1854.8H588.812V1863.47C589.469 1861.78 591.078 1859.73 593.641 1857.33C596.203 1854.89 599.156 1853.67 602.5 1853.67C602.656 1853.67 602.922 1853.69 603.297 1853.72C603.672 1853.75 604.312 1853.81 605.219 1853.91V1862.81C604.719 1862.72 604.25 1862.66 603.812 1862.62C603.406 1862.59 602.953 1862.58 602.453 1862.58C598.203 1862.58 594.938 1863.95 592.656 1866.7C590.375 1869.42 589.234 1872.56 589.234 1876.12V1905H580.797V1854.8ZM643.891 1854.8H653.219C652.031 1858.02 649.391 1865.36 645.297 1876.83C642.234 1885.45 639.672 1892.48 637.609 1897.92C632.734 1910.73 629.297 1918.55 627.297 1921.36C625.297 1924.17 621.859 1925.58 616.984 1925.58C615.797 1925.58 614.875 1925.53 614.219 1925.44C613.594 1925.34 612.812 1925.17 611.875 1924.92V1917.23C613.344 1917.64 614.406 1917.89 615.062 1917.98C615.719 1918.08 616.297 1918.12 616.797 1918.12C618.359 1918.12 619.5 1917.86 620.219 1917.33C620.969 1916.83 621.594 1916.2 622.094 1915.45C622.25 1915.2 622.812 1913.92 623.781 1911.61C624.75 1909.3 625.453 1907.58 625.891 1906.45L607.328 1854.8H616.891L630.344 1895.67L643.891 1854.8ZM694.469 1882.78C694.688 1886.69 695.609 1889.86 697.234 1892.3C700.328 1896.86 705.781 1899.14 713.594 1899.14C717.094 1899.14 720.281 1898.64 723.156 1897.64C728.719 1895.7 731.5 1892.23 731.5 1887.23C731.5 1883.48 730.328 1880.81 727.984 1879.22C725.609 1877.66 721.891 1876.3 716.828 1875.14L707.5 1873.03C701.406 1871.66 697.094 1870.14 694.562 1868.48C690.188 1865.61 688 1861.31 688 1855.59C688 1849.41 690.141 1844.33 694.422 1840.36C698.703 1836.39 704.766 1834.41 712.609 1834.41C719.828 1834.41 725.953 1836.16 730.984 1839.66C736.047 1843.12 738.578 1848.69 738.578 1856.34H729.812C729.344 1852.66 728.344 1849.83 726.812 1847.86C723.969 1844.27 719.141 1842.47 712.328 1842.47C706.828 1842.47 702.875 1843.62 700.469 1845.94C698.062 1848.25 696.859 1850.94 696.859 1854C696.859 1857.38 698.266 1859.84 701.078 1861.41C702.922 1862.41 707.094 1863.66 713.594 1865.16L723.25 1867.36C727.906 1868.42 731.5 1869.88 734.031 1871.72C738.406 1874.94 740.594 1879.61 740.594 1885.73C740.594 1893.36 737.812 1898.81 732.25 1902.09C726.719 1905.38 720.281 1907.02 712.938 1907.02C704.375 1907.02 697.672 1904.83 692.828 1900.45C687.984 1896.11 685.609 1890.22 685.703 1882.78H694.469ZM751.094 1836.14H759.203V1876.12L780.859 1854.8H791.641L772.422 1873.59L792.719 1905H781.938L766.281 1879.69L759.203 1886.16V1905H751.094V1836.14ZM799.281 1855.03H807.859V1905H799.281V1855.03ZM799.281 1836.14H807.859V1845.7H799.281V1836.14ZM820.656 1854.8H828.672V1861.92C831.047 1858.98 833.562 1856.88 836.219 1855.59C838.875 1854.31 841.828 1853.67 845.078 1853.67C852.203 1853.67 857.016 1856.16 859.516 1861.12C860.891 1863.84 861.578 1867.73 861.578 1872.8V1905H853V1873.36C853 1870.3 852.547 1867.83 851.641 1865.95C850.141 1862.83 847.422 1861.27 843.484 1861.27C841.484 1861.27 839.844 1861.47 838.562 1861.88C836.25 1862.56 834.219 1863.94 832.469 1866C831.062 1867.66 830.141 1869.38 829.703 1871.16C829.297 1872.91 829.094 1875.42 829.094 1878.7V1905H820.656V1854.8Z" fill="black"/>
<path d="M232.328 1156.69C236.703 1156.69 240.156 1155.81 242.688 1154.06C245.25 1152.31 246.531 1149.16 246.531 1144.59C246.531 1139.69 244.75 1136.34 241.188 1134.56C239.281 1133.62 236.734 1133.16 233.547 1133.16H210.766V1156.69H232.328ZM201.438 1125.14H233.312C238.562 1125.14 242.891 1125.91 246.297 1127.44C252.766 1130.38 256 1135.8 256 1143.7C256 1147.83 255.141 1151.2 253.422 1153.83C251.734 1156.45 249.359 1158.56 246.297 1160.16C248.984 1161.25 251 1162.69 252.344 1164.47C253.719 1166.25 254.484 1169.14 254.641 1173.14L254.969 1182.38C255.062 1185 255.281 1186.95 255.625 1188.23C256.188 1190.42 257.188 1191.83 258.625 1192.45V1194H247.188C246.875 1193.41 246.625 1192.64 246.438 1191.7C246.25 1190.77 246.094 1188.95 245.969 1186.27L245.406 1174.78C245.188 1170.28 243.516 1167.27 240.391 1165.73C238.609 1164.89 235.812 1164.47 232 1164.47H210.766V1194H201.438V1125.14ZM288.484 1188.56C294.078 1188.56 297.906 1186.45 299.969 1182.23C302.062 1177.98 303.109 1173.27 303.109 1168.08C303.109 1163.39 302.359 1159.58 300.859 1156.64C298.484 1152.02 294.391 1149.7 288.578 1149.7C283.422 1149.7 279.672 1151.67 277.328 1155.61C274.984 1159.55 273.812 1164.3 273.812 1169.86C273.812 1175.2 274.984 1179.66 277.328 1183.22C279.672 1186.78 283.391 1188.56 288.484 1188.56ZM288.812 1142.34C295.281 1142.34 300.75 1144.5 305.219 1148.81C309.688 1153.12 311.922 1159.47 311.922 1167.84C311.922 1175.94 309.953 1182.62 306.016 1187.91C302.078 1193.19 295.969 1195.83 287.688 1195.83C280.781 1195.83 275.297 1193.5 271.234 1188.84C267.172 1184.16 265.141 1177.88 265.141 1170C265.141 1161.56 267.281 1154.84 271.562 1149.84C275.844 1144.84 281.594 1142.34 288.812 1142.34ZM330.438 1143.8V1177.12C330.438 1179.69 330.844 1181.78 331.656 1183.41C333.156 1186.41 335.953 1187.91 340.047 1187.91C345.922 1187.91 349.922 1185.28 352.047 1180.03C353.203 1177.22 353.781 1173.36 353.781 1168.45V1143.8H362.219V1194H354.25L354.344 1186.59C353.25 1188.5 351.891 1190.11 350.266 1191.42C347.047 1194.05 343.141 1195.36 338.547 1195.36C331.391 1195.36 326.516 1192.97 323.922 1188.19C322.516 1185.62 321.812 1182.2 321.812 1177.92V1143.8H330.438ZM393.156 1142.91C397.094 1142.91 400.531 1143.88 403.469 1145.81C405.062 1146.91 406.688 1148.5 408.344 1150.59V1144.27H416.125V1189.92C416.125 1196.3 415.188 1201.33 413.312 1205.02C409.812 1211.83 403.203 1215.23 393.484 1215.23C388.078 1215.23 383.531 1214.02 379.844 1211.58C376.156 1209.17 374.094 1205.39 373.656 1200.23H382.234C382.641 1202.48 383.453 1204.22 384.672 1205.44C386.578 1207.31 389.578 1208.25 393.672 1208.25C400.141 1208.25 404.375 1205.97 406.375 1201.41C407.562 1198.72 408.109 1193.92 408.016 1187.02C406.328 1189.58 404.297 1191.48 401.922 1192.73C399.547 1193.98 396.406 1194.61 392.5 1194.61C387.062 1194.61 382.297 1192.69 378.203 1188.84C374.141 1184.97 372.109 1178.58 372.109 1169.67C372.109 1161.27 374.156 1154.7 378.25 1149.98C382.375 1145.27 387.344 1142.91 393.156 1142.91ZM408.344 1168.69C408.344 1162.47 407.062 1157.86 404.5 1154.86C401.938 1151.86 398.672 1150.36 394.703 1150.36C388.766 1150.36 384.703 1153.14 382.516 1158.7C381.359 1161.67 380.781 1165.56 380.781 1170.38C380.781 1176.03 381.922 1180.34 384.203 1183.31C386.516 1186.25 389.609 1187.72 393.484 1187.72C399.547 1187.72 403.812 1184.98 406.281 1179.52C407.656 1176.42 408.344 1172.81 408.344 1168.69ZM428.875 1124.91H437.312V1150.59C439.312 1148.06 441.109 1146.28 442.703 1145.25C445.422 1143.47 448.812 1142.58 452.875 1142.58C460.156 1142.58 465.094 1145.12 467.688 1150.22C469.094 1153 469.797 1156.86 469.797 1161.8V1194H461.125V1162.36C461.125 1158.67 460.656 1155.97 459.719 1154.25C458.188 1151.5 455.312 1150.12 451.094 1150.12C447.594 1150.12 444.422 1151.33 441.578 1153.73C438.734 1156.14 437.312 1160.69 437.312 1167.38V1194H428.875V1124.91ZM558.578 1125.14V1133.34H535.375V1194H525.906V1133.34H502.703V1125.14H558.578ZM576.25 1142.67C579.812 1142.67 583.266 1143.52 586.609 1145.2C589.953 1146.86 592.5 1149.02 594.25 1151.67C595.938 1154.2 597.062 1157.16 597.625 1160.53C598.125 1162.84 598.375 1166.53 598.375 1171.59H561.578C561.734 1176.69 562.938 1180.78 565.188 1183.88C567.438 1186.94 570.922 1188.47 575.641 1188.47C580.047 1188.47 583.562 1187.02 586.188 1184.11C587.688 1182.42 588.75 1180.47 589.375 1178.25H597.672C597.453 1180.09 596.719 1182.16 595.469 1184.44C594.25 1186.69 592.875 1188.53 591.344 1189.97C588.781 1192.47 585.609 1194.16 581.828 1195.03C579.797 1195.53 577.5 1195.78 574.938 1195.78C568.688 1195.78 563.391 1193.52 559.047 1188.98C554.703 1184.42 552.531 1178.05 552.531 1169.86C552.531 1161.8 554.719 1155.25 559.094 1150.22C563.469 1145.19 569.188 1142.67 576.25 1142.67ZM589.703 1164.89C589.359 1161.23 588.562 1158.31 587.312 1156.12C585 1152.06 581.141 1150.03 575.734 1150.03C571.859 1150.03 568.609 1151.44 565.984 1154.25C563.359 1157.03 561.969 1160.58 561.812 1164.89H589.703ZM604 1143.8H614.922L626.453 1161.47L638.125 1143.8L648.391 1144.03L631.469 1168.27L649.141 1194H638.359L625.891 1175.16L613.797 1194H603.109L620.781 1168.27L604 1143.8ZM658.469 1129.78H667V1143.8H675.016V1150.69H667V1183.45C667 1185.2 667.594 1186.38 668.781 1186.97C669.438 1187.31 670.531 1187.48 672.062 1187.48C672.469 1187.48 672.906 1187.48 673.375 1187.48C673.844 1187.45 674.391 1187.41 675.016 1187.34V1194C674.047 1194.28 673.031 1194.48 671.969 1194.61C670.938 1194.73 669.812 1194.8 668.594 1194.8C664.656 1194.8 661.984 1193.8 660.578 1191.8C659.172 1189.77 658.469 1187.14 658.469 1183.92V1150.69H651.672V1143.8H658.469V1129.78ZM691.938 1143.8V1177.12C691.938 1179.69 692.344 1181.78 693.156 1183.41C694.656 1186.41 697.453 1187.91 701.547 1187.91C707.422 1187.91 711.422 1185.28 713.547 1180.03C714.703 1177.22 715.281 1173.36 715.281 1168.45V1143.8H723.719V1194H715.75L715.844 1186.59C714.75 1188.5 713.391 1190.11 711.766 1191.42C708.547 1194.05 704.641 1195.36 700.047 1195.36C692.891 1195.36 688.016 1192.97 685.422 1188.19C684.016 1185.62 683.312 1182.2 683.312 1177.92V1143.8H691.938ZM737.172 1143.8H745.188V1152.47C745.844 1150.78 747.453 1148.73 750.016 1146.33C752.578 1143.89 755.531 1142.67 758.875 1142.67C759.031 1142.67 759.297 1142.69 759.672 1142.72C760.047 1142.75 760.688 1142.81 761.594 1142.91V1151.81C761.094 1151.72 760.625 1151.66 760.188 1151.62C759.781 1151.59 759.328 1151.58 758.828 1151.58C754.578 1151.58 751.312 1152.95 749.031 1155.7C746.75 1158.42 745.609 1161.56 745.609 1165.12V1194H737.172V1143.8ZM789.812 1142.67C793.375 1142.67 796.828 1143.52 800.172 1145.2C803.516 1146.86 806.062 1149.02 807.812 1151.67C809.5 1154.2 810.625 1157.16 811.188 1160.53C811.688 1162.84 811.938 1166.53 811.938 1171.59H775.141C775.297 1176.69 776.5 1180.78 778.75 1183.88C781 1186.94 784.484 1188.47 789.203 1188.47C793.609 1188.47 797.125 1187.02 799.75 1184.11C801.25 1182.42 802.312 1180.47 802.938 1178.25H811.234C811.016 1180.09 810.281 1182.16 809.031 1184.44C807.812 1186.69 806.438 1188.53 804.906 1189.97C802.344 1192.47 799.172 1194.16 795.391 1195.03C793.359 1195.53 791.062 1195.78 788.5 1195.78C782.25 1195.78 776.953 1193.52 772.609 1188.98C768.266 1184.42 766.094 1178.05 766.094 1169.86C766.094 1161.8 768.281 1155.25 772.656 1150.22C777.031 1145.19 782.75 1142.67 789.812 1142.67ZM803.266 1164.89C802.922 1161.23 802.125 1158.31 800.875 1156.12C798.562 1152.06 794.703 1150.03 789.297 1150.03C785.422 1150.03 782.172 1151.44 779.547 1154.25C776.922 1157.03 775.531 1160.58 775.375 1164.89H803.266Z" fill="black"/>
</svg>
