<svg width="3058" height="2903" viewBox="0 0 3058 2903" fill="none" xmlns="http://www.w3.org/2000/svg">
<path d="M1608.5 1375.5V202.003C2256.6 202.003 2782 727.397 2782 1375.5C2782 2023.61 2256.6 2549 1608.5 2549C1553.12 2549 1497.81 2545.08 1442.98 2537.27L1608.5 1375.5Z" fill="#E5C646" stroke="white"/>
<path d="M1608.51 1375.5L1442.99 2537.27C1008.29 2475.34 644.531 2175.91 500.207 1761.22L1608.51 1375.5Z" fill="#F9F5E5" stroke="white"/>
<path d="M1608.5 1375.5L500.203 1761.22C393.589 1454.88 418.525 1118.08 569.089 830.779L1608.5 1375.5Z" fill="#F4E9BD" stroke="white"/>
<path d="M1608.51 1375.5L569.093 830.778C719.657 543.48 982.419 331.314 1294.99 244.657L1608.51 1375.5Z" fill="#EFDE96" stroke="white"/>
<path d="M1608.51 1375.5L1294.99 244.658C1397.09 216.352 1502.55 202.003 1608.51 202.003V1375.5Z" fill="#EAD26E" stroke="white"/>
<path d="M1788.66 1515.78L1778.2 1485.36L1767.09 1515.78H1788.66ZM1773.33 1475.14H1783.88L1808.86 1544H1798.64L1791.66 1523.38H1764.42L1756.97 1544H1747.41L1773.33 1475.14ZM1839.7 1475.14H1887.47V1483.58H1849.03V1504.49H1882.83V1512.69H1849.03V1544H1839.7V1475.14ZM1917.28 1492.67C1920.84 1492.67 1924.3 1493.52 1927.64 1495.21C1930.98 1496.86 1933.53 1499.02 1935.28 1501.67C1936.97 1504.21 1938.09 1507.16 1938.66 1510.53C1939.16 1512.85 1939.41 1516.53 1939.41 1521.6H1902.61C1902.77 1526.69 1903.97 1530.78 1906.22 1533.88C1908.47 1536.94 1911.95 1538.47 1916.67 1538.47C1921.08 1538.47 1924.59 1537.02 1927.22 1534.11C1928.72 1532.42 1929.78 1530.47 1930.41 1528.25H1938.7C1938.48 1530.1 1937.75 1532.16 1936.5 1534.44C1935.28 1536.69 1933.91 1538.53 1932.38 1539.97C1929.81 1542.47 1926.64 1544.16 1922.86 1545.03C1920.83 1545.53 1918.53 1545.78 1915.97 1545.78C1909.72 1545.78 1904.42 1543.52 1900.08 1538.99C1895.73 1534.42 1893.56 1528.05 1893.56 1519.86C1893.56 1511.8 1895.75 1505.25 1900.12 1500.22C1904.5 1495.19 1910.22 1492.67 1917.28 1492.67ZM1930.73 1514.89C1930.39 1511.24 1929.59 1508.32 1928.34 1506.13C1926.03 1502.07 1922.17 1500.03 1916.77 1500.03C1912.89 1500.03 1909.64 1501.44 1907.02 1504.25C1904.39 1507.03 1903 1510.58 1902.84 1514.89H1930.73ZM1953.7 1493.8L1963.36 1533.36L1973.16 1493.8H1982.62L1992.47 1533.13L2002.73 1493.8H2011.17L1996.59 1544H1987.83L1977.61 1505.14L1967.72 1544H1958.95L1944.47 1493.8H1953.7ZM2095.45 1475.14V1483.35H2072.25V1544H2062.78V1483.35H2039.58V1475.14H2095.45ZM2099.34 1494.03H2107.92V1544H2099.34V1494.03ZM2099.34 1475.14H2107.92V1484.71H2099.34V1475.14ZM2120.72 1493.8H2129.06V1500.92C2131.06 1498.46 2132.88 1496.66 2134.5 1495.53C2137.28 1493.63 2140.44 1492.67 2143.97 1492.67C2147.97 1492.67 2151.19 1493.66 2153.62 1495.63C2155 1496.75 2156.25 1498.41 2157.38 1500.6C2159.25 1497.91 2161.45 1495.92 2163.98 1494.64C2166.52 1493.33 2169.36 1492.67 2172.52 1492.67C2179.27 1492.67 2183.86 1495.11 2186.3 1499.99C2187.61 1502.61 2188.27 1506.14 2188.27 1510.58V1544H2179.5V1509.13C2179.5 1505.78 2178.66 1503.49 2176.97 1502.24C2175.31 1500.99 2173.28 1500.36 2170.88 1500.36C2167.56 1500.36 2164.7 1501.47 2162.3 1503.69C2159.92 1505.91 2158.73 1509.61 2158.73 1514.8V1544H2150.16V1511.24C2150.16 1507.83 2149.75 1505.35 2148.94 1503.78C2147.66 1501.44 2145.27 1500.27 2141.77 1500.27C2138.58 1500.27 2135.67 1501.5 2133.05 1503.97C2130.45 1506.44 2129.16 1510.91 2129.16 1517.38V1544H2120.72V1493.8ZM2221.59 1492.67C2225.16 1492.67 2228.61 1493.52 2231.95 1495.21C2235.3 1496.86 2237.84 1499.02 2239.59 1501.67C2241.28 1504.21 2242.41 1507.16 2242.97 1510.53C2243.47 1512.85 2243.72 1516.53 2243.72 1521.6H2206.92C2207.08 1526.69 2208.28 1530.78 2210.53 1533.88C2212.78 1536.94 2216.27 1538.47 2220.98 1538.47C2225.39 1538.47 2228.91 1537.02 2231.53 1534.11C2233.03 1532.42 2234.09 1530.47 2234.72 1528.25H2243.02C2242.8 1530.1 2242.06 1532.16 2240.81 1534.44C2239.59 1536.69 2238.22 1538.53 2236.69 1539.97C2234.12 1542.47 2230.95 1544.16 2227.17 1545.03C2225.14 1545.53 2222.84 1545.78 2220.28 1545.78C2214.03 1545.78 2208.73 1543.52 2204.39 1538.99C2200.05 1534.42 2197.88 1528.05 2197.88 1519.86C2197.88 1511.8 2200.06 1505.25 2204.44 1500.22C2208.81 1495.19 2214.53 1492.67 2221.59 1492.67ZM2235.05 1514.89C2234.7 1511.24 2233.91 1508.32 2232.66 1506.13C2230.34 1502.07 2226.48 1500.03 2221.08 1500.03C2217.2 1500.03 2213.95 1501.44 2211.33 1504.25C2208.7 1507.03 2207.31 1510.58 2207.16 1514.89H2235.05ZM2259.14 1528.25C2259.39 1531.07 2260.09 1533.22 2261.25 1534.72C2263.38 1537.44 2267.06 1538.8 2272.31 1538.8C2275.44 1538.8 2278.19 1538.13 2280.56 1536.78C2282.94 1535.41 2284.12 1533.3 2284.12 1530.46C2284.12 1528.3 2283.17 1526.66 2281.27 1525.53C2280.05 1524.85 2277.64 1524.05 2274.05 1523.14L2267.34 1521.46C2263.06 1520.39 2259.91 1519.21 2257.88 1517.89C2254.25 1515.61 2252.44 1512.46 2252.44 1508.42C2252.44 1503.67 2254.14 1499.83 2257.55 1496.89C2260.98 1493.96 2265.59 1492.49 2271.38 1492.49C2278.94 1492.49 2284.39 1494.71 2287.73 1499.14C2289.83 1501.96 2290.84 1504.99 2290.78 1508.24H2282.81C2282.66 1506.33 2281.98 1504.6 2280.8 1503.03C2278.86 1500.82 2275.5 1499.71 2270.72 1499.71C2267.53 1499.71 2265.11 1500.32 2263.45 1501.53C2261.83 1502.75 2261.02 1504.36 2261.02 1506.36C2261.02 1508.55 2262.09 1510.3 2264.25 1511.61C2265.5 1512.39 2267.34 1513.08 2269.78 1513.67L2275.36 1515.03C2281.42 1516.5 2285.48 1517.92 2287.55 1519.3C2290.83 1521.46 2292.47 1524.85 2292.47 1529.47C2292.47 1533.94 2290.77 1537.8 2287.36 1541.05C2283.98 1544.3 2278.83 1545.92 2271.89 1545.92C2264.42 1545.92 2259.12 1544.24 2256 1540.86C2252.91 1537.46 2251.25 1533.25 2251.03 1528.25H2259.14ZM2360.06 1515.78L2349.61 1485.36L2338.5 1515.78H2360.06ZM2344.73 1475.14H2355.28L2380.27 1544H2370.05L2363.06 1523.38H2335.83L2328.38 1544H2318.81L2344.73 1475.14ZM2414.77 1475.14L2427.75 1531.16L2443.31 1475.14H2453.44L2469 1531.16L2481.98 1475.14H2492.2L2474.11 1544H2464.31L2448.42 1486.91L2432.44 1544H2422.64L2404.64 1475.14H2414.77ZM2518.97 1492.67C2522.53 1492.67 2525.98 1493.52 2529.33 1495.21C2532.67 1496.86 2535.22 1499.02 2536.97 1501.67C2538.66 1504.21 2539.78 1507.16 2540.34 1510.53C2540.84 1512.85 2541.09 1516.53 2541.09 1521.6H2504.3C2504.45 1526.69 2505.66 1530.78 2507.91 1533.88C2510.16 1536.94 2513.64 1538.47 2518.36 1538.47C2522.77 1538.47 2526.28 1537.02 2528.91 1534.11C2530.41 1532.42 2531.47 1530.47 2532.09 1528.25H2540.39C2540.17 1530.1 2539.44 1532.16 2538.19 1534.44C2536.97 1536.69 2535.59 1538.53 2534.06 1539.97C2531.5 1542.47 2528.33 1544.16 2524.55 1545.03C2522.52 1545.53 2520.22 1545.78 2517.66 1545.78C2511.41 1545.78 2506.11 1543.52 2501.77 1538.99C2497.42 1534.42 2495.25 1528.05 2495.25 1519.86C2495.25 1511.8 2497.44 1505.25 2501.81 1500.22C2506.19 1495.19 2511.91 1492.67 2518.97 1492.67ZM2532.42 1514.89C2532.08 1511.24 2531.28 1508.32 2530.03 1506.13C2527.72 1502.07 2523.86 1500.03 2518.45 1500.03C2514.58 1500.03 2511.33 1501.44 2508.7 1504.25C2506.08 1507.03 2504.69 1510.58 2504.53 1514.89H2532.42ZM2572.41 1492.67C2575.97 1492.67 2579.42 1493.52 2582.77 1495.21C2586.11 1496.86 2588.66 1499.02 2590.41 1501.67C2592.09 1504.21 2593.22 1507.16 2593.78 1510.53C2594.28 1512.85 2594.53 1516.53 2594.53 1521.6H2557.73C2557.89 1526.69 2559.09 1530.78 2561.34 1533.88C2563.59 1536.94 2567.08 1538.47 2571.8 1538.47C2576.2 1538.47 2579.72 1537.02 2582.34 1534.11C2583.84 1532.42 2584.91 1530.47 2585.53 1528.25H2593.83C2593.61 1530.1 2592.88 1532.16 2591.62 1534.44C2590.41 1536.69 2589.03 1538.53 2587.5 1539.97C2584.94 1542.47 2581.77 1544.16 2577.98 1545.03C2575.95 1545.53 2573.66 1545.78 2571.09 1545.78C2564.84 1545.78 2559.55 1543.52 2555.2 1538.99C2550.86 1534.42 2548.69 1528.05 2548.69 1519.86C2548.69 1511.8 2550.88 1505.25 2555.25 1500.22C2559.62 1495.19 2565.34 1492.67 2572.41 1492.67ZM2585.86 1514.89C2585.52 1511.24 2584.72 1508.32 2583.47 1506.13C2581.16 1502.07 2577.3 1500.03 2571.89 1500.03C2568.02 1500.03 2564.77 1501.44 2562.14 1504.25C2559.52 1507.03 2558.12 1510.58 2557.97 1514.89H2585.86ZM2604.75 1475.14H2612.86V1515.13L2634.52 1493.8H2645.3L2626.08 1512.6L2646.38 1544H2635.59L2619.94 1518.69L2612.86 1525.16V1544H2604.75V1475.14Z" fill="black"/>
<path d="M17.7891 2844.34C18.6328 2851.55 21.9844 2856.55 27.8438 2859.31C30.8438 2860.72 34.3125 2861.42 38.25 2861.42C45.75 2861.42 51.3047 2859.03 54.9141 2854.25C58.5234 2849.47 60.3281 2844.17 60.3281 2838.36C60.3281 2831.33 58.1719 2825.89 53.8594 2822.05C49.5938 2818.2 44.4609 2816.28 38.4609 2816.28C34.1016 2816.28 30.3516 2817.12 27.2109 2818.81C24.1172 2820.5 21.4688 2822.84 19.2656 2825.84L8.29688 2825.21L15.9609 2771H68.2734V2783.23H25.4531L21.1641 2811.22C23.5078 2809.44 25.7344 2808.1 27.8438 2807.21C31.5938 2805.66 35.9297 2804.89 40.8516 2804.89C50.0859 2804.89 57.9141 2807.87 64.3359 2813.82C70.7578 2819.77 73.9688 2827.32 73.9688 2836.46C73.9688 2845.98 71.0156 2854.37 65.1094 2861.63C59.25 2868.9 49.875 2872.53 36.9844 2872.53C28.7812 2872.53 21.5156 2870.23 15.1875 2865.64C8.90625 2861 5.39062 2853.9 4.64062 2844.34H17.7891ZM84.6562 2870C85.125 2861.33 86.9062 2853.78 90 2847.36C93.1406 2840.94 99.2344 2835.1 108.281 2829.85L121.781 2822.05C127.828 2818.53 132.07 2815.53 134.508 2813.05C138.352 2809.16 140.273 2804.7 140.273 2799.69C140.273 2793.83 138.516 2789.19 135 2785.77C131.484 2782.3 126.797 2780.56 120.938 2780.56C112.266 2780.56 106.266 2783.84 102.938 2790.41C101.156 2793.92 100.172 2798.8 99.9844 2805.03H87.1172C87.2578 2796.27 88.875 2789.12 91.9688 2783.59C97.4531 2773.84 107.133 2768.96 121.008 2768.96C132.539 2768.96 140.953 2772.08 146.25 2778.31C151.594 2784.55 154.266 2791.48 154.266 2799.12C154.266 2807.19 151.43 2814.08 145.758 2819.8C142.477 2823.12 136.594 2827.16 128.109 2831.89L118.477 2837.23C113.883 2839.77 110.273 2842.18 107.648 2844.48C102.961 2848.55 100.008 2853.08 98.7891 2858.05H153.773V2870H84.6562ZM258.469 2821.06C265.219 2821.06 270.984 2823.45 275.766 2828.23C280.547 2833.02 282.938 2838.78 282.938 2845.53C282.938 2852.28 280.547 2858.05 275.766 2862.83C270.984 2867.61 265.219 2870 258.469 2870C251.672 2870 245.883 2867.61 241.102 2862.83C236.32 2858.05 233.93 2852.28 233.93 2845.53C233.93 2838.78 236.32 2833.02 241.102 2828.23C245.883 2823.45 251.672 2821.06 258.469 2821.06ZM248.273 2769.73H256.078L199.758 2872.67H191.953L248.273 2769.73ZM189.422 2811.36C193.453 2811.36 196.875 2809.95 199.688 2807.14C202.547 2804.28 203.977 2800.86 203.977 2796.88C203.977 2792.89 202.547 2789.49 199.688 2786.68C196.875 2783.82 193.453 2782.39 189.422 2782.39C185.438 2782.39 182.016 2783.8 179.156 2786.61C176.344 2789.42 174.938 2792.84 174.938 2796.88C174.938 2800.86 176.344 2804.28 179.156 2807.14C182.016 2809.95 185.438 2811.36 189.422 2811.36ZM189.422 2772.34C196.219 2772.34 202.008 2774.75 206.789 2779.58C211.57 2784.36 213.961 2790.12 213.961 2796.88C213.961 2803.62 211.57 2809.39 206.789 2814.17C202.008 2818.95 196.219 2821.34 189.422 2821.34C182.672 2821.34 176.906 2818.95 172.125 2814.17C167.344 2809.39 164.953 2803.62 164.953 2796.88C164.953 2790.12 167.344 2784.36 172.125 2779.58C176.906 2774.75 182.672 2772.34 189.422 2772.34ZM258.469 2860.02C262.453 2860.02 265.852 2858.61 268.664 2855.8C271.523 2852.94 272.953 2849.52 272.953 2845.53C272.953 2841.55 271.523 2838.15 268.664 2835.34C265.852 2832.48 262.453 2831.05 258.469 2831.05C254.438 2831.05 250.992 2832.48 248.133 2835.34C245.32 2838.15 243.914 2841.55 243.914 2845.53C243.914 2849.52 245.32 2852.94 248.133 2855.8C250.992 2858.61 254.438 2860.02 258.469 2860.02ZM384.609 2827.67L368.93 2782.04L352.266 2827.67H384.609ZM361.617 2766.71H377.438L414.914 2870H399.586L389.109 2839.06H348.258L337.078 2870H322.734L361.617 2766.71ZM433.969 2833.23C433.969 2841.29 435.68 2848.04 439.102 2853.48C442.523 2858.91 448.008 2861.63 455.555 2861.63C461.414 2861.63 466.219 2859.12 469.969 2854.11C473.766 2849.05 475.664 2841.8 475.664 2832.38C475.664 2822.87 473.719 2815.84 469.828 2811.29C465.938 2806.7 461.133 2804.4 455.414 2804.4C449.039 2804.4 443.859 2806.84 439.875 2811.71C435.938 2816.59 433.969 2823.76 433.969 2833.23ZM453.023 2793.36C458.789 2793.36 463.617 2794.58 467.508 2797.02C469.758 2798.42 472.312 2800.88 475.172 2804.4V2766.36H487.336V2870H475.945V2859.52C472.992 2864.16 469.5 2867.52 465.469 2869.58C461.438 2871.64 456.82 2872.67 451.617 2872.67C443.227 2872.67 435.961 2869.16 429.82 2862.12C423.68 2855.05 420.609 2845.65 420.609 2833.93C420.609 2822.96 423.398 2813.47 428.977 2805.45C434.602 2797.39 442.617 2793.36 453.023 2793.36ZM514.125 2833.23C514.125 2841.29 515.836 2848.04 519.258 2853.48C522.68 2858.91 528.164 2861.63 535.711 2861.63C541.57 2861.63 546.375 2859.12 550.125 2854.11C553.922 2849.05 555.82 2841.8 555.82 2832.38C555.82 2822.87 553.875 2815.84 549.984 2811.29C546.094 2806.7 541.289 2804.4 535.57 2804.4C529.195 2804.4 524.016 2806.84 520.031 2811.71C516.094 2816.59 514.125 2823.76 514.125 2833.23ZM533.18 2793.36C538.945 2793.36 543.773 2794.58 547.664 2797.02C549.914 2798.42 552.469 2800.88 555.328 2804.4V2766.36H567.492V2870H556.102V2859.52C553.148 2864.16 549.656 2867.52 545.625 2869.58C541.594 2871.64 536.977 2872.67 531.773 2872.67C523.383 2872.67 516.117 2869.16 509.977 2862.12C503.836 2855.05 500.766 2845.65 500.766 2833.93C500.766 2822.96 503.555 2813.47 509.133 2805.45C514.758 2797.39 522.773 2793.36 533.18 2793.36ZM609.75 2766.71H620.438L587.672 2870H576.984L609.75 2766.71ZM672.609 2763.9C690.844 2763.9 704.344 2769.76 713.109 2781.48C719.953 2790.62 723.375 2802.31 723.375 2816.56C723.375 2831.98 719.461 2844.8 711.633 2855.02C702.445 2867.02 689.344 2873.02 672.328 2873.02C656.438 2873.02 643.945 2867.77 634.852 2857.27C626.742 2847.15 622.688 2834.35 622.688 2818.88C622.688 2804.91 626.156 2792.96 633.094 2783.02C642 2770.27 655.172 2763.9 672.609 2763.9ZM674.016 2860.51C686.344 2860.51 695.25 2856.1 700.734 2847.29C706.266 2838.43 709.031 2828.26 709.031 2816.77C709.031 2804.63 705.844 2794.86 699.469 2787.45C693.141 2780.05 684.469 2776.34 673.453 2776.34C662.766 2776.34 654.047 2780.02 647.297 2787.38C640.547 2794.7 637.172 2805.5 637.172 2819.8C637.172 2831.23 640.055 2840.89 645.82 2848.77C651.633 2856.59 661.031 2860.51 674.016 2860.51ZM738.422 2794.7H750.938V2805.38C753.938 2801.68 756.656 2798.98 759.094 2797.3C763.266 2794.44 768 2793.01 773.297 2793.01C779.297 2793.01 784.125 2794.48 787.781 2797.44C789.844 2799.12 791.719 2801.61 793.406 2804.89C796.219 2800.86 799.523 2797.88 803.32 2795.96C807.117 2793.99 811.383 2793.01 816.117 2793.01C826.242 2793.01 833.133 2796.66 836.789 2803.98C838.758 2807.91 839.742 2813.21 839.742 2819.87V2870H826.594V2817.69C826.594 2812.67 825.328 2809.23 822.797 2807.35C820.312 2805.48 817.266 2804.54 813.656 2804.54C808.688 2804.54 804.398 2806.2 800.789 2809.53C797.227 2812.86 795.445 2818.41 795.445 2826.2V2870H782.578V2820.85C782.578 2815.74 781.969 2812.02 780.75 2809.67C778.828 2806.16 775.242 2804.4 769.992 2804.4C765.211 2804.4 760.852 2806.25 756.914 2809.95C753.023 2813.66 751.078 2820.36 751.078 2830.06V2870H738.422V2794.7ZM858.375 2795.05H871.242V2870H858.375V2795.05ZM858.375 2766.71H871.242V2781.05H858.375V2766.71ZM892.969 2773.67H905.766V2794.7H917.789V2805.03H905.766V2854.18C905.766 2856.8 906.656 2858.56 908.438 2859.45C909.422 2859.97 911.062 2860.23 913.359 2860.23C913.969 2860.23 914.625 2860.23 915.328 2860.23C916.031 2860.18 916.852 2860.11 917.789 2860.02V2870C916.336 2870.42 914.812 2870.73 913.219 2870.91C911.672 2871.1 909.984 2871.2 908.156 2871.2C902.25 2871.2 898.242 2869.7 896.133 2866.7C894.023 2863.65 892.969 2859.71 892.969 2854.88V2805.03H882.773V2794.7H892.969V2773.67ZM975.445 2766.71H989.578V2870H975.445V2766.71ZM1010.67 2794.7H1022.7V2805.38C1026.26 2800.98 1030.03 2797.81 1034.02 2795.89C1038 2793.97 1042.43 2793.01 1047.3 2793.01C1057.99 2793.01 1065.21 2796.73 1068.96 2804.19C1071.02 2808.27 1072.05 2814.1 1072.05 2821.7V2870H1059.19V2822.54C1059.19 2817.95 1058.51 2814.24 1057.15 2811.43C1054.9 2806.74 1050.82 2804.4 1044.91 2804.4C1041.91 2804.4 1039.45 2804.7 1037.53 2805.31C1034.06 2806.34 1031.02 2808.41 1028.39 2811.5C1026.28 2813.98 1024.9 2816.56 1024.24 2819.23C1023.63 2821.86 1023.33 2825.63 1023.33 2830.55V2870H1010.67V2794.7ZM1117.41 2793.36C1123.31 2793.36 1128.47 2794.81 1132.88 2797.72C1135.27 2799.36 1137.7 2801.75 1140.19 2804.89V2795.4H1151.86V2863.88C1151.86 2873.45 1150.45 2880.99 1147.64 2886.52C1142.39 2896.74 1132.48 2901.85 1117.9 2901.85C1109.79 2901.85 1102.97 2900.02 1097.44 2896.37C1091.91 2892.76 1088.81 2887.09 1088.16 2879.35H1101.02C1101.63 2882.73 1102.85 2885.33 1104.68 2887.16C1107.54 2889.97 1112.04 2891.38 1118.18 2891.38C1127.88 2891.38 1134.23 2887.95 1137.23 2881.11C1139.02 2877.08 1139.84 2869.88 1139.7 2859.52C1137.16 2863.37 1134.12 2866.23 1130.55 2868.1C1126.99 2869.98 1122.28 2870.91 1116.42 2870.91C1108.27 2870.91 1101.12 2868.03 1094.98 2862.27C1088.88 2856.45 1085.84 2846.87 1085.84 2833.51C1085.84 2820.9 1088.91 2811.05 1095.05 2803.98C1101.23 2796.9 1108.69 2793.36 1117.41 2793.36ZM1140.19 2832.03C1140.19 2822.7 1138.27 2815.79 1134.42 2811.29C1130.58 2806.79 1125.68 2804.54 1119.73 2804.54C1110.82 2804.54 1104.73 2808.71 1101.45 2817.05C1099.71 2821.51 1098.84 2827.34 1098.84 2834.56C1098.84 2843.05 1100.55 2849.52 1103.98 2853.97C1107.45 2858.38 1112.09 2860.58 1117.9 2860.58C1126.99 2860.58 1133.39 2856.48 1137.09 2848.27C1139.16 2843.63 1140.19 2838.22 1140.19 2832.03ZM1171.34 2794.7H1183.36V2807.7C1184.34 2805.17 1186.76 2802.1 1190.6 2798.49C1194.45 2794.84 1198.88 2793.01 1203.89 2793.01C1204.12 2793.01 1204.52 2793.03 1205.09 2793.08C1205.65 2793.12 1206.61 2793.22 1207.97 2793.36V2806.72C1207.22 2806.58 1206.52 2806.48 1205.86 2806.44C1205.25 2806.39 1204.57 2806.37 1203.82 2806.37C1197.45 2806.37 1192.55 2808.43 1189.12 2812.55C1185.7 2816.63 1183.99 2821.34 1183.99 2826.69V2870H1171.34V2794.7ZM1250.3 2793.01C1255.64 2793.01 1260.82 2794.27 1265.84 2796.8C1270.85 2799.29 1274.67 2802.52 1277.3 2806.51C1279.83 2810.3 1281.52 2814.73 1282.36 2819.8C1283.11 2823.27 1283.48 2828.8 1283.48 2836.39H1228.29C1228.52 2844.03 1230.33 2850.17 1233.7 2854.81C1237.08 2859.41 1242.3 2861.7 1249.38 2861.7C1255.99 2861.7 1261.27 2859.52 1265.2 2855.16C1267.45 2852.63 1269.05 2849.7 1269.98 2846.38H1282.43C1282.1 2849.14 1281 2852.23 1279.12 2855.66C1277.3 2859.03 1275.23 2861.8 1272.94 2863.95C1269.09 2867.7 1264.34 2870.23 1258.66 2871.55C1255.62 2872.3 1252.17 2872.67 1248.33 2872.67C1238.95 2872.67 1231.01 2869.27 1224.49 2862.48C1217.98 2855.63 1214.72 2846.07 1214.72 2833.79C1214.72 2821.7 1218 2811.88 1224.56 2804.33C1231.12 2796.78 1239.7 2793.01 1250.3 2793.01ZM1270.48 2826.34C1269.96 2820.85 1268.77 2816.47 1266.89 2813.19C1263.42 2807.09 1257.63 2804.05 1249.52 2804.05C1243.71 2804.05 1238.84 2806.16 1234.9 2810.38C1230.96 2814.55 1228.88 2819.87 1228.64 2826.34H1270.48ZM1307.11 2833.23C1307.11 2841.29 1308.82 2848.04 1312.24 2853.48C1315.66 2858.91 1321.15 2861.63 1328.7 2861.63C1334.55 2861.63 1339.36 2859.12 1343.11 2854.11C1346.91 2849.05 1348.8 2841.8 1348.8 2832.38C1348.8 2822.87 1346.86 2815.84 1342.97 2811.29C1339.08 2806.7 1334.27 2804.4 1328.55 2804.4C1322.18 2804.4 1317 2806.84 1313.02 2811.71C1309.08 2816.59 1307.11 2823.76 1307.11 2833.23ZM1326.16 2793.36C1331.93 2793.36 1336.76 2794.58 1340.65 2797.02C1342.9 2798.42 1345.45 2800.88 1348.31 2804.4V2766.36H1360.48V2870H1349.09V2859.52C1346.13 2864.16 1342.64 2867.52 1338.61 2869.58C1334.58 2871.64 1329.96 2872.67 1324.76 2872.67C1316.37 2872.67 1309.1 2869.16 1302.96 2862.12C1296.82 2855.05 1293.75 2845.65 1293.75 2833.93C1293.75 2822.96 1296.54 2813.47 1302.12 2805.45C1307.74 2797.39 1315.76 2793.36 1326.16 2793.36ZM1379.25 2795.05H1392.12V2870H1379.25V2795.05ZM1379.25 2766.71H1392.12V2781.05H1379.25V2766.71ZM1442.67 2793.01C1448.02 2793.01 1453.2 2794.27 1458.21 2796.8C1463.23 2799.29 1467.05 2802.52 1469.67 2806.51C1472.2 2810.3 1473.89 2814.73 1474.73 2819.8C1475.48 2823.27 1475.86 2828.8 1475.86 2836.39H1420.66C1420.9 2844.03 1422.7 2850.17 1426.08 2854.81C1429.45 2859.41 1434.68 2861.7 1441.76 2861.7C1448.37 2861.7 1453.64 2859.52 1457.58 2855.16C1459.83 2852.63 1461.42 2849.7 1462.36 2846.38H1474.8C1474.48 2849.14 1473.38 2852.23 1471.5 2855.66C1469.67 2859.03 1467.61 2861.8 1465.31 2863.95C1461.47 2867.7 1456.71 2870.23 1451.04 2871.55C1447.99 2872.3 1444.55 2872.67 1440.7 2872.67C1431.33 2872.67 1423.38 2869.27 1416.87 2862.48C1410.35 2855.63 1407.09 2846.07 1407.09 2833.79C1407.09 2821.7 1410.38 2811.88 1416.94 2804.33C1423.5 2796.78 1432.08 2793.01 1442.67 2793.01ZM1462.85 2826.34C1462.34 2820.85 1461.14 2816.47 1459.27 2813.19C1455.8 2807.09 1450.01 2804.05 1441.9 2804.05C1436.09 2804.05 1431.21 2806.16 1427.27 2810.38C1423.34 2814.55 1421.25 2819.87 1421.02 2826.34H1462.85ZM1491.47 2794.7H1503.49V2805.38C1507.05 2800.98 1510.83 2797.81 1514.81 2795.89C1518.8 2793.97 1523.23 2793.01 1528.1 2793.01C1538.79 2793.01 1546.01 2796.73 1549.76 2804.19C1551.82 2808.27 1552.85 2814.1 1552.85 2821.7V2870H1539.98V2822.54C1539.98 2817.95 1539.3 2814.24 1537.95 2811.43C1535.7 2806.74 1531.62 2804.4 1525.71 2804.4C1522.71 2804.4 1520.25 2804.7 1518.33 2805.31C1514.86 2806.34 1511.81 2808.41 1509.19 2811.5C1507.08 2813.98 1505.7 2816.56 1505.04 2819.23C1504.43 2821.86 1504.12 2825.63 1504.12 2830.55V2870H1491.47V2794.7ZM1574.16 2773.67H1586.95V2794.7H1598.98V2805.03H1586.95V2854.18C1586.95 2856.8 1587.84 2858.56 1589.62 2859.45C1590.61 2859.97 1592.25 2860.23 1594.55 2860.23C1595.16 2860.23 1595.81 2860.23 1596.52 2860.23C1597.22 2860.18 1598.04 2860.11 1598.98 2860.02V2870C1597.52 2870.42 1596 2870.73 1594.41 2870.91C1592.86 2871.1 1591.17 2871.2 1589.34 2871.2C1583.44 2871.2 1579.43 2869.7 1577.32 2866.7C1575.21 2863.65 1574.16 2859.71 1574.16 2854.88V2805.03H1563.96V2794.7H1574.16V2773.67ZM1619.23 2846.38C1619.6 2850.59 1620.66 2853.83 1622.39 2856.08C1625.58 2860.16 1631.11 2862.2 1638.98 2862.2C1643.67 2862.2 1647.8 2861.19 1651.36 2859.17C1654.92 2857.11 1656.7 2853.95 1656.7 2849.68C1656.7 2846.45 1655.27 2843.98 1652.41 2842.3C1650.59 2841.27 1646.98 2840.07 1641.59 2838.71L1631.53 2836.18C1625.11 2834.59 1620.38 2832.8 1617.33 2830.84C1611.89 2827.41 1609.17 2822.68 1609.17 2816.63C1609.17 2809.51 1611.73 2803.74 1616.84 2799.34C1621.99 2794.93 1628.91 2792.73 1637.58 2792.73C1648.92 2792.73 1657.1 2796.05 1662.12 2802.71C1665.26 2806.93 1666.78 2811.48 1666.69 2816.35H1654.73C1654.5 2813.49 1653.49 2810.89 1651.71 2808.55C1648.8 2805.22 1643.77 2803.55 1636.59 2803.55C1631.81 2803.55 1628.18 2804.47 1625.7 2806.3C1623.26 2808.12 1622.04 2810.54 1622.04 2813.54C1622.04 2816.82 1623.66 2819.45 1626.89 2821.41C1628.77 2822.59 1631.53 2823.62 1635.19 2824.51L1643.55 2826.55C1652.65 2828.75 1658.74 2830.88 1661.84 2832.95C1666.76 2836.18 1669.22 2841.27 1669.22 2848.2C1669.22 2854.91 1666.66 2860.7 1661.55 2865.57C1656.49 2870.45 1648.76 2872.88 1638.35 2872.88C1627.15 2872.88 1619.2 2870.35 1614.52 2865.29C1609.88 2860.18 1607.39 2853.88 1607.06 2846.38H1619.23ZM1770.61 2827.67L1754.93 2782.04L1738.27 2827.67H1770.61ZM1747.62 2766.71H1763.44L1800.91 2870H1785.59L1775.11 2839.06H1734.26L1723.08 2870H1708.73L1747.62 2766.71ZM1847.18 2766.71H1918.83V2779.37H1861.17V2810.73H1911.87V2823.03H1861.17V2870H1847.18V2766.71ZM1963.55 2793.01C1968.89 2793.01 1974.07 2794.27 1979.09 2796.8C1984.1 2799.29 1987.92 2802.52 1990.55 2806.51C1993.08 2810.3 1994.77 2814.73 1995.61 2819.8C1996.36 2823.27 1996.73 2828.8 1996.73 2836.39H1941.54C1941.77 2844.03 1943.58 2850.17 1946.95 2854.81C1950.33 2859.41 1955.55 2861.7 1962.63 2861.7C1969.24 2861.7 1974.52 2859.52 1978.45 2855.16C1980.7 2852.63 1982.3 2849.7 1983.23 2846.38H1995.68C1995.35 2849.14 1994.25 2852.23 1992.38 2855.66C1990.55 2859.03 1988.48 2861.8 1986.19 2863.95C1982.34 2867.7 1977.59 2870.23 1971.91 2871.55C1968.87 2872.3 1965.42 2872.67 1961.58 2872.67C1952.2 2872.67 1944.26 2869.27 1937.74 2862.48C1931.23 2855.63 1927.97 2846.07 1927.97 2833.79C1927.97 2821.7 1931.25 2811.88 1937.81 2804.33C1944.38 2796.78 1952.95 2793.01 1963.55 2793.01ZM1983.73 2826.34C1983.21 2820.85 1982.02 2816.47 1980.14 2813.19C1976.67 2807.09 1970.88 2804.05 1962.77 2804.05C1956.96 2804.05 1952.09 2806.16 1948.15 2810.38C1944.21 2814.55 1942.12 2819.87 1941.89 2826.34H1983.73ZM2018.18 2794.7L2032.66 2854.04L2047.36 2794.7H2061.56L2076.33 2853.69L2091.73 2794.7H2104.38L2082.52 2870H2069.37L2054.04 2811.71L2039.2 2870H2026.05L2004.33 2794.7H2018.18ZM2230.8 2766.71V2779.02H2196V2870H2181.8V2779.02H2146.99V2766.71H2230.8ZM2236.64 2795.05H2249.51V2870H2236.64V2795.05ZM2236.64 2766.71H2249.51V2781.05H2236.64V2766.71ZM2268.7 2794.7H2281.22V2805.38C2284.22 2801.68 2286.94 2798.98 2289.38 2797.3C2293.55 2794.44 2298.28 2793.01 2303.58 2793.01C2309.58 2793.01 2314.41 2794.48 2318.06 2797.44C2320.12 2799.12 2322 2801.61 2323.69 2804.89C2326.5 2800.86 2329.8 2797.88 2333.6 2795.96C2337.4 2793.99 2341.66 2793.01 2346.4 2793.01C2356.52 2793.01 2363.41 2796.66 2367.07 2803.98C2369.04 2807.91 2370.02 2813.21 2370.02 2819.87V2870H2356.88V2817.69C2356.88 2812.67 2355.61 2809.23 2353.08 2807.35C2350.59 2805.48 2347.55 2804.54 2343.94 2804.54C2338.97 2804.54 2334.68 2806.2 2331.07 2809.53C2327.51 2812.86 2325.73 2818.41 2325.73 2826.2V2870H2312.86V2820.85C2312.86 2815.74 2312.25 2812.02 2311.03 2809.67C2309.11 2806.16 2305.52 2804.4 2300.27 2804.4C2295.49 2804.4 2291.13 2806.25 2287.2 2809.95C2283.3 2813.66 2281.36 2820.36 2281.36 2830.06V2870H2268.7V2794.7ZM2420.02 2793.01C2425.36 2793.01 2430.54 2794.27 2435.55 2796.8C2440.57 2799.29 2444.39 2802.52 2447.02 2806.51C2449.55 2810.3 2451.23 2814.73 2452.08 2819.8C2452.83 2823.27 2453.2 2828.8 2453.2 2836.39H2398.01C2398.24 2844.03 2400.05 2850.17 2403.42 2854.81C2406.8 2859.41 2412.02 2861.7 2419.1 2861.7C2425.71 2861.7 2430.98 2859.52 2434.92 2855.16C2437.17 2852.63 2438.77 2849.7 2439.7 2846.38H2452.15C2451.82 2849.14 2450.72 2852.23 2448.84 2855.66C2447.02 2859.03 2444.95 2861.8 2442.66 2863.95C2438.81 2867.7 2434.05 2870.23 2428.38 2871.55C2425.34 2872.3 2421.89 2872.67 2418.05 2872.67C2408.67 2872.67 2400.73 2869.27 2394.21 2862.48C2387.7 2855.63 2384.44 2846.07 2384.44 2833.79C2384.44 2821.7 2387.72 2811.88 2394.28 2804.33C2400.84 2796.78 2409.42 2793.01 2420.02 2793.01ZM2440.2 2826.34C2439.68 2820.85 2438.48 2816.47 2436.61 2813.19C2433.14 2807.09 2427.35 2804.05 2419.24 2804.05C2413.43 2804.05 2408.55 2806.16 2404.62 2810.38C2400.68 2814.55 2398.59 2819.87 2398.36 2826.34H2440.2ZM2476.34 2846.38C2476.71 2850.59 2477.77 2853.83 2479.5 2856.08C2482.69 2860.16 2488.22 2862.2 2496.09 2862.2C2500.78 2862.2 2504.91 2861.19 2508.47 2859.17C2512.03 2857.11 2513.81 2853.95 2513.81 2849.68C2513.81 2846.45 2512.38 2843.98 2509.52 2842.3C2507.7 2841.27 2504.09 2840.07 2498.7 2838.71L2488.64 2836.18C2482.22 2834.59 2477.48 2832.8 2474.44 2830.84C2469 2827.41 2466.28 2822.68 2466.28 2816.63C2466.28 2809.51 2468.84 2803.74 2473.95 2799.34C2479.1 2794.93 2486.02 2792.73 2494.69 2792.73C2506.03 2792.73 2514.21 2796.05 2519.23 2802.71C2522.37 2806.93 2523.89 2811.48 2523.8 2816.35H2511.84C2511.61 2813.49 2510.6 2810.89 2508.82 2808.55C2505.91 2805.22 2500.88 2803.55 2493.7 2803.55C2488.92 2803.55 2485.29 2804.47 2482.8 2806.3C2480.37 2808.12 2479.15 2810.54 2479.15 2813.54C2479.15 2816.82 2480.77 2819.45 2484 2821.41C2485.88 2822.59 2488.64 2823.62 2492.3 2824.51L2500.66 2826.55C2509.76 2828.75 2515.85 2830.88 2518.95 2832.95C2523.87 2836.18 2526.33 2841.27 2526.33 2848.2C2526.33 2854.91 2523.77 2860.7 2518.66 2865.57C2513.6 2870.45 2505.87 2872.88 2495.46 2872.88C2484.26 2872.88 2476.31 2870.35 2471.62 2865.29C2466.98 2860.18 2464.5 2853.88 2464.17 2846.38H2476.34ZM2627.72 2827.67L2612.04 2782.04L2595.38 2827.67H2627.72ZM2604.73 2766.71H2620.55L2658.02 2870H2642.7L2632.22 2839.06H2591.37L2580.19 2870H2565.84L2604.73 2766.71ZM2709.77 2766.71L2729.25 2850.73L2752.59 2766.71H2767.78L2791.12 2850.73L2810.6 2766.71H2825.93L2798.79 2870H2784.09L2760.26 2784.36L2736.28 2870H2721.59L2694.59 2766.71H2709.77ZM2866.08 2793.01C2871.42 2793.01 2876.6 2794.27 2881.62 2796.8C2886.63 2799.29 2890.45 2802.52 2893.08 2806.51C2895.61 2810.3 2897.3 2814.73 2898.14 2819.8C2898.89 2823.27 2899.27 2828.8 2899.27 2836.39H2844.07C2844.3 2844.03 2846.11 2850.17 2849.48 2854.81C2852.86 2859.41 2858.09 2861.7 2865.16 2861.7C2871.77 2861.7 2877.05 2859.52 2880.98 2855.16C2883.23 2852.63 2884.83 2849.7 2885.77 2846.38H2898.21C2897.88 2849.14 2896.78 2852.23 2894.91 2855.66C2893.08 2859.03 2891.02 2861.8 2888.72 2863.95C2884.88 2867.7 2880.12 2870.23 2874.45 2871.55C2871.4 2872.3 2867.95 2872.67 2864.11 2872.67C2854.73 2872.67 2846.79 2869.27 2840.27 2862.48C2833.76 2855.63 2830.5 2846.07 2830.5 2833.79C2830.5 2821.7 2833.78 2811.88 2840.34 2804.33C2846.91 2796.78 2855.48 2793.01 2866.08 2793.01ZM2886.26 2826.34C2885.74 2820.85 2884.55 2816.47 2882.67 2813.19C2879.2 2807.09 2873.41 2804.05 2865.3 2804.05C2859.49 2804.05 2854.62 2806.16 2850.68 2810.38C2846.74 2814.55 2844.66 2819.87 2844.42 2826.34H2886.26ZM2946.23 2793.01C2951.58 2793.01 2956.76 2794.27 2961.77 2796.8C2966.79 2799.29 2970.61 2802.52 2973.23 2806.51C2975.77 2810.3 2977.45 2814.73 2978.3 2819.8C2979.05 2823.27 2979.42 2828.8 2979.42 2836.39H2924.23C2924.46 2844.03 2926.27 2850.17 2929.64 2854.81C2933.02 2859.41 2938.24 2861.7 2945.32 2861.7C2951.93 2861.7 2957.2 2859.52 2961.14 2855.16C2963.39 2852.63 2964.98 2849.7 2965.92 2846.38H2978.37C2978.04 2849.14 2976.94 2852.23 2975.06 2855.66C2973.23 2859.03 2971.17 2861.8 2968.88 2863.95C2965.03 2867.7 2960.27 2870.23 2954.6 2871.55C2951.55 2872.3 2948.11 2872.67 2944.27 2872.67C2934.89 2872.67 2926.95 2869.27 2920.43 2862.48C2913.91 2855.63 2910.66 2846.07 2910.66 2833.79C2910.66 2821.7 2913.94 2811.88 2920.5 2804.33C2927.06 2796.78 2935.64 2793.01 2946.23 2793.01ZM2966.41 2826.34C2965.9 2820.85 2964.7 2816.47 2962.83 2813.19C2959.36 2807.09 2953.57 2804.05 2945.46 2804.05C2939.65 2804.05 2934.77 2806.16 2930.84 2810.38C2926.9 2814.55 2924.81 2819.87 2924.58 2826.34H2966.41ZM2994.75 2766.71H3006.91V2826.69L3039.4 2794.7H3055.57L3026.74 2822.89L3057.19 2870H3041.02L3017.53 2832.03L3006.91 2841.73V2870H2994.75V2766.71Z" fill="black"/>
<path d="M975.203 1865.14H1025.41V1873.58H984.297V1894.49H1022.31V1902.46H984.297V1925.8H1026.11V1934H975.203V1865.14ZM1041.34 1883.8L1054.75 1924.67L1068.77 1883.8H1078L1059.06 1934H1050.06L1031.55 1883.8H1041.34ZM1106.12 1882.67C1109.69 1882.67 1113.14 1883.52 1116.48 1885.21C1119.83 1886.86 1122.38 1889.02 1124.12 1891.67C1125.81 1894.21 1126.94 1897.16 1127.5 1900.53C1128 1902.85 1128.25 1906.53 1128.25 1911.6H1091.45C1091.61 1916.69 1092.81 1920.78 1095.06 1923.88C1097.31 1926.94 1100.8 1928.47 1105.52 1928.47C1109.92 1928.47 1113.44 1927.02 1116.06 1924.11C1117.56 1922.42 1118.62 1920.47 1119.25 1918.25H1127.55C1127.33 1920.1 1126.59 1922.16 1125.34 1924.44C1124.12 1926.69 1122.75 1928.53 1121.22 1929.97C1118.66 1932.47 1115.48 1934.16 1111.7 1935.03C1109.67 1935.53 1107.38 1935.78 1104.81 1935.78C1098.56 1935.78 1093.27 1933.52 1088.92 1928.99C1084.58 1924.42 1082.41 1918.05 1082.41 1909.86C1082.41 1901.8 1084.59 1895.25 1088.97 1890.22C1093.34 1885.19 1099.06 1882.67 1106.12 1882.67ZM1119.58 1904.89C1119.23 1901.24 1118.44 1898.32 1117.19 1896.13C1114.88 1892.07 1111.02 1890.03 1105.61 1890.03C1101.73 1890.03 1098.48 1891.44 1095.86 1894.25C1093.23 1897.03 1091.84 1900.58 1091.69 1904.89H1119.58ZM1138.89 1883.8H1146.91V1892.47C1147.56 1890.78 1149.17 1888.74 1151.73 1886.33C1154.3 1883.89 1157.25 1882.67 1160.59 1882.67C1160.75 1882.67 1161.02 1882.69 1161.39 1882.72C1161.77 1882.75 1162.41 1882.82 1163.31 1882.91V1891.82C1162.81 1891.72 1162.34 1891.66 1161.91 1891.63C1161.5 1891.6 1161.05 1891.58 1160.55 1891.58C1156.3 1891.58 1153.03 1892.96 1150.75 1895.71C1148.47 1898.42 1147.33 1901.57 1147.33 1905.13V1934H1138.89V1883.8ZM1201.98 1883.8H1211.31C1210.12 1887.02 1207.48 1894.36 1203.39 1905.83C1200.33 1914.46 1197.77 1921.49 1195.7 1926.92C1190.83 1939.74 1187.39 1947.55 1185.39 1950.36C1183.39 1953.17 1179.95 1954.58 1175.08 1954.58C1173.89 1954.58 1172.97 1954.53 1172.31 1954.44C1171.69 1954.35 1170.91 1954.17 1169.97 1953.92V1946.24C1171.44 1946.64 1172.5 1946.89 1173.16 1946.99C1173.81 1947.08 1174.39 1947.13 1174.89 1947.13C1176.45 1947.13 1177.59 1946.86 1178.31 1946.33C1179.06 1945.83 1179.69 1945.21 1180.19 1944.46C1180.34 1944.21 1180.91 1942.92 1181.88 1940.61C1182.84 1938.3 1183.55 1936.58 1183.98 1935.46L1165.42 1883.8H1174.98L1188.44 1924.67L1201.98 1883.8ZM1223.97 1909.49C1223.97 1914.86 1225.11 1919.36 1227.39 1922.99C1229.67 1926.61 1233.33 1928.42 1238.36 1928.42C1242.27 1928.42 1245.47 1926.75 1247.97 1923.41C1250.5 1920.03 1251.77 1915.21 1251.77 1908.92C1251.77 1902.58 1250.47 1897.89 1247.88 1894.86C1245.28 1891.8 1242.08 1890.27 1238.27 1890.27C1234.02 1890.27 1230.56 1891.89 1227.91 1895.14C1225.28 1898.39 1223.97 1903.17 1223.97 1909.49ZM1236.67 1882.91C1240.52 1882.91 1243.73 1883.72 1246.33 1885.35C1247.83 1886.28 1249.53 1887.92 1251.44 1890.27V1864.91H1259.55V1934H1251.95V1927.02C1249.98 1930.11 1247.66 1932.35 1244.97 1933.72C1242.28 1935.1 1239.2 1935.78 1235.73 1935.78C1230.14 1935.78 1225.3 1933.44 1221.2 1928.75C1217.11 1924.03 1215.06 1917.77 1215.06 1909.96C1215.06 1902.64 1216.92 1896.32 1220.64 1890.97C1224.39 1885.6 1229.73 1882.91 1236.67 1882.91ZM1278.53 1920.64C1278.53 1923.08 1279.42 1925 1281.2 1926.41C1282.98 1927.82 1285.09 1928.52 1287.53 1928.52C1290.5 1928.52 1293.38 1927.83 1296.16 1926.46C1300.84 1924.17 1303.19 1920.44 1303.19 1915.25V1908.46C1302.16 1909.11 1300.83 1909.66 1299.2 1910.1C1297.58 1910.53 1295.98 1910.85 1294.42 1911.03L1289.31 1911.69C1286.25 1912.1 1283.95 1912.74 1282.42 1913.61C1279.83 1915.08 1278.53 1917.42 1278.53 1920.64ZM1298.97 1903.58C1300.91 1903.33 1302.2 1902.52 1302.86 1901.14C1303.23 1900.39 1303.42 1899.32 1303.42 1897.91C1303.42 1895.03 1302.39 1892.96 1300.33 1891.67C1298.3 1890.36 1295.38 1889.71 1291.56 1889.71C1287.16 1889.71 1284.03 1890.89 1282.19 1893.27C1281.16 1894.58 1280.48 1896.53 1280.17 1899.13H1272.3C1272.45 1892.94 1274.45 1888.64 1278.3 1886.24C1282.17 1883.8 1286.66 1882.58 1291.75 1882.58C1297.66 1882.58 1302.45 1883.71 1306.14 1885.96C1309.8 1888.21 1311.62 1891.71 1311.62 1896.46V1925.38C1311.62 1926.25 1311.8 1926.96 1312.14 1927.49C1312.52 1928.02 1313.28 1928.28 1314.44 1928.28C1314.81 1928.28 1315.23 1928.27 1315.7 1928.24C1316.17 1928.17 1316.67 1928.1 1317.2 1928V1934.24C1315.89 1934.61 1314.89 1934.85 1314.2 1934.94C1313.52 1935.03 1312.58 1935.08 1311.39 1935.08C1308.48 1935.08 1306.38 1934.05 1305.06 1931.99C1304.38 1930.89 1303.89 1929.35 1303.61 1927.35C1301.89 1929.6 1299.42 1931.55 1296.2 1933.21C1292.98 1934.86 1289.44 1935.69 1285.56 1935.69C1280.91 1935.69 1277.09 1934.28 1274.12 1931.47C1271.19 1928.63 1269.72 1925.08 1269.72 1920.83C1269.72 1916.17 1271.17 1912.57 1274.08 1910C1276.98 1907.44 1280.8 1905.86 1285.52 1905.27L1298.97 1903.58ZM1356.86 1883.8H1366.19C1365 1887.02 1362.36 1894.36 1358.27 1905.83C1355.2 1914.46 1352.64 1921.49 1350.58 1926.92C1345.7 1939.74 1342.27 1947.55 1340.27 1950.36C1338.27 1953.17 1334.83 1954.58 1329.95 1954.58C1328.77 1954.58 1327.84 1954.53 1327.19 1954.44C1326.56 1954.35 1325.78 1954.17 1324.84 1953.92V1946.24C1326.31 1946.64 1327.38 1946.89 1328.03 1946.99C1328.69 1947.08 1329.27 1947.13 1329.77 1947.13C1331.33 1947.13 1332.47 1946.86 1333.19 1946.33C1333.94 1945.83 1334.56 1945.21 1335.06 1944.46C1335.22 1944.21 1335.78 1942.92 1336.75 1940.61C1337.72 1938.3 1338.42 1936.58 1338.86 1935.46L1320.3 1883.8H1329.86L1343.31 1924.67L1356.86 1883.8Z" fill="black"/>
<path d="M1006.33 839.69C1010.7 839.69 1014.16 838.815 1016.69 837.065C1019.25 835.315 1020.53 832.159 1020.53 827.596C1020.53 822.69 1018.75 819.346 1015.19 817.565C1013.28 816.627 1010.73 816.159 1007.55 816.159H984.766V839.69H1006.33ZM975.438 808.143H1007.31C1012.56 808.143 1016.89 808.909 1020.3 810.44C1026.77 813.377 1030 818.799 1030 826.706C1030 830.831 1029.14 834.206 1027.42 836.831C1025.73 839.456 1023.36 841.565 1020.3 843.159C1022.98 844.252 1025 845.69 1026.34 847.471C1027.72 849.252 1028.48 852.143 1028.64 856.143L1028.97 865.377C1029.06 868.002 1029.28 869.956 1029.62 871.237C1030.19 873.424 1031.19 874.831 1032.62 875.456V877.002H1021.19C1020.88 876.409 1020.62 875.643 1020.44 874.706C1020.25 873.768 1020.09 871.956 1019.97 869.268L1019.41 857.784C1019.19 853.284 1017.52 850.268 1014.39 848.737C1012.61 847.893 1009.81 847.471 1006 847.471H984.766V877.002H975.438V808.143ZM1049.03 863.643C1049.03 866.081 1049.92 868.002 1051.7 869.409C1053.48 870.815 1055.59 871.518 1058.03 871.518C1061 871.518 1063.88 870.831 1066.66 869.456C1071.34 867.174 1073.69 863.44 1073.69 858.252V851.456C1072.66 852.112 1071.33 852.659 1069.7 853.096C1068.08 853.534 1066.48 853.846 1064.92 854.034L1059.81 854.69C1056.75 855.096 1054.45 855.737 1052.92 856.612C1050.33 858.081 1049.03 860.424 1049.03 863.643ZM1069.47 846.581C1071.41 846.331 1072.7 845.518 1073.36 844.143C1073.73 843.393 1073.92 842.315 1073.92 840.909C1073.92 838.034 1072.89 835.956 1070.83 834.674C1068.8 833.362 1065.88 832.706 1062.06 832.706C1057.66 832.706 1054.53 833.893 1052.69 836.268C1051.66 837.581 1050.98 839.534 1050.67 842.127H1042.8C1042.95 835.94 1044.95 831.643 1048.8 829.237C1052.67 826.799 1057.16 825.581 1062.25 825.581C1068.16 825.581 1072.95 826.706 1076.64 828.956C1080.3 831.206 1082.12 834.706 1082.12 839.456V868.377C1082.12 869.252 1082.3 869.956 1082.64 870.487C1083.02 871.018 1083.78 871.284 1084.94 871.284C1085.31 871.284 1085.73 871.268 1086.2 871.237C1086.67 871.174 1087.17 871.096 1087.7 871.002V877.237C1086.39 877.612 1085.39 877.846 1084.7 877.94C1084.02 878.034 1083.08 878.081 1081.89 878.081C1078.98 878.081 1076.88 877.049 1075.56 874.987C1074.88 873.893 1074.39 872.346 1074.11 870.346C1072.39 872.596 1069.92 874.549 1066.7 876.206C1063.48 877.862 1059.94 878.69 1056.06 878.69C1051.41 878.69 1047.59 877.284 1044.62 874.471C1041.69 871.627 1040.22 868.081 1040.22 863.831C1040.22 859.174 1041.67 855.565 1044.58 853.002C1047.48 850.44 1051.3 848.862 1056.02 848.268L1069.47 846.581ZM1096.23 826.799H1104.25V835.471C1104.91 833.784 1106.52 831.737 1109.08 829.331C1111.64 826.893 1114.59 825.674 1117.94 825.674C1118.09 825.674 1118.36 825.69 1118.73 825.721C1119.11 825.752 1119.75 825.815 1120.66 825.909V834.815C1120.16 834.721 1119.69 834.659 1119.25 834.627C1118.84 834.596 1118.39 834.581 1117.89 834.581C1113.64 834.581 1110.38 835.956 1108.09 838.706C1105.81 841.424 1104.67 844.565 1104.67 848.127V877.002H1096.23V826.799ZM1148.88 825.674C1152.44 825.674 1155.89 826.518 1159.23 828.206C1162.58 829.862 1165.12 832.018 1166.88 834.674C1168.56 837.206 1169.69 840.159 1170.25 843.534C1170.75 845.846 1171 849.534 1171 854.596H1134.2C1134.36 859.69 1135.56 863.784 1137.81 866.877C1140.06 869.94 1143.55 871.471 1148.27 871.471C1152.67 871.471 1156.19 870.018 1158.81 867.112C1160.31 865.424 1161.38 863.471 1162 861.252H1170.3C1170.08 863.096 1169.34 865.159 1168.09 867.44C1166.88 869.69 1165.5 871.534 1163.97 872.971C1161.41 875.471 1158.23 877.159 1154.45 878.034C1152.42 878.534 1150.12 878.784 1147.56 878.784C1141.31 878.784 1136.02 876.518 1131.67 871.987C1127.33 867.424 1125.16 861.049 1125.16 852.862C1125.16 844.799 1127.34 838.252 1131.72 833.221C1136.09 828.19 1141.81 825.674 1148.88 825.674ZM1162.33 847.893C1161.98 844.237 1161.19 841.315 1159.94 839.127C1157.62 835.065 1153.77 833.034 1148.36 833.034C1144.48 833.034 1141.23 834.44 1138.61 837.252C1135.98 840.034 1134.59 843.581 1134.44 847.893H1162.33ZM1181.64 808.143H1190.08V877.002H1181.64V808.143ZM1234.14 826.799H1243.47C1242.28 830.018 1239.64 837.362 1235.55 848.831C1232.48 857.456 1229.92 864.487 1227.86 869.924C1222.98 882.737 1219.55 890.549 1217.55 893.362C1215.55 896.174 1212.11 897.581 1207.23 897.581C1206.05 897.581 1205.12 897.534 1204.47 897.44C1203.84 897.346 1203.06 897.174 1202.12 896.924V889.237C1203.59 889.643 1204.66 889.893 1205.31 889.987C1205.97 890.081 1206.55 890.127 1207.05 890.127C1208.61 890.127 1209.75 889.862 1210.47 889.331C1211.22 888.831 1211.84 888.206 1212.34 887.456C1212.5 887.206 1213.06 885.924 1214.03 883.612C1215 881.299 1215.7 879.581 1216.14 878.456L1197.58 826.799H1207.14L1220.59 867.674L1234.14 826.799Z" fill="black"/>
<path d="M772.312 1307.14H783.328L818.109 1362.92V1307.14H826.969V1376H816.516L781.219 1320.27V1376H772.312V1307.14ZM861.469 1324.67C865.031 1324.67 868.484 1325.52 871.828 1327.2C875.172 1328.86 877.719 1331.02 879.469 1333.67C881.156 1336.2 882.281 1339.16 882.844 1342.53C883.344 1344.84 883.594 1348.53 883.594 1353.59H846.797C846.953 1358.69 848.156 1362.78 850.406 1365.88C852.656 1368.94 856.141 1370.47 860.859 1370.47C865.266 1370.47 868.781 1369.02 871.406 1366.11C872.906 1364.42 873.969 1362.47 874.594 1360.25H882.891C882.672 1362.09 881.938 1364.16 880.688 1366.44C879.469 1368.69 878.094 1370.53 876.562 1371.97C874 1374.47 870.828 1376.16 867.047 1377.03C865.016 1377.53 862.719 1377.78 860.156 1377.78C853.906 1377.78 848.609 1375.52 844.266 1370.98C839.922 1366.42 837.75 1360.05 837.75 1351.86C837.75 1343.8 839.938 1337.25 844.312 1332.22C848.688 1327.19 854.406 1324.67 861.469 1324.67ZM874.922 1346.89C874.578 1343.23 873.781 1340.31 872.531 1338.12C870.219 1334.06 866.359 1332.03 860.953 1332.03C857.078 1332.03 853.828 1333.44 851.203 1336.25C848.578 1339.03 847.188 1342.58 847.031 1346.89H874.922ZM898.125 1325.8L911.531 1366.67L925.547 1325.8H934.781L915.844 1376H906.844L888.328 1325.8H898.125ZM962.906 1324.67C966.469 1324.67 969.922 1325.52 973.266 1327.2C976.609 1328.86 979.156 1331.02 980.906 1333.67C982.594 1336.2 983.719 1339.16 984.281 1342.53C984.781 1344.84 985.031 1348.53 985.031 1353.59H948.234C948.391 1358.69 949.594 1362.78 951.844 1365.88C954.094 1368.94 957.578 1370.47 962.297 1370.47C966.703 1370.47 970.219 1369.02 972.844 1366.11C974.344 1364.42 975.406 1362.47 976.031 1360.25H984.328C984.109 1362.09 983.375 1364.16 982.125 1366.44C980.906 1368.69 979.531 1370.53 978 1371.97C975.438 1374.47 972.266 1376.16 968.484 1377.03C966.453 1377.53 964.156 1377.78 961.594 1377.78C955.344 1377.78 950.047 1375.52 945.703 1370.98C941.359 1366.42 939.188 1360.05 939.188 1351.86C939.188 1343.8 941.375 1337.25 945.75 1332.22C950.125 1327.19 955.844 1324.67 962.906 1324.67ZM976.359 1346.89C976.016 1343.23 975.219 1340.31 973.969 1338.12C971.656 1334.06 967.797 1332.03 962.391 1332.03C958.516 1332.03 955.266 1333.44 952.641 1336.25C950.016 1339.03 948.625 1342.58 948.469 1346.89H976.359ZM995.672 1325.8H1003.69V1334.47C1004.34 1332.78 1005.95 1330.73 1008.52 1328.33C1011.08 1325.89 1014.03 1324.67 1017.38 1324.67C1017.53 1324.67 1017.8 1324.69 1018.17 1324.72C1018.55 1324.75 1019.19 1324.81 1020.09 1324.91V1333.81C1019.59 1333.72 1019.12 1333.66 1018.69 1333.62C1018.28 1333.59 1017.83 1333.58 1017.33 1333.58C1013.08 1333.58 1009.81 1334.95 1007.53 1337.7C1005.25 1340.42 1004.11 1343.56 1004.11 1347.12V1376H995.672V1325.8Z" fill="black"/>
<path d="M1226.96 72.2787C1227.21 76.183 1228.16 79.3471 1229.8 81.7709C1232.93 86.3074 1238.4 88.543 1246.22 88.4776C1249.72 88.4484 1252.9 87.9218 1255.77 86.8978C1261.31 84.9138 1264.06 81.422 1264.02 76.4221C1263.99 72.6723 1262.8 70.0103 1260.44 68.4362C1258.05 66.8936 1254.32 65.5653 1249.25 64.4514L1239.9 62.4201C1233.8 61.0961 1229.47 59.6166 1226.93 57.9815C1222.53 55.1432 1220.31 50.8648 1220.26 45.1462C1220.21 38.9589 1222.31 33.8631 1226.55 29.8587C1230.8 25.8543 1236.85 23.8193 1244.69 23.7538C1251.91 23.6934 1258.05 25.3922 1263.11 28.85C1268.2 32.2763 1270.78 37.8174 1270.84 45.4734L1262.08 45.5467C1261.58 41.8632 1260.55 39.0436 1259.01 37.0877C1256.13 33.5178 1251.29 31.7614 1244.48 31.8183C1238.98 31.8643 1235.03 33.0536 1232.65 35.3861C1230.26 37.7186 1229.08 40.4161 1229.11 43.4785C1229.13 46.8534 1230.56 49.3103 1233.39 50.8492C1235.24 51.8338 1239.42 53.0488 1245.93 54.4945L1255.61 56.6168C1260.27 57.6403 1263.88 59.0634 1266.42 60.8859C1270.83 64.068 1273.05 68.7214 1273.1 74.8462C1273.17 82.4709 1270.43 87.9471 1264.9 91.2747C1259.39 94.6021 1252.97 96.2965 1245.63 96.3579C1237.06 96.4294 1230.34 94.298 1225.46 89.9637C1220.58 85.6606 1218.16 79.79 1218.19 72.352L1226.96 72.2787ZM1305.09 88.173C1309.03 88.1401 1312.28 86.4722 1314.85 83.1694C1317.44 79.8351 1318.72 74.8868 1318.66 68.3245C1318.63 64.3247 1318.02 60.8921 1316.84 58.0269C1314.61 52.5141 1310.58 49.782 1304.77 49.8306C1298.93 49.8794 1294.95 52.8347 1292.84 58.6962C1291.71 61.8308 1291.17 65.8042 1291.21 70.6166C1291.24 74.4914 1291.85 77.7833 1293.03 80.4923C1295.26 85.6614 1299.28 88.2216 1305.09 88.173ZM1282.88 44.0603L1291.08 43.9917L1291.14 50.6477C1292.8 48.3524 1294.63 46.5715 1296.62 45.3048C1299.45 43.4061 1302.79 42.4407 1306.63 42.4085C1312.32 42.361 1317.16 44.5081 1321.17 48.8497C1325.17 53.1602 1327.21 59.3621 1327.28 67.4556C1327.37 78.3927 1324.58 86.2288 1318.9 90.964C1315.3 93.9629 1311.09 95.4825 1306.28 95.5227C1302.5 95.5543 1299.32 94.7527 1296.74 93.118C1295.23 92.193 1293.55 90.5977 1291.69 88.3319L1291.9 113.972L1283.46 114.042L1282.88 44.0603ZM1357.86 42.074C1361.43 42.0442 1364.89 42.8591 1368.24 44.5186C1371.6 46.1468 1374.17 48.2817 1375.94 50.9233C1377.65 53.4403 1378.8 56.3839 1379.39 59.7541C1379.91 62.0623 1380.19 65.7476 1380.23 70.8099L1343.43 71.1175C1343.63 76.2098 1344.87 80.2933 1347.15 83.3682C1349.42 86.4118 1352.92 87.9138 1357.64 87.8744C1362.04 87.8376 1365.55 86.3551 1368.15 83.427C1369.63 81.727 1370.68 79.7651 1371.29 77.5412L1379.58 77.4718C1379.38 79.3174 1378.66 81.3859 1377.43 83.6775C1376.23 85.9377 1374.87 87.7928 1373.35 89.2431C1370.81 91.7644 1367.65 93.4784 1363.88 94.3849C1361.85 94.9019 1359.56 95.1711 1357 95.1925C1350.75 95.2448 1345.43 93.0235 1341.05 88.5287C1336.67 84.0027 1334.44 77.6461 1334.37 69.4588C1334.31 61.3966 1336.44 54.8317 1340.77 49.764C1345.1 44.6964 1350.8 42.1331 1357.86 42.074ZM1371.5 64.1795C1371.13 60.5263 1370.31 57.6112 1369.04 55.4342C1366.69 51.3912 1362.82 49.3923 1357.41 49.4375C1353.54 49.4698 1350.3 50.9032 1347.7 53.7376C1345.09 56.5407 1343.73 60.099 1343.61 64.4127L1371.5 64.1795ZM1409.75 41.3122C1415.41 41.2649 1420.01 42.6014 1423.57 45.3218C1427.15 48.0419 1429.33 52.7583 1430.11 59.4708L1421.9 59.5393C1421.38 56.4499 1420.21 53.897 1418.42 51.8807C1416.62 49.8332 1413.75 48.8259 1409.81 48.8588C1404.44 48.9037 1400.62 51.5607 1398.35 56.8299C1396.88 60.2486 1396.16 64.4578 1396.2 69.4576C1396.25 74.4887 1397.34 78.714 1399.5 82.1337C1401.65 85.5533 1405.01 87.244 1409.57 87.2059C1413.07 87.1766 1415.83 86.091 1417.84 83.9491C1419.89 81.7757 1421.28 78.8264 1422.03 75.1013L1430.24 75.0327C1429.35 81.6966 1427.05 86.591 1423.33 89.716C1419.6 92.8097 1414.82 94.381 1408.98 94.4299C1402.41 94.4847 1397.16 92.1379 1393.21 87.3895C1389.27 82.6098 1387.26 76.6264 1387.2 69.4391C1387.13 60.6269 1389.21 53.7499 1393.45 48.808C1397.69 43.8662 1403.13 41.3675 1409.75 41.3122ZM1438.4 42.7602L1446.98 42.6885L1447.4 92.6555L1438.82 92.7272L1438.4 42.7602ZM1438.25 23.8702L1446.82 23.7985L1446.9 33.3607L1438.33 33.4324L1438.25 23.8702ZM1466.55 79.1356C1466.57 81.573 1467.48 83.4873 1469.27 84.8786C1471.07 86.27 1473.18 86.9554 1475.62 86.935C1478.59 86.9102 1481.46 86.1987 1484.23 84.8005C1488.89 82.4802 1491.21 78.7263 1491.16 73.539L1491.11 66.7424C1490.08 67.4072 1488.76 67.9652 1487.14 68.4163C1485.51 68.8673 1483.92 69.1931 1482.36 69.3937L1477.26 70.0926C1474.2 70.5245 1471.91 71.1843 1470.38 72.072C1467.8 73.5624 1466.53 75.9169 1466.55 79.1356ZM1486.85 61.9028C1488.78 61.6366 1490.07 60.8133 1490.72 59.4329C1491.09 58.6798 1491.26 57.6001 1491.25 56.1939C1491.23 53.319 1490.18 51.2496 1488.11 49.9856C1486.06 48.6901 1483.14 48.0583 1479.32 48.0902C1474.92 48.127 1471.8 49.3406 1469.98 51.7309C1468.96 53.052 1468.3 55.0107 1468.01 57.607L1460.14 57.6728C1460.24 51.4842 1462.21 47.1708 1466.03 44.7325C1469.89 42.2627 1474.36 41.0065 1479.45 40.9639C1485.36 40.9145 1490.16 41.9994 1493.87 44.2185C1497.55 46.4378 1499.4 49.9224 1499.44 54.6723L1499.68 83.5931C1499.69 84.4681 1499.87 85.1698 1500.22 85.6981C1500.6 86.2262 1501.37 86.4854 1502.52 86.4758C1502.9 86.4726 1503.32 86.4535 1503.79 86.4183C1504.25 86.3519 1504.75 86.2696 1505.28 86.1714L1505.34 92.4056C1504.03 92.7915 1503.03 93.0343 1502.34 93.1337C1501.66 93.2332 1500.72 93.288 1499.53 93.2979C1496.63 93.3222 1494.51 92.3086 1493.18 90.2571C1492.48 89.1692 1491.98 87.6264 1491.69 85.6288C1489.99 87.8931 1487.53 89.8668 1484.33 91.5499C1481.12 93.233 1477.58 94.0907 1473.71 94.1231C1469.05 94.162 1465.23 92.7877 1462.24 90.0001C1459.28 87.181 1457.78 83.6466 1457.74 79.3967C1457.7 74.7406 1459.13 71.1192 1462.01 68.5325C1464.9 65.9458 1468.69 64.3359 1473.41 63.7027L1486.85 61.9028ZM1513.29 23.2429L1521.73 23.1724L1522.3 92.0294L1513.87 92.0999L1513.29 23.2429ZM1591.97 20.7101C1604.13 20.6085 1613.16 24.4394 1619.07 32.2028C1623.69 38.2582 1626.03 46.0357 1626.11 55.5354C1626.2 65.8163 1623.66 74.3846 1618.5 81.2405C1612.44 89.2915 1603.74 93.3643 1592.4 93.4591C1581.8 93.5477 1573.44 90.1174 1567.32 83.1684C1561.86 76.4638 1559.09 67.9554 1559 57.6433C1558.92 48.3311 1561.17 40.3433 1565.74 33.6799C1571.6 25.1305 1580.35 20.8073 1591.97 20.7101ZM1593.45 85.1063C1601.67 85.0376 1607.58 82.0506 1611.19 76.1452C1614.83 70.2083 1616.61 63.4119 1616.55 55.7559C1616.48 47.6625 1614.3 41.1648 1610.01 36.263C1605.75 31.361 1599.95 28.9406 1592.61 29.002C1585.48 29.0616 1579.69 31.5632 1575.23 36.5069C1570.77 41.4193 1568.58 48.641 1568.66 58.1719C1568.73 65.7967 1570.7 72.2179 1574.59 77.4356C1578.51 82.6217 1584.79 85.1786 1593.45 85.1063ZM1655.37 39.259C1661.02 39.2117 1665.63 40.5483 1669.18 43.2687C1672.77 45.9888 1674.95 50.7051 1675.72 57.4176L1667.52 57.4862C1666.99 54.3967 1665.83 51.8438 1664.03 49.8276C1662.23 47.78 1659.37 46.7727 1655.43 46.8056C1650.05 46.8505 1646.23 49.5076 1643.96 54.7767C1642.49 58.1954 1641.78 62.4046 1641.82 67.4045C1641.86 72.4355 1642.96 76.6609 1645.11 80.0805C1647.27 83.5001 1650.63 85.1909 1655.19 85.1527C1658.69 85.1235 1661.44 84.0379 1663.46 81.896C1665.5 79.7226 1666.9 76.7733 1667.65 73.0481L1675.85 72.9796C1674.97 79.6434 1672.67 84.5378 1668.94 87.6628C1665.22 90.7566 1660.44 92.3279 1654.59 92.3767C1648.03 92.4316 1642.78 90.0848 1638.83 85.3363C1634.88 80.5567 1632.88 74.5732 1632.82 67.386C1632.75 58.5738 1634.83 51.6967 1639.07 46.7549C1643.31 41.813 1648.74 39.3144 1655.37 39.259ZM1703.36 38.8578C1709.02 38.8105 1713.63 40.1471 1717.18 42.8674C1720.77 45.5876 1722.95 50.3039 1723.72 57.0164L1715.52 57.085C1714.99 53.9955 1713.83 51.4426 1712.03 49.4263C1710.23 47.3788 1707.37 46.3715 1703.43 46.4044C1698.05 46.4493 1694.23 49.1064 1691.96 54.3755C1690.49 57.7942 1689.78 62.0034 1689.82 67.0032C1689.86 72.0343 1690.96 76.2597 1693.11 79.6793C1695.27 83.0989 1698.62 84.7896 1703.19 84.7515C1706.69 84.7222 1709.44 83.6367 1711.46 81.4948C1713.5 79.3213 1714.9 76.3721 1715.65 72.6469L1723.85 72.5783C1722.97 79.2422 1720.67 84.1366 1716.94 87.2616C1713.22 90.3553 1708.43 91.9266 1702.59 91.9755C1696.03 92.0303 1690.77 89.6836 1686.83 84.9351C1682.88 80.1554 1680.88 74.172 1680.82 66.9847C1680.74 58.1725 1682.83 51.2955 1687.07 46.3536C1691.31 41.4118 1696.74 38.9132 1703.36 38.8578ZM1738.79 76.8598C1738.81 79.2973 1739.72 81.2116 1741.51 82.6029C1743.31 83.9942 1745.42 84.6797 1747.86 84.6593C1750.83 84.6345 1753.7 83.923 1756.47 82.5248C1761.13 80.2045 1763.45 76.4506 1763.4 71.2633L1763.35 64.4667C1762.32 65.1315 1761 65.6895 1759.38 66.1405C1757.75 66.5916 1756.16 66.9174 1754.6 67.118L1749.5 67.8169C1746.44 68.2487 1744.15 68.9085 1742.62 69.7963C1740.04 71.2867 1738.77 73.6412 1738.79 76.8598ZM1759.09 59.6271C1761.02 59.3609 1762.31 58.5376 1762.96 57.1572C1763.33 56.4041 1763.5 55.3244 1763.49 53.9182C1763.47 51.0433 1762.42 48.9739 1760.35 47.7099C1758.3 46.4144 1755.38 45.7826 1751.57 45.8145C1747.16 45.8513 1744.04 47.0649 1742.22 49.4552C1741.2 50.7763 1740.54 52.735 1740.25 55.3313L1732.38 55.3971C1732.48 49.2085 1734.45 44.895 1738.27 42.4567C1742.13 39.9869 1746.6 38.7308 1751.69 38.6882C1757.6 38.6388 1762.41 39.7237 1766.11 41.9428C1769.79 44.1621 1771.64 47.6467 1771.68 52.3966L1771.93 81.3174C1771.93 82.1924 1772.11 82.8941 1772.46 83.4224C1772.84 83.9505 1773.61 84.2097 1774.76 84.2001C1775.14 84.1969 1775.56 84.1778 1776.03 84.1426C1776.5 84.0762 1776.99 83.9939 1777.53 83.8957L1777.58 90.1299C1776.27 90.5158 1775.27 90.7585 1774.58 90.858C1773.9 90.9575 1772.96 91.0122 1771.77 91.0222C1768.87 91.0465 1766.75 90.0329 1765.42 87.9814C1764.72 86.8935 1764.22 85.3507 1763.93 83.3531C1762.23 85.6174 1759.77 87.5911 1756.57 89.2742C1753.36 90.9573 1749.82 91.815 1745.95 91.8474C1741.29 91.8863 1737.47 90.512 1734.48 87.7244C1731.52 84.9053 1730.02 81.3708 1729.98 77.121C1729.94 72.4649 1731.37 68.8435 1734.25 66.2568C1737.14 63.6701 1740.94 62.0602 1745.65 61.427L1759.09 59.6271ZM1790.76 74.0348C1791.03 76.8451 1791.75 78.9954 1792.92 80.4857C1795.07 83.1865 1798.77 84.5151 1804.02 84.4712C1807.14 84.445 1809.88 83.7502 1812.25 82.3867C1814.61 80.9918 1815.78 78.8726 1815.76 76.029C1815.74 73.8728 1814.77 72.2402 1812.86 71.1312C1811.63 70.4539 1809.22 69.6771 1805.62 68.801L1798.9 67.1696C1794.61 66.1429 1791.45 64.9818 1789.4 63.6863C1785.76 61.4355 1783.92 58.2945 1783.89 54.2634C1783.85 49.5135 1785.52 45.6557 1788.9 42.6898C1792.31 39.7237 1796.91 38.2164 1802.69 38.1681C1810.25 38.1049 1815.72 40.278 1819.11 44.6874C1821.22 47.4823 1822.26 50.5049 1822.23 53.7554L1814.26 53.822C1814.09 51.9171 1813.4 50.1884 1812.2 48.6359C1810.24 46.4334 1806.88 45.3521 1802.09 45.3921C1798.91 45.4187 1796.49 46.0483 1794.84 47.2809C1793.23 48.5132 1792.43 50.1293 1792.45 52.1292C1792.47 54.3167 1793.56 56.0576 1795.73 57.352C1796.98 58.1228 1798.83 58.7948 1801.27 59.3682L1806.86 60.6809C1812.94 62.0989 1817.01 63.4868 1819.09 64.8445C1822.39 66.9733 1824.05 70.35 1824.09 74.9749C1824.13 79.4435 1822.46 83.317 1819.08 86.5953C1815.73 89.8734 1810.59 91.5415 1803.65 91.5994C1796.18 91.6619 1790.87 90.0187 1787.72 86.67C1784.6 83.2897 1782.91 79.1005 1782.65 74.1025L1790.76 74.0348ZM1833.45 39.4579L1842.03 39.3862L1842.45 89.3532L1833.87 89.4249L1833.45 39.4579ZM1833.29 20.5679L1841.87 20.4962L1841.95 30.0584L1833.37 30.1301L1833.29 20.5679ZM1875.12 83.6424C1880.71 83.5956 1884.52 81.4543 1886.55 77.2185C1888.61 72.9512 1889.62 68.2238 1889.57 63.0365C1889.53 58.3492 1888.75 54.5431 1887.23 51.6182C1884.81 47.0132 1880.7 44.735 1874.89 44.7836C1869.73 44.8267 1866 46.8267 1863.69 50.7837C1861.38 54.7406 1860.25 59.5003 1860.29 65.0626C1860.34 70.4061 1861.55 74.8493 1863.92 78.3921C1866.29 81.9349 1870.03 83.685 1875.12 83.6424ZM1875.06 37.4225C1881.53 37.3685 1887.02 39.4789 1891.52 43.7539C1896.03 48.0289 1898.31 54.3538 1898.38 62.7285C1898.45 70.8219 1896.54 77.5257 1892.65 82.8396C1888.75 88.1536 1882.67 90.8452 1874.38 90.9144C1867.48 90.9722 1861.97 88.69 1857.87 84.0678C1853.77 79.4145 1851.69 73.1504 1851.62 65.2757C1851.55 56.8385 1853.64 50.1021 1857.88 45.0665C1862.11 40.0308 1867.84 37.4829 1875.06 37.4225ZM1908.26 38.5982L1916.28 38.5312L1916.34 45.6559C1918.69 42.6987 1921.18 40.5684 1923.83 39.265C1926.47 37.9615 1929.42 37.2963 1932.67 37.2691C1939.8 37.2095 1944.63 39.6536 1947.17 44.6013C1948.57 47.3084 1949.29 51.1932 1949.33 56.2555L1949.6 88.4575L1941.02 88.5292L1940.76 56.8897C1940.73 53.8273 1940.26 51.3624 1939.34 49.4951C1937.81 46.3827 1935.08 44.843 1931.14 44.8759C1929.14 44.8926 1927.5 45.1094 1926.23 45.5264C1923.92 46.2332 1921.9 47.6251 1920.17 49.7022C1918.77 51.3701 1917.87 53.0965 1917.44 54.8814C1917.05 56.6347 1916.87 59.1519 1916.9 62.4331L1917.12 88.729L1908.68 88.7996L1908.26 38.5982ZM1967 72.5615C1967.27 75.3718 1967.99 77.5221 1969.16 79.0124C1971.31 81.7133 1975.01 83.0418 1980.26 82.9979C1983.38 82.9718 1986.13 82.2769 1988.49 80.9134C1990.86 79.5186 1992.03 77.3994 1992 74.5557C1991.98 72.3995 1991.02 70.7669 1989.1 69.6579C1987.88 68.9806 1985.46 68.2039 1981.86 67.3277L1975.15 65.6963C1970.86 64.6696 1967.69 63.5085 1965.65 62.2131C1962 59.9622 1960.16 56.8212 1960.13 52.7901C1960.09 48.0403 1961.76 44.1824 1965.14 41.2165C1968.56 38.2504 1973.15 36.7432 1978.93 36.6949C1986.5 36.6316 1991.97 38.8047 1995.35 43.2141C1997.47 46.009 1998.51 49.0317 1998.47 52.2821L1990.5 52.3487C1990.33 50.4438 1989.64 48.7151 1988.44 47.1626C1986.49 44.9601 1983.12 43.8789 1978.34 43.9188C1975.15 43.9455 1972.73 44.5751 1971.09 45.8076C1969.47 47.0399 1968.67 48.656 1968.69 50.656C1968.71 52.8434 1969.8 54.5843 1971.97 55.8788C1973.23 56.6495 1975.08 57.3216 1977.52 57.8949L1983.11 59.2076C1989.18 60.6257 1993.26 62.0135 1995.33 63.3712C1998.63 65.5 2000.3 68.8768 2000.34 73.5016C2000.37 77.9702 1998.7 81.8437 1995.32 85.1221C1991.98 88.4002 1986.83 90.0682 1979.9 90.1262C1972.43 90.1886 1967.12 88.5455 1963.96 85.1967C1960.84 81.8164 1959.15 77.6273 1958.89 72.6293L1967 72.5615Z" fill="black"/>
<line x1="1463" y1="202" x2="1463" y2="110" stroke="black" stroke-width="4"/>
</svg>
