<svg width="16801" height="15747" viewBox="0 0 16801 15747" fill="none" xmlns="http://www.w3.org/2000/svg">
<circle cx="8400.93" cy="4939.65" r="4929.65" fill="#FFDB0E" fill-opacity="0.35" stroke="black" stroke-width="20"/>
<circle cx="11860.9" cy="10807.4" r="4929.65" fill="#FFDB0E" fill-opacity="0.35" stroke="black" stroke-width="20"/>
<circle cx="4939.65" cy="10807.4" r="4929.65" fill="#FFDB0E" fill-opacity="0.35" stroke="black" stroke-width="20"/>
<path d="M6687.75 4550.9C6705.98 4550.9 6720.37 4547.25 6730.92 4539.96C6741.6 4532.67 6746.93 4519.52 6746.93 4500.51C6746.93 4480.06 6739.51 4466.13 6724.67 4458.71C6716.73 4454.8 6706.11 4452.85 6692.83 4452.85H6597.91V4550.9H6687.75ZM6559.04 4419.45H6691.86C6713.73 4419.45 6731.76 4422.64 6745.96 4429.02C6772.91 4441.26 6786.39 4463.85 6786.39 4496.8C6786.39 4513.98 6782.81 4528.05 6775.64 4538.98C6768.61 4549.92 6758.72 4558.71 6745.96 4565.35C6757.15 4569.91 6765.55 4575.9 6771.15 4583.32C6776.88 4590.74 6780.07 4602.78 6780.72 4619.45L6782.09 4657.93C6782.48 4668.87 6783.39 4677 6784.82 4682.34C6787.17 4691.46 6791.33 4697.32 6797.32 4699.92V4706.37H6749.67C6748.37 4703.89 6747.32 4700.7 6746.54 4696.8C6745.76 4692.89 6745.11 4685.34 6744.59 4674.14L6742.25 4626.29C6741.33 4607.54 6734.37 4594.97 6721.35 4588.59C6713.93 4585.08 6702.27 4583.32 6686.39 4583.32H6597.91V4706.37H6559.04V4419.45ZM6925.84 4492.5C6940.68 4492.5 6955.07 4496.01 6969 4503.05C6982.94 4509.95 6993.55 4518.93 7000.84 4530C7007.87 4540.55 7012.56 4552.85 7014.9 4566.91C7016.99 4576.55 7018.03 4591.91 7018.03 4613.01H6864.71C6865.36 4634.23 6870.37 4651.29 6879.75 4664.18C6889.12 4676.94 6903.64 4683.32 6923.3 4683.32C6941.66 4683.32 6956.31 4677.26 6967.25 4665.15C6973.5 4658.12 6977.92 4649.99 6980.53 4640.74H7015.1C7014.19 4648.42 7011.13 4657.02 7005.92 4666.52C7000.84 4675.9 6995.11 4683.58 6988.73 4689.57C6978.05 4699.99 6964.84 4707.02 6949.08 4710.66C6940.62 4712.75 6931.05 4713.79 6920.37 4713.79C6894.33 4713.79 6872.26 4704.35 6854.16 4685.47C6836.06 4666.46 6827.01 4639.89 6827.01 4605.78C6827.01 4572.19 6836.13 4544.91 6854.36 4523.94C6872.58 4502.98 6896.41 4492.5 6925.84 4492.5ZM6981.89 4585.08C6980.46 4569.84 6977.14 4557.67 6971.93 4548.55C6962.3 4531.63 6946.22 4523.16 6923.69 4523.16C6907.55 4523.16 6894 4529.02 6883.07 4540.74C6872.13 4552.33 6866.33 4567.11 6865.68 4585.08H6981.89ZM7142.05 4491.13C7165.62 4491.13 7184.76 4496.86 7199.47 4508.32C7214.32 4519.78 7223.24 4539.5 7226.23 4567.5H7192.05C7189.97 4554.61 7185.21 4543.93 7177.79 4535.47C7170.37 4526.87 7158.46 4522.58 7142.05 4522.58C7119.65 4522.58 7103.64 4533.51 7094 4555.39C7087.75 4569.58 7084.63 4587.09 7084.63 4607.93C7084.63 4628.89 7089.06 4646.53 7097.91 4660.86C7106.76 4675.18 7120.7 4682.34 7139.71 4682.34C7154.29 4682.34 7165.81 4677.92 7174.28 4669.06C7182.87 4660.08 7188.8 4647.84 7192.05 4632.34H7226.23C7222.32 4660.08 7212.56 4680.39 7196.93 4693.28C7181.31 4706.04 7161.32 4712.42 7136.97 4712.42C7109.63 4712.42 7087.82 4702.46 7071.54 4682.54C7055.27 4662.49 7047.13 4637.49 7047.13 4607.54C7047.13 4570.82 7056.05 4542.24 7073.89 4521.8C7091.73 4501.35 7114.45 4491.13 7142.05 4491.13ZM7261.39 4498.16H7297.13V4706.37H7261.39V4498.16ZM7261.39 4419.45H7297.13V4459.3H7261.39V4419.45ZM7438.73 4682.73C7455.14 4682.73 7468.74 4675.9 7479.55 4662.23C7490.49 4648.42 7495.96 4627.85 7495.96 4600.51C7495.96 4583.84 7493.55 4569.52 7488.73 4557.54C7479.62 4534.49 7462.95 4522.97 7438.73 4522.97C7414.38 4522.97 7397.71 4535.14 7388.73 4559.49C7383.91 4572.51 7381.5 4589.05 7381.5 4609.1C7381.5 4625.25 7383.91 4638.98 7388.73 4650.31C7397.85 4671.93 7414.51 4682.73 7438.73 4682.73ZM7347.71 4498.16H7381.89V4525.9C7388.93 4516.39 7396.61 4509.03 7404.94 4503.83C7416.79 4496.01 7430.72 4492.11 7446.74 4492.11C7470.44 4492.11 7490.55 4501.22 7507.09 4519.45C7523.63 4537.55 7531.89 4563.46 7531.89 4597.19C7531.89 4642.76 7519.98 4675.31 7496.15 4694.84C7481.05 4707.21 7463.47 4713.4 7443.42 4713.4C7427.66 4713.4 7414.45 4709.95 7403.77 4703.05C7397.52 4699.14 7390.55 4692.43 7382.87 4682.93V4789.76H7347.71V4498.16ZM7660.21 4492.5C7675.06 4492.5 7689.45 4496.01 7703.38 4503.05C7717.31 4509.95 7727.92 4518.93 7735.21 4530C7742.25 4540.55 7746.93 4552.85 7749.28 4566.91C7751.36 4576.55 7752.4 4591.91 7752.4 4613.01H7599.08C7599.73 4634.23 7604.75 4651.29 7614.12 4664.18C7623.5 4676.94 7638.01 4683.32 7657.68 4683.32C7676.04 4683.32 7690.68 4677.26 7701.62 4665.15C7707.87 4658.12 7712.3 4649.99 7714.9 4640.74H7749.47C7748.56 4648.42 7745.5 4657.02 7740.29 4666.52C7735.21 4675.9 7729.49 4683.58 7723.11 4689.57C7712.43 4699.99 7699.21 4707.02 7683.46 4710.66C7674.99 4712.75 7665.42 4713.79 7654.75 4713.79C7628.7 4713.79 7606.63 4704.35 7588.54 4685.47C7570.44 4666.46 7561.39 4639.89 7561.39 4605.78C7561.39 4572.19 7570.5 4544.91 7588.73 4523.94C7606.96 4502.98 7630.79 4492.5 7660.21 4492.5ZM7716.27 4585.08C7714.84 4569.84 7711.52 4557.67 7706.31 4548.55C7696.67 4531.63 7680.59 4523.16 7658.07 4523.16C7641.92 4523.16 7628.38 4529.02 7617.44 4540.74C7606.5 4552.33 7600.71 4567.11 7600.06 4585.08H7716.27ZM8032.68 4411.64C8069 4411.64 8097.19 4421.21 8117.25 4440.35C8137.3 4459.49 8148.43 4481.24 8150.64 4505.58H8112.75C8108.46 4487.09 8099.86 4472.45 8086.97 4461.64C8074.21 4450.83 8056.24 4445.43 8033.07 4445.43C8004.81 4445.43 7981.96 4455.39 7964.51 4475.31C7947.19 4495.1 7938.54 4525.51 7938.54 4566.52C7938.54 4600.12 7946.35 4627.39 7961.97 4648.36C7977.73 4669.19 8001.17 4679.61 8032.29 4679.61C8060.93 4679.61 8082.74 4668.61 8097.71 4646.6C8105.66 4635.01 8111.58 4619.78 8115.49 4600.9H8153.38C8149.99 4631.11 8138.8 4656.43 8119.79 4676.87C8097 4701.48 8066.27 4713.79 8027.6 4713.79C7994.26 4713.79 7966.27 4703.7 7943.61 4683.51C7913.8 4656.82 7898.89 4615.61 7898.89 4559.88C7898.89 4517.56 7910.08 4482.86 7932.48 4455.78C7956.7 4426.35 7990.1 4411.64 8032.68 4411.64ZM8197.13 4497.19H8230.53V4533.32C8233.26 4526.29 8239.97 4517.76 8250.64 4507.73C8261.32 4497.58 8273.63 4492.5 8287.56 4492.5C8288.21 4492.5 8289.32 4492.56 8290.88 4492.69C8292.44 4492.82 8295.11 4493.08 8298.89 4493.48V4530.58C8296.8 4530.19 8294.85 4529.93 8293.03 4529.8C8291.33 4529.67 8289.45 4529.61 8287.36 4529.61C8269.65 4529.61 8256.05 4535.34 8246.54 4546.8C8237.04 4558.12 8232.29 4571.21 8232.29 4586.05V4706.37H8197.13V4497.19ZM8416.46 4492.5C8431.31 4492.5 8445.7 4496.01 8459.63 4503.05C8473.56 4509.95 8484.17 4518.93 8491.46 4530C8498.5 4540.55 8503.18 4552.85 8505.53 4566.91C8507.61 4576.55 8508.65 4591.91 8508.65 4613.01H8355.33C8355.98 4634.23 8361 4651.29 8370.37 4664.18C8379.75 4676.94 8394.26 4683.32 8413.93 4683.32C8432.29 4683.32 8446.93 4677.26 8457.87 4665.15C8464.12 4658.12 8468.55 4649.99 8471.15 4640.74H8505.72C8504.81 4648.42 8501.75 4657.02 8496.54 4666.52C8491.46 4675.9 8485.74 4683.58 8479.36 4689.57C8468.68 4699.99 8455.46 4707.02 8439.71 4710.66C8431.24 4712.75 8421.67 4713.79 8411 4713.79C8384.95 4713.79 8362.88 4704.35 8344.79 4685.47C8326.69 4666.46 8317.64 4639.89 8317.64 4605.78C8317.64 4572.19 8326.75 4544.91 8344.98 4523.94C8363.21 4502.98 8387.04 4492.5 8416.46 4492.5ZM8472.52 4585.08C8471.09 4569.84 8467.77 4557.67 8462.56 4548.55C8452.92 4531.63 8436.84 4523.16 8414.32 4523.16C8398.17 4523.16 8384.63 4529.02 8373.69 4540.74C8362.75 4552.33 8356.96 4567.11 8356.31 4585.08H8472.52ZM8578.96 4650.7C8578.96 4660.86 8582.68 4668.87 8590.1 4674.73C8597.52 4680.58 8606.31 4683.51 8616.46 4683.51C8628.83 4683.51 8640.81 4680.65 8652.4 4674.92C8671.93 4665.42 8681.7 4649.86 8681.7 4628.24V4599.92C8677.4 4602.65 8671.87 4604.93 8665.1 4606.76C8658.33 4608.58 8651.69 4609.88 8645.18 4610.66L8623.89 4613.4C8611.13 4615.09 8601.56 4617.76 8595.18 4621.4C8584.37 4627.52 8578.96 4637.29 8578.96 4650.7ZM8664.12 4579.61C8672.19 4578.57 8677.6 4575.18 8680.33 4569.45C8681.89 4566.33 8682.68 4561.83 8682.68 4555.98C8682.68 4544 8678.38 4535.34 8669.79 4530C8661.32 4524.53 8649.15 4521.8 8633.26 4521.8C8614.9 4521.8 8601.88 4526.74 8594.2 4536.64C8589.9 4542.11 8587.1 4550.25 8585.8 4561.05H8552.99C8553.64 4535.27 8561.97 4517.37 8577.99 4507.34C8594.13 4497.19 8612.82 4492.11 8634.04 4492.11C8658.65 4492.11 8678.64 4496.8 8694 4506.17C8709.24 4515.55 8716.86 4530.13 8716.86 4549.92V4670.43C8716.86 4674.07 8717.57 4677 8719 4679.22C8720.57 4681.43 8723.76 4682.54 8728.57 4682.54C8730.14 4682.54 8731.89 4682.47 8733.85 4682.34C8735.8 4682.08 8737.88 4681.76 8740.1 4681.37V4707.34C8734.63 4708.9 8730.46 4709.88 8727.6 4710.27C8724.73 4710.66 8720.83 4710.86 8715.88 4710.86C8703.77 4710.86 8694.98 4706.56 8689.51 4697.97C8686.65 4693.41 8684.63 4686.96 8683.46 4678.63C8676.3 4688.01 8666.01 4696.14 8652.6 4703.05C8639.19 4709.95 8624.41 4713.4 8608.26 4713.4C8588.86 4713.4 8572.98 4707.54 8560.61 4695.82C8548.37 4683.97 8542.25 4669.19 8542.25 4651.48C8542.25 4632.08 8548.3 4617.04 8560.41 4606.37C8572.52 4595.69 8588.4 4589.11 8608.07 4586.64L8664.12 4579.61ZM8781.7 4438.79H8817.25V4497.19H8850.64V4525.9H8817.25V4662.42C8817.25 4669.71 8819.72 4674.59 8824.67 4677.07C8827.4 4678.5 8831.96 4679.22 8838.34 4679.22C8840.03 4679.22 8841.86 4679.22 8843.81 4679.22C8845.76 4679.09 8848.04 4678.89 8850.64 4678.63V4706.37C8846.61 4707.54 8842.38 4708.38 8837.95 4708.9C8833.65 4709.43 8828.96 4709.69 8823.89 4709.69C8807.48 4709.69 8796.35 4705.52 8790.49 4697.19C8784.63 4688.72 8781.7 4677.78 8781.7 4664.37V4525.9H8753.38V4497.19H8781.7V4438.79ZM8886 4498.16H8921.74V4706.37H8886V4498.16ZM8886 4419.45H8921.74V4459.3H8886V4419.45ZM9058.07 4683.71C9081.37 4683.71 9097.32 4674.92 9105.92 4657.34C9114.64 4639.63 9119 4619.97 9119 4598.36C9119 4578.83 9115.88 4562.94 9109.63 4550.7C9099.73 4531.43 9082.68 4521.8 9058.46 4521.8C9036.97 4521.8 9021.35 4530 9011.58 4546.4C9001.82 4562.81 8996.93 4582.6 8996.93 4605.78C8996.93 4628.05 9001.82 4646.6 9011.58 4661.44C9021.35 4676.29 9036.84 4683.71 9058.07 4683.71ZM9059.43 4491.13C9086.39 4491.13 9109.17 4500.12 9127.79 4518.08C9146.41 4536.05 9155.72 4562.49 9155.72 4597.38C9155.72 4631.11 9147.52 4658.97 9131.11 4680.98C9114.71 4702.98 9089.25 4713.98 9054.75 4713.98C9025.97 4713.98 9003.12 4704.28 8986.19 4684.88C8969.26 4665.35 8960.8 4639.18 8960.8 4606.37C8960.8 4571.21 8969.72 4543.21 8987.56 4522.38C9005.4 4501.55 9029.36 4491.13 9059.43 4491.13ZM9197.71 4497.19H9231.11V4526.87C9241.01 4514.63 9251.49 4505.84 9262.56 4500.51C9273.63 4495.17 9285.93 4492.5 9299.47 4492.5C9329.16 4492.5 9349.21 4502.85 9359.63 4523.55C9365.36 4534.88 9368.22 4551.09 9368.22 4572.19V4706.37H9332.48V4574.53C9332.48 4561.77 9330.59 4551.48 9326.82 4543.67C9320.57 4530.65 9309.24 4524.14 9292.83 4524.14C9284.5 4524.14 9277.66 4524.99 9272.32 4526.68C9262.69 4529.54 9254.23 4535.27 9246.93 4543.87C9241.07 4550.77 9237.23 4557.93 9235.41 4565.35C9233.72 4572.64 9232.87 4583.12 9232.87 4596.8V4706.37H9197.71V4497.19Z" fill="black"/>
<path d="M2723.8 10580C2760.13 10580 2788.32 10589.6 2808.37 10608.7C2828.42 10627.8 2839.56 10649.6 2841.77 10673.9H2803.88C2799.58 10655.4 2790.99 10640.8 2778.1 10630C2765.34 10619.2 2747.37 10613.8 2724.19 10613.8C2695.94 10613.8 2673.08 10623.7 2655.64 10643.7C2638.32 10663.5 2629.66 10693.9 2629.66 10734.9C2629.66 10768.5 2637.47 10795.7 2653.1 10816.7C2668.85 10837.5 2692.29 10848 2723.41 10848C2752.06 10848 2773.87 10837 2788.84 10814.9C2796.78 10803.4 2802.71 10788.1 2806.61 10769.2H2844.5C2841.12 10799.5 2829.92 10824.8 2810.91 10845.2C2788.12 10869.8 2757.39 10882.1 2718.72 10882.1C2685.39 10882.1 2657.39 10872 2634.74 10851.9C2604.92 10825.2 2590.01 10784 2590.01 10728.2C2590.01 10685.9 2601.21 10651.2 2623.61 10624.1C2647.82 10594.7 2681.22 10580 2723.8 10580ZM2922.43 10665.5V10804.4C2922.43 10815.1 2924.13 10823.8 2927.51 10830.6C2933.76 10843.1 2945.42 10849.3 2962.47 10849.3C2986.95 10849.3 3003.62 10838.4 3012.47 10816.5C3017.29 10804.8 3019.7 10788.7 3019.7 10768.3V10665.5H3054.86V10874.7H3021.65L3022.04 10843.9C3017.49 10851.8 3011.82 10858.5 3005.05 10864C2991.64 10874.9 2975.36 10880.4 2956.22 10880.4C2926.4 10880.4 2906.09 10870.4 2895.29 10850.5C2889.43 10839.8 2886.5 10825.6 2886.5 10807.7V10665.5H2922.43ZM3130.83 10809.1C3131.87 10820.8 3134.8 10829.8 3139.62 10836C3148.48 10847.4 3163.84 10853 3185.71 10853C3198.74 10853 3210.19 10850.2 3220.09 10844.6C3229.99 10838.9 3234.93 10830.1 3234.93 10818.3C3234.93 10809.3 3230.96 10802.4 3223.02 10797.8C3217.94 10794.9 3207.92 10791.6 3192.94 10787.8L3165.01 10780.8C3147.17 10776.3 3134.02 10771.4 3125.56 10765.9C3110.45 10756.4 3102.9 10743.3 3102.9 10726.5C3102.9 10706.7 3110 10690.7 3124.19 10678.4C3138.51 10666.2 3157.72 10660.1 3181.81 10660.1C3213.32 10660.1 3236.04 10669.3 3249.97 10687.8C3258.7 10699.5 3262.93 10712.1 3262.67 10725.7H3229.46C3228.81 10717.7 3226.01 10710.5 3221.07 10704C3212.99 10694.8 3199 10690.1 3179.07 10690.1C3165.79 10690.1 3155.7 10692.7 3148.8 10697.8C3142.03 10702.8 3138.64 10709.5 3138.64 10717.9C3138.64 10727 3143.14 10734.3 3152.12 10739.8C3157.33 10743 3165.01 10745.9 3175.17 10748.3L3198.41 10754C3223.67 10760.1 3240.6 10766.1 3249.19 10771.8C3262.86 10780.8 3269.7 10794.9 3269.7 10814.2C3269.7 10832.8 3262.6 10848.9 3248.41 10862.4C3234.35 10876 3212.86 10882.7 3183.96 10882.7C3152.84 10882.7 3130.77 10875.7 3117.75 10861.6C3104.86 10847.4 3097.95 10829.9 3097.04 10809.1H3130.83ZM3316.96 10607.1H3352.51V10665.5H3385.91V10694.2H3352.51V10830.8C3352.51 10838.1 3354.99 10842.9 3359.93 10845.4C3362.67 10846.8 3367.23 10847.6 3373.61 10847.6C3375.3 10847.6 3377.12 10847.6 3379.07 10847.6C3381.03 10847.4 3383.31 10847.2 3385.91 10847V10874.7C3381.87 10875.9 3377.64 10876.7 3373.21 10877.3C3368.92 10877.8 3364.23 10878 3359.15 10878C3342.75 10878 3331.61 10873.9 3325.75 10865.5C3319.89 10857.1 3316.96 10846.1 3316.96 10832.7V10694.2H3288.64V10665.5H3316.96V10607.1ZM3504.27 10852.1C3527.58 10852.1 3543.53 10843.3 3552.12 10825.7C3560.85 10808 3565.21 10788.3 3565.21 10766.7C3565.21 10747.2 3562.08 10731.3 3555.83 10719C3545.94 10699.8 3528.88 10690.1 3504.66 10690.1C3483.18 10690.1 3467.55 10698.3 3457.79 10714.8C3448.02 10731.2 3443.14 10751 3443.14 10774.1C3443.14 10796.4 3448.02 10814.9 3457.79 10829.8C3467.55 10844.6 3483.05 10852.1 3504.27 10852.1ZM3505.64 10659.5C3532.59 10659.5 3555.38 10668.5 3574 10686.4C3592.62 10704.4 3601.93 10730.8 3601.93 10765.7C3601.93 10799.5 3593.72 10827.3 3577.32 10849.3C3560.91 10871.3 3535.45 10882.3 3500.95 10882.3C3472.17 10882.3 3449.32 10872.6 3432.39 10853.2C3415.47 10833.7 3407 10807.5 3407 10774.7C3407 10739.6 3415.92 10711.6 3433.76 10690.7C3451.6 10669.9 3475.56 10659.5 3505.64 10659.5ZM3643.92 10665.5H3678.68V10695.2C3687.02 10684.9 3694.57 10677.4 3701.34 10672.8C3712.93 10664.8 3726.08 10660.8 3740.79 10660.8C3757.46 10660.8 3770.87 10664.9 3781.03 10673.2C3786.76 10677.8 3791.96 10684.7 3796.65 10693.9C3804.46 10682.7 3813.64 10674.4 3824.19 10669C3834.74 10663.6 3846.59 10660.8 3859.74 10660.8C3887.86 10660.8 3907 10671 3917.16 10691.3C3922.63 10702.3 3925.36 10717 3925.36 10735.5V10874.7H3888.84V10729.4C3888.84 10715.5 3885.32 10705.9 3878.29 10700.7C3871.39 10695.5 3862.93 10692.9 3852.9 10692.9C3839.1 10692.9 3827.19 10697.5 3817.16 10706.7C3807.26 10716 3802.32 10731.4 3802.32 10753V10874.7H3766.57V10738.2C3766.57 10724 3764.88 10713.6 3761.5 10707.1C3756.16 10697.4 3746.2 10692.5 3731.61 10692.5C3718.33 10692.5 3706.22 10697.6 3695.29 10707.9C3684.48 10718.2 3679.07 10736.8 3679.07 10763.8V10874.7H3643.92V10665.5ZM3977.12 10666.5H4012.86V10874.7H3977.12V10666.5ZM3977.12 10587.8H4012.86V10627.6H3977.12V10587.8ZM4050.56 10847L4174.58 10697H4059.74V10665.5H4221.85V10694.2L4098.61 10843.3H4225.56V10874.7H4050.56V10847ZM4293.14 10819C4293.14 10829.2 4296.85 10837.2 4304.27 10843.1C4311.69 10848.9 4320.48 10851.9 4330.64 10851.9C4343.01 10851.9 4354.99 10849 4366.57 10843.3C4386.11 10833.8 4395.87 10818.2 4395.87 10796.6V10768.3C4391.57 10771 4386.04 10773.3 4379.27 10775.1C4372.5 10776.9 4365.86 10778.2 4359.35 10779L4338.06 10781.7C4325.3 10783.4 4315.73 10786.1 4309.35 10789.8C4298.54 10795.9 4293.14 10805.6 4293.14 10819ZM4378.29 10748C4386.37 10746.9 4391.77 10743.5 4394.5 10737.8C4396.07 10734.7 4396.85 10730.2 4396.85 10724.3C4396.85 10712.3 4392.55 10703.7 4383.96 10698.3C4375.49 10692.9 4363.32 10690.1 4347.43 10690.1C4329.07 10690.1 4316.05 10695.1 4308.37 10705C4304.07 10710.5 4301.27 10718.6 4299.97 10729.4H4267.16C4267.81 10703.6 4276.14 10685.7 4292.16 10675.7C4308.31 10665.5 4326.99 10660.5 4348.21 10660.5C4372.82 10660.5 4392.81 10665.1 4408.18 10674.5C4423.41 10683.9 4431.03 10698.5 4431.03 10718.3V10838.8C4431.03 10842.4 4431.74 10845.4 4433.18 10847.6C4434.74 10849.8 4437.93 10850.9 4442.75 10850.9C4444.31 10850.9 4446.07 10850.8 4448.02 10850.7C4449.97 10850.4 4452.06 10850.1 4454.27 10849.7V10875.7C4448.8 10877.3 4444.63 10878.2 4441.77 10878.6C4438.9 10879 4435 10879.2 4430.05 10879.2C4417.94 10879.2 4409.15 10874.9 4403.68 10866.3C4400.82 10861.8 4398.8 10855.3 4397.63 10847C4390.47 10856.4 4380.18 10864.5 4366.77 10871.4C4353.36 10878.3 4338.58 10881.7 4322.43 10881.7C4303.03 10881.7 4287.15 10875.9 4274.78 10864.2C4262.54 10852.3 4256.42 10837.5 4256.42 10819.8C4256.42 10800.4 4262.47 10785.4 4274.58 10774.7C4286.69 10764 4302.58 10757.5 4322.24 10755L4378.29 10748ZM4495.87 10607.1H4531.42V10665.5H4564.82V10694.2H4531.42V10830.8C4531.42 10838.1 4533.89 10842.9 4538.84 10845.4C4541.57 10846.8 4546.13 10847.6 4552.51 10847.6C4554.2 10847.6 4556.03 10847.6 4557.98 10847.6C4559.93 10847.4 4562.21 10847.2 4564.82 10847V10874.7C4560.78 10875.9 4556.55 10876.7 4552.12 10877.3C4547.82 10877.8 4543.14 10878 4538.06 10878C4521.65 10878 4510.52 10873.9 4504.66 10865.5C4498.8 10857.1 4495.87 10846.1 4495.87 10832.7V10694.2H4467.55V10665.5H4495.87V10607.1ZM4600.17 10666.5H4635.91V10874.7H4600.17V10666.5ZM4600.17 10587.8H4635.91V10627.6H4600.17V10587.8ZM4772.24 10852.1C4795.55 10852.1 4811.5 10843.3 4820.09 10825.7C4828.81 10808 4833.18 10788.3 4833.18 10766.7C4833.18 10747.2 4830.05 10731.3 4823.8 10719C4813.9 10699.8 4796.85 10690.1 4772.63 10690.1C4751.14 10690.1 4735.52 10698.3 4725.75 10714.8C4715.99 10731.2 4711.11 10751 4711.11 10774.1C4711.11 10796.4 4715.99 10814.9 4725.75 10829.8C4735.52 10844.6 4751.01 10852.1 4772.24 10852.1ZM4773.61 10659.5C4800.56 10659.5 4823.35 10668.5 4841.96 10686.4C4860.58 10704.4 4869.89 10730.8 4869.89 10765.7C4869.89 10799.5 4861.69 10827.3 4845.29 10849.3C4828.88 10871.3 4803.42 10882.3 4768.92 10882.3C4740.14 10882.3 4717.29 10872.6 4700.36 10853.2C4683.44 10833.7 4674.97 10807.5 4674.97 10774.7C4674.97 10739.6 4683.89 10711.6 4701.73 10690.7C4719.57 10669.9 4743.53 10659.5 4773.61 10659.5ZM4911.89 10665.5H4945.29V10695.2C4955.18 10683 4965.66 10674.2 4976.73 10668.9C4987.8 10663.5 5000.1 10660.8 5013.64 10660.8C5043.33 10660.8 5063.38 10671.2 5073.8 10691.9C5079.53 10703.2 5082.39 10719.4 5082.39 10740.5V10874.7H5046.65V10742.9C5046.65 10730.1 5044.76 10719.8 5040.99 10712C5034.74 10699 5023.41 10692.5 5007 10692.5C4998.67 10692.5 4991.83 10693.3 4986.5 10695C4976.86 10697.9 4968.4 10703.6 4961.11 10712.2C4955.25 10719.1 4951.4 10726.3 4949.58 10733.7C4947.89 10741 4947.04 10751.5 4947.04 10765.1V10874.7H4911.89V10665.5Z" fill="black"/>
<path d="M4766.7 7318.98C4782.65 7318.98 4795.24 7315.79 4804.47 7309.41C4813.82 7303.03 4818.49 7291.52 4818.49 7274.88C4818.49 7257 4811.99 7244.81 4799 7238.31C4792.05 7234.89 4782.77 7233.18 4771.15 7233.18H4688.09V7318.98H4766.7ZM4654.08 7203.96H4770.29C4789.43 7203.96 4805.21 7206.75 4817.63 7212.33C4841.22 7223.04 4853.01 7242.81 4853.01 7271.64C4853.01 7286.68 4849.87 7298.98 4843.61 7308.55C4837.46 7318.12 4828.8 7325.81 4817.63 7331.62C4827.43 7335.61 4834.78 7340.85 4839.68 7347.34C4844.69 7353.84 4847.48 7364.38 4848.05 7378.96L4849.25 7412.63C4849.59 7422.2 4850.39 7429.32 4851.64 7433.99C4853.69 7441.97 4857.34 7447.09 4862.58 7449.37V7455.01H4820.88C4819.74 7452.85 4818.83 7450.05 4818.14 7446.64C4817.46 7443.22 4816.89 7436.61 4816.44 7426.81L4814.38 7384.94C4813.59 7368.54 4807.49 7357.54 4796.1 7351.96C4789.6 7348.88 4779.41 7347.34 4765.51 7347.34H4688.09V7455.01H4654.08V7203.96ZM4975.03 7267.88C4988.02 7267.88 5000.61 7270.95 5012.8 7277.11C5024.99 7283.14 5034.27 7291.01 5040.65 7300.69C5046.81 7309.92 5050.91 7320.68 5052.96 7332.99C5054.78 7341.42 5055.69 7354.86 5055.69 7373.32H4921.54C4922.11 7391.89 4926.49 7406.82 4934.7 7418.1C4942.9 7429.26 4955.6 7434.84 4972.81 7434.84C4988.87 7434.84 5001.69 7429.55 5011.26 7418.95C5016.73 7412.8 5020.6 7405.68 5022.88 7397.59H5053.13C5052.33 7404.31 5049.65 7411.83 5045.1 7420.15C5040.65 7428.35 5035.64 7435.07 5030.06 7440.31C5020.72 7449.43 5009.15 7455.58 4995.37 7458.77C4987.96 7460.59 4979.59 7461.5 4970.24 7461.5C4947.46 7461.5 4928.15 7453.24 4912.31 7436.72C4896.47 7420.09 4888.55 7396.85 4888.55 7367C4888.55 7337.6 4896.53 7313.73 4912.48 7295.39C4928.43 7277.05 4949.28 7267.88 4975.03 7267.88ZM5024.08 7348.88C5022.82 7335.55 5019.92 7324.9 5015.36 7316.92C5006.93 7302.11 4992.86 7294.71 4973.15 7294.71C4959.02 7294.71 4947.17 7299.83 4937.6 7310.09C4928.03 7320.23 4922.96 7333.16 4922.39 7348.88H5024.08ZM5164.21 7266.68C5184.84 7266.68 5201.58 7271.69 5214.46 7281.72C5227.45 7291.75 5235.25 7309.01 5237.87 7333.5H5207.96C5206.14 7322.22 5201.98 7312.88 5195.49 7305.47C5188.99 7297.96 5178.57 7294.2 5164.21 7294.2C5144.62 7294.2 5130.6 7303.77 5122.17 7322.91C5116.7 7335.32 5113.97 7350.65 5113.97 7368.88C5113.97 7387.22 5117.84 7402.66 5125.59 7415.19C5133.34 7427.72 5145.53 7433.99 5162.16 7433.99C5174.92 7433.99 5185.01 7430.12 5192.41 7422.37C5199.93 7414.51 5205.12 7403.8 5207.96 7390.24H5237.87C5234.45 7414.51 5225.91 7432.28 5212.24 7443.56C5198.56 7454.73 5181.08 7460.31 5159.77 7460.31C5135.84 7460.31 5116.76 7451.59 5102.52 7434.16C5088.28 7416.62 5081.16 7394.74 5081.16 7368.54C5081.16 7336.41 5088.96 7311.4 5104.57 7293.51C5120.18 7275.62 5140.06 7266.68 5164.21 7266.68ZM5268.63 7272.83H5299.91V7455.01H5268.63V7272.83ZM5268.63 7203.96H5299.91V7238.82H5268.63V7203.96ZM5423.81 7434.33C5438.16 7434.33 5450.07 7428.35 5459.53 7416.39C5469.1 7404.31 5473.88 7386.31 5473.88 7362.38C5473.88 7347.8 5471.77 7335.27 5467.56 7324.79C5459.58 7304.62 5445 7294.54 5423.81 7294.54C5402.5 7294.54 5387.92 7305.19 5380.06 7326.5C5375.84 7337.89 5373.74 7352.36 5373.74 7369.9C5373.74 7384.03 5375.84 7396.05 5380.06 7405.96C5388.03 7424.88 5402.62 7434.33 5423.81 7434.33ZM5344.17 7272.83H5374.08V7297.1C5380.23 7288.78 5386.95 7282.35 5394.24 7277.79C5404.61 7270.95 5416.8 7267.54 5430.82 7267.54C5451.55 7267.54 5469.15 7275.51 5483.62 7291.46C5498.09 7307.3 5505.33 7329.97 5505.33 7359.48C5505.33 7399.35 5494.9 7427.84 5474.05 7444.93C5460.84 7455.75 5445.46 7461.16 5427.91 7461.16C5414.12 7461.16 5402.56 7458.14 5393.22 7452.11C5387.75 7448.69 5381.65 7442.82 5374.93 7434.5V7527.98H5344.17V7272.83ZM5617.61 7267.88C5630.6 7267.88 5643.19 7270.95 5655.38 7277.11C5667.57 7283.14 5676.85 7291.01 5683.23 7300.69C5689.38 7309.92 5693.49 7320.68 5695.54 7332.99C5697.36 7341.42 5698.27 7354.86 5698.27 7373.32H5564.12C5564.69 7391.89 5569.07 7406.82 5577.28 7418.1C5585.48 7429.26 5598.18 7434.84 5615.39 7434.84C5631.45 7434.84 5644.27 7429.55 5653.84 7418.95C5659.31 7412.8 5663.18 7405.68 5665.46 7397.59H5695.71C5694.91 7404.31 5692.23 7411.83 5687.68 7420.15C5683.23 7428.35 5678.22 7435.07 5672.64 7440.31C5663.29 7449.43 5651.73 7455.58 5637.94 7458.77C5630.54 7460.59 5622.16 7461.5 5612.82 7461.5C5590.04 7461.5 5570.72 7453.24 5554.89 7436.72C5539.05 7420.09 5531.13 7396.85 5531.13 7367C5531.13 7337.6 5539.11 7313.73 5555.06 7295.39C5571.01 7277.05 5591.86 7267.88 5617.61 7267.88ZM5666.66 7348.88C5665.4 7335.55 5662.5 7324.9 5657.94 7316.92C5649.51 7302.11 5635.44 7294.71 5615.73 7294.71C5601.6 7294.71 5589.75 7299.83 5580.18 7310.09C5570.61 7320.23 5565.54 7333.16 5564.97 7348.88H5666.66ZM5960.94 7380.16C5960.94 7401.35 5957.81 7417.81 5951.54 7429.55C5939.92 7450.97 5917.82 7461.68 5885.23 7461.68C5866.44 7461.68 5850.37 7456.61 5837.04 7446.47C5823.71 7436.21 5817.05 7418.04 5817.05 7391.95V7374H5849V7391.95C5849 7405.62 5852.02 7415.93 5858.06 7422.88C5864.21 7429.72 5873.73 7433.14 5886.6 7433.14C5904.72 7433.14 5916.57 7426.93 5922.15 7414.51C5925.57 7406.87 5927.28 7392.46 5927.28 7371.27V7203.96H5960.94V7380.16ZM6081.25 7435.19C6101.65 7435.19 6115.61 7427.5 6123.12 7412.12C6130.76 7396.62 6134.58 7379.42 6134.58 7360.5C6134.58 7343.41 6131.84 7329.51 6126.37 7318.8C6117.71 7301.94 6102.79 7293.51 6081.6 7293.51C6062.8 7293.51 6049.13 7300.69 6040.58 7315.04C6032.04 7329.4 6027.76 7346.72 6027.76 7367C6027.76 7386.48 6032.04 7402.72 6040.58 7415.7C6049.13 7428.69 6062.68 7435.19 6081.25 7435.19ZM6082.45 7266.68C6106.04 7266.68 6125.97 7274.54 6142.27 7290.26C6158.56 7305.99 6166.7 7329.12 6166.7 7359.65C6166.7 7389.16 6159.53 7413.54 6145.17 7432.79C6130.82 7452.05 6108.54 7461.68 6078.35 7461.68C6053.17 7461.68 6033.18 7453.19 6018.36 7436.21C6003.55 7419.12 5996.15 7396.22 5996.15 7367.51C5996.15 7336.75 6003.95 7312.25 6019.56 7294.02C6035.17 7275.8 6056.13 7266.68 6082.45 7266.68ZM6234.21 7271.98V7393.49C6234.21 7402.83 6235.69 7410.46 6238.65 7416.39C6244.12 7427.33 6254.32 7432.79 6269.24 7432.79C6290.66 7432.79 6305.25 7423.22 6312.99 7404.08C6317.21 7393.83 6319.32 7379.76 6319.32 7361.87V7271.98H6350.08V7455.01H6321.03L6321.37 7428.01C6317.38 7434.96 6312.42 7440.83 6306.5 7445.61C6294.76 7455.18 6280.52 7459.97 6263.77 7459.97C6237.68 7459.97 6219.91 7451.25 6210.45 7433.82C6205.33 7424.48 6202.76 7412 6202.76 7396.39V7271.98H6234.21ZM6399.13 7271.98H6428.35V7303.59C6430.74 7297.44 6436.61 7289.98 6445.95 7281.21C6455.29 7272.32 6466.06 7267.88 6478.25 7267.88C6478.82 7267.88 6479.79 7267.93 6481.16 7268.05C6482.52 7268.16 6484.86 7268.39 6488.16 7268.73V7301.2C6486.34 7300.86 6484.63 7300.63 6483.04 7300.52C6481.56 7300.4 6479.9 7300.35 6478.08 7300.35C6462.59 7300.35 6450.68 7305.36 6442.36 7315.39C6434.05 7325.3 6429.89 7336.75 6429.89 7349.74V7455.01H6399.13V7271.98ZM6514.82 7271.98H6544.05V7297.96C6552.71 7287.25 6561.88 7279.56 6571.56 7274.88C6581.25 7270.21 6592.01 7267.88 6603.86 7267.88C6629.84 7267.88 6647.38 7276.93 6656.5 7295.05C6661.51 7304.96 6664.02 7319.15 6664.02 7337.6V7455.01H6632.74V7339.65C6632.74 7328.49 6631.09 7319.49 6627.79 7312.65C6622.32 7301.26 6612.41 7295.56 6598.05 7295.56C6590.76 7295.56 6584.78 7296.3 6580.11 7297.78C6571.68 7300.29 6564.27 7305.3 6557.89 7312.82C6552.76 7318.86 6549.4 7325.13 6547.81 7331.62C6546.33 7338 6545.59 7347.17 6545.59 7359.14V7455.01H6514.82V7271.98ZM6733.23 7406.3C6733.23 7415.19 6736.48 7422.2 6742.97 7427.33C6749.47 7432.45 6757.16 7435.02 6766.04 7435.02C6776.87 7435.02 6787.35 7432.51 6797.49 7427.5C6814.58 7419.18 6823.12 7405.56 6823.12 7386.65V7361.87C6819.37 7364.26 6814.52 7366.26 6808.6 7367.85C6802.67 7369.45 6796.86 7370.59 6791.17 7371.27L6772.54 7373.66C6761.37 7375.14 6753 7377.48 6747.42 7380.67C6737.96 7386.02 6733.23 7394.57 6733.23 7406.3ZM6807.74 7344.1C6814.81 7343.19 6819.54 7340.22 6821.93 7335.21C6823.3 7332.48 6823.98 7328.55 6823.98 7323.42C6823.98 7312.94 6820.22 7305.36 6812.7 7300.69C6805.29 7295.9 6794.64 7293.51 6780.74 7293.51C6764.68 7293.51 6753.28 7297.84 6746.56 7306.5C6742.8 7311.29 6740.35 7318.41 6739.21 7327.86H6710.5C6711.07 7305.3 6718.36 7289.64 6732.38 7280.87C6746.51 7271.98 6762.85 7267.54 6781.43 7267.54C6802.96 7267.54 6820.45 7271.64 6833.89 7279.84C6847.22 7288.04 6853.89 7300.8 6853.89 7318.12V7423.57C6853.89 7426.76 6854.51 7429.32 6855.77 7431.26C6857.13 7433.19 6859.93 7434.16 6864.14 7434.16C6865.51 7434.16 6867.05 7434.1 6868.75 7433.99C6870.46 7433.76 6872.29 7433.48 6874.22 7433.14V7455.87C6869.44 7457.23 6865.79 7458.09 6863.29 7458.43C6860.78 7458.77 6857.36 7458.94 6853.03 7458.94C6842.44 7458.94 6834.75 7455.18 6829.96 7447.66C6827.45 7443.67 6825.69 7438.03 6824.66 7430.74C6818.4 7438.95 6809.4 7446.07 6797.66 7452.11C6785.93 7458.14 6772.99 7461.16 6758.87 7461.16C6741.89 7461.16 6727.99 7456.04 6717.17 7445.78C6706.46 7435.41 6701.1 7422.48 6701.1 7406.99C6701.1 7390.01 6706.4 7376.85 6717 7367.51C6727.59 7358.17 6741.49 7352.41 6758.7 7350.25L6807.74 7344.1ZM6905.33 7203.96H6936.09V7455.01H6905.33V7203.96Z" fill="black"/>
<path d="M9399.17 7318.98C9415.12 7318.98 9427.71 7315.79 9436.94 7309.41C9446.28 7303.03 9450.96 7291.52 9450.96 7274.88C9450.96 7257 9444.46 7244.81 9431.47 7238.31C9424.52 7234.89 9415.24 7233.18 9403.62 7233.18H9320.56V7318.98H9399.17ZM9286.55 7203.96H9402.76C9421.9 7203.96 9437.68 7206.75 9450.1 7212.33C9473.68 7223.04 9485.48 7242.81 9485.48 7271.64C9485.48 7286.68 9482.34 7298.98 9476.08 7308.55C9469.92 7318.12 9461.27 7325.81 9450.1 7331.62C9459.9 7335.61 9467.25 7340.85 9472.15 7347.34C9477.16 7353.84 9479.95 7364.38 9480.52 7378.96L9481.72 7412.63C9482.06 7422.2 9482.86 7429.32 9484.11 7433.99C9486.16 7441.97 9489.81 7447.09 9495.05 7449.37V7455.01H9453.35C9452.21 7452.85 9451.3 7450.05 9450.61 7446.64C9449.93 7443.22 9449.36 7436.61 9448.9 7426.81L9446.85 7384.94C9446.06 7368.54 9439.96 7357.54 9428.57 7351.96C9422.07 7348.88 9411.88 7347.34 9397.98 7347.34H9320.56V7455.01H9286.55V7203.96ZM9607.5 7267.88C9620.49 7267.88 9633.08 7270.95 9645.27 7277.11C9657.46 7283.14 9666.74 7291.01 9673.12 7300.69C9679.28 7309.92 9683.38 7320.68 9685.43 7332.99C9687.25 7341.42 9688.16 7354.86 9688.16 7373.32H9554.01C9554.58 7391.89 9558.96 7406.82 9567.17 7418.1C9575.37 7429.26 9588.07 7434.84 9605.28 7434.84C9621.34 7434.84 9634.16 7429.55 9643.73 7418.95C9649.2 7412.8 9653.07 7405.68 9655.35 7397.59H9685.6C9684.8 7404.31 9682.12 7411.83 9677.57 7420.15C9673.12 7428.35 9668.11 7435.07 9662.53 7440.31C9653.18 7449.43 9641.62 7455.58 9627.83 7458.77C9620.43 7460.59 9612.06 7461.5 9602.71 7461.5C9579.93 7461.5 9560.61 7453.24 9544.78 7436.72C9528.94 7420.09 9521.02 7396.85 9521.02 7367C9521.02 7337.6 9529 7313.73 9544.95 7295.39C9560.9 7277.05 9581.75 7267.88 9607.5 7267.88ZM9656.55 7348.88C9655.29 7335.55 9652.39 7324.9 9647.83 7316.92C9639.4 7302.11 9625.33 7294.71 9605.62 7294.71C9591.49 7294.71 9579.64 7299.83 9570.07 7310.09C9560.5 7320.23 9555.43 7333.16 9554.86 7348.88H9656.55ZM9796.68 7266.68C9817.3 7266.68 9834.05 7271.69 9846.93 7281.72C9859.92 7291.75 9867.72 7309.01 9870.34 7333.5H9840.43C9838.61 7322.22 9834.45 7312.88 9827.96 7305.47C9821.46 7297.96 9811.04 7294.2 9796.68 7294.2C9777.09 7294.2 9763.07 7303.77 9754.64 7322.91C9749.17 7335.32 9746.44 7350.65 9746.44 7368.88C9746.44 7387.22 9750.31 7402.66 9758.06 7415.19C9765.81 7427.72 9778 7433.99 9794.63 7433.99C9807.39 7433.99 9817.48 7430.12 9824.88 7422.37C9832.4 7414.51 9837.58 7403.8 9840.43 7390.24H9870.34C9866.92 7414.51 9858.38 7432.28 9844.71 7443.56C9831.03 7454.73 9813.54 7460.31 9792.24 7460.31C9768.31 7460.31 9749.23 7451.59 9734.99 7434.16C9720.75 7416.62 9713.63 7394.74 9713.63 7368.54C9713.63 7336.41 9721.43 7311.4 9737.04 7293.51C9752.65 7275.62 9772.53 7266.68 9796.68 7266.68ZM9901.1 7272.83H9932.38V7455.01H9901.1V7272.83ZM9901.1 7203.96H9932.38V7238.82H9901.1V7203.96ZM10056.3 7434.33C10070.6 7434.33 10082.5 7428.35 10092 7416.39C10101.6 7404.31 10106.4 7386.31 10106.4 7362.38C10106.4 7347.8 10104.2 7335.27 10100 7324.79C10092.1 7304.62 10077.5 7294.54 10056.3 7294.54C10035 7294.54 10020.4 7305.19 10012.5 7326.5C10008.3 7337.89 10006.2 7352.36 10006.2 7369.9C10006.2 7384.03 10008.3 7396.05 10012.5 7405.96C10020.5 7424.88 10035.1 7434.33 10056.3 7434.33ZM9976.64 7272.83H10006.5V7297.1C10012.7 7288.78 10019.4 7282.35 10026.7 7277.79C10037.1 7270.95 10049.3 7267.54 10063.3 7267.54C10084 7267.54 10101.6 7275.51 10116.1 7291.46C10130.6 7307.3 10137.8 7329.97 10137.8 7359.48C10137.8 7399.35 10127.4 7427.84 10106.5 7444.93C10093.3 7455.75 10077.9 7461.16 10060.4 7461.16C10046.6 7461.16 10035 7458.14 10025.7 7452.11C10020.2 7448.69 10014.1 7442.82 10007.4 7434.5V7527.98H9976.64V7272.83ZM10250.1 7267.88C10263.1 7267.88 10275.7 7270.95 10287.8 7277.11C10300 7283.14 10309.3 7291.01 10315.7 7300.69C10321.9 7309.92 10326 7320.68 10328 7332.99C10329.8 7341.42 10330.7 7354.86 10330.7 7373.32H10196.6C10197.2 7391.89 10201.5 7406.82 10209.7 7418.1C10217.9 7429.26 10230.7 7434.84 10247.9 7434.84C10263.9 7434.84 10276.7 7429.55 10286.3 7418.95C10291.8 7412.8 10295.6 7405.68 10297.9 7397.59H10328.2C10327.4 7404.31 10324.7 7411.83 10320.1 7420.15C10315.7 7428.35 10310.7 7435.07 10305.1 7440.31C10295.8 7449.43 10284.2 7455.58 10270.4 7458.77C10263 7460.59 10254.6 7461.5 10245.3 7461.5C10222.5 7461.5 10203.2 7453.24 10187.4 7436.72C10171.5 7420.09 10163.6 7396.85 10163.6 7367C10163.6 7337.6 10171.6 7313.73 10187.5 7295.39C10203.5 7277.05 10224.3 7267.88 10250.1 7267.88ZM10299.1 7348.88C10297.9 7335.55 10295 7324.9 10290.4 7316.92C10282 7302.11 10267.9 7294.71 10248.2 7294.71C10234.1 7294.71 10222.2 7299.83 10212.6 7310.09C10203.1 7320.23 10198 7333.16 10197.4 7348.88H10299.1ZM10470.2 7203.96H10504.2V7425.1H10631.4V7455.01H10470.2V7203.96ZM10733.5 7435.19C10753.9 7435.19 10767.9 7427.5 10775.4 7412.12C10783.1 7396.62 10786.9 7379.42 10786.9 7360.5C10786.9 7343.41 10784.1 7329.51 10778.7 7318.8C10770 7301.94 10755.1 7293.51 10733.9 7293.51C10715.1 7293.51 10701.4 7300.69 10692.9 7315.04C10684.3 7329.4 10680.1 7346.72 10680.1 7367C10680.1 7386.48 10684.3 7402.72 10692.9 7415.7C10701.4 7428.69 10715 7435.19 10733.5 7435.19ZM10734.7 7266.68C10758.3 7266.68 10778.3 7274.54 10794.6 7290.26C10810.9 7305.99 10819 7329.12 10819 7359.65C10819 7389.16 10811.8 7413.54 10797.5 7432.79C10783.1 7452.05 10760.8 7461.68 10730.6 7461.68C10705.5 7461.68 10685.5 7453.19 10670.7 7436.21C10655.8 7419.12 10648.4 7396.22 10648.4 7367.51C10648.4 7336.75 10656.2 7312.25 10671.9 7294.02C10687.5 7275.8 10708.4 7266.68 10734.7 7266.68ZM10926.3 7266.68C10946.9 7266.68 10963.7 7271.69 10976.6 7281.72C10989.6 7291.75 10997.4 7309.01 11000 7333.5H10970.1C10968.2 7322.22 10964.1 7312.88 10957.6 7305.47C10951.1 7297.96 10940.7 7294.2 10926.3 7294.2C10906.7 7294.2 10892.7 7303.77 10884.3 7322.91C10878.8 7335.32 10876.1 7350.65 10876.1 7368.88C10876.1 7387.22 10880 7402.66 10887.7 7415.19C10895.4 7427.72 10907.6 7433.99 10924.3 7433.99C10937 7433.99 10947.1 7430.12 10954.5 7422.37C10962 7414.51 10967.2 7403.8 10970.1 7390.24H11000C10996.6 7414.51 10988 7432.28 10974.3 7443.56C10960.7 7454.73 10943.2 7460.31 10921.9 7460.31C10898 7460.31 10878.9 7451.59 10864.6 7434.16C10850.4 7416.62 10843.3 7394.74 10843.3 7368.54C10843.3 7336.41 10851.1 7311.4 10866.7 7293.51C10882.3 7275.62 10902.2 7266.68 10926.3 7266.68ZM11030.1 7203.96H11059.6V7349.74L11138.6 7271.98H11177.9L11107.8 7340.51L11181.8 7455.01H11142.5L11085.4 7362.73L11059.6 7386.31V7455.01H11030.1V7203.96Z" fill="black"/>
<path d="M7512.14 8718.92H7546.49V8822.66H7677.06V8718.92H7711.41V8969.97H7677.06V8852.57H7546.49V8969.97H7512.14V8718.92ZM7836.34 8782.84C7849.33 8782.84 7861.92 8785.92 7874.11 8792.07C7886.3 8798.11 7895.58 8805.97 7901.96 8815.65C7908.12 8824.88 7912.22 8835.65 7914.27 8847.95C7916.09 8856.38 7917 8869.83 7917 8888.29H7782.85C7783.42 8906.86 7787.8 8921.78 7796.01 8933.06C7804.21 8944.23 7816.91 8949.81 7834.12 8949.81C7850.18 8949.81 7863 8944.51 7872.57 8933.92C7878.04 8927.76 7881.91 8920.64 7884.19 8912.55H7914.44C7913.64 8919.27 7910.96 8926.79 7906.41 8935.11C7901.96 8943.31 7896.95 8950.04 7891.37 8955.28C7882.02 8964.39 7870.46 8970.54 7856.67 8973.73C7849.27 8975.56 7840.9 8976.47 7831.55 8976.47C7808.77 8976.47 7789.45 8968.21 7773.62 8951.69C7757.78 8935.05 7749.86 8911.81 7749.86 8881.96C7749.86 8852.57 7757.84 8828.7 7773.79 8810.36C7789.74 8792.01 7810.59 8782.84 7836.34 8782.84ZM7885.39 8863.85C7884.13 8850.52 7881.23 8839.86 7876.67 8831.89C7868.24 8817.08 7854.17 8809.67 7834.46 8809.67C7820.33 8809.67 7808.48 8814.8 7798.91 8825.05C7789.34 8835.19 7784.27 8848.12 7783.7 8863.85H7885.39ZM7954.94 8787.8H7986.22V8969.97H7954.94V8787.8ZM7954.94 8718.92H7986.22V8753.79H7954.94V8718.92ZM8033.73 8786.94H8062.95V8818.56C8065.34 8812.41 8071.21 8804.94 8080.55 8796.17C8089.89 8787.28 8100.66 8782.84 8112.85 8782.84C8113.42 8782.84 8114.39 8782.9 8115.76 8783.01C8117.12 8783.13 8119.46 8783.35 8122.76 8783.7V8816.17C8120.94 8815.82 8119.23 8815.6 8117.64 8815.48C8116.16 8815.37 8114.5 8815.31 8112.68 8815.31C8097.19 8815.31 8085.28 8820.32 8076.96 8830.35C8068.65 8840.26 8064.49 8851.71 8064.49 8864.7V8969.97H8033.73V8786.94ZM8150.28 8718.92H8181.04V8969.97H8150.28V8718.92ZM8299.99 8950.15C8320.38 8950.15 8334.34 8942.46 8341.86 8927.08C8349.49 8911.58 8353.31 8894.38 8353.31 8875.47C8353.31 8858.38 8350.57 8844.48 8345.1 8833.77C8336.44 8816.91 8321.52 8808.48 8300.33 8808.48C8281.53 8808.48 8267.86 8815.65 8259.31 8830.01C8250.77 8844.36 8246.49 8861.68 8246.49 8881.96C8246.49 8901.44 8250.77 8917.68 8259.31 8930.67C8267.86 8943.66 8281.41 8950.15 8299.99 8950.15ZM8301.18 8781.64C8324.77 8781.64 8344.7 8789.51 8361 8805.23C8377.29 8820.95 8385.43 8844.08 8385.43 8874.61C8385.43 8904.12 8378.26 8928.5 8363.9 8947.76C8349.55 8967.01 8327.27 8976.64 8297.08 8976.64C8271.9 8976.64 8251.91 8968.15 8237.09 8951.18C8222.28 8934.09 8214.88 8911.19 8214.88 8882.47C8214.88 8851.71 8222.68 8827.22 8238.29 8808.99C8253.9 8790.76 8274.86 8781.64 8301.18 8781.64ZM8494.81 8950.15C8515.2 8950.15 8529.16 8942.46 8536.68 8927.08C8544.31 8911.58 8548.13 8894.38 8548.13 8875.47C8548.13 8858.38 8545.4 8844.48 8539.93 8833.77C8531.27 8816.91 8516.34 8808.48 8495.15 8808.48C8476.35 8808.48 8462.68 8815.65 8454.14 8830.01C8445.59 8844.36 8441.32 8861.68 8441.32 8881.96C8441.32 8901.44 8445.59 8917.68 8454.14 8930.67C8462.68 8943.66 8476.24 8950.15 8494.81 8950.15ZM8496.01 8781.64C8519.59 8781.64 8539.53 8789.51 8555.82 8805.23C8572.11 8820.95 8580.26 8844.08 8580.26 8874.61C8580.26 8904.12 8573.08 8928.5 8558.73 8947.76C8544.37 8967.01 8522.1 8976.64 8491.9 8976.64C8466.73 8976.64 8446.73 8968.15 8431.92 8951.18C8417.11 8934.09 8409.7 8911.19 8409.7 8882.47C8409.7 8851.71 8417.51 8827.22 8433.12 8808.99C8448.72 8790.76 8469.69 8781.64 8496.01 8781.64ZM8617 8786.94H8647.42V8812.92C8654.71 8803.92 8661.32 8797.37 8667.25 8793.27C8677.39 8786.32 8688.89 8782.84 8701.77 8782.84C8716.35 8782.84 8728.09 8786.43 8736.97 8793.61C8741.99 8797.71 8746.54 8803.75 8750.64 8811.72C8757.48 8801.92 8765.51 8794.69 8774.74 8790.02C8783.97 8785.23 8794.34 8782.84 8805.84 8782.84C8830.45 8782.84 8847.2 8791.73 8856.09 8809.5C8860.87 8819.07 8863.27 8831.95 8863.27 8848.12V8969.97H8831.31V8842.83C8831.31 8830.64 8828.23 8822.26 8822.08 8817.7C8816.04 8813.15 8808.64 8810.87 8799.86 8810.87C8787.79 8810.87 8777.36 8814.91 8768.59 8823C8759.93 8831.09 8755.6 8844.59 8755.6 8863.5V8969.97H8724.33V8850.52C8724.33 8838.1 8722.85 8829.04 8719.88 8823.34C8715.21 8814.8 8706.5 8810.53 8693.74 8810.53C8682.11 8810.53 8671.52 8815.03 8661.95 8824.03C8652.49 8833.03 8647.76 8849.32 8647.76 8872.9V8969.97H8617V8786.94Z" fill="black"/>
<path d="M7743.14 10752.8C7759.09 10752.8 7771.68 10749.6 7780.91 10743.2C7790.25 10736.9 7794.92 10725.3 7794.92 10708.7C7794.92 10690.8 7788.43 10678.6 7775.44 10672.1C7768.49 10668.7 7759.2 10667 7747.58 10667H7664.53V10752.8H7743.14ZM7630.52 10637.8H7746.73C7765.87 10637.8 7781.65 10640.6 7794.07 10646.2C7817.65 10656.9 7829.44 10676.6 7829.44 10705.5C7829.44 10720.5 7826.31 10732.8 7820.04 10742.4C7813.89 10752 7805.23 10759.6 7794.07 10765.5C7803.87 10769.4 7811.21 10774.7 7816.11 10781.2C7821.13 10787.7 7823.92 10798.2 7824.49 10812.8L7825.68 10846.5C7826.03 10856 7826.82 10863.2 7828.08 10867.8C7830.13 10875.8 7833.77 10880.9 7839.01 10883.2V10888.8H7797.31C7796.17 10886.7 7795.26 10883.9 7794.58 10880.5C7793.9 10877 7793.33 10870.4 7792.87 10860.6L7790.82 10818.8C7790.02 10802.4 7783.93 10791.4 7772.53 10785.8C7766.04 10782.7 7755.84 10781.2 7741.94 10781.2H7664.53V10888.8H7630.52V10637.8ZM7951.46 10701.7C7964.45 10701.7 7977.04 10704.8 7989.23 10710.9C8001.42 10717 8010.71 10724.8 8017.09 10734.5C8023.24 10743.7 8027.34 10754.5 8029.39 10766.8C8031.22 10775.3 8032.13 10788.7 8032.13 10807.2H7897.97C7898.54 10825.7 7902.93 10840.6 7911.13 10851.9C7919.34 10863.1 7932.04 10868.7 7949.24 10868.7C7965.31 10868.7 7978.12 10863.4 7987.7 10852.8C7993.16 10846.6 7997.04 10839.5 7999.32 10831.4H8029.57C8028.77 10838.1 8026.09 10845.7 8021.53 10854C8017.09 10862.2 8012.08 10868.9 8006.49 10874.1C7997.15 10883.3 7985.59 10889.4 7971.8 10892.6C7964.4 10894.4 7956.02 10895.3 7946.68 10895.3C7923.89 10895.3 7904.58 10887.1 7888.74 10870.6C7872.91 10853.9 7864.99 10830.7 7864.99 10800.8C7864.99 10771.4 7872.97 10747.6 7888.92 10729.2C7904.87 10710.9 7925.72 10701.7 7951.46 10701.7ZM8000.51 10782.7C7999.26 10769.4 7996.35 10758.7 7991.8 10750.8C7983.37 10735.9 7969.3 10728.5 7949.58 10728.5C7935.46 10728.5 7923.61 10733.7 7914.04 10743.9C7904.47 10754.1 7899.4 10767 7898.83 10782.7H8000.51ZM8093.65 10840.1C8093.65 10849 8096.9 10856 8103.39 10861.2C8109.89 10866.3 8117.58 10868.8 8126.46 10868.8C8137.29 10868.8 8147.77 10866.3 8157.91 10861.3C8175 10853 8183.54 10839.4 8183.54 10820.5V10795.7C8179.78 10798.1 8174.94 10800.1 8169.02 10801.7C8163.09 10803.3 8157.28 10804.4 8151.59 10805.1L8132.96 10807.5C8121.79 10809 8113.42 10811.3 8107.84 10814.5C8098.38 10819.9 8093.65 10828.4 8093.65 10840.1ZM8168.16 10777.9C8175.23 10777 8179.96 10774.1 8182.35 10769C8183.72 10766.3 8184.4 10762.4 8184.4 10757.2C8184.4 10746.8 8180.64 10739.2 8173.12 10734.5C8165.71 10729.7 8155.06 10727.3 8141.16 10727.3C8125.1 10727.3 8113.7 10731.7 8106.98 10740.3C8103.22 10745.1 8100.77 10752.2 8099.63 10761.7H8070.92C8071.49 10739.1 8078.78 10723.5 8092.8 10714.7C8106.93 10705.8 8123.27 10701.4 8141.85 10701.4C8163.38 10701.4 8180.87 10705.5 8194.31 10713.7C8207.64 10721.9 8214.31 10734.6 8214.31 10752V10857.4C8214.31 10860.6 8214.93 10863.2 8216.19 10865.1C8217.55 10867 8220.34 10868 8224.56 10868C8225.93 10868 8227.47 10867.9 8229.17 10867.8C8230.88 10867.6 8232.71 10867.3 8234.64 10867V10889.7C8229.86 10891.1 8226.21 10891.9 8223.71 10892.3C8221.2 10892.6 8217.78 10892.8 8213.45 10892.8C8202.86 10892.8 8195.17 10889 8190.38 10881.5C8187.87 10877.5 8186.11 10871.9 8185.08 10864.6C8178.82 10872.8 8169.82 10879.9 8158.08 10885.9C8146.35 10892 8133.41 10895 8119.29 10895C8102.31 10895 8088.41 10889.9 8077.59 10879.6C8066.88 10869.2 8061.52 10856.3 8061.52 10840.8C8061.52 10823.8 8066.82 10810.7 8077.42 10801.3C8088.01 10792 8101.91 10786.2 8119.12 10784.1L8168.16 10777.9ZM8265.75 10637.8H8296.51V10888.8H8265.75V10637.8ZM8334.79 10775.5H8420.58V10807.2H8334.79V10775.5ZM8646.17 10637.8V10667.7H8561.57V10888.8H8527.05V10667.7H8442.46V10637.8H8646.17ZM8660.35 10706.7H8691.63V10888.8H8660.35V10706.7ZM8660.35 10637.8H8691.63V10672.7H8660.35V10637.8ZM8738.28 10705.8H8768.7V10731.8C8775.99 10722.8 8782.6 10716.2 8788.53 10712.1C8798.67 10705.2 8810.17 10701.7 8823.05 10701.7C8837.63 10701.7 8849.36 10705.3 8858.25 10712.5C8863.26 10716.6 8867.82 10722.6 8871.92 10730.6C8878.76 10720.8 8886.79 10713.6 8896.02 10708.9C8905.25 10704.1 8915.62 10701.7 8927.12 10701.7C8951.73 10701.7 8968.48 10710.6 8977.37 10728.4C8982.15 10737.9 8984.55 10750.8 8984.55 10767V10888.8H8952.59V10761.7C8952.59 10749.5 8949.51 10741.1 8943.36 10736.6C8937.32 10732 8929.92 10729.7 8921.14 10729.7C8909.07 10729.7 8898.64 10733.8 8889.87 10741.9C8881.21 10750 8876.88 10763.5 8876.88 10782.4V10888.8H8845.61V10769.4C8845.61 10757 8844.12 10747.9 8841.16 10742.2C8836.49 10733.7 8827.77 10729.4 8815.01 10729.4C8803.39 10729.4 8792.8 10733.9 8783.23 10742.9C8773.77 10751.9 8769.04 10768.2 8769.04 10791.8V10888.8H8738.28V10705.8ZM9106.05 10701.7C9119.04 10701.7 9131.63 10704.8 9143.82 10710.9C9156.01 10717 9165.3 10724.8 9171.68 10734.5C9177.83 10743.7 9181.93 10754.5 9183.98 10766.8C9185.81 10775.3 9186.72 10788.7 9186.72 10807.2H9052.56C9053.13 10825.7 9057.52 10840.6 9065.72 10851.9C9073.93 10863.1 9086.63 10868.7 9103.83 10868.7C9119.9 10868.7 9132.71 10863.4 9142.28 10852.8C9147.75 10846.6 9151.63 10839.5 9153.91 10831.4H9184.16C9183.36 10838.1 9180.68 10845.7 9176.12 10854C9171.68 10862.2 9166.67 10868.9 9161.08 10874.1C9151.74 10883.3 9140.18 10889.4 9126.39 10892.6C9118.99 10894.4 9110.61 10895.3 9101.27 10895.3C9078.48 10895.3 9059.17 10887.1 9043.33 10870.6C9027.5 10853.9 9019.58 10830.7 9019.58 10800.8C9019.58 10771.4 9027.56 10747.6 9043.51 10729.2C9059.46 10710.9 9080.31 10701.7 9106.05 10701.7ZM9155.1 10782.7C9153.85 10769.4 9150.94 10758.7 9146.39 10750.8C9137.96 10735.9 9123.88 10728.5 9104.17 10728.5C9090.05 10728.5 9078.2 10733.7 9068.63 10743.9C9059.06 10754.1 9053.99 10767 9053.42 10782.7H9155.1ZM7890.8 11033C7922.58 11033 7947.25 11041.3 7964.79 11058.1C7982.34 11074.8 7992.08 11093.9 7994.02 11115.2H7960.86C7957.1 11099 7949.58 11086.2 7938.31 11076.7C7927.14 11067.2 7911.42 11062.5 7891.14 11062.5C7866.41 11062.5 7846.42 11071.2 7831.15 11088.7C7816 11106 7808.42 11132.6 7808.42 11168.5C7808.42 11197.9 7815.26 11221.7 7828.93 11240.1C7842.72 11258.3 7863.22 11267.4 7890.45 11267.4C7915.52 11267.4 7934.6 11257.8 7947.7 11238.5C7954.65 11228.4 7959.84 11215.1 7963.26 11198.6H7996.41C7993.45 11225 7983.65 11247.1 7967.02 11265C7947.08 11286.6 7920.19 11297.3 7886.35 11297.3C7857.19 11297.3 7832.69 11288.5 7812.87 11270.8C7786.78 11247.5 7773.73 11211.4 7773.73 11162.7C7773.73 11125.6 7783.53 11095.3 7803.12 11071.6C7824.32 11045.8 7853.54 11033 7890.8 11033ZM8106.47 11271C8126.86 11271 8140.82 11263.3 8148.34 11247.9C8155.97 11232.5 8159.79 11215.2 8159.79 11196.3C8159.79 11179.2 8157.06 11165.3 8151.59 11154.6C8142.93 11137.8 8128 11129.3 8106.81 11129.3C8088.01 11129.3 8074.34 11136.5 8065.8 11150.9C8057.25 11165.2 8052.98 11182.5 8052.98 11202.8C8052.98 11222.3 8057.25 11238.5 8065.8 11251.5C8074.34 11264.5 8087.9 11271 8106.47 11271ZM8107.67 11102.5C8131.25 11102.5 8151.19 11110.4 8167.48 11126.1C8183.77 11141.8 8191.92 11164.9 8191.92 11195.5C8191.92 11225 8184.74 11249.4 8170.39 11268.6C8156.03 11287.9 8133.76 11297.5 8103.56 11297.5C8078.39 11297.5 8058.39 11289 8043.58 11272C8028.77 11255 8021.36 11232.1 8021.36 11203.3C8021.36 11172.6 8029.17 11148.1 8044.78 11129.9C8060.38 11111.6 8081.35 11102.5 8107.67 11102.5ZM8301.29 11271C8321.69 11271 8335.64 11263.3 8343.16 11247.9C8350.8 11232.5 8354.61 11215.2 8354.61 11196.3C8354.61 11179.2 8351.88 11165.3 8346.41 11154.6C8337.75 11137.8 8322.83 11129.3 8301.64 11129.3C8282.84 11129.3 8269.16 11136.5 8260.62 11150.9C8252.07 11165.2 8247.8 11182.5 8247.8 11202.8C8247.8 11222.3 8252.07 11238.5 8260.62 11251.5C8269.16 11264.5 8282.72 11271 8301.29 11271ZM8302.49 11102.5C8326.07 11102.5 8346.01 11110.4 8362.3 11126.1C8378.6 11141.8 8386.74 11164.9 8386.74 11195.5C8386.74 11225 8379.57 11249.4 8365.21 11268.6C8350.85 11287.9 8328.58 11297.5 8298.39 11297.5C8273.21 11297.5 8253.21 11289 8238.4 11272C8223.59 11255 8216.19 11232.1 8216.19 11203.3C8216.19 11172.6 8223.99 11148.1 8239.6 11129.9C8255.21 11111.6 8276.17 11102.5 8302.49 11102.5ZM8422.8 11039.8H8452.37V11185.6L8531.32 11107.8H8570.63L8500.56 11176.3L8574.56 11290.8H8535.25L8478.17 11198.6L8452.37 11222.1V11290.8H8422.8V11039.8ZM8598.49 11108.7H8629.76V11290.8H8598.49V11108.7ZM8598.49 11039.8H8629.76V11074.7H8598.49V11039.8ZM8676.42 11107.8H8705.64V11133.8C8714.3 11123.1 8723.47 11115.4 8733.15 11110.7C8742.84 11106 8753.6 11103.7 8765.45 11103.7C8791.43 11103.7 8808.98 11112.8 8818.09 11130.9C8823.1 11140.8 8825.61 11155 8825.61 11173.4V11290.8H8794.34V11175.5C8794.34 11164.3 8792.68 11155.3 8789.38 11148.5C8783.91 11137.1 8774 11131.4 8759.64 11131.4C8752.35 11131.4 8746.37 11132.1 8741.7 11133.6C8733.27 11136.1 8725.86 11141.1 8719.48 11148.7C8714.36 11154.7 8710.99 11161 8709.4 11167.5C8707.92 11173.8 8707.18 11183 8707.18 11195V11290.8H8676.42V11107.8ZM8935.84 11104.6C8950.2 11104.6 8962.73 11108.1 8973.44 11115.2C8979.25 11119.1 8985.17 11125 8991.21 11132.6V11109.5H9019.58V11276C9019.58 11299.2 9016.16 11317.6 9009.33 11331C8996.57 11355.8 8972.47 11368.3 8937.04 11368.3C8917.33 11368.3 8900.75 11363.8 8887.3 11354.9C8873.86 11346.2 8866.34 11332.4 8864.75 11313.6H8896.02C8897.5 11321.8 8900.46 11328.1 8904.91 11332.5C8911.86 11339.4 8922.79 11342.8 8937.72 11342.8C8961.3 11342.8 8976.74 11334.5 8984.03 11317.8C8988.36 11308 8990.36 11290.6 8990.01 11265.4C8983.86 11274.7 8976.46 11281.7 8967.8 11286.2C8959.14 11290.8 8947.69 11293.1 8933.45 11293.1C8913.62 11293.1 8896.25 11286.1 8881.32 11272C8866.51 11257.9 8859.11 11234.6 8859.11 11202.1C8859.11 11171.5 8866.57 11147.6 8881.49 11130.4C8896.53 11113.2 8914.65 11104.6 8935.84 11104.6ZM8991.21 11198.6C8991.21 11175.9 8986.54 11159.1 8977.2 11148.1C8967.85 11137.2 8955.95 11131.7 8941.48 11131.7C8919.83 11131.7 8905.02 11141.9 8897.05 11162.2C8892.83 11173 8890.72 11187.2 8890.72 11204.7C8890.72 11225.3 8894.88 11241.1 8903.2 11251.9C8911.63 11262.6 8922.91 11267.9 8937.04 11267.9C8959.14 11267.9 8974.69 11258 8983.69 11238C8988.7 11226.8 8991.21 11213.6 8991.21 11198.6ZM7739.72 11441.8H7913.87V11472.6H7773.73V11548.8H7896.95V11578.7H7773.73V11692.8H7739.72V11441.8ZM8022.56 11505.7C8035.55 11505.7 8048.14 11508.8 8060.33 11514.9C8072.52 11521 8081.8 11528.8 8088.18 11538.5C8094.34 11547.7 8098.44 11558.5 8100.49 11570.8C8102.31 11579.3 8103.22 11592.7 8103.22 11611.2H7969.07C7969.64 11629.7 7974.02 11644.6 7982.23 11655.9C7990.43 11667.1 8003.13 11672.7 8020.34 11672.7C8036.4 11672.7 8049.22 11667.4 8058.79 11656.8C8064.26 11650.6 8068.13 11643.5 8070.41 11635.4H8100.66C8099.86 11642.1 8097.18 11649.7 8092.63 11658C8088.18 11666.2 8083.17 11672.9 8077.59 11678.1C8068.25 11687.3 8056.68 11693.4 8042.9 11696.6C8035.49 11698.4 8027.12 11699.3 8017.77 11699.3C7994.99 11699.3 7975.68 11691.1 7959.84 11674.6C7944 11657.9 7936.08 11634.7 7936.08 11604.8C7936.08 11575.4 7944.06 11551.6 7960.01 11533.2C7975.96 11514.9 7996.81 11505.7 8022.56 11505.7ZM8071.61 11586.7C8070.35 11573.4 8067.45 11562.7 8062.89 11554.8C8054.46 11539.9 8040.39 11532.5 8020.68 11532.5C8006.55 11532.5 7994.7 11537.7 7985.13 11547.9C7975.56 11558.1 7970.49 11571 7969.92 11586.7H8071.61ZM8164.75 11644.1C8164.75 11653 8167.99 11660 8174.49 11665.2C8180.98 11670.3 8188.67 11672.8 8197.56 11672.8C8208.38 11672.8 8218.86 11670.3 8229 11665.3C8246.09 11657 8254.64 11643.4 8254.64 11624.5V11599.7C8250.88 11602.1 8246.04 11604.1 8240.11 11605.7C8234.19 11607.3 8228.38 11608.4 8222.68 11609.1L8204.05 11611.5C8192.89 11613 8184.51 11615.3 8178.93 11618.5C8169.47 11623.9 8164.75 11632.4 8164.75 11644.1ZM8239.26 11581.9C8246.32 11581 8251.05 11578.1 8253.44 11573C8254.81 11570.3 8255.49 11566.4 8255.49 11561.2C8255.49 11550.8 8251.73 11543.2 8244.21 11538.5C8236.81 11533.7 8226.16 11531.3 8212.26 11531.3C8196.19 11531.3 8184.8 11535.7 8178.08 11544.3C8174.32 11549.1 8171.87 11556.2 8170.73 11565.7H8142.02C8142.59 11543.1 8149.88 11527.5 8163.89 11518.7C8178.02 11509.8 8194.37 11505.4 8212.94 11505.4C8234.47 11505.4 8251.96 11509.5 8265.41 11517.7C8278.74 11525.9 8285.4 11538.6 8285.4 11556V11661.4C8285.4 11664.6 8286.03 11667.2 8287.28 11669.1C8288.65 11671 8291.44 11672 8295.65 11672C8297.02 11672 8298.56 11671.9 8300.27 11671.8C8301.98 11671.6 8303.8 11671.3 8305.74 11671V11693.7C8300.95 11695.1 8297.31 11695.9 8294.8 11696.3C8292.29 11696.6 8288.88 11696.8 8284.55 11696.8C8273.95 11696.8 8266.26 11693 8261.47 11685.5C8258.97 11681.5 8257.2 11675.9 8256.18 11668.6C8249.91 11676.8 8240.91 11683.9 8229.17 11689.9C8217.44 11696 8204.51 11699 8190.38 11699C8173.4 11699 8159.5 11693.9 8148.68 11683.6C8137.97 11673.2 8132.62 11660.3 8132.62 11644.8C8132.62 11627.8 8137.91 11614.7 8148.51 11605.3C8159.11 11596 8173.01 11590.2 8190.21 11588.1L8239.26 11581.9ZM8342.14 11458.7H8373.24V11509.8H8402.47V11534.9H8373.24V11654.4C8373.24 11660.8 8375.41 11665 8379.74 11667.2C8382.13 11668.5 8386.12 11669.1 8391.7 11669.1C8393.18 11669.1 8394.78 11669.1 8396.48 11669.1C8398.19 11669 8400.19 11668.8 8402.47 11668.6V11692.8C8398.93 11693.9 8395.23 11694.6 8391.36 11695.1C8387.6 11695.5 8383.5 11695.7 8379.05 11695.7C8364.7 11695.7 8354.96 11692.1 8349.83 11684.8C8344.7 11677.4 8342.14 11667.8 8342.14 11656.1V11534.9H8317.36V11509.8H8342.14V11458.7ZM8464.16 11509.8V11631.3C8464.16 11640.7 8465.64 11648.3 8468.6 11654.2C8474.07 11665.2 8484.27 11670.6 8499.19 11670.6C8520.61 11670.6 8535.2 11661.1 8542.94 11641.9C8547.16 11631.7 8549.27 11617.6 8549.27 11599.7V11509.8H8580.03V11692.8H8550.98L8551.32 11665.8C8547.33 11672.8 8542.37 11678.7 8536.45 11683.4C8524.71 11693 8510.47 11697.8 8493.73 11697.8C8467.63 11697.8 8449.86 11689.1 8440.41 11671.7C8435.28 11662.3 8432.71 11649.8 8432.71 11634.2V11509.8H8464.16ZM8629.08 11509.8H8658.3V11541.4C8660.69 11535.3 8666.56 11527.8 8675.9 11519C8685.25 11510.2 8696.01 11505.7 8708.2 11505.7C8708.77 11505.7 8709.74 11505.8 8711.11 11505.9C8712.48 11506 8714.81 11506.2 8718.11 11506.6V11539C8716.29 11538.7 8714.58 11538.5 8712.99 11538.3C8711.51 11538.2 8709.85 11538.2 8708.03 11538.2C8692.54 11538.2 8680.63 11543.2 8672.31 11553.2C8664 11563.1 8659.84 11574.6 8659.84 11587.6V11692.8H8629.08V11509.8ZM8821 11505.7C8833.98 11505.7 8846.57 11508.8 8858.76 11514.9C8870.96 11521 8880.24 11528.8 8886.62 11538.5C8892.77 11547.7 8896.87 11558.5 8898.93 11570.8C8900.75 11579.3 8901.66 11592.7 8901.66 11611.2H8767.5C8768.07 11629.7 8772.46 11644.6 8780.66 11655.9C8788.87 11667.1 8801.57 11672.7 8818.77 11672.7C8834.84 11672.7 8847.66 11667.4 8857.23 11656.8C8862.7 11650.6 8866.57 11643.5 8868.85 11635.4H8899.1C8898.3 11642.1 8895.62 11649.7 8891.06 11658C8886.62 11666.2 8881.61 11672.9 8876.03 11678.1C8866.68 11687.3 8855.12 11693.4 8841.33 11696.6C8833.93 11698.4 8825.55 11699.3 8816.21 11699.3C8793.42 11699.3 8774.11 11691.1 8758.28 11674.6C8742.44 11657.9 8734.52 11634.7 8734.52 11604.8C8734.52 11575.4 8742.5 11551.6 8758.45 11533.2C8774.4 11514.9 8795.25 11505.7 8821 11505.7ZM8870.04 11586.7C8868.79 11573.4 8865.89 11562.7 8861.33 11554.8C8852.9 11539.9 8838.83 11532.5 8819.12 11532.5C8804.99 11532.5 8793.14 11537.7 8783.57 11547.9C8774 11558.1 8768.93 11571 8768.36 11586.7H8870.04ZM8957.89 11635.4C8958.8 11645.7 8961.36 11653.5 8965.58 11659C8973.32 11668.9 8986.77 11673.9 9005.91 11673.9C9017.3 11673.9 9027.33 11671.4 9035.99 11666.5C9044.64 11661.5 9048.97 11653.8 9048.97 11643.5C9048.97 11635.6 9045.5 11629.6 9038.55 11625.5C9034.11 11623 9025.33 11620.1 9012.23 11616.8L8987.79 11610.6C8972.18 11606.8 8960.68 11602.4 8953.27 11597.7C8940.06 11589.3 8933.45 11577.8 8933.45 11563.1C8933.45 11545.8 8939.66 11531.8 8952.07 11521.1C8964.61 11510.4 8981.41 11505 9002.49 11505C9030.06 11505 9049.94 11513.1 9062.13 11529.3C9069.77 11539.5 9073.47 11550.6 9073.24 11562.4H9044.19C9043.62 11555.5 9041.17 11549.2 9036.84 11543.5C9029.78 11535.4 9017.53 11531.3 9000.1 11531.3C8988.48 11531.3 8979.65 11533.6 8973.61 11538C8967.68 11542.5 8964.72 11548.3 8964.72 11555.6C8964.72 11563.6 8968.65 11570 8976.51 11574.8C8981.07 11577.6 8987.79 11580.1 8996.68 11582.3L9017.02 11587.2C9039.12 11592.6 9053.93 11597.8 9061.45 11602.8C9073.41 11610.6 9079.39 11623 9079.39 11639.9C9079.39 11656.2 9073.18 11670.2 9060.77 11682.1C9048.46 11693.9 9029.66 11699.8 9004.37 11699.8C8977.14 11699.8 8957.83 11693.7 8946.44 11681.4C8935.16 11669 8929.12 11653.6 8928.32 11635.4H8957.89Z" fill="black"/>
<path d="M10349.3 10587.8V10765.1C10349.3 10786 10353.2 10803.3 10361 10817.1C10372.6 10837.9 10392.2 10848.3 10419.6 10848.3C10452.6 10848.3 10475 10837.1 10486.8 10814.6C10493.2 10802.3 10496.4 10785.8 10496.4 10765.1V10587.8H10535.8V10748.9C10535.8 10784.2 10531.1 10811.4 10521.6 10830.4C10504.1 10865 10471.2 10882.3 10422.8 10882.3C10374.3 10882.3 10341.4 10865 10324.1 10830.4C10314.6 10811.4 10309.9 10784.2 10309.9 10748.9V10587.8H10349.3ZM10612.4 10809.1C10613.4 10820.8 10616.4 10829.8 10621.2 10836C10630 10847.4 10645.4 10853 10667.3 10853C10680.3 10853 10691.8 10850.2 10701.7 10844.6C10711.6 10838.9 10716.5 10830.1 10716.5 10818.3C10716.5 10809.3 10712.5 10802.4 10704.6 10797.8C10699.5 10794.9 10689.5 10791.6 10674.5 10787.8L10646.6 10780.8C10628.7 10776.3 10615.6 10771.4 10607.1 10765.9C10592 10756.4 10584.5 10743.3 10584.5 10726.5C10584.5 10706.7 10591.6 10690.7 10605.8 10678.4C10620.1 10666.2 10639.3 10660.1 10663.4 10660.1C10694.9 10660.1 10717.6 10669.3 10731.5 10687.8C10740.3 10699.5 10744.5 10712.1 10744.2 10725.7H10711C10710.4 10717.7 10707.6 10710.5 10702.6 10704C10694.6 10694.8 10680.6 10690.1 10660.6 10690.1C10647.4 10690.1 10637.3 10692.7 10630.4 10697.8C10623.6 10702.8 10620.2 10709.5 10620.2 10717.9C10620.2 10727 10624.7 10734.3 10633.7 10739.8C10638.9 10743 10646.6 10745.9 10656.7 10748.3L10680 10754C10705.2 10760.1 10722.2 10766.1 10730.8 10771.8C10744.4 10780.8 10751.3 10794.9 10751.3 10814.2C10751.3 10832.8 10744.2 10848.9 10730 10862.4C10715.9 10876 10694.4 10882.7 10665.5 10882.7C10634.4 10882.7 10612.3 10875.7 10599.3 10861.6C10586.4 10847.4 10579.5 10829.9 10578.6 10809.1H10612.4ZM10878.6 10660.8C10893.5 10660.8 10907.8 10664.4 10921.8 10671.4C10935.7 10678.3 10946.3 10687.3 10953.6 10698.3C10960.6 10708.9 10965.3 10721.2 10967.7 10735.3C10969.8 10744.9 10970.8 10760.3 10970.8 10781.4H10817.5C10818.1 10802.6 10823.1 10819.6 10832.5 10832.5C10841.9 10845.3 10856.4 10851.7 10876.1 10851.7C10894.4 10851.7 10909.1 10845.6 10920 10833.5C10926.3 10826.5 10930.7 10818.3 10933.3 10809.1H10967.9C10967 10816.8 10963.9 10825.4 10958.7 10834.9C10953.6 10844.2 10947.9 10851.9 10941.5 10857.9C10930.8 10868.3 10917.6 10875.4 10901.9 10879C10893.4 10881.1 10883.8 10882.1 10873.1 10882.1C10847.1 10882.1 10825 10872.7 10806.9 10853.8C10788.8 10834.8 10779.8 10808.2 10779.8 10774.1C10779.8 10740.5 10788.9 10713.3 10807.1 10692.3C10825.4 10671.3 10849.2 10660.8 10878.6 10660.8ZM10934.7 10753.4C10933.2 10738.2 10929.9 10726 10924.7 10716.9C10915.1 10700 10899 10691.5 10876.5 10691.5C10860.3 10691.5 10846.8 10697.4 10835.8 10709.1C10824.9 10720.7 10819.1 10735.5 10818.5 10753.4H10934.7ZM11015.1 10665.5H11048.5V10701.7C11051.3 10694.6 11058 10686.1 11068.7 10676.1C11079.3 10665.9 11091.6 10660.8 11105.6 10660.8C11106.2 10660.8 11107.3 10660.9 11108.9 10661C11110.4 10661.2 11113.1 10661.4 11116.9 10661.8V10698.9C11114.8 10698.5 11112.9 10698.3 11111 10698.2C11109.3 10698 11107.5 10698 11105.4 10698C11087.7 10698 11074.1 10703.7 11064.6 10715.1C11055 10726.5 11050.3 10739.6 11050.3 10754.4V10874.7H11015.1V10665.5ZM11371.2 10709.1C11387.6 10709.1 11400.4 10706.8 11409.5 10702.3C11423.8 10695.1 11431 10682.2 11431 10663.6C11431 10644.8 11423.3 10632.2 11408.1 10625.7C11399.5 10622 11386.8 10620.2 11369.8 10620.2H11300.5V10709.1H11371.2ZM11384.3 10841.5C11408.1 10841.5 11425.1 10834.6 11435.3 10820.8C11441.6 10812.1 11444.8 10801.5 11444.8 10789.2C11444.8 10768.3 11435.5 10754.1 11416.9 10746.6C11407 10742.6 11393.9 10740.5 11377.6 10740.5H11300.5V10841.5H11384.3ZM11262.4 10587.8H11385.6C11419.2 10587.8 11443.1 10597.8 11457.3 10617.9C11465.7 10629.7 11469.8 10643.4 11469.8 10658.9C11469.8 10677 11464.7 10691.8 11454.4 10703.4C11449.1 10709.5 11441.4 10715.1 11431.3 10720.2C11446.1 10725.8 11457.1 10732.1 11464.4 10739.2C11477.2 10751.7 11483.7 10768.9 11483.7 10790.9C11483.7 10809.4 11477.9 10826.1 11466.3 10841.1C11449 10863.5 11421.5 10874.7 11383.7 10874.7H11262.4V10587.8ZM11552.4 10819C11552.4 10829.2 11556.2 10837.2 11563.6 10843.1C11571 10848.9 11579.8 10851.9 11589.9 10851.9C11602.3 10851.9 11614.3 10849 11625.9 10843.3C11645.4 10833.8 11655.2 10818.2 11655.2 10796.6V10768.3C11650.9 10771 11645.3 10773.3 11638.6 10775.1C11631.8 10776.9 11625.2 10778.2 11618.7 10779L11597.4 10781.7C11584.6 10783.4 11575 10786.1 11568.7 10789.8C11557.8 10795.9 11552.4 10805.6 11552.4 10819ZM11637.6 10748C11645.7 10746.9 11651.1 10743.5 11653.8 10737.8C11655.4 10734.7 11656.2 10730.2 11656.2 10724.3C11656.2 10712.3 11651.9 10703.7 11643.3 10698.3C11634.8 10692.9 11622.6 10690.1 11606.7 10690.1C11588.4 10690.1 11575.4 10695.1 11567.7 10705C11563.4 10710.5 11560.6 10718.6 11559.3 10729.4H11526.5C11527.1 10703.6 11535.4 10685.7 11551.5 10675.7C11567.6 10665.5 11586.3 10660.5 11607.5 10660.5C11632.1 10660.5 11652.1 10665.1 11667.5 10674.5C11682.7 10683.9 11690.3 10698.5 11690.3 10718.3V10838.8C11690.3 10842.4 11691 10845.4 11692.5 10847.6C11694 10849.8 11697.2 10850.9 11702.1 10850.9C11703.6 10850.9 11705.4 10850.8 11707.3 10850.7C11709.3 10850.4 11711.4 10850.1 11713.6 10849.7V10875.7C11708.1 10877.3 11703.9 10878.2 11701.1 10878.6C11698.2 10879 11694.3 10879.2 11689.4 10879.2C11677.2 10879.2 11668.5 10874.9 11663 10866.3C11660.1 10861.8 11658.1 10855.3 11656.9 10847C11649.8 10856.4 11639.5 10864.5 11626.1 10871.4C11612.7 10878.3 11597.9 10881.7 11581.7 10881.7C11562.3 10881.7 11546.5 10875.9 11534.1 10864.2C11521.8 10852.3 11515.7 10837.5 11515.7 10819.8C11515.7 10800.4 11521.8 10785.4 11533.9 10774.7C11546 10764 11561.9 10757.5 11581.5 10755L11637.6 10748ZM11769 10809.1C11770.1 10820.8 11773 10829.8 11777.8 10836C11786.7 10847.4 11802.1 10853 11823.9 10853C11836.9 10853 11848.4 10850.2 11858.3 10844.6C11868.2 10838.9 11873.1 10830.1 11873.1 10818.3C11873.1 10809.3 11869.2 10802.4 11861.2 10797.8C11856.2 10794.9 11846.1 10791.6 11831.2 10787.8L11803.2 10780.8C11785.4 10776.3 11772.2 10771.4 11763.8 10765.9C11748.7 10756.4 11741.1 10743.3 11741.1 10726.5C11741.1 10706.7 11748.2 10690.7 11762.4 10678.4C11776.7 10666.2 11795.9 10660.1 11820 10660.1C11851.5 10660.1 11874.3 10669.3 11888.2 10687.8C11896.9 10699.5 11901.1 10712.1 11900.9 10725.7H11867.7C11867 10717.7 11864.2 10710.5 11859.3 10704C11851.2 10694.8 11837.2 10690.1 11817.3 10690.1C11804 10690.1 11793.9 10692.7 11787 10697.8C11780.2 10702.8 11776.9 10709.5 11776.9 10717.9C11776.9 10727 11781.3 10734.3 11790.3 10739.8C11795.5 10743 11803.2 10745.9 11813.4 10748.3L11836.6 10754C11861.9 10760.1 11878.8 10766.1 11887.4 10771.8C11901.1 10780.8 11907.9 10794.9 11907.9 10814.2C11907.9 10832.8 11900.8 10848.9 11886.6 10862.4C11872.6 10876 11851.1 10882.7 11822.2 10882.7C11791 10882.7 11769 10875.7 11756 10861.6C11743.1 10847.4 11736.2 10829.9 11735.3 10809.1H11769ZM12035.3 10660.8C12050.1 10660.8 12064.5 10664.4 12078.4 10671.4C12092.4 10678.3 12103 10687.3 12110.3 10698.3C12117.3 10708.9 12122 10721.2 12124.3 10735.3C12126.4 10744.9 12127.4 10760.3 12127.4 10781.4H11974.1C11974.8 10802.6 11979.8 10819.6 11989.2 10832.5C11998.5 10845.3 12013.1 10851.7 12032.7 10851.7C12051.1 10851.7 12065.7 10845.6 12076.7 10833.5C12082.9 10826.5 12087.3 10818.3 12089.9 10809.1H12124.5C12123.6 10816.8 12120.5 10825.4 12115.3 10834.9C12110.3 10844.2 12104.5 10851.9 12098.1 10857.9C12087.5 10868.3 12074.3 10875.4 12058.5 10879C12050 10881.1 12040.5 10882.1 12029.8 10882.1C12003.7 10882.1 11981.7 10872.7 11963.6 10853.8C11945.5 10834.8 11936.4 10808.2 11936.4 10774.1C11936.4 10740.5 11945.5 10713.3 11963.8 10692.3C11982 10671.3 12005.8 10660.8 12035.3 10660.8ZM12091.3 10753.4C12089.9 10738.2 12086.6 10726 12081.3 10716.9C12071.7 10700 12055.6 10691.5 12033.1 10691.5C12017 10691.5 12003.4 10697.4 11992.5 10709.1C11981.5 10720.7 11975.7 10735.5 11975.1 10753.4H12091.3ZM12193.1 10772.6C12193.1 10795 12197.8 10813.7 12207.3 10828.8C12216.8 10843.9 12232.1 10851.5 12253 10851.5C12269.3 10851.5 12282.6 10844.5 12293.1 10830.6C12303.6 10816.5 12308.9 10796.4 12308.9 10770.2C12308.9 10743.8 12303.5 10724.3 12292.7 10711.6C12281.9 10698.9 12268.5 10692.5 12252.6 10692.5C12234.9 10692.5 12220.5 10699.3 12209.5 10712.8C12198.5 10726.3 12193.1 10746.3 12193.1 10772.6ZM12246 10661.8C12262 10661.8 12275.4 10665.2 12286.2 10672C12292.5 10675.9 12299.6 10682.7 12307.5 10692.5V10586.8H12341.3V10874.7H12309.7V10845.6C12301.5 10858.5 12291.8 10867.8 12280.6 10873.5C12269.4 10879.3 12256.5 10882.1 12242.1 10882.1C12218.8 10882.1 12198.6 10872.4 12181.5 10852.8C12164.5 10833.2 12156 10807.1 12156 10774.5C12156 10744 12163.7 10717.7 12179.2 10695.4C12194.8 10673 12217.1 10661.8 12246 10661.8ZM12711.2 10587.8V10622H12614.6V10874.7H12575.1V10622H12478.4V10587.8H12711.2ZM12780.8 10852.1C12804.1 10852.1 12820 10843.3 12828.6 10825.7C12837.3 10808 12841.7 10788.3 12841.7 10766.7C12841.7 10747.2 12838.6 10731.3 12832.3 10719C12822.4 10699.8 12805.4 10690.1 12781.2 10690.1C12759.7 10690.1 12744 10698.3 12734.3 10714.8C12724.5 10731.2 12719.6 10751 12719.6 10774.1C12719.6 10796.4 12724.5 10814.9 12734.3 10829.8C12744 10844.6 12759.5 10852.1 12780.8 10852.1ZM12782.1 10659.5C12809.1 10659.5 12831.9 10668.5 12850.5 10686.4C12869.1 10704.4 12878.4 10730.8 12878.4 10765.7C12878.4 10799.5 12870.2 10827.3 12853.8 10849.3C12837.4 10871.3 12811.9 10882.3 12777.4 10882.3C12748.7 10882.3 12725.8 10872.6 12708.9 10853.2C12692 10833.7 12683.5 10807.5 12683.5 10774.7C12683.5 10739.6 12692.4 10711.6 12710.3 10690.7C12728.1 10669.9 12752.1 10659.5 12782.1 10659.5ZM13003.4 10852.1C13026.7 10852.1 13042.7 10843.3 13051.3 10825.7C13060 10808 13064.4 10788.3 13064.4 10766.7C13064.4 10747.2 13061.2 10731.3 13055 10719C13045.1 10699.8 13028 10690.1 13003.8 10690.1C12982.3 10690.1 12966.7 10698.3 12956.9 10714.8C12947.2 10731.2 12942.3 10751 12942.3 10774.1C12942.3 10796.4 12947.2 10814.9 12956.9 10829.8C12966.7 10844.6 12982.2 10852.1 13003.4 10852.1ZM13004.8 10659.5C13031.7 10659.5 13054.5 10668.5 13073.1 10686.4C13091.8 10704.4 13101.1 10730.8 13101.1 10765.7C13101.1 10799.5 13092.9 10827.3 13076.5 10849.3C13060.1 10871.3 13034.6 10882.3 13000.1 10882.3C12971.3 10882.3 12948.5 10872.6 12931.5 10853.2C12914.6 10833.7 12906.2 10807.5 12906.2 10774.7C12906.2 10739.6 12915.1 10711.6 12932.9 10690.7C12950.7 10669.9 12974.7 10659.5 13004.8 10659.5ZM13144 10587.8H13179.2V10874.7H13144V10587.8ZM13253 10809.1C13254.1 10820.8 13257 10829.8 13261.8 10836C13270.7 10847.4 13286 10853 13307.9 10853C13320.9 10853 13332.4 10850.2 13342.3 10844.6C13352.2 10838.9 13357.1 10830.1 13357.1 10818.3C13357.1 10809.3 13353.2 10802.4 13345.2 10797.8C13340.1 10794.9 13330.1 10791.6 13315.1 10787.8L13287.2 10780.8C13269.4 10776.3 13256.2 10771.4 13247.8 10765.9C13232.6 10756.4 13225.1 10743.3 13225.1 10726.5C13225.1 10706.7 13232.2 10690.7 13246.4 10678.4C13260.7 10666.2 13279.9 10660.1 13304 10660.1C13335.5 10660.1 13358.2 10669.3 13372.2 10687.8C13380.9 10699.5 13385.1 10712.1 13384.9 10725.7H13351.7C13351 10717.7 13348.2 10710.5 13343.3 10704C13335.2 10694.8 13321.2 10690.1 13301.3 10690.1C13288 10690.1 13277.9 10692.7 13271 10697.8C13264.2 10702.8 13260.8 10709.5 13260.8 10717.9C13260.8 10727 13265.3 10734.3 13274.3 10739.8C13279.5 10743 13287.2 10745.9 13297.4 10748.3L13320.6 10754C13345.9 10760.1 13362.8 10766.1 13371.4 10771.8C13385.1 10780.8 13391.9 10794.9 13391.9 10814.2C13391.9 10832.8 13384.8 10848.9 13370.6 10862.4C13356.5 10876 13335.1 10882.7 13306.2 10882.7C13275 10882.7 13253 10875.7 13239.9 10861.6C13227.1 10847.4 13220.1 10829.9 13219.2 10809.1H13253Z" fill="black"/>
</svg>
