<svg width="2818" height="2861" viewBox="0 0 2818 2861" fill="none" xmlns="http://www.w3.org/2000/svg">
<path d="M1409.17 1285V1C2118.21 1 2693 575.866 2693 1285C2693 1994.13 2118.21 2569 1409.17 2569C852.982 2569 360.048 2210.81 188.176 1681.78L1409.17 1285Z" fill="#5E3FBE" stroke="white"/>
<path d="M1409.18 1285L188.182 1681.78C-30.9235 1007.35 338.114 282.977 1012.45 63.8428C1012.45 63.8428 1012.45 63.8428 1012.45 63.8428L1409.18 1285Z" fill="#F4F0FD" stroke="white"/>
<path d="M1409.17 1285L1012.45 63.8434C1140.57 22.2073 1274.45 1 1409.17 1V1285Z" fill="#E5DAFB" stroke="white"/>
<path d="M75.3047 2729V2740.04C72.0703 2743.18 67.7578 2748.64 62.3672 2756.42C57.0234 2764.2 52.2891 2772.59 48.1641 2781.59C44.0859 2790.36 40.9922 2798.35 38.8828 2805.57C37.5234 2810.21 35.7656 2817.69 33.6094 2828H19.6172C22.8047 2808.78 29.8359 2789.66 40.7109 2770.62C47.1328 2759.47 53.8828 2749.84 60.9609 2741.73H5.27344V2729H75.3047ZM119.109 2727.31C132.141 2727.31 141.562 2732.68 147.375 2743.41C151.875 2751.71 154.125 2763.08 154.125 2777.52C154.125 2791.2 152.086 2802.52 148.008 2811.48C142.102 2824.32 132.445 2830.74 119.039 2830.74C106.945 2830.74 97.9453 2825.49 92.0391 2814.99C87.1172 2806.23 84.6562 2794.46 84.6562 2779.7C84.6562 2768.26 86.1328 2758.44 89.0859 2750.23C94.6172 2734.95 104.625 2727.31 119.109 2727.31ZM118.969 2819.21C125.531 2819.21 130.758 2816.3 134.648 2810.49C138.539 2804.68 140.484 2793.85 140.484 2778.01C140.484 2766.57 139.078 2757.17 136.266 2749.81C133.453 2742.41 127.992 2738.7 119.883 2738.7C112.43 2738.7 106.969 2742.22 103.5 2749.25C100.078 2756.23 98.3672 2766.55 98.3672 2780.19C98.3672 2790.45 99.4688 2798.7 101.672 2804.94C105.047 2814.45 110.812 2819.21 118.969 2819.21ZM258.469 2779.06C265.219 2779.06 270.984 2781.45 275.766 2786.23C280.547 2791.02 282.938 2796.78 282.938 2803.53C282.938 2810.28 280.547 2816.05 275.766 2820.83C270.984 2825.61 265.219 2828 258.469 2828C251.672 2828 245.883 2825.61 241.102 2820.83C236.32 2816.05 233.93 2810.28 233.93 2803.53C233.93 2796.78 236.32 2791.02 241.102 2786.23C245.883 2781.45 251.672 2779.06 258.469 2779.06ZM248.273 2727.73H256.078L199.758 2830.67H191.953L248.273 2727.73ZM189.422 2769.36C193.453 2769.36 196.875 2767.95 199.688 2765.14C202.547 2762.28 203.977 2758.86 203.977 2754.88C203.977 2750.89 202.547 2747.49 199.688 2744.68C196.875 2741.82 193.453 2740.39 189.422 2740.39C185.438 2740.39 182.016 2741.8 179.156 2744.61C176.344 2747.42 174.938 2750.84 174.938 2754.88C174.938 2758.86 176.344 2762.28 179.156 2765.14C182.016 2767.95 185.438 2769.36 189.422 2769.36ZM189.422 2730.34C196.219 2730.34 202.008 2732.75 206.789 2737.58C211.57 2742.36 213.961 2748.12 213.961 2754.88C213.961 2761.62 211.57 2767.39 206.789 2772.17C202.008 2776.95 196.219 2779.34 189.422 2779.34C182.672 2779.34 176.906 2776.95 172.125 2772.17C167.344 2767.39 164.953 2761.62 164.953 2754.88C164.953 2748.12 167.344 2742.36 172.125 2737.58C176.906 2732.75 182.672 2730.34 189.422 2730.34ZM258.469 2818.02C262.453 2818.02 265.852 2816.61 268.664 2813.8C271.523 2810.94 272.953 2807.52 272.953 2803.53C272.953 2799.55 271.523 2796.15 268.664 2793.34C265.852 2790.48 262.453 2789.05 258.469 2789.05C254.438 2789.05 250.992 2790.48 248.133 2793.34C245.32 2796.15 243.914 2799.55 243.914 2803.53C243.914 2807.52 245.32 2810.94 248.133 2813.8C250.992 2816.61 254.438 2818.02 258.469 2818.02ZM379.125 2816.05C383.859 2816.05 387.75 2815.55 390.797 2814.57C396.234 2812.74 400.688 2809.23 404.156 2804.02C406.922 2799.85 408.914 2794.51 410.133 2787.99C410.836 2784.1 411.188 2780.49 411.188 2777.16C411.188 2764.37 408.633 2754.43 403.523 2747.35C398.461 2740.27 390.281 2736.73 378.984 2736.73H354.164V2816.05H379.125ZM340.102 2724.71H381.938C396.141 2724.71 407.156 2729.75 414.984 2739.83C421.969 2748.92 425.461 2760.57 425.461 2774.77C425.461 2785.74 423.398 2795.66 419.273 2804.52C412.008 2820.17 399.516 2828 381.797 2828H340.102V2724.71ZM471.727 2819.84C480.117 2819.84 485.859 2816.68 488.953 2810.35C492.094 2803.98 493.664 2796.9 493.664 2789.12C493.664 2782.09 492.539 2776.37 490.289 2771.96C486.727 2765.02 480.586 2761.55 471.867 2761.55C464.133 2761.55 458.508 2764.51 454.992 2770.41C451.477 2776.32 449.719 2783.45 449.719 2791.79C449.719 2799.8 451.477 2806.48 454.992 2811.83C458.508 2817.17 464.086 2819.84 471.727 2819.84ZM472.219 2750.52C481.922 2750.52 490.125 2753.75 496.828 2760.22C503.531 2766.69 506.883 2776.2 506.883 2788.77C506.883 2800.91 503.93 2810.94 498.023 2818.86C492.117 2826.78 482.953 2830.74 470.531 2830.74C460.172 2830.74 451.945 2827.25 445.852 2820.27C439.758 2813.23 436.711 2803.81 436.711 2792C436.711 2779.34 439.922 2769.27 446.344 2761.77C452.766 2754.27 461.391 2750.52 472.219 2750.52ZM636.398 2724.71V2737.02H601.594V2828H587.391V2737.02H552.586V2724.71H636.398ZM647.578 2724.36H660.234V2762.89C663.234 2759.09 665.93 2756.42 668.32 2754.88C672.398 2752.2 677.484 2750.87 683.578 2750.87C694.5 2750.87 701.906 2754.69 705.797 2762.33C707.906 2766.5 708.961 2772.29 708.961 2779.7V2828H695.953V2780.54C695.953 2775.01 695.25 2770.95 693.844 2768.38C691.547 2764.25 687.234 2762.19 680.906 2762.19C675.656 2762.19 670.898 2763.99 666.633 2767.6C662.367 2771.21 660.234 2778.03 660.234 2788.06V2828H647.578V2724.36ZM759.094 2751.01C764.438 2751.01 769.617 2752.27 774.633 2754.8C779.648 2757.29 783.469 2760.52 786.094 2764.51C788.625 2768.3 790.312 2772.73 791.156 2777.8C791.906 2781.27 792.281 2786.8 792.281 2794.39H737.086C737.32 2802.03 739.125 2808.17 742.5 2812.81C745.875 2817.41 751.102 2819.7 758.18 2819.7C764.789 2819.7 770.062 2817.52 774 2813.16C776.25 2810.63 777.844 2807.7 778.781 2804.38H791.227C790.898 2807.14 789.797 2810.23 787.922 2813.66C786.094 2817.03 784.031 2819.8 781.734 2821.95C777.891 2825.7 773.133 2828.23 767.461 2829.55C764.414 2830.3 760.969 2830.67 757.125 2830.67C747.75 2830.67 739.805 2827.27 733.289 2820.48C726.773 2813.63 723.516 2804.07 723.516 2791.79C723.516 2779.7 726.797 2769.88 733.359 2762.33C739.922 2754.78 748.5 2751.01 759.094 2751.01ZM779.273 2784.34C778.758 2778.85 777.562 2774.47 775.688 2771.19C772.219 2765.09 766.43 2762.05 758.32 2762.05C752.508 2762.05 747.633 2764.16 743.695 2768.38C739.758 2772.55 737.672 2777.87 737.438 2784.34H779.273ZM807.891 2753.05H820.758V2828H807.891V2753.05ZM807.891 2724.71H820.758V2739.05H807.891V2724.71ZM840.305 2752.7H852.328V2765.7C853.312 2763.17 855.727 2760.1 859.57 2756.49C863.414 2752.84 867.844 2751.01 872.859 2751.01C873.094 2751.01 873.492 2751.03 874.055 2751.08C874.617 2751.12 875.578 2751.22 876.938 2751.36V2764.72C876.188 2764.58 875.484 2764.48 874.828 2764.44C874.219 2764.39 873.539 2764.37 872.789 2764.37C866.414 2764.37 861.516 2766.43 858.094 2770.55C854.672 2774.63 852.961 2779.34 852.961 2784.69V2828H840.305V2752.7ZM938.812 2794.67C939.141 2800.53 940.523 2805.29 942.961 2808.95C947.602 2815.79 955.781 2819.21 967.5 2819.21C972.75 2819.21 977.531 2818.46 981.844 2816.96C990.188 2814.05 994.359 2808.85 994.359 2801.35C994.359 2795.73 992.602 2791.72 989.086 2789.33C985.523 2786.98 979.945 2784.95 972.352 2783.21L958.359 2780.05C949.219 2777.98 942.75 2775.71 938.953 2773.23C932.391 2768.91 929.109 2762.47 929.109 2753.89C929.109 2744.61 932.32 2736.99 938.742 2731.04C945.164 2725.09 954.258 2722.11 966.023 2722.11C976.852 2722.11 986.039 2724.73 993.586 2729.98C1001.18 2735.19 1004.98 2743.53 1004.98 2755.02H991.828C991.125 2749.48 989.625 2745.24 987.328 2742.29C983.062 2736.9 975.82 2734.2 965.602 2734.2C957.352 2734.2 951.422 2735.94 947.812 2739.41C944.203 2742.88 942.398 2746.91 942.398 2751.5C942.398 2756.56 944.508 2760.27 948.727 2762.61C951.492 2764.11 957.75 2765.98 967.5 2768.23L981.984 2771.54C988.969 2773.13 994.359 2775.31 998.156 2778.08C1004.72 2782.91 1008 2789.91 1008 2799.1C1008 2810.54 1003.83 2818.72 995.484 2823.64C987.188 2828.56 977.531 2831.02 966.516 2831.02C953.672 2831.02 943.617 2827.74 936.352 2821.18C929.086 2814.66 925.523 2805.83 925.664 2794.67H938.812ZM1023.75 2724.71H1035.91V2784.69L1068.4 2752.7H1084.57L1055.74 2780.89L1086.19 2828H1070.02L1046.53 2790.03L1035.91 2799.73V2828H1023.75V2724.71ZM1096.03 2753.05H1108.9V2828H1096.03V2753.05ZM1096.03 2724.71H1108.9V2739.05H1096.03V2724.71ZM1128.09 2752.7H1140.12V2763.38C1143.68 2758.98 1147.45 2755.81 1151.44 2753.89C1155.42 2751.97 1159.85 2751.01 1164.73 2751.01C1175.41 2751.01 1182.63 2754.73 1186.38 2762.19C1188.45 2766.27 1189.48 2772.1 1189.48 2779.7V2828H1176.61V2780.54C1176.61 2775.95 1175.93 2772.24 1174.57 2769.43C1172.32 2764.74 1168.24 2762.4 1162.34 2762.4C1159.34 2762.4 1156.88 2762.7 1154.95 2763.31C1151.48 2764.34 1148.44 2766.41 1145.81 2769.5C1143.7 2771.98 1142.32 2774.56 1141.66 2777.23C1141.05 2779.86 1140.75 2783.63 1140.75 2788.55V2828H1128.09V2752.7ZM1237.29 2750.52C1245.77 2750.52 1252.66 2752.58 1257.96 2756.7C1263.3 2760.83 1266.52 2767.93 1267.59 2778.01H1255.29C1254.54 2773.37 1252.83 2769.52 1250.16 2766.48C1247.48 2763.38 1243.2 2761.84 1237.29 2761.84C1229.23 2761.84 1223.46 2765.77 1219.99 2773.65C1217.74 2778.76 1216.62 2785.06 1216.62 2792.56C1216.62 2800.11 1218.21 2806.46 1221.4 2811.62C1224.59 2816.77 1229.6 2819.35 1236.45 2819.35C1241.7 2819.35 1245.84 2817.76 1248.89 2814.57C1251.98 2811.34 1254.12 2806.93 1255.29 2801.35H1267.59C1266.19 2811.34 1262.67 2818.65 1257.05 2823.29C1251.42 2827.88 1244.23 2830.18 1235.46 2830.18C1225.62 2830.18 1217.77 2826.59 1211.91 2819.42C1206.05 2812.2 1203.12 2803.2 1203.12 2792.42C1203.12 2779.2 1206.33 2768.91 1212.75 2761.55C1219.17 2754.2 1227.35 2750.52 1237.29 2750.52ZM1289.95 2807.96C1289.95 2811.62 1291.29 2814.5 1293.96 2816.61C1296.63 2818.72 1299.8 2819.77 1303.45 2819.77C1307.91 2819.77 1312.22 2818.74 1316.39 2816.68C1323.42 2813.26 1326.94 2807.66 1326.94 2799.88V2789.68C1325.39 2790.66 1323.4 2791.48 1320.96 2792.14C1318.52 2792.8 1316.13 2793.27 1313.79 2793.55L1306.12 2794.53C1301.53 2795.14 1298.09 2796.1 1295.79 2797.41C1291.9 2799.62 1289.95 2803.13 1289.95 2807.96ZM1320.61 2782.37C1323.52 2781.99 1325.46 2780.77 1326.45 2778.71C1327.01 2777.59 1327.29 2775.97 1327.29 2773.86C1327.29 2769.55 1325.74 2766.43 1322.65 2764.51C1319.6 2762.54 1315.22 2761.55 1309.5 2761.55C1302.89 2761.55 1298.2 2763.34 1295.44 2766.9C1293.89 2768.87 1292.88 2771.8 1292.41 2775.69H1280.6C1280.84 2766.41 1283.84 2759.96 1289.6 2756.35C1295.41 2752.7 1302.14 2750.87 1309.78 2750.87C1318.64 2750.87 1325.84 2752.55 1331.37 2755.93C1336.85 2759.3 1339.59 2764.55 1339.59 2771.68V2815.06C1339.59 2816.38 1339.85 2817.43 1340.37 2818.23C1340.93 2819.02 1342.08 2819.42 1343.81 2819.42C1344.38 2819.42 1345.01 2819.4 1345.71 2819.35C1346.41 2819.26 1347.16 2819.14 1347.96 2819V2828.35C1345.99 2828.91 1344.49 2829.27 1343.46 2829.41C1342.43 2829.55 1341.02 2829.62 1339.24 2829.62C1334.88 2829.62 1331.72 2828.07 1329.75 2824.98C1328.72 2823.34 1327.99 2821.02 1327.57 2818.02C1324.99 2821.39 1321.29 2824.32 1316.46 2826.8C1311.63 2829.29 1306.31 2830.53 1300.5 2830.53C1293.52 2830.53 1287.8 2828.42 1283.34 2824.2C1278.94 2819.94 1276.73 2814.62 1276.73 2808.24C1276.73 2801.26 1278.91 2795.84 1283.27 2792C1287.63 2788.16 1293.35 2785.79 1300.43 2784.9L1320.61 2782.37ZM1360.76 2752.7H1372.78V2765.7C1373.77 2763.17 1376.18 2760.1 1380.02 2756.49C1383.87 2752.84 1388.3 2751.01 1393.31 2751.01C1393.55 2751.01 1393.95 2751.03 1394.51 2751.08C1395.07 2751.12 1396.03 2751.22 1397.39 2751.36V2764.72C1396.64 2764.58 1395.94 2764.48 1395.28 2764.44C1394.67 2764.39 1393.99 2764.37 1393.24 2764.37C1386.87 2764.37 1381.97 2766.43 1378.55 2770.55C1375.12 2774.63 1373.41 2779.34 1373.41 2784.69V2828H1360.76V2752.7ZM1439.72 2751.01C1445.06 2751.01 1450.24 2752.27 1455.26 2754.8C1460.27 2757.29 1464.09 2760.52 1466.72 2764.51C1469.25 2768.3 1470.94 2772.73 1471.78 2777.8C1472.53 2781.27 1472.91 2786.8 1472.91 2794.39H1417.71C1417.95 2802.03 1419.75 2808.17 1423.12 2812.81C1426.5 2817.41 1431.73 2819.7 1438.8 2819.7C1445.41 2819.7 1450.69 2817.52 1454.62 2813.16C1456.88 2810.63 1458.47 2807.7 1459.41 2804.38H1471.85C1471.52 2807.14 1470.42 2810.23 1468.55 2813.66C1466.72 2817.03 1464.66 2819.8 1462.36 2821.95C1458.52 2825.7 1453.76 2828.23 1448.09 2829.55C1445.04 2830.3 1441.59 2830.67 1437.75 2830.67C1428.38 2830.67 1420.43 2827.27 1413.91 2820.48C1407.4 2813.63 1404.14 2804.07 1404.14 2791.79C1404.14 2779.7 1407.42 2769.88 1413.98 2762.33C1420.55 2754.78 1429.12 2751.01 1439.72 2751.01ZM1459.9 2784.34C1459.38 2778.85 1458.19 2774.47 1456.31 2771.19C1452.84 2765.09 1447.05 2762.05 1438.95 2762.05C1433.13 2762.05 1428.26 2764.16 1424.32 2768.38C1420.38 2772.55 1418.3 2777.87 1418.06 2784.34H1459.9ZM1578.3 2772.03C1584.87 2772.03 1590.05 2770.72 1593.84 2768.09C1597.69 2765.47 1599.61 2760.73 1599.61 2753.89C1599.61 2746.53 1596.94 2741.52 1591.59 2738.84C1588.73 2737.44 1584.91 2736.73 1580.13 2736.73H1545.96V2772.03H1578.3ZM1531.97 2724.71H1579.78C1587.66 2724.71 1594.15 2725.86 1599.26 2728.16C1608.96 2732.56 1613.81 2740.7 1613.81 2752.55C1613.81 2758.74 1612.52 2763.8 1609.95 2767.74C1607.41 2771.68 1603.85 2774.84 1599.26 2777.23C1603.29 2778.88 1606.31 2781.03 1608.33 2783.7C1610.39 2786.38 1611.54 2790.71 1611.77 2796.71L1612.27 2810.56C1612.41 2814.5 1612.73 2817.43 1613.25 2819.35C1614.09 2822.63 1615.59 2824.74 1617.75 2825.68V2828H1600.59C1600.12 2827.11 1599.75 2825.96 1599.47 2824.55C1599.19 2823.15 1598.95 2820.43 1598.77 2816.4L1597.92 2799.17C1597.59 2792.42 1595.09 2787.9 1590.4 2785.6C1587.73 2784.34 1583.53 2783.7 1577.81 2783.7H1545.96V2828H1531.97V2724.71ZM1662.54 2819.84C1670.93 2819.84 1676.67 2816.68 1679.77 2810.35C1682.91 2803.98 1684.48 2796.9 1684.48 2789.12C1684.48 2782.09 1683.35 2776.37 1681.1 2771.96C1677.54 2765.02 1671.4 2761.55 1662.68 2761.55C1654.95 2761.55 1649.32 2764.51 1645.8 2770.41C1642.29 2776.32 1640.53 2783.45 1640.53 2791.79C1640.53 2799.8 1642.29 2806.48 1645.8 2811.83C1649.32 2817.17 1654.9 2819.84 1662.54 2819.84ZM1663.03 2750.52C1672.73 2750.52 1680.94 2753.75 1687.64 2760.22C1694.34 2766.69 1697.7 2776.2 1697.7 2788.77C1697.7 2800.91 1694.74 2810.94 1688.84 2818.86C1682.93 2826.78 1673.77 2830.74 1661.34 2830.74C1650.98 2830.74 1642.76 2827.25 1636.66 2820.27C1630.57 2813.23 1627.52 2803.81 1627.52 2792C1627.52 2779.34 1630.73 2769.27 1637.16 2761.77C1643.58 2754.27 1652.2 2750.52 1663.03 2750.52ZM1725.47 2752.7V2802.69C1725.47 2806.53 1726.08 2809.67 1727.3 2812.11C1729.55 2816.61 1733.74 2818.86 1739.88 2818.86C1748.7 2818.86 1754.7 2814.92 1757.88 2807.05C1759.62 2802.83 1760.48 2797.04 1760.48 2789.68V2752.7H1773.14V2828H1761.19L1761.33 2816.89C1759.69 2819.75 1757.65 2822.16 1755.21 2824.13C1750.38 2828.07 1744.52 2830.04 1737.63 2830.04C1726.9 2830.04 1719.59 2826.45 1715.7 2819.28C1713.59 2815.44 1712.53 2810.3 1712.53 2803.88V2752.7H1725.47ZM1795.5 2731.67H1808.3V2752.7H1820.32V2763.03H1808.3V2812.18C1808.3 2814.8 1809.19 2816.56 1810.97 2817.45C1811.95 2817.97 1813.59 2818.23 1815.89 2818.23C1816.5 2818.23 1817.16 2818.23 1817.86 2818.23C1818.56 2818.18 1819.38 2818.11 1820.32 2818.02V2828C1818.87 2828.42 1817.34 2828.73 1815.75 2828.91C1814.2 2829.1 1812.52 2829.2 1810.69 2829.2C1804.78 2829.2 1800.77 2827.7 1798.66 2824.7C1796.55 2821.65 1795.5 2817.71 1795.5 2812.88V2763.03H1785.3V2752.7H1795.5V2731.67ZM1833.05 2753.05H1845.91V2828H1833.05V2753.05ZM1833.05 2724.71H1845.91V2739.05H1833.05V2724.71ZM1865.11 2752.7H1877.13V2763.38C1880.7 2758.98 1884.47 2755.81 1888.45 2753.89C1892.44 2751.97 1896.87 2751.01 1901.74 2751.01C1912.43 2751.01 1919.65 2754.73 1923.4 2762.19C1925.46 2766.27 1926.49 2772.1 1926.49 2779.7V2828H1913.62V2780.54C1913.62 2775.95 1912.95 2772.24 1911.59 2769.43C1909.34 2764.74 1905.26 2762.4 1899.35 2762.4C1896.35 2762.4 1893.89 2762.7 1891.97 2763.31C1888.5 2764.34 1885.45 2766.41 1882.83 2769.5C1880.72 2771.98 1879.34 2774.56 1878.68 2777.23C1878.07 2779.86 1877.77 2783.63 1877.77 2788.55V2828H1865.11V2752.7ZM1976.62 2751.01C1981.97 2751.01 1987.15 2752.27 1992.16 2754.8C1997.18 2757.29 2001 2760.52 2003.62 2764.51C2006.16 2768.3 2007.84 2772.73 2008.69 2777.8C2009.44 2781.27 2009.81 2786.8 2009.81 2794.39H1954.62C1954.85 2802.03 1956.66 2808.17 1960.03 2812.81C1963.41 2817.41 1968.63 2819.7 1975.71 2819.7C1982.32 2819.7 1987.59 2817.52 1991.53 2813.16C1993.78 2810.63 1995.38 2807.7 1996.31 2804.38H2008.76C2008.43 2807.14 2007.33 2810.23 2005.45 2813.66C2003.62 2817.03 2001.56 2819.8 1999.27 2821.95C1995.42 2825.7 1990.66 2828.23 1984.99 2829.55C1981.95 2830.3 1978.5 2830.67 1974.66 2830.67C1965.28 2830.67 1957.34 2827.27 1950.82 2820.48C1944.3 2813.63 1941.05 2804.07 1941.05 2791.79C1941.05 2779.7 1944.33 2769.88 1950.89 2762.33C1957.45 2754.78 1966.03 2751.01 1976.62 2751.01ZM1996.8 2784.34C1996.29 2778.85 1995.09 2774.47 1993.22 2771.19C1989.75 2765.09 1983.96 2762.05 1975.85 2762.05C1970.04 2762.05 1965.16 2764.16 1961.23 2768.38C1957.29 2772.55 1955.2 2777.87 1954.97 2784.34H1996.8ZM2111.77 2721.9C2130 2721.9 2143.5 2727.76 2152.27 2739.48C2159.11 2748.62 2162.53 2760.31 2162.53 2774.56C2162.53 2789.98 2158.62 2802.8 2150.79 2813.02C2141.6 2825.02 2128.5 2831.02 2111.48 2831.02C2095.59 2831.02 2083.1 2825.77 2074.01 2815.27C2065.9 2805.15 2061.84 2792.35 2061.84 2776.88C2061.84 2762.91 2065.31 2750.96 2072.25 2741.02C2081.16 2728.27 2094.33 2721.9 2111.77 2721.9ZM2113.17 2818.51C2125.5 2818.51 2134.41 2814.1 2139.89 2805.29C2145.42 2796.43 2148.19 2786.26 2148.19 2774.77C2148.19 2762.63 2145 2752.86 2138.62 2745.45C2132.3 2738.05 2123.62 2734.34 2112.61 2734.34C2101.92 2734.34 2093.2 2738.02 2086.45 2745.38C2079.7 2752.7 2076.33 2763.5 2076.33 2777.8C2076.33 2789.23 2079.21 2798.89 2084.98 2806.77C2090.79 2814.59 2100.19 2818.51 2113.17 2818.51ZM2177.58 2752.7H2189.6V2763.38C2193.16 2758.98 2196.94 2755.81 2200.92 2753.89C2204.91 2751.97 2209.34 2751.01 2214.21 2751.01C2224.9 2751.01 2232.12 2754.73 2235.87 2762.19C2237.93 2766.27 2238.96 2772.1 2238.96 2779.7V2828H2226.09V2780.54C2226.09 2775.95 2225.41 2772.24 2224.05 2769.43C2221.8 2764.74 2217.73 2762.4 2211.82 2762.4C2208.82 2762.4 2206.36 2762.7 2204.44 2763.31C2200.97 2764.34 2197.92 2766.41 2195.3 2769.5C2193.19 2771.98 2191.8 2774.56 2191.15 2777.23C2190.54 2779.86 2190.23 2783.63 2190.23 2788.55V2828H2177.58V2752.7ZM2286.77 2750.52C2295.26 2750.52 2302.15 2752.58 2307.45 2756.7C2312.79 2760.83 2316 2767.93 2317.08 2778.01H2304.77C2304.02 2773.37 2302.31 2769.52 2299.64 2766.48C2296.97 2763.38 2292.68 2761.84 2286.77 2761.84C2278.71 2761.84 2272.95 2765.77 2269.48 2773.65C2267.23 2778.76 2266.1 2785.06 2266.1 2792.56C2266.1 2800.11 2267.7 2806.46 2270.88 2811.62C2274.07 2816.77 2279.09 2819.35 2285.93 2819.35C2291.18 2819.35 2295.33 2817.76 2298.38 2814.57C2301.47 2811.34 2303.6 2806.93 2304.77 2801.35H2317.08C2315.67 2811.34 2312.16 2818.65 2306.53 2823.29C2300.91 2827.88 2293.71 2830.18 2284.95 2830.18C2275.1 2830.18 2267.25 2826.59 2261.39 2819.42C2255.53 2812.2 2252.6 2803.2 2252.6 2792.42C2252.6 2779.2 2255.81 2768.91 2262.23 2761.55C2268.66 2754.2 2276.84 2750.52 2286.77 2750.52ZM2361.09 2751.01C2366.44 2751.01 2371.62 2752.27 2376.63 2754.8C2381.65 2757.29 2385.47 2760.52 2388.09 2764.51C2390.62 2768.3 2392.31 2772.73 2393.16 2777.8C2393.91 2781.27 2394.28 2786.8 2394.28 2794.39H2339.09C2339.32 2802.03 2341.12 2808.17 2344.5 2812.81C2347.88 2817.41 2353.1 2819.7 2360.18 2819.7C2366.79 2819.7 2372.06 2817.52 2376 2813.16C2378.25 2810.63 2379.84 2807.7 2380.78 2804.38H2393.23C2392.9 2807.14 2391.8 2810.23 2389.92 2813.66C2388.09 2817.03 2386.03 2819.8 2383.73 2821.95C2379.89 2825.7 2375.13 2828.23 2369.46 2829.55C2366.41 2830.3 2362.97 2830.67 2359.12 2830.67C2349.75 2830.67 2341.8 2827.27 2335.29 2820.48C2328.77 2813.63 2325.52 2804.07 2325.52 2791.79C2325.52 2779.7 2328.8 2769.88 2335.36 2762.33C2341.92 2754.78 2350.5 2751.01 2361.09 2751.01ZM2381.27 2784.34C2380.76 2778.85 2379.56 2774.47 2377.69 2771.19C2374.22 2765.09 2368.43 2762.05 2360.32 2762.05C2354.51 2762.05 2349.63 2764.16 2345.7 2768.38C2341.76 2772.55 2339.67 2777.87 2339.44 2784.34H2381.27ZM2496.8 2785.67L2481.12 2740.04L2464.45 2785.67H2496.8ZM2473.8 2724.71H2489.62L2527.1 2828H2511.77L2501.3 2797.06H2460.45L2449.27 2828H2434.92L2473.8 2724.71ZM2611.69 2816.05C2616.42 2816.05 2620.31 2815.55 2623.36 2814.57C2628.8 2812.74 2633.25 2809.23 2636.72 2804.02C2639.48 2799.85 2641.48 2794.51 2642.7 2787.99C2643.4 2784.1 2643.75 2780.49 2643.75 2777.16C2643.75 2764.37 2641.2 2754.43 2636.09 2747.35C2631.02 2740.27 2622.84 2736.73 2611.55 2736.73H2586.73V2816.05H2611.69ZM2572.66 2724.71H2614.5C2628.7 2724.71 2639.72 2729.75 2647.55 2739.83C2654.53 2748.92 2658.02 2760.57 2658.02 2774.77C2658.02 2785.74 2655.96 2795.66 2651.84 2804.52C2644.57 2820.17 2632.08 2828 2614.36 2828H2572.66V2724.71ZM2684.11 2807.96C2684.11 2811.62 2685.45 2814.5 2688.12 2816.61C2690.79 2818.72 2693.95 2819.77 2697.61 2819.77C2702.06 2819.77 2706.38 2818.74 2710.55 2816.68C2717.58 2813.26 2721.09 2807.66 2721.09 2799.88V2789.68C2719.55 2790.66 2717.55 2791.48 2715.12 2792.14C2712.68 2792.8 2710.29 2793.27 2707.95 2793.55L2700.28 2794.53C2695.69 2795.14 2692.24 2796.1 2689.95 2797.41C2686.05 2799.62 2684.11 2803.13 2684.11 2807.96ZM2714.77 2782.37C2717.67 2781.99 2719.62 2780.77 2720.6 2778.71C2721.16 2777.59 2721.45 2775.97 2721.45 2773.86C2721.45 2769.55 2719.9 2766.43 2716.8 2764.51C2713.76 2762.54 2709.38 2761.55 2703.66 2761.55C2697.05 2761.55 2692.36 2763.34 2689.59 2766.9C2688.05 2768.87 2687.04 2771.8 2686.57 2775.69H2674.76C2674.99 2766.41 2677.99 2759.96 2683.76 2756.35C2689.57 2752.7 2696.3 2750.87 2703.94 2750.87C2712.8 2750.87 2719.99 2752.55 2725.52 2755.93C2731.01 2759.3 2733.75 2764.55 2733.75 2771.68V2815.06C2733.75 2816.38 2734.01 2817.43 2734.52 2818.23C2735.09 2819.02 2736.23 2819.42 2737.97 2819.42C2738.53 2819.42 2739.16 2819.4 2739.87 2819.35C2740.57 2819.26 2741.32 2819.14 2742.12 2819V2828.35C2740.15 2828.91 2738.65 2829.27 2737.62 2829.41C2736.59 2829.55 2735.18 2829.62 2733.4 2829.62C2729.04 2829.62 2725.88 2828.07 2723.91 2824.98C2722.88 2823.34 2722.15 2821.02 2721.73 2818.02C2719.15 2821.39 2715.45 2824.32 2710.62 2826.8C2705.79 2829.29 2700.47 2830.53 2694.66 2830.53C2687.67 2830.53 2681.95 2828.42 2677.5 2824.2C2673.09 2819.94 2670.89 2814.62 2670.89 2808.24C2670.89 2801.26 2673.07 2795.84 2677.43 2792C2681.79 2788.16 2687.51 2785.79 2694.59 2784.9L2714.77 2782.37ZM2801.6 2752.7H2815.59C2813.81 2757.52 2809.85 2768.54 2803.71 2785.74C2799.12 2798.68 2795.27 2809.23 2792.18 2817.38C2784.87 2836.6 2779.71 2848.32 2776.71 2852.54C2773.71 2856.76 2768.55 2858.87 2761.24 2858.87C2759.46 2858.87 2758.08 2858.8 2757.09 2858.66C2756.16 2858.52 2754.98 2858.26 2753.58 2857.88V2846.35C2755.78 2846.96 2757.38 2847.34 2758.36 2847.48C2759.34 2847.62 2760.21 2847.69 2760.96 2847.69C2763.3 2847.69 2765.02 2847.29 2766.09 2846.49C2767.22 2845.74 2768.16 2844.8 2768.91 2843.68C2769.14 2843.3 2769.98 2841.38 2771.44 2837.91C2772.89 2834.45 2773.95 2831.87 2774.6 2830.18L2746.76 2752.7H2761.1L2781.28 2814.01L2801.6 2752.7Z" fill="black"/>
<path d="M1598.03 1589.27C1610.19 1589.27 1619.19 1593.17 1625.03 1600.98C1629.59 1607.08 1631.88 1614.88 1631.88 1624.38C1631.88 1634.66 1629.27 1643.2 1624.05 1650.02C1617.92 1658.02 1609.19 1662.02 1597.84 1662.02C1587.25 1662.02 1578.92 1658.52 1572.86 1651.52C1567.45 1644.77 1564.75 1636.23 1564.75 1625.92C1564.75 1616.61 1567.06 1608.64 1571.69 1602.02C1577.62 1593.52 1586.41 1589.27 1598.03 1589.27ZM1598.97 1653.67C1607.19 1653.67 1613.12 1650.73 1616.78 1644.86C1620.47 1638.95 1622.31 1632.17 1622.31 1624.52C1622.31 1616.42 1620.19 1609.91 1615.94 1604.97C1611.72 1600.03 1605.94 1597.56 1598.59 1597.56C1591.47 1597.56 1585.66 1600.02 1581.16 1604.92C1576.66 1609.8 1574.41 1617 1574.41 1626.53C1574.41 1634.16 1576.33 1640.59 1580.17 1645.84C1584.05 1651.06 1590.31 1653.67 1598.97 1653.67ZM1641.91 1609.8H1649.92V1616.92C1652.3 1613.98 1654.81 1611.88 1657.47 1610.59C1660.12 1609.31 1663.08 1608.67 1666.33 1608.67C1673.45 1608.67 1678.27 1611.16 1680.77 1616.12C1682.14 1618.84 1682.83 1622.73 1682.83 1627.8V1660H1674.25V1628.36C1674.25 1625.3 1673.8 1622.83 1672.89 1620.95C1671.39 1617.83 1668.67 1616.27 1664.73 1616.27C1662.73 1616.27 1661.09 1616.47 1659.81 1616.88C1657.5 1617.56 1655.47 1618.94 1653.72 1621C1652.31 1622.66 1651.39 1624.38 1650.95 1626.16C1650.55 1627.91 1650.34 1630.42 1650.34 1633.7V1660H1641.91V1609.8ZM1714.7 1608.34C1720.36 1608.34 1724.95 1609.72 1728.48 1612.47C1732.05 1615.22 1734.19 1619.95 1734.91 1626.67H1726.7C1726.2 1623.58 1725.06 1621.02 1723.28 1618.98C1721.5 1616.92 1718.64 1615.89 1714.7 1615.89C1709.33 1615.89 1705.48 1618.52 1703.17 1623.77C1701.67 1627.17 1700.92 1631.38 1700.92 1636.38C1700.92 1641.41 1701.98 1645.64 1704.11 1649.08C1706.23 1652.52 1709.58 1654.23 1714.14 1654.23C1717.64 1654.23 1720.41 1653.17 1722.44 1651.05C1724.5 1648.89 1725.92 1645.95 1726.7 1642.23H1734.91C1733.97 1648.89 1731.62 1653.77 1727.88 1656.86C1724.12 1659.92 1719.33 1661.45 1713.48 1661.45C1706.92 1661.45 1701.69 1659.06 1697.78 1654.28C1693.88 1649.47 1691.92 1643.47 1691.92 1636.28C1691.92 1627.47 1694.06 1620.61 1698.34 1615.7C1702.62 1610.8 1708.08 1608.34 1714.7 1608.34ZM1764.25 1608.67C1767.81 1608.67 1771.27 1609.52 1774.61 1611.2C1777.95 1612.86 1780.5 1615.02 1782.25 1617.67C1783.94 1620.2 1785.06 1623.16 1785.62 1626.53C1786.12 1628.84 1786.38 1632.53 1786.38 1637.59H1749.58C1749.73 1642.69 1750.94 1646.78 1753.19 1649.88C1755.44 1652.94 1758.92 1654.47 1763.64 1654.47C1768.05 1654.47 1771.56 1653.02 1774.19 1650.11C1775.69 1648.42 1776.75 1646.47 1777.38 1644.25H1785.67C1785.45 1646.09 1784.72 1648.16 1783.47 1650.44C1782.25 1652.69 1780.88 1654.53 1779.34 1655.97C1776.78 1658.47 1773.61 1660.16 1769.83 1661.03C1767.8 1661.53 1765.5 1661.78 1762.94 1661.78C1756.69 1661.78 1751.39 1659.52 1747.05 1654.98C1742.7 1650.42 1740.53 1644.05 1740.53 1635.86C1740.53 1627.8 1742.72 1621.25 1747.09 1616.22C1751.47 1611.19 1757.19 1608.67 1764.25 1608.67ZM1777.7 1630.89C1777.36 1627.23 1776.56 1624.31 1775.31 1622.12C1773 1618.06 1769.14 1616.03 1763.73 1616.03C1759.86 1616.03 1756.61 1617.44 1753.98 1620.25C1751.36 1623.03 1749.97 1626.58 1749.81 1630.89H1777.7ZM1854.72 1631.78L1844.27 1601.36L1833.16 1631.78H1854.72ZM1839.39 1591.14H1849.94L1874.92 1660H1864.7L1857.72 1639.38H1830.48L1823.03 1660H1813.47L1839.39 1591.14ZM1931.31 1652.03C1934.47 1652.03 1937.06 1651.7 1939.09 1651.05C1942.72 1649.83 1945.69 1647.48 1948 1644.02C1949.84 1641.23 1951.17 1637.67 1951.98 1633.33C1952.45 1630.73 1952.69 1628.33 1952.69 1626.11C1952.69 1617.58 1950.98 1610.95 1947.58 1606.23C1944.2 1601.52 1938.75 1599.16 1931.22 1599.16H1914.67V1652.03H1931.31ZM1905.3 1591.14H1933.19C1942.66 1591.14 1950 1594.5 1955.22 1601.22C1959.88 1607.28 1962.2 1615.05 1962.2 1624.52C1962.2 1631.83 1960.83 1638.44 1958.08 1644.34C1953.23 1654.78 1944.91 1660 1933.09 1660H1905.3V1591.14ZM1979.59 1646.64C1979.59 1649.08 1980.48 1651 1982.27 1652.41C1984.05 1653.81 1986.16 1654.52 1988.59 1654.52C1991.56 1654.52 1994.44 1653.83 1997.22 1652.45C2001.91 1650.17 2004.25 1646.44 2004.25 1641.25V1634.45C2003.22 1635.11 2001.89 1635.66 2000.27 1636.09C1998.64 1636.53 1997.05 1636.84 1995.48 1637.03L1990.38 1637.69C1987.31 1638.09 1985.02 1638.73 1983.48 1639.61C1980.89 1641.08 1979.59 1643.42 1979.59 1646.64ZM2000.03 1629.58C2001.97 1629.33 2003.27 1628.52 2003.92 1627.14C2004.3 1626.39 2004.48 1625.31 2004.48 1623.91C2004.48 1621.03 2003.45 1618.95 2001.39 1617.67C1999.36 1616.36 1996.44 1615.7 1992.62 1615.7C1988.22 1615.7 1985.09 1616.89 1983.25 1619.27C1982.22 1620.58 1981.55 1622.53 1981.23 1625.12H1973.36C1973.52 1618.94 1975.52 1614.64 1979.36 1612.23C1983.23 1609.8 1987.72 1608.58 1992.81 1608.58C1998.72 1608.58 2003.52 1609.7 2007.2 1611.95C2010.86 1614.2 2012.69 1617.7 2012.69 1622.45V1651.38C2012.69 1652.25 2012.86 1652.95 2013.2 1653.48C2013.58 1654.02 2014.34 1654.28 2015.5 1654.28C2015.88 1654.28 2016.3 1654.27 2016.77 1654.23C2017.23 1654.17 2017.73 1654.09 2018.27 1654V1660.23C2016.95 1660.61 2015.95 1660.84 2015.27 1660.94C2014.58 1661.03 2013.64 1661.08 2012.45 1661.08C2009.55 1661.08 2007.44 1660.05 2006.12 1657.98C2005.44 1656.89 2004.95 1655.34 2004.67 1653.34C2002.95 1655.59 2000.48 1657.55 1997.27 1659.2C1994.05 1660.86 1990.5 1661.69 1986.62 1661.69C1981.97 1661.69 1978.16 1660.28 1975.19 1657.47C1972.25 1654.62 1970.78 1651.08 1970.78 1646.83C1970.78 1642.17 1972.23 1638.56 1975.14 1636C1978.05 1633.44 1981.86 1631.86 1986.58 1631.27L2000.03 1629.58ZM2057.92 1609.8H2067.25C2066.06 1613.02 2063.42 1620.36 2059.33 1631.83C2056.27 1640.45 2053.7 1647.48 2051.64 1652.92C2046.77 1665.73 2043.33 1673.55 2041.33 1676.36C2039.33 1679.17 2035.89 1680.58 2031.02 1680.58C2029.83 1680.58 2028.91 1680.53 2028.25 1680.44C2027.62 1680.34 2026.84 1680.17 2025.91 1679.92V1672.23C2027.38 1672.64 2028.44 1672.89 2029.09 1672.98C2029.75 1673.08 2030.33 1673.12 2030.83 1673.12C2032.39 1673.12 2033.53 1672.86 2034.25 1672.33C2035 1671.83 2035.62 1671.2 2036.12 1670.45C2036.28 1670.2 2036.84 1668.92 2037.81 1666.61C2038.78 1664.3 2039.48 1662.58 2039.92 1661.45L2021.36 1609.8H2030.92L2044.38 1650.67L2057.92 1609.8Z" fill="black"/>
<path d="M491.422 892.141V900.344H468.219V961H458.75V900.344H435.547V892.141H491.422ZM497.516 910.797L507.172 950.359L516.969 910.797H526.438L536.281 950.125L546.547 910.797H554.984L540.406 961H531.641L521.422 922.141L511.531 961H502.766L488.281 910.797H497.516ZM563 911.031H571.578V961H563V911.031ZM563 892.141H571.578V901.703H563V892.141ZM603.734 909.344C609.391 909.344 613.984 910.719 617.516 913.469C621.078 916.219 623.219 920.953 623.938 927.672H615.734C615.234 924.578 614.094 922.016 612.312 919.984C610.531 917.922 607.672 916.891 603.734 916.891C598.359 916.891 594.516 919.516 592.203 924.766C590.703 928.172 589.953 932.375 589.953 937.375C589.953 942.406 591.016 946.641 593.141 950.078C595.266 953.516 598.609 955.234 603.172 955.234C606.672 955.234 609.438 954.172 611.469 952.047C613.531 949.891 614.953 946.953 615.734 943.234H623.938C623 949.891 620.656 954.766 616.906 957.859C613.156 960.922 608.359 962.453 602.516 962.453C595.953 962.453 590.719 960.062 586.812 955.281C582.906 950.469 580.953 944.469 580.953 937.281C580.953 928.469 583.094 921.609 587.375 916.703C591.656 911.797 597.109 909.344 603.734 909.344ZM653.281 909.672C656.844 909.672 660.297 910.516 663.641 912.203C666.984 913.859 669.531 916.016 671.281 918.672C672.969 921.203 674.094 924.156 674.656 927.531C675.156 929.844 675.406 933.531 675.406 938.594H638.609C638.766 943.688 639.969 947.781 642.219 950.875C644.469 953.938 647.953 955.469 652.672 955.469C657.078 955.469 660.594 954.016 663.219 951.109C664.719 949.422 665.781 947.469 666.406 945.25H674.703C674.484 947.094 673.75 949.156 672.5 951.438C671.281 953.688 669.906 955.531 668.375 956.969C665.812 959.469 662.641 961.156 658.859 962.031C656.828 962.531 654.531 962.781 651.969 962.781C645.719 962.781 640.422 960.516 636.078 955.984C631.734 951.422 629.562 945.047 629.562 936.859C629.562 928.797 631.75 922.25 636.125 917.219C640.5 912.188 646.219 909.672 653.281 909.672ZM666.734 931.891C666.391 928.234 665.594 925.312 664.344 923.125C662.031 919.062 658.172 917.031 652.766 917.031C648.891 917.031 645.641 918.438 643.016 921.25C640.391 924.031 639 927.578 638.844 931.891H666.734ZM743.75 932.781L733.297 902.359L722.188 932.781H743.75ZM728.422 892.141H738.969L763.953 961H753.734L746.75 940.375H719.516L712.062 961H702.5L728.422 892.141ZM820.344 953.031C823.5 953.031 826.094 952.703 828.125 952.047C831.75 950.828 834.719 948.484 837.031 945.016C838.875 942.234 840.203 938.672 841.016 934.328C841.484 931.734 841.719 929.328 841.719 927.109C841.719 918.578 840.016 911.953 836.609 907.234C833.234 902.516 827.781 900.156 820.25 900.156H803.703V953.031H820.344ZM794.328 892.141H822.219C831.688 892.141 839.031 895.5 844.25 902.219C848.906 908.281 851.234 916.047 851.234 925.516C851.234 932.828 849.859 939.438 847.109 945.344C842.266 955.781 833.938 961 822.125 961H794.328V892.141ZM868.625 947.641C868.625 950.078 869.516 952 871.297 953.406C873.078 954.812 875.188 955.516 877.625 955.516C880.594 955.516 883.469 954.828 886.25 953.453C890.938 951.172 893.281 947.438 893.281 942.25V935.453C892.25 936.109 890.922 936.656 889.297 937.094C887.672 937.531 886.078 937.844 884.516 938.031L879.406 938.688C876.344 939.094 874.047 939.734 872.516 940.609C869.922 942.078 868.625 944.422 868.625 947.641ZM889.062 930.578C891 930.328 892.297 929.516 892.953 928.141C893.328 927.391 893.516 926.312 893.516 924.906C893.516 922.031 892.484 919.953 890.422 918.672C888.391 917.359 885.469 916.703 881.656 916.703C877.25 916.703 874.125 917.891 872.281 920.266C871.25 921.578 870.578 923.531 870.266 926.125H862.391C862.547 919.938 864.547 915.641 868.391 913.234C872.266 910.797 876.75 909.578 881.844 909.578C887.75 909.578 892.547 910.703 896.234 912.953C899.891 915.203 901.719 918.703 901.719 923.453V952.375C901.719 953.25 901.891 953.953 902.234 954.484C902.609 955.016 903.375 955.281 904.531 955.281C904.906 955.281 905.328 955.266 905.797 955.234C906.266 955.172 906.766 955.094 907.297 955V961.234C905.984 961.609 904.984 961.844 904.297 961.938C903.609 962.031 902.672 962.078 901.484 962.078C898.578 962.078 896.469 961.047 895.156 958.984C894.469 957.891 893.984 956.344 893.703 954.344C891.984 956.594 889.516 958.547 886.297 960.203C883.078 961.859 879.531 962.688 875.656 962.688C871 962.688 867.188 961.281 864.219 958.469C861.281 955.625 859.812 952.078 859.812 947.828C859.812 943.172 861.266 939.562 864.172 937C867.078 934.438 870.891 932.859 875.609 932.266L889.062 930.578ZM946.953 910.797H956.281C955.094 914.016 952.453 921.359 948.359 932.828C945.297 941.453 942.734 948.484 940.672 953.922C935.797 966.734 932.359 974.547 930.359 977.359C928.359 980.172 924.922 981.578 920.047 981.578C918.859 981.578 917.938 981.531 917.281 981.438C916.656 981.344 915.875 981.172 914.938 980.922V973.234C916.406 973.641 917.469 973.891 918.125 973.984C918.781 974.078 919.359 974.125 919.859 974.125C921.422 974.125 922.562 973.859 923.281 973.328C924.031 972.828 924.656 972.203 925.156 971.453C925.312 971.203 925.875 969.922 926.844 967.609C927.812 965.297 928.516 963.578 928.953 962.453L910.391 910.797H919.953L933.406 951.672L946.953 910.797Z" fill="black"/>
<path d="M1089.31 204.141H1100.33L1135.11 259.922V204.141H1143.97V273H1133.52L1098.22 217.266V273H1089.31V204.141ZM1178.47 221.672C1182.03 221.672 1185.48 222.516 1188.83 224.203C1192.17 225.859 1194.72 228.016 1196.47 230.672C1198.16 233.203 1199.28 236.156 1199.84 239.531C1200.34 241.844 1200.59 245.531 1200.59 250.594H1163.8C1163.95 255.688 1165.16 259.781 1167.41 262.875C1169.66 265.938 1173.14 267.469 1177.86 267.469C1182.27 267.469 1185.78 266.016 1188.41 263.109C1189.91 261.422 1190.97 259.469 1191.59 257.25H1199.89C1199.67 259.094 1198.94 261.156 1197.69 263.438C1196.47 265.688 1195.09 267.531 1193.56 268.969C1191 271.469 1187.83 273.156 1184.05 274.031C1182.02 274.531 1179.72 274.781 1177.16 274.781C1170.91 274.781 1165.61 272.516 1161.27 267.984C1156.92 263.422 1154.75 257.047 1154.75 248.859C1154.75 240.797 1156.94 234.25 1161.31 229.219C1165.69 224.188 1171.41 221.672 1178.47 221.672ZM1191.92 243.891C1191.58 240.234 1190.78 237.312 1189.53 235.125C1187.22 231.062 1183.36 229.031 1177.95 229.031C1174.08 229.031 1170.83 230.438 1168.2 233.25C1165.58 236.031 1164.19 239.578 1164.03 243.891H1191.92ZM1215.12 222.797L1228.53 263.672L1242.55 222.797H1251.78L1232.84 273H1223.84L1205.33 222.797H1215.12ZM1279.91 221.672C1283.47 221.672 1286.92 222.516 1290.27 224.203C1293.61 225.859 1296.16 228.016 1297.91 230.672C1299.59 233.203 1300.72 236.156 1301.28 239.531C1301.78 241.844 1302.03 245.531 1302.03 250.594H1265.23C1265.39 255.688 1266.59 259.781 1268.84 262.875C1271.09 265.938 1274.58 267.469 1279.3 267.469C1283.7 267.469 1287.22 266.016 1289.84 263.109C1291.34 261.422 1292.41 259.469 1293.03 257.25H1301.33C1301.11 259.094 1300.38 261.156 1299.12 263.438C1297.91 265.688 1296.53 267.531 1295 268.969C1292.44 271.469 1289.27 273.156 1285.48 274.031C1283.45 274.531 1281.16 274.781 1278.59 274.781C1272.34 274.781 1267.05 272.516 1262.7 267.984C1258.36 263.422 1256.19 257.047 1256.19 248.859C1256.19 240.797 1258.38 234.25 1262.75 229.219C1267.12 224.188 1272.84 221.672 1279.91 221.672ZM1293.36 243.891C1293.02 240.234 1292.22 237.312 1290.97 235.125C1288.66 231.062 1284.8 229.031 1279.39 229.031C1275.52 229.031 1272.27 230.438 1269.64 233.25C1267.02 236.031 1265.62 239.578 1265.47 243.891H1293.36ZM1312.67 222.797H1320.69V231.469C1321.34 229.781 1322.95 227.734 1325.52 225.328C1328.08 222.891 1331.03 221.672 1334.38 221.672C1334.53 221.672 1334.8 221.688 1335.17 221.719C1335.55 221.75 1336.19 221.812 1337.09 221.906V230.812C1336.59 230.719 1336.12 230.656 1335.69 230.625C1335.28 230.594 1334.83 230.578 1334.33 230.578C1330.08 230.578 1326.81 231.953 1324.53 234.703C1322.25 237.422 1321.11 240.562 1321.11 244.125V273H1312.67V222.797Z" fill="black"/>
</svg>
