<svg width="2632" height="2899" viewBox="0 0 2632 2899" fill="none" xmlns="http://www.w3.org/2000/svg">
<path d="M1347.04 1284.83V1C2056.15 1 2631 575.789 2631 1284.83C2631 1419.55 2609.79 1553.43 2568.16 1681.55L1347.04 1284.83Z" fill="#5E3FBE" stroke="white"/>
<path d="M1347.03 1284.83L2568.15 1681.55C2349.02 2355.89 1624.67 2724.92 950.27 2505.82C822.132 2464.19 701.345 2402.65 592.344 2323.46L1347.03 1284.83Z" fill="#F4F0FD" stroke="white"/>
<path d="M1347.04 1284.83L592.353 2323.47C142.343 1996.55 -45.9598 1417.07 125.929 888.106L1347.04 1284.83Z" fill="#E5DAFB" stroke="white"/>
<path d="M1347.03 1284.83L125.919 888.102C297.808 359.137 790.79 1 1347.03 1V1284.83Z" fill="#CBB6F8" stroke="white"/>
<path d="M37.4062 2868.74C25.5 2868.74 16.8516 2865.48 11.4609 2858.97C6.11719 2852.41 3.44531 2844.44 3.44531 2835.06H16.6641C17.2266 2841.58 18.4453 2846.31 20.3203 2849.27C23.6016 2854.56 29.5312 2857.21 38.1094 2857.21C44.7656 2857.21 50.1094 2855.43 54.1406 2851.87C58.1719 2848.3 60.1875 2843.71 60.1875 2838.09C60.1875 2831.15 58.0547 2826.3 53.7891 2823.53C49.5703 2820.77 43.6875 2819.38 36.1406 2819.38C35.2969 2819.38 34.4297 2819.41 33.5391 2819.45C32.6953 2819.45 31.8281 2819.48 30.9375 2819.52V2808.34C32.25 2808.48 33.3516 2808.58 34.2422 2808.62C35.1328 2808.67 36.0938 2808.7 37.125 2808.7C41.8594 2808.7 45.75 2807.95 48.7969 2806.45C54.1406 2803.82 56.8125 2799.13 56.8125 2792.38C56.8125 2787.37 55.0312 2783.5 51.4688 2780.78C47.9062 2778.06 43.7578 2776.7 39.0234 2776.7C30.5859 2776.7 24.75 2779.52 21.5156 2785.14C19.7344 2788.23 18.7266 2792.64 18.4922 2798.36H5.97656C5.97656 2790.86 7.47656 2784.48 10.4766 2779.23C15.6328 2769.86 24.7031 2765.17 37.6875 2765.17C47.9531 2765.17 55.8984 2767.47 61.5234 2772.06C67.1484 2776.61 69.9609 2783.22 69.9609 2791.89C69.9609 2798.08 68.2969 2803.09 64.9688 2806.94C62.9062 2809.33 60.2344 2811.2 56.9531 2812.56C62.25 2814.02 66.375 2816.83 69.3281 2821C72.3281 2825.12 73.8281 2830.19 73.8281 2836.19C73.8281 2845.8 70.6641 2853.62 64.3359 2859.67C58.0078 2865.72 49.0312 2868.74 37.4062 2868.74ZM119.109 2765.31C132.141 2765.31 141.562 2770.68 147.375 2781.41C151.875 2789.71 154.125 2801.08 154.125 2815.52C154.125 2829.2 152.086 2840.52 148.008 2849.48C142.102 2862.32 132.445 2868.74 119.039 2868.74C106.945 2868.74 97.9453 2863.49 92.0391 2852.99C87.1172 2844.23 84.6562 2832.46 84.6562 2817.7C84.6562 2806.26 86.1328 2796.44 89.0859 2788.23C94.6172 2772.95 104.625 2765.31 119.109 2765.31ZM118.969 2857.21C125.531 2857.21 130.758 2854.3 134.648 2848.49C138.539 2842.68 140.484 2831.85 140.484 2816.01C140.484 2804.57 139.078 2795.17 136.266 2787.81C133.453 2780.41 127.992 2776.7 119.883 2776.7C112.43 2776.7 106.969 2780.22 103.5 2787.25C100.078 2794.23 98.3672 2804.55 98.3672 2818.19C98.3672 2828.45 99.4688 2836.7 101.672 2842.94C105.047 2852.45 110.812 2857.21 118.969 2857.21ZM258.469 2817.06C265.219 2817.06 270.984 2819.45 275.766 2824.23C280.547 2829.02 282.938 2834.78 282.938 2841.53C282.938 2848.28 280.547 2854.05 275.766 2858.83C270.984 2863.61 265.219 2866 258.469 2866C251.672 2866 245.883 2863.61 241.102 2858.83C236.32 2854.05 233.93 2848.28 233.93 2841.53C233.93 2834.78 236.32 2829.02 241.102 2824.23C245.883 2819.45 251.672 2817.06 258.469 2817.06ZM248.273 2765.73H256.078L199.758 2868.67H191.953L248.273 2765.73ZM189.422 2807.36C193.453 2807.36 196.875 2805.95 199.688 2803.14C202.547 2800.28 203.977 2796.86 203.977 2792.88C203.977 2788.89 202.547 2785.49 199.688 2782.68C196.875 2779.82 193.453 2778.39 189.422 2778.39C185.438 2778.39 182.016 2779.8 179.156 2782.61C176.344 2785.42 174.938 2788.84 174.938 2792.88C174.938 2796.86 176.344 2800.28 179.156 2803.14C182.016 2805.95 185.438 2807.36 189.422 2807.36ZM189.422 2768.34C196.219 2768.34 202.008 2770.75 206.789 2775.58C211.57 2780.36 213.961 2786.12 213.961 2792.88C213.961 2799.62 211.57 2805.39 206.789 2810.17C202.008 2814.95 196.219 2817.34 189.422 2817.34C182.672 2817.34 176.906 2814.95 172.125 2810.17C167.344 2805.39 164.953 2799.62 164.953 2792.88C164.953 2786.12 167.344 2780.36 172.125 2775.58C176.906 2770.75 182.672 2768.34 189.422 2768.34ZM258.469 2856.02C262.453 2856.02 265.852 2854.61 268.664 2851.8C271.523 2848.94 272.953 2845.52 272.953 2841.53C272.953 2837.55 271.523 2834.15 268.664 2831.34C265.852 2828.48 262.453 2827.05 258.469 2827.05C254.438 2827.05 250.992 2828.48 248.133 2831.34C245.32 2834.15 243.914 2837.55 243.914 2841.53C243.914 2845.52 245.32 2848.94 248.133 2851.8C250.992 2854.61 254.438 2856.02 258.469 2856.02ZM339.82 2762.71H353.953V2805.39H407.672V2762.71H421.805V2866H407.672V2817.7H353.953V2866H339.82V2762.71ZM451.547 2845.96C451.547 2849.62 452.883 2852.5 455.555 2854.61C458.227 2856.72 461.391 2857.77 465.047 2857.77C469.5 2857.77 473.812 2856.74 477.984 2854.68C485.016 2851.26 488.531 2845.66 488.531 2837.88V2827.68C486.984 2828.66 484.992 2829.48 482.555 2830.14C480.117 2830.8 477.727 2831.27 475.383 2831.55L467.719 2832.53C463.125 2833.14 459.68 2834.1 457.383 2835.41C453.492 2837.62 451.547 2841.13 451.547 2845.96ZM482.203 2820.37C485.109 2819.99 487.055 2818.77 488.039 2816.71C488.602 2815.59 488.883 2813.97 488.883 2811.86C488.883 2807.55 487.336 2804.43 484.242 2802.51C481.195 2800.54 476.812 2799.55 471.094 2799.55C464.484 2799.55 459.797 2801.34 457.031 2804.9C455.484 2806.87 454.477 2809.8 454.008 2813.69H442.195C442.43 2804.41 445.43 2797.96 451.195 2794.35C457.008 2790.7 463.734 2788.87 471.375 2788.87C480.234 2788.87 487.43 2790.55 492.961 2793.93C498.445 2797.3 501.188 2802.55 501.188 2809.68V2853.06C501.188 2854.38 501.445 2855.43 501.961 2856.23C502.523 2857.02 503.672 2857.42 505.406 2857.42C505.969 2857.42 506.602 2857.4 507.305 2857.35C508.008 2857.26 508.758 2857.14 509.555 2857V2866.35C507.586 2866.91 506.086 2867.27 505.055 2867.41C504.023 2867.55 502.617 2867.62 500.836 2867.62C496.477 2867.62 493.312 2866.07 491.344 2862.98C490.312 2861.34 489.586 2859.02 489.164 2856.02C486.586 2859.39 482.883 2862.32 478.055 2864.8C473.227 2867.29 467.906 2868.53 462.094 2868.53C455.109 2868.53 449.391 2866.42 444.938 2862.2C440.531 2857.94 438.328 2852.62 438.328 2846.24C438.328 2839.26 440.508 2833.84 444.867 2830C449.227 2826.16 454.945 2823.79 462.023 2822.9L482.203 2820.37ZM528.188 2790.7L548.297 2852.01L569.32 2790.7H583.172L554.766 2866H541.266L513.492 2790.7H528.188ZM625.359 2789.01C630.703 2789.01 635.883 2790.27 640.898 2792.8C645.914 2795.29 649.734 2798.52 652.359 2802.51C654.891 2806.3 656.578 2810.73 657.422 2815.8C658.172 2819.27 658.547 2824.8 658.547 2832.39H603.352C603.586 2840.03 605.391 2846.17 608.766 2850.81C612.141 2855.41 617.367 2857.7 624.445 2857.7C631.055 2857.7 636.328 2855.52 640.266 2851.16C642.516 2848.63 644.109 2845.7 645.047 2842.38H657.492C657.164 2845.14 656.062 2848.23 654.188 2851.66C652.359 2855.03 650.297 2857.8 648 2859.95C644.156 2863.7 639.398 2866.23 633.727 2867.55C630.68 2868.3 627.234 2868.67 623.391 2868.67C614.016 2868.67 606.07 2865.27 599.555 2858.48C593.039 2851.63 589.781 2842.07 589.781 2829.79C589.781 2817.7 593.062 2807.88 599.625 2800.33C606.188 2792.78 614.766 2789.01 625.359 2789.01ZM645.539 2822.34C645.023 2816.85 643.828 2812.47 641.953 2809.19C638.484 2803.09 632.695 2800.05 624.586 2800.05C618.773 2800.05 613.898 2802.16 609.961 2806.38C606.023 2810.55 603.938 2815.87 603.703 2822.34H645.539ZM788.555 2762.71V2775.02H753.75V2866H739.547V2775.02H704.742V2762.71H788.555ZM794.742 2790.7H806.766V2803.7C807.75 2801.17 810.164 2798.1 814.008 2794.49C817.852 2790.84 822.281 2789.01 827.297 2789.01C827.531 2789.01 827.93 2789.03 828.492 2789.08C829.055 2789.12 830.016 2789.22 831.375 2789.36V2802.72C830.625 2802.58 829.922 2802.48 829.266 2802.44C828.656 2802.39 827.977 2802.37 827.227 2802.37C820.852 2802.37 815.953 2804.43 812.531 2808.55C809.109 2812.63 807.398 2817.34 807.398 2822.69V2866H794.742V2790.7ZM842.344 2791.05H855.211V2866H842.344V2791.05ZM842.344 2762.71H855.211V2777.05H842.344V2762.71ZM905.766 2789.01C911.109 2789.01 916.289 2790.27 921.305 2792.8C926.32 2795.29 930.141 2798.52 932.766 2802.51C935.297 2806.3 936.984 2810.73 937.828 2815.8C938.578 2819.27 938.953 2824.8 938.953 2832.39H883.758C883.992 2840.03 885.797 2846.17 889.172 2850.81C892.547 2855.41 897.773 2857.7 904.852 2857.7C911.461 2857.7 916.734 2855.52 920.672 2851.16C922.922 2848.63 924.516 2845.7 925.453 2842.38H937.898C937.57 2845.14 936.469 2848.23 934.594 2851.66C932.766 2855.03 930.703 2857.8 928.406 2859.95C924.562 2863.7 919.805 2866.23 914.133 2867.55C911.086 2868.3 907.641 2868.67 903.797 2868.67C894.422 2868.67 886.477 2865.27 879.961 2858.48C873.445 2851.63 870.188 2842.07 870.188 2829.79C870.188 2817.7 873.469 2807.88 880.031 2800.33C886.594 2792.78 895.172 2789.01 905.766 2789.01ZM925.945 2822.34C925.43 2816.85 924.234 2812.47 922.359 2809.19C918.891 2803.09 913.102 2800.05 904.992 2800.05C899.18 2800.05 894.305 2802.16 890.367 2806.38C886.43 2810.55 884.344 2815.87 884.109 2822.34H925.945ZM962.578 2829.23C962.578 2837.29 964.289 2844.04 967.711 2849.48C971.133 2854.91 976.617 2857.63 984.164 2857.63C990.023 2857.63 994.828 2855.12 998.578 2850.11C1002.38 2845.05 1004.27 2837.8 1004.27 2828.38C1004.27 2818.87 1002.33 2811.84 998.438 2807.29C994.547 2802.7 989.742 2800.4 984.023 2800.4C977.648 2800.4 972.469 2802.84 968.484 2807.71C964.547 2812.59 962.578 2819.76 962.578 2829.23ZM981.633 2789.36C987.398 2789.36 992.227 2790.58 996.117 2793.02C998.367 2794.42 1000.92 2796.88 1003.78 2800.4V2762.36H1015.95V2866H1004.55V2855.52C1001.6 2860.16 998.109 2863.52 994.078 2865.58C990.047 2867.64 985.43 2868.67 980.227 2868.67C971.836 2868.67 964.57 2865.16 958.43 2858.12C952.289 2851.05 949.219 2841.65 949.219 2829.93C949.219 2818.96 952.008 2809.47 957.586 2801.45C963.211 2793.39 971.227 2789.36 981.633 2789.36ZM1076.13 2762.71H1096.17L1125.84 2850.04L1155.3 2762.71H1175.13V2866H1161.84V2805.04C1161.84 2802.93 1161.89 2799.44 1161.98 2794.56C1162.08 2789.69 1162.12 2784.46 1162.12 2778.88L1132.66 2866H1118.81L1089.14 2778.88V2782.05C1089.14 2784.58 1089.19 2788.45 1089.28 2793.65C1089.42 2798.8 1089.49 2802.6 1089.49 2805.04V2866H1076.13V2762.71ZM1224.63 2857.84C1233.02 2857.84 1238.77 2854.68 1241.86 2848.35C1245 2841.98 1246.57 2834.9 1246.57 2827.12C1246.57 2820.09 1245.45 2814.37 1243.2 2809.96C1239.63 2803.02 1233.49 2799.55 1224.77 2799.55C1217.04 2799.55 1211.41 2802.51 1207.9 2808.41C1204.38 2814.32 1202.62 2821.45 1202.62 2829.79C1202.62 2837.8 1204.38 2844.48 1207.9 2849.83C1211.41 2855.17 1216.99 2857.84 1224.63 2857.84ZM1225.12 2788.52C1234.83 2788.52 1243.03 2791.75 1249.73 2798.22C1256.44 2804.69 1259.79 2814.2 1259.79 2826.77C1259.79 2838.91 1256.84 2848.94 1250.93 2856.86C1245.02 2864.78 1235.86 2868.74 1223.44 2868.74C1213.08 2868.74 1204.85 2865.25 1198.76 2858.27C1192.66 2851.23 1189.62 2841.81 1189.62 2830C1189.62 2817.34 1192.83 2807.27 1199.25 2799.77C1205.67 2792.27 1214.3 2788.52 1225.12 2788.52ZM1275.26 2790.7H1287.28V2803.7C1288.27 2801.17 1290.68 2798.1 1294.52 2794.49C1298.37 2790.84 1302.8 2789.01 1307.81 2789.01C1308.05 2789.01 1308.45 2789.03 1309.01 2789.08C1309.57 2789.12 1310.53 2789.22 1311.89 2789.36V2802.72C1311.14 2802.58 1310.44 2802.48 1309.78 2802.44C1309.17 2802.39 1308.49 2802.37 1307.74 2802.37C1301.37 2802.37 1296.47 2804.43 1293.05 2808.55C1289.62 2812.63 1287.91 2817.34 1287.91 2822.69V2866H1275.26V2790.7ZM1354.22 2789.01C1359.56 2789.01 1364.74 2790.27 1369.76 2792.8C1374.77 2795.29 1378.59 2798.52 1381.22 2802.51C1383.75 2806.3 1385.44 2810.73 1386.28 2815.8C1387.03 2819.27 1387.41 2824.8 1387.41 2832.39H1332.21C1332.45 2840.03 1334.25 2846.17 1337.62 2850.81C1341 2855.41 1346.23 2857.7 1353.3 2857.7C1359.91 2857.7 1365.19 2855.52 1369.12 2851.16C1371.38 2848.63 1372.97 2845.7 1373.91 2842.38H1386.35C1386.02 2845.14 1384.92 2848.23 1383.05 2851.66C1381.22 2855.03 1379.16 2857.8 1376.86 2859.95C1373.02 2863.7 1368.26 2866.23 1362.59 2867.55C1359.54 2868.3 1356.09 2868.67 1352.25 2868.67C1342.88 2868.67 1334.93 2865.27 1328.41 2858.48C1321.9 2851.63 1318.64 2842.07 1318.64 2829.79C1318.64 2817.7 1321.92 2807.88 1328.48 2800.33C1335.05 2792.78 1343.62 2789.01 1354.22 2789.01ZM1374.4 2822.34C1373.88 2816.85 1372.69 2812.47 1370.81 2809.19C1367.34 2803.09 1361.55 2800.05 1353.45 2800.05C1347.63 2800.05 1342.76 2802.16 1338.82 2806.38C1334.88 2810.55 1332.8 2815.87 1332.56 2822.34H1374.4ZM1517.41 2762.71V2775.02H1482.61V2866H1468.41V2775.02H1433.6V2762.71H1517.41ZM1528.59 2762.36H1541.25V2800.89C1544.25 2797.09 1546.95 2794.42 1549.34 2792.88C1553.41 2790.2 1558.5 2788.87 1564.59 2788.87C1575.52 2788.87 1582.92 2792.69 1586.81 2800.33C1588.92 2804.5 1589.98 2810.29 1589.98 2817.7V2866H1576.97V2818.54C1576.97 2813.01 1576.27 2808.95 1574.86 2806.38C1572.56 2802.25 1568.25 2800.19 1561.92 2800.19C1556.67 2800.19 1551.91 2801.99 1547.65 2805.6C1543.38 2809.21 1541.25 2816.03 1541.25 2826.06V2866H1528.59V2762.36ZM1618.45 2845.96C1618.45 2849.62 1619.79 2852.5 1622.46 2854.61C1625.13 2856.72 1628.3 2857.77 1631.95 2857.77C1636.41 2857.77 1640.72 2856.74 1644.89 2854.68C1651.92 2851.26 1655.44 2845.66 1655.44 2837.88V2827.68C1653.89 2828.66 1651.9 2829.48 1649.46 2830.14C1647.02 2830.8 1644.63 2831.27 1642.29 2831.55L1634.62 2832.53C1630.03 2833.14 1626.59 2834.1 1624.29 2835.41C1620.4 2837.62 1618.45 2841.13 1618.45 2845.96ZM1649.11 2820.37C1652.02 2819.99 1653.96 2818.77 1654.95 2816.71C1655.51 2815.59 1655.79 2813.97 1655.79 2811.86C1655.79 2807.55 1654.24 2804.43 1651.15 2802.51C1648.1 2800.54 1643.72 2799.55 1638 2799.55C1631.39 2799.55 1626.7 2801.34 1623.94 2804.9C1622.39 2806.87 1621.38 2809.8 1620.91 2813.69H1609.1C1609.34 2804.41 1612.34 2797.96 1618.1 2794.35C1623.91 2790.7 1630.64 2788.87 1638.28 2788.87C1647.14 2788.87 1654.34 2790.55 1659.87 2793.93C1665.35 2797.3 1668.09 2802.55 1668.09 2809.68V2853.06C1668.09 2854.38 1668.35 2855.43 1668.87 2856.23C1669.43 2857.02 1670.58 2857.42 1672.31 2857.42C1672.88 2857.42 1673.51 2857.4 1674.21 2857.35C1674.91 2857.26 1675.66 2857.14 1676.46 2857V2866.35C1674.49 2866.91 1672.99 2867.27 1671.96 2867.41C1670.93 2867.55 1669.52 2867.62 1667.74 2867.62C1663.38 2867.62 1660.22 2866.07 1658.25 2862.98C1657.22 2861.34 1656.49 2859.02 1656.07 2856.02C1653.49 2859.39 1649.79 2862.32 1644.96 2864.8C1640.13 2867.29 1634.81 2868.53 1629 2868.53C1622.02 2868.53 1616.3 2866.42 1611.84 2862.2C1607.44 2857.94 1605.23 2852.62 1605.23 2846.24C1605.23 2839.26 1607.41 2833.84 1611.77 2830C1616.13 2826.16 1621.85 2823.79 1628.93 2822.9L1649.11 2820.37ZM1688.91 2790.7H1700.93V2801.38C1704.49 2796.98 1708.27 2793.81 1712.25 2791.89C1716.23 2789.97 1720.66 2789.01 1725.54 2789.01C1736.23 2789.01 1743.45 2792.73 1747.2 2800.19C1749.26 2804.27 1750.29 2810.1 1750.29 2817.7V2866H1737.42V2818.54C1737.42 2813.95 1736.74 2810.24 1735.38 2807.43C1733.13 2802.74 1729.05 2800.4 1723.15 2800.4C1720.15 2800.4 1717.69 2800.7 1715.77 2801.31C1712.3 2802.34 1709.25 2804.41 1706.62 2807.5C1704.52 2809.98 1703.13 2812.56 1702.48 2815.23C1701.87 2817.86 1701.56 2821.63 1701.56 2826.55V2866H1688.91V2790.7ZM1817.65 2840.34C1818.49 2847.55 1821.84 2852.55 1827.7 2855.31C1830.7 2856.72 1834.17 2857.42 1838.11 2857.42C1845.61 2857.42 1851.16 2855.03 1854.77 2850.25C1858.38 2845.47 1860.19 2840.17 1860.19 2834.36C1860.19 2827.33 1858.03 2821.89 1853.72 2818.05C1849.45 2814.2 1844.32 2812.28 1838.32 2812.28C1833.96 2812.28 1830.21 2813.12 1827.07 2814.81C1823.98 2816.5 1821.33 2818.84 1819.12 2821.84L1808.16 2821.21L1815.82 2767H1868.13V2779.23H1825.31L1821.02 2807.22C1823.37 2805.44 1825.59 2804.1 1827.7 2803.21C1831.45 2801.66 1835.79 2800.89 1840.71 2800.89C1849.95 2800.89 1857.77 2803.87 1864.2 2809.82C1870.62 2815.77 1873.83 2823.32 1873.83 2832.46C1873.83 2841.98 1870.88 2850.37 1864.97 2857.63C1859.11 2864.9 1849.73 2868.53 1836.84 2868.53C1828.64 2868.53 1821.38 2866.23 1815.05 2861.64C1808.77 2857 1805.25 2849.9 1804.5 2840.34H1817.65ZM1918.97 2765.31C1932 2765.31 1941.42 2770.68 1947.23 2781.41C1951.73 2789.71 1953.98 2801.08 1953.98 2815.52C1953.98 2829.2 1951.95 2840.52 1947.87 2849.48C1941.96 2862.32 1932.3 2868.74 1918.9 2868.74C1906.8 2868.74 1897.8 2863.49 1891.9 2852.99C1886.98 2844.23 1884.52 2832.46 1884.52 2817.7C1884.52 2806.26 1885.99 2796.44 1888.95 2788.23C1894.48 2772.95 1904.48 2765.31 1918.97 2765.31ZM1918.83 2857.21C1925.39 2857.21 1930.62 2854.3 1934.51 2848.49C1938.4 2842.68 1940.34 2831.85 1940.34 2816.01C1940.34 2804.57 1938.94 2795.17 1936.12 2787.81C1933.31 2780.41 1927.85 2776.7 1919.74 2776.7C1912.29 2776.7 1906.83 2780.22 1903.36 2787.25C1899.94 2794.23 1898.23 2804.55 1898.23 2818.19C1898.23 2828.45 1899.33 2836.7 1901.53 2842.94C1904.91 2852.45 1910.67 2857.21 1918.83 2857.21ZM2012.55 2762.71H2059.03C2068.22 2762.71 2075.62 2765.31 2081.25 2770.52C2086.88 2775.67 2089.69 2782.94 2089.69 2792.31C2089.69 2800.38 2087.18 2807.41 2082.16 2813.41C2077.15 2819.36 2069.44 2822.34 2059.03 2822.34H2026.55V2866H2012.55V2762.71ZM2075.55 2792.38C2075.55 2784.79 2072.74 2779.63 2067.12 2776.91C2064.02 2775.46 2059.78 2774.73 2054.39 2774.73H2026.55V2810.52H2054.39C2060.67 2810.52 2065.76 2809.19 2069.65 2806.52C2073.59 2803.84 2075.55 2799.13 2075.55 2792.38ZM2105.93 2790.7H2117.95V2803.7C2118.94 2801.17 2121.35 2798.1 2125.2 2794.49C2129.04 2790.84 2133.47 2789.01 2138.48 2789.01C2138.72 2789.01 2139.12 2789.03 2139.68 2789.08C2140.24 2789.12 2141.2 2789.22 2142.56 2789.36V2802.72C2141.81 2802.58 2141.11 2802.48 2140.45 2802.44C2139.84 2802.39 2139.16 2802.37 2138.41 2802.37C2132.04 2802.37 2127.14 2804.43 2123.72 2808.55C2120.3 2812.63 2118.59 2817.34 2118.59 2822.69V2866H2105.93V2790.7ZM2183.41 2857.84C2191.8 2857.84 2197.55 2854.68 2200.64 2848.35C2203.78 2841.98 2205.35 2834.9 2205.35 2827.12C2205.35 2820.09 2204.23 2814.37 2201.98 2809.96C2198.41 2803.02 2192.27 2799.55 2183.55 2799.55C2175.82 2799.55 2170.2 2802.51 2166.68 2808.41C2163.16 2814.32 2161.41 2821.45 2161.41 2829.79C2161.41 2837.8 2163.16 2844.48 2166.68 2849.83C2170.2 2855.17 2175.77 2857.84 2183.41 2857.84ZM2183.91 2788.52C2193.61 2788.52 2201.81 2791.75 2208.52 2798.22C2215.22 2804.69 2218.57 2814.2 2218.57 2826.77C2218.57 2838.91 2215.62 2848.94 2209.71 2856.86C2203.8 2864.78 2194.64 2868.74 2182.22 2868.74C2171.86 2868.74 2163.63 2865.25 2157.54 2858.27C2151.45 2851.23 2148.4 2841.81 2148.4 2830C2148.4 2817.34 2151.61 2807.27 2158.03 2799.77C2164.45 2792.27 2173.08 2788.52 2183.91 2788.52ZM2241.7 2829.23C2241.7 2837.29 2243.41 2844.04 2246.84 2849.48C2250.26 2854.91 2255.74 2857.63 2263.29 2857.63C2269.15 2857.63 2273.95 2855.12 2277.7 2850.11C2281.5 2845.05 2283.4 2837.8 2283.4 2828.38C2283.4 2818.87 2281.45 2811.84 2277.56 2807.29C2273.67 2802.7 2268.87 2800.4 2263.15 2800.4C2256.77 2800.4 2251.59 2802.84 2247.61 2807.71C2243.67 2812.59 2241.7 2819.76 2241.7 2829.23ZM2260.76 2789.36C2266.52 2789.36 2271.35 2790.58 2275.24 2793.02C2277.49 2794.42 2280.05 2796.88 2282.91 2800.4V2762.36H2295.07V2866H2283.68V2855.52C2280.73 2860.16 2277.23 2863.52 2273.2 2865.58C2269.17 2867.64 2264.55 2868.67 2259.35 2868.67C2250.96 2868.67 2243.7 2865.16 2237.55 2858.12C2231.41 2851.05 2228.34 2841.65 2228.34 2829.93C2228.34 2818.96 2231.13 2809.47 2236.71 2801.45C2242.34 2793.39 2250.35 2789.36 2260.76 2789.36ZM2326.5 2790.7V2840.69C2326.5 2844.53 2327.11 2847.67 2328.33 2850.11C2330.58 2854.61 2334.77 2856.86 2340.91 2856.86C2349.73 2856.86 2355.73 2852.92 2358.91 2845.05C2360.65 2840.83 2361.52 2835.04 2361.52 2827.68V2790.7H2374.17V2866H2362.22L2362.36 2854.89C2360.72 2857.75 2358.68 2860.16 2356.24 2862.13C2351.41 2866.07 2345.55 2868.04 2338.66 2868.04C2327.93 2868.04 2320.62 2864.45 2316.73 2857.28C2314.62 2853.44 2313.56 2848.3 2313.56 2841.88V2790.7H2326.5ZM2423.04 2788.52C2431.52 2788.52 2438.41 2790.58 2443.71 2794.7C2449.05 2798.83 2452.27 2805.93 2453.34 2816.01H2441.04C2440.29 2811.37 2438.58 2807.52 2435.91 2804.48C2433.23 2801.38 2428.95 2799.84 2423.04 2799.84C2414.98 2799.84 2409.21 2803.77 2405.74 2811.65C2403.49 2816.76 2402.37 2823.06 2402.37 2830.56C2402.37 2838.11 2403.96 2844.46 2407.15 2849.62C2410.34 2854.77 2415.35 2857.35 2422.2 2857.35C2427.45 2857.35 2431.59 2855.76 2434.64 2852.57C2437.73 2849.34 2439.87 2844.93 2441.04 2839.35H2453.34C2451.94 2849.34 2448.42 2856.65 2442.8 2861.29C2437.17 2865.88 2429.98 2868.18 2421.21 2868.18C2411.37 2868.18 2403.52 2864.59 2397.66 2857.42C2391.8 2850.2 2388.87 2841.2 2388.87 2830.42C2388.87 2817.2 2392.08 2806.91 2398.5 2799.55C2404.92 2792.2 2413.1 2788.52 2423.04 2788.52ZM2468.53 2769.67H2481.33V2790.7H2493.35V2801.03H2481.33V2850.18C2481.33 2852.8 2482.22 2854.56 2484 2855.45C2484.98 2855.97 2486.62 2856.23 2488.92 2856.23C2489.53 2856.23 2490.19 2856.23 2490.89 2856.23C2491.59 2856.18 2492.41 2856.11 2493.35 2856.02V2866C2491.9 2866.42 2490.38 2866.73 2488.78 2866.91C2487.23 2867.1 2485.55 2867.2 2483.72 2867.2C2477.81 2867.2 2473.8 2865.7 2471.7 2862.7C2469.59 2859.65 2468.53 2855.71 2468.53 2850.88V2801.03H2458.34V2790.7H2468.53V2769.67ZM2513.6 2842.38C2513.98 2846.59 2515.03 2849.83 2516.77 2852.08C2519.95 2856.16 2525.48 2858.2 2533.36 2858.2C2538.05 2858.2 2542.17 2857.19 2545.73 2855.17C2549.3 2853.11 2551.08 2849.95 2551.08 2845.68C2551.08 2842.45 2549.65 2839.98 2546.79 2838.3C2544.96 2837.27 2541.35 2836.07 2535.96 2834.71L2525.91 2832.18C2519.48 2830.59 2514.75 2828.8 2511.7 2826.84C2506.27 2823.41 2503.55 2818.68 2503.55 2812.63C2503.55 2805.51 2506.1 2799.74 2511.21 2795.34C2516.37 2790.93 2523.28 2788.73 2531.95 2788.73C2543.3 2788.73 2551.48 2792.05 2556.49 2798.71C2559.63 2802.93 2561.16 2807.48 2561.06 2812.35H2549.11C2548.88 2809.49 2547.87 2806.89 2546.09 2804.55C2543.18 2801.22 2538.14 2799.55 2530.97 2799.55C2526.19 2799.55 2522.55 2800.47 2520.07 2802.3C2517.63 2804.12 2516.41 2806.54 2516.41 2809.54C2516.41 2812.82 2518.03 2815.45 2521.27 2817.41C2523.14 2818.59 2525.91 2819.62 2529.56 2820.51L2537.93 2822.55C2547.02 2824.75 2553.12 2826.88 2556.21 2828.95C2561.13 2832.18 2563.59 2837.27 2563.59 2844.2C2563.59 2850.91 2561.04 2856.7 2555.93 2861.57C2550.87 2866.45 2543.13 2868.88 2532.73 2868.88C2521.52 2868.88 2513.58 2866.35 2508.89 2861.29C2504.25 2856.18 2501.77 2849.88 2501.44 2842.38H2513.6Z" fill="black"/>
<path d="M1837.86 848.891C1838.42 853.703 1840.66 857.031 1844.56 858.875C1846.56 859.812 1848.88 860.281 1851.5 860.281C1856.5 860.281 1860.2 858.688 1862.61 855.5C1865.02 852.312 1866.22 848.781 1866.22 844.906C1866.22 840.219 1864.78 836.594 1861.91 834.031C1859.06 831.469 1855.64 830.188 1851.64 830.188C1848.73 830.188 1846.23 830.75 1844.14 831.875C1842.08 833 1840.31 834.562 1838.84 836.562L1831.53 836.141L1836.64 800H1871.52V808.156H1842.97L1840.11 826.812C1841.67 825.625 1843.16 824.734 1844.56 824.141C1847.06 823.109 1849.95 822.594 1853.23 822.594C1859.39 822.594 1864.61 824.578 1868.89 828.547C1873.17 832.516 1875.31 837.547 1875.31 843.641C1875.31 849.984 1873.34 855.578 1869.41 860.422C1865.5 865.266 1859.25 867.688 1850.66 867.688C1845.19 867.688 1840.34 866.156 1836.12 863.094C1831.94 860 1829.59 855.266 1829.09 848.891H1837.86ZM1905.41 798.875C1914.09 798.875 1920.38 802.453 1924.25 809.609C1927.25 815.141 1928.75 822.719 1928.75 832.344C1928.75 841.469 1927.39 849.016 1924.67 854.984C1920.73 863.547 1914.3 867.828 1905.36 867.828C1897.3 867.828 1891.3 864.328 1887.36 857.328C1884.08 851.484 1882.44 843.641 1882.44 833.797C1882.44 826.172 1883.42 819.625 1885.39 814.156C1889.08 803.969 1895.75 798.875 1905.41 798.875ZM1905.31 860.141C1909.69 860.141 1913.17 858.203 1915.77 854.328C1918.36 850.453 1919.66 843.234 1919.66 832.672C1919.66 825.047 1918.72 818.781 1916.84 813.875C1914.97 808.938 1911.33 806.469 1905.92 806.469C1900.95 806.469 1897.31 808.812 1895 813.5C1892.72 818.156 1891.58 825.031 1891.58 834.125C1891.58 840.969 1892.31 846.469 1893.78 850.625C1896.03 856.969 1899.88 860.141 1905.31 860.141ZM1937.19 845.469V837.594H1957.62V817.016H1965.64V837.594H1986.08V845.469H1965.64V866H1957.62V845.469H1937.19Z" fill="black"/>
<path d="M1420 1960C1420.31 1954.22 1421.5 1949.19 1423.56 1944.91C1425.66 1940.62 1429.72 1936.73 1435.75 1933.23L1444.75 1928.03C1448.78 1925.69 1451.61 1923.69 1453.23 1922.03C1455.8 1919.44 1457.08 1916.47 1457.08 1913.12C1457.08 1909.22 1455.91 1906.12 1453.56 1903.84C1451.22 1901.53 1448.09 1900.38 1444.19 1900.38C1438.41 1900.38 1434.41 1902.56 1432.19 1906.94C1431 1909.28 1430.34 1912.53 1430.22 1916.69H1421.64C1421.73 1910.84 1422.81 1906.08 1424.88 1902.39C1428.53 1895.89 1434.98 1892.64 1444.23 1892.64C1451.92 1892.64 1457.53 1894.72 1461.06 1898.88C1464.62 1903.03 1466.41 1907.66 1466.41 1912.75C1466.41 1918.12 1464.52 1922.72 1460.73 1926.53C1458.55 1928.75 1454.62 1931.44 1448.97 1934.59L1442.55 1938.16C1439.48 1939.84 1437.08 1941.45 1435.33 1942.98C1432.2 1945.7 1430.23 1948.72 1429.42 1952.03H1466.08V1960H1420ZM1482.3 1942.89C1482.86 1947.7 1485.09 1951.03 1489 1952.88C1491 1953.81 1493.31 1954.28 1495.94 1954.28C1500.94 1954.28 1504.64 1952.69 1507.05 1949.5C1509.45 1946.31 1510.66 1942.78 1510.66 1938.91C1510.66 1934.22 1509.22 1930.59 1506.34 1928.03C1503.5 1925.47 1500.08 1924.19 1496.08 1924.19C1493.17 1924.19 1490.67 1924.75 1488.58 1925.88C1486.52 1927 1484.75 1928.56 1483.28 1930.56L1475.97 1930.14L1481.08 1894H1515.95V1902.16H1487.41L1484.55 1920.81C1486.11 1919.62 1487.59 1918.73 1489 1918.14C1491.5 1917.11 1494.39 1916.59 1497.67 1916.59C1503.83 1916.59 1509.05 1918.58 1513.33 1922.55C1517.61 1926.52 1519.75 1931.55 1519.75 1937.64C1519.75 1943.98 1517.78 1949.58 1513.84 1954.42C1509.94 1959.27 1503.69 1961.69 1495.09 1961.69C1489.62 1961.69 1484.78 1960.16 1480.56 1957.09C1476.38 1954 1474.03 1949.27 1473.53 1942.89H1482.3ZM1527.86 1928.92H1551.39V1937.59H1527.86V1928.92ZM1567.7 1942.89C1568.27 1947.7 1570.5 1951.03 1574.41 1952.88C1576.41 1953.81 1578.72 1954.28 1581.34 1954.28C1586.34 1954.28 1590.05 1952.69 1592.45 1949.5C1594.86 1946.31 1596.06 1942.78 1596.06 1938.91C1596.06 1934.22 1594.62 1930.59 1591.75 1928.03C1588.91 1925.47 1585.48 1924.19 1581.48 1924.19C1578.58 1924.19 1576.08 1924.75 1573.98 1925.88C1571.92 1927 1570.16 1928.56 1568.69 1930.56L1561.38 1930.14L1566.48 1894H1601.36V1902.16H1572.81L1569.95 1920.81C1571.52 1919.62 1573 1918.73 1574.41 1918.14C1576.91 1917.11 1579.8 1916.59 1583.08 1916.59C1589.23 1916.59 1594.45 1918.58 1598.73 1922.55C1603.02 1926.52 1605.16 1931.55 1605.16 1937.64C1605.16 1943.98 1603.19 1949.58 1599.25 1954.42C1595.34 1959.27 1589.09 1961.69 1580.5 1961.69C1575.03 1961.69 1570.19 1960.16 1565.97 1957.09C1561.78 1954 1559.44 1949.27 1558.94 1942.89H1567.7ZM1635.25 1892.88C1643.94 1892.88 1650.22 1896.45 1654.09 1903.61C1657.09 1909.14 1658.59 1916.72 1658.59 1926.34C1658.59 1935.47 1657.23 1943.02 1654.52 1948.98C1650.58 1957.55 1644.14 1961.83 1635.2 1961.83C1627.14 1961.83 1621.14 1958.33 1617.2 1951.33C1613.92 1945.48 1612.28 1937.64 1612.28 1927.8C1612.28 1920.17 1613.27 1913.62 1615.23 1908.16C1618.92 1897.97 1625.59 1892.88 1635.25 1892.88ZM1635.16 1954.14C1639.53 1954.14 1643.02 1952.2 1645.61 1948.33C1648.2 1944.45 1649.5 1937.23 1649.5 1926.67C1649.5 1919.05 1648.56 1912.78 1646.69 1907.88C1644.81 1902.94 1641.17 1900.47 1635.77 1900.47C1630.8 1900.47 1627.16 1902.81 1624.84 1907.5C1622.56 1912.16 1621.42 1919.03 1621.42 1928.12C1621.42 1934.97 1622.16 1940.47 1623.62 1944.62C1625.88 1950.97 1629.72 1954.14 1635.16 1954.14Z" fill="black"/>
<path d="M591.188 1448.47V1442C597.281 1441.41 601.531 1440.42 603.938 1439.05C606.344 1437.64 608.141 1434.34 609.328 1429.16H615.984V1496H606.984V1448.47H591.188ZM661.406 1428.88C670.094 1428.88 676.375 1432.45 680.25 1439.61C683.25 1445.14 684.75 1452.72 684.75 1462.34C684.75 1471.47 683.391 1479.02 680.672 1484.98C676.734 1493.55 670.297 1497.83 661.359 1497.83C653.297 1497.83 647.297 1494.33 643.359 1487.33C640.078 1481.48 638.438 1473.64 638.438 1463.8C638.438 1456.17 639.422 1449.62 641.391 1444.16C645.078 1433.97 651.75 1428.88 661.406 1428.88ZM661.312 1490.14C665.688 1490.14 669.172 1488.2 671.766 1484.33C674.359 1480.45 675.656 1473.23 675.656 1462.67C675.656 1455.05 674.719 1448.78 672.844 1443.88C670.969 1438.94 667.328 1436.47 661.922 1436.47C656.953 1436.47 653.312 1438.81 651 1443.5C648.719 1448.16 647.578 1455.03 647.578 1464.12C647.578 1470.97 648.312 1476.47 649.781 1480.62C652.031 1486.97 655.875 1490.14 661.312 1490.14ZM692.859 1464.92H716.391V1473.59H692.859V1464.92ZM723.844 1496C724.156 1490.22 725.344 1485.19 727.406 1480.91C729.5 1476.62 733.562 1472.73 739.594 1469.23L748.594 1464.03C752.625 1461.69 755.453 1459.69 757.078 1458.03C759.641 1455.44 760.922 1452.47 760.922 1449.12C760.922 1445.22 759.75 1442.12 757.406 1439.84C755.062 1437.53 751.938 1436.38 748.031 1436.38C742.25 1436.38 738.25 1438.56 736.031 1442.94C734.844 1445.28 734.188 1448.53 734.062 1452.69H725.484C725.578 1446.84 726.656 1442.08 728.719 1438.39C732.375 1431.89 738.828 1428.64 748.078 1428.64C755.766 1428.64 761.375 1430.72 764.906 1434.88C768.469 1439.03 770.25 1443.66 770.25 1448.75C770.25 1454.12 768.359 1458.72 764.578 1462.53C762.391 1464.75 758.469 1467.44 752.812 1470.59L746.391 1474.16C743.328 1475.84 740.922 1477.45 739.172 1478.98C736.047 1481.7 734.078 1484.72 733.266 1488.03H769.922V1496H723.844ZM786.141 1478.89C786.703 1483.7 788.938 1487.03 792.844 1488.88C794.844 1489.81 797.156 1490.28 799.781 1490.28C804.781 1490.28 808.484 1488.69 810.891 1485.5C813.297 1482.31 814.5 1478.78 814.5 1474.91C814.5 1470.22 813.062 1466.59 810.188 1464.03C807.344 1461.47 803.922 1460.19 799.922 1460.19C797.016 1460.19 794.516 1460.75 792.422 1461.88C790.359 1463 788.594 1464.56 787.125 1466.56L779.812 1466.14L784.922 1430H819.797V1438.16H791.25L788.391 1456.81C789.953 1455.62 791.438 1454.73 792.844 1454.14C795.344 1453.11 798.234 1452.59 801.516 1452.59C807.672 1452.59 812.891 1454.58 817.172 1458.55C821.453 1462.52 823.594 1467.55 823.594 1473.64C823.594 1479.98 821.625 1485.58 817.688 1490.42C813.781 1495.27 807.531 1497.69 798.938 1497.69C793.469 1497.69 788.625 1496.16 784.406 1493.09C780.219 1490 777.875 1485.27 777.375 1478.89H786.141Z" fill="black"/>
<path d="M853.969 608.875C862.656 608.875 868.938 612.453 872.812 619.609C875.812 625.141 877.312 632.719 877.312 642.344C877.312 651.469 875.953 659.016 873.234 664.984C869.297 673.547 862.859 677.828 853.922 677.828C845.859 677.828 839.859 674.328 835.922 667.328C832.641 661.484 831 653.641 831 643.797C831 636.172 831.984 629.625 833.953 624.156C837.641 613.969 844.312 608.875 853.969 608.875ZM853.875 670.141C858.25 670.141 861.734 668.203 864.328 664.328C866.922 660.453 868.219 653.234 868.219 642.672C868.219 635.047 867.281 628.781 865.406 623.875C863.531 618.938 859.891 616.469 854.484 616.469C849.516 616.469 845.875 618.812 843.562 623.5C841.281 628.156 840.141 635.031 840.141 644.125C840.141 650.969 840.875 656.469 842.344 660.625C844.594 666.969 848.438 670.141 853.875 670.141ZM885.422 644.922H908.953V653.594H885.422V644.922ZM922.594 628.469V622C928.688 621.406 932.938 620.422 935.344 619.047C937.75 617.641 939.547 614.344 940.734 609.156H947.391V676H938.391V628.469H922.594ZM992.812 608.875C1001.5 608.875 1007.78 612.453 1011.66 619.609C1014.66 625.141 1016.16 632.719 1016.16 642.344C1016.16 651.469 1014.8 659.016 1012.08 664.984C1008.14 673.547 1001.7 677.828 992.766 677.828C984.703 677.828 978.703 674.328 974.766 667.328C971.484 661.484 969.844 653.641 969.844 643.797C969.844 636.172 970.828 629.625 972.797 624.156C976.484 613.969 983.156 608.875 992.812 608.875ZM992.719 670.141C997.094 670.141 1000.58 668.203 1003.17 664.328C1005.77 660.453 1007.06 653.234 1007.06 642.672C1007.06 635.047 1006.12 628.781 1004.25 623.875C1002.38 618.938 998.734 616.469 993.328 616.469C988.359 616.469 984.719 618.812 982.406 623.5C980.125 628.156 978.984 635.031 978.984 644.125C978.984 650.969 979.719 656.469 981.188 660.625C983.438 666.969 987.281 670.141 992.719 670.141Z" fill="black"/>
</svg>
