<svg width="2570" height="2776" viewBox="0 0 2570 2776" fill="none" xmlns="http://www.w3.org/2000/svg">
<path d="M1285.05 1285V1C1994.15 1 2569 575.866 2569 1285C2569 1994.13 1994.15 2569 1285.05 2569C1013.9 2569 749.716 2483.16 530.355 2323.78L1285.05 1285Z" fill="#5E3FBE" stroke="white"/>
<path d="M1285.05 1285L530.356 2323.78C-43.3248 1906.96 -170.499 1103.98 246.305 530.284C487.885 197.766 874.046 1 1285.05 1V1285Z" fill="#F4F0FD" stroke="white"/>
<path d="M84.6016 2707.35V2661.72L52.3281 2707.35H84.6016ZM84.8125 2743V2718.39H40.6562V2706.02L86.7812 2642.03H97.4688V2707.35H112.305V2718.39H97.4688V2743H84.8125ZM156.109 2642.31C169.141 2642.31 178.562 2647.68 184.375 2658.41C188.875 2666.71 191.125 2678.08 191.125 2692.52C191.125 2706.2 189.086 2717.52 185.008 2726.48C179.102 2739.32 169.445 2745.74 156.039 2745.74C143.945 2745.74 134.945 2740.49 129.039 2729.99C124.117 2721.23 121.656 2709.46 121.656 2694.7C121.656 2683.26 123.133 2673.44 126.086 2665.23C131.617 2649.95 141.625 2642.31 156.109 2642.31ZM155.969 2734.21C162.531 2734.21 167.758 2731.3 171.648 2725.49C175.539 2719.68 177.484 2708.85 177.484 2693.01C177.484 2681.57 176.078 2672.17 173.266 2664.81C170.453 2657.41 164.992 2653.7 156.883 2653.7C149.43 2653.7 143.969 2657.22 140.5 2664.25C137.078 2671.23 135.367 2681.55 135.367 2695.19C135.367 2705.45 136.469 2713.7 138.672 2719.94C142.047 2729.45 147.812 2734.21 155.969 2734.21ZM295.469 2694.06C302.219 2694.06 307.984 2696.45 312.766 2701.23C317.547 2706.02 319.938 2711.78 319.938 2718.53C319.938 2725.28 317.547 2731.05 312.766 2735.83C307.984 2740.61 302.219 2743 295.469 2743C288.672 2743 282.883 2740.61 278.102 2735.83C273.32 2731.05 270.93 2725.28 270.93 2718.53C270.93 2711.78 273.32 2706.02 278.102 2701.23C282.883 2696.45 288.672 2694.06 295.469 2694.06ZM285.273 2642.73H293.078L236.758 2745.67H228.953L285.273 2642.73ZM226.422 2684.36C230.453 2684.36 233.875 2682.95 236.688 2680.14C239.547 2677.28 240.977 2673.86 240.977 2669.88C240.977 2665.89 239.547 2662.49 236.688 2659.68C233.875 2656.82 230.453 2655.39 226.422 2655.39C222.438 2655.39 219.016 2656.8 216.156 2659.61C213.344 2662.42 211.938 2665.84 211.938 2669.88C211.938 2673.86 213.344 2677.28 216.156 2680.14C219.016 2682.95 222.438 2684.36 226.422 2684.36ZM226.422 2645.34C233.219 2645.34 239.008 2647.75 243.789 2652.58C248.57 2657.36 250.961 2663.12 250.961 2669.88C250.961 2676.62 248.57 2682.39 243.789 2687.17C239.008 2691.95 233.219 2694.34 226.422 2694.34C219.672 2694.34 213.906 2691.95 209.125 2687.17C204.344 2682.39 201.953 2676.62 201.953 2669.88C201.953 2663.12 204.344 2657.36 209.125 2652.58C213.906 2647.75 219.672 2645.34 226.422 2645.34ZM295.469 2733.02C299.453 2733.02 302.852 2731.61 305.664 2728.8C308.523 2725.94 309.953 2722.52 309.953 2718.53C309.953 2714.55 308.523 2711.15 305.664 2708.34C302.852 2705.48 299.453 2704.05 295.469 2704.05C291.438 2704.05 287.992 2705.48 285.133 2708.34C282.32 2711.15 280.914 2714.55 280.914 2718.53C280.914 2722.52 282.32 2725.94 285.133 2728.8C287.992 2731.61 291.438 2733.02 295.469 2733.02ZM421.609 2700.67L405.93 2655.04L389.266 2700.67H421.609ZM398.617 2639.71H414.438L451.914 2743H436.586L426.109 2712.06H385.258L374.078 2743H359.734L398.617 2639.71ZM463.305 2667.7H475.328V2680.7C476.312 2678.17 478.727 2675.1 482.57 2671.49C486.414 2667.84 490.844 2666.01 495.859 2666.01C496.094 2666.01 496.492 2666.03 497.055 2666.08C497.617 2666.12 498.578 2666.22 499.938 2666.36V2679.72C499.188 2679.58 498.484 2679.48 497.828 2679.44C497.219 2679.39 496.539 2679.37 495.789 2679.37C489.414 2679.37 484.516 2681.43 481.094 2685.55C477.672 2689.63 475.961 2694.34 475.961 2699.69V2743H463.305V2667.7ZM542.266 2666.01C547.609 2666.01 552.789 2667.27 557.805 2669.8C562.82 2672.29 566.641 2675.52 569.266 2679.51C571.797 2683.3 573.484 2687.73 574.328 2692.8C575.078 2696.27 575.453 2701.8 575.453 2709.39H520.258C520.492 2717.03 522.297 2723.17 525.672 2727.81C529.047 2732.41 534.273 2734.7 541.352 2734.7C547.961 2734.7 553.234 2732.52 557.172 2728.16C559.422 2725.63 561.016 2722.7 561.953 2719.38H574.398C574.07 2722.14 572.969 2725.23 571.094 2728.66C569.266 2732.03 567.203 2734.8 564.906 2736.95C561.062 2740.7 556.305 2743.23 550.633 2744.55C547.586 2745.3 544.141 2745.67 540.297 2745.67C530.922 2745.67 522.977 2742.27 516.461 2735.48C509.945 2728.63 506.688 2719.07 506.688 2706.79C506.688 2694.7 509.969 2684.88 516.531 2677.33C523.094 2669.78 531.672 2666.01 542.266 2666.01ZM562.445 2699.34C561.93 2693.85 560.734 2689.47 558.859 2686.19C555.391 2680.09 549.602 2677.05 541.492 2677.05C535.68 2677.05 530.805 2679.16 526.867 2683.38C522.93 2687.55 520.844 2692.87 520.609 2699.34H562.445ZM632.828 2639.71H649.352L701.523 2723.38V2639.71H714.812V2743H699.133L646.188 2659.4V2743H632.828V2639.71ZM765.086 2734.84C773.477 2734.84 779.219 2731.68 782.312 2725.35C785.453 2718.98 787.023 2711.9 787.023 2704.12C787.023 2697.09 785.898 2691.37 783.648 2686.96C780.086 2680.02 773.945 2676.55 765.227 2676.55C757.492 2676.55 751.867 2679.51 748.352 2685.41C744.836 2691.32 743.078 2698.45 743.078 2706.79C743.078 2714.8 744.836 2721.48 748.352 2726.83C751.867 2732.17 757.445 2734.84 765.086 2734.84ZM765.578 2665.52C775.281 2665.52 783.484 2668.75 790.188 2675.22C796.891 2681.69 800.242 2691.2 800.242 2703.77C800.242 2715.91 797.289 2725.94 791.383 2733.86C785.477 2741.78 776.312 2745.74 763.891 2745.74C753.531 2745.74 745.305 2742.25 739.211 2735.27C733.117 2728.23 730.07 2718.81 730.07 2707C730.07 2694.34 733.281 2684.27 739.703 2676.77C746.125 2669.27 754.75 2665.52 765.578 2665.52ZM817.891 2646.67H830.688V2667.7H842.711V2678.03H830.688V2727.18C830.688 2729.8 831.578 2731.56 833.359 2732.45C834.344 2732.97 835.984 2733.23 838.281 2733.23C838.891 2733.23 839.547 2733.23 840.25 2733.23C840.953 2733.18 841.773 2733.11 842.711 2733.02V2743C841.258 2743.42 839.734 2743.73 838.141 2743.91C836.594 2744.1 834.906 2744.2 833.078 2744.2C827.172 2744.2 823.164 2742.7 821.055 2739.7C818.945 2736.65 817.891 2732.71 817.891 2727.88V2678.03H807.695V2667.7H817.891V2646.67ZM897.555 2639.71H911.688V2682.39H965.406V2639.71H979.539V2743H965.406V2694.7H911.688V2743H897.555V2639.71ZM1009.28 2722.96C1009.28 2726.62 1010.62 2729.5 1013.29 2731.61C1015.96 2733.72 1019.12 2734.77 1022.78 2734.77C1027.23 2734.77 1031.55 2733.74 1035.72 2731.68C1042.75 2728.26 1046.27 2722.66 1046.27 2714.88V2704.68C1044.72 2705.66 1042.73 2706.48 1040.29 2707.14C1037.85 2707.8 1035.46 2708.27 1033.12 2708.55L1025.45 2709.53C1020.86 2710.14 1017.41 2711.1 1015.12 2712.41C1011.23 2714.62 1009.28 2718.13 1009.28 2722.96ZM1039.94 2697.37C1042.84 2696.99 1044.79 2695.77 1045.77 2693.71C1046.34 2692.59 1046.62 2690.97 1046.62 2688.86C1046.62 2684.55 1045.07 2681.43 1041.98 2679.51C1038.93 2677.54 1034.55 2676.55 1028.83 2676.55C1022.22 2676.55 1017.53 2678.34 1014.77 2681.9C1013.22 2683.87 1012.21 2686.8 1011.74 2690.69H999.93C1000.16 2681.41 1003.16 2674.96 1008.93 2671.35C1014.74 2667.7 1021.47 2665.87 1029.11 2665.87C1037.97 2665.87 1045.16 2667.55 1050.7 2670.93C1056.18 2674.3 1058.92 2679.55 1058.92 2686.68V2730.06C1058.92 2731.38 1059.18 2732.43 1059.7 2733.23C1060.26 2734.02 1061.41 2734.42 1063.14 2734.42C1063.7 2734.42 1064.34 2734.4 1065.04 2734.35C1065.74 2734.26 1066.49 2734.14 1067.29 2734V2743.35C1065.32 2743.91 1063.82 2744.27 1062.79 2744.41C1061.76 2744.55 1060.35 2744.62 1058.57 2744.62C1054.21 2744.62 1051.05 2743.07 1049.08 2739.98C1048.05 2738.34 1047.32 2736.02 1046.9 2733.02C1044.32 2736.39 1040.62 2739.32 1035.79 2741.8C1030.96 2744.29 1025.64 2745.53 1019.83 2745.53C1012.84 2745.53 1007.12 2743.42 1002.67 2739.2C998.266 2734.94 996.062 2729.62 996.062 2723.24C996.062 2716.26 998.242 2710.84 1002.6 2707C1006.96 2703.16 1012.68 2700.79 1019.76 2699.9L1039.94 2697.37ZM1111.52 2734.49C1117.42 2734.49 1122.32 2732.03 1126.21 2727.11C1130.15 2722.14 1132.12 2714.73 1132.12 2704.89C1132.12 2698.89 1131.25 2693.73 1129.52 2689.42C1126.23 2681.12 1120.23 2676.98 1111.52 2676.98C1102.75 2676.98 1096.75 2681.36 1093.52 2690.12C1091.78 2694.81 1090.91 2700.77 1090.91 2707.98C1090.91 2713.8 1091.78 2718.74 1093.52 2722.82C1096.8 2730.6 1102.8 2734.49 1111.52 2734.49ZM1078.75 2668.05H1091.05V2678.03C1093.59 2674.61 1096.35 2671.96 1099.35 2670.09C1103.62 2667.27 1108.63 2665.87 1114.4 2665.87C1122.93 2665.87 1130.17 2669.15 1136.12 2675.71C1142.08 2682.23 1145.05 2691.55 1145.05 2703.7C1145.05 2720.1 1140.77 2731.82 1132.19 2738.85C1126.75 2743.3 1120.42 2745.53 1113.2 2745.53C1107.53 2745.53 1102.77 2744.29 1098.93 2741.8C1096.68 2740.4 1094.17 2737.98 1091.41 2734.56V2773.02H1078.75V2668.05ZM1191.67 2734.49C1197.58 2734.49 1202.48 2732.03 1206.37 2727.11C1210.3 2722.14 1212.27 2714.73 1212.27 2704.89C1212.27 2698.89 1211.41 2693.73 1209.67 2689.42C1206.39 2681.12 1200.39 2676.98 1191.67 2676.98C1182.91 2676.98 1176.91 2681.36 1173.67 2690.12C1171.94 2694.81 1171.07 2700.77 1171.07 2707.98C1171.07 2713.8 1171.94 2718.74 1173.67 2722.82C1176.95 2730.6 1182.95 2734.49 1191.67 2734.49ZM1158.91 2668.05H1171.21V2678.03C1173.74 2674.61 1176.51 2671.96 1179.51 2670.09C1183.77 2667.27 1188.79 2665.87 1194.55 2665.87C1203.09 2665.87 1210.33 2669.15 1216.28 2675.71C1222.23 2682.23 1225.21 2691.55 1225.21 2703.7C1225.21 2720.1 1220.92 2731.82 1212.34 2738.85C1206.91 2743.3 1200.58 2745.53 1193.36 2745.53C1187.69 2745.53 1182.93 2744.29 1179.09 2741.8C1176.84 2740.4 1174.33 2737.98 1171.56 2734.56V2773.02H1158.91V2668.05ZM1287.09 2667.7H1301.08C1299.3 2672.52 1295.34 2683.54 1289.2 2700.74C1284.6 2713.68 1280.76 2724.23 1277.66 2732.38C1270.35 2751.6 1265.2 2763.32 1262.2 2767.54C1259.2 2771.76 1254.04 2773.87 1246.73 2773.87C1244.95 2773.87 1243.56 2773.8 1242.58 2773.66C1241.64 2773.52 1240.47 2773.26 1239.06 2772.88V2761.35C1241.27 2761.96 1242.86 2762.34 1243.84 2762.48C1244.83 2762.62 1245.7 2762.69 1246.45 2762.69C1248.79 2762.69 1250.5 2762.29 1251.58 2761.49C1252.7 2760.74 1253.64 2759.8 1254.39 2758.68C1254.62 2758.3 1255.47 2756.38 1256.92 2752.91C1258.38 2749.45 1259.43 2746.87 1260.09 2745.18L1232.24 2667.7H1246.59L1266.77 2729.01L1287.09 2667.7ZM1360.63 2639.71L1380.11 2723.73L1403.45 2639.71H1418.64L1441.98 2723.73L1461.46 2639.71H1476.79L1449.65 2743H1434.95L1411.12 2657.36L1387.14 2743H1372.45L1345.45 2639.71H1360.63ZM1488.11 2668.05H1500.98V2743H1488.11V2668.05ZM1488.11 2639.71H1500.98V2654.05H1488.11V2639.71ZM1522.7 2646.67H1535.5V2667.7H1547.52V2678.03H1535.5V2727.18C1535.5 2729.8 1536.39 2731.56 1538.17 2732.45C1539.16 2732.97 1540.8 2733.23 1543.09 2733.23C1543.7 2733.23 1544.36 2733.23 1545.06 2733.23C1545.77 2733.18 1546.59 2733.11 1547.52 2733.02V2743C1546.07 2743.42 1544.55 2743.73 1542.95 2743.91C1541.41 2744.1 1539.72 2744.2 1537.89 2744.2C1531.98 2744.2 1527.98 2742.7 1525.87 2739.7C1523.76 2736.65 1522.7 2732.71 1522.7 2727.88V2678.03H1512.51V2667.7H1522.7V2646.67ZM1560.25 2639.36H1572.91V2677.89C1575.91 2674.09 1578.6 2671.42 1580.99 2669.88C1585.07 2667.2 1590.16 2665.87 1596.25 2665.87C1607.17 2665.87 1614.58 2669.69 1618.47 2677.33C1620.58 2681.5 1621.63 2687.29 1621.63 2694.7V2743H1608.62V2695.54C1608.62 2690.01 1607.92 2685.95 1606.52 2683.38C1604.22 2679.25 1599.91 2677.19 1593.58 2677.19C1588.33 2677.19 1583.57 2678.99 1579.3 2682.6C1575.04 2686.21 1572.91 2693.03 1572.91 2703.06V2743H1560.25V2639.36ZM1754.8 2639.71V2652.02H1720V2743H1705.8V2652.02H1670.99V2639.71H1754.8ZM1765.98 2639.36H1778.64V2677.89C1781.64 2674.09 1784.34 2671.42 1786.73 2669.88C1790.8 2667.2 1795.89 2665.87 1801.98 2665.87C1812.91 2665.87 1820.31 2669.69 1824.2 2677.33C1826.31 2681.5 1827.37 2687.29 1827.37 2694.7V2743H1814.36V2695.54C1814.36 2690.01 1813.66 2685.95 1812.25 2683.38C1809.95 2679.25 1805.64 2677.19 1799.31 2677.19C1794.06 2677.19 1789.3 2678.99 1785.04 2682.6C1780.77 2686.21 1778.64 2693.03 1778.64 2703.06V2743H1765.98V2639.36ZM1877.5 2666.01C1882.84 2666.01 1888.02 2667.27 1893.04 2669.8C1898.05 2672.29 1901.88 2675.52 1904.5 2679.51C1907.03 2683.3 1908.72 2687.73 1909.56 2692.8C1910.31 2696.27 1910.69 2701.8 1910.69 2709.39H1855.49C1855.73 2717.03 1857.53 2723.17 1860.91 2727.81C1864.28 2732.41 1869.51 2734.7 1876.59 2734.7C1883.2 2734.7 1888.47 2732.52 1892.41 2728.16C1894.66 2725.63 1896.25 2722.7 1897.19 2719.38H1909.63C1909.3 2722.14 1908.2 2725.23 1906.33 2728.66C1904.5 2732.03 1902.44 2734.8 1900.14 2736.95C1896.3 2740.7 1891.54 2743.23 1885.87 2744.55C1882.82 2745.3 1879.38 2745.67 1875.53 2745.67C1866.16 2745.67 1858.21 2742.27 1851.7 2735.48C1845.18 2728.63 1841.92 2719.07 1841.92 2706.79C1841.92 2694.7 1845.2 2684.88 1851.77 2677.33C1858.33 2669.78 1866.91 2666.01 1877.5 2666.01ZM1897.68 2699.34C1897.16 2693.85 1895.97 2689.47 1894.09 2686.19C1890.62 2680.09 1884.84 2677.05 1876.73 2677.05C1870.91 2677.05 1866.04 2679.16 1862.1 2683.38C1858.16 2687.55 1856.08 2692.87 1855.84 2699.34H1897.68ZM1926.3 2668.05H1939.16V2743H1926.3V2668.05ZM1926.3 2639.71H1939.16V2654.05H1926.3V2639.71ZM1958.71 2667.7H1970.73V2680.7C1971.72 2678.17 1974.13 2675.1 1977.98 2671.49C1981.82 2667.84 1986.25 2666.01 1991.27 2666.01C1991.5 2666.01 1991.9 2666.03 1992.46 2666.08C1993.02 2666.12 1993.98 2666.22 1995.34 2666.36V2679.72C1994.59 2679.58 1993.89 2679.48 1993.23 2679.44C1992.62 2679.39 1991.95 2679.37 1991.2 2679.37C1984.82 2679.37 1979.92 2681.43 1976.5 2685.55C1973.08 2689.63 1971.37 2694.34 1971.37 2699.69V2743H1958.71V2667.7ZM2096.1 2687.03C2102.66 2687.03 2107.84 2685.72 2111.64 2683.09C2115.48 2680.47 2117.41 2675.73 2117.41 2668.89C2117.41 2661.53 2114.73 2656.52 2109.39 2653.84C2106.53 2652.44 2102.71 2651.73 2097.93 2651.73H2063.76V2687.03H2096.1ZM2049.77 2639.71H2097.58C2105.45 2639.71 2111.95 2640.86 2117.05 2643.16C2126.76 2647.56 2131.61 2655.7 2131.61 2667.55C2131.61 2673.74 2130.32 2678.8 2127.74 2682.74C2125.21 2686.68 2121.65 2689.84 2117.05 2692.23C2121.09 2693.88 2124.11 2696.03 2126.12 2698.7C2128.19 2701.38 2129.34 2705.71 2129.57 2711.71L2130.06 2725.56C2130.2 2729.5 2130.53 2732.43 2131.05 2734.35C2131.89 2737.63 2133.39 2739.74 2135.55 2740.68V2743H2118.39C2117.92 2742.11 2117.55 2740.96 2117.27 2739.55C2116.98 2738.15 2116.75 2735.43 2116.56 2731.4L2115.72 2714.17C2115.39 2707.42 2112.88 2702.9 2108.2 2700.6C2105.52 2699.34 2101.33 2698.7 2095.61 2698.7H2063.76V2743H2049.77V2639.71ZM2180.34 2734.84C2188.73 2734.84 2194.47 2731.68 2197.56 2725.35C2200.7 2718.98 2202.27 2711.9 2202.27 2704.12C2202.27 2697.09 2201.15 2691.37 2198.9 2686.96C2195.34 2680.02 2189.2 2676.55 2180.48 2676.55C2172.74 2676.55 2167.12 2679.51 2163.6 2685.41C2160.09 2691.32 2158.33 2698.45 2158.33 2706.79C2158.33 2714.8 2160.09 2721.48 2163.6 2726.83C2167.12 2732.17 2172.7 2734.84 2180.34 2734.84ZM2180.83 2665.52C2190.53 2665.52 2198.73 2668.75 2205.44 2675.22C2212.14 2681.69 2215.49 2691.2 2215.49 2703.77C2215.49 2715.91 2212.54 2725.94 2206.63 2733.86C2200.73 2741.78 2191.56 2745.74 2179.14 2745.74C2168.78 2745.74 2160.55 2742.25 2154.46 2735.27C2148.37 2728.23 2145.32 2718.81 2145.32 2707C2145.32 2694.34 2148.53 2684.27 2154.95 2676.77C2161.38 2669.27 2170 2665.52 2180.83 2665.52ZM2243.27 2667.7V2717.69C2243.27 2721.53 2243.88 2724.67 2245.09 2727.11C2247.34 2731.61 2251.54 2733.86 2257.68 2733.86C2266.49 2733.86 2272.49 2729.92 2275.68 2722.05C2277.41 2717.83 2278.28 2712.04 2278.28 2704.68V2667.7H2290.94V2743H2278.98L2279.12 2731.89C2277.48 2734.75 2275.45 2737.16 2273.01 2739.13C2268.18 2743.07 2262.32 2745.04 2255.43 2745.04C2244.7 2745.04 2237.38 2741.45 2233.49 2734.28C2231.38 2730.44 2230.33 2725.3 2230.33 2718.88V2667.7H2243.27ZM2313.3 2646.67H2326.09V2667.7H2338.12V2678.03H2326.09V2727.18C2326.09 2729.8 2326.98 2731.56 2328.77 2732.45C2329.75 2732.97 2331.39 2733.23 2333.69 2733.23C2334.3 2733.23 2334.95 2733.23 2335.66 2733.23C2336.36 2733.18 2337.18 2733.11 2338.12 2733.02V2743C2336.66 2743.42 2335.14 2743.73 2333.55 2743.91C2332 2744.1 2330.31 2744.2 2328.48 2744.2C2322.58 2744.2 2318.57 2742.7 2316.46 2739.7C2314.35 2736.65 2313.3 2732.71 2313.3 2727.88V2678.03H2303.1V2667.7H2313.3V2646.67ZM2350.84 2668.05H2363.71V2743H2350.84V2668.05ZM2350.84 2639.71H2363.71V2654.05H2350.84V2639.71ZM2382.91 2667.7H2394.93V2678.38C2398.49 2673.98 2402.27 2670.81 2406.25 2668.89C2410.23 2666.97 2414.66 2666.01 2419.54 2666.01C2430.23 2666.01 2437.45 2669.73 2441.2 2677.19C2443.26 2681.27 2444.29 2687.1 2444.29 2694.7V2743H2431.42V2695.54C2431.42 2690.95 2430.74 2687.24 2429.38 2684.43C2427.13 2679.74 2423.05 2677.4 2417.15 2677.4C2414.15 2677.4 2411.69 2677.7 2409.77 2678.31C2406.3 2679.34 2403.25 2681.41 2400.62 2684.5C2398.52 2686.98 2397.13 2689.56 2396.48 2692.23C2395.87 2694.86 2395.56 2698.63 2395.56 2703.55V2743H2382.91V2667.7ZM2494.42 2666.01C2499.77 2666.01 2504.95 2667.27 2509.96 2669.8C2514.98 2672.29 2518.8 2675.52 2521.42 2679.51C2523.95 2683.3 2525.64 2687.73 2526.48 2692.8C2527.23 2696.27 2527.61 2701.8 2527.61 2709.39H2472.41C2472.65 2717.03 2474.45 2723.17 2477.83 2727.81C2481.2 2732.41 2486.43 2734.7 2493.51 2734.7C2500.12 2734.7 2505.39 2732.52 2509.33 2728.16C2511.58 2725.63 2513.17 2722.7 2514.11 2719.38H2526.55C2526.23 2722.14 2525.12 2725.23 2523.25 2728.66C2521.42 2732.03 2519.36 2734.8 2517.06 2736.95C2513.22 2740.7 2508.46 2743.23 2502.79 2744.55C2499.74 2745.3 2496.3 2745.67 2492.45 2745.67C2483.08 2745.67 2475.13 2742.27 2468.62 2735.48C2462.1 2728.63 2458.84 2719.07 2458.84 2706.79C2458.84 2694.7 2462.12 2684.88 2468.69 2677.33C2475.25 2669.78 2483.83 2666.01 2494.42 2666.01ZM2514.6 2699.34C2514.09 2693.85 2512.89 2689.47 2511.02 2686.19C2507.55 2680.09 2501.76 2677.05 2493.65 2677.05C2487.84 2677.05 2482.96 2679.16 2479.02 2683.38C2475.09 2687.55 2473 2692.87 2472.77 2699.34H2514.6Z" fill="black"/>
</svg>
