<svg width="2366" height="2677" viewBox="0 0 2366 2677" fill="none" xmlns="http://www.w3.org/2000/svg">
<path d="M1183.16 1182.84V1C1835.87 1 2365 530.127 2365 1182.84C2365 1835.55 1835.87 2364.67 1183.16 2364.67C682.085 2364.67 235.471 2048.69 68.7021 1576.18L1183.16 1182.84Z" fill="#E5C646" stroke="white"/>
<path d="M1183.16 1182.84L68.698 1576.18C-148.537 960.676 174.321 285.611 789.821 68.3759C916.166 23.7834 1049.17 1 1183.16 1V1182.84Z" fill="#F9F5E5" stroke="white"/>
<path d="M377.305 2545V2556.04C374.07 2559.18 369.758 2564.64 364.367 2572.42C359.023 2580.2 354.289 2588.59 350.164 2597.59C346.086 2606.36 342.992 2614.35 340.883 2621.57C339.523 2626.21 337.766 2633.69 335.609 2644H321.617C324.805 2624.78 331.836 2605.66 342.711 2586.62C349.133 2575.47 355.883 2565.84 362.961 2557.73H307.273V2545H377.305ZM421.109 2543.31C434.141 2543.31 443.562 2548.68 449.375 2559.41C453.875 2567.71 456.125 2579.08 456.125 2593.52C456.125 2607.2 454.086 2618.52 450.008 2627.48C444.102 2640.32 434.445 2646.74 421.039 2646.74C408.945 2646.74 399.945 2641.49 394.039 2630.99C389.117 2622.23 386.656 2610.46 386.656 2595.7C386.656 2584.26 388.133 2574.44 391.086 2566.23C396.617 2550.95 406.625 2543.31 421.109 2543.31ZM420.969 2635.21C427.531 2635.21 432.758 2632.3 436.648 2626.49C440.539 2620.68 442.484 2609.85 442.484 2594.01C442.484 2582.57 441.078 2573.17 438.266 2565.81C435.453 2558.41 429.992 2554.7 421.883 2554.7C414.43 2554.7 408.969 2558.22 405.5 2565.25C402.078 2572.23 400.367 2582.55 400.367 2596.19C400.367 2606.45 401.469 2614.7 403.672 2620.94C407.047 2630.45 412.812 2635.21 420.969 2635.21ZM560.469 2595.06C567.219 2595.06 572.984 2597.45 577.766 2602.23C582.547 2607.02 584.938 2612.78 584.938 2619.53C584.938 2626.28 582.547 2632.05 577.766 2636.83C572.984 2641.61 567.219 2644 560.469 2644C553.672 2644 547.883 2641.61 543.102 2636.83C538.32 2632.05 535.93 2626.28 535.93 2619.53C535.93 2612.78 538.32 2607.02 543.102 2602.23C547.883 2597.45 553.672 2595.06 560.469 2595.06ZM550.273 2543.73H558.078L501.758 2646.67H493.953L550.273 2543.73ZM491.422 2585.36C495.453 2585.36 498.875 2583.95 501.688 2581.14C504.547 2578.28 505.977 2574.86 505.977 2570.88C505.977 2566.89 504.547 2563.49 501.688 2560.68C498.875 2557.82 495.453 2556.39 491.422 2556.39C487.438 2556.39 484.016 2557.8 481.156 2560.61C478.344 2563.42 476.938 2566.84 476.938 2570.88C476.938 2574.86 478.344 2578.28 481.156 2581.14C484.016 2583.95 487.438 2585.36 491.422 2585.36ZM491.422 2546.34C498.219 2546.34 504.008 2548.75 508.789 2553.58C513.57 2558.36 515.961 2564.12 515.961 2570.88C515.961 2577.62 513.57 2583.39 508.789 2588.17C504.008 2592.95 498.219 2595.34 491.422 2595.34C484.672 2595.34 478.906 2592.95 474.125 2588.17C469.344 2583.39 466.953 2577.62 466.953 2570.88C466.953 2564.12 469.344 2558.36 474.125 2553.58C478.906 2548.75 484.672 2546.34 491.422 2546.34ZM560.469 2634.02C564.453 2634.02 567.852 2632.61 570.664 2629.8C573.523 2626.94 574.953 2623.52 574.953 2619.53C574.953 2615.55 573.523 2612.15 570.664 2609.34C567.852 2606.48 564.453 2605.05 560.469 2605.05C556.438 2605.05 552.992 2606.48 550.133 2609.34C547.32 2612.15 545.914 2615.55 545.914 2619.53C545.914 2623.52 547.32 2626.94 550.133 2629.8C552.992 2632.61 556.438 2634.02 560.469 2634.02ZM641.82 2540.71H655.953V2583.39H709.672V2540.71H723.805V2644H709.672V2595.7H655.953V2644H641.82V2540.71ZM753.547 2623.96C753.547 2627.62 754.883 2630.5 757.555 2632.61C760.227 2634.72 763.391 2635.77 767.047 2635.77C771.5 2635.77 775.812 2634.74 779.984 2632.68C787.016 2629.26 790.531 2623.66 790.531 2615.88V2605.68C788.984 2606.66 786.992 2607.48 784.555 2608.14C782.117 2608.8 779.727 2609.27 777.383 2609.55L769.719 2610.53C765.125 2611.14 761.68 2612.1 759.383 2613.41C755.492 2615.62 753.547 2619.13 753.547 2623.96ZM784.203 2598.37C787.109 2597.99 789.055 2596.77 790.039 2594.71C790.602 2593.59 790.883 2591.97 790.883 2589.86C790.883 2585.55 789.336 2582.43 786.242 2580.51C783.195 2578.54 778.812 2577.55 773.094 2577.55C766.484 2577.55 761.797 2579.34 759.031 2582.9C757.484 2584.87 756.477 2587.8 756.008 2591.69H744.195C744.43 2582.41 747.43 2575.96 753.195 2572.35C759.008 2568.7 765.734 2566.87 773.375 2566.87C782.234 2566.87 789.43 2568.55 794.961 2571.93C800.445 2575.3 803.188 2580.55 803.188 2587.68V2631.06C803.188 2632.38 803.445 2633.43 803.961 2634.23C804.523 2635.02 805.672 2635.42 807.406 2635.42C807.969 2635.42 808.602 2635.4 809.305 2635.35C810.008 2635.26 810.758 2635.14 811.555 2635V2644.35C809.586 2644.91 808.086 2645.27 807.055 2645.41C806.023 2645.55 804.617 2645.62 802.836 2645.62C798.477 2645.62 795.312 2644.07 793.344 2640.98C792.312 2639.34 791.586 2637.02 791.164 2634.02C788.586 2637.39 784.883 2640.32 780.055 2642.8C775.227 2645.29 769.906 2646.53 764.094 2646.53C757.109 2646.53 751.391 2644.42 746.938 2640.2C742.531 2635.94 740.328 2630.62 740.328 2624.24C740.328 2617.26 742.508 2611.84 746.867 2608C751.227 2604.16 756.945 2601.79 764.023 2600.9L784.203 2598.37ZM830.188 2568.7L850.297 2630.01L871.32 2568.7H885.172L856.766 2644H843.266L815.492 2568.7H830.188ZM927.359 2567.01C932.703 2567.01 937.883 2568.27 942.898 2570.8C947.914 2573.29 951.734 2576.52 954.359 2580.51C956.891 2584.3 958.578 2588.73 959.422 2593.8C960.172 2597.27 960.547 2602.8 960.547 2610.39H905.352C905.586 2618.03 907.391 2624.17 910.766 2628.81C914.141 2633.41 919.367 2635.7 926.445 2635.7C933.055 2635.7 938.328 2633.52 942.266 2629.16C944.516 2626.63 946.109 2623.7 947.047 2620.38H959.492C959.164 2623.14 958.062 2626.23 956.188 2629.66C954.359 2633.03 952.297 2635.8 950 2637.95C946.156 2641.7 941.398 2644.23 935.727 2645.55C932.68 2646.3 929.234 2646.67 925.391 2646.67C916.016 2646.67 908.07 2643.27 901.555 2636.48C895.039 2629.63 891.781 2620.07 891.781 2607.79C891.781 2595.7 895.062 2585.88 901.625 2578.33C908.188 2570.78 916.766 2567.01 927.359 2567.01ZM947.539 2600.34C947.023 2594.85 945.828 2590.47 943.953 2587.19C940.484 2581.09 934.695 2578.05 926.586 2578.05C920.773 2578.05 915.898 2580.16 911.961 2584.38C908.023 2588.55 905.938 2593.87 905.703 2600.34H947.539ZM1061.45 2537.9C1074.52 2537.9 1084.67 2541.34 1091.89 2548.23C1099.11 2555.12 1103.12 2562.95 1103.91 2571.72H1090.27C1088.73 2565.06 1085.63 2559.79 1080.99 2555.9C1076.4 2552.01 1069.93 2550.06 1061.59 2550.06C1051.41 2550.06 1043.19 2553.65 1036.91 2560.82C1030.67 2567.95 1027.55 2578.89 1027.55 2593.66C1027.55 2605.75 1030.37 2615.57 1035.99 2623.12C1041.66 2630.62 1050.1 2634.37 1061.3 2634.37C1071.62 2634.37 1079.47 2630.41 1084.86 2622.48C1087.72 2618.31 1089.85 2612.83 1091.26 2606.03H1104.9C1103.68 2616.91 1099.65 2626.02 1092.8 2633.38C1084.6 2642.24 1073.54 2646.67 1059.62 2646.67C1047.62 2646.67 1037.54 2643.04 1029.38 2635.77C1018.65 2626.16 1013.28 2611.33 1013.28 2591.27C1013.28 2576.03 1017.31 2563.54 1025.38 2553.79C1034.09 2543.2 1046.12 2537.9 1061.45 2537.9ZM1150.18 2635.84C1158.57 2635.84 1164.31 2632.68 1167.41 2626.35C1170.55 2619.98 1172.12 2612.9 1172.12 2605.12C1172.12 2598.09 1170.99 2592.37 1168.74 2587.96C1165.18 2581.02 1159.04 2577.55 1150.32 2577.55C1142.59 2577.55 1136.96 2580.51 1133.45 2586.41C1129.93 2592.32 1128.17 2599.45 1128.17 2607.79C1128.17 2615.8 1129.93 2622.48 1133.45 2627.83C1136.96 2633.17 1142.54 2635.84 1150.18 2635.84ZM1150.67 2566.52C1160.38 2566.52 1168.58 2569.75 1175.28 2576.22C1181.98 2582.69 1185.34 2592.2 1185.34 2604.77C1185.34 2616.91 1182.38 2626.94 1176.48 2634.86C1170.57 2642.78 1161.41 2646.74 1148.98 2646.74C1138.62 2646.74 1130.4 2643.25 1124.3 2636.27C1118.21 2629.23 1115.16 2619.81 1115.16 2608C1115.16 2595.34 1118.38 2585.27 1124.8 2577.77C1131.22 2570.27 1139.84 2566.52 1150.67 2566.52ZM1230.34 2635.84C1238.73 2635.84 1244.47 2632.68 1247.56 2626.35C1250.7 2619.98 1252.27 2612.9 1252.27 2605.12C1252.27 2598.09 1251.15 2592.37 1248.9 2587.96C1245.34 2581.02 1239.2 2577.55 1230.48 2577.55C1222.74 2577.55 1217.12 2580.51 1213.6 2586.41C1210.09 2592.32 1208.33 2599.45 1208.33 2607.79C1208.33 2615.8 1210.09 2622.48 1213.6 2627.83C1217.12 2633.17 1222.7 2635.84 1230.34 2635.84ZM1230.83 2566.52C1240.53 2566.52 1248.73 2569.75 1255.44 2576.22C1262.14 2582.69 1265.49 2592.2 1265.49 2604.77C1265.49 2616.91 1262.54 2626.94 1256.63 2634.86C1250.73 2642.78 1241.56 2646.74 1229.14 2646.74C1218.78 2646.74 1210.55 2643.25 1204.46 2636.27C1198.37 2629.23 1195.32 2619.81 1195.32 2608C1195.32 2595.34 1198.53 2585.27 1204.95 2577.77C1211.38 2570.27 1220 2566.52 1230.83 2566.52ZM1280.33 2540.71H1292.49V2600.69L1324.98 2568.7H1341.15L1312.32 2596.89L1342.77 2644H1326.59L1303.11 2606.03L1292.49 2615.73V2644H1280.33V2540.71ZM1352.61 2569.05H1365.48V2644H1352.61V2569.05ZM1352.61 2540.71H1365.48V2555.05H1352.61V2540.71ZM1384.67 2568.7H1396.7V2579.38C1400.26 2574.98 1404.03 2571.81 1408.02 2569.89C1412 2567.97 1416.43 2567.01 1421.3 2567.01C1431.99 2567.01 1439.21 2570.73 1442.96 2578.19C1445.02 2582.27 1446.05 2588.1 1446.05 2595.7V2644H1433.19V2596.54C1433.19 2591.95 1432.51 2588.24 1431.15 2585.43C1428.9 2580.74 1424.82 2578.4 1418.91 2578.4C1415.91 2578.4 1413.45 2578.7 1411.53 2579.31C1408.06 2580.34 1405.02 2582.41 1402.39 2585.5C1400.28 2587.98 1398.9 2590.56 1398.24 2593.23C1397.63 2595.86 1397.33 2599.63 1397.33 2604.55V2644H1384.67V2568.7ZM1491.41 2567.36C1497.31 2567.36 1502.47 2568.81 1506.88 2571.72C1509.27 2573.36 1511.7 2575.75 1514.19 2578.89V2569.4H1525.86V2637.88C1525.86 2647.45 1524.45 2654.99 1521.64 2660.52C1516.39 2670.74 1506.48 2675.85 1491.9 2675.85C1483.79 2675.85 1476.97 2674.02 1471.44 2670.37C1465.91 2666.76 1462.81 2661.09 1462.16 2653.35H1475.02C1475.63 2656.73 1476.85 2659.33 1478.68 2661.16C1481.54 2663.97 1486.04 2665.38 1492.18 2665.38C1501.88 2665.38 1508.23 2661.95 1511.23 2655.11C1513.02 2651.08 1513.84 2643.88 1513.7 2633.52C1511.16 2637.37 1508.12 2640.23 1504.55 2642.1C1500.99 2643.98 1496.28 2644.91 1490.42 2644.91C1482.27 2644.91 1475.12 2642.03 1468.98 2636.27C1462.88 2630.45 1459.84 2620.87 1459.84 2607.51C1459.84 2594.9 1462.91 2585.05 1469.05 2577.98C1475.23 2570.9 1482.69 2567.36 1491.41 2567.36ZM1514.19 2606.03C1514.19 2596.7 1512.27 2589.79 1508.42 2585.29C1504.58 2580.79 1499.68 2578.54 1493.73 2578.54C1484.82 2578.54 1478.73 2582.71 1475.45 2591.05C1473.71 2595.51 1472.84 2601.34 1472.84 2608.56C1472.84 2617.05 1474.55 2623.52 1477.98 2627.97C1481.45 2632.38 1486.09 2634.58 1491.9 2634.58C1500.99 2634.58 1507.39 2630.48 1511.09 2622.27C1513.16 2617.63 1514.19 2612.22 1514.19 2606.03ZM1595.89 2610.67C1596.22 2616.53 1597.6 2621.29 1600.04 2624.95C1604.68 2631.79 1612.86 2635.21 1624.58 2635.21C1629.83 2635.21 1634.61 2634.46 1638.92 2632.96C1647.27 2630.05 1651.44 2624.85 1651.44 2617.35C1651.44 2611.73 1649.68 2607.72 1646.16 2605.33C1642.6 2602.98 1637.02 2600.95 1629.43 2599.21L1615.44 2596.05C1606.3 2593.98 1599.83 2591.71 1596.03 2589.23C1589.47 2584.91 1586.19 2578.47 1586.19 2569.89C1586.19 2560.61 1589.4 2552.99 1595.82 2547.04C1602.24 2541.09 1611.34 2538.11 1623.1 2538.11C1633.93 2538.11 1643.12 2540.73 1650.66 2545.98C1658.26 2551.19 1662.05 2559.53 1662.05 2571.02H1648.91C1648.2 2565.48 1646.7 2561.24 1644.41 2558.29C1640.14 2552.9 1632.9 2550.2 1622.68 2550.2C1614.43 2550.2 1608.5 2551.94 1604.89 2555.41C1601.28 2558.88 1599.48 2562.91 1599.48 2567.5C1599.48 2572.56 1601.59 2576.27 1605.8 2578.61C1608.57 2580.11 1614.83 2581.98 1624.58 2584.23L1639.06 2587.54C1646.05 2589.13 1651.44 2591.31 1655.23 2594.08C1661.8 2598.91 1665.08 2605.91 1665.08 2615.1C1665.08 2626.54 1660.91 2634.72 1652.56 2639.64C1644.27 2644.56 1634.61 2647.02 1623.59 2647.02C1610.75 2647.02 1600.7 2643.74 1593.43 2637.18C1586.16 2630.66 1582.6 2621.83 1582.74 2610.67H1595.89ZM1712.47 2567.01C1717.81 2567.01 1722.99 2568.27 1728.01 2570.8C1733.02 2573.29 1736.84 2576.52 1739.47 2580.51C1742 2584.3 1743.69 2588.73 1744.53 2593.8C1745.28 2597.27 1745.66 2602.8 1745.66 2610.39H1690.46C1690.7 2618.03 1692.5 2624.17 1695.88 2628.81C1699.25 2633.41 1704.48 2635.7 1711.55 2635.7C1718.16 2635.7 1723.44 2633.52 1727.38 2629.16C1729.62 2626.63 1731.22 2623.7 1732.16 2620.38H1744.6C1744.27 2623.14 1743.17 2626.23 1741.3 2629.66C1739.47 2633.03 1737.41 2635.8 1735.11 2637.95C1731.27 2641.7 1726.51 2644.23 1720.84 2645.55C1717.79 2646.3 1714.34 2646.67 1710.5 2646.67C1701.12 2646.67 1693.18 2643.27 1686.66 2636.48C1680.15 2629.63 1676.89 2620.07 1676.89 2607.79C1676.89 2595.7 1680.17 2585.88 1686.73 2578.33C1693.3 2570.78 1701.88 2567.01 1712.47 2567.01ZM1732.65 2600.34C1732.13 2594.85 1730.94 2590.47 1729.06 2587.19C1725.59 2581.09 1719.8 2578.05 1711.7 2578.05C1705.88 2578.05 1701.01 2580.16 1697.07 2584.38C1693.13 2588.55 1691.05 2593.87 1690.81 2600.34H1732.65ZM1790.3 2566.52C1798.79 2566.52 1805.68 2568.58 1810.98 2572.7C1816.32 2576.83 1819.53 2583.93 1820.61 2594.01H1808.3C1807.55 2589.37 1805.84 2585.52 1803.17 2582.48C1800.5 2579.38 1796.21 2577.84 1790.3 2577.84C1782.24 2577.84 1776.48 2581.77 1773.01 2589.65C1770.76 2594.76 1769.63 2601.06 1769.63 2608.56C1769.63 2616.11 1771.23 2622.46 1774.41 2627.62C1777.6 2632.77 1782.62 2635.35 1789.46 2635.35C1794.71 2635.35 1798.86 2633.76 1801.91 2630.57C1805 2627.34 1807.13 2622.93 1808.3 2617.35H1820.61C1819.2 2627.34 1815.69 2634.65 1810.06 2639.29C1804.44 2643.88 1797.24 2646.18 1788.48 2646.18C1778.63 2646.18 1770.78 2642.59 1764.92 2635.42C1759.06 2628.2 1756.13 2619.2 1756.13 2608.42C1756.13 2595.2 1759.34 2584.91 1765.77 2577.55C1772.19 2570.2 1780.37 2566.52 1790.3 2566.52ZM1833.62 2568.7H1845.64V2581.7C1846.62 2579.17 1849.04 2576.1 1852.88 2572.49C1856.73 2568.84 1861.16 2567.01 1866.17 2567.01C1866.41 2567.01 1866.8 2567.03 1867.37 2567.08C1867.93 2567.12 1868.89 2567.22 1870.25 2567.36V2580.72C1869.5 2580.58 1868.8 2580.48 1868.14 2580.44C1867.53 2580.39 1866.85 2580.37 1866.1 2580.37C1859.73 2580.37 1854.83 2582.43 1851.41 2586.55C1847.98 2590.63 1846.27 2595.34 1846.27 2600.69V2644H1833.62V2568.7ZM1912.58 2567.01C1917.92 2567.01 1923.1 2568.27 1928.12 2570.8C1933.13 2573.29 1936.95 2576.52 1939.58 2580.51C1942.11 2584.3 1943.8 2588.73 1944.64 2593.8C1945.39 2597.27 1945.77 2602.8 1945.77 2610.39H1890.57C1890.8 2618.03 1892.61 2624.17 1895.98 2628.81C1899.36 2633.41 1904.59 2635.7 1911.66 2635.7C1918.27 2635.7 1923.55 2633.52 1927.48 2629.16C1929.73 2626.63 1931.33 2623.7 1932.27 2620.38H1944.71C1944.38 2623.14 1943.28 2626.23 1941.41 2629.66C1939.58 2633.03 1937.52 2635.8 1935.22 2637.95C1931.38 2641.7 1926.62 2644.23 1920.95 2645.55C1917.9 2646.3 1914.45 2646.67 1910.61 2646.67C1901.23 2646.67 1893.29 2643.27 1886.77 2636.48C1880.26 2629.63 1877 2620.07 1877 2607.79C1877 2595.7 1880.28 2585.88 1886.84 2578.33C1893.41 2570.78 1901.98 2567.01 1912.58 2567.01ZM1932.76 2600.34C1932.24 2594.85 1931.05 2590.47 1929.17 2587.19C1925.7 2581.09 1919.91 2578.05 1911.8 2578.05C1905.99 2578.05 1901.12 2580.16 1897.18 2584.38C1893.24 2588.55 1891.16 2593.87 1890.92 2600.34H1932.76ZM1963.91 2547.67H1976.7V2568.7H1988.73V2579.03H1976.7V2628.18C1976.7 2630.8 1977.59 2632.56 1979.38 2633.45C1980.36 2633.97 1982 2634.23 1984.3 2634.23C1984.91 2634.23 1985.56 2634.23 1986.27 2634.23C1986.97 2634.18 1987.79 2634.11 1988.73 2634.02V2644C1987.27 2644.42 1985.75 2644.73 1984.16 2644.91C1982.61 2645.1 1980.92 2645.2 1979.09 2645.2C1973.19 2645.2 1969.18 2643.7 1967.07 2640.7C1964.96 2637.65 1963.91 2633.71 1963.91 2628.88V2579.03H1953.71V2568.7H1963.91V2547.67ZM2008.98 2620.38C2009.35 2624.59 2010.41 2627.83 2012.14 2630.08C2015.33 2634.16 2020.86 2636.2 2028.73 2636.2C2033.42 2636.2 2037.55 2635.19 2041.11 2633.17C2044.67 2631.11 2046.45 2627.95 2046.45 2623.68C2046.45 2620.45 2045.02 2617.98 2042.16 2616.3C2040.34 2615.27 2036.73 2614.07 2031.34 2612.71L2021.28 2610.18C2014.86 2608.59 2010.12 2606.8 2007.08 2604.84C2001.64 2601.41 1998.92 2596.68 1998.92 2590.63C1998.92 2583.51 2001.48 2577.74 2006.59 2573.34C2011.74 2568.93 2018.66 2566.73 2027.33 2566.73C2038.67 2566.73 2046.85 2570.05 2051.87 2576.71C2055.01 2580.93 2056.53 2585.48 2056.44 2590.35H2044.48C2044.25 2587.49 2043.24 2584.89 2041.46 2582.55C2038.55 2579.22 2033.52 2577.55 2026.34 2577.55C2021.56 2577.55 2017.93 2578.47 2015.45 2580.3C2013.01 2582.12 2011.79 2584.54 2011.79 2587.54C2011.79 2590.82 2013.41 2593.45 2016.64 2595.41C2018.52 2596.59 2021.28 2597.62 2024.94 2598.51L2033.3 2600.55C2042.4 2602.75 2048.49 2604.88 2051.59 2606.95C2056.51 2610.18 2058.97 2615.27 2058.97 2622.2C2058.97 2628.91 2056.41 2634.7 2051.3 2639.57C2046.24 2644.45 2038.51 2646.88 2028.1 2646.88C2016.9 2646.88 2008.95 2644.35 2004.27 2639.29C1999.62 2634.18 1997.14 2627.88 1996.81 2620.38H2008.98Z" fill="black"/>
</svg>
