<svg width="390" height="798" viewBox="0 0 390 798" fill="none" xmlns="http://www.w3.org/2000/svg">
<rect width="360" height="640" transform="translate(15 79)" fill="white"/>
<rect x="69" y="458" width="246" height="20" rx="8" fill="url(#paint0_linear)"/>
<g filter="url(#filter0_ddddii)">
<circle cx="308.5" cy="467.5" r="12.5" fill="white"/>
<circle cx="308.5" cy="467.5" r="12" stroke="#C90101"/>
</g>
<g filter="url(#filter1_dd)">
<rect x="78" y="527" width="56" height="50" fill="#057F05"/>
</g>
<path opacity="0.5" d="M95.231 559.857L98.1028 557H118.205V539.857H95.231V559.857Z" fill="white"/>
<path fill-rule="evenodd" clip-rule="evenodd" d="M95.2307 537H118.205C119.785 537 121.077 538.286 121.077 539.857V557C121.077 558.571 119.785 559.857 118.205 559.857H98.1025L92.3589 565.571V539.857C92.3589 538.286 93.6512 537 95.2307 537ZM98.1025 557H118.205V539.857H95.2307V559.857L98.1025 557Z" fill="white"/>
<g filter="url(#filter2_d)">
<path d="M83.1 434.2C82.1 434.2 81.2067 434.013 80.42 433.64C79.6467 433.267 79.0333 432.693 78.58 431.92C78.1267 431.133 77.9 430.12 77.9 428.88V421.92L76.3 421.12V420.8H81.3V421.12L79.7 421.92V428.58C79.7 429.687 79.8733 430.567 80.22 431.22C80.5667 431.873 81.0333 432.34 81.62 432.62C82.22 432.9 82.8867 433.04 83.62 433.04C84.2067 433.04 84.7467 432.913 85.24 432.66C85.7467 432.407 86.1467 432.007 86.44 431.46C86.7467 430.913 86.9 430.187 86.9 429.28V421.88L84.9 421.12V420.8H89.88V421.12L88.3 421.9V428.88C88.3 430.12 88.0733 431.133 87.62 431.92C87.1667 432.693 86.5467 433.267 85.76 433.64C84.9867 434.013 84.1 434.2 83.1 434.2ZM92.4719 434V433.68L93.9119 433.02V423.78L92.4719 423.12V422.8H96.9119C98.1519 422.8 99.1252 423.053 99.8319 423.56C100.552 424.067 100.912 424.76 100.912 425.64C100.912 426.293 100.705 426.853 100.292 427.32C99.8919 427.787 99.3319 428.153 98.6119 428.42L101.712 433.08L103.032 433.68V434H100.192L96.9519 428.9H95.5919V433L96.9119 433.68V434H92.4719ZM96.6319 423.8H95.5919V427.9H96.7319C97.4519 427.9 98.0252 427.72 98.4519 427.36C98.8919 426.987 99.1119 426.48 99.1119 425.84C99.1119 425.16 98.8919 424.653 98.4519 424.32C98.0252 423.973 97.4185 423.8 96.6319 423.8ZM110.15 434.2C109.03 434.2 108.03 433.967 107.15 433.5C106.283 433.02 105.596 432.367 105.09 431.54C104.583 430.713 104.33 429.773 104.33 428.72C104.33 427.84 104.49 427.033 104.81 426.3C105.13 425.553 105.57 424.907 106.13 424.36C106.69 423.8 107.336 423.367 108.07 423.06C108.816 422.753 109.61 422.6 110.45 422.6C111.356 422.6 112.07 422.68 112.59 422.84C113.11 422.987 113.616 423.18 114.11 423.42L114.21 426.26H113.93L112.81 424.34C112.33 424.007 111.916 423.78 111.57 423.66C111.236 423.527 110.85 423.46 110.41 423.46C109.53 423.46 108.75 423.653 108.07 424.04C107.39 424.413 106.85 424.933 106.45 425.6C106.063 426.267 105.87 427.02 105.87 427.86C105.87 428.993 106.076 429.96 106.49 430.76C106.916 431.547 107.483 432.153 108.19 432.58C108.896 432.993 109.683 433.2 110.55 433.2C110.963 433.2 111.356 433.173 111.73 433.12C112.116 433.067 112.51 432.953 112.91 432.78V430L111.37 429.32V429.04H115.63V429.32L114.45 430.06V432.76C114.103 433.053 113.683 433.307 113.19 433.52C112.71 433.733 112.203 433.9 111.67 434.02C111.136 434.14 110.63 434.2 110.15 434.2ZM117.921 434V433.68L119.341 433.02V423.78L117.921 423.12V422.8H126.461V425.64H126.141L125.181 423.8H121.041V427.7H124.061L124.661 426.34H124.981V430.04H124.661L124.061 428.7H121.041V433H125.641L126.641 430.84H126.961V434H117.921ZM129.559 434V433.68L130.979 433.02V423.76L129.559 423.12V422.8H132.359L139.139 431.02V423.76L137.439 423.12V422.8H141.639V423.12L140.239 423.76V434.08H139.459L132.079 425.2V432.96L133.799 433.68V434H129.559ZM150.172 434.2C149.025 434.2 148.005 433.96 147.112 433.48C146.219 433 145.512 432.347 144.992 431.52C144.485 430.68 144.232 429.733 144.232 428.68C144.232 427.8 144.399 426.987 144.732 426.24C145.065 425.493 145.519 424.847 146.092 424.3C146.665 423.753 147.325 423.333 148.072 423.04C148.819 422.733 149.612 422.58 150.452 422.58C151.319 422.58 151.999 422.667 152.492 422.84C152.999 423 153.492 423.193 153.972 423.42L154.032 426.2H153.712L152.672 424.3C152.312 424.033 151.952 423.847 151.592 423.74C151.232 423.633 150.839 423.58 150.412 423.58C149.545 423.58 148.772 423.787 148.092 424.2C147.425 424.613 146.899 425.18 146.512 425.9C146.125 426.607 145.932 427.4 145.932 428.28C145.932 429.867 146.339 431.087 147.152 431.94C147.979 432.78 149.079 433.2 150.452 433.2C150.892 433.2 151.279 433.167 151.612 433.1C151.945 433.033 152.265 432.92 152.572 432.76L153.912 430.7H154.232L154.072 433.34C153.579 433.593 153.025 433.8 152.412 433.96C151.812 434.12 151.065 434.2 150.172 434.2ZM159.784 434V433.68L161.344 433.02V428.66L157.684 423.72L156.384 423.12V422.8H160.884V423.12L159.684 423.72V423.8L162.584 427.66L165.224 423.82V423.76L163.964 423.12V422.8H167.884V423.12L166.564 423.74L163.044 428.74V433.02L164.604 433.68V434H159.784ZM178.854 434.2C178.028 434.2 177.328 434.127 176.754 433.98C176.181 433.82 175.588 433.587 174.974 433.28L174.774 430H175.094L176.074 432.12C176.554 432.52 177.021 432.813 177.474 433C177.928 433.173 178.388 433.26 178.854 433.26C179.641 433.26 180.254 433.053 180.694 432.64C181.148 432.227 181.374 431.667 181.374 430.96C181.374 430.373 181.241 429.913 180.974 429.58C180.721 429.247 180.348 428.953 179.854 428.7C179.374 428.433 178.801 428.133 178.134 427.8C177.508 427.48 176.974 427.167 176.534 426.86C176.094 426.553 175.761 426.2 175.534 425.8C175.308 425.387 175.194 424.873 175.194 424.26C175.194 423.807 175.301 423.367 175.514 422.94C175.741 422.5 176.041 422.107 176.414 421.76C176.801 421.4 177.228 421.12 177.694 420.92C178.174 420.707 178.668 420.6 179.174 420.6C179.788 420.6 180.354 420.673 180.874 420.82C181.394 420.967 181.928 421.173 182.474 421.44L182.674 424.64H182.354L181.434 422.54C180.968 422.193 180.561 421.947 180.214 421.8C179.868 421.64 179.468 421.56 179.014 421.56C178.428 421.56 177.941 421.76 177.554 422.16C177.181 422.56 176.994 423.053 176.994 423.64C176.994 424.32 177.201 424.853 177.614 425.24C178.028 425.613 178.674 426.013 179.554 426.44C180.368 426.84 181.034 427.213 181.554 427.56C182.074 427.893 182.461 428.28 182.714 428.72C182.968 429.16 183.094 429.72 183.094 430.4C183.094 431.027 182.961 431.58 182.694 432.06C182.428 432.527 182.081 432.92 181.654 433.24C181.241 433.56 180.781 433.8 180.274 433.96C179.781 434.12 179.308 434.2 178.854 434.2ZM191.539 434.2C190.393 434.2 189.373 433.96 188.479 433.48C187.586 433 186.879 432.347 186.359 431.52C185.853 430.68 185.599 429.733 185.599 428.68C185.599 427.8 185.766 426.987 186.099 426.24C186.433 425.493 186.886 424.847 187.459 424.3C188.033 423.753 188.693 423.333 189.439 423.04C190.186 422.733 190.979 422.58 191.819 422.58C192.686 422.58 193.366 422.667 193.859 422.84C194.366 423 194.859 423.193 195.339 423.42L195.399 426.2H195.079L194.039 424.3C193.679 424.033 193.319 423.847 192.959 423.74C192.599 423.633 192.206 423.58 191.779 423.58C190.913 423.58 190.139 423.787 189.459 424.2C188.793 424.613 188.266 425.18 187.879 425.9C187.493 426.607 187.299 427.4 187.299 428.28C187.299 429.867 187.706 431.087 188.519 431.94C189.346 432.78 190.446 433.2 191.819 433.2C192.259 433.2 192.646 433.167 192.979 433.1C193.313 433.033 193.633 432.92 193.939 432.76L195.279 430.7H195.599L195.439 433.34C194.946 433.593 194.393 433.8 193.779 433.96C193.179 434.12 192.433 434.2 191.539 434.2ZM197.711 434V433.68L198.731 433.16L203.171 422.7H204.011L208.431 433.14L209.591 433.68V434H205.231V433.68L206.631 433.12L205.371 430.08H201.211L199.951 433.16L201.431 433.68V434H197.711ZM201.631 429.08H204.951L203.271 425.04L201.631 429.08ZM211.554 434V433.68L212.974 433.02V423.78L211.554 423.12V422.8H216.294V423.12L214.674 423.78V433H219.014L220.194 430.16H220.514V434H211.554ZM223.019 434V433.68L224.439 433.02V423.78L223.019 423.12V422.8H231.559V425.64H231.239L230.279 423.8H226.139V427.7H229.159L229.759 426.34H230.079V430.04H229.759L229.159 428.7H226.139V433H230.739L231.739 430.84H232.059V434H223.019Z" fill="#C90101"/>
</g>
<g filter="url(#filter3_dd)">
<rect x="164" y="527" width="56" height="50" fill="#057F05"/>
</g>
<g clip-path="url(#clip0)">
<path opacity="0.5" d="M184.778 546.252C184.575 545.19 184.465 544.126 184.449 543.039L182.284 542.851C182.299 544.536 182.52 546.197 182.908 547.813L184.778 546.252Z" fill="white"/>
<path opacity="0.5" d="M200.095 561.568C199.042 561.365 197.999 561.062 196.972 560.688L195.091 562.258C196.621 562.939 198.229 563.424 199.903 563.742L200.095 561.568Z" fill="white"/>
<path fill-rule="evenodd" clip-rule="evenodd" d="M185.127 558.268C189.318 563.236 195.078 566.111 201.072 566.795C201.436 566.826 201.813 566.717 202.121 566.46C202.429 566.203 202.602 565.853 202.634 565.491L203.073 560.499C203.105 560.137 202.995 559.762 202.737 559.456C202.488 559.161 202.136 558.988 201.783 558.947C200.24 558.762 198.727 558.347 197.293 557.735C196.812 557.521 196.226 557.581 195.786 557.949L192.376 560.795C190.51 559.649 188.804 558.182 187.327 556.432C185.851 554.681 184.695 552.755 183.874 550.736L187.283 547.89C187.712 547.532 187.885 546.959 187.757 546.45C187.391 544.928 187.263 543.376 187.336 541.841C187.368 541.478 187.247 541.113 186.998 540.818C186.74 540.511 186.388 540.339 186.024 540.307L181.007 539.87C180.643 539.838 180.266 539.948 179.958 540.205C179.661 540.453 179.488 540.803 179.456 541.165C179.092 547.156 180.937 553.3 185.127 558.268ZM196.972 560.688C197.988 561.071 199.042 561.365 200.095 561.568L199.905 563.722C198.241 563.415 196.623 562.919 195.093 562.238L196.963 560.677L196.972 560.688ZM184.778 546.252C184.575 545.19 184.465 544.126 184.449 543.039L182.284 542.851C182.299 544.536 182.509 546.207 182.908 547.813L184.778 546.252Z" fill="white"/>
<path d="M204.396 550.548L204.646 553.386C204.646 553.386 211.69 552.702 211.838 552.77L211.589 549.933L204.396 550.548Z" fill="white"/>
<path d="M204.594 538.779L206.794 540.615L202.179 546.087L199.979 544.251L204.594 538.779Z" fill="white"/>
<path d="M192.326 543.102L195.179 542.853L194.56 535.698L191.687 535.948C191.78 536.082 192.326 543.102 192.326 543.102Z" fill="white"/>
</g>
<g filter="url(#filter4_dd)">
<rect x="250" y="527" width="56" height="50" fill="#C90101"/>
</g>
<path opacity="0.5" fill-rule="evenodd" clip-rule="evenodd" d="M284.462 558.429H267.231V544.143H284.462V558.429ZM272.975 549.857V547L268.667 551.286L272.975 555.571V552.714H278.718V555.571L283.026 551.286L278.718 547V549.857H272.975Z" fill="white"/>
<path d="M272.975 552.714H278.718V555.571L283.026 551.286L278.718 547V549.857H272.975V547L268.667 551.286L272.975 555.571V552.714Z" fill="white"/>
<path fill-rule="evenodd" clip-rule="evenodd" d="M287.333 542.714V547.714L293.077 542V560.571L287.333 554.857V559.857C287.333 560.643 286.687 561.286 285.897 561.286H265.795C265.005 561.286 264.359 560.643 264.359 559.857V542.714C264.359 541.929 265.005 541.286 265.795 541.286H285.897C286.687 541.286 287.333 541.929 287.333 542.714ZM267.231 558.429H284.461V544.143H267.231V558.429Z" fill="white"/>
<g filter="url(#filter5_dd)">
<rect x="145" y="626" width="100" height="41" rx="8" fill="white"/>
<rect x="145.5" y="626.5" width="99" height="40" rx="7.5" stroke="#C90101"/>
</g>
<path d="M168.903 653.141C168.252 653.447 167.513 653.691 166.687 653.873C165.86 654.049 165.065 654.137 164.304 654.137C162.168 654.137 160.537 653.515 159.411 652.271C158.285 651.021 157.722 649.225 157.722 646.881C157.722 645.39 157.989 644.104 158.522 643.023C159.056 641.943 159.825 641.116 160.827 640.543C161.836 639.97 163.041 639.684 164.44 639.684C165.176 639.684 165.918 639.785 166.667 639.986C167.422 640.182 168.135 640.471 168.806 640.855L168.005 642.418C167.367 642.099 166.761 641.865 166.188 641.715C165.616 641.559 165.033 641.48 164.44 641.48C162.937 641.48 161.774 641.949 160.954 642.887C160.134 643.818 159.724 645.149 159.724 646.881C159.724 648.626 160.127 649.973 160.935 650.924C161.742 651.868 162.891 652.34 164.382 652.34C165.235 652.34 166.104 652.206 166.989 651.939V646.959H168.903V653.141ZM172.79 649.195C172.842 650.263 173.129 651.08 173.649 651.646C174.17 652.213 174.903 652.496 175.847 652.496C176.368 652.496 176.869 652.441 177.351 652.33C177.839 652.219 178.392 652.031 179.011 651.764L179.606 653.16C178.897 653.505 178.233 653.759 177.614 653.922C176.996 654.078 176.374 654.156 175.749 654.156C174.2 654.156 172.998 653.691 172.146 652.76C171.293 651.829 170.866 650.523 170.866 648.844C170.866 647.164 171.286 645.862 172.126 644.938C172.966 644.007 174.154 643.541 175.69 643.541C177.129 643.541 178.2 643.974 178.903 644.84C179.613 645.706 179.968 647.018 179.968 648.775V649.195H172.79ZM178.024 647.623C177.972 646.822 177.744 646.22 177.341 645.816C176.944 645.406 176.394 645.201 175.69 645.201C174.128 645.201 173.194 646.008 172.888 647.623H178.024ZM188.005 653.658C187.23 653.964 186.511 654.117 185.847 654.117C184.857 654.117 184.102 653.863 183.581 653.355C183.067 652.841 182.81 652.089 182.81 651.1V645.338H181.013V643.717H182.907L183.308 640.777H184.694V643.717H187.829V645.338H184.694V650.797C184.694 651.383 184.808 651.803 185.036 652.057C185.271 652.311 185.655 652.438 186.188 652.438C186.657 652.438 187.146 652.353 187.653 652.184L188.005 653.658ZM204.479 639.84H206.403V654H204.479V647.496H197.243V654H195.319V639.84H197.243V645.797H204.479V639.84ZM211.052 649.195C211.104 650.263 211.39 651.08 211.911 651.646C212.432 652.213 213.164 652.496 214.108 652.496C214.629 652.496 215.131 652.441 215.612 652.33C216.101 652.219 216.654 652.031 217.272 651.764L217.868 653.16C217.159 653.505 216.494 653.759 215.876 653.922C215.257 654.078 214.636 654.156 214.011 654.156C212.461 654.156 211.26 653.691 210.407 652.76C209.554 651.829 209.128 650.523 209.128 648.844C209.128 647.164 209.548 645.862 210.388 644.938C211.228 644.007 212.416 643.541 213.952 643.541C215.391 643.541 216.462 643.974 217.165 644.84C217.875 645.706 218.229 647.018 218.229 648.775V649.195H211.052ZM216.286 647.623C216.234 646.822 216.006 646.22 215.603 645.816C215.205 645.406 214.655 645.201 213.952 645.201C212.39 645.201 211.455 646.008 211.149 647.623H216.286ZM220.651 639H222.526V654H220.651V639ZM230.671 643.561C232.11 643.561 233.22 644.007 234.001 644.898C234.789 645.79 235.183 647.057 235.183 648.697C235.183 650.403 234.717 651.744 233.786 652.721C232.855 653.691 231.563 654.176 229.909 654.176C229.284 654.176 228.555 654.085 227.722 653.902V658.717H225.847V643.736H227.351L227.604 645.016C228.047 644.508 228.513 644.14 229.001 643.912C229.496 643.678 230.052 643.561 230.671 643.561ZM229.89 652.516C230.957 652.516 231.787 652.18 232.38 651.51C232.972 650.839 233.269 649.902 233.269 648.697C233.269 647.59 233.031 646.734 232.556 646.129C232.08 645.523 231.41 645.221 230.544 645.221C229.867 645.221 229.284 645.39 228.796 645.729C228.308 646.067 227.95 646.565 227.722 647.223V652.223C228.269 652.353 228.669 652.434 228.923 652.467C229.177 652.499 229.499 652.516 229.89 652.516Z" fill="#C90101"/>
<g filter="url(#filter6_dd)">
<path d="M75.2918 142.882L73.1181 140.708L64.5002 149.326L55.8822 140.708L53.7085 142.882L62.3264 151.5L53.7085 160.118L55.8822 162.292L64.5002 153.674L73.1181 162.292L75.2918 160.118L66.6739 151.5L75.2918 142.882Z" fill="#C90101"/>
</g>
<path d="M2.10023 104.165C1.6684 104.208 1.26609 104.403 0.965998 104.716C0.665896 105.028 0.487793 105.436 0.463867 105.868V130.569C0.494032 130.996 0.674902 131.399 0.974423 131.705C1.27394 132.012 1.67277 132.203 2.10023 132.245H5.37296V104.165H2.10023Z" fill="url(#paint1_linear)"/>
<path d="M2.1 172.272C1.54287 172.322 1.02288 172.572 0.63664 172.975C0.250401 173.378 0.0241766 173.907 0 174.464V230.976C0.0241766 231.534 0.250401 232.063 0.63664 232.466C1.02288 232.869 1.54287 233.118 2.1 233.168H16.8273C17.3844 233.118 17.9044 232.869 18.2907 232.466C18.6769 232.063 18.9031 231.534 18.9273 230.976V174.029C18.9031 173.472 18.6769 172.943 18.2907 172.54C17.9044 172.137 17.3844 171.887 16.8273 171.837L2.1 172.272Z" fill="url(#paint2_linear)"/>
<path d="M2.10906 174.029C1.66165 174.063 1.24239 174.259 0.931918 174.582C0.621451 174.905 0.441702 175.331 0.427246 175.777V229.219C0.439496 229.668 0.618264 230.095 0.928948 230.42C1.23962 230.745 1.66013 230.943 2.10906 230.977H6.30906L12.6727 200.75L5.45452 174.029H2.10906Z" fill="url(#paint3_linear)"/>
<path d="M2.1 247.796C1.54066 247.845 1.01836 248.096 0.631541 248.5C0.244721 248.906 0.0200957 249.439 0 249.998V306.51C0.0241766 307.067 0.250401 307.596 0.63664 307.999C1.02288 308.402 1.54287 308.652 2.1 308.702H16.8273C17.3844 308.652 17.9044 308.402 18.2907 307.999C18.6769 307.596 18.9031 307.067 18.9273 306.51V249.544C18.9031 248.987 18.6769 248.458 18.2907 248.055C17.9044 247.652 17.3844 247.403 16.8273 247.353L2.1 247.796Z" fill="url(#paint4_linear)"/>
<path d="M2.10906 249.544C1.66013 249.578 1.23962 249.776 0.928948 250.101C0.618264 250.426 0.439496 250.853 0.427246 251.302V304.744C0.439496 305.192 0.618264 305.619 0.928948 305.945C1.23962 306.269 1.66013 306.467 2.10906 306.501H9.68179V249.544H2.10906Z" fill="url(#paint5_linear)"/>
<path d="M387.9 232.661C388.458 232.613 388.979 232.364 389.366 231.96C389.752 231.557 389.977 231.026 390 230.469V173.957C389.975 173.4 389.749 172.871 389.364 172.468C388.977 172.064 388.457 171.814 387.9 171.765H373.173C372.615 171.814 372.095 172.064 371.71 172.468C371.323 172.871 371.097 173.4 371.073 173.957V230.912C371.097 231.47 371.323 231.999 371.71 232.402C372.095 232.805 372.615 233.055 373.173 233.105L387.9 232.661Z" fill="url(#paint6_linear)"/>
<path d="M387.891 230.912C388.34 230.88 388.76 230.681 389.071 230.356C389.382 230.031 389.56 229.604 389.573 229.155V175.723C389.56 175.275 389.382 174.847 389.071 174.522C388.76 174.198 388.34 173.999 387.891 173.966H380.318V230.921L387.891 230.912Z" fill="url(#paint7_linear)"/>
<path d="M329.918 0H60.0816C28.0816 0 2.14528 26.0052 2.14528 58.0792V739.929C2.12257 747.533 3.60312 755.067 6.50241 762.1C9.40169 769.132 13.6629 775.528 19.0428 780.92C24.4227 786.312 30.8159 790.596 37.8574 793.527C44.8988 796.457 52.4506 797.977 60.0816 798H329.918C337.549 797.977 345.1 796.457 352.143 793.527C359.183 790.596 365.577 786.312 370.957 780.92C376.337 775.528 380.598 769.132 383.497 762.1C386.396 755.067 387.877 747.533 387.854 739.929V58.0792C387.854 26.0052 361.918 0 329.918 0ZM365.209 700.899H24.7907V97.101H365.209V700.899Z" fill="#2A2A2E"/>
<path d="M331.255 2.06519H58.9634C51.7029 2.08537 44.5178 3.53082 37.8183 6.31893C31.1187 9.10703 25.0362 13.1831 19.9184 18.3144C14.8006 23.4456 10.7477 29.5313 7.99135 36.2237C5.235 42.9162 3.82922 50.0843 3.85433 57.3182V740.736C3.82922 747.969 5.235 755.138 7.99135 761.831C10.7477 768.522 14.8006 774.609 19.9184 779.74C25.0362 784.872 31.1187 788.947 37.8183 791.735C44.5178 794.523 51.7029 795.97 58.9634 795.989H331.255C338.514 795.97 345.699 794.523 352.4 791.735C359.098 788.947 365.181 784.872 370.299 779.74C375.417 774.609 379.47 768.522 382.226 761.831C384.982 755.138 386.389 747.969 386.363 740.736V57.273C386.402 42.6709 380.618 28.6515 370.283 18.2983C359.949 7.94512 345.91 2.10597 331.255 2.06519ZM365.208 700.899H24.7907V97.1009H365.208V700.899Z" fill="url(#paint8_linear)"/>
<path d="M3.63623 722.557V734.594H387.272V722.557H3.63623ZM3.63623 63.4052V75.4793H387.272V63.4052H3.63623Z" fill="#37383D"/>
<path d="M329.609 5.49817H62.2091C53.7569 5.52143 45.4482 7.67568 38.0568 11.7603C30.6653 15.8449 24.4317 21.727 19.9364 28.8585C14.613 37.1885 11.796 46.8635 11.8181 56.7387V741.261C11.7963 748.249 13.2001 755.169 15.9442 761.599C18.6885 768.03 22.7159 773.838 27.7818 778.67C37.0324 787.541 49.3706 792.497 62.2091 792.502H329.609C357.437 792.502 380 769.558 380 741.261V56.7387C380 28.4418 357.437 5.49817 329.609 5.49817ZM365.209 700.9H24.7909V97.1009H365.209V700.9Z" fill="#444441"/>
<path d="M327.782 7.24634H62.2183C48.3359 7.29192 35.0393 12.8254 25.2486 22.6316C15.4579 32.4377 9.9736 45.7147 10.0001 59.5466V739.368C9.98866 746.802 11.5689 754.154 14.6353 760.931C17.7016 767.709 22.1835 773.756 27.782 778.67C37.2777 787.054 49.5307 791.677 62.2183 791.66H327.782C341.666 791.623 354.967 786.094 364.76 776.289C374.552 766.482 380.034 753.202 380 739.368V59.5466C380.018 52.6963 378.682 45.9095 376.067 39.5738C373.453 33.238 369.611 27.4775 364.762 22.6209C359.913 17.7644 354.152 13.907 347.806 11.269C341.462 8.6311 334.657 7.26416 327.782 7.24634ZM365.21 700.9H24.7911V97.101H365.21V700.9Z" fill="#0E0F0F"/>
<path d="M224.545 734.595C222.409 728.783 218.542 723.76 213.462 720.198C208.381 716.638 202.33 714.707 196.118 714.667C189.644 714.637 183.33 716.666 178.093 720.458C172.857 724.251 168.972 729.609 167.004 735.754C165.036 741.898 165.086 748.508 167.15 754.623C169.214 760.737 173.18 766.035 178.475 769.746C183.77 773.458 190.115 775.389 196.588 775.259C203.06 775.128 209.322 772.943 214.462 769.021C219.602 765.1 223.351 759.646 225.165 753.454C226.978 747.262 226.761 740.655 224.545 734.595ZM195.772 772.448C190.326 772.417 185.01 770.778 180.499 767.737C175.987 764.696 172.482 760.39 170.427 755.365C168.372 750.338 167.858 744.819 168.953 739.502C170.046 734.186 172.698 729.311 176.573 725.496C180.447 721.682 185.37 719.098 190.718 718.072C196.067 717.044 201.601 717.621 206.621 719.729C211.64 721.836 215.919 725.38 218.917 729.91C221.916 734.441 223.498 739.757 223.463 745.183C223.413 752.461 220.465 759.42 215.268 764.532C210.071 769.645 203.049 772.491 195.745 772.448H195.772Z" fill="url(#paint9_linear)"/>
<path fill-rule="evenodd" clip-rule="evenodd" d="M140.481 53.1698C140.479 54.9689 139.764 56.6939 138.491 57.9705C137.862 58.6017 137.113 59.1027 136.288 59.4446C135.463 59.7865 134.579 59.9625 133.686 59.9625C132.793 59.9625 131.909 59.7865 131.084 59.4446C130.26 59.1027 129.511 58.6017 128.882 57.9705C127.607 56.6918 126.891 54.9629 126.891 53.1608C126.89 52.2666 127.063 51.3807 127.4 50.552C128.089 48.8841 129.412 47.5555 131.082 46.8564C132.749 46.1685 134.622 46.1685 136.291 46.8564C137.123 47.2007 137.879 47.7051 138.516 48.3408C139.152 48.9765 139.656 49.7309 140 50.5611C140.328 51.3917 140.491 52.2774 140.481 53.1698Z" fill="url(#paint10_linear)"/>
<path d="M138.045 52.4633C138.045 53.6576 137.572 54.8036 136.727 55.6516C136.311 56.0701 135.815 56.4023 135.269 56.629C134.723 56.8556 134.137 56.9723 133.545 56.9723C132.954 56.9723 132.368 56.8556 131.822 56.629C131.276 56.4023 130.78 56.0701 130.364 55.6516C129.732 55.0174 129.301 54.2114 129.129 53.3346C128.957 52.4578 129.047 51.5496 129.391 50.7242C129.612 50.175 129.943 49.6759 130.364 49.2569C130.78 48.8372 131.275 48.5042 131.821 48.2771C132.367 48.0502 132.954 47.9335 133.545 47.9343C134.739 47.9417 135.882 48.4168 136.727 49.2569C137.144 49.6779 137.476 50.1765 137.699 50.7242C137.929 51.2756 138.046 51.8665 138.045 52.4633Z" fill="black"/>
<path d="M137.746 52.4634C137.748 53.0161 137.641 53.5638 137.43 54.0752C137.219 54.5866 136.909 55.0515 136.518 55.4434C136.13 55.8361 135.668 56.148 135.157 56.3609C134.646 56.5738 134.099 56.6833 133.546 56.6833C132.992 56.6833 132.445 56.5738 131.935 56.3609C131.424 56.148 130.961 55.8361 130.573 55.4434C129.782 54.6538 129.338 53.5836 129.338 52.4679C129.338 51.3521 129.782 50.2821 130.573 49.4924C131.161 48.9055 131.91 48.5057 132.727 48.3441C133.543 48.1824 134.389 48.266 135.158 48.5845C135.927 48.9027 136.583 49.4414 137.044 50.1321C137.504 50.8226 137.748 51.6341 137.746 52.4634Z" fill="#001A49"/>
<path opacity="0.75" d="M136.145 52.3184C136.155 52.8199 136.014 53.3129 135.739 53.7335C135.466 54.1541 135.071 54.4832 134.606 54.6783C134.143 54.8733 133.631 54.9252 133.137 54.8275C132.643 54.7298 132.19 54.4868 131.836 54.13C131.358 53.6477 131.09 52.9966 131.091 52.3184C131.09 51.986 131.155 51.6567 131.282 51.3492C131.407 51.0405 131.594 50.7597 131.829 50.5232C132.064 50.2868 132.346 50.0996 132.654 49.9725C132.968 49.8561 133.302 49.8038 133.637 49.8184C133.967 49.8167 134.295 49.8815 134.6 50.0087C134.909 50.1358 135.19 50.3231 135.425 50.5594C135.661 50.7959 135.847 51.0767 135.972 51.3855C136.089 51.6828 136.147 51.9994 136.145 52.3184Z" fill="#232323" stroke="#555555" stroke-width="0.57"/>
<path d="M133.927 49.5104C132.627 49.4017 130.636 51.1136 130.292 52.9887C131.7 52.5357 133.236 50.226 133.927 49.5104Z" fill="white"/>
<path d="M225.2 48.9126H164.8C163.993 48.9558 163.235 49.3053 162.68 49.8891C162.125 50.473 161.814 51.2467 161.814 52.0511C161.814 52.8555 162.125 53.6293 162.68 54.2131C163.235 54.797 163.993 55.1465 164.8 55.1897H225.2C226.006 55.1465 226.765 54.797 227.32 54.2131C227.875 53.6293 228.185 52.8555 228.185 52.0511C228.185 51.2467 227.875 50.473 227.32 49.8891C226.765 49.3053 226.006 48.9558 225.2 48.9126Z" fill="#232426"/>
<path d="M195 31.6029C195.855 31.6101 196.691 31.3642 197.404 30.8964C198.118 30.4286 198.676 29.7601 199.008 28.9757C199.339 28.1913 199.429 27.3265 199.266 26.491C199.103 25.6555 198.695 24.8871 198.093 24.2835C197.49 23.6797 196.723 23.2679 195.884 23.1004C195.047 22.9327 194.179 23.0169 193.389 23.3421C192.6 23.6674 191.925 24.219 191.452 24.9271C190.977 25.635 190.725 26.4675 190.727 27.3186C190.725 27.8796 190.833 28.4356 191.047 28.9547C191.261 29.4738 191.575 29.9458 191.972 30.3438C192.368 30.7417 192.84 31.0577 193.36 31.2739C193.88 31.4899 194.437 31.6018 195 31.6029Z" fill="#2C2C2C"/>
<path d="M38.4817 19.9274C39.7181 19.8187 39.0999 21.132 36.409 23.7769C31.7129 28.5074 28.0053 34.1189 25.5007 40.2868C22.9961 46.4547 21.7444 53.0564 21.8181 59.7096V740.102C21.7477 746.756 23.0017 753.357 25.5077 759.525C28.0137 765.693 31.7219 771.304 36.4181 776.034C39.1454 778.67 39.7271 779.993 38.4908 779.885C37.0594 779.484 35.6959 778.874 34.4454 778.073C21.2999 770.654 13.6362 754.604 13.6362 737.575V62.2368C13.6362 45.2079 21.2999 29.0577 34.4362 21.7389C36.409 20.5976 37.7544 19.9274 38.4817 19.9274Z" fill="url(#paint11_linear)"/>
<path d="M351.537 782.608C350.3 782.716 350.919 781.403 353.609 778.758C358.306 774.027 362.013 768.416 364.518 762.249C367.022 756.08 368.274 749.478 368.201 742.825V62.4331C368.271 55.7795 367.017 49.1782 364.51 43.0105C362.005 36.8428 358.297 31.2313 353.6 26.5005C350.873 23.8646 350.291 22.5422 351.528 22.6508C352.959 23.0508 354.322 23.6614 355.573 24.4625C368.718 31.8808 376.382 47.9314 376.382 64.9602V740.299C376.382 757.328 368.718 773.478 355.582 780.796C353.609 781.938 352.264 782.608 351.537 782.608Z" fill="url(#paint12_linear)"/>
<defs>
<filter id="filter0_ddddii" x="284" y="443" width="51" height="51" filterUnits="userSpaceOnUse" color-interpolation-filters="sRGB">
<feFlood flood-opacity="0" result="BackgroundImageFix"/>
<feColorMatrix in="SourceAlpha" type="matrix" values="0 0 0 0 0 0 0 0 0 0 0 0 0 0 0 0 0 0 127 0"/>
<feOffset dx="4" dy="4"/>
<feGaussianBlur stdDeviation="5"/>
<feColorMatrix type="matrix" values="0 0 0 0 0.847059 0 0 0 0 0.847059 0 0 0 0 0.847059 0 0 0 0.9 0"/>
<feBlend mode="normal" in2="BackgroundImageFix" result="effect1_dropShadow"/>
<feColorMatrix in="SourceAlpha" type="matrix" values="0 0 0 0 0 0 0 0 0 0 0 0 0 0 0 0 0 0 127 0"/>
<feOffset dx="-4" dy="-4"/>
<feGaussianBlur stdDeviation="4"/>
<feColorMatrix type="matrix" values="0 0 0 0 1 0 0 0 0 1 0 0 0 0 1 0 0 0 0.9 0"/>
<feBlend mode="normal" in2="effect1_dropShadow" result="effect2_dropShadow"/>
<feColorMatrix in="SourceAlpha" type="matrix" values="0 0 0 0 0 0 0 0 0 0 0 0 0 0 0 0 0 0 127 0"/>
<feOffset dx="4" dy="-4"/>
<feGaussianBlur stdDeviation="4"/>
<feColorMatrix type="matrix" values="0 0 0 0 0.847059 0 0 0 0 0.847059 0 0 0 0 0.847059 0 0 0 0.2 0"/>
<feBlend mode="normal" in2="effect2_dropShadow" result="effect3_dropShadow"/>
<feColorMatrix in="SourceAlpha" type="matrix" values="0 0 0 0 0 0 0 0 0 0 0 0 0 0 0 0 0 0 127 0"/>
<feOffset dx="-4" dy="4"/>
<feGaussianBlur stdDeviation="4"/>
<feColorMatrix type="matrix" values="0 0 0 0 0.847059 0 0 0 0 0.847059 0 0 0 0 0.847059 0 0 0 0.2 0"/>
<feBlend mode="normal" in2="effect3_dropShadow" result="effect4_dropShadow"/>
<feBlend mode="normal" in="SourceGraphic" in2="effect4_dropShadow" result="shape"/>
<feColorMatrix in="SourceAlpha" type="matrix" values="0 0 0 0 0 0 0 0 0 0 0 0 0 0 0 0 0 0 127 0" result="hardAlpha"/>
<feOffset dx="-1" dy="-1"/>
<feGaussianBlur stdDeviation="1"/>
<feComposite in2="hardAlpha" operator="arithmetic" k2="-1" k3="1"/>
<feColorMatrix type="matrix" values="0 0 0 0 0.847059 0 0 0 0 0.847059 0 0 0 0 0.847059 0 0 0 0.5 0"/>
<feBlend mode="normal" in2="shape" result="effect5_innerShadow"/>
<feColorMatrix in="SourceAlpha" type="matrix" values="0 0 0 0 0 0 0 0 0 0 0 0 0 0 0 0 0 0 127 0" result="hardAlpha"/>
<feOffset dx="1" dy="1"/>
<feGaussianBlur stdDeviation="1"/>
<feComposite in2="hardAlpha" operator="arithmetic" k2="-1" k3="1"/>
<feColorMatrix type="matrix" values="0 0 0 0 1 0 0 0 0 1 0 0 0 0 1 0 0 0 0.3 0"/>
<feBlend mode="normal" in2="effect5_innerShadow" result="effect6_innerShadow"/>
</filter>
<filter id="filter1_dd" x="70" y="519" width="70" height="68" filterUnits="userSpaceOnUse" color-interpolation-filters="sRGB">
<feFlood flood-opacity="0" result="BackgroundImageFix"/>
<feColorMatrix in="SourceAlpha" type="matrix" values="0 0 0 0 0 0 0 0 0 0 0 0 0 0 0 0 0 0 127 0"/>
<feOffset dx="-4" dy="-4"/>
<feGaussianBlur stdDeviation="2"/>
<feColorMatrix type="matrix" values="0 0 0 0 1 0 0 0 0 1 0 0 0 0 1 0 0 0 1 0"/>
<feBlend mode="normal" in2="BackgroundImageFix" result="effect1_dropShadow"/>
<feColorMatrix in="SourceAlpha" type="matrix" values="0 0 0 0 0 0 0 0 0 0 0 0 0 0 0 0 0 0 127 0"/>
<feOffset dy="4"/>
<feGaussianBlur stdDeviation="3"/>
<feColorMatrix type="matrix" values="0 0 0 0 0 0 0 0 0 0 0 0 0 0 0 0 0 0 0.25 0"/>
<feBlend mode="normal" in2="effect1_dropShadow" result="effect2_dropShadow"/>
<feBlend mode="normal" in="SourceGraphic" in2="effect2_dropShadow" result="shape"/>
</filter>
<filter id="filter2_d" x="72.2998" y="420.6" width="163.759" height="21.6" filterUnits="userSpaceOnUse" color-interpolation-filters="sRGB">
<feFlood flood-opacity="0" result="BackgroundImageFix"/>
<feColorMatrix in="SourceAlpha" type="matrix" values="0 0 0 0 0 0 0 0 0 0 0 0 0 0 0 0 0 0 127 0"/>
<feOffset dy="4"/>
<feGaussianBlur stdDeviation="2"/>
<feColorMatrix type="matrix" values="0 0 0 0 0 0 0 0 0 0 0 0 0 0 0 0 0 0 0.25 0"/>
<feBlend mode="normal" in2="BackgroundImageFix" result="effect1_dropShadow"/>
<feBlend mode="normal" in="SourceGraphic" in2="effect1_dropShadow" result="shape"/>
</filter>
<filter id="filter3_dd" x="156" y="519" width="70" height="68" filterUnits="userSpaceOnUse" color-interpolation-filters="sRGB">
<feFlood flood-opacity="0" result="BackgroundImageFix"/>
<feColorMatrix in="SourceAlpha" type="matrix" values="0 0 0 0 0 0 0 0 0 0 0 0 0 0 0 0 0 0 127 0"/>
<feOffset dx="-4" dy="-4"/>
<feGaussianBlur stdDeviation="2"/>
<feColorMatrix type="matrix" values="0 0 0 0 1 0 0 0 0 1 0 0 0 0 1 0 0 0 1 0"/>
<feBlend mode="normal" in2="BackgroundImageFix" result="effect1_dropShadow"/>
<feColorMatrix in="SourceAlpha" type="matrix" values="0 0 0 0 0 0 0 0 0 0 0 0 0 0 0 0 0 0 127 0"/>
<feOffset dy="4"/>
<feGaussianBlur stdDeviation="3"/>
<feColorMatrix type="matrix" values="0 0 0 0 0 0 0 0 0 0 0 0 0 0 0 0 0 0 0.25 0"/>
<feBlend mode="normal" in2="effect1_dropShadow" result="effect2_dropShadow"/>
<feBlend mode="normal" in="SourceGraphic" in2="effect2_dropShadow" result="shape"/>
</filter>
<filter id="filter4_dd" x="242" y="519" width="70" height="68" filterUnits="userSpaceOnUse" color-interpolation-filters="sRGB">
<feFlood flood-opacity="0" result="BackgroundImageFix"/>
<feColorMatrix in="SourceAlpha" type="matrix" values="0 0 0 0 0 0 0 0 0 0 0 0 0 0 0 0 0 0 127 0"/>
<feOffset dx="-4" dy="-4"/>
<feGaussianBlur stdDeviation="2"/>
<feColorMatrix type="matrix" values="0 0 0 0 1 0 0 0 0 1 0 0 0 0 1 0 0 0 1 0"/>
<feBlend mode="normal" in2="BackgroundImageFix" result="effect1_dropShadow"/>
<feColorMatrix in="SourceAlpha" type="matrix" values="0 0 0 0 0 0 0 0 0 0 0 0 0 0 0 0 0 0 127 0"/>
<feOffset dy="4"/>
<feGaussianBlur stdDeviation="3"/>
<feColorMatrix type="matrix" values="0 0 0 0 0 0 0 0 0 0 0 0 0 0 0 0 0 0 0.25 0"/>
<feBlend mode="normal" in2="effect1_dropShadow" result="effect2_dropShadow"/>
<feBlend mode="normal" in="SourceGraphic" in2="effect2_dropShadow" result="shape"/>
</filter>
<filter id="filter5_dd" x="137" y="618" width="114" height="59" filterUnits="userSpaceOnUse" color-interpolation-filters="sRGB">
<feFlood flood-opacity="0" result="BackgroundImageFix"/>
<feColorMatrix in="SourceAlpha" type="matrix" values="0 0 0 0 0 0 0 0 0 0 0 0 0 0 0 0 0 0 127 0"/>
<feOffset dx="-4" dy="-4"/>
<feGaussianBlur stdDeviation="2"/>
<feColorMatrix type="matrix" values="0 0 0 0 1 0 0 0 0 1 0 0 0 0 1 0 0 0 1 0"/>
<feBlend mode="normal" in2="BackgroundImageFix" result="effect1_dropShadow"/>
<feColorMatrix in="SourceAlpha" type="matrix" values="0 0 0 0 0 0 0 0 0 0 0 0 0 0 0 0 0 0 127 0"/>
<feOffset dy="4"/>
<feGaussianBlur stdDeviation="3"/>
<feColorMatrix type="matrix" values="0 0 0 0 0 0 0 0 0 0 0 0 0 0 0 0 0 0 0.25 0"/>
<feBlend mode="normal" in2="effect1_dropShadow" result="effect2_dropShadow"/>
<feBlend mode="normal" in="SourceGraphic" in2="effect2_dropShadow" result="shape"/>
</filter>
<filter id="filter6_dd" x="38" y="125" width="51" height="55" filterUnits="userSpaceOnUse" color-interpolation-filters="sRGB">
<feFlood flood-opacity="0" result="BackgroundImageFix"/>
<feColorMatrix in="SourceAlpha" type="matrix" values="0 0 0 0 0 0 0 0 0 0 0 0 0 0 0 0 0 0 127 0"/>
<feOffset dx="-4" dy="-4"/>
<feGaussianBlur stdDeviation="2"/>
<feColorMatrix type="matrix" values="0 0 0 0 1 0 0 0 0 1 0 0 0 0 1 0 0 0 1 0"/>
<feBlend mode="normal" in2="BackgroundImageFix" result="effect1_dropShadow"/>
<feColorMatrix in="SourceAlpha" type="matrix" values="0 0 0 0 0 0 0 0 0 0 0 0 0 0 0 0 0 0 127 0"/>
<feOffset dy="4"/>
<feGaussianBlur stdDeviation="3"/>
<feColorMatrix type="matrix" values="0 0 0 0 0 0 0 0 0 0 0 0 0 0 0 0 0 0 0.25 0"/>
<feBlend mode="normal" in2="effect1_dropShadow" result="effect2_dropShadow"/>
<feBlend mode="normal" in="SourceGraphic" in2="effect2_dropShadow" result="shape"/>
</filter>
<linearGradient id="paint0_linear" x1="69" y1="468" x2="311.5" y2="465.5" gradientUnits="userSpaceOnUse">
<stop offset="0.0149091" stop-color="#057F05"/>
<stop offset="0.302083" stop-color="#E3E80C"/>
<stop offset="0.682292" stop-color="#ECA00E"/>
<stop offset="0.989583" stop-color="#C90101"/>
</linearGradient>
<linearGradient id="paint1_linear" x1="2.91841" y1="132.272" x2="2.91841" y2="104.165" gradientUnits="userSpaceOnUse">
<stop stop-color="#828283"/>
<stop offset="0.04" stop-color="#6C6B6F"/>
<stop offset="0.07" stop-color="#AFB0B3"/>
<stop offset="0.54" stop-color="#AFB0B3"/>
<stop offset="0.92" stop-color="#AFB0B3"/>
<stop offset="0.96" stop-color="#6C6B6F"/>
<stop offset="1" stop-color="#828283"/>
</linearGradient>
<linearGradient id="paint2_linear" x1="9.46367" y1="233.227" x2="9.46367" y2="171.837" gradientUnits="userSpaceOnUse">
<stop stop-color="#828283"/>
<stop offset="0.04" stop-color="#6C6B6F"/>
<stop offset="0.07" stop-color="#AFB0B3"/>
<stop offset="0.54" stop-color="#AFB0B3"/>
<stop offset="0.92" stop-color="#AFB0B3"/>
<stop offset="0.96" stop-color="#6C6B6F"/>
<stop offset="1" stop-color="#828283"/>
</linearGradient>
<linearGradient id="paint3_linear" x1="6.54998" y1="231.031" x2="6.54998" y2="174.029" gradientUnits="userSpaceOnUse">
<stop stop-color="#828283"/>
<stop offset="0.04" stop-color="#6C6B6F"/>
<stop offset="0.07" stop-color="#AFB0B3"/>
<stop offset="0.54" stop-color="#AFB0B3"/>
<stop offset="0.92" stop-color="#AFB0B3"/>
<stop offset="0.96" stop-color="#6C6B6F"/>
<stop offset="1" stop-color="#828283"/>
</linearGradient>
<linearGradient id="paint4_linear" x1="-5197.24" y1="38174" x2="-5197.24" y2="42328" gradientUnits="userSpaceOnUse">
<stop stop-color="#828283"/>
<stop offset="0.04" stop-color="#6C6B6F"/>
<stop offset="0.07" stop-color="#AFB0B3"/>
<stop offset="0.54" stop-color="#AFB0B3"/>
<stop offset="0.92" stop-color="#AFB0B3"/>
<stop offset="0.96" stop-color="#6C6B6F"/>
<stop offset="1" stop-color="#828283"/>
</linearGradient>
<linearGradient id="paint5_linear" x1="5.05453" y1="306.556" x2="5.05453" y2="249.544" gradientUnits="userSpaceOnUse">
<stop stop-color="#828283"/>
<stop offset="0.04" stop-color="#6C6B6F"/>
<stop offset="0.07" stop-color="#AFB0B3"/>
<stop offset="0.54" stop-color="#AFB0B3"/>
<stop offset="0.92" stop-color="#AFB0B3"/>
<stop offset="0.96" stop-color="#6C6B6F"/>
<stop offset="1" stop-color="#828283"/>
</linearGradient>
<linearGradient id="paint6_linear" x1="2899.56" y1="47365" x2="2899.56" y2="43211.5" gradientUnits="userSpaceOnUse">
<stop stop-color="#828283"/>
<stop offset="0.04" stop-color="#6C6B6F"/>
<stop offset="0.07" stop-color="#AFB0B3"/>
<stop offset="0.54" stop-color="#AFB0B3"/>
<stop offset="0.92" stop-color="#AFB0B3"/>
<stop offset="0.96" stop-color="#6C6B6F"/>
<stop offset="1" stop-color="#828283"/>
</linearGradient>
<linearGradient id="paint7_linear" x1="384.946" y1="230.977" x2="384.946" y2="173.966" gradientUnits="userSpaceOnUse">
<stop stop-color="#828283"/>
<stop offset="0.04" stop-color="#6C6B6F"/>
<stop offset="0.07" stop-color="#AFB0B3"/>
<stop offset="0.54" stop-color="#AFB0B3"/>
<stop offset="0.92" stop-color="#AFB0B3"/>
<stop offset="0.96" stop-color="#6C6B6F"/>
<stop offset="1" stop-color="#828283"/>
</linearGradient>
<linearGradient id="paint8_linear" x1="195.109" y1="796.758" x2="195.109" y2="2.06519" gradientUnits="userSpaceOnUse">
<stop stop-color="#828283"/>
<stop offset="0.04" stop-color="#312F37"/>
<stop offset="0.07" stop-color="#4F4F4F"/>
<stop offset="0.54" stop-color="#4E4F51"/>
<stop offset="0.92" stop-color="#4F4F4F"/>
<stop offset="0.96" stop-color="#4F4F4F"/>
<stop offset="1" stop-color="#4F4F4F"/>
</linearGradient>
<linearGradient id="paint9_linear" x1="165.755" y1="758.78" x2="242.548" y2="723.45" gradientUnits="userSpaceOnUse">
<stop stop-color="#FCFEFF"/>
<stop offset="0.15" stop-color="#6C6C6E"/>
<stop offset="0.3" stop-color="#0E0F0F"/>
<stop offset="0.52" stop-color="#6C6C6E"/>
<stop offset="0.65" stop-color="#FCFEFF"/>
<stop offset="1" stop-color="#0E0F0F"/>
</linearGradient>
<linearGradient id="paint10_linear" x1="128.691" y1="48.5321" x2="138.639" y2="57.8255" gradientUnits="userSpaceOnUse">
<stop stop-color="#1C1518"/>
<stop offset="1" stop-color="#191715"/>
</linearGradient>
<linearGradient id="paint11_linear" x1="22.9272" y1="399.906" x2="13.6908" y2="399.906" gradientUnits="userSpaceOnUse">
<stop stop-color="#404040"/>
<stop offset="0.6" stop-color="#838383"/>
<stop offset="1" stop-color="#A7A7A7"/>
</linearGradient>
<linearGradient id="paint12_linear" x1="367.091" y1="402.63" x2="376.327" y2="402.63" gradientUnits="userSpaceOnUse">
<stop stop-color="#404040"/>
<stop offset="0.6" stop-color="#838383"/>
<stop offset="1" stop-color="#A7A7A7"/>
</linearGradient>
<clipPath id="clip0">
<rect width="34.4615" height="34.2857" fill="white" transform="translate(175.487 534.143)"/>
</clipPath>
</defs>
</svg>
