<svg width="421" height="861" viewBox="0 0 421 861" fill="none" xmlns="http://www.w3.org/2000/svg">
<rect width="360" height="640" transform="translate(31 110)" fill="white"/>
<path d="M71.5234 154.217H65.7666V172H61.1816V154.217H55.2051V150.73H71.5234V154.217ZM80.8779 155.975C83.0947 155.975 84.7939 156.521 85.9756 157.615C87.1572 158.709 87.748 160.296 87.748 162.376V172H84.0273L83.5146 170.14C82.8701 170.823 82.1426 171.346 81.332 171.707C80.5312 172.059 79.6719 172.234 78.7539 172.234C77.1328 172.234 75.8438 171.814 74.8867 170.975C73.9395 170.135 73.4658 169.007 73.4658 167.591C73.4658 165.95 74.1543 164.671 75.5312 163.753C76.918 162.835 78.8516 162.376 81.332 162.376H83.251V161.98C83.1924 160.164 82.1621 159.256 80.1602 159.256C79.4766 159.256 78.6855 159.358 77.7871 159.563C76.8887 159.759 76.0781 160.013 75.3555 160.325L74.4033 157.293C75.4385 156.873 76.5273 156.551 77.6699 156.326C78.8125 156.092 79.8818 155.975 80.8779 155.975ZM81.7129 164.837C80.4336 164.837 79.4375 165.057 78.7246 165.496C78.0215 165.936 77.6699 166.546 77.6699 167.327C77.6699 167.972 77.8652 168.465 78.2559 168.807C78.6465 169.139 79.1982 169.305 79.9111 169.305C80.5557 169.305 81.1709 169.163 81.7568 168.88C82.3525 168.597 82.8506 168.216 83.251 167.737V164.837H81.7129ZM100.794 156.033C102.396 156.033 103.914 156.404 105.35 157.146L104.354 160.12C103.289 159.563 102.259 159.285 101.263 159.285C99.9639 159.285 98.958 159.705 98.2451 160.545C97.542 161.385 97.1904 162.571 97.1904 164.104C97.1904 165.628 97.5518 166.805 98.2744 167.635C99.0068 168.465 100.057 168.88 101.424 168.88C102.547 168.88 103.646 168.641 104.72 168.162L105.438 171.224C104.715 171.546 103.934 171.795 103.094 171.971C102.254 172.146 101.453 172.234 100.691 172.234C98.0938 172.234 96.1064 171.536 94.7295 170.14C93.3525 168.743 92.6641 166.731 92.6641 164.104C92.6641 161.546 93.3721 159.563 94.7881 158.157C96.2041 156.741 98.2061 156.033 100.794 156.033ZM120.183 171.399C118.825 171.956 117.526 172.234 116.286 172.234C112.829 172.234 111.101 170.584 111.101 167.283V159.432H108.508V156.282H111.394L112.258 151.785H115.568V156.282H119.86V159.432H115.568V166.653C115.568 167.454 115.715 168.025 116.008 168.367C116.311 168.709 116.823 168.88 117.546 168.88C118.161 168.88 118.82 168.758 119.523 168.514L120.183 171.399ZM125.201 149.954H129.698V154.056H125.201V149.954ZM125.201 156.458H129.698V172H125.201V156.458ZM143.228 156.033C144.829 156.033 146.348 156.404 147.783 157.146L146.787 160.12C145.723 159.563 144.692 159.285 143.696 159.285C142.397 159.285 141.392 159.705 140.679 160.545C139.976 161.385 139.624 162.571 139.624 164.104C139.624 165.628 139.985 166.805 140.708 167.635C141.44 168.465 142.49 168.88 143.857 168.88C144.98 168.88 146.079 168.641 147.153 168.162L147.871 171.224C147.148 171.546 146.367 171.795 145.527 171.971C144.688 172.146 143.887 172.234 143.125 172.234C140.527 172.234 138.54 171.536 137.163 170.14C135.786 168.743 135.098 166.731 135.098 164.104C135.098 161.546 135.806 159.563 137.222 158.157C138.638 156.741 140.64 156.033 143.228 156.033ZM158.778 155.975C160.995 155.975 162.694 156.521 163.876 157.615C165.058 158.709 165.648 160.296 165.648 162.376V172H161.928L161.415 170.14C160.771 170.823 160.043 171.346 159.232 171.707C158.432 172.059 157.572 172.234 156.654 172.234C155.033 172.234 153.744 171.814 152.787 170.975C151.84 170.135 151.366 169.007 151.366 167.591C151.366 165.95 152.055 164.671 153.432 163.753C154.818 162.835 156.752 162.376 159.232 162.376H161.151V161.98C161.093 160.164 160.062 159.256 158.061 159.256C157.377 159.256 156.586 159.358 155.688 159.563C154.789 159.759 153.979 160.013 153.256 160.325L152.304 157.293C153.339 156.873 154.428 156.551 155.57 156.326C156.713 156.092 157.782 155.975 158.778 155.975ZM159.613 164.837C158.334 164.837 157.338 165.057 156.625 165.496C155.922 165.936 155.57 166.546 155.57 167.327C155.57 167.972 155.766 168.465 156.156 168.807C156.547 169.139 157.099 169.305 157.812 169.305C158.456 169.305 159.071 169.163 159.657 168.88C160.253 168.597 160.751 168.216 161.151 167.737V164.837H159.613ZM171.824 149.441H176.321V172H171.824V149.441Z" fill="#3C3939"/>
<path d="M205.577 150.73H210.177V172H205.577V162.903H196.788V172H192.203V150.73H196.788V159.432H205.577V150.73ZM220.19 164.983C220.425 167.659 221.802 168.997 224.321 168.997C225.103 168.997 225.889 168.909 226.68 168.733C227.471 168.548 228.345 168.255 229.302 167.854L230.386 170.652C228.003 171.756 225.801 172.303 223.779 172.293C221.299 172.293 219.351 171.57 217.935 170.125C216.519 168.68 215.811 166.673 215.811 164.104C215.811 161.546 216.504 159.554 217.891 158.128C219.277 156.692 221.221 155.975 223.721 155.975C228.418 155.975 230.767 158.636 230.767 163.958V164.983H220.19ZM226.636 162.376C226.509 160.188 225.547 159.095 223.75 159.095C222.754 159.095 221.968 159.368 221.392 159.915C220.825 160.452 220.454 161.272 220.278 162.376H226.636ZM242.04 155.975C244.257 155.975 245.956 156.521 247.138 157.615C248.319 158.709 248.91 160.296 248.91 162.376V172H245.189L244.677 170.14C244.032 170.823 243.305 171.346 242.494 171.707C241.693 172.059 240.834 172.234 239.916 172.234C238.295 172.234 237.006 171.814 236.049 170.975C235.102 170.135 234.628 169.007 234.628 167.591C234.628 165.95 235.316 164.671 236.693 163.753C238.08 162.835 240.014 162.376 242.494 162.376H244.413V161.98C244.354 160.164 243.324 159.256 241.322 159.256C240.639 159.256 239.848 159.358 238.949 159.563C238.051 159.759 237.24 160.013 236.518 160.325L235.565 157.293C236.601 156.873 237.689 156.551 238.832 156.326C239.975 156.092 241.044 155.975 242.04 155.975ZM242.875 164.837C241.596 164.837 240.6 165.057 239.887 165.496C239.184 165.936 238.832 166.546 238.832 167.327C238.832 167.972 239.027 168.465 239.418 168.807C239.809 169.139 240.36 169.305 241.073 169.305C241.718 169.305 242.333 169.163 242.919 168.88C243.515 168.597 244.013 168.216 244.413 167.737V164.837H242.875ZM255.086 149.441H259.583V172H255.086V149.441ZM275.983 171.399C274.626 171.956 273.327 172.234 272.087 172.234C268.63 172.234 266.901 170.584 266.901 167.283V159.432H264.309V156.282H267.194L268.059 151.785H271.369V156.282H275.661V159.432H271.369V166.653C271.369 167.454 271.516 168.025 271.809 168.367C272.111 168.709 272.624 168.88 273.347 168.88C273.962 168.88 274.621 168.758 275.324 168.514L275.983 171.399ZM285.47 158.201C286.124 157.498 286.891 156.961 287.77 156.59C288.648 156.219 289.61 156.033 290.655 156.033C292.296 156.033 293.561 156.512 294.449 157.469C295.338 158.416 295.782 159.778 295.782 161.556V172H291.285V161.805C291.285 160.887 291.104 160.223 290.743 159.812C290.382 159.402 289.801 159.197 289 159.197C288.277 159.197 287.604 159.363 286.979 159.695C286.354 160.018 285.851 160.457 285.47 161.014V172H280.958V149.383H285.47V158.201ZM308.931 156.033C310.532 156.033 312.051 156.404 313.486 157.146L312.49 160.12C311.426 159.563 310.396 159.285 309.399 159.285C308.101 159.285 307.095 159.705 306.382 160.545C305.679 161.385 305.327 162.571 305.327 164.104C305.327 165.628 305.688 166.805 306.411 167.635C307.144 168.465 308.193 168.88 309.561 168.88C310.684 168.88 311.782 168.641 312.856 168.162L313.574 171.224C312.852 171.546 312.07 171.795 311.23 171.971C310.391 172.146 309.59 172.234 308.828 172.234C306.23 172.234 304.243 171.536 302.866 170.14C301.489 168.743 300.801 166.731 300.801 164.104C300.801 161.546 301.509 159.563 302.925 158.157C304.341 156.741 306.343 156.033 308.931 156.033ZM324.481 155.975C326.698 155.975 328.397 156.521 329.579 157.615C330.761 158.709 331.352 160.296 331.352 162.376V172H327.631L327.118 170.14C326.474 170.823 325.746 171.346 324.936 171.707C324.135 172.059 323.275 172.234 322.357 172.234C320.736 172.234 319.447 171.814 318.49 170.975C317.543 170.135 317.069 169.007 317.069 167.591C317.069 165.95 317.758 164.671 319.135 163.753C320.521 162.835 322.455 162.376 324.936 162.376H326.854V161.98C326.796 160.164 325.766 159.256 323.764 159.256C323.08 159.256 322.289 159.358 321.391 159.563C320.492 159.759 319.682 160.013 318.959 160.325L318.007 157.293C319.042 156.873 320.131 156.551 321.273 156.326C322.416 156.092 323.485 155.975 324.481 155.975ZM325.316 164.837C324.037 164.837 323.041 165.057 322.328 165.496C321.625 165.936 321.273 166.546 321.273 167.327C321.273 167.972 321.469 168.465 321.859 168.807C322.25 169.139 322.802 169.305 323.515 169.305C324.159 169.305 324.774 169.163 325.36 168.88C325.956 168.597 326.454 168.216 326.854 167.737V164.837H325.316ZM341.541 158.465C342.527 156.844 343.909 156.033 345.687 156.033C346.067 156.033 346.39 156.058 346.653 156.106C346.927 156.146 347.273 156.224 347.693 156.341L347.181 160.267C346.341 159.964 345.599 159.817 344.954 159.827C344.251 159.827 343.655 159.954 343.167 160.208C342.679 160.452 342.269 160.843 341.937 161.38V172H337.425V156.282H340.999L341.541 158.465ZM355.144 164.983C355.378 167.659 356.755 168.997 359.274 168.997C360.056 168.997 360.842 168.909 361.633 168.733C362.424 168.548 363.298 168.255 364.255 167.854L365.339 170.652C362.956 171.756 360.754 172.303 358.732 172.293C356.252 172.293 354.304 171.57 352.888 170.125C351.472 168.68 350.764 166.673 350.764 164.104C350.764 161.546 351.457 159.554 352.844 158.128C354.23 156.692 356.174 155.975 358.674 155.975C363.371 155.975 365.72 158.636 365.72 163.958V164.983H355.144ZM361.589 162.376C361.462 160.188 360.5 159.095 358.703 159.095C357.707 159.095 356.921 159.368 356.345 159.915C355.778 160.452 355.407 161.272 355.231 162.376H361.589Z" fill="#FD7659"/>
<path d="M194.109 465.25H196.625C196.823 465.25 196.984 465.088 196.984 464.891V456.984H204.891C205.088 456.984 205.25 456.823 205.25 456.625V454.109C205.25 453.912 205.088 453.75 204.891 453.75H196.805C195.116 453.75 193.75 455.116 193.75 456.805V464.891C193.75 465.088 193.912 465.25 194.109 465.25ZM217.109 456.984H225.016V464.891C225.016 465.088 225.177 465.25 225.375 465.25H227.891C228.088 465.25 228.25 465.088 228.25 464.891V456.805C228.25 455.116 226.884 453.75 225.195 453.75H217.109C216.912 453.75 216.75 453.912 216.75 454.109V456.625C216.75 456.823 216.912 456.984 217.109 456.984ZM204.891 485.016H196.984V477.109C196.984 476.912 196.823 476.75 196.625 476.75H194.109C193.912 476.75 193.75 476.912 193.75 477.109V485.195C193.75 486.884 195.116 488.25 196.805 488.25H204.891C205.088 488.25 205.25 488.088 205.25 487.891V485.375C205.25 485.177 205.088 485.016 204.891 485.016ZM227.891 476.75H225.375C225.177 476.75 225.016 476.912 225.016 477.109V485.016H217.109C216.912 485.016 216.75 485.177 216.75 485.375V487.891C216.75 488.088 216.912 488.25 217.109 488.25H225.195C226.884 488.25 228.25 486.884 228.25 485.195V477.109C228.25 476.912 228.088 476.75 227.891 476.75ZM228.609 469.383H193.391C193.193 469.383 193.031 469.545 193.031 469.742V472.258C193.031 472.455 193.193 472.617 193.391 472.617H228.609C228.807 472.617 228.969 472.455 228.969 472.258V469.742C228.969 469.545 228.807 469.383 228.609 469.383Z" fill="#C90101"/>
<path d="M148.28 542.2C147.453 542.2 146.753 542.127 146.18 541.98C145.607 541.82 145.013 541.587 144.4 541.28L144.2 538H144.52L145.5 540.12C145.98 540.52 146.447 540.813 146.9 541C147.353 541.173 147.813 541.26 148.28 541.26C149.067 541.26 149.68 541.053 150.12 540.64C150.573 540.227 150.8 539.667 150.8 538.96C150.8 538.373 150.667 537.913 150.4 537.58C150.147 537.247 149.773 536.953 149.28 536.7C148.8 536.433 148.227 536.133 147.56 535.8C146.933 535.48 146.4 535.167 145.96 534.86C145.52 534.553 145.187 534.2 144.96 533.8C144.733 533.387 144.62 532.873 144.62 532.26C144.62 531.807 144.727 531.367 144.94 530.94C145.167 530.5 145.467 530.107 145.84 529.76C146.227 529.4 146.653 529.12 147.12 528.92C147.6 528.707 148.093 528.6 148.6 528.6C149.213 528.6 149.78 528.673 150.3 528.82C150.82 528.967 151.353 529.173 151.9 529.44L152.1 532.64H151.78L150.86 530.54C150.393 530.193 149.987 529.947 149.64 529.8C149.293 529.64 148.893 529.56 148.44 529.56C147.853 529.56 147.367 529.76 146.98 530.16C146.607 530.56 146.42 531.053 146.42 531.64C146.42 532.32 146.627 532.853 147.04 533.24C147.453 533.613 148.1 534.013 148.98 534.44C149.793 534.84 150.46 535.213 150.98 535.56C151.5 535.893 151.887 536.28 152.14 536.72C152.393 537.16 152.52 537.72 152.52 538.4C152.52 539.027 152.387 539.58 152.12 540.06C151.853 540.527 151.507 540.92 151.08 541.24C150.667 541.56 150.207 541.8 149.7 541.96C149.207 542.12 148.733 542.2 148.28 542.2ZM160.965 542.2C159.818 542.2 158.798 541.96 157.905 541.48C157.012 541 156.305 540.347 155.785 539.52C155.278 538.68 155.025 537.733 155.025 536.68C155.025 535.8 155.192 534.987 155.525 534.24C155.858 533.493 156.312 532.847 156.885 532.3C157.458 531.753 158.118 531.333 158.865 531.04C159.612 530.733 160.405 530.58 161.245 530.58C162.112 530.58 162.792 530.667 163.285 530.84C163.792 531 164.285 531.193 164.765 531.42L164.825 534.2H164.505L163.465 532.3C163.105 532.033 162.745 531.847 162.385 531.74C162.025 531.633 161.632 531.58 161.205 531.58C160.338 531.58 159.565 531.787 158.885 532.2C158.218 532.613 157.692 533.18 157.305 533.9C156.918 534.607 156.725 535.4 156.725 536.28C156.725 537.867 157.132 539.087 157.945 539.94C158.772 540.78 159.872 541.2 161.245 541.2C161.685 541.2 162.072 541.167 162.405 541.1C162.738 541.033 163.058 540.92 163.365 540.76L164.705 538.7H165.025L164.865 541.34C164.372 541.593 163.818 541.8 163.205 541.96C162.605 542.12 161.858 542.2 160.965 542.2ZM167.137 542V541.68L168.157 541.16L172.597 530.7H173.437L177.857 541.14L179.017 541.68V542H174.657V541.68L176.057 541.12L174.797 538.08H170.637L169.377 541.16L170.857 541.68V542H167.137ZM171.057 537.08H174.377L172.697 533.04L171.057 537.08ZM180.88 542V541.68L182.3 541.02V531.76L180.88 531.12V530.8H183.68L190.46 539.02V531.76L188.76 531.12V530.8H192.96V531.12L191.56 531.76V542.08H190.78L183.4 533.2V540.96L185.12 541.68V542H180.88ZM200.352 542V541.68L201.932 540.88L202.352 529.94L200.632 529.12V528.8H204.332L208.952 539.44L213.552 528.8H217.072V529.12L215.392 529.92L215.732 540.88L217.132 541.68V542H212.532V541.68L214.012 540.9L213.812 531.04L209.032 542.1H208.132L203.432 531.18L203.172 540.9L204.792 541.68V542H200.352ZM219.632 542V541.68L221.052 541.02V531.78L219.632 531.12V530.8H228.172V533.64H227.852L226.892 531.8H222.752V535.7H225.772L226.372 534.34H226.692V538.04H226.372L225.772 536.7H222.752V541H227.352L228.352 538.84H228.672V542H219.632ZM231.37 542V541.68L232.81 541.02V531.78L231.37 531.12V530.8H236.19C237.524 530.8 238.65 531.013 239.57 531.44C240.504 531.867 241.21 532.467 241.69 533.24C242.184 534 242.43 534.887 242.43 535.9C242.43 537.14 242.177 538.22 241.67 539.14C241.164 540.047 240.43 540.753 239.47 541.26C238.524 541.753 237.39 542 236.07 542H231.37ZM235.93 531.8H234.51V541H236.05C237.544 541 238.684 540.573 239.47 539.72C240.27 538.867 240.67 537.74 240.67 536.34C240.67 534.86 240.264 533.733 239.45 532.96C238.637 532.187 237.464 531.8 235.93 531.8ZM245.24 542V541.68L246.56 541.02V531.78L245.24 531.12V530.8H249.62V531.12L248.26 531.78V541.02L249.62 541.68V542H245.24ZM258.367 542.2C257.221 542.2 256.201 541.96 255.307 541.48C254.414 541 253.707 540.347 253.187 539.52C252.681 538.68 252.427 537.733 252.427 536.68C252.427 535.8 252.594 534.987 252.927 534.24C253.261 533.493 253.714 532.847 254.287 532.3C254.861 531.753 255.521 531.333 256.267 531.04C257.014 530.733 257.807 530.58 258.647 530.58C259.514 530.58 260.194 530.667 260.687 530.84C261.194 531 261.687 531.193 262.167 531.42L262.227 534.2H261.907L260.867 532.3C260.507 532.033 260.147 531.847 259.787 531.74C259.427 531.633 259.034 531.58 258.607 531.58C257.741 531.58 256.967 531.787 256.287 532.2C255.621 532.613 255.094 533.18 254.707 533.9C254.321 534.607 254.127 535.4 254.127 536.28C254.127 537.867 254.534 539.087 255.347 539.94C256.174 540.78 257.274 541.2 258.647 541.2C259.087 541.2 259.474 541.167 259.807 541.1C260.141 541.033 260.461 540.92 260.767 540.76L262.107 538.7H262.427L262.267 541.34C261.774 541.593 261.221 541.8 260.607 541.96C260.007 542.12 259.261 542.2 258.367 542.2ZM264.539 542V541.68L265.559 541.16L269.999 530.7H270.839L275.259 541.14L276.419 541.68V542H272.059V541.68L273.459 541.12L272.199 538.08H268.039L266.779 541.16L268.259 541.68V542H264.539ZM268.459 537.08H271.779L270.099 533.04L268.459 537.08ZM278.382 542V541.68L279.802 541.02V531.78L278.382 531.12V530.8H283.122V531.12L281.502 531.78V541H285.842L287.022 538.16H287.342V542H278.382ZM295.142 542V541.68L296.742 540.88V529.92L295.142 529.12V528.8H300.142V529.12L298.542 529.92V540.88L300.142 541.68V542H295.142ZM302.835 542V541.68L304.435 540.88V529.92L302.835 529.12V528.8H308.695C310.162 528.8 311.415 529.06 312.455 529.58C313.495 530.1 314.282 530.813 314.815 531.72C315.362 532.627 315.635 533.653 315.635 534.8C315.635 535.84 315.455 536.8 315.095 537.68C314.748 538.56 314.255 539.32 313.615 539.96C312.975 540.6 312.222 541.1 311.355 541.46C310.502 541.82 309.568 542 308.555 542H302.835ZM308.235 529.9H306.235V540.9H308.535C309.602 540.9 310.522 540.68 311.295 540.24C312.082 539.787 312.682 539.153 313.095 538.34C313.522 537.513 313.735 536.54 313.735 535.42C313.735 534.313 313.522 533.347 313.095 532.52C312.668 531.68 312.042 531.033 311.215 530.58C310.402 530.127 309.408 529.9 308.235 529.9Z" fill="#3C3939"/>
<path d="M142.197 679H141.072V670.469H142.197V679ZM151.947 676.773H148.373L147.57 679H146.41L149.668 670.469H150.652L153.916 679H152.762L151.947 676.773ZM148.713 675.848H151.613L150.16 671.857L148.713 675.848ZM156.072 679H154.988V670H156.072V679ZM160.877 673.633C160.713 673.605 160.535 673.592 160.344 673.592C159.633 673.592 159.15 673.895 158.896 674.5V679H157.812V672.66H158.867L158.885 673.393C159.24 672.826 159.744 672.543 160.396 672.543C160.607 672.543 160.768 672.57 160.877 672.625V673.633ZM164.393 679.117C163.533 679.117 162.834 678.836 162.295 678.273C161.756 677.707 161.486 676.951 161.486 676.006V675.807C161.486 675.178 161.605 674.617 161.844 674.125C162.086 673.629 162.422 673.242 162.852 672.965C163.285 672.684 163.754 672.543 164.258 672.543C165.082 672.543 165.723 672.814 166.18 673.357C166.637 673.9 166.865 674.678 166.865 675.689V676.141H162.57C162.586 676.766 162.768 677.271 163.115 677.658C163.467 678.041 163.912 678.232 164.451 678.232C164.834 678.232 165.158 678.154 165.424 677.998C165.689 677.842 165.922 677.635 166.121 677.377L166.783 677.893C166.252 678.709 165.455 679.117 164.393 679.117ZM164.258 673.434C163.82 673.434 163.453 673.594 163.156 673.914C162.859 674.23 162.676 674.676 162.605 675.25H165.781V675.168C165.75 674.617 165.602 674.191 165.336 673.891C165.07 673.586 164.711 673.434 164.258 673.434ZM172.039 679C171.977 678.875 171.926 678.652 171.887 678.332C171.383 678.855 170.781 679.117 170.082 679.117C169.457 679.117 168.943 678.941 168.541 678.59C168.143 678.234 167.943 677.785 167.943 677.242C167.943 676.582 168.193 676.07 168.693 675.707C169.197 675.34 169.904 675.156 170.814 675.156H171.869V674.658C171.869 674.279 171.756 673.979 171.529 673.756C171.303 673.529 170.969 673.416 170.527 673.416C170.141 673.416 169.816 673.514 169.555 673.709C169.293 673.904 169.162 674.141 169.162 674.418H168.072C168.072 674.102 168.184 673.797 168.406 673.504C168.633 673.207 168.938 672.973 169.32 672.801C169.707 672.629 170.131 672.543 170.592 672.543C171.322 672.543 171.895 672.727 172.309 673.094C172.723 673.457 172.938 673.959 172.953 674.6V677.518C172.953 678.1 173.027 678.562 173.176 678.906V679H172.039ZM170.24 678.174C170.58 678.174 170.902 678.086 171.207 677.91C171.512 677.734 171.732 677.506 171.869 677.225V675.924H171.02C169.691 675.924 169.027 676.312 169.027 677.09C169.027 677.43 169.141 677.695 169.367 677.887C169.594 678.078 169.885 678.174 170.24 678.174ZM174.389 675.777C174.389 674.805 174.619 674.023 175.08 673.434C175.541 672.84 176.145 672.543 176.891 672.543C177.633 672.543 178.221 672.797 178.654 673.305V670H179.738V679H178.742L178.689 678.32C178.256 678.852 177.652 679.117 176.879 679.117C176.145 679.117 175.545 678.816 175.08 678.215C174.619 677.613 174.389 676.828 174.389 675.859V675.777ZM175.473 675.9C175.473 676.619 175.621 677.182 175.918 677.588C176.215 677.994 176.625 678.197 177.148 678.197C177.836 678.197 178.338 677.889 178.654 677.271V674.359C178.33 673.762 177.832 673.463 177.16 673.463C176.629 673.463 176.215 673.668 175.918 674.078C175.621 674.488 175.473 675.096 175.473 675.9ZM183.5 677.412L184.977 672.66H186.137L183.588 679.979C183.193 681.033 182.566 681.561 181.707 681.561L181.502 681.543L181.098 681.467V680.588L181.391 680.611C181.758 680.611 182.043 680.537 182.246 680.389C182.453 680.24 182.623 679.969 182.756 679.574L182.996 678.93L180.734 672.66H181.918L183.5 677.412ZM196.812 679H195.682V675.057H191.381V679H190.256V670.469H191.381V674.137H195.682V670.469H196.812V679ZM202.555 679C202.492 678.875 202.441 678.652 202.402 678.332C201.898 678.855 201.297 679.117 200.598 679.117C199.973 679.117 199.459 678.941 199.057 678.59C198.658 678.234 198.459 677.785 198.459 677.242C198.459 676.582 198.709 676.07 199.209 675.707C199.713 675.34 200.42 675.156 201.33 675.156H202.385V674.658C202.385 674.279 202.271 673.979 202.045 673.756C201.818 673.529 201.484 673.416 201.043 673.416C200.656 673.416 200.332 673.514 200.07 673.709C199.809 673.904 199.678 674.141 199.678 674.418H198.588C198.588 674.102 198.699 673.797 198.922 673.504C199.148 673.207 199.453 672.973 199.836 672.801C200.223 672.629 200.646 672.543 201.107 672.543C201.838 672.543 202.41 672.727 202.824 673.094C203.238 673.457 203.453 673.959 203.469 674.6V677.518C203.469 678.1 203.543 678.562 203.691 678.906V679H202.555ZM200.756 678.174C201.096 678.174 201.418 678.086 201.723 677.91C202.027 677.734 202.248 677.506 202.385 677.225V675.924H201.535C200.207 675.924 199.543 676.312 199.543 677.09C199.543 677.43 199.656 677.695 199.883 677.887C200.109 678.078 200.4 678.174 200.756 678.174ZM207.166 677.529L208.736 672.66H209.844L207.57 679H206.744L204.447 672.66H205.555L207.166 677.529ZM213.436 679.117C212.576 679.117 211.877 678.836 211.338 678.273C210.799 677.707 210.529 676.951 210.529 676.006V675.807C210.529 675.178 210.648 674.617 210.887 674.125C211.129 673.629 211.465 673.242 211.895 672.965C212.328 672.684 212.797 672.543 213.301 672.543C214.125 672.543 214.766 672.814 215.223 673.357C215.68 673.9 215.908 674.678 215.908 675.689V676.141H211.613C211.629 676.766 211.811 677.271 212.158 677.658C212.51 678.041 212.955 678.232 213.494 678.232C213.877 678.232 214.201 678.154 214.467 677.998C214.732 677.842 214.965 677.635 215.164 677.377L215.826 677.893C215.295 678.709 214.498 679.117 213.436 679.117ZM213.301 673.434C212.863 673.434 212.496 673.594 212.199 673.914C211.902 674.23 211.719 674.676 211.648 675.25H214.824V675.168C214.793 674.617 214.645 674.191 214.379 673.891C214.113 673.586 213.754 673.434 213.301 673.434ZM225.025 676.773H221.451L220.648 679H219.488L222.746 670.469H223.73L226.994 679H225.84L225.025 676.773ZM221.791 675.848H224.691L223.238 671.857L221.791 675.848ZM228.998 672.66L229.033 673.457C229.518 672.848 230.15 672.543 230.932 672.543C232.271 672.543 232.947 673.299 232.959 674.811V679H231.875V674.805C231.871 674.348 231.766 674.01 231.559 673.791C231.355 673.572 231.037 673.463 230.604 673.463C230.252 673.463 229.943 673.557 229.678 673.744C229.412 673.932 229.205 674.178 229.057 674.482V679H227.973V672.66H228.998ZM242.451 676.773H238.877L238.074 679H236.914L240.172 670.469H241.156L244.42 679H243.266L242.451 676.773ZM239.217 675.848H242.117L240.664 671.857L239.217 675.848ZM247.941 678.232C248.328 678.232 248.666 678.115 248.955 677.881C249.244 677.646 249.404 677.354 249.436 677.002H250.461C250.441 677.365 250.316 677.711 250.086 678.039C249.855 678.367 249.547 678.629 249.16 678.824C248.777 679.02 248.371 679.117 247.941 679.117C247.078 679.117 246.391 678.83 245.879 678.256C245.371 677.678 245.117 676.889 245.117 675.889V675.707C245.117 675.09 245.23 674.541 245.457 674.061C245.684 673.58 246.008 673.207 246.43 672.941C246.855 672.676 247.357 672.543 247.936 672.543C248.646 672.543 249.236 672.756 249.705 673.182C250.178 673.607 250.43 674.16 250.461 674.84H249.436C249.404 674.43 249.248 674.094 248.967 673.832C248.689 673.566 248.346 673.434 247.936 673.434C247.385 673.434 246.957 673.633 246.652 674.031C246.352 674.426 246.201 674.998 246.201 675.748V675.953C246.201 676.684 246.352 677.246 246.652 677.641C246.953 678.035 247.383 678.232 247.941 678.232ZM254.223 678.232C254.609 678.232 254.947 678.115 255.236 677.881C255.525 677.646 255.686 677.354 255.717 677.002H256.742C256.723 677.365 256.598 677.711 256.367 678.039C256.137 678.367 255.828 678.629 255.441 678.824C255.059 679.02 254.652 679.117 254.223 679.117C253.359 679.117 252.672 678.83 252.16 678.256C251.652 677.678 251.398 676.889 251.398 675.889V675.707C251.398 675.09 251.512 674.541 251.738 674.061C251.965 673.58 252.289 673.207 252.711 672.941C253.137 672.676 253.639 672.543 254.217 672.543C254.928 672.543 255.518 672.756 255.986 673.182C256.459 673.607 256.711 674.16 256.742 674.84H255.717C255.686 674.43 255.529 674.094 255.248 673.832C254.971 673.566 254.627 673.434 254.217 673.434C253.666 673.434 253.238 673.633 252.934 674.031C252.633 674.426 252.482 674.998 252.482 675.748V675.953C252.482 676.684 252.633 677.246 252.934 677.641C253.234 678.035 253.664 678.232 254.223 678.232ZM257.674 675.771C257.674 675.15 257.795 674.592 258.037 674.096C258.283 673.6 258.623 673.217 259.057 672.947C259.494 672.678 259.992 672.543 260.551 672.543C261.414 672.543 262.111 672.842 262.643 673.439C263.178 674.037 263.445 674.832 263.445 675.824V675.9C263.445 676.518 263.326 677.072 263.088 677.564C262.854 678.053 262.516 678.434 262.074 678.707C261.637 678.98 261.133 679.117 260.562 679.117C259.703 679.117 259.006 678.818 258.471 678.221C257.939 677.623 257.674 676.832 257.674 675.848V675.771ZM258.764 675.9C258.764 676.604 258.926 677.168 259.25 677.594C259.578 678.02 260.016 678.232 260.562 678.232C261.113 678.232 261.551 678.018 261.875 677.588C262.199 677.154 262.361 676.549 262.361 675.771C262.361 675.076 262.195 674.514 261.863 674.084C261.535 673.65 261.098 673.434 260.551 673.434C260.016 673.434 259.584 673.646 259.256 674.072C258.928 674.498 258.764 675.107 258.764 675.9ZM268.719 678.373C268.297 678.869 267.678 679.117 266.861 679.117C266.186 679.117 265.67 678.922 265.314 678.531C264.963 678.137 264.785 677.555 264.781 676.785V672.66H265.865V676.756C265.865 677.717 266.256 678.197 267.037 678.197C267.865 678.197 268.416 677.889 268.689 677.271V672.66H269.773V679H268.742L268.719 678.373ZM272.451 672.66L272.486 673.457C272.971 672.848 273.604 672.543 274.385 672.543C275.725 672.543 276.4 673.299 276.412 674.811V679H275.328V674.805C275.324 674.348 275.219 674.01 275.012 673.791C274.809 673.572 274.49 673.463 274.057 673.463C273.705 673.463 273.396 673.557 273.131 673.744C272.865 673.932 272.658 674.178 272.51 674.482V679H271.426V672.66H272.451ZM279.518 671.125V672.66H280.701V673.498H279.518V677.43C279.518 677.684 279.57 677.875 279.676 678.004C279.781 678.129 279.961 678.191 280.215 678.191C280.34 678.191 280.512 678.168 280.73 678.121V679C280.445 679.078 280.168 679.117 279.898 679.117C279.414 679.117 279.049 678.971 278.803 678.678C278.557 678.385 278.434 677.969 278.434 677.43V673.498H277.279V672.66H278.434V671.125H279.518Z" fill="#C90101"/>
<path d="M82.2227 259.701C81.7799 260.209 81.3079 260.58 80.8066 260.814C80.3118 261.042 79.765 261.156 79.166 261.156C77.7272 261.156 76.6139 260.71 75.8262 259.818C75.0384 258.926 74.6445 257.66 74.6445 256.02C74.6445 254.314 75.11 252.976 76.041 252.006C76.9785 251.029 78.2741 250.541 79.9277 250.541C80.5267 250.541 81.2526 250.635 82.1055 250.824V246H83.9805V260.98H82.4863L82.2227 259.701ZM79.2832 259.496C79.9408 259.496 80.5137 259.32 81.002 258.969C81.4967 258.617 81.8646 258.122 82.1055 257.484V252.504C81.5716 252.374 81.1712 252.292 80.9043 252.26C80.6374 252.221 80.3184 252.201 79.9473 252.201C78.8796 252.201 78.0495 252.54 77.457 253.217C76.8646 253.887 76.5684 254.822 76.5684 256.02C76.5684 257.126 76.8027 257.982 77.2715 258.588C77.7467 259.193 78.4173 259.496 79.2832 259.496ZM91.1484 250.521C92.6914 250.521 93.8893 250.99 94.7422 251.928C95.5951 252.859 96.0215 254.164 96.0215 255.844C96.0215 257.523 95.5951 258.829 94.7422 259.76C93.8893 260.691 92.6914 261.156 91.1484 261.156C89.599 261.156 88.3978 260.691 87.5449 259.76C86.6921 258.829 86.2656 257.523 86.2656 255.844C86.2656 254.164 86.6921 252.859 87.5449 251.928C88.3978 250.99 89.599 250.521 91.1484 250.521ZM91.1484 252.182C90.1849 252.182 89.4492 252.494 88.9414 253.119C88.4401 253.744 88.1895 254.652 88.1895 255.844C88.1895 257.029 88.4401 257.934 88.9414 258.559C89.4492 259.184 90.1849 259.496 91.1484 259.496C92.1055 259.496 92.8379 259.184 93.3457 258.559C93.8535 257.934 94.1074 257.029 94.1074 255.844C94.1074 254.659 93.8535 253.754 93.3457 253.129C92.8379 252.497 92.1055 252.182 91.1484 252.182ZM102.672 250.541C103.746 250.541 104.778 250.827 105.768 251.4L105.113 252.904C104.273 252.436 103.46 252.201 102.672 252.201C101.715 252.201 100.976 252.517 100.455 253.148C99.9342 253.78 99.6738 254.678 99.6738 255.844C99.6738 257.016 99.9408 257.911 100.475 258.529C101.008 259.148 101.78 259.457 102.789 259.457C103.16 259.457 103.577 259.402 104.039 259.291C104.501 259.174 104.944 259.024 105.367 258.842L105.875 260.336C105.367 260.577 104.82 260.769 104.234 260.912C103.648 261.049 103.095 261.117 102.574 261.117C101.038 261.117 99.8496 260.658 99.0098 259.74C98.1699 258.822 97.75 257.523 97.75 255.844C97.75 254.177 98.1829 252.878 99.0488 251.947C99.9147 251.01 101.122 250.541 102.672 250.541ZM113.561 260.658C112.786 260.964 112.066 261.117 111.402 261.117C110.413 261.117 109.658 260.863 109.137 260.355C108.622 259.841 108.365 259.089 108.365 258.1V252.338H106.568V250.717H108.463L108.863 247.777H110.25V250.717H113.385V252.338H110.25V257.797C110.25 258.383 110.364 258.803 110.592 259.057C110.826 259.311 111.21 259.438 111.744 259.438C112.213 259.438 112.701 259.353 113.209 259.184L113.561 260.658ZM119.762 250.521C121.305 250.521 122.503 250.99 123.355 251.928C124.208 252.859 124.635 254.164 124.635 255.844C124.635 257.523 124.208 258.829 123.355 259.76C122.503 260.691 121.305 261.156 119.762 261.156C118.212 261.156 117.011 260.691 116.158 259.76C115.305 258.829 114.879 257.523 114.879 255.844C114.879 254.164 115.305 252.859 116.158 251.928C117.011 250.99 118.212 250.521 119.762 250.521ZM119.762 252.182C118.798 252.182 118.062 252.494 117.555 253.119C117.053 253.744 116.803 254.652 116.803 255.844C116.803 257.029 117.053 257.934 117.555 258.559C118.062 259.184 118.798 259.496 119.762 259.496C120.719 259.496 121.451 259.184 121.959 258.559C122.467 257.934 122.721 257.029 122.721 255.844C122.721 254.659 122.467 253.754 121.959 253.129C121.451 252.497 120.719 252.182 119.762 252.182ZM128.883 252.162C129.241 251.628 129.661 251.225 130.143 250.951C130.624 250.678 131.152 250.541 131.725 250.541C132.109 250.541 132.555 250.613 133.062 250.756L132.721 252.602C132.07 252.471 131.63 252.403 131.402 252.396C130.829 252.396 130.354 252.504 129.977 252.719C129.605 252.934 129.286 253.282 129.02 253.764V261H127.145V250.717H128.648L128.883 252.162ZM134.078 256.645C134.078 254.678 134.479 252.947 135.279 251.449C136.08 249.952 137.21 248.79 138.668 247.963C140.133 247.136 141.822 246.723 143.736 246.723C145.416 246.723 146.897 247.051 148.18 247.709C149.462 248.367 150.452 249.294 151.148 250.492C151.852 251.684 152.203 253.067 152.203 254.643C152.203 255.801 152.024 256.82 151.666 257.699C151.314 258.578 150.82 259.258 150.182 259.74C149.544 260.222 148.805 260.463 147.965 260.463C147.314 260.463 146.738 260.29 146.236 259.945C145.735 259.594 145.39 259.138 145.201 258.578C144.882 259.138 144.436 259.594 143.863 259.945C143.29 260.29 142.698 260.463 142.086 260.463C141.168 260.463 140.426 260.154 139.859 259.535C139.299 258.91 139.02 258.087 139.02 257.064C139.02 255.997 139.234 255.059 139.664 254.252C140.1 253.445 140.715 252.82 141.51 252.377C142.304 251.928 143.222 251.703 144.264 251.703C144.622 251.703 145.035 251.745 145.504 251.83C145.979 251.915 146.419 252.032 146.822 252.182L146.402 255.336C146.35 255.655 146.324 256.016 146.324 256.42C146.324 257.169 146.484 257.771 146.803 258.227C147.122 258.676 147.542 258.9 148.062 258.9C148.772 258.9 149.345 258.513 149.781 257.738C150.224 256.964 150.445 255.951 150.445 254.701C150.445 253.445 150.165 252.341 149.605 251.391C149.046 250.44 148.261 249.701 147.252 249.174C146.243 248.646 145.071 248.383 143.736 248.383C142.174 248.383 140.797 248.728 139.605 249.418C138.414 250.102 137.49 251.068 136.832 252.318C136.174 253.562 135.846 255.004 135.846 256.645C135.846 258.057 136.152 259.307 136.764 260.395C137.376 261.475 138.238 262.315 139.352 262.914C140.465 263.52 141.747 263.822 143.199 263.822C143.785 263.822 144.387 263.77 145.006 263.666C145.631 263.568 146.148 263.432 146.559 263.256L147.037 264.799C146.516 265.001 145.901 265.163 145.191 265.287C144.488 265.417 143.824 265.482 143.199 265.482C141.383 265.482 139.788 265.115 138.414 264.379C137.047 263.643 135.982 262.605 135.221 261.264C134.459 259.929 134.078 258.389 134.078 256.645ZM145.143 253.344C144.726 253.246 144.352 253.197 144.02 253.197C143.062 253.197 142.288 253.526 141.695 254.184C141.109 254.835 140.816 255.694 140.816 256.762C140.816 257.4 140.956 257.917 141.236 258.314C141.516 258.705 141.891 258.9 142.359 258.9C142.958 258.9 143.479 258.63 143.922 258.09C144.365 257.549 144.645 256.84 144.762 255.961L145.143 253.344ZM156.695 252.035C157.646 251.039 158.808 250.541 160.182 250.541C161.275 250.541 162.112 250.857 162.691 251.488C163.271 252.12 163.561 253.038 163.561 254.242V261H161.676V254.379C161.676 253.617 161.52 253.064 161.207 252.719C160.895 252.374 160.393 252.201 159.703 252.201C159.091 252.201 158.518 252.338 157.984 252.611C157.451 252.885 157.021 253.262 156.695 253.744V261H154.82V245.922H156.695V252.035ZM167.76 256.195C167.812 257.263 168.098 258.08 168.619 258.646C169.14 259.213 169.872 259.496 170.816 259.496C171.337 259.496 171.839 259.441 172.32 259.33C172.809 259.219 173.362 259.031 173.98 258.764L174.576 260.16C173.867 260.505 173.202 260.759 172.584 260.922C171.965 261.078 171.344 261.156 170.719 261.156C169.169 261.156 167.968 260.691 167.115 259.76C166.262 258.829 165.836 257.523 165.836 255.844C165.836 254.164 166.256 252.862 167.096 251.938C167.936 251.007 169.124 250.541 170.66 250.541C172.099 250.541 173.17 250.974 173.873 251.84C174.583 252.706 174.938 254.018 174.938 255.775V256.195H167.76ZM172.994 254.623C172.942 253.822 172.714 253.22 172.311 252.816C171.913 252.406 171.363 252.201 170.66 252.201C169.098 252.201 168.163 253.008 167.857 254.623H172.994ZM177.359 246H179.234V261H177.359V246ZM187.379 250.561C188.818 250.561 189.928 251.007 190.709 251.898C191.497 252.79 191.891 254.057 191.891 255.697C191.891 257.403 191.425 258.744 190.494 259.721C189.563 260.691 188.271 261.176 186.617 261.176C185.992 261.176 185.263 261.085 184.43 260.902V265.717H182.555V250.736H184.059L184.312 252.016C184.755 251.508 185.221 251.14 185.709 250.912C186.204 250.678 186.76 250.561 187.379 250.561ZM186.598 259.516C187.665 259.516 188.495 259.18 189.088 258.51C189.68 257.839 189.977 256.902 189.977 255.697C189.977 254.59 189.739 253.734 189.264 253.129C188.788 252.523 188.118 252.221 187.252 252.221C186.575 252.221 185.992 252.39 185.504 252.729C185.016 253.067 184.658 253.565 184.43 254.223V259.223C184.977 259.353 185.377 259.434 185.631 259.467C185.885 259.499 186.207 259.516 186.598 259.516ZM195.953 258.998V261H193.961V258.998H195.953ZM203.258 250.541C204.332 250.541 205.364 250.827 206.354 251.4L205.699 252.904C204.859 252.436 204.046 252.201 203.258 252.201C202.301 252.201 201.562 252.517 201.041 253.148C200.52 253.78 200.26 254.678 200.26 255.844C200.26 257.016 200.527 257.911 201.061 258.529C201.594 259.148 202.366 259.457 203.375 259.457C203.746 259.457 204.163 259.402 204.625 259.291C205.087 259.174 205.53 259.024 205.953 258.842L206.461 260.336C205.953 260.577 205.406 260.769 204.82 260.912C204.234 261.049 203.681 261.117 203.16 261.117C201.624 261.117 200.436 260.658 199.596 259.74C198.756 258.822 198.336 257.523 198.336 255.844C198.336 254.177 198.769 252.878 199.635 251.947C200.501 251.01 201.708 250.541 203.258 250.541ZM212.613 250.521C214.156 250.521 215.354 250.99 216.207 251.928C217.06 252.859 217.486 254.164 217.486 255.844C217.486 257.523 217.06 258.829 216.207 259.76C215.354 260.691 214.156 261.156 212.613 261.156C211.064 261.156 209.863 260.691 209.01 259.76C208.157 258.829 207.73 257.523 207.73 255.844C207.73 254.164 208.157 252.859 209.01 251.928C209.863 250.99 211.064 250.521 212.613 250.521ZM212.613 252.182C211.65 252.182 210.914 252.494 210.406 253.119C209.905 253.744 209.654 254.652 209.654 255.844C209.654 257.029 209.905 257.934 210.406 258.559C210.914 259.184 211.65 259.496 212.613 259.496C213.57 259.496 214.303 259.184 214.811 258.559C215.318 257.934 215.572 257.029 215.572 255.844C215.572 254.659 215.318 253.754 214.811 253.129C214.303 252.497 213.57 252.182 212.613 252.182ZM221.734 252.143C222.639 251.075 223.772 250.541 225.133 250.541C226.695 250.541 227.75 251.146 228.297 252.357C229.228 251.146 230.419 250.541 231.871 250.541C233.017 250.541 233.886 250.854 234.479 251.479C235.077 252.104 235.377 253.025 235.377 254.242V261H233.492V254.379C233.492 253.617 233.336 253.064 233.023 252.719C232.711 252.374 232.21 252.201 231.52 252.201C230.908 252.201 230.348 252.335 229.84 252.602C229.332 252.868 228.919 253.249 228.6 253.744C228.6 253.77 228.606 253.832 228.619 253.93C228.632 254.027 228.639 254.158 228.639 254.32V261H226.754V254.379C226.754 253.617 226.598 253.064 226.285 252.719C225.973 252.374 225.468 252.201 224.771 252.201C224.186 252.201 223.632 252.338 223.111 252.611C222.597 252.885 222.184 253.256 221.871 253.725V261H219.996V250.717H221.52L221.734 252.143Z" fill="#3C3939"/>
<g filter="url(#filter0_dd)">
<rect x="55.5" y="241.5" width="316" height="35" rx="7.5" stroke="#C4C4C4"/>
</g>
<path d="M78.1699 313.062L80.1621 315.201L78.9414 316.08L77.5645 313.443L76.168 316.08L74.9473 315.221L77.0273 313.102L74.2637 312.535L74.6836 311.119L77.2227 312.398L76.8613 309.596H78.3652L77.9453 312.379L80.5234 311.178L80.9629 312.535L78.1699 313.062ZM85.7871 313.062L87.7793 315.201L86.5586 316.08L85.1816 313.443L83.7852 316.08L82.5645 315.221L84.6445 313.102L81.8809 312.535L82.3008 311.119L84.8398 312.398L84.4785 309.596H85.9824L85.5625 312.379L88.1406 311.178L88.5801 312.535L85.7871 313.062ZM93.4043 313.062L95.3965 315.201L94.1758 316.08L92.7988 313.443L91.4023 316.08L90.1816 315.221L92.2617 313.102L89.498 312.535L89.918 311.119L92.457 312.398L92.0957 309.596H93.5996L93.1797 312.379L95.7578 311.178L96.1973 312.535L93.4043 313.062ZM101.021 313.062L103.014 315.201L101.793 316.08L100.416 313.443L99.0195 316.08L97.7988 315.221L99.8789 313.102L97.1152 312.535L97.5352 311.119L100.074 312.398L99.7129 309.596H101.217L100.797 312.379L103.375 311.178L103.814 312.535L101.021 313.062Z" fill="#3C3939"/>
<g filter="url(#filter1_dd)">
<rect x="55.5" y="304.5" width="316" height="35" rx="7.5" stroke="#C4C4C4"/>
</g>
<path d="M78.1699 376.062L80.1621 378.201L78.9414 379.08L77.5645 376.443L76.168 379.08L74.9473 378.221L77.0273 376.102L74.2637 375.535L74.6836 374.119L77.2227 375.398L76.8613 372.596H78.3652L77.9453 375.379L80.5234 374.178L80.9629 375.535L78.1699 376.062ZM85.7871 376.062L87.7793 378.201L86.5586 379.08L85.1816 376.443L83.7852 379.08L82.5645 378.221L84.6445 376.102L81.8809 375.535L82.3008 374.119L84.8398 375.398L84.4785 372.596H85.9824L85.5625 375.379L88.1406 374.178L88.5801 375.535L85.7871 376.062ZM93.4043 376.062L95.3965 378.201L94.1758 379.08L92.7988 376.443L91.4023 379.08L90.1816 378.221L92.2617 376.102L89.498 375.535L89.918 374.119L92.457 375.398L92.0957 372.596H93.5996L93.1797 375.379L95.7578 374.178L96.1973 375.535L93.4043 376.062ZM101.021 376.062L103.014 378.201L101.793 379.08L100.416 376.443L99.0195 379.08L97.7988 378.221L99.8789 376.102L97.1152 375.535L97.5352 374.119L100.074 375.398L99.7129 372.596H101.217L100.797 375.379L103.375 374.178L103.814 375.535L101.021 376.062Z" fill="#3C3939"/>
<g filter="url(#filter2_dd)">
<rect x="55.5" y="367.5" width="316" height="35" rx="7.5" stroke="#C4C4C4"/>
</g>
<g filter="url(#filter3_dd)">
<path d="M160 594C160 589.582 163.582 586 168 586H255C259.418 586 263 589.582 263 594V616C263 620.418 259.418 624 255 624H168C163.582 624 160 620.418 160 616V594Z" fill="#057F05"/>
</g>
<path d="M182.987 597.684C184.12 597.677 185.292 597.928 186.502 598.436L186.024 600.203C184.813 599.734 183.788 599.5 182.948 599.5C182.095 599.5 181.418 599.666 180.917 599.998C180.415 600.33 180.165 600.792 180.165 601.385C180.165 601.814 180.252 602.173 180.428 602.459C180.611 602.739 180.917 602.993 181.346 603.221C181.776 603.449 182.375 603.676 183.143 603.904C184.517 604.301 185.493 604.826 186.073 605.477C186.652 606.121 186.942 606.997 186.942 608.104C186.942 609.373 186.515 610.369 185.663 611.092C184.81 611.814 183.638 612.176 182.147 612.176C180.864 612.176 179.439 611.844 177.87 611.18L178.446 609.441C179.325 609.786 180.025 610.027 180.545 610.164C181.066 610.294 181.6 610.359 182.147 610.359C183.013 610.359 183.696 610.161 184.198 609.764C184.699 609.36 184.95 608.813 184.95 608.123C184.95 607.68 184.855 607.312 184.667 607.02C184.478 606.727 184.152 606.463 183.69 606.229C183.234 605.994 182.586 605.763 181.747 605.535C180.464 605.19 179.546 604.715 178.993 604.109C178.439 603.504 178.163 602.687 178.163 601.658C178.163 600.402 178.589 599.425 179.442 598.729C180.301 598.032 181.483 597.684 182.987 597.684ZM189.374 597.918H191.249V599.842H189.374V597.918ZM189.374 601.717H191.249V612H189.374V601.717ZM198.885 601.639C199.341 601.639 199.777 601.704 200.194 601.834C200.617 601.958 200.988 602.133 201.307 602.361L201.532 601.717H203.084V612.283C203.084 613.657 202.645 614.738 201.766 615.525C200.887 616.32 199.689 616.717 198.172 616.717C197.411 616.717 196.672 616.622 195.956 616.434C195.246 616.251 194.618 615.994 194.071 615.662L194.774 614.158C195.256 614.425 195.819 614.64 196.463 614.803C197.108 614.972 197.717 615.057 198.29 615.057C199.221 615.057 199.94 614.819 200.448 614.344C200.956 613.875 201.209 613.201 201.209 612.322V610.838C200.396 611.717 199.416 612.156 198.27 612.156C196.831 612.156 195.718 611.71 194.93 610.818C194.142 609.926 193.749 608.66 193.749 607.02C193.749 605.314 194.194 603.992 195.086 603.055C195.978 602.111 197.245 601.639 198.885 601.639ZM198.993 603.201C197.964 603.201 197.153 603.543 196.561 604.227C195.969 604.904 195.672 605.835 195.672 607.02C195.672 608.126 195.907 608.982 196.375 609.588C196.851 610.193 197.521 610.496 198.387 610.496C199.051 610.496 199.634 610.314 200.135 609.949C200.637 609.585 200.995 609.08 201.209 608.436V603.797C200.903 603.608 200.552 603.462 200.155 603.357C199.764 603.253 199.377 603.201 198.993 603.201ZM208.124 603.162C208.618 602.615 209.162 602.208 209.754 601.941C210.347 601.674 211.011 601.541 211.747 601.541C212.84 601.541 213.677 601.857 214.256 602.488C214.836 603.12 215.125 604.038 215.125 605.242V612H213.241V605.379C213.241 604.617 213.084 604.064 212.772 603.719C212.459 603.374 211.958 603.201 211.268 603.201C210.656 603.201 210.083 603.338 209.549 603.611C209.015 603.885 208.586 604.262 208.26 604.744V612H206.385V601.717H207.909L208.124 603.162ZM234.159 607.244C234.159 608.8 233.67 610.011 232.694 610.877C231.724 611.743 230.366 612.176 228.622 612.176C226.864 612.176 225.503 611.746 224.54 610.887C223.583 610.027 223.104 608.813 223.104 607.244V597.84H225.018V607.244C225.018 608.312 225.314 609.106 225.907 609.627C226.506 610.141 227.411 610.398 228.622 610.398C231.037 610.398 232.245 609.347 232.245 607.244V597.84H234.159V607.244ZM242.206 601.561C243.644 601.561 244.754 602.007 245.536 602.898C246.323 603.79 246.717 605.057 246.717 606.697C246.717 608.403 246.252 609.744 245.321 610.721C244.39 611.691 243.097 612.176 241.444 612.176C240.819 612.176 240.09 612.085 239.256 611.902V616.717H237.381V601.736H238.885L239.139 603.016C239.582 602.508 240.047 602.14 240.536 601.912C241.03 601.678 241.587 601.561 242.206 601.561ZM241.424 610.516C242.492 610.516 243.322 610.18 243.915 609.51C244.507 608.839 244.803 607.902 244.803 606.697C244.803 605.59 244.566 604.734 244.09 604.129C243.615 603.523 242.944 603.221 242.079 603.221C241.402 603.221 240.819 603.39 240.331 603.729C239.842 604.067 239.484 604.565 239.256 605.223V610.223C239.803 610.353 240.204 610.434 240.458 610.467C240.711 610.499 241.034 610.516 241.424 610.516Z" fill="white"/>
<path d="M2.26692 112.389C1.80077 112.435 1.36648 112.645 1.04253 112.983C0.718576 113.32 0.526316 113.76 0.500488 114.226V140.877C0.533051 141.338 0.728297 141.773 1.05163 142.103C1.37495 142.434 1.80548 142.64 2.26692 142.685H5.79979V112.389H2.26692Z" fill="url(#paint0_linear)"/>
<path d="M2.26693 185.872C1.66551 185.926 1.10418 186.196 0.687244 186.631C0.270304 187.066 0.0260984 187.637 0 188.238V249.211C0.0260984 249.813 0.270304 250.383 0.687244 250.818C1.10418 251.253 1.66551 251.522 2.26693 251.576H18.1648C18.7662 251.522 19.3275 251.253 19.7445 250.818C20.1615 250.383 20.4056 249.813 20.4317 249.211V187.768C20.4056 187.167 20.1615 186.596 19.7445 186.162C19.3275 185.727 18.7662 185.457 18.1648 185.404L2.26693 185.872Z" fill="url(#paint1_linear)"/>
<path d="M2.27668 187.768C1.7937 187.805 1.34112 188.017 1.00597 188.365C0.670824 188.713 0.476787 189.172 0.461182 189.654V247.316C0.474405 247.799 0.667383 248.26 1.00276 248.611C1.33813 248.961 1.79207 249.175 2.27668 249.212H6.81053L13.68 216.598L5.88806 187.768H2.27668Z" fill="url(#paint2_linear)"/>
<path d="M2.26693 267.359C1.66313 267.412 1.09931 267.682 0.68174 268.119C0.264173 268.557 0.021693 269.132 0 269.734V330.708C0.0260984 331.309 0.270304 331.88 0.687244 332.315C1.10418 332.75 1.66551 333.02 2.26693 333.073H18.1648C18.7662 333.02 19.3275 332.75 19.7445 332.315C20.1615 331.88 20.4056 331.309 20.4317 330.708V269.245C20.4056 268.644 20.1615 268.074 19.7445 267.639C19.3275 267.204 18.7662 266.935 18.1648 266.881L2.26693 267.359Z" fill="url(#paint3_linear)"/>
<path d="M2.27668 269.245C1.79207 269.282 1.33813 269.496 1.00276 269.845C0.667383 270.197 0.474405 270.658 0.461182 271.141V328.803C0.474405 329.286 0.667383 329.747 1.00276 330.099C1.33813 330.448 1.79207 330.662 2.27668 330.699H10.4513V269.245H2.27668Z" fill="url(#paint4_linear)"/>
<path d="M418.734 251.029C419.336 250.977 419.898 250.708 420.315 250.272C420.732 249.837 420.975 249.265 421 248.664V187.69C420.974 187.089 420.729 186.518 420.314 186.083C419.896 185.648 419.335 185.379 418.734 185.325H402.835C402.234 185.379 401.672 185.648 401.256 186.083C400.838 186.518 400.595 187.089 400.568 187.69V249.142C400.595 249.744 400.838 250.315 401.256 250.75C401.672 251.184 402.234 251.454 402.835 251.508L418.734 251.029Z" fill="url(#paint5_linear)"/>
<path d="M418.724 249.142C419.208 249.107 419.662 248.893 419.997 248.542C420.333 248.192 420.525 247.73 420.539 247.246V189.596C420.525 189.112 420.333 188.65 419.997 188.3C419.662 187.95 419.208 187.736 418.724 187.7H410.549V249.152L418.724 249.142Z" fill="url(#paint6_linear)"/>
<path d="M356.142 0H64.8575C30.3139 0 2.31595 28.0582 2.31595 62.6644V798.345C2.29144 806.548 3.88967 814.677 7.01942 822.266C10.1492 829.853 14.7491 836.754 20.5566 842.572C26.3641 848.389 33.2655 853.011 40.8667 856.174C48.4679 859.336 56.6199 860.975 64.8575 861H356.142C364.38 860.975 372.532 859.336 380.134 856.174C387.734 853.011 394.636 848.389 400.444 842.572C406.252 836.754 410.851 829.853 413.981 822.266C417.11 814.677 418.708 806.548 418.684 798.345V62.6644C418.684 28.0582 390.686 0 356.142 0ZM394.239 756.233H26.7614V104.767H394.239V756.233Z" fill="#2A2A2E"/>
<path d="M357.585 2.22827H63.6506C55.8129 2.25005 48.0567 3.80961 40.8246 6.81784C33.5925 9.82606 27.0266 14.2239 21.502 19.7603C15.9774 25.2966 11.6023 31.8628 8.62686 39.0835C5.65141 46.3044 4.13389 54.0383 4.161 61.8434V799.215C4.13389 807.02 5.65141 814.755 8.62686 821.975C11.6023 829.195 15.9774 835.762 21.502 841.298C27.0266 846.835 33.5925 851.233 40.8246 854.241C48.0567 857.249 55.8129 858.809 63.6506 858.831H357.585C365.422 858.809 373.178 857.249 380.412 854.241C387.642 851.233 394.209 846.835 399.733 841.298C405.258 835.762 409.633 829.195 412.608 821.975C415.584 814.755 417.102 807.02 417.074 799.215V61.7946C417.116 46.0397 410.872 30.9135 399.716 19.743C388.561 8.57241 373.406 2.27227 357.585 2.22827ZM394.238 756.233H26.7616V104.767H394.238V756.233Z" fill="url(#paint7_linear)"/>
<path d="M3.92529 779.601V792.589H418.056V779.601H3.92529ZM3.92529 68.4109V81.4383H418.056V68.4109H3.92529Z" fill="#37383D"/>
<path d="M355.809 5.93225H67.154C58.03 5.95735 49.0609 8.28167 41.0819 12.6887C33.1029 17.0958 26.3737 23.4423 21.5211 31.1368C15.7747 40.1244 12.7337 50.5632 12.7576 61.2181V799.782C12.7341 807.322 14.2494 814.787 17.2117 821.725C20.1741 828.665 24.5216 834.93 29.9902 840.144C39.9761 849.716 53.295 855.063 67.154 855.068H355.809C385.848 855.068 410.205 830.313 410.205 799.782V61.2181C410.205 30.6873 385.848 5.93225 355.809 5.93225ZM394.239 756.234H26.7615V104.767H394.239V756.234Z" fill="#444441"/>
<path d="M353.836 7.81836H67.1637C52.1778 7.86754 37.8243 13.8378 27.2553 24.4182C16.6864 34.9985 10.7662 49.3237 10.7948 64.2476V797.74C10.7824 805.76 12.4883 813.692 15.7984 821.004C19.1085 828.318 23.9466 834.842 29.9901 840.144C40.2406 849.19 53.4676 854.178 67.1637 854.159H353.836C368.824 854.12 383.182 848.154 393.753 837.575C404.323 826.994 410.241 812.665 410.205 797.74V64.2476C410.224 56.8565 408.782 49.5338 405.959 42.6979C403.138 35.862 398.99 29.6467 393.756 24.4067C388.522 19.1668 382.303 15.0049 375.452 12.1586C368.603 9.31244 361.258 7.83759 353.836 7.81836ZM394.239 756.234H26.7614V104.767H394.239V756.234Z" fill="#0E0F0F"/>
<path d="M242.394 792.59C240.088 786.318 235.913 780.899 230.429 777.056C224.944 773.214 218.413 771.131 211.707 771.088C204.719 771.056 197.902 773.245 192.249 777.337C186.597 781.428 182.403 787.21 180.278 793.839C178.154 800.469 178.208 807.601 180.437 814.198C182.664 820.795 186.946 826.511 192.662 830.515C198.377 834.52 205.227 836.604 212.214 836.463C219.2 836.322 225.96 833.965 231.509 829.733C237.057 825.503 241.104 819.618 243.062 812.938C245.02 806.256 244.786 799.128 242.394 792.59ZM211.334 833.43C205.455 833.397 199.716 831.628 194.846 828.348C189.976 825.067 186.192 820.421 183.974 814.999C181.755 809.575 181.2 803.62 182.383 797.883C183.563 792.148 186.426 786.888 190.608 782.772C194.79 778.656 200.105 775.868 205.878 774.762C211.652 773.653 217.626 774.275 223.045 776.55C228.462 778.823 233.082 782.646 236.318 787.535C239.555 792.424 241.263 798.159 241.226 804.013C241.172 811.865 237.989 819.374 232.379 824.889C226.769 830.406 219.189 833.477 211.305 833.43H211.334Z" fill="url(#paint8_linear)"/>
<path fill-rule="evenodd" clip-rule="evenodd" d="M151.648 57.3674C151.645 59.3085 150.874 61.1698 149.5 62.5471C148.82 63.2282 148.012 63.7687 147.122 64.1375C146.231 64.5064 145.276 64.6964 144.313 64.6964C143.349 64.6964 142.394 64.5064 141.504 64.1375C140.614 63.7687 139.806 63.2282 139.126 62.5471C137.751 61.1675 136.978 59.3021 136.977 57.3577C136.976 56.3929 137.163 55.4371 137.527 54.543C138.271 52.7433 139.699 51.3099 141.501 50.5556C143.301 49.8133 145.323 49.8133 147.125 50.5556C148.023 50.9271 148.839 51.4713 149.526 52.1572C150.213 52.8431 150.757 53.657 151.129 54.5527C151.482 55.4489 151.659 56.4045 151.648 57.3674Z" fill="url(#paint9_linear)"/>
<path d="M149.018 56.6052C149.018 57.8938 148.507 59.1303 147.595 60.0453C147.146 60.4967 146.611 60.8552 146.021 61.0998C145.431 61.3442 144.799 61.4702 144.16 61.4702C143.522 61.4702 142.889 61.3442 142.3 61.0998C141.711 60.8552 141.175 60.4967 140.726 60.0453C140.044 59.361 139.579 58.4913 139.393 57.5454C139.207 56.5993 139.305 55.6194 139.676 54.7288C139.915 54.1362 140.272 53.5978 140.726 53.1456C141.175 52.6929 141.71 52.3336 142.299 52.0886C142.888 51.8437 143.522 51.7178 144.16 51.7187C145.449 51.7267 146.683 52.2393 147.595 53.1456C148.045 53.5999 148.403 54.1378 148.645 54.7288C148.893 55.3237 149.019 55.9613 149.018 56.6052Z" fill="black"/>
<path d="M148.695 56.6052C148.696 57.2015 148.581 57.7925 148.353 58.3443C148.126 58.896 147.791 59.3976 147.369 59.8205C146.95 60.2443 146.451 60.5808 145.9 60.8105C145.349 61.0401 144.758 61.1583 144.16 61.1583C143.563 61.1583 142.972 61.0401 142.421 60.8105C141.87 60.5808 141.371 60.2443 140.951 59.8205C140.098 58.9686 139.618 57.8139 139.618 56.6101C139.618 55.4062 140.098 54.2517 140.951 53.3997C141.586 52.7664 142.395 52.3351 143.277 52.1608C144.158 51.9863 145.071 52.0765 145.901 52.4201C146.731 52.7635 147.44 53.3446 147.937 54.0899C148.433 54.835 148.697 55.7105 148.695 56.6052Z" fill="#001A49"/>
<path opacity="0.75" d="M146.967 56.4488C146.978 56.9899 146.825 57.5217 146.529 57.9756C146.234 58.4294 145.807 58.7845 145.306 58.9949C144.806 59.2053 144.253 59.2614 143.72 59.1559C143.187 59.0505 142.698 58.7884 142.316 58.4033C141.8 57.883 141.51 57.1804 141.511 56.4488C141.51 56.0901 141.581 55.7348 141.717 55.403C141.852 55.0699 142.054 54.767 142.308 54.5119C142.562 54.2568 142.866 54.0547 143.199 53.9176C143.537 53.7921 143.898 53.7356 144.259 53.7514C144.616 53.7496 144.97 53.8194 145.299 53.9567C145.632 54.0939 145.936 54.2959 146.19 54.5509C146.444 54.806 146.646 55.109 146.781 55.4422C146.907 55.763 146.969 56.1045 146.967 56.4488Z" fill="#232323" stroke="#555555" stroke-width="0.57"/>
<path d="M144.573 53.4191C143.169 53.3019 141.02 55.1489 140.648 57.172C142.169 56.6833 143.827 54.1912 144.573 53.4191Z" fill="white"/>
<path d="M243.101 52.7742H177.899C177.029 52.8208 176.21 53.1978 175.611 53.8278C175.012 54.4577 174.677 55.2926 174.677 56.1605C174.677 57.0284 175.012 57.8632 175.611 58.4932C176.21 59.1231 177.029 59.5002 177.899 59.5468H243.101C243.971 59.5002 244.79 59.1231 245.389 58.4932C245.988 57.8632 246.323 57.0284 246.323 56.1605C246.323 55.2926 245.988 54.4577 245.389 53.8278C244.79 53.1978 243.971 52.8208 243.101 52.7742Z" fill="#232426"/>
<path d="M210.5 34.0979C211.423 34.1056 212.325 33.8403 213.095 33.3356C213.866 32.8309 214.468 32.1096 214.826 31.2633C215.184 30.4169 215.281 29.4838 215.105 28.5823C214.929 27.681 214.489 26.8519 213.839 26.2006C213.189 25.5491 212.36 25.1048 211.455 24.9241C210.551 24.7432 209.614 24.834 208.761 25.1849C207.909 25.5359 207.181 26.1311 206.67 26.8951C206.158 27.6589 205.886 28.557 205.888 29.4753C205.885 30.0807 206.002 30.6805 206.233 31.2406C206.464 31.8007 206.803 32.3099 207.232 32.7394C207.659 33.1687 208.169 33.5097 208.73 33.7428C209.291 33.9759 209.893 34.0967 210.5 34.0979Z" fill="#2C2C2C"/>
<path d="M41.5406 21.5006C42.8753 21.3833 42.2079 22.8003 39.3031 25.654C34.2337 30.7579 30.2314 36.8125 27.5278 43.4673C24.8241 50.1222 23.4729 57.245 23.5524 64.4235V798.531C23.4764 805.71 24.8302 812.833 27.5353 819.487C30.2405 826.142 34.2435 832.196 39.3129 837.3C42.257 840.144 42.885 841.572 41.5504 841.454C40.0053 841.022 38.5334 840.364 37.1834 839.5C22.993 831.495 14.7202 814.178 14.7202 795.805V67.1502C14.7202 48.777 22.993 31.3517 37.1735 23.4551C39.3032 22.2237 40.7555 21.5006 41.5406 21.5006Z" fill="url(#paint10_linear)"/>
<path d="M379.479 844.392C378.144 844.51 378.812 843.093 381.716 840.239C386.786 835.135 390.788 829.081 393.492 822.426C396.196 815.771 397.547 808.648 397.468 801.469V67.362C397.543 60.1832 396.189 53.0607 393.484 46.406C390.78 39.7515 386.776 33.6969 381.707 28.5926C378.762 25.7487 378.134 24.3218 379.469 24.4391C381.015 24.8706 382.486 25.5294 383.837 26.3937C398.026 34.3977 406.3 51.7154 406.3 70.0887V798.744C406.3 817.117 398.026 834.542 383.846 842.438C381.716 843.67 380.264 844.392 379.479 844.392Z" fill="url(#paint11_linear)"/>
<defs>
<filter id="filter0_dd" x="47" y="233" width="331" height="54" filterUnits="userSpaceOnUse" color-interpolation-filters="sRGB">
<feFlood flood-opacity="0" result="BackgroundImageFix"/>
<feColorMatrix in="SourceAlpha" type="matrix" values="0 0 0 0 0 0 0 0 0 0 0 0 0 0 0 0 0 0 127 0"/>
<feOffset dx="-4" dy="-4"/>
<feGaussianBlur stdDeviation="2"/>
<feColorMatrix type="matrix" values="0 0 0 0 1 0 0 0 0 1 0 0 0 0 1 0 0 0 1 0"/>
<feBlend mode="normal" in2="BackgroundImageFix" result="effect1_dropShadow"/>
<feColorMatrix in="SourceAlpha" type="matrix" values="0 0 0 0 0 0 0 0 0 0 0 0 0 0 0 0 0 0 127 0"/>
<feOffset dy="4"/>
<feGaussianBlur stdDeviation="3"/>
<feColorMatrix type="matrix" values="0 0 0 0 0 0 0 0 0 0 0 0 0 0 0 0 0 0 0.25 0"/>
<feBlend mode="normal" in2="effect1_dropShadow" result="effect2_dropShadow"/>
<feBlend mode="normal" in="SourceGraphic" in2="effect2_dropShadow" result="shape"/>
</filter>
<filter id="filter1_dd" x="47" y="296" width="331" height="54" filterUnits="userSpaceOnUse" color-interpolation-filters="sRGB">
<feFlood flood-opacity="0" result="BackgroundImageFix"/>
<feColorMatrix in="SourceAlpha" type="matrix" values="0 0 0 0 0 0 0 0 0 0 0 0 0 0 0 0 0 0 127 0"/>
<feOffset dx="-4" dy="-4"/>
<feGaussianBlur stdDeviation="2"/>
<feColorMatrix type="matrix" values="0 0 0 0 1 0 0 0 0 1 0 0 0 0 1 0 0 0 1 0"/>
<feBlend mode="normal" in2="BackgroundImageFix" result="effect1_dropShadow"/>
<feColorMatrix in="SourceAlpha" type="matrix" values="0 0 0 0 0 0 0 0 0 0 0 0 0 0 0 0 0 0 127 0"/>
<feOffset dy="4"/>
<feGaussianBlur stdDeviation="3"/>
<feColorMatrix type="matrix" values="0 0 0 0 0 0 0 0 0 0 0 0 0 0 0 0 0 0 0.25 0"/>
<feBlend mode="normal" in2="effect1_dropShadow" result="effect2_dropShadow"/>
<feBlend mode="normal" in="SourceGraphic" in2="effect2_dropShadow" result="shape"/>
</filter>
<filter id="filter2_dd" x="47" y="359" width="331" height="54" filterUnits="userSpaceOnUse" color-interpolation-filters="sRGB">
<feFlood flood-opacity="0" result="BackgroundImageFix"/>
<feColorMatrix in="SourceAlpha" type="matrix" values="0 0 0 0 0 0 0 0 0 0 0 0 0 0 0 0 0 0 127 0"/>
<feOffset dx="-4" dy="-4"/>
<feGaussianBlur stdDeviation="2"/>
<feColorMatrix type="matrix" values="0 0 0 0 1 0 0 0 0 1 0 0 0 0 1 0 0 0 1 0"/>
<feBlend mode="normal" in2="BackgroundImageFix" result="effect1_dropShadow"/>
<feColorMatrix in="SourceAlpha" type="matrix" values="0 0 0 0 0 0 0 0 0 0 0 0 0 0 0 0 0 0 127 0"/>
<feOffset dy="4"/>
<feGaussianBlur stdDeviation="3"/>
<feColorMatrix type="matrix" values="0 0 0 0 0 0 0 0 0 0 0 0 0 0 0 0 0 0 0.25 0"/>
<feBlend mode="normal" in2="effect1_dropShadow" result="effect2_dropShadow"/>
<feBlend mode="normal" in="SourceGraphic" in2="effect2_dropShadow" result="shape"/>
</filter>
<filter id="filter3_dd" x="152" y="578" width="117" height="56" filterUnits="userSpaceOnUse" color-interpolation-filters="sRGB">
<feFlood flood-opacity="0" result="BackgroundImageFix"/>
<feColorMatrix in="SourceAlpha" type="matrix" values="0 0 0 0 0 0 0 0 0 0 0 0 0 0 0 0 0 0 127 0"/>
<feOffset dx="-4" dy="-4"/>
<feGaussianBlur stdDeviation="2"/>
<feColorMatrix type="matrix" values="0 0 0 0 1 0 0 0 0 1 0 0 0 0 1 0 0 0 1 0"/>
<feBlend mode="normal" in2="BackgroundImageFix" result="effect1_dropShadow"/>
<feColorMatrix in="SourceAlpha" type="matrix" values="0 0 0 0 0 0 0 0 0 0 0 0 0 0 0 0 0 0 127 0"/>
<feOffset dy="4"/>
<feGaussianBlur stdDeviation="3"/>
<feColorMatrix type="matrix" values="0 0 0 0 0 0 0 0 0 0 0 0 0 0 0 0 0 0 0.25 0"/>
<feBlend mode="normal" in2="effect1_dropShadow" result="effect2_dropShadow"/>
<feBlend mode="normal" in="SourceGraphic" in2="effect2_dropShadow" result="shape"/>
</filter>
<linearGradient id="paint0_linear" x1="3.15013" y1="142.715" x2="3.15013" y2="112.389" gradientUnits="userSpaceOnUse">
<stop stop-color="#828283"/>
<stop offset="0.04" stop-color="#6C6B6F"/>
<stop offset="0.07" stop-color="#AFB0B3"/>
<stop offset="0.54" stop-color="#AFB0B3"/>
<stop offset="0.92" stop-color="#AFB0B3"/>
<stop offset="0.96" stop-color="#6C6B6F"/>
<stop offset="1" stop-color="#828283"/>
</linearGradient>
<linearGradient id="paint1_linear" x1="10.2159" y1="251.64" x2="10.2159" y2="185.404" gradientUnits="userSpaceOnUse">
<stop stop-color="#828283"/>
<stop offset="0.04" stop-color="#6C6B6F"/>
<stop offset="0.07" stop-color="#AFB0B3"/>
<stop offset="0.54" stop-color="#AFB0B3"/>
<stop offset="0.92" stop-color="#AFB0B3"/>
<stop offset="0.96" stop-color="#6C6B6F"/>
<stop offset="1" stop-color="#828283"/>
</linearGradient>
<linearGradient id="paint2_linear" x1="7.0706" y1="249.27" x2="7.0706" y2="187.768" gradientUnits="userSpaceOnUse">
<stop stop-color="#828283"/>
<stop offset="0.04" stop-color="#6C6B6F"/>
<stop offset="0.07" stop-color="#AFB0B3"/>
<stop offset="0.54" stop-color="#AFB0B3"/>
<stop offset="0.92" stop-color="#AFB0B3"/>
<stop offset="0.96" stop-color="#6C6B6F"/>
<stop offset="1" stop-color="#828283"/>
</linearGradient>
<linearGradient id="paint3_linear" x1="-5610.35" y1="41187.8" x2="-5610.35" y2="45669.7" gradientUnits="userSpaceOnUse">
<stop stop-color="#828283"/>
<stop offset="0.04" stop-color="#6C6B6F"/>
<stop offset="0.07" stop-color="#AFB0B3"/>
<stop offset="0.54" stop-color="#AFB0B3"/>
<stop offset="0.92" stop-color="#AFB0B3"/>
<stop offset="0.96" stop-color="#6C6B6F"/>
<stop offset="1" stop-color="#828283"/>
</linearGradient>
<linearGradient id="paint4_linear" x1="5.45628" y1="330.758" x2="5.45628" y2="269.245" gradientUnits="userSpaceOnUse">
<stop stop-color="#828283"/>
<stop offset="0.04" stop-color="#6C6B6F"/>
<stop offset="0.07" stop-color="#AFB0B3"/>
<stop offset="0.54" stop-color="#AFB0B3"/>
<stop offset="0.92" stop-color="#AFB0B3"/>
<stop offset="0.96" stop-color="#6C6B6F"/>
<stop offset="1" stop-color="#828283"/>
</linearGradient>
<linearGradient id="paint5_linear" x1="3130.04" y1="51104.3" x2="3130.04" y2="46623" gradientUnits="userSpaceOnUse">
<stop stop-color="#828283"/>
<stop offset="0.04" stop-color="#6C6B6F"/>
<stop offset="0.07" stop-color="#AFB0B3"/>
<stop offset="0.54" stop-color="#AFB0B3"/>
<stop offset="0.92" stop-color="#AFB0B3"/>
<stop offset="0.96" stop-color="#6C6B6F"/>
<stop offset="1" stop-color="#828283"/>
</linearGradient>
<linearGradient id="paint6_linear" x1="415.544" y1="249.212" x2="415.544" y2="187.7" gradientUnits="userSpaceOnUse">
<stop stop-color="#828283"/>
<stop offset="0.04" stop-color="#6C6B6F"/>
<stop offset="0.07" stop-color="#AFB0B3"/>
<stop offset="0.54" stop-color="#AFB0B3"/>
<stop offset="0.92" stop-color="#AFB0B3"/>
<stop offset="0.96" stop-color="#6C6B6F"/>
<stop offset="1" stop-color="#828283"/>
</linearGradient>
<linearGradient id="paint7_linear" x1="210.618" y1="859.66" x2="210.618" y2="2.22827" gradientUnits="userSpaceOnUse">
<stop stop-color="#828283"/>
<stop offset="0.04" stop-color="#312F37"/>
<stop offset="0.07" stop-color="#4F4F4F"/>
<stop offset="0.54" stop-color="#4E4F51"/>
<stop offset="0.92" stop-color="#4F4F4F"/>
<stop offset="0.96" stop-color="#4F4F4F"/>
<stop offset="1" stop-color="#4F4F4F"/>
</linearGradient>
<linearGradient id="paint8_linear" x1="178.93" y1="818.683" x2="261.813" y2="780.533" gradientUnits="userSpaceOnUse">
<stop stop-color="#FCFEFF"/>
<stop offset="0.15" stop-color="#6C6C6E"/>
<stop offset="0.3" stop-color="#0E0F0F"/>
<stop offset="0.52" stop-color="#6C6C6E"/>
<stop offset="0.65" stop-color="#FCFEFF"/>
<stop offset="1" stop-color="#0E0F0F"/>
</linearGradient>
<linearGradient id="paint9_linear" x1="138.92" y1="52.3636" x2="149.654" y2="62.396" gradientUnits="userSpaceOnUse">
<stop stop-color="#1C1518"/>
<stop offset="1" stop-color="#191715"/>
</linearGradient>
<linearGradient id="paint10_linear" x1="24.7497" y1="431.477" x2="14.7791" y2="431.477" gradientUnits="userSpaceOnUse">
<stop stop-color="#404040"/>
<stop offset="0.6" stop-color="#838383"/>
<stop offset="1" stop-color="#A7A7A7"/>
</linearGradient>
<linearGradient id="paint11_linear" x1="396.27" y1="434.416" x2="406.24" y2="434.416" gradientUnits="userSpaceOnUse">
<stop stop-color="#404040"/>
<stop offset="0.6" stop-color="#838383"/>
<stop offset="1" stop-color="#A7A7A7"/>
</linearGradient>
</defs>
</svg>
