<svg width="276" height="705" viewBox="0 0 276 705" fill="none" xmlns="http://www.w3.org/2000/svg">
<path d="M231.303 489.696C230.123 485.802 231.303 479.277 231.303 479.277H195.878V489.696C195.878 496.207 193.295 500.391 195.878 506.367C197.043 509.06 198.882 509.925 200.046 512.618C202.63 518.594 200.046 522.779 200.046 529.289C200.046 538.24 199.731 543.265 200.046 552.211C200.622 568.557 203.517 577.545 204.214 593.887C204.733 606.083 205.646 613.022 204.214 625.144C203.24 633.386 200.046 645.982 200.046 645.982L187.543 675.156L183.376 687.659H212.549L235.471 652.234L231.303 639.731C231.303 639.731 226.878 631.063 227.136 625.144C227.359 620.002 229.882 617.588 231.303 612.641C233.375 605.43 233.717 601.182 235.471 593.887C239.025 579.106 244.369 571.505 245.89 556.378C246.786 547.472 246.558 542.383 245.89 533.456C244.901 520.246 246.431 511.489 239.639 500.115C236.967 495.642 232.814 494.683 231.303 489.696Z" fill="#FFB0B1"/>
<path d="M122.945 483.445C121.53 470.273 129.196 450.104 129.196 450.104L108.358 445.936C108.358 445.936 93.0877 454.936 89.604 464.691C86.867 472.354 89.6369 477.391 89.604 485.529C89.4561 522.158 87.8032 542.672 87.5202 579.3C87.3693 598.831 91.0659 610.106 87.5202 629.312C86.3019 635.911 83.3526 645.982 83.3526 645.982L70.8497 664.737L62.5144 673.072L50.0115 683.491L70.8497 687.659L129.196 652.234C129.196 652.234 122.539 643.99 120.861 637.647C119.197 631.353 120.861 627.487 120.861 620.977C120.861 611.211 119.5 605.641 120.861 595.971C122.404 585.01 126.799 579.687 129.196 568.881L129.203 568.854C132.742 552.902 134.83 543.487 133.364 527.205C132.16 513.838 127.809 506.994 125.029 493.864C124.169 489.805 123.388 487.571 122.945 483.445Z" fill="#FFB0B1"/>
<path d="M122.948 639.731C122.176 637.415 122.948 633.48 122.948 633.48L70.853 679.324H64.6016V670.988C64.6016 670.988 59.5985 674.905 56.2663 677.24C53.8635 678.924 52.686 680.193 50.0149 681.407C46.2374 683.124 43.7297 683.132 39.5958 683.491C36.3529 683.773 31.2606 683.491 31.2606 683.491C31.2606 683.491 25.1719 684.729 25.0091 687.659C24.9082 689.476 27.0929 691.826 27.0929 691.826H83.3559C83.3559 691.826 85.6817 687.859 87.5236 685.575C89.6909 682.887 91.5884 681.28 93.775 679.324C96.8073 676.61 96.9941 675.785 100.026 673.072C102.213 671.116 103.483 669.799 106.278 668.904C109.378 667.912 114.613 668.904 114.613 668.904V689.743H122.948V666.821C122.948 666.821 125.703 664.47 127.116 662.653C129.35 659.78 130.941 657.941 131.284 654.318C131.6 650.977 130.841 648.909 129.2 645.982C127.511 642.971 124.04 643.006 122.948 639.731Z" fill="#C90101"/>
<path d="M235.499 648.066C233.786 645.069 231.303 639.731 231.303 639.731L229.247 656.401L212.577 685.575L200.074 687.659C200.074 687.659 197.53 683.084 193.822 681.407C190.765 680.024 183.403 679.323 183.403 679.323C183.403 679.323 180.144 686.06 177.152 689.743C174.975 692.422 170.901 695.994 170.901 695.994C170.901 695.994 167.097 697.25 166.733 700.162C165.919 706.672 183.403 704.329 183.403 704.329L218.828 700.162V685.575L222.996 679.323V691.826H227.164V675.156C227.164 675.156 231.293 670.292 233.415 666.821C235.313 663.715 237.019 662.081 237.583 658.485C238.226 654.386 237.558 651.669 235.499 648.066Z" fill="#C90101"/>
<path d="M0 250.058L95.8555 266.728L106.275 279.231L10.4191 260.477L0 250.058Z" fill="white"/>
<path d="M43.7601 247.974L54.1792 241.722C54.1792 241.722 62.1185 264.347 54.1792 262.561C49.0956 261.417 43.7601 247.974 43.7601 247.974Z" fill="#C4C4C4"/>
<path d="M60.4306 235.471C60.4306 244.678 40.2462 254.225 33.341 254.225C26.4359 254.225 20.8381 244.678 20.8381 235.471C25.0058 225.052 36.8549 225.052 43.7601 225.052C50.6652 225.052 60.4306 226.264 60.4306 235.471Z" fill="#FFB0B1"/>
<path d="M29.5634 220.161C29.411 219.644 29.6953 219.1 30.2062 218.929L34.5675 217.475C35.1015 217.297 35.6771 217.594 35.8407 218.133L46.9098 254.571L39.7095 254.57L29.5634 220.161Z" fill="#3C3939"/>
<path d="M46.5897 260.549L39.7095 254.661L46.5897 253.179L46.5897 260.549Z" fill="#3C3939"/>
<path d="M47.9277 239.639C47.9277 244.242 41.1791 250.058 35.4248 250.058C29.6705 250.058 25.0057 246.326 25.0057 241.722C25.0057 237.119 29.6705 233.387 35.4248 233.387C41.1791 233.387 47.9277 235.035 47.9277 239.639Z" fill="#FFB0B1"/>
<path d="M114.61 256.309L137.532 141.699L114.61 160.454C114.61 160.454 103.271 195.269 102.107 197.962C99.5229 203.938 102.107 214.633 102.107 214.633L97.9393 216.717C95.013 216.931 94.6213 216.779 91.6878 216.717C86.9438 216.616 90.1815 222.968 85.4364 222.968H70.8497L41.6763 225.052C41.6763 225.052 51.8631 235.314 54.1792 243.806C56.1062 250.872 54.1792 262.561 54.1792 262.561L87.5202 258.393L114.61 256.309Z" fill="url(#paint0_linear)"/>
<path d="M164.621 122.945C161.854 121.969 158.37 114.61 158.37 114.61L139.616 145.867L127.113 189.627V239.639L118.777 316.74L91.6878 410.511C91.6878 410.511 79.1739 440.36 75.0173 460.523C72.5309 472.584 70.8497 491.78 70.8497 491.78C70.8497 491.78 100.357 488.462 118.777 491.78C127.909 493.425 132.635 496.048 141.699 498.032C179.858 506.382 241.722 498.032 241.722 498.032C241.722 498.032 229.211 474.786 227.136 458.439C224.541 438 235.471 406.344 235.471 406.344L227.136 131.28L191.711 102.107C191.711 102.107 190.238 112.451 187.543 114.61C181.289 119.622 168.789 122.945 168.789 122.945H164.621Z" fill="#C90101"/>
<path d="M156.286 120.861L160.454 108.358L137.532 139.616L129.196 145.867L114.61 160.454V191.711L108.358 254.225V285.483L102.107 325.075L87.5202 423.014C87.5202 423.014 97.9393 402.176 100.023 389.673C102.138 376.981 104.698 370.752 108.358 358.416C113.13 342.333 115.457 333.184 118.777 316.74C121.876 301.396 123.956 292.764 125.029 277.147C125.866 264.969 129.196 268.516 129.196 256.309V231.303V216.717L133.364 195.879L139.616 160.454L156.286 120.861Z" fill="white"/>
<path d="M145.867 150.035L137.532 139.616L164.621 102.107L145.867 150.035Z" fill="url(#paint1_linear)"/>
<path d="M158.589 115.503L154.202 91.6878L171.75 75.0173L195.878 105.977L176.137 125.029H162.976L158.589 115.503Z" fill="#FFB0B1"/>
<path d="M142.636 202.13L146.803 160.454L194.731 87.5203L221.821 120.861L240.575 160.454C240.575 160.454 253.375 187.743 253.078 206.298C252.92 216.196 249.647 221.431 248.91 231.303C248.305 239.419 248.52 244.013 248.91 252.142C249.861 271.919 253.991 282.622 257.246 302.153C261.315 326.567 264.404 340.133 267.665 364.668C273.791 410.762 276 483.445 276 483.445C276 483.445 266.077 488.017 259.329 489.696C245.115 493.234 236.438 490.65 221.821 489.696C204.595 488.573 178.061 483.445 178.061 483.445L153.055 498.032L146.803 387.59C146.803 387.59 147.011 376.156 146.803 368.835C146.316 351.675 142.636 325.075 142.636 325.075C142.636 325.075 140.529 295.745 142.636 277.147C144.703 258.904 153.055 231.303 153.055 231.303L142.636 202.13Z" fill="white"/>
<path d="M154.202 158.37L150.035 152.118L160.454 139.616C160.454 139.616 165.81 130.085 168.789 125.029C172.484 118.758 175.687 116.813 179.208 110.442C186.304 97.6018 200.046 79.1849 200.046 79.1849L210.465 97.9393C210.465 97.9393 198.489 106.19 191.711 112.526C189.189 114.884 187.579 116.052 185.459 118.777C182.108 123.086 181.649 126.398 179.208 131.28C175.953 137.791 176.136 142.923 170.873 147.951C167.442 151.228 165.052 153.033 160.454 154.202C156.51 155.205 154.202 158.37 154.202 158.37Z" fill="url(#paint2_linear)"/>
<path d="M129.196 293.37C129.196 300.275 120.861 305.872 102.107 301.705C81.2687 295.454 70.8497 285.69 70.8497 278.785C70.8497 271.88 83.911 276.7 100.023 276.7C116.135 276.7 129.196 286.465 129.196 293.37Z" fill="#FFB0B1"/>
<path d="M250.058 154.202L229.22 141.699L214.633 152.118L206.298 168.789L200.046 185.459V210.465L206.298 225.052V243.806L195.879 250.058H189.627L179.208 258.393H170.873L162.538 262.561L143.783 268.812H116.694L118.777 297.985L133.364 318.824L156.286 312.572L175.04 308.404H195.879L212.549 297.985L229.22 289.65L243.806 281.315L254.225 266.728L258.393 250.058L262.561 229.22L266.728 200.046V175.04L250.058 154.202Z" fill="white" stroke="#C4C4C4" stroke-width="0.2"/>
<path d="M183.376 62.5145C183.376 85.5316 163.784 112.526 139.616 112.526C115.448 112.526 100.023 98.0345 100.023 75.0174C100.023 52.0002 115.448 33.3411 139.616 33.3411C163.784 33.3411 183.376 39.4973 183.376 62.5145Z" fill="#FFB0B1"/>
<path d="M122.938 45.9014C114.658 45.3494 108.249 55.6424 102.1 50.0691C94.8147 43.4655 108.738 36.2239 112.519 27.1471C114.205 23.1017 116.687 16.728 116.687 16.728L122.938 10.4766C125.38 8.03524 129.289 7.93652 133.358 6.30896C137.426 4.6814 139.573 3.37953 143.777 2.14133L143.837 2.12346C147.78 0.961991 150.074 0.286513 154.196 0.0575125C159.941 -0.261678 163.189 0.791136 168.782 2.14133C173.785 3.34897 177.058 3.37285 181.285 6.30896C185.565 9.28153 185.444 13.6126 189.621 16.728C192.538 18.904 194.85 18.9979 197.956 20.8957C201.428 23.0174 203.78 23.9457 206.291 27.1471C209.948 31.8085 209.024 35.9857 210.459 41.7338C212.468 49.7857 212.478 54.5558 214.626 62.5719C216.625 70.029 217.67 74.304 220.878 81.3263C223.604 87.294 224.075 91.8329 229.213 95.913C232.063 98.1762 234.809 97.6841 237.548 100.081C241.657 103.675 241.236 107.764 243.8 112.583C246.881 118.376 248.031 122.051 252.135 127.17C255.014 130.762 257.999 131.622 260.47 135.505C263.233 139.848 263.772 142.935 264.638 148.008C266.439 158.559 260.773 164.399 260.47 175.098C260.401 177.538 259.959 178.962 260.47 181.349C261.562 186.444 268.805 191.768 268.805 191.768C268.805 191.768 261.134 192.475 256.303 191.768C252.983 191.283 251.101 190.885 247.967 189.685C241.43 187.18 237.763 184.725 233.381 179.266C229.963 175.008 230.481 171.072 227.129 166.763C225.01 164.037 223.713 162.481 220.878 160.511C217.279 158.01 214.431 158.194 210.459 156.344C204.512 153.573 200.247 152.898 195.872 148.008C192.232 143.94 191.12 140.754 189.621 135.505C187.385 127.681 189.621 122.805 189.621 114.667C189.621 110.598 190.805 108.141 189.621 104.248C187.436 97.0706 178.167 98.5626 175.034 91.7453C173.301 87.9749 173.741 85.3996 172.95 81.3263C171.215 72.395 176.263 63.5832 168.782 58.4043C167.286 57.3685 166.37 56.7993 164.615 56.3205C160.611 55.2287 158.334 58.1015 154.196 58.4043C151.761 58.5825 150.356 58.7851 147.944 58.4043C141.029 57.3125 139.924 50.4119 133.358 47.9852C129.465 46.5468 127.079 46.1775 122.938 45.9014Z" fill="#591D4B"/>
<defs>
<linearGradient id="paint0_linear" x1="100.023" y1="237.555" x2="175.04" y2="220.884" gradientUnits="userSpaceOnUse">
<stop stop-color="white"/>
<stop offset="0.768249" stop-color="#C4C4C4"/>
</linearGradient>
<linearGradient id="paint1_linear" x1="151.077" y1="102.107" x2="151.077" y2="150.035" gradientUnits="userSpaceOnUse">
<stop stop-color="#2F3676"/>
<stop offset="1" stop-color="#63699E"/>
</linearGradient>
<linearGradient id="paint2_linear" x1="180.25" y1="79.1849" x2="180.25" y2="158.37" gradientUnits="userSpaceOnUse">
<stop stop-color="#2F3676"/>
<stop offset="1" stop-color="#63699E"/>
</linearGradient>
</defs>
</svg>
