<svg width="250" height="734" viewBox="0 0 250 734" fill="none" xmlns="http://www.w3.org/2000/svg">
<g clip-path="url(#clip0)">
<path d="M162.911 678.454L208.546 674.486L214.498 686.389C214.498 686.389 220.036 693.023 224.419 696.308C229.963 700.466 240.292 704.243 240.292 704.243C240.292 704.243 243.655 710.036 244.26 714.162C244.866 718.288 215.537 721.819 198.625 716.146C192.055 713.94 189.629 707.35 182.752 708.211C180.321 708.516 176.8 710.194 176.8 710.194L158.943 706.227C158.943 706.227 158.464 698.946 158.943 694.324C159.6 687.968 162.911 678.454 162.911 678.454Z" fill="url(#paint0_linear)"/>
<path d="M85.3175 680.439C76.9492 679.974 67.4603 692.325 67.4603 692.325V722.094L81.3492 732.013L101.19 728.045L111.111 720.11L107.143 708.208L101.19 690.353C101.19 690.353 91.5548 680.784 85.3175 680.439Z" fill="url(#paint1_linear)"/>
<path d="M65.4762 555.46C68.2099 530.77 71.4286 489.995 71.4286 489.995L194.444 476.108V525.703L196.429 571.33V583.233V595.135C196.429 595.135 196.429 612.99 200.397 630.844C202.052 638.291 206.349 648.698 206.349 648.698L204.365 652.665C204.365 652.665 203.817 658.751 204.365 662.584C205.058 667.436 206.349 674.487 206.349 674.487C206.349 674.487 202.029 675.082 198.413 676.471C194.322 678.046 188.492 682.422 188.492 682.422H160.714V670.519C160.714 670.519 152.638 660.013 152.778 652.665C152.885 647.027 158.73 638.779 158.73 638.779C158.73 638.779 157.261 626.436 154.762 618.941C148.81 601.087 148.81 573.314 148.81 573.314C148.81 573.314 146.331 556.376 146.825 545.541C147.679 526.822 154.762 497.93 154.762 497.93H125L117.063 533.638C117.063 533.638 117.448 550.012 117.063 559.427C116.554 571.909 117.063 589.184 117.063 589.184V626.876L101.19 648.698C101.19 648.698 110.793 655.823 113.095 662.584C117.129 674.431 101.19 692.341 101.19 692.341C101.19 692.341 93.8857 683.461 87.3016 682.422C78.7444 681.073 67.4603 692.341 67.4603 692.341L55.5555 668.535C55.5555 668.535 61.5079 660.6 71.4286 656.633C71.4286 652.665 67.4603 638.779 67.4603 638.779L61.5079 618.941V595.135C61.5079 595.135 63.6674 571.794 65.4762 555.46Z" fill="url(#paint2_linear)"/>
<path d="M172.619 71.4159C172.619 93.328 152.868 111.092 130.952 111.092C109.037 111.092 91.2698 93.328 91.2698 71.4159C91.2698 49.5038 109.037 31.7402 130.952 31.7402C152.868 31.7402 172.619 49.5038 172.619 71.4159Z" fill="#CF6F80"/>
<path d="M107.143 93.2377L150.794 91.2539V124.978L158.73 174.573L103.175 156.719C103.175 156.719 106.38 137.567 107.143 124.978C107.894 112.581 107.143 93.2377 107.143 93.2377Z" fill="#CF6F80"/>
<path d="M138.889 160.686L105.159 132.913L117.064 476.108H164.683L188.492 156.718L152.778 134.897L138.889 160.686Z" fill="url(#paint3_linear)"/>
<path d="M156.746 164.654L150.794 124.979L162.698 130.93L202.381 154.735L212.302 164.654L216.27 174.573L202.381 269.795L206.349 404.692V444.368L202.381 464.206V541.573L172.619 549.508H150.794V531.654L156.746 396.757L162.698 335.26V315.422L158.73 279.714L156.746 164.654Z" fill="white"/>
<path d="M142.857 208.297L105.159 126.962H99.2064L91.2699 138.865L83.3333 144.816H73.4127L51.5873 156.719L35.7143 172.589L51.5873 267.811L61.5079 426.513V535.621L107.143 551.492H154.762L142.857 208.297Z" fill="white"/>
<path d="M172.64 78.0329H168.672C168.672 78.0329 167.356 67.9747 164.703 62.1627C162.384 57.0802 160.478 54.437 156.767 50.26C152.748 45.7361 150.808 41.4698 144.862 40.341C142.578 39.9078 141.213 40.0272 138.91 40.341C134.776 40.9048 133.148 44.6554 128.989 44.3086C125.536 44.021 124.436 41.0929 121.053 40.341L120.921 40.3117C117.967 39.6552 115.952 39.2071 113.116 40.341C110.064 41.5619 109.04 43.5933 107.164 46.2924C104.783 49.7184 104.346 52.2013 103.196 56.2113C101.896 60.7411 102.225 63.512 101.211 68.114C99.9991 73.6222 97.2432 82.0005 97.2432 82.0005C97.2432 82.0005 97.863 74.0257 95.2591 70.0978C93.1186 66.8694 90.4956 66.3695 87.3226 64.1464C85.0349 62.5435 83.0856 62.384 81.3702 60.1789C78.9448 57.0608 79.5134 54.2085 79.386 50.26C79.2341 45.5501 79.9007 42.8347 81.3702 38.3574C83.3182 32.4228 86.2075 29.8939 89.3067 24.4709C92.4063 19.0479 92.2579 14.3482 97.2432 10.5844C100.573 8.07035 103.088 7.50838 107.164 6.61683C112.463 5.45795 116.01 8.61446 121.053 6.61683C124.655 5.18994 125.314 1.89042 128.989 0.665481C134.187 -1.06683 137.674 0.936355 142.878 2.64927C148.812 4.6023 151.964 6.59025 156.767 10.5844C159.294 12.6863 159.887 14.8675 162.719 16.5358C166.78 18.9275 170.094 17.22 174.624 18.5195C178.635 19.6701 182.293 18.9748 184.545 22.4871C186.636 25.7482 184.923 28.5509 184.545 32.406C184.159 36.3375 183.011 38.4004 182.561 42.3248C181.942 47.7128 182.561 50.7884 182.561 56.2113C182.561 59.3104 183.541 61.2069 182.561 64.1464C181.175 68.3041 176.675 68.2084 174.624 72.0816C173.478 74.2467 172.64 78.0329 172.64 78.0329Z" fill="#3C3939"/>
<path d="M172.619 176.557L156.746 202.346V166.638L150.794 124.979L158.73 128.946L176.587 172.589L170.635 168.622L172.619 176.557Z" fill="#C90101"/>
<path d="M53.5714 345.179L93.2539 341.211L111.111 384.854V396.757L103.175 404.692H81.3492L57.5397 406.676L51.5873 392.789V372.951L53.5714 345.179Z" fill="url(#paint4_linear)"/>
<path d="M210.317 351.13L214.286 345.179C214.286 345.179 221.217 363.803 214.286 363.033C209.355 362.485 206.349 353.114 206.349 353.114L210.317 351.13Z" fill="#C4C4C4"/>
<path d="M212.302 341.211H182.54L174.603 384.854V396.757L182.54 404.692H204.365H206.349V394.773L214.286 376.919L212.302 341.211Z" fill="url(#paint5_linear)"/>
<path d="M198.413 335.259L208.333 333.275L220.238 339.227L214.286 349.146L208.333 355.097L204.365 359.065C204.365 359.065 200.939 377.273 196.429 372.951C193.072 369.735 196.429 361.048 196.429 361.048V353.113L194.444 345.178V339.227L198.413 335.259Z" fill="#CF6F80"/>
<path d="M208.333 150.768L182.54 138.865L202.381 249.957L198.413 265.827L196.429 271.779V285.665L198.413 297.568V307.487L194.444 313.438L192.46 317.406V325.341C192.46 325.341 203.498 329.778 208.333 335.26C215.304 343.163 218.254 361.049 218.254 361.049L228.175 341.211C228.175 341.211 230.277 332.647 232.143 327.325C233.523 323.387 236.111 317.406 236.111 317.406L242.063 313.438C242.063 313.438 241.435 303.734 242.063 297.568C242.788 290.462 244.708 286.732 246.032 279.714C246.905 275.083 248.016 267.811 248.016 267.811L242.063 261.86C242.063 261.86 237.993 243.804 236.111 232.103C235.241 226.694 234.127 218.217 234.127 218.217C234.127 218.217 230.196 213.586 228.175 210.281C225.095 205.249 222.222 196.395 222.222 196.395V178.541C222.222 178.541 216.881 171.585 214.286 166.638C211.21 160.777 208.333 150.768 208.333 150.768Z" fill="url(#paint6_linear)"/>
<path d="M113.095 353.113L87.3016 337.243L79.3651 359.065H105.159C105.159 359.065 122.468 370.154 123.016 363.032C123.436 357.571 113.095 353.113 113.095 353.113Z" fill="#CF6F80"/>
<path d="M59.5238 257.892L51.5873 154.735L33.7302 170.606L25.7936 190.443L3.96825 238.054L0 271.779V293.6L25.7936 341.211L55.5556 376.919L97.2222 343.195L81.3492 327.325L69.4444 309.47L55.5556 285.665L51.5873 271.779L47.619 261.86L59.5238 257.892Z" fill="url(#paint7_linear)"/>
<path d="M111.111 178.532L142.857 208.29L106.84 130.583L107.143 126.962L101.19 126.954L99.2064 170.597H111.111V178.532Z" fill="#C90101"/>
<path d="M138.889 257.892C141.081 257.892 142.857 256.116 142.857 253.925C142.857 251.733 141.081 249.957 138.889 249.957C136.697 249.957 134.921 251.733 134.921 253.925C134.921 256.116 136.697 257.892 138.889 257.892Z" fill="#3C3939"/>
<path d="M138.889 345.178C141.081 345.178 142.857 343.402 142.857 341.211C142.857 339.02 141.081 337.243 138.889 337.243C136.697 337.243 134.921 339.02 134.921 341.211C134.921 343.402 136.697 345.178 138.889 345.178Z" fill="#3C3939"/>
<path d="M142.857 440.4C145.049 440.4 146.825 438.624 146.825 436.432C146.825 434.241 145.049 432.465 142.857 432.465C140.666 432.465 138.889 434.241 138.889 436.432C138.889 438.624 140.666 440.4 142.857 440.4Z" fill="#3C3939"/>
</g>
<defs>
<linearGradient id="paint0_linear" x1="200.609" y1="642.746" x2="186.725" y2="720.114" gradientUnits="userSpaceOnUse">
<stop offset="0.788239" stop-color="#3C3939"/>
<stop offset="1" stop-color="#C4C4C4"/>
</linearGradient>
<linearGradient id="paint1_linear" x1="89.2857" y1="682.434" x2="89.2857" y2="732.029" gradientUnits="userSpaceOnUse">
<stop offset="0.69577" stop-color="#3C3939"/>
<stop offset="1" stop-color="#C4C4C4"/>
</linearGradient>
<linearGradient id="paint2_linear" x1="130.952" y1="476.108" x2="130.952" y2="692.341" gradientUnits="userSpaceOnUse">
<stop stop-color="#2F3676"/>
<stop offset="1" stop-color="#63699E"/>
</linearGradient>
<linearGradient id="paint3_linear" x1="146.825" y1="132.913" x2="146.825" y2="476.108" gradientUnits="userSpaceOnUse">
<stop stop-color="#2F3676"/>
<stop offset="1" stop-color="#63699E"/>
</linearGradient>
<linearGradient id="paint4_linear" x1="81.3492" y1="341.211" x2="81.3492" y2="406.676" gradientUnits="userSpaceOnUse">
<stop offset="0.630208" stop-color="white"/>
<stop offset="1" stop-color="#C4C4C4"/>
</linearGradient>
<linearGradient id="paint5_linear" x1="204.365" y1="341.211" x2="204.365" y2="406.676" gradientUnits="userSpaceOnUse">
<stop offset="0.630208" stop-color="white"/>
<stop offset="1" stop-color="#C4C4C4"/>
</linearGradient>
<linearGradient id="paint6_linear" x1="327.381" y1="168.622" x2="79.3734" y2="249.983" gradientUnits="userSpaceOnUse">
<stop offset="0.521951" stop-color="white"/>
<stop offset="1" stop-color="#C4C4C4"/>
</linearGradient>
<linearGradient id="paint7_linear" x1="53.5714" y1="212.265" x2="236.111" y2="218.218" gradientUnits="userSpaceOnUse">
<stop offset="0.0624687" stop-color="white"/>
<stop offset="0.403298" stop-color="#C4C4C4"/>
</linearGradient>
<clipPath id="clip0">
<rect width="250" height="734" fill="white"/>
</clipPath>
</defs>
</svg>
