<svg width="390" height="798" viewBox="0 0 390 798" fill="none" xmlns="http://www.w3.org/2000/svg">
<g clip-path="url(#clip0)">
<rect width="360" height="640" transform="translate(15 79)" fill="white"/>
<path opacity="0.1" fill-rule="evenodd" clip-rule="evenodd" d="M130.174 171.437C153.934 175.34 162.508 205.617 181.081 220.944C195.936 233.204 215.332 238.242 228.339 252.448C243.415 268.915 260.216 286.866 261.825 309.136C263.449 331.622 253.686 355.733 236.883 370.759C220.72 385.211 194.319 376.956 174.992 386.78C157.187 395.83 150.146 425.104 130.174 425C110.169 424.895 102.107 397.658 85.6271 386.312C70.8504 376.14 52.2057 373.741 38.6486 361.991C21.3382 346.988 0.20427 331.758 -3.42056 309.136C-7.05846 286.434 7.11736 264.557 19.9826 245.503C32.3045 227.253 50.328 214.748 68.6018 202.465C88.0075 189.422 107.103 167.646 130.174 171.437Z" fill="#C90101"/>
<path d="M91.4595 268.918C95.285 260.471 94.9661 251.704 94.9661 251.704H106.442C106.442 251.704 107.08 258.717 109.63 262.861C112.18 267.006 114.572 266.846 113.456 268.918C112.34 270.991 99.2697 277.366 99.2697 277.366C99.2697 277.366 87.634 277.366 91.4595 268.918Z" fill="#D09879"/>
<ellipse cx="100.864" cy="238.315" rx="12.592" ry="18.4896" fill="#D89B78"/>
<path d="M112.257 222.535L113.532 235.446C113.532 235.446 112.336 235.844 106.837 232.896C101.338 229.947 97.5925 228.433 95.8391 224.129C94.0858 219.825 102.693 219.825 102.693 219.825L112.257 222.535Z" fill="url(#paint0_linear)" stroke="#3C3939"/>
<path d="M90.3436 238.371H89.0684L88.2715 228.17C88.2715 228.17 88.5903 222.273 89.706 220.998C90.8217 219.722 92.4157 220.36 92.4157 220.36C92.4157 220.36 94.1587 217.931 95.7629 217.013C98.0013 215.731 99.7191 216.012 102.298 216.056C105.619 216.113 107.954 215.943 110.586 217.969C113.3 220.057 113.934 225.301 113.934 225.301L112.18 224.026C112.18 224.026 114.093 232.633 113.137 238.371H111.702V236.937C111.702 236.937 112.944 227.63 109.152 224.345C105.199 220.92 99.1102 222.273 95.7629 224.026C92.4157 225.779 91.4215 227.426 90.3436 230.561V238.371Z" fill="url(#paint1_linear)"/>
<path d="M94.0093 249.951C91.9687 247.719 88.1118 240.865 88.1118 240.865C88.1118 240.865 88.6215 244.691 89.387 246.603C89.961 248.038 91.65 251.385 92.7342 252.979C94.0371 254.895 95.4049 255.891 97.6439 256.486C99.7496 257.045 101.12 257.058 103.223 256.486C105.655 255.824 107.117 254.986 108.642 252.979C110.214 250.909 112.343 248.387 112.658 245.806C112.885 243.953 113.296 240.865 113.296 240.865C113.296 240.865 109.758 249.951 108.642 249.951C106.677 249.951 107.759 246.893 106.57 245.328C105.46 243.868 104.213 243.551 102.438 243.1L102.426 243.097L102.373 243.083C100.602 242.633 99.8863 242.451 98.1536 243.097C96.777 243.61 96.2182 244.194 95.2845 245.328C93.9831 246.909 94.7623 250.774 94.0093 249.951Z" fill="url(#paint2_linear)"/>
<path d="M105.167 247.241H96.2412C98.1086 248.486 97.8351 250.429 101.023 250.429C104.211 250.429 105.167 247.241 105.167 247.241Z" fill="white"/>
<ellipse cx="113.456" cy="238.156" rx="2.2315" ry="3.98482" fill="#D89B78"/>
<ellipse cx="88.2715" cy="238.156" rx="2.2315" ry="3.98482" fill="#D89B78"/>
<path d="M92.7344 236.95C93.742 237.683 94.7889 237.944 96.0596 237.944C96.321 237.944 96.6234 237.991 96.8622 237.885C97.0347 237.808 97.4248 237.833 97.5502 237.677C97.665 237.533 98.0531 237.552 98.2042 237.409C98.4577 237.17 98.5588 237.007 98.7733 236.721" stroke="#3C3939" stroke-linecap="round" stroke-linejoin="round"/>
<path d="M102.936 236.721C103.318 237.02 103.953 237.638 104.464 237.638C105.044 237.638 105.591 237.868 106.184 237.868C106.439 237.868 106.694 237.868 106.949 237.868C107.196 237.868 107.421 237.715 107.637 237.715C107.864 237.715 108.258 237.507 108.478 237.409C108.771 237.279 109.026 237.024 109.127 236.721" stroke="#3C3939" stroke-linecap="round" stroke-linejoin="round"/>
<path d="M84.7647 472.587C84.7647 472.587 83.0114 404.207 84.7647 360.374C85.1072 351.812 85.249 345.962 85.2554 342.092C83.8423 343.124 83.0114 343.798 83.0114 343.798C83.0114 343.798 85.2819 326.15 85.2554 342.092C92.939 336.477 117.836 320.237 119.991 343.798C122.541 371.691 119.034 472.587 119.034 472.587L129.554 477.688V479.441H109.311V474.5L102.617 358.943C102.629 359.149 103.231 369.877 100.863 379.98C98.8772 388.454 97.038 451.707 94.4877 472.587C94.3547 476.884 95.9222 479.441 95.9222 479.441H75.2012V477.688L84.7647 472.587Z" fill="#3C3939"/>
<path d="M94.1688 270.672C92.6797 268.964 93.3719 264.455 93.3719 264.455L84.7646 267.803L102.138 308.288L117.121 268.44L109.789 264.455C109.789 264.455 110.514 268.962 108.992 270.672C106.793 273.143 104.326 273.709 101.023 273.541C98.1248 273.393 96.0759 272.859 94.1688 270.672Z" fill="#C90101"/>
<path d="M81.8955 383.203V267.006L93.053 262.224L99.7475 297.609L109.152 262.224L120.628 267.006L122.541 292.827V383.203H103.095V357.381L99.7475 383.203H81.8955Z" fill="white"/>
<path opacity="0.75" d="M81.4175 383.522V310.042L122.222 292.19V304.304C122.222 304.304 111.224 304.782 99.4289 319.605C87.6338 334.429 81.4175 383.522 81.4175 383.522Z" fill="#C4C4C4"/>
<path opacity="0.25" d="M81.5767 315.461V312.273L104.689 303.347L81.5767 315.461Z" fill="url(#paint3_linear)"/>
<path d="M125.728 268.6L112.818 264.137L108.992 280.713L121.265 285.176C121.265 285.176 127.322 307.332 132.104 309.404C136.886 311.476 148.84 294.262 148.84 294.262L142.624 290.755L135.77 294.262L125.728 268.6Z" fill="white"/>
<path d="M125.728 268.6L112.818 264.137L108.992 280.713L121.265 285.176C121.265 285.176 127.322 307.332 132.104 309.404C136.886 311.476 148.84 294.262 148.84 294.262L142.624 290.755L135.77 294.262L125.728 268.6Z" fill="#C4C4C4"/>
<path d="M112.594 267.961C113.16 265.842 115.325 264.574 117.45 265.117L137.764 270.311C139.915 270.861 141.207 273.059 140.641 275.206L131.881 308.442C131.306 310.626 129.038 311.9 126.874 311.257L106.664 305.252C104.588 304.635 103.38 302.478 103.939 300.386L112.594 267.961Z" fill="url(#paint4_linear)"/>
<path d="M102.298 303.985L99.5884 298.725L102.298 293.306L104.051 289.799L108.196 286.611L111.543 285.177L112.499 285.814L108.674 289.002L114.412 287.089L114.731 287.886L110.586 290.755L115.049 289.321L115.209 290.118L110.905 293.306L114.093 291.871L114.253 292.349L110.905 295.856L107.877 298.725L102.298 303.985Z" fill="#D89B78"/>
<path d="M141.987 291.393V292.987L146.131 296.812L149 283.423L146.928 274.657L142.465 271.15L142.305 272.106L144.537 274.816L144.696 276.25L139.755 272.425L138.958 273.063L141.349 275.772L137.842 274.178L137.524 274.657L139.915 278.163L137.683 276.729L137.364 276.888L140.393 281.67L141.987 291.393Z" fill="#D89B78"/>
<path d="M149 294.262L142.305 290.596L137.842 293.306L144.377 300.159L149 294.262Z" fill="#C4C4C4"/>
<path d="M88.5901 264.455L93.3719 262.065L94.6823 277.526L82.5685 289.161C82.5685 289.161 73.8019 303.825 74.7586 303.985C75.7154 304.144 86.7127 300.956 86.7127 300.956L99.7829 297.928L105.202 302.869L98.3483 305.579L82.5685 311.636L71.7301 315.302C71.7301 315.302 68.2227 315.939 65.9916 312.911C63.7605 309.882 65.9916 296.493 65.9916 296.493L69.3389 277.526C69.3389 277.526 71.04 272.219 73.8019 270.512C76.066 269.114 77.3996 267.645 79.9829 267.006C83.1549 266.22 88.5901 264.455 88.5901 264.455Z" fill="white"/>
<path opacity="0.75" d="M74.7231 304.144H73.2886L77.7516 292.349L82.2146 284.698L83.6491 288.205C83.6491 288.205 84.2867 292.349 88.4309 293.784C92.1822 295.082 96.7171 294.03 97.5433 293.819L96.8787 292.806L97.6757 293.784C97.6757 293.784 97.6298 293.797 97.5433 293.819L100.226 297.907L81.4176 302.072V290.755L74.7231 304.144Z" fill="#C4C4C4"/>
<rect opacity="0.5" x="84.127" y="288.683" width="9.88235" height="3.50664" fill="url(#paint5_linear)"/>
<rect opacity="0.5" x="81.2583" y="327.894" width="9.88235" height="3.50664" fill="url(#paint6_linear)"/>
<rect opacity="0.5" x="112.499" y="327.894" width="9.88235" height="3.50664" fill="url(#paint7_linear)"/>
<path opacity="0.5" d="M93.2127 262.065L87.4746 264.455L88.7498 271.788L92.7346 274.657L89.8655 276.251L99.5885 296.972L93.2127 262.065Z" fill="url(#paint8_linear)"/>
<path opacity="0.5" d="M114.89 264.455L108.833 262.224L99.5884 297.768L112.021 276.729L109.63 274.816L113.456 272.425L114.89 264.455Z" fill="url(#paint9_linear)"/>
<path opacity="0.25" d="M105.486 383.362H102.936V342.558L105.486 383.362Z" fill="url(#paint10_linear)"/>
<path fill-rule="evenodd" clip-rule="evenodd" d="M158.621 215.515C159.73 216.237 160.581 217.11 161.111 218.071C161.641 219.031 161.838 220.056 161.688 221.072C160.937 225.772 159.513 230.417 157.435 234.947C172.344 232.706 181.45 230.111 185.586 228.751C187.932 227.98 190.633 227.797 193.174 228.238C200.457 229.498 207.963 230.133 215.5 230.125C258.207 230.125 290.312 210.651 290.312 188.5C290.312 166.356 258.207 146.875 215.5 146.875C172.793 146.875 140.688 166.356 140.688 188.5C140.688 198.684 147.282 208.133 158.621 215.515ZM153.352 242.606C150.82 242.931 148.28 243.23 145.732 243.501C143.595 243.723 141.97 242.28 142.814 240.989C143.763 239.536 144.633 238.062 145.422 236.57L145.454 236.501C148.105 231.506 150.263 225.761 151.054 220.413C137.941 211.879 130 200.71 130 188.5C130 161.68 168.283 139.938 215.5 139.938C262.717 139.938 301 161.68 301 188.5C301 215.32 262.717 237.063 215.5 237.063C207.032 237.07 198.599 236.356 190.416 234.94C184.859 236.764 172.9 240.087 153.352 242.606Z" fill="#C90101"/>
<path d="M155.016 184.84H156.939V199H155.016V192.496H147.779V199H145.855V184.84H147.779V190.797H155.016V184.84ZM164.547 188.521C166.09 188.521 167.288 188.99 168.141 189.928C168.993 190.859 169.42 192.164 169.42 193.844C169.42 195.523 168.993 196.829 168.141 197.76C167.288 198.691 166.09 199.156 164.547 199.156C162.997 199.156 161.796 198.691 160.943 197.76C160.09 196.829 159.664 195.523 159.664 193.844C159.664 192.164 160.09 190.859 160.943 189.928C161.796 188.99 162.997 188.521 164.547 188.521ZM164.547 190.182C163.583 190.182 162.848 190.494 162.34 191.119C161.839 191.744 161.588 192.652 161.588 193.844C161.588 195.029 161.839 195.934 162.34 196.559C162.848 197.184 163.583 197.496 164.547 197.496C165.504 197.496 166.236 197.184 166.744 196.559C167.252 195.934 167.506 195.029 167.506 193.844C167.506 192.659 167.252 191.754 166.744 191.129C166.236 190.497 165.504 190.182 164.547 190.182ZM178.951 194.137C178.86 193.805 178.72 193.219 178.531 192.379C178.492 192.229 178.45 192.06 178.404 191.871C178.365 191.676 178.313 191.464 178.248 191.236C178.157 191.542 178.049 191.975 177.926 192.535C177.75 193.297 177.617 193.831 177.525 194.137L176.148 199H173.551L170.65 188.717H172.506L173.912 193.824L174.85 197.184C175.305 195.693 175.637 194.573 175.846 193.824L177.35 188.717H179.127L180.631 193.824C180.846 194.573 181.178 195.693 181.627 197.184L182.564 193.824L183.971 188.717H185.826L182.926 199H180.328L178.951 194.137ZM196.812 188.541C197.887 188.541 198.919 188.827 199.908 189.4L199.254 190.904C198.414 190.436 197.6 190.201 196.812 190.201C195.855 190.201 195.117 190.517 194.596 191.148C194.075 191.78 193.814 192.678 193.814 193.844C193.814 195.016 194.081 195.911 194.615 196.529C195.149 197.148 195.921 197.457 196.93 197.457C197.301 197.457 197.717 197.402 198.18 197.291C198.642 197.174 199.085 197.024 199.508 196.842L200.016 198.336C199.508 198.577 198.961 198.769 198.375 198.912C197.789 199.049 197.236 199.117 196.715 199.117C195.178 199.117 193.99 198.658 193.15 197.74C192.311 196.822 191.891 195.523 191.891 193.844C191.891 192.177 192.324 190.878 193.189 189.947C194.055 189.01 195.263 188.541 196.812 188.541ZM205.523 188.561C206.806 188.561 207.792 188.899 208.482 189.576C209.179 190.247 209.527 191.207 209.527 192.457V199H208.082L207.809 197.799C206.806 198.73 205.68 199.195 204.43 199.195C203.401 199.195 202.584 198.919 201.979 198.365C201.373 197.812 201.07 197.07 201.07 196.139C201.07 195.058 201.513 194.215 202.398 193.609C203.284 193.004 204.527 192.701 206.129 192.701H207.643V192.418C207.59 190.953 206.839 190.221 205.387 190.221C204.944 190.221 204.446 190.289 203.893 190.426C203.339 190.556 202.783 190.735 202.223 190.963L201.705 189.439C202.304 189.16 202.936 188.945 203.6 188.795C204.27 188.639 204.911 188.561 205.523 188.561ZM206.246 194.137C205.204 194.137 204.394 194.309 203.814 194.654C203.235 194.993 202.945 195.468 202.945 196.08C202.945 196.549 203.105 196.91 203.424 197.164C203.743 197.411 204.189 197.535 204.762 197.535C205.309 197.535 205.842 197.421 206.363 197.193C206.884 196.959 207.311 196.646 207.643 196.256V194.137H206.246ZM214.293 190.162C214.788 189.615 215.331 189.208 215.924 188.941C216.516 188.674 217.18 188.541 217.916 188.541C219.01 188.541 219.846 188.857 220.426 189.488C221.005 190.12 221.295 191.038 221.295 192.242V199H219.41V192.379C219.41 191.617 219.254 191.064 218.941 190.719C218.629 190.374 218.128 190.201 217.438 190.201C216.826 190.201 216.253 190.338 215.719 190.611C215.185 190.885 214.755 191.262 214.43 191.744V199H212.555V188.717H214.078L214.293 190.162ZM229.566 184.84H231.49V199H229.566V184.84ZM241.891 190.035C242.841 189.039 244.003 188.541 245.377 188.541C246.471 188.541 247.307 188.857 247.887 189.488C248.466 190.12 248.756 191.038 248.756 192.242V199H246.871V192.379C246.871 191.617 246.715 191.064 246.402 190.719C246.09 190.374 245.589 190.201 244.898 190.201C244.286 190.201 243.714 190.338 243.18 190.611C242.646 190.885 242.216 191.262 241.891 191.744V199H240.016V183.922H241.891V190.035ZM252.955 194.195C253.007 195.263 253.294 196.08 253.814 196.646C254.335 197.213 255.068 197.496 256.012 197.496C256.533 197.496 257.034 197.441 257.516 197.33C258.004 197.219 258.557 197.031 259.176 196.764L259.771 198.16C259.062 198.505 258.398 198.759 257.779 198.922C257.161 199.078 256.539 199.156 255.914 199.156C254.365 199.156 253.163 198.691 252.311 197.76C251.458 196.829 251.031 195.523 251.031 193.844C251.031 192.164 251.451 190.862 252.291 189.938C253.131 189.007 254.319 188.541 255.855 188.541C257.294 188.541 258.365 188.974 259.068 189.84C259.778 190.706 260.133 192.018 260.133 193.775V194.195H252.955ZM258.189 192.623C258.137 191.822 257.91 191.22 257.506 190.816C257.109 190.406 256.559 190.201 255.855 190.201C254.293 190.201 253.359 191.008 253.053 192.623H258.189ZM262.555 184H264.43V199H262.555V184ZM272.574 188.561C274.013 188.561 275.123 189.007 275.904 189.898C276.692 190.79 277.086 192.057 277.086 193.697C277.086 195.403 276.62 196.744 275.689 197.721C274.758 198.691 273.466 199.176 271.812 199.176C271.188 199.176 270.458 199.085 269.625 198.902V203.717H267.75V188.736H269.254L269.508 190.016C269.951 189.508 270.416 189.14 270.904 188.912C271.399 188.678 271.956 188.561 272.574 188.561ZM271.793 197.516C272.861 197.516 273.691 197.18 274.283 196.51C274.876 195.839 275.172 194.902 275.172 193.697C275.172 192.59 274.934 191.734 274.459 191.129C273.984 190.523 273.313 190.221 272.447 190.221C271.77 190.221 271.188 190.39 270.699 190.729C270.211 191.067 269.853 191.565 269.625 192.223V197.223C270.172 197.353 270.572 197.434 270.826 197.467C271.08 197.499 271.402 197.516 271.793 197.516ZM283.902 188.238C283.902 187.626 283.684 187.145 283.248 186.793C282.818 186.435 282.229 186.256 281.48 186.256C280.706 186.256 279.713 186.51 278.502 187.018L277.867 185.465C278.466 185.172 279.078 184.944 279.703 184.781C280.328 184.618 280.93 184.537 281.51 184.537C282.87 184.537 283.928 184.866 284.684 185.523C285.445 186.174 285.826 187.079 285.826 188.238C285.826 188.863 285.742 189.387 285.572 189.811C285.41 190.227 285.204 190.559 284.957 190.807C284.71 191.054 284.378 191.331 283.961 191.637C283.492 191.982 283.115 192.307 282.828 192.613C282.548 192.913 282.307 193.333 282.105 193.873C281.904 194.413 281.803 195.097 281.803 195.924H279.967C279.967 194.83 280.084 193.945 280.318 193.268C280.553 192.584 280.836 192.063 281.168 191.705C281.5 191.34 281.92 190.979 282.428 190.621C282.773 190.367 283.04 190.152 283.229 189.977C283.424 189.794 283.583 189.563 283.707 189.283C283.837 189.003 283.902 188.655 283.902 188.238ZM279.908 196.998H281.91V199H279.908V196.998Z" fill="#3C3939"/>
<g filter="url(#filter0_dd)">
<path d="M75.2918 142.882L73.1181 140.708L64.5002 149.326L55.8822 140.708L53.7085 142.882L62.3264 151.5L53.7085 160.118L55.8822 162.292L64.5002 153.674L73.1181 162.292L75.2918 160.118L66.6739 151.5L75.2918 142.882Z" fill="#C90101"/>
</g>
</g>
<path d="M203.676 272.684C204.398 272.684 205.115 272.785 205.824 272.986C206.54 273.182 207.211 273.471 207.836 273.855L207.035 275.418C206.423 275.086 205.847 274.848 205.307 274.705C204.766 274.555 204.223 274.48 203.676 274.48C202.172 274.48 201.01 274.949 200.189 275.887C199.369 276.818 198.959 278.149 198.959 279.881C198.959 281.626 199.363 282.973 200.17 283.924C200.977 284.868 202.126 285.34 203.617 285.34C204.802 285.34 206.01 285.06 207.24 284.5L207.943 286.141C207.292 286.447 206.576 286.691 205.795 286.873C205.014 287.049 204.262 287.137 203.539 287.137C201.404 287.137 199.773 286.515 198.646 285.271C197.52 284.021 196.957 282.225 196.957 279.881C196.957 278.39 197.224 277.104 197.758 276.023C198.292 274.943 199.06 274.116 200.062 273.543C201.072 272.97 202.276 272.684 203.676 272.684ZM214.398 272.84C215.974 272.84 217.178 273.198 218.012 273.914C218.845 274.624 219.262 275.652 219.262 277C219.262 278.335 218.839 279.367 217.992 280.096C217.146 280.818 215.948 281.18 214.398 281.18H212.143V287H210.219V272.84H214.398ZM214.398 279.48C216.306 279.48 217.26 278.654 217.26 277C217.26 276.173 217.025 275.558 216.557 275.154C216.094 274.744 215.375 274.539 214.398 274.539H212.143V279.48H214.398ZM223.607 287H221.684V272.84H225.863C227.517 272.84 228.773 273.198 229.633 273.914C230.499 274.624 230.932 275.652 230.932 277C230.932 277.957 230.701 278.761 230.238 279.412C229.776 280.057 229.105 280.532 228.227 280.838L231.449 287H229.232L226.225 281.18H223.607V287ZM225.863 279.48C227.908 279.48 228.93 278.654 228.93 277C228.93 276.173 228.679 275.558 228.178 275.154C227.676 274.744 226.905 274.539 225.863 274.539H223.607V279.48H225.863Z" fill="black"/>
<path d="M205.258 305.598C206.085 305.865 206.71 306.268 207.133 306.809C207.562 307.349 207.777 308.02 207.777 308.82C207.777 310.155 207.354 311.187 206.508 311.916C205.661 312.639 204.467 313 202.924 313H197.855V298.84H202.338C203.913 298.84 205.118 299.162 205.951 299.807C206.785 300.445 207.201 301.376 207.201 302.6C207.201 304.012 206.553 304.979 205.258 305.5V305.598ZM202.338 304.836C204.245 304.836 205.199 304.09 205.199 302.6C205.199 301.226 204.245 300.539 202.338 300.539H199.779V304.836H202.338ZM202.924 311.301C203.842 311.301 204.545 311.089 205.033 310.666C205.528 310.236 205.775 309.621 205.775 308.82C205.775 307.303 204.724 306.542 202.621 306.535H199.779V311.301H202.924ZM210.336 298H212.211V313H210.336V298ZM216.654 308.195C216.706 309.263 216.993 310.08 217.514 310.646C218.035 311.213 218.767 311.496 219.711 311.496C220.232 311.496 220.733 311.441 221.215 311.33C221.703 311.219 222.257 311.031 222.875 310.764L223.471 312.16C222.761 312.505 222.097 312.759 221.479 312.922C220.86 313.078 220.238 313.156 219.613 313.156C218.064 313.156 216.863 312.691 216.01 311.76C215.157 310.829 214.73 309.523 214.73 307.844C214.73 306.164 215.15 304.862 215.99 303.938C216.83 303.007 218.018 302.541 219.555 302.541C220.993 302.541 222.064 302.974 222.768 303.84C223.477 304.706 223.832 306.018 223.832 307.775V308.195H216.654ZM221.889 306.623C221.837 305.822 221.609 305.22 221.205 304.816C220.808 304.406 220.258 304.201 219.555 304.201C217.992 304.201 217.058 305.008 216.752 306.623H221.889ZM227.377 308.195C227.429 309.263 227.715 310.08 228.236 310.646C228.757 311.213 229.49 311.496 230.434 311.496C230.954 311.496 231.456 311.441 231.938 311.33C232.426 311.219 232.979 311.031 233.598 310.764L234.193 312.16C233.484 312.505 232.82 312.759 232.201 312.922C231.583 313.078 230.961 313.156 230.336 313.156C228.786 313.156 227.585 312.691 226.732 311.76C225.88 310.829 225.453 309.523 225.453 307.844C225.453 306.164 225.873 304.862 226.713 303.938C227.553 303.007 228.741 302.541 230.277 302.541C231.716 302.541 232.787 302.974 233.49 303.84C234.2 304.706 234.555 306.018 234.555 307.775V308.195H227.377ZM232.611 306.623C232.559 305.822 232.331 305.22 231.928 304.816C231.531 304.406 230.98 304.201 230.277 304.201C228.715 304.201 227.781 305.008 227.475 306.623H232.611ZM243.754 311.701C243.311 312.209 242.839 312.58 242.338 312.814C241.843 313.042 241.296 313.156 240.697 313.156C239.258 313.156 238.145 312.71 237.357 311.818C236.57 310.926 236.176 309.66 236.176 308.02C236.176 306.314 236.641 304.976 237.572 304.006C238.51 303.029 239.805 302.541 241.459 302.541C242.058 302.541 242.784 302.635 243.637 302.824V298H245.512V312.98H244.018L243.754 311.701ZM240.814 311.496C241.472 311.496 242.045 311.32 242.533 310.969C243.028 310.617 243.396 310.122 243.637 309.484V304.504C243.103 304.374 242.702 304.292 242.436 304.26C242.169 304.221 241.85 304.201 241.479 304.201C240.411 304.201 239.581 304.54 238.988 305.217C238.396 305.887 238.1 306.822 238.1 308.02C238.1 309.126 238.334 309.982 238.803 310.588C239.278 311.193 239.949 311.496 240.814 311.496ZM248.578 298.918H250.453V300.842H248.578V298.918ZM248.578 302.717H250.453V313H248.578V302.717ZM255.473 304.162C255.967 303.615 256.511 303.208 257.104 302.941C257.696 302.674 258.36 302.541 259.096 302.541C260.189 302.541 261.026 302.857 261.605 303.488C262.185 304.12 262.475 305.038 262.475 306.242V313H260.59V306.379C260.59 305.617 260.434 305.064 260.121 304.719C259.809 304.374 259.307 304.201 258.617 304.201C258.005 304.201 257.432 304.338 256.898 304.611C256.365 304.885 255.935 305.262 255.609 305.744V313H253.734V302.717H255.258L255.473 304.162ZM269.887 302.639C270.342 302.639 270.779 302.704 271.195 302.834C271.618 302.958 271.99 303.133 272.309 303.361L272.533 302.717H274.086V313.283C274.086 314.657 273.646 315.738 272.768 316.525C271.889 317.32 270.691 317.717 269.174 317.717C268.412 317.717 267.673 317.622 266.957 317.434C266.247 317.251 265.619 316.994 265.072 316.662L265.775 315.158C266.257 315.425 266.82 315.64 267.465 315.803C268.109 315.972 268.718 316.057 269.291 316.057C270.222 316.057 270.941 315.819 271.449 315.344C271.957 314.875 272.211 314.201 272.211 313.322V311.838C271.397 312.717 270.417 313.156 269.271 313.156C267.833 313.156 266.719 312.71 265.932 311.818C265.144 310.926 264.75 309.66 264.75 308.02C264.75 306.314 265.196 304.992 266.088 304.055C266.98 303.111 268.246 302.639 269.887 302.639ZM269.994 304.201C268.965 304.201 268.155 304.543 267.562 305.227C266.97 305.904 266.674 306.835 266.674 308.02C266.674 309.126 266.908 309.982 267.377 310.588C267.852 311.193 268.523 311.496 269.389 311.496C270.053 311.496 270.635 311.314 271.137 310.949C271.638 310.585 271.996 310.08 272.211 309.436V304.797C271.905 304.608 271.553 304.462 271.156 304.357C270.766 304.253 270.378 304.201 269.994 304.201Z" fill="black"/>
<path d="M205.258 358.598C206.085 358.865 206.71 359.268 207.133 359.809C207.562 360.349 207.777 361.02 207.777 361.82C207.777 363.155 207.354 364.187 206.508 364.916C205.661 365.639 204.467 366 202.924 366H197.855V351.84H202.338C203.913 351.84 205.118 352.162 205.951 352.807C206.785 353.445 207.201 354.376 207.201 355.6C207.201 357.012 206.553 357.979 205.258 358.5V358.598ZM202.338 357.836C204.245 357.836 205.199 357.09 205.199 355.6C205.199 354.226 204.245 353.539 202.338 353.539H199.779V357.836H202.338ZM202.924 364.301C203.842 364.301 204.545 364.089 205.033 363.666C205.528 363.236 205.775 362.621 205.775 361.82C205.775 360.303 204.724 359.542 202.621 359.535H199.779V364.301H202.924ZM211.977 362.357C211.977 363.106 212.133 363.653 212.445 363.998C212.758 364.343 213.262 364.516 213.959 364.516C214.545 364.516 215.105 364.379 215.639 364.105C216.173 363.832 216.612 363.464 216.957 363.002V355.717H218.832V366H217.318L217.074 364.584C216.169 365.652 215.01 366.182 213.598 366.176C212.452 366.176 211.579 365.863 210.98 365.238C210.388 364.613 210.092 363.702 210.092 362.504V355.717H211.977V362.357ZM223.852 357.162C224.21 356.628 224.63 356.225 225.111 355.951C225.593 355.678 226.12 355.541 226.693 355.541C227.077 355.541 227.523 355.613 228.031 355.756L227.689 357.602C227.038 357.471 226.599 357.403 226.371 357.396C225.798 357.396 225.323 357.504 224.945 357.719C224.574 357.934 224.255 358.282 223.988 358.764V366H222.113V355.717H223.617L223.852 357.162ZM231.469 357.162C231.964 356.615 232.507 356.208 233.1 355.941C233.692 355.674 234.356 355.541 235.092 355.541C236.186 355.541 237.022 355.857 237.602 356.488C238.181 357.12 238.471 358.038 238.471 359.242V366H236.586V359.379C236.586 358.617 236.43 358.064 236.117 357.719C235.805 357.374 235.303 357.201 234.613 357.201C234.001 357.201 233.428 357.338 232.895 357.611C232.361 357.885 231.931 358.262 231.605 358.744V366H229.73V355.717H231.254L231.469 357.162ZM244.623 355.541C245.463 355.535 246.436 355.753 247.543 356.195L247.045 357.758C246.068 357.374 245.261 357.182 244.623 357.182C244.037 357.182 243.575 357.296 243.236 357.523C242.898 357.745 242.729 358.051 242.729 358.441C242.729 358.812 242.878 359.096 243.178 359.291C243.477 359.486 243.926 359.675 244.525 359.857C245.235 360.085 245.798 360.297 246.215 360.492C246.638 360.681 247.006 360.987 247.318 361.41C247.631 361.827 247.787 362.383 247.787 363.08C247.787 364.024 247.445 364.776 246.762 365.336C246.085 365.896 245.167 366.176 244.008 366.176C242.797 366.176 241.628 365.919 240.502 365.404L241.088 363.783C241.726 364.05 242.26 364.239 242.689 364.35C243.126 364.46 243.559 364.516 243.988 364.516C244.6 364.516 245.072 364.398 245.404 364.164C245.736 363.923 245.902 363.575 245.902 363.119C245.902 362.826 245.808 362.585 245.619 362.396C245.437 362.201 245.209 362.051 244.936 361.947C244.662 361.837 244.271 361.7 243.764 361.537C243.152 361.335 242.647 361.137 242.25 360.941C241.859 360.74 241.527 360.44 241.254 360.043C240.98 359.639 240.844 359.112 240.844 358.461C240.844 357.569 241.186 356.859 241.869 356.332C242.559 355.805 243.477 355.541 244.623 355.541Z" fill="black"/>
<path d="M204.258 331.598C205.085 331.865 205.71 332.268 206.133 332.809C206.562 333.349 206.777 334.02 206.777 334.82C206.777 336.155 206.354 337.187 205.508 337.916C204.661 338.639 203.467 339 201.924 339H196.855V324.84H201.338C202.913 324.84 204.118 325.162 204.951 325.807C205.785 326.445 206.201 327.376 206.201 328.6C206.201 330.012 205.553 330.979 204.258 331.5V331.598ZM201.338 330.836C203.245 330.836 204.199 330.09 204.199 328.6C204.199 327.226 203.245 326.539 201.338 326.539H198.779V330.836H201.338ZM201.924 337.301C202.842 337.301 203.545 337.089 204.033 336.666C204.528 336.236 204.775 335.621 204.775 334.82C204.775 333.303 203.724 332.542 201.621 332.535H198.779V337.301H201.924ZM209.336 324H211.211V339H209.336V324ZM214.512 324.918H216.387V326.842H214.512V324.918ZM214.512 328.717H216.387V339H214.512V328.717ZM222.764 328.541C223.604 328.535 224.577 328.753 225.684 329.195L225.186 330.758C224.209 330.374 223.402 330.182 222.764 330.182C222.178 330.182 221.715 330.296 221.377 330.523C221.038 330.745 220.869 331.051 220.869 331.441C220.869 331.812 221.019 332.096 221.318 332.291C221.618 332.486 222.067 332.675 222.666 332.857C223.376 333.085 223.939 333.297 224.355 333.492C224.779 333.681 225.146 333.987 225.459 334.41C225.771 334.827 225.928 335.383 225.928 336.08C225.928 337.024 225.586 337.776 224.902 338.336C224.225 338.896 223.307 339.176 222.148 339.176C220.938 339.176 219.769 338.919 218.643 338.404L219.229 336.783C219.867 337.05 220.4 337.239 220.83 337.35C221.266 337.46 221.699 337.516 222.129 337.516C222.741 337.516 223.213 337.398 223.545 337.164C223.877 336.923 224.043 336.575 224.043 336.119C224.043 335.826 223.949 335.585 223.76 335.396C223.577 335.201 223.35 335.051 223.076 334.947C222.803 334.837 222.412 334.7 221.904 334.537C221.292 334.335 220.788 334.137 220.391 333.941C220 333.74 219.668 333.44 219.395 333.043C219.121 332.639 218.984 332.112 218.984 331.461C218.984 330.569 219.326 329.859 220.01 329.332C220.7 328.805 221.618 328.541 222.764 328.541ZM233.955 338.658C233.18 338.964 232.461 339.117 231.797 339.117C230.807 339.117 230.052 338.863 229.531 338.355C229.017 337.841 228.76 337.089 228.76 336.1V330.338H226.963V328.717H228.857L229.258 325.777H230.645V328.717H233.779V330.338H230.645V335.797C230.645 336.383 230.758 336.803 230.986 337.057C231.221 337.311 231.605 337.438 232.139 337.438C232.607 337.438 233.096 337.353 233.604 337.184L233.955 338.658ZM237.197 334.195C237.249 335.263 237.536 336.08 238.057 336.646C238.577 337.213 239.31 337.496 240.254 337.496C240.775 337.496 241.276 337.441 241.758 337.33C242.246 337.219 242.799 337.031 243.418 336.764L244.014 338.16C243.304 338.505 242.64 338.759 242.021 338.922C241.403 339.078 240.781 339.156 240.156 339.156C238.607 339.156 237.406 338.691 236.553 337.76C235.7 336.829 235.273 335.523 235.273 333.844C235.273 332.164 235.693 330.862 236.533 329.938C237.373 329.007 238.561 328.541 240.098 328.541C241.536 328.541 242.607 328.974 243.311 329.84C244.02 330.706 244.375 332.018 244.375 333.775V334.195H237.197ZM242.432 332.623C242.38 331.822 242.152 331.22 241.748 330.816C241.351 330.406 240.801 330.201 240.098 330.201C238.535 330.201 237.601 331.008 237.295 332.623H242.432ZM248.516 330.162C248.874 329.628 249.294 329.225 249.775 328.951C250.257 328.678 250.785 328.541 251.357 328.541C251.742 328.541 252.188 328.613 252.695 328.756L252.354 330.602C251.702 330.471 251.263 330.403 251.035 330.396C250.462 330.396 249.987 330.504 249.609 330.719C249.238 330.934 248.919 331.282 248.652 331.764V339H246.777V328.717H248.281L248.516 330.162ZM257.49 328.541C258.33 328.535 259.303 328.753 260.41 329.195L259.912 330.758C258.936 330.374 258.128 330.182 257.49 330.182C256.904 330.182 256.442 330.296 256.104 330.523C255.765 330.745 255.596 331.051 255.596 331.441C255.596 331.812 255.745 332.096 256.045 332.291C256.344 332.486 256.794 332.675 257.393 332.857C258.102 333.085 258.665 333.297 259.082 333.492C259.505 333.681 259.873 333.987 260.186 334.41C260.498 334.827 260.654 335.383 260.654 336.08C260.654 337.024 260.312 337.776 259.629 338.336C258.952 338.896 258.034 339.176 256.875 339.176C255.664 339.176 254.495 338.919 253.369 338.404L253.955 336.783C254.593 337.05 255.127 337.239 255.557 337.35C255.993 337.46 256.426 337.516 256.855 337.516C257.467 337.516 257.939 337.398 258.271 337.164C258.604 336.923 258.77 336.575 258.77 336.119C258.77 335.826 258.675 335.585 258.486 335.396C258.304 335.201 258.076 335.051 257.803 334.947C257.529 334.837 257.139 334.7 256.631 334.537C256.019 334.335 255.514 334.137 255.117 333.941C254.727 333.74 254.395 333.44 254.121 333.043C253.848 332.639 253.711 332.112 253.711 331.461C253.711 330.569 254.053 329.859 254.736 329.332C255.426 328.805 256.344 328.541 257.49 328.541Z" fill="black"/>
<path d="M199.779 381.738H205.297V383.438H199.779V390H197.855V375.84H206.283V377.539H199.779V381.738ZM210.023 381.162C210.382 380.628 210.801 380.225 211.283 379.951C211.765 379.678 212.292 379.541 212.865 379.541C213.249 379.541 213.695 379.613 214.203 379.756L213.861 381.602C213.21 381.471 212.771 381.403 212.543 381.396C211.97 381.396 211.495 381.504 211.117 381.719C210.746 381.934 210.427 382.282 210.16 382.764V390H208.285V379.717H209.789L210.023 381.162ZM219.359 379.561C220.642 379.561 221.628 379.899 222.318 380.576C223.015 381.247 223.363 382.207 223.363 383.457V390H221.918L221.645 388.799C220.642 389.73 219.516 390.195 218.266 390.195C217.237 390.195 216.42 389.919 215.814 389.365C215.209 388.812 214.906 388.07 214.906 387.139C214.906 386.058 215.349 385.215 216.234 384.609C217.12 384.004 218.363 383.701 219.965 383.701H221.479V383.418C221.426 381.953 220.674 381.221 219.223 381.221C218.78 381.221 218.282 381.289 217.729 381.426C217.175 381.556 216.618 381.735 216.059 381.963L215.541 380.439C216.14 380.16 216.771 379.945 217.436 379.795C218.106 379.639 218.747 379.561 219.359 379.561ZM220.082 385.137C219.04 385.137 218.23 385.309 217.65 385.654C217.071 385.993 216.781 386.468 216.781 387.08C216.781 387.549 216.941 387.91 217.26 388.164C217.579 388.411 218.025 388.535 218.598 388.535C219.145 388.535 219.678 388.421 220.199 388.193C220.72 387.959 221.146 387.646 221.479 387.256V385.137H220.082ZM230.531 379.541C231.605 379.541 232.637 379.827 233.627 380.4L232.973 381.904C232.133 381.436 231.319 381.201 230.531 381.201C229.574 381.201 228.835 381.517 228.314 382.148C227.794 382.78 227.533 383.678 227.533 384.844C227.533 386.016 227.8 386.911 228.334 387.529C228.868 388.148 229.639 388.457 230.648 388.457C231.02 388.457 231.436 388.402 231.898 388.291C232.361 388.174 232.803 388.024 233.227 387.842L233.734 389.336C233.227 389.577 232.68 389.769 232.094 389.912C231.508 390.049 230.954 390.117 230.434 390.117C228.897 390.117 227.709 389.658 226.869 388.74C226.029 387.822 225.609 386.523 225.609 384.844C225.609 383.177 226.042 381.878 226.908 380.947C227.774 380.01 228.982 379.541 230.531 379.541ZM241.42 389.658C240.645 389.964 239.926 390.117 239.262 390.117C238.272 390.117 237.517 389.863 236.996 389.355C236.482 388.841 236.225 388.089 236.225 387.1V381.338H234.428V379.717H236.322L236.723 376.777H238.109V379.717H241.244V381.338H238.109V386.797C238.109 387.383 238.223 387.803 238.451 388.057C238.686 388.311 239.07 388.438 239.604 388.438C240.072 388.438 240.561 388.353 241.068 388.184L241.42 389.658ZM245.18 386.357C245.18 387.106 245.336 387.653 245.648 387.998C245.961 388.343 246.465 388.516 247.162 388.516C247.748 388.516 248.308 388.379 248.842 388.105C249.376 387.832 249.815 387.464 250.16 387.002V379.717H252.035V390H250.521L250.277 388.584C249.372 389.652 248.214 390.182 246.801 390.176C245.655 390.176 244.783 389.863 244.184 389.238C243.591 388.613 243.295 387.702 243.295 386.504V379.717H245.18V386.357ZM257.055 381.162C257.413 380.628 257.833 380.225 258.314 379.951C258.796 379.678 259.324 379.541 259.896 379.541C260.281 379.541 260.727 379.613 261.234 379.756L260.893 381.602C260.242 381.471 259.802 381.403 259.574 381.396C259.001 381.396 258.526 381.504 258.148 381.719C257.777 381.934 257.458 382.282 257.191 382.764V390H255.316V379.717H256.82L257.055 381.162ZM263.764 385.195C263.816 386.263 264.102 387.08 264.623 387.646C265.144 388.213 265.876 388.496 266.82 388.496C267.341 388.496 267.842 388.441 268.324 388.33C268.812 388.219 269.366 388.031 269.984 387.764L270.58 389.16C269.87 389.505 269.206 389.759 268.588 389.922C267.969 390.078 267.348 390.156 266.723 390.156C265.173 390.156 263.972 389.691 263.119 388.76C262.266 387.829 261.84 386.523 261.84 384.844C261.84 383.164 262.26 381.862 263.1 380.938C263.939 380.007 265.128 379.541 266.664 379.541C268.103 379.541 269.174 379.974 269.877 380.84C270.587 381.706 270.941 383.018 270.941 384.775V385.195H263.764ZM268.998 383.623C268.946 382.822 268.718 382.22 268.314 381.816C267.917 381.406 267.367 381.201 266.664 381.201C265.102 381.201 264.167 382.008 263.861 383.623H268.998ZM276.439 379.541C277.279 379.535 278.253 379.753 279.359 380.195L278.861 381.758C277.885 381.374 277.077 381.182 276.439 381.182C275.854 381.182 275.391 381.296 275.053 381.523C274.714 381.745 274.545 382.051 274.545 382.441C274.545 382.812 274.695 383.096 274.994 383.291C275.294 383.486 275.743 383.675 276.342 383.857C277.051 384.085 277.615 384.297 278.031 384.492C278.454 384.681 278.822 384.987 279.135 385.41C279.447 385.827 279.604 386.383 279.604 387.08C279.604 388.024 279.262 388.776 278.578 389.336C277.901 389.896 276.983 390.176 275.824 390.176C274.613 390.176 273.445 389.919 272.318 389.404L272.904 387.783C273.542 388.05 274.076 388.239 274.506 388.35C274.942 388.46 275.375 388.516 275.805 388.516C276.417 388.516 276.889 388.398 277.221 388.164C277.553 387.923 277.719 387.575 277.719 387.119C277.719 386.826 277.624 386.585 277.436 386.396C277.253 386.201 277.025 386.051 276.752 385.947C276.479 385.837 276.088 385.7 275.58 385.537C274.968 385.335 274.464 385.137 274.066 384.941C273.676 384.74 273.344 384.44 273.07 384.043C272.797 383.639 272.66 383.112 272.66 382.461C272.66 381.569 273.002 380.859 273.686 380.332C274.376 379.805 275.294 379.541 276.439 379.541Z" fill="black"/>
<path d="M200.879 434.363C200.267 433.484 199.535 432.322 198.682 430.877V442H196.855V427.84H198.477L203.721 435.281C204.242 436.017 205.023 437.231 206.064 438.924V427.84H207.881V442H206.26L200.879 434.363ZM215.488 431.521C217.031 431.521 218.229 431.99 219.082 432.928C219.935 433.859 220.361 435.164 220.361 436.844C220.361 438.523 219.935 439.829 219.082 440.76C218.229 441.691 217.031 442.156 215.488 442.156C213.939 442.156 212.738 441.691 211.885 440.76C211.032 439.829 210.605 438.523 210.605 436.844C210.605 435.164 211.032 433.859 211.885 432.928C212.738 431.99 213.939 431.521 215.488 431.521ZM215.488 433.182C214.525 433.182 213.789 433.494 213.281 434.119C212.78 434.744 212.529 435.652 212.529 436.844C212.529 438.029 212.78 438.934 213.281 439.559C213.789 440.184 214.525 440.496 215.488 440.496C216.445 440.496 217.178 440.184 217.686 439.559C218.193 438.934 218.447 438.029 218.447 436.844C218.447 435.659 218.193 434.754 217.686 434.129C217.178 433.497 216.445 433.182 215.488 433.182ZM225.967 431.541C226.807 431.535 227.78 431.753 228.887 432.195L228.389 433.758C227.412 433.374 226.605 433.182 225.967 433.182C225.381 433.182 224.919 433.296 224.58 433.523C224.242 433.745 224.072 434.051 224.072 434.441C224.072 434.812 224.222 435.096 224.521 435.291C224.821 435.486 225.27 435.675 225.869 435.857C226.579 436.085 227.142 436.297 227.559 436.492C227.982 436.681 228.35 436.987 228.662 437.41C228.975 437.827 229.131 438.383 229.131 439.08C229.131 440.024 228.789 440.776 228.105 441.336C227.428 441.896 226.51 442.176 225.352 442.176C224.141 442.176 222.972 441.919 221.846 441.404L222.432 439.783C223.07 440.05 223.604 440.239 224.033 440.35C224.469 440.46 224.902 440.516 225.332 440.516C225.944 440.516 226.416 440.398 226.748 440.164C227.08 439.923 227.246 439.575 227.246 439.119C227.246 438.826 227.152 438.585 226.963 438.396C226.781 438.201 226.553 438.051 226.279 437.947C226.006 437.837 225.615 437.7 225.107 437.537C224.495 437.335 223.991 437.137 223.594 436.941C223.203 436.74 222.871 436.44 222.598 436.043C222.324 435.639 222.188 435.112 222.188 434.461C222.188 433.569 222.529 432.859 223.213 432.332C223.903 431.805 224.821 431.541 225.967 431.541ZM232.666 437.195C232.718 438.263 233.005 439.08 233.525 439.646C234.046 440.213 234.779 440.496 235.723 440.496C236.243 440.496 236.745 440.441 237.227 440.33C237.715 440.219 238.268 440.031 238.887 439.764L239.482 441.16C238.773 441.505 238.109 441.759 237.49 441.922C236.872 442.078 236.25 442.156 235.625 442.156C234.076 442.156 232.874 441.691 232.021 440.76C231.169 439.829 230.742 438.523 230.742 436.844C230.742 435.164 231.162 433.862 232.002 432.938C232.842 432.007 234.03 431.541 235.566 431.541C237.005 431.541 238.076 431.974 238.779 432.84C239.489 433.706 239.844 435.018 239.844 436.775V437.195H232.666ZM237.9 435.623C237.848 434.822 237.62 434.22 237.217 433.816C236.82 433.406 236.27 433.201 235.566 433.201C234.004 433.201 233.07 434.008 232.764 435.623H237.9ZM244.141 432.859C244.518 432.436 244.954 432.111 245.449 431.883C245.951 431.655 246.491 431.541 247.07 431.541C248.509 431.541 249.619 431.987 250.4 432.879C251.188 433.771 251.582 435.037 251.582 436.678C251.582 438.383 251.117 439.725 250.186 440.701C249.255 441.671 247.962 442.156 246.309 442.156C245.599 442.156 244.873 442.085 244.131 441.941C243.395 441.792 242.773 441.596 242.266 441.355V427H244.141V432.859ZM246.943 433.201C246.266 433.201 245.677 433.377 245.176 433.729C244.674 434.08 244.329 434.572 244.141 435.203V440.115C244.766 440.369 245.482 440.496 246.289 440.496C247.357 440.496 248.187 440.161 248.779 439.49C249.372 438.82 249.668 437.882 249.668 436.678C249.668 435.571 249.43 434.715 248.955 434.109C248.48 433.504 247.809 433.201 246.943 433.201ZM254.102 427H255.977V442H254.102V427ZM260.42 437.195C260.472 438.263 260.758 439.08 261.279 439.646C261.8 440.213 262.533 440.496 263.477 440.496C263.997 440.496 264.499 440.441 264.98 440.33C265.469 440.219 266.022 440.031 266.641 439.764L267.236 441.16C266.527 441.505 265.863 441.759 265.244 441.922C264.626 442.078 264.004 442.156 263.379 442.156C261.829 442.156 260.628 441.691 259.775 440.76C258.923 439.829 258.496 438.523 258.496 436.844C258.496 435.164 258.916 433.862 259.756 432.938C260.596 432.007 261.784 431.541 263.32 431.541C264.759 431.541 265.83 431.974 266.533 432.84C267.243 433.706 267.598 435.018 267.598 436.775V437.195H260.42ZM265.654 435.623C265.602 434.822 265.374 434.22 264.971 433.816C264.574 433.406 264.023 433.201 263.32 433.201C261.758 433.201 260.824 434.008 260.518 435.623H265.654ZM271.143 437.195C271.195 438.263 271.481 439.08 272.002 439.646C272.523 440.213 273.255 440.496 274.199 440.496C274.72 440.496 275.221 440.441 275.703 440.33C276.191 440.219 276.745 440.031 277.363 439.764L277.959 441.16C277.249 441.505 276.585 441.759 275.967 441.922C275.348 442.078 274.727 442.156 274.102 442.156C272.552 442.156 271.351 441.691 270.498 440.76C269.645 439.829 269.219 438.523 269.219 436.844C269.219 435.164 269.639 433.862 270.479 432.938C271.318 432.007 272.507 431.541 274.043 431.541C275.482 431.541 276.553 431.974 277.256 432.84C277.965 433.706 278.32 435.018 278.32 436.775V437.195H271.143ZM276.377 435.623C276.325 434.822 276.097 434.22 275.693 433.816C275.296 433.406 274.746 433.201 274.043 433.201C272.48 433.201 271.546 434.008 271.24 435.623H276.377ZM287.52 440.701C287.077 441.209 286.605 441.58 286.104 441.814C285.609 442.042 285.062 442.156 284.463 442.156C283.024 442.156 281.911 441.71 281.123 440.818C280.335 439.926 279.941 438.66 279.941 437.02C279.941 435.314 280.407 433.976 281.338 433.006C282.275 432.029 283.571 431.541 285.225 431.541C285.824 431.541 286.549 431.635 287.402 431.824V427H289.277V441.98H287.783L287.52 440.701ZM284.58 440.496C285.238 440.496 285.811 440.32 286.299 439.969C286.794 439.617 287.161 439.122 287.402 438.484V433.504C286.868 433.374 286.468 433.292 286.201 433.26C285.934 433.221 285.615 433.201 285.244 433.201C284.176 433.201 283.346 433.54 282.754 434.217C282.161 434.887 281.865 435.822 281.865 437.02C281.865 438.126 282.1 438.982 282.568 439.588C283.044 440.193 283.714 440.496 284.58 440.496Z" fill="black"/>
<path d="M201.82 452.684C202.953 452.677 204.125 452.928 205.336 453.436L204.857 455.203C203.646 454.734 202.621 454.5 201.781 454.5C200.928 454.5 200.251 454.666 199.75 454.998C199.249 455.33 198.998 455.792 198.998 456.385C198.998 456.814 199.086 457.173 199.262 457.459C199.444 457.739 199.75 457.993 200.18 458.221C200.609 458.449 201.208 458.676 201.977 458.904C203.35 459.301 204.327 459.826 204.906 460.477C205.486 461.121 205.775 461.997 205.775 463.104C205.775 464.373 205.349 465.369 204.496 466.092C203.643 466.814 202.471 467.176 200.98 467.176C199.698 467.176 198.272 466.844 196.703 466.18L197.279 464.441C198.158 464.786 198.858 465.027 199.379 465.164C199.9 465.294 200.434 465.359 200.98 465.359C201.846 465.359 202.53 465.161 203.031 464.764C203.533 464.36 203.783 463.813 203.783 463.123C203.783 462.68 203.689 462.312 203.5 462.02C203.311 461.727 202.986 461.463 202.523 461.229C202.068 460.994 201.42 460.763 200.58 460.535C199.298 460.19 198.38 459.715 197.826 459.109C197.273 458.504 196.996 457.687 196.996 456.658C196.996 455.402 197.423 454.425 198.275 453.729C199.135 453.032 200.316 452.684 201.82 452.684ZM213.051 456.561C214.49 456.561 215.6 457.007 216.381 457.898C217.169 458.79 217.562 460.057 217.562 461.697C217.562 463.403 217.097 464.744 216.166 465.721C215.235 466.691 213.943 467.176 212.289 467.176C211.664 467.176 210.935 467.085 210.102 466.902V471.717H208.227V456.736H209.73L209.984 458.016C210.427 457.508 210.893 457.14 211.381 456.912C211.876 456.678 212.432 456.561 213.051 456.561ZM212.27 465.516C213.337 465.516 214.167 465.18 214.76 464.51C215.352 463.839 215.648 462.902 215.648 461.697C215.648 460.59 215.411 459.734 214.936 459.129C214.46 458.523 213.79 458.221 212.924 458.221C212.247 458.221 211.664 458.39 211.176 458.729C210.688 459.067 210.329 459.565 210.102 460.223V465.223C210.648 465.353 211.049 465.434 211.303 465.467C211.557 465.499 211.879 465.516 212.27 465.516ZM221.801 458.162C222.159 457.628 222.579 457.225 223.061 456.951C223.542 456.678 224.07 456.541 224.643 456.541C225.027 456.541 225.473 456.613 225.98 456.756L225.639 458.602C224.988 458.471 224.548 458.403 224.32 458.396C223.747 458.396 223.272 458.504 222.895 458.719C222.523 458.934 222.204 459.282 221.938 459.764V467H220.062V456.717H221.566L221.801 458.162ZM231.137 456.561C232.419 456.561 233.406 456.899 234.096 457.576C234.792 458.247 235.141 459.207 235.141 460.457V467H233.695L233.422 465.799C232.419 466.73 231.293 467.195 230.043 467.195C229.014 467.195 228.197 466.919 227.592 466.365C226.986 465.812 226.684 465.07 226.684 464.139C226.684 463.058 227.126 462.215 228.012 461.609C228.897 461.004 230.141 460.701 231.742 460.701H233.256V460.418C233.204 458.953 232.452 458.221 231 458.221C230.557 458.221 230.059 458.289 229.506 458.426C228.952 458.556 228.396 458.735 227.836 458.963L227.318 457.439C227.917 457.16 228.549 456.945 229.213 456.795C229.883 456.639 230.525 456.561 231.137 456.561ZM231.859 462.137C230.818 462.137 230.007 462.309 229.428 462.654C228.848 462.993 228.559 463.468 228.559 464.08C228.559 464.549 228.718 464.91 229.037 465.164C229.356 465.411 229.802 465.535 230.375 465.535C230.922 465.535 231.456 465.421 231.977 465.193C232.497 464.959 232.924 464.646 233.256 464.256V462.137H231.859ZM238.168 452.918H240.043V454.842H238.168V452.918ZM238.168 456.717H240.043V467H238.168V456.717ZM245.062 458.162C245.557 457.615 246.101 457.208 246.693 456.941C247.286 456.674 247.95 456.541 248.686 456.541C249.779 456.541 250.616 456.857 251.195 457.488C251.775 458.12 252.064 459.038 252.064 460.242V467H250.18V460.379C250.18 459.617 250.023 459.064 249.711 458.719C249.398 458.374 248.897 458.201 248.207 458.201C247.595 458.201 247.022 458.338 246.488 458.611C245.954 458.885 245.525 459.262 245.199 459.744V467H243.324V456.717H244.848L245.062 458.162ZM258.217 456.541C259.057 456.535 260.03 456.753 261.137 457.195L260.639 458.758C259.662 458.374 258.855 458.182 258.217 458.182C257.631 458.182 257.169 458.296 256.83 458.523C256.492 458.745 256.322 459.051 256.322 459.441C256.322 459.812 256.472 460.096 256.771 460.291C257.071 460.486 257.52 460.675 258.119 460.857C258.829 461.085 259.392 461.297 259.809 461.492C260.232 461.681 260.6 461.987 260.912 462.41C261.225 462.827 261.381 463.383 261.381 464.08C261.381 465.024 261.039 465.776 260.355 466.336C259.678 466.896 258.76 467.176 257.602 467.176C256.391 467.176 255.222 466.919 254.096 466.404L254.682 464.783C255.32 465.05 255.854 465.239 256.283 465.35C256.719 465.46 257.152 465.516 257.582 465.516C258.194 465.516 258.666 465.398 258.998 465.164C259.33 464.923 259.496 464.575 259.496 464.119C259.496 463.826 259.402 463.585 259.213 463.396C259.031 463.201 258.803 463.051 258.529 462.947C258.256 462.837 257.865 462.7 257.357 462.537C256.745 462.335 256.241 462.137 255.844 461.941C255.453 461.74 255.121 461.44 254.848 461.043C254.574 460.639 254.438 460.112 254.438 459.461C254.438 458.569 254.779 457.859 255.463 457.332C256.153 456.805 257.071 456.541 258.217 456.541Z" fill="black"/>
<path d="M198.779 406.738H204.297V408.438H198.779V415H196.855V400.84H205.283V402.539H198.779V406.738ZM209.023 406.162C209.382 405.628 209.801 405.225 210.283 404.951C210.765 404.678 211.292 404.541 211.865 404.541C212.249 404.541 212.695 404.613 213.203 404.756L212.861 406.602C212.21 406.471 211.771 406.403 211.543 406.396C210.97 406.396 210.495 406.504 210.117 406.719C209.746 406.934 209.427 407.282 209.16 407.764V415H207.285V404.717H208.789L209.023 406.162ZM218.691 404.521C220.234 404.521 221.432 404.99 222.285 405.928C223.138 406.859 223.564 408.164 223.564 409.844C223.564 411.523 223.138 412.829 222.285 413.76C221.432 414.691 220.234 415.156 218.691 415.156C217.142 415.156 215.941 414.691 215.088 413.76C214.235 412.829 213.809 411.523 213.809 409.844C213.809 408.164 214.235 406.859 215.088 405.928C215.941 404.99 217.142 404.521 218.691 404.521ZM218.691 406.182C217.728 406.182 216.992 406.494 216.484 407.119C215.983 407.744 215.732 408.652 215.732 409.844C215.732 411.029 215.983 411.934 216.484 412.559C216.992 413.184 217.728 413.496 218.691 413.496C219.648 413.496 220.381 413.184 220.889 412.559C221.396 411.934 221.65 411.029 221.65 409.844C221.65 408.659 221.396 407.754 220.889 407.129C220.381 406.497 219.648 406.182 218.691 406.182ZM229.17 404.541C230.01 404.535 230.983 404.753 232.09 405.195L231.592 406.758C230.615 406.374 229.808 406.182 229.17 406.182C228.584 406.182 228.122 406.296 227.783 406.523C227.445 406.745 227.275 407.051 227.275 407.441C227.275 407.812 227.425 408.096 227.725 408.291C228.024 408.486 228.473 408.675 229.072 408.857C229.782 409.085 230.345 409.297 230.762 409.492C231.185 409.681 231.553 409.987 231.865 410.41C232.178 410.827 232.334 411.383 232.334 412.08C232.334 413.024 231.992 413.776 231.309 414.336C230.632 414.896 229.714 415.176 228.555 415.176C227.344 415.176 226.175 414.919 225.049 414.404L225.635 412.783C226.273 413.05 226.807 413.239 227.236 413.35C227.673 413.46 228.105 413.516 228.535 413.516C229.147 413.516 229.619 413.398 229.951 413.164C230.283 412.923 230.449 412.575 230.449 412.119C230.449 411.826 230.355 411.585 230.166 411.396C229.984 411.201 229.756 411.051 229.482 410.947C229.209 410.837 228.818 410.7 228.311 410.537C227.699 410.335 227.194 410.137 226.797 409.941C226.406 409.74 226.074 409.44 225.801 409.043C225.527 408.639 225.391 408.112 225.391 407.461C225.391 406.569 225.732 405.859 226.416 405.332C227.106 404.805 228.024 404.541 229.17 404.541ZM240.361 414.658C239.587 414.964 238.867 415.117 238.203 415.117C237.214 415.117 236.458 414.863 235.938 414.355C235.423 413.841 235.166 413.089 235.166 412.1V406.338H233.369V404.717H235.264L235.664 401.777H237.051V404.717H240.186V406.338H237.051V411.797C237.051 412.383 237.165 412.803 237.393 413.057C237.627 413.311 238.011 413.438 238.545 413.438C239.014 413.438 239.502 413.353 240.01 413.184L240.361 414.658ZM244.355 405.859C244.733 405.436 245.169 405.111 245.664 404.883C246.165 404.655 246.706 404.541 247.285 404.541C248.724 404.541 249.834 404.987 250.615 405.879C251.403 406.771 251.797 408.037 251.797 409.678C251.797 411.383 251.331 412.725 250.4 413.701C249.469 414.671 248.177 415.156 246.523 415.156C245.814 415.156 245.088 415.085 244.346 414.941C243.61 414.792 242.988 414.596 242.48 414.355V400H244.355V405.859ZM247.158 406.201C246.481 406.201 245.892 406.377 245.391 406.729C244.889 407.08 244.544 407.572 244.355 408.203V413.115C244.98 413.369 245.697 413.496 246.504 413.496C247.572 413.496 248.402 413.161 248.994 412.49C249.587 411.82 249.883 410.882 249.883 409.678C249.883 408.571 249.645 407.715 249.17 407.109C248.695 406.504 248.024 406.201 247.158 406.201ZM254.297 400.918H256.172V402.842H254.297V400.918ZM254.297 404.717H256.172V415H254.297V404.717ZM265.088 414.658C264.313 414.964 263.594 415.117 262.93 415.117C261.94 415.117 261.185 414.863 260.664 414.355C260.15 413.841 259.893 413.089 259.893 412.1V406.338H258.096V404.717H259.99L260.391 401.777H261.777V404.717H264.912V406.338H261.777V411.797C261.777 412.383 261.891 412.803 262.119 413.057C262.354 413.311 262.738 413.438 263.271 413.438C263.74 413.438 264.229 413.353 264.736 413.184L265.088 414.658ZM268.33 410.195C268.382 411.263 268.669 412.08 269.189 412.646C269.71 413.213 270.443 413.496 271.387 413.496C271.908 413.496 272.409 413.441 272.891 413.33C273.379 413.219 273.932 413.031 274.551 412.764L275.146 414.16C274.437 414.505 273.773 414.759 273.154 414.922C272.536 415.078 271.914 415.156 271.289 415.156C269.74 415.156 268.538 414.691 267.686 413.76C266.833 412.829 266.406 411.523 266.406 409.844C266.406 408.164 266.826 406.862 267.666 405.938C268.506 405.007 269.694 404.541 271.23 404.541C272.669 404.541 273.74 404.974 274.443 405.84C275.153 406.706 275.508 408.018 275.508 409.775V410.195H268.33ZM273.564 408.623C273.512 407.822 273.285 407.22 272.881 406.816C272.484 406.406 271.934 406.201 271.23 406.201C269.668 406.201 268.734 407.008 268.428 408.623H273.564Z" fill="black"/>
<path d="M201.82 477.684C202.953 477.677 204.125 477.928 205.336 478.436L204.857 480.203C203.646 479.734 202.621 479.5 201.781 479.5C200.928 479.5 200.251 479.666 199.75 479.998C199.249 480.33 198.998 480.792 198.998 481.385C198.998 481.814 199.086 482.173 199.262 482.459C199.444 482.739 199.75 482.993 200.18 483.221C200.609 483.449 201.208 483.676 201.977 483.904C203.35 484.301 204.327 484.826 204.906 485.477C205.486 486.121 205.775 486.997 205.775 488.104C205.775 489.373 205.349 490.369 204.496 491.092C203.643 491.814 202.471 492.176 200.98 492.176C199.698 492.176 198.272 491.844 196.703 491.18L197.279 489.441C198.158 489.786 198.858 490.027 199.379 490.164C199.9 490.294 200.434 490.359 200.98 490.359C201.846 490.359 202.53 490.161 203.031 489.764C203.533 489.36 203.783 488.813 203.783 488.123C203.783 487.68 203.689 487.312 203.5 487.02C203.311 486.727 202.986 486.463 202.523 486.229C202.068 485.994 201.42 485.763 200.58 485.535C199.298 485.19 198.38 484.715 197.826 484.109C197.273 483.504 196.996 482.687 196.996 481.658C196.996 480.402 197.423 479.425 198.275 478.729C199.135 478.032 200.316 477.684 201.82 477.684ZM213.842 491.658C213.067 491.964 212.348 492.117 211.684 492.117C210.694 492.117 209.939 491.863 209.418 491.355C208.904 490.841 208.646 490.089 208.646 489.1V483.338H206.85V481.717H208.744L209.145 478.777H210.531V481.717H213.666V483.338H210.531V488.797C210.531 489.383 210.645 489.803 210.873 490.057C211.107 490.311 211.492 490.438 212.025 490.438C212.494 490.438 212.982 490.353 213.49 490.184L213.842 491.658ZM215.941 477.918H217.816V479.842H215.941V477.918ZM215.941 481.717H217.816V492H215.941V481.717ZM222.836 483.162C223.331 482.615 223.874 482.208 224.467 481.941C225.059 481.674 225.723 481.541 226.459 481.541C227.553 481.541 228.389 481.857 228.969 482.488C229.548 483.12 229.838 484.038 229.838 485.242V492H227.953V485.379C227.953 484.617 227.797 484.064 227.484 483.719C227.172 483.374 226.671 483.201 225.98 483.201C225.368 483.201 224.796 483.338 224.262 483.611C223.728 483.885 223.298 484.262 222.973 484.744V492H221.098V481.717H222.621L222.836 483.162ZM237.25 481.639C237.706 481.639 238.142 481.704 238.559 481.834C238.982 481.958 239.353 482.133 239.672 482.361L239.896 481.717H241.449V492.283C241.449 493.657 241.01 494.738 240.131 495.525C239.252 496.32 238.054 496.717 236.537 496.717C235.775 496.717 235.036 496.622 234.32 496.434C233.611 496.251 232.982 495.994 232.436 495.662L233.139 494.158C233.62 494.425 234.184 494.64 234.828 494.803C235.473 494.972 236.081 495.057 236.654 495.057C237.585 495.057 238.305 494.819 238.812 494.344C239.32 493.875 239.574 493.201 239.574 492.322V490.838C238.76 491.717 237.781 492.156 236.635 492.156C235.196 492.156 234.083 491.71 233.295 490.818C232.507 489.926 232.113 488.66 232.113 487.02C232.113 485.314 232.559 483.992 233.451 483.055C234.343 482.111 235.609 481.639 237.25 481.639ZM237.357 483.201C236.329 483.201 235.518 483.543 234.926 484.227C234.333 484.904 234.037 485.835 234.037 487.02C234.037 488.126 234.271 488.982 234.74 489.588C235.215 490.193 235.886 490.496 236.752 490.496C237.416 490.496 237.999 490.314 238.5 489.949C239.001 489.585 239.359 489.08 239.574 488.436V483.797C239.268 483.608 238.917 483.462 238.52 483.357C238.129 483.253 237.742 483.201 237.357 483.201ZM247.846 481.541C248.686 481.535 249.659 481.753 250.766 482.195L250.268 483.758C249.291 483.374 248.484 483.182 247.846 483.182C247.26 483.182 246.798 483.296 246.459 483.523C246.12 483.745 245.951 484.051 245.951 484.441C245.951 484.812 246.101 485.096 246.4 485.291C246.7 485.486 247.149 485.675 247.748 485.857C248.458 486.085 249.021 486.297 249.438 486.492C249.861 486.681 250.229 486.987 250.541 487.41C250.854 487.827 251.01 488.383 251.01 489.08C251.01 490.024 250.668 490.776 249.984 491.336C249.307 491.896 248.389 492.176 247.23 492.176C246.02 492.176 244.851 491.919 243.725 491.404L244.311 489.783C244.949 490.05 245.482 490.239 245.912 490.35C246.348 490.46 246.781 490.516 247.211 490.516C247.823 490.516 248.295 490.398 248.627 490.164C248.959 489.923 249.125 489.575 249.125 489.119C249.125 488.826 249.031 488.585 248.842 488.396C248.66 488.201 248.432 488.051 248.158 487.947C247.885 487.837 247.494 487.7 246.986 487.537C246.374 487.335 245.87 487.137 245.473 486.941C245.082 486.74 244.75 486.44 244.477 486.043C244.203 485.639 244.066 485.112 244.066 484.461C244.066 483.569 244.408 482.859 245.092 482.332C245.782 481.805 246.7 481.541 247.846 481.541Z" fill="black"/>
<path d="M2.10023 104.165C1.6684 104.208 1.26609 104.403 0.965998 104.716C0.665896 105.028 0.487793 105.436 0.463867 105.868V130.569C0.494032 130.996 0.674902 131.399 0.974423 131.705C1.27394 132.012 1.67277 132.203 2.10023 132.245H5.37296V104.165H2.10023Z" fill="url(#paint11_linear)"/>
<path d="M2.1 172.272C1.54287 172.322 1.02288 172.572 0.63664 172.975C0.250401 173.378 0.0241766 173.907 0 174.464V230.976C0.0241766 231.534 0.250401 232.063 0.63664 232.466C1.02288 232.869 1.54287 233.118 2.1 233.168H16.8273C17.3844 233.118 17.9044 232.869 18.2907 232.466C18.6769 232.063 18.9031 231.534 18.9273 230.976V174.029C18.9031 173.472 18.6769 172.943 18.2907 172.54C17.9044 172.137 17.3844 171.887 16.8273 171.837L2.1 172.272Z" fill="url(#paint12_linear)"/>
<path d="M2.10906 174.029C1.66165 174.063 1.24239 174.259 0.931918 174.582C0.621451 174.905 0.441702 175.331 0.427246 175.777V229.219C0.439496 229.668 0.618264 230.095 0.928948 230.42C1.23962 230.745 1.66013 230.943 2.10906 230.977H6.30906L12.6727 200.75L5.45452 174.029H2.10906Z" fill="url(#paint13_linear)"/>
<path d="M2.1 247.796C1.54066 247.845 1.01836 248.096 0.631541 248.5C0.244721 248.906 0.0200957 249.439 0 249.998V306.51C0.0241766 307.067 0.250401 307.596 0.63664 307.999C1.02288 308.402 1.54287 308.652 2.1 308.702H16.8273C17.3844 308.652 17.9044 308.402 18.2907 307.999C18.6769 307.596 18.9031 307.067 18.9273 306.51V249.544C18.9031 248.987 18.6769 248.458 18.2907 248.055C17.9044 247.652 17.3844 247.403 16.8273 247.353L2.1 247.796Z" fill="url(#paint14_linear)"/>
<path d="M2.10906 249.544C1.66013 249.578 1.23962 249.776 0.928948 250.101C0.618264 250.426 0.439496 250.853 0.427246 251.302V304.744C0.439496 305.192 0.618264 305.619 0.928948 305.945C1.23962 306.269 1.66013 306.467 2.10906 306.501H9.68179V249.544H2.10906Z" fill="url(#paint15_linear)"/>
<path d="M387.9 232.661C388.458 232.613 388.979 232.364 389.365 231.96C389.751 231.557 389.977 231.026 390 230.469V173.957C389.975 173.4 389.749 172.871 389.364 172.468C388.977 172.064 388.457 171.814 387.9 171.765H373.172C372.615 171.814 372.095 172.064 371.709 172.468C371.322 172.871 371.097 173.4 371.072 173.957V230.912C371.097 231.47 371.322 231.999 371.709 232.402C372.095 232.805 372.615 233.055 373.172 233.105L387.9 232.661Z" fill="url(#paint16_linear)"/>
<path d="M387.891 230.912C388.34 230.88 388.76 230.681 389.071 230.356C389.382 230.031 389.56 229.604 389.573 229.155V175.723C389.56 175.275 389.382 174.847 389.071 174.522C388.76 174.198 388.34 173.999 387.891 173.966H380.318V230.921L387.891 230.912Z" fill="url(#paint17_linear)"/>
<path d="M329.918 0H60.0816C28.0816 0 2.14528 26.0052 2.14528 58.0792V739.929C2.12257 747.533 3.60312 755.067 6.50241 762.1C9.40169 769.132 13.6629 775.528 19.0428 780.92C24.4227 786.312 30.8159 790.596 37.8574 793.527C44.8988 796.457 52.4506 797.977 60.0816 798H329.918C337.549 797.977 345.1 796.457 352.143 793.527C359.183 790.596 365.577 786.312 370.957 780.92C376.337 775.528 380.598 769.132 383.497 762.1C386.396 755.067 387.877 747.533 387.854 739.929V58.0792C387.854 26.0052 361.918 0 329.918 0ZM365.209 700.899H24.7907V97.101H365.209V700.899Z" fill="#2A2A2E"/>
<path d="M331.255 2.06519H58.9634C51.7029 2.08537 44.5178 3.53082 37.8183 6.31893C31.1187 9.10703 25.0362 13.1831 19.9184 18.3144C14.8006 23.4456 10.7477 29.5313 7.99135 36.2237C5.235 42.9162 3.82922 50.0843 3.85433 57.3182V740.736C3.82922 747.969 5.235 755.138 7.99135 761.831C10.7477 768.522 14.8006 774.609 19.9184 779.74C25.0362 784.872 31.1187 788.947 37.8183 791.735C44.5178 794.523 51.7029 795.97 58.9634 795.989H331.255C338.514 795.97 345.699 794.523 352.4 791.735C359.098 788.947 365.181 784.872 370.299 779.74C375.417 774.609 379.47 768.522 382.226 761.831C384.982 755.138 386.389 747.969 386.363 740.736V57.273C386.402 42.6709 380.618 28.6515 370.283 18.2983C359.949 7.94512 345.91 2.10597 331.255 2.06519ZM365.208 700.899H24.7907V97.1009H365.208V700.899Z" fill="url(#paint18_linear)"/>
<path d="M3.63623 722.557V734.594H387.272V722.557H3.63623ZM3.63623 63.4052V75.4793H387.272V63.4052H3.63623Z" fill="#37383D"/>
<path d="M329.609 5.49817H62.2091C53.7569 5.52143 45.4482 7.67568 38.0568 11.7603C30.6653 15.8449 24.4317 21.727 19.9364 28.8585C14.613 37.1885 11.796 46.8635 11.8181 56.7387V741.261C11.7963 748.249 13.2001 755.169 15.9442 761.599C18.6885 768.03 22.7159 773.838 27.7818 778.67C37.0324 787.541 49.3706 792.497 62.2091 792.502H329.609C357.437 792.502 380 769.558 380 741.261V56.7387C380 28.4418 357.437 5.49817 329.609 5.49817ZM365.209 700.9H24.7909V97.1009H365.209V700.9Z" fill="#444441"/>
<path d="M327.782 7.24634H62.2183C48.3359 7.29192 35.0393 12.8254 25.2486 22.6316C15.4579 32.4377 9.9736 45.7147 10.0001 59.5466V739.368C9.98866 746.802 11.5689 754.154 14.6353 760.931C17.7016 767.709 22.1835 773.756 27.782 778.67C37.2777 787.054 49.5307 791.677 62.2183 791.66H327.782C341.666 791.623 354.967 786.094 364.76 776.289C374.552 766.482 380.034 753.202 380 739.368V59.5466C380.018 52.6963 378.682 45.9095 376.067 39.5738C373.453 33.238 369.611 27.4775 364.762 22.6209C359.913 17.7644 354.152 13.907 347.806 11.269C341.462 8.6311 334.657 7.26416 327.782 7.24634ZM365.21 700.9H24.7911V97.101H365.21V700.9Z" fill="#0E0F0F"/>
<path d="M224.545 734.595C222.409 728.783 218.542 723.76 213.462 720.198C208.381 716.638 202.33 714.707 196.118 714.667C189.644 714.637 183.33 716.666 178.093 720.458C172.857 724.251 168.972 729.609 167.004 735.754C165.036 741.898 165.086 748.508 167.15 754.623C169.214 760.737 173.18 766.035 178.475 769.746C183.77 773.458 190.115 775.389 196.588 775.259C203.06 775.128 209.322 772.943 214.462 769.021C219.602 765.1 223.351 759.646 225.165 753.454C226.978 747.262 226.761 740.655 224.545 734.595ZM195.772 772.448C190.326 772.417 185.01 770.778 180.499 767.737C175.987 764.696 172.482 760.39 170.427 755.365C168.372 750.338 167.858 744.819 168.953 739.502C170.046 734.186 172.698 729.311 176.573 725.496C180.447 721.682 185.37 719.098 190.718 718.072C196.067 717.044 201.601 717.621 206.621 719.729C211.64 721.836 215.919 725.38 218.917 729.91C221.916 734.441 223.498 739.757 223.463 745.183C223.413 752.461 220.465 759.42 215.268 764.532C210.071 769.645 203.049 772.491 195.745 772.448H195.772Z" fill="url(#paint19_linear)"/>
<path fill-rule="evenodd" clip-rule="evenodd" d="M140.481 53.1698C140.479 54.9689 139.764 56.6939 138.491 57.9705C137.862 58.6017 137.113 59.1027 136.288 59.4446C135.463 59.7865 134.579 59.9625 133.686 59.9625C132.793 59.9625 131.909 59.7865 131.084 59.4446C130.26 59.1027 129.511 58.6017 128.882 57.9705C127.607 56.6918 126.891 54.9629 126.891 53.1608C126.89 52.2666 127.063 51.3807 127.4 50.552C128.089 48.8841 129.412 47.5555 131.082 46.8564C132.749 46.1685 134.622 46.1685 136.291 46.8564C137.123 47.2007 137.879 47.7051 138.516 48.3408C139.152 48.9765 139.656 49.7309 140 50.5611C140.328 51.3917 140.491 52.2774 140.481 53.1698Z" fill="url(#paint20_linear)"/>
<path d="M138.045 52.4633C138.045 53.6576 137.572 54.8036 136.727 55.6516C136.311 56.0701 135.815 56.4023 135.269 56.629C134.723 56.8556 134.137 56.9723 133.545 56.9723C132.954 56.9723 132.368 56.8556 131.822 56.629C131.276 56.4023 130.78 56.0701 130.364 55.6516C129.732 55.0174 129.301 54.2114 129.129 53.3346C128.957 52.4578 129.047 51.5496 129.391 50.7242C129.612 50.175 129.943 49.6759 130.364 49.2569C130.78 48.8372 131.275 48.5042 131.821 48.2771C132.367 48.0502 132.954 47.9335 133.545 47.9343C134.739 47.9417 135.882 48.4168 136.727 49.2569C137.144 49.6779 137.476 50.1765 137.699 50.7242C137.929 51.2756 138.046 51.8665 138.045 52.4633Z" fill="black"/>
<path d="M137.746 52.4634C137.748 53.0161 137.641 53.5638 137.43 54.0752C137.219 54.5866 136.909 55.0515 136.518 55.4434C136.13 55.8361 135.668 56.148 135.157 56.3609C134.646 56.5738 134.099 56.6833 133.546 56.6833C132.992 56.6833 132.445 56.5738 131.935 56.3609C131.424 56.148 130.961 55.8361 130.573 55.4434C129.782 54.6538 129.338 53.5836 129.338 52.4679C129.338 51.3521 129.782 50.2821 130.573 49.4924C131.161 48.9055 131.91 48.5057 132.727 48.3441C133.543 48.1824 134.389 48.266 135.158 48.5845C135.927 48.9027 136.583 49.4414 137.044 50.1321C137.504 50.8226 137.748 51.6341 137.746 52.4634Z" fill="#001A49"/>
<path opacity="0.75" d="M136.145 52.3184C136.155 52.8199 136.014 53.3129 135.739 53.7335C135.466 54.1541 135.071 54.4832 134.606 54.6783C134.143 54.8733 133.631 54.9252 133.137 54.8275C132.643 54.7298 132.19 54.4868 131.836 54.13C131.358 53.6477 131.09 52.9966 131.091 52.3184C131.09 51.986 131.155 51.6567 131.282 51.3492C131.407 51.0405 131.594 50.7597 131.829 50.5232C132.064 50.2868 132.346 50.0996 132.654 49.9725C132.968 49.8561 133.302 49.8038 133.637 49.8184C133.967 49.8167 134.295 49.8815 134.6 50.0087C134.909 50.1358 135.19 50.3231 135.425 50.5594C135.661 50.7959 135.847 51.0767 135.972 51.3855C136.089 51.6828 136.147 51.9994 136.145 52.3184Z" fill="#232323" stroke="#555555" stroke-width="0.57"/>
<path d="M133.927 49.5104C132.627 49.4017 130.636 51.1136 130.292 52.9887C131.7 52.5357 133.236 50.226 133.927 49.5104Z" fill="white"/>
<path d="M225.2 48.9126H164.8C163.993 48.9558 163.235 49.3053 162.68 49.8891C162.125 50.473 161.814 51.2467 161.814 52.0511C161.814 52.8555 162.125 53.6293 162.68 54.2131C163.235 54.797 163.993 55.1465 164.8 55.1897H225.2C226.006 55.1465 226.765 54.797 227.32 54.2131C227.875 53.6293 228.185 52.8555 228.185 52.0511C228.185 51.2467 227.875 50.473 227.32 49.8891C226.765 49.3053 226.006 48.9558 225.2 48.9126Z" fill="#232426"/>
<path d="M195 31.6029C195.855 31.6101 196.691 31.3642 197.404 30.8964C198.118 30.4286 198.676 29.7601 199.008 28.9757C199.339 28.1913 199.429 27.3265 199.266 26.491C199.103 25.6555 198.695 24.8871 198.093 24.2835C197.49 23.6797 196.723 23.2679 195.884 23.1004C195.047 22.9327 194.179 23.0169 193.389 23.3421C192.6 23.6674 191.925 24.219 191.452 24.9271C190.977 25.635 190.725 26.4675 190.727 27.3186C190.725 27.8796 190.833 28.4356 191.047 28.9547C191.261 29.4738 191.575 29.9458 191.972 30.3438C192.368 30.7417 192.84 31.0577 193.36 31.2739C193.88 31.4899 194.437 31.6018 195 31.6029Z" fill="#2C2C2C"/>
<path d="M38.4817 19.9274C39.7181 19.8187 39.0999 21.132 36.409 23.7769C31.7129 28.5074 28.0053 34.1189 25.5007 40.2868C22.9961 46.4547 21.7444 53.0564 21.8181 59.7096V740.102C21.7477 746.756 23.0017 753.357 25.5077 759.525C28.0137 765.693 31.7219 771.304 36.4181 776.034C39.1454 778.67 39.7271 779.993 38.4908 779.885C37.0594 779.484 35.6959 778.874 34.4454 778.073C21.2999 770.654 13.6362 754.604 13.6362 737.575V62.2368C13.6362 45.2079 21.2999 29.0577 34.4362 21.7389C36.409 20.5976 37.7544 19.9274 38.4817 19.9274Z" fill="url(#paint21_linear)"/>
<path d="M351.537 782.608C350.3 782.716 350.919 781.403 353.609 778.758C358.306 774.027 362.013 768.416 364.518 762.249C367.022 756.08 368.274 749.478 368.201 742.825V62.4331C368.271 55.7795 367.017 49.1782 364.51 43.0105C362.005 36.8428 358.297 31.2313 353.6 26.5005C350.873 23.8646 350.291 22.5422 351.528 22.6508C352.959 23.0508 354.322 23.6614 355.573 24.4625C368.718 31.8808 376.382 47.9314 376.382 64.9602V740.299C376.382 757.328 368.718 773.478 355.582 780.796C353.609 781.938 352.264 782.608 351.537 782.608Z" fill="url(#paint22_linear)"/>
<defs>
<filter id="filter0_dd" x="38" y="125" width="51" height="55" filterUnits="userSpaceOnUse" color-interpolation-filters="sRGB">
<feFlood flood-opacity="0" result="BackgroundImageFix"/>
<feColorMatrix in="SourceAlpha" type="matrix" values="0 0 0 0 0 0 0 0 0 0 0 0 0 0 0 0 0 0 127 0"/>
<feOffset dx="-4" dy="-4"/>
<feGaussianBlur stdDeviation="2"/>
<feColorMatrix type="matrix" values="0 0 0 0 1 0 0 0 0 1 0 0 0 0 1 0 0 0 1 0"/>
<feBlend mode="normal" in2="BackgroundImageFix" result="effect1_dropShadow"/>
<feColorMatrix in="SourceAlpha" type="matrix" values="0 0 0 0 0 0 0 0 0 0 0 0 0 0 0 0 0 0 127 0"/>
<feOffset dy="4"/>
<feGaussianBlur stdDeviation="3"/>
<feColorMatrix type="matrix" values="0 0 0 0 0 0 0 0 0 0 0 0 0 0 0 0 0 0 0.25 0"/>
<feBlend mode="normal" in2="effect1_dropShadow" result="effect2_dropShadow"/>
<feBlend mode="normal" in="SourceGraphic" in2="effect2_dropShadow" result="shape"/>
</filter>
<linearGradient id="paint0_linear" x1="104.568" y1="219.825" x2="104.568" y2="235.464" gradientUnits="userSpaceOnUse">
<stop stop-color="#46291B"/>
<stop offset="1" stop-color="#422F26"/>
</linearGradient>
<linearGradient id="paint1_linear" x1="101.103" y1="216" x2="101.103" y2="238.371" gradientUnits="userSpaceOnUse">
<stop stop-color="#46291B"/>
<stop offset="1" stop-color="#422F26"/>
</linearGradient>
<linearGradient id="paint2_linear" x1="100.704" y1="240.865" x2="100.704" y2="256.91" gradientUnits="userSpaceOnUse">
<stop stop-color="#46291B"/>
<stop offset="1" stop-color="#422F26"/>
</linearGradient>
<linearGradient id="paint3_linear" x1="93.1326" y1="303.347" x2="93.1326" y2="315.461" gradientUnits="userSpaceOnUse">
<stop stop-color="#2F3676"/>
<stop offset="1" stop-color="#63699E"/>
</linearGradient>
<linearGradient id="paint4_linear" x1="122.302" y1="264.137" x2="122.302" y2="312.433" gradientUnits="userSpaceOnUse">
<stop stop-color="#2F3676"/>
<stop offset="1" stop-color="#63699E"/>
</linearGradient>
<linearGradient id="paint5_linear" x1="89.0681" y1="288.683" x2="89.0681" y2="292.19" gradientUnits="userSpaceOnUse">
<stop stop-color="#2F3676"/>
<stop offset="1" stop-color="#63699E"/>
</linearGradient>
<linearGradient id="paint6_linear" x1="86.1995" y1="327.894" x2="86.1995" y2="331.4" gradientUnits="userSpaceOnUse">
<stop stop-color="#2F3676"/>
<stop offset="1" stop-color="#63699E"/>
</linearGradient>
<linearGradient id="paint7_linear" x1="117.44" y1="327.894" x2="117.44" y2="331.4" gradientUnits="userSpaceOnUse">
<stop stop-color="#2F3676"/>
<stop offset="1" stop-color="#63699E"/>
</linearGradient>
<linearGradient id="paint8_linear" x1="93.5315" y1="262.065" x2="93.5315" y2="296.972" gradientUnits="userSpaceOnUse">
<stop stop-color="#2F3676"/>
<stop offset="1" stop-color="#63699E"/>
</linearGradient>
<linearGradient id="paint9_linear" x1="107.239" y1="262.224" x2="107.239" y2="297.768" gradientUnits="userSpaceOnUse">
<stop stop-color="#2F3676"/>
<stop offset="1" stop-color="#63699E"/>
</linearGradient>
<linearGradient id="paint10_linear" x1="104.211" y1="342.558" x2="104.211" y2="383.362" gradientUnits="userSpaceOnUse">
<stop stop-color="#2F3676"/>
<stop offset="1" stop-color="#63699E"/>
</linearGradient>
<linearGradient id="paint11_linear" x1="2.91841" y1="132.272" x2="2.91841" y2="104.165" gradientUnits="userSpaceOnUse">
<stop stop-color="#828283"/>
<stop offset="0.04" stop-color="#6C6B6F"/>
<stop offset="0.07" stop-color="#AFB0B3"/>
<stop offset="0.54" stop-color="#AFB0B3"/>
<stop offset="0.92" stop-color="#AFB0B3"/>
<stop offset="0.96" stop-color="#6C6B6F"/>
<stop offset="1" stop-color="#828283"/>
</linearGradient>
<linearGradient id="paint12_linear" x1="9.46367" y1="233.227" x2="9.46367" y2="171.837" gradientUnits="userSpaceOnUse">
<stop stop-color="#828283"/>
<stop offset="0.04" stop-color="#6C6B6F"/>
<stop offset="0.07" stop-color="#AFB0B3"/>
<stop offset="0.54" stop-color="#AFB0B3"/>
<stop offset="0.92" stop-color="#AFB0B3"/>
<stop offset="0.96" stop-color="#6C6B6F"/>
<stop offset="1" stop-color="#828283"/>
</linearGradient>
<linearGradient id="paint13_linear" x1="6.54998" y1="231.031" x2="6.54998" y2="174.029" gradientUnits="userSpaceOnUse">
<stop stop-color="#828283"/>
<stop offset="0.04" stop-color="#6C6B6F"/>
<stop offset="0.07" stop-color="#AFB0B3"/>
<stop offset="0.54" stop-color="#AFB0B3"/>
<stop offset="0.92" stop-color="#AFB0B3"/>
<stop offset="0.96" stop-color="#6C6B6F"/>
<stop offset="1" stop-color="#828283"/>
</linearGradient>
<linearGradient id="paint14_linear" x1="-5197.24" y1="38174" x2="-5197.24" y2="42328" gradientUnits="userSpaceOnUse">
<stop stop-color="#828283"/>
<stop offset="0.04" stop-color="#6C6B6F"/>
<stop offset="0.07" stop-color="#AFB0B3"/>
<stop offset="0.54" stop-color="#AFB0B3"/>
<stop offset="0.92" stop-color="#AFB0B3"/>
<stop offset="0.96" stop-color="#6C6B6F"/>
<stop offset="1" stop-color="#828283"/>
</linearGradient>
<linearGradient id="paint15_linear" x1="5.05453" y1="306.556" x2="5.05453" y2="249.544" gradientUnits="userSpaceOnUse">
<stop stop-color="#828283"/>
<stop offset="0.04" stop-color="#6C6B6F"/>
<stop offset="0.07" stop-color="#AFB0B3"/>
<stop offset="0.54" stop-color="#AFB0B3"/>
<stop offset="0.92" stop-color="#AFB0B3"/>
<stop offset="0.96" stop-color="#6C6B6F"/>
<stop offset="1" stop-color="#828283"/>
</linearGradient>
<linearGradient id="paint16_linear" x1="2899.56" y1="47365" x2="2899.56" y2="43211.5" gradientUnits="userSpaceOnUse">
<stop stop-color="#828283"/>
<stop offset="0.04" stop-color="#6C6B6F"/>
<stop offset="0.07" stop-color="#AFB0B3"/>
<stop offset="0.54" stop-color="#AFB0B3"/>
<stop offset="0.92" stop-color="#AFB0B3"/>
<stop offset="0.96" stop-color="#6C6B6F"/>
<stop offset="1" stop-color="#828283"/>
</linearGradient>
<linearGradient id="paint17_linear" x1="384.946" y1="230.977" x2="384.946" y2="173.966" gradientUnits="userSpaceOnUse">
<stop stop-color="#828283"/>
<stop offset="0.04" stop-color="#6C6B6F"/>
<stop offset="0.07" stop-color="#AFB0B3"/>
<stop offset="0.54" stop-color="#AFB0B3"/>
<stop offset="0.92" stop-color="#AFB0B3"/>
<stop offset="0.96" stop-color="#6C6B6F"/>
<stop offset="1" stop-color="#828283"/>
</linearGradient>
<linearGradient id="paint18_linear" x1="195.109" y1="796.758" x2="195.109" y2="2.06519" gradientUnits="userSpaceOnUse">
<stop stop-color="#828283"/>
<stop offset="0.04" stop-color="#312F37"/>
<stop offset="0.07" stop-color="#4F4F4F"/>
<stop offset="0.54" stop-color="#4E4F51"/>
<stop offset="0.92" stop-color="#4F4F4F"/>
<stop offset="0.96" stop-color="#4F4F4F"/>
<stop offset="1" stop-color="#4F4F4F"/>
</linearGradient>
<linearGradient id="paint19_linear" x1="165.755" y1="758.78" x2="242.548" y2="723.45" gradientUnits="userSpaceOnUse">
<stop stop-color="#FCFEFF"/>
<stop offset="0.15" stop-color="#6C6C6E"/>
<stop offset="0.3" stop-color="#0E0F0F"/>
<stop offset="0.52" stop-color="#6C6C6E"/>
<stop offset="0.65" stop-color="#FCFEFF"/>
<stop offset="1" stop-color="#0E0F0F"/>
</linearGradient>
<linearGradient id="paint20_linear" x1="128.691" y1="48.5321" x2="138.639" y2="57.8255" gradientUnits="userSpaceOnUse">
<stop stop-color="#1C1518"/>
<stop offset="1" stop-color="#191715"/>
</linearGradient>
<linearGradient id="paint21_linear" x1="22.9272" y1="399.906" x2="13.6908" y2="399.906" gradientUnits="userSpaceOnUse">
<stop stop-color="#404040"/>
<stop offset="0.6" stop-color="#838383"/>
<stop offset="1" stop-color="#A7A7A7"/>
</linearGradient>
<linearGradient id="paint22_linear" x1="367.091" y1="402.63" x2="376.327" y2="402.63" gradientUnits="userSpaceOnUse">
<stop stop-color="#404040"/>
<stop offset="0.6" stop-color="#838383"/>
<stop offset="1" stop-color="#A7A7A7"/>
</linearGradient>
<clipPath id="clip0">
<rect width="360" height="640" fill="white" transform="translate(15 79)"/>
</clipPath>
</defs>
</svg>
