<svg width="36" height="36" viewBox="0 0 36 36" fill="none" xmlns="http://www.w3.org/2000/svg">
<g clip-path="url(#clip0)">
<path d="M27.816 23.4639C28.115 22.3159 28.281 21.1459 28.281 19.9999C28.281 15.8389 26.159 13.2209 23.023 11.9649C23.44 10.9569 23.688 9.85691 23.688 8.76491C23.688 7.18391 23.193 6.26691 22.373 5.73291C23.464 5.25091 24.89 4.23291 25.4 3.72191C26.181 2.94091 26.34 1.83291 25.754 1.24691C25.168 0.660907 24.061 0.818907 23.279 1.60091C22.668 2.21191 21.331 4.13091 21.056 5.21991C20.172 5.02491 19.126 4.99991 18 4.99991C16.875 4.99991 15.828 5.02491 14.945 5.21891C14.67 4.12991 13.333 2.21191 12.722 1.59991C11.941 0.818907 10.833 0.659907 10.247 1.24591C9.66199 1.83291 9.81999 2.93991 10.601 3.72191C11.112 4.23291 12.538 5.25091 13.628 5.73291C12.807 6.26591 12.312 7.18391 12.312 8.76491C12.312 9.85791 12.56 10.9569 12.977 11.9649C9.84099 13.2209 7.71899 15.8389 7.71899 19.9999C7.71899 21.1459 7.88599 22.3169 8.18399 23.4639V23.4869L8.18999 23.4839C9.39899 28.1049 12.833 32.3309 17.002 32.9239L17 32.9999C17 34.6569 17.448 35.9999 18 35.9999C18.553 35.9999 19 34.6569 19 32.9999C19 32.9739 18.998 32.9509 18.997 32.9249C23.166 32.3319 26.601 28.1059 27.81 23.4849L27.816 23.4879V23.4639V23.4639Z" fill="#222221"/>
<path d="M14.6241 19H21.3761C19.9141 17.576 18.7611 16.119 18.2701 15H17.7301C17.2391 16.119 16.0861 17.576 14.6241 19V19ZM9.24608 23C8.88508 23.187 8.53108 23.349 8.18408 23.488C8.50408 24.707 8.98308 25.895 9.58508 27H26.4151C27.0221 25.8901 27.4925 24.7109 27.8161 23.488C27.4542 23.3424 27.0994 23.1796 26.7531 23H9.24608ZM12.8391 31C14.3571 32.234 16.1171 33 18.0001 33C19.8841 33 21.6431 32.234 23.1621 31H12.8391Z" fill="#EFE337"/>
<path d="M17.478 14.5392C17.6932 14.138 17.8 13.7895 17.8 13.5049C17.8 13.231 17.7011 13.0199 17.5178 12.8487C17.3281 12.6716 17.0398 12.5303 16.6552 12.4258C15.8847 12.2165 14.7988 12.1727 13.5601 12.2128C12.4166 12.2499 11.1616 12.3576 9.9327 12.463C9.8349 12.4714 9.73726 12.4798 9.63986 12.4881C8.3225 12.6007 7.04585 12.7042 6 12.7039L17.478 14.5392ZM17.478 14.5392C17.2641 14.9381 16.9506 15.3749 16.556 15.8322M17.478 14.5392L16.556 15.8322M16.556 15.8322C15.767 16.7467 14.6676 17.7269 13.4352 18.6281M16.556 15.8322L13.4352 18.6281M13.4352 18.6281C12.2033 19.529 10.8445 20.3464 9.53984 20.9378M13.4352 18.6281L9.53984 20.9378M9.53984 20.9378C8.23132 21.5309 6.994 21.8889 6 21.8889M9.53984 20.9378L6 21.8889M6 21.8889C3.96885 21.8889 2.52248 21.2907 1.58515 20.3922M6 21.8889L1.58515 20.3922M1.58515 20.3922C0.64734 19.4932 0.2 18.2754 0.2 16.9989M1.58515 20.3922L0.2 16.9989M0.2 16.9989C0.2 15.7263 0.644481 14.6639 1.57238 13.9148M0.2 16.9989L1.57238 13.9148M1.57238 13.9148C2.50641 13.1607 3.95526 12.7039 5.99995 12.7039L1.57238 13.9148ZM18.5219 14.5392C18.3068 14.138 18.2 13.7895 18.2 13.5049C18.2 13.231 18.2989 13.0199 18.4822 12.8487C18.6719 12.6715 18.9602 12.5302 19.3449 12.4257C20.1153 12.2162 21.2012 12.1723 22.4399 12.2125C23.5847 12.2495 24.841 12.3573 26.0712 12.4629C26.1677 12.4712 26.264 12.4794 26.3601 12.4877C27.6775 12.6003 28.9542 12.7039 30 12.7039C32.0452 12.7039 33.4941 13.1607 34.428 13.9148C35.3557 14.6639 35.8 15.7263 35.8 16.9989C35.8 18.2754 35.3529 19.4932 34.4152 20.3922C33.478 21.2907 32.0317 21.8889 30 21.8889C29.0057 21.8889 27.7683 21.5309 26.4597 20.9378C25.155 20.3464 23.7963 19.529 22.5644 18.6281C21.3321 17.727 20.2327 16.7467 19.4438 15.8322C19.0493 15.375 18.7359 14.9381 18.5219 14.5392Z" fill="#222221" stroke="#EFE337" stroke-width="0.4"/>
<path d="M34 18.9999C33.787 18.9999 28.684 18.9529 19.594 14.9139M34 18.9999V18.7999C33.8149 18.7999 28.7405 18.7588 19.6778 14.7323M34 18.9999L34.0003 18.7999C34.2125 18.8002 34.4161 18.7163 34.5664 18.5665C34.7166 18.4167 34.8012 18.2133 34.8015 18.0011C34.8018 17.7889 34.7179 17.5853 34.5681 17.4351C34.4183 17.2848 34.2149 17.2002 34.0027 17.1999M34 18.9999C34.2652 19.0003 34.5198 18.8953 34.7076 18.7081C34.8954 18.5208 35.0011 18.2666 35.0015 18.0014C35.0019 17.7362 34.8969 17.4817 34.7097 17.2939C34.5224 17.1061 34.2682 17.0003 34.003 16.9999M19.594 14.9139L19.68 14.7333C19.6792 14.733 19.6785 14.7326 19.6778 14.7323M19.594 14.9139L19.6752 14.7312C19.6761 14.7315 19.6769 14.7319 19.6778 14.7323M19.594 14.9139C19.3586 14.8019 19.1763 14.6023 19.0859 14.3578C18.9955 14.1133 19.0042 13.8431 19.1101 13.6049C19.216 13.3667 19.4107 13.1792 19.6528 13.0824C19.8948 12.9857 20.1651 12.9873 20.406 13.0869M19.6778 14.7323C19.4905 14.6424 19.3456 14.4833 19.2735 14.2884C19.2012 14.0928 19.2081 13.8767 19.2928 13.6861C19.3775 13.4955 19.5333 13.3456 19.727 13.2682C19.9199 13.1911 20.1352 13.192 20.3273 13.2708M20.3273 13.2708C20.3265 13.2704 20.3256 13.2701 20.3248 13.2697L20.406 13.0869M20.3273 13.2708C28.9881 17.1191 33.9134 17.1997 34.0027 17.1999M20.3273 13.2708C20.3281 13.2711 20.3288 13.2714 20.3296 13.2717L20.406 13.0869M20.406 13.0869C29.054 16.9299 33.954 16.9999 34.003 16.9999M34.0027 17.1999L34.003 16.9999M34.0027 17.1999C34.0028 17.1999 34.0029 17.1999 34.003 17.1999V16.9999M2.00002 18.7999L1.99982 18.7999C1.78765 18.8001 1.58408 18.7161 1.4339 18.5662C1.28372 18.4163 1.19924 18.2129 1.19902 18.0007C1.19881 17.7886 1.28289 17.585 1.43277 17.4348C1.58265 17.2846 1.78605 17.2001 1.99822 17.1999C2.08296 17.1998 7.01059 17.1205 15.6753 13.2687L15.6753 13.2687L15.6784 13.2673C15.7746 13.2225 15.8789 13.1973 15.985 13.1933C16.091 13.1892 16.1969 13.2063 16.2963 13.2435C16.3958 13.2808 16.4868 13.3374 16.5641 13.4102C16.6414 13.483 16.7034 13.5704 16.7466 13.6674C16.7898 13.7644 16.8132 13.8691 16.8155 13.9752C16.8178 14.0814 16.799 14.1869 16.7601 14.2857C16.7212 14.3845 16.663 14.4746 16.589 14.5507C16.5149 14.6267 16.4265 14.6873 16.3288 14.7289L16.3287 14.7289L16.3258 14.7302C7.26145 18.7588 2.18513 18.7999 2.00002 18.7999Z" fill="#222221" stroke="#EFE337" stroke-width="0.4"/>
</g>
<defs>
<clipPath id="clip0">
<rect width="36" height="36" fill="white"/>
</clipPath>
</defs>
</svg>
